<?xml version="1.0" encoding="utf-8"?>
<svg version="1.1" xmlns:xlink="http://www.w3.org/1999/xlink" width="26px" height="26px" xmlns="http://www.w3.org/2000/svg">
  <g transform="matrix(1 0 0 1 -665 -680 )">
    <path d="M 6.640625 12.153125  L 10.534375 17.553125  C 10.93125 18.10625  11.753125 18.10625  12.15 17.553125  L 18.73125 8.428125  C 18.85 8.2625  18.73125 8.03125  18.528125 8.03125  L 17.0625 8.03125  C 16.74375 8.03125  16.440625 8.184375  16.253125 8.446875  L 11.34375 15.259375  L 9.11875 12.171875  C 8.93125 11.9125  8.63125 11.75625  8.309375 11.75625  L 6.84375 11.75625  C 6.640625 11.75625  6.521875 11.9875  6.640625 12.153125  Z M 25 1.5  C 25.5 0.946875  25.053125 0.5  24.5 1  L 1.5 1  C 0.946875 0.5  0.5 0.946875  1 1.5  L 1 24.5  C 0.5 25.053125  0.946875 25.5  1.5 25  L 24.5 25  C 25.053125 25.5  25.5 25.053125  25 24.5  L 25 1.5  Z M 23 3  L 23 23  L 3 23  L 3 3  L 23 3  Z " fill-rule="nonzero" fill="#000000" stroke="none" transform="matrix(1 0 0 1 665 680 )" />
  </g>
</svg>