<?xml version="1.0" encoding="utf-8"?>
<svg version="1.1" xmlns:xlink="http://www.w3.org/1999/xlink" width="30px" height="26px" xmlns="http://www.w3.org/2000/svg">
  <g transform="matrix(1 0 0 1 -850 -680 )">
    <path d="M 13.5 19.5  C 13.5 20.3284271247462  14.1715728752538 21  15 21  C 15.8284271247462 21  16.5 20.3284271247462  16.5 19.5  C 16.5 18.6715728752538  15.8284271247462 18  15 18  C 14.1715728752538 18  13.5 18.6715728752538  13.5 19.5  Z M 14.25 9.75  C 14.1125 9.75  14 9.8625  14 10  L 14 15.75  C 14 15.8875  14.1125 16  14.25 16  L 15.75 16  C 15.8875 16  16 15.8875  16 15.75  L 16 10  C 16 9.8625  15.8875 9.75  15.75 9.75  L 14.25 9.75  Z M 28 25  C 28.76875 25.25  29.25 24.41875  28.865625 23.75  L 15.865625 1.25  C 15.671875 0.915625  15.3375 0.75  15 0.75  C 14.6625 0.75  14.325 0.915625  14.134375 1.25  L 1.134375 23.75  C 0.75 24.41875  1.23125 25.25  2 25  L 28 25  Z M 25.61875 22.878125  L 4.38125 22.878125  L 15 4.496875  L 25.61875 22.878125  Z " fill-rule="nonzero" fill="#000000" stroke="none" transform="matrix(1 0 0 1 850 680 )" />
  </g>
</svg>