<?xml version="1.0" encoding="utf-8"?>
<svg version="1.1" xmlns:xlink="http://www.w3.org/1999/xlink" width="26px" height="4px" xmlns="http://www.w3.org/2000/svg">
  <g transform="matrix(1 0 0 1 -16 -958 )">
    <path d="M 0.5 3.125  L 0.5 0.875  L 2.75 0.875  L 2.75 3.125  L 0.5 3.125  Z M 6.1875 3.125  L 6.1875 0.875  L 8.4375 0.875  L 8.4375 3.125  L 6.1875 3.125  Z M 17.5625 3.125  L 17.5625 0.875  L 19.8125 0.875  L 19.8125 3.125  L 17.5625 3.125  Z M 23.25 3.125  L 23.25 0.875  L 25.5 0.875  L 25.5 3.125  L 23.25 3.125  Z M 11.875 3.125  L 11.875 0.875  L 14.125 0.875  L 14.125 3.125  L 11.875 3.125  Z " fill-rule="nonzero" fill="#ffffff" stroke="none" transform="matrix(1 0 0 1 16 958 )" />
  </g>
</svg>