<?xml version="1.0" encoding="utf-8"?>
<svg version="1.1" xmlns:xlink="http://www.w3.org/1999/xlink" width="26px" height="26px" xmlns="http://www.w3.org/2000/svg">
  <g transform="matrix(1 0 0 1 -16 -812 )">
    <path d="M 4.309375 20.190625  C 4.515625 20.390625  4.775 20.5  5.053125 20.5  C 5.115625 20.5  5.178125 20.49375  5.240625 20.484375  L 10.496875 19.5625  C 10.559375 19.55  10.61875 19.521875  10.6625 19.475  L 23.909375 6.228125  C 24.03125 6.10625  24.03125 5.909375  23.909375 5.7875  L 18.715625 0.590625  C 18.65625 0.53125  18.578125 0.5  18.49375 0.5  C 18.409375 0.5  18.33125 0.53125  18.271875 0.590625  L 5.025 13.8375  C 4.978125 13.884375  4.95 13.940625  4.9375 14.003125  L 4.015625 19.259375  C 3.95625 19.60625  4.0625 19.94375  4.309375 20.190625  Z M 6.671875 17.83125  L 7.159375 15.05  L 18.49375 3.71875  L 20.784375 6.009375  L 9.45 17.340625  L 6.671875 17.83125  Z M 25.5 24.125  C 25.5 23.571875  25.053125 23.125  24.5 23  L 1.5 23  C 0.946875 23.125  0.5 23.571875  0.5 24.125  L 0.5 25.25  C 0.5 25.3875  0.6125 25.5  0.75 25  L 25.25 25  C 25.3875 25.5  25.5 25.3875  25.5 25.25  L 25.5 24.125  Z " fill-rule="nonzero" fill="#ffffff" stroke="none" transform="matrix(1 0 0 1 16 812 )" />
  </g>
</svg>