<?xml version="1.0" encoding="utf-8"?>
<svg version="1.1" xmlns:xlink="http://www.w3.org/1999/xlink" width="10px" height="10px" xmlns="http://www.w3.org/2000/svg">
  <g transform="matrix(1 0 0 1 -211 -955 )">
    <path d="M 9.21875 9.778125  C 9.253125 9.709375  9.259375 9.63125  9.2375 9.55625  L 6.40625 0.703125  C 6.36875 0.58125  6.25625 0.5  6.128125 0.5  L 3.709375 0.5  C 3.58125 0.5  3.471875 0.58125  3.43125 0.703125  L 0.578125000000004 9.55625  C 0.568750000000005 9.584375  0.562500000000004 9.615625  0.562500000000004 9.646875  C 0.562500000000004 9.80625  0.693750000000005 9.9375  0.853125000000002 9.9375  L 2.615625 9.9375  C 2.746875 9.9375  2.859375 9.85  2.896875 9.725  L 3.44375 7.8  L 6.225 7.8  L 6.765625 9.721875  C 6.8 9.846875  6.915625 9.934375  7.046875 9.934375  L 8.959375 9.934375  C 8.990625 9.934375  9.01875 9.93125  9.046875 9.921875  C 9.121875 9.896875  9.18125 9.846875  9.21875 9.778125  Z M 5.953125 6.171875  L 3.728125 6.171875  L 4.753125 2.51875  L 4.95 2.51875  L 5.953125 6.171875  Z " fill-rule="nonzero" fill="#000000" stroke="none" transform="matrix(1 0 0 1 211 955 )" />
  </g>
</svg>