<?xml version="1.0" encoding="utf-8"?>
<svg version="1.1" xmlns:xlink="http://www.w3.org/1999/xlink" width="22px" height="28px" xmlns="http://www.w3.org/2000/svg">
  <g transform="matrix(1 0 0 1 -205 -811 )">
    <path d="M 22 1  C 22 0.446875  21.553125 0  21 0  L 4.25 0  C 4.1125 0  4 0.1125  4 0.25  L 4 2  C 4 2.1375  4.1125 2.25  4.25 2.25  L 19.75 2.25  L 19.75 23.75  C 19.75 23.8875  19.8625 24  20 24  L 21.75 24  C 21.8875 24  22 23.8875  22 23.75  L 22 1  Z M 18 5  C 18 4.446875  17.553125 4  17 4  L 1 4  C 0.446875 4  0 4.446875  0 5  L 0 21.584375  C 0 21.85  0.10625 22.103125  0.29375 22.290625  L 5.709375 27.70625  C 5.778125 27.775  5.85625 27.83125  5.940625 27.878125  L 5.940625 27.9375  L 6.071875 27.9375  C 6.18125 27.978125  6.296875 28  6.415625 28  L 17 28  C 17.553125 28  18 27.553125  18 27  L 18 5  Z M 5.9375 22.0625  L 5.9375 24.75625  L 3.246875 22.0625  L 5.9375 22.0625  Z M 15.75 6.25  L 15.75 25.75  L 7.9375 25.75  L 7.9375 21.3125  C 7.9375 20.621875  7.378125 20.0625  6.6875 20.0625  L 2.25 20.0625  L 2.25 6.25  L 15.75 6.25  Z " fill-rule="nonzero" fill="#000000" stroke="none" transform="matrix(1 0 0 1 205 811 )" />
  </g>
</svg>