<?xml version="1.0" encoding="utf-8"?>
<svg version="1.1" xmlns:xlink="http://www.w3.org/1999/xlink" width="26px" height="24px" xmlns="http://www.w3.org/2000/svg">
  <g transform="matrix(1 0 0 1 -387 -948 )">
    <path d="M 26 20  C 26 19.8625  25.8875 19.75  25.75 19.75  L 7.5 19.75  C 7.3625 19.75  7.25 19.8625  7.25 20  L 7.25 21.75  C 7.25 21.8875  7.3625 22  7.5 22  L 25.75 22  C 25.8875 22  26 21.8875  26 21.75  L 26 20  Z M 26 2.25  C 26 2.1125  25.8875 2  25.75 2  L 7.5 2  C 7.3625 2  7.25 2.1125  7.25 2.25  L 7.25 4  C 7.25 4.1375  7.3625 4.25  7.5 4.25  L 25.75 4.25  C 25.8875 4.25  26 4.1375  26 4  L 26 2.25  Z M 26 11.125  C 26 10.9875  25.8875 10.875  25.75 11  L 7.5 11  C 7.3625 10.875  7.25 10.9875  7.25 11.125  L 7.25 12.875  C 7.25 13.0125  7.3625 13.125  7.5 13  L 25.75 13  C 25.8875 13.125  26 13.0125  26 12.875  L 26 11.125  Z M 3.875 18.375  C 3.875 18.30625  3.81875 18.25  3.75 18.25  L 0.125 18.25  C 0.0562499999999999 18.25  0 18.30625  0 18.375  L 0 19.4375  C 0 19.50625  0.0562499999999999 19.5625  0.125 19.5625  L 2.3875 19.5625  L 2.3875 20.203125  L 1.271875 20.203125  C 1.203125 20.203125  1.146875 20.259375  1.146875 20.328125  L 1.146875 21.390625  C 1.146875 21.459375  1.203125 21.515625  1.271875 21.515625  L 2.3875 21.515625  L 2.3875 22.1875  L 0.125 22.1875  C 0.0562499999999999 22.1875  0 22.24375  0 22.3125  L 0 23.375  C 0 23.44375  0.0562499999999999 23.5  0.125 23.5  L 3.75 23.5  C 3.81875 23.5  3.875 23.44375  3.875 23.375  L 3.875 18.375  Z M 0 1.75  C 0 1.81875  0.0562499999999999 1.875  0.125 1.875  L 1.3125 1.875  L 1.3125 5.625  C 1.3125 5.69375  1.36875 5.75  1.4375 5.75  L 2.6875 5.75  C 2.75625 5.75  2.8125 5.69375  2.8125 5.625  L 2.8125 0.75  C 2.8125 0.6125  2.7 0.5  2.5625 0.5  L 0.125 0.5  C 0.0562499999999999 0.5  0 0.55625  0 0.625  L 0 1.75  Z M 3.875 9.5  C 3.875 9.43125  3.81875 9.375  3.75 9.375  L 0.125 9.375  C 0.0562499999999999 9.375  0 9.43125  0 9.5  L 0 10.625  C 0 10.69375  0.0562499999999999 10.75  0.125 10.75  L 2.2625 10.75  L 0.0656250000000003 13.178125  C 0.0250000000000004 13.225  0 13.284375  0 13.346875  L 0 14.5  C 0 14.56875  0.0562500000000004 14.625  0.125 14.625  L 3.75 14.625  C 3.81875 14.625  3.875 14.56875  3.875 14.5  L 3.875 13.375  C 3.875 13.30625  3.81875 13.25  3.75 13.25  L 1.6125 13.25  L 3.809375 10.821875  C 3.85 10.775  3.875 10.715625  3.875 10.653125  L 3.875 9.5  Z " fill-rule="nonzero" fill="#000000" stroke="none" transform="matrix(1 0 0 1 387 948 )" />
  </g>
</svg>