<?xml version="1.0" encoding="utf-8"?>
<svg version="1.1" xmlns:xlink="http://www.w3.org/1999/xlink" width="14px" height="5px" xmlns="http://www.w3.org/2000/svg">
  <g transform="matrix(1 0 0 1 -393 -812 )">
    <path d="M 2.25 5  L 2.25 2.75  L 2 2.75  C 2.1375 2.75  2.25 2.6375  2.25 2.5  L 2.25 2.75  L 11.75 2.75  L 11.75 2.5  C 11.75 2.6375  11.8625 2.75  12 2.75  L 11.75 2.75  L 11.75 5  L 14 5  L 14 2.5  C 14 1.396875  13.103125 0.5  12 0.5  L 2 0.5  C 0.896875 0.5  0 1.396875  0 2.5  L 0 5  L 2.25 5  Z " fill-rule="nonzero" fill="#ffffff" stroke="none" transform="matrix(1 0 0 1 393 812 )" />
  </g>
</svg>