<?xml version="1.0" encoding="utf-8"?>
<svg version="1.1" xmlns:xlink="http://www.w3.org/1999/xlink" width="26px" height="26px" xmlns="http://www.w3.org/2000/svg">
  <g transform="matrix(1 0 0 1 -387 -880 )">
    <path d="M 21.859375 24.71875  L 20.69375 23.221875  C 23.61875 20.934375  25.5 17.371875  25.5 13.371875  C 25.5 6.46875  19.921875 0.884375  13.01875 0.875  C 6.10625 0.865625  0.5 6.4625  0.5 13.371875  C 0.5 17.284375  2.296875 20.775  5.1125 23.065625  C 5.221875 23.153125  5.38125 23.134375  5.46875 23.025  L 6.7 21.446875  C 6.784375 21.340625  6.765625 21.1875  6.6625 21.1  C 6.409375 20.89375  6.165625 20.671875  5.93125 20.4375  C 5.0125 19.51875  4.290625 18.45  3.7875 17.259375  C 3.2625 16.03125  3 14.721875  3 13.371875  C 3 12.021875  3.2625 10.7125  3.784375 9.48125  C 4.2875 8.290625  5.009375 7.221875  5.928125 6.303125  C 6.846875 5.384375  7.915625 4.6625  9.10625 4.159375  C 10.340625 3.6375  11.65 3.375  13 3.375  C 14.35 3.375  15.659375 3.6375  16.890625 4.159375  C 18.08125 4.6625  19.15 5.384375  20.06875 6.303125  C 20.9875 7.221875  21.709375 8.290625  22.2125 9.48125  C 22.734375 10.7125  22.996875 12.021875  22.996875 13.371875  C 22.996875 14.721875  22.734375 16.03125  22.2125 17.2625  C 21.709375 18.453125  20.9875 19.521875  20.06875 20.440625  C 19.778125 20.73125  19.471875 21.003125  19.153125 21.253125  L 17.88125 19.625  C 17.753125 19.459375  17.490625 19.515625  17.440625 19.71875  L 16.203125 24.7875  C 16.165625 24.94375  16.284375 25.096875  16.44375 25.096875  L 21.6625 25.121875  C 21.871875 25.121875  21.990625 24.88125  21.859375 24.71875  Z " fill-rule="nonzero" fill="#000000" stroke="none" transform="matrix(1 0 0 1 387 880 )" />
  </g>
</svg>