<?xml version="1.0" encoding="utf-8"?>
<svg version="1.1" xmlns:xlink="http://www.w3.org/1999/xlink" width="22px" height="18px" xmlns="http://www.w3.org/2000/svg">
  <g transform="matrix(1 0 0 1 -205 -158 )">
    <path d="M 12 1.94375  C 12 1.521875  11.509375 1.284375  11.175 1.546875  L 2.19375 8.603125  C 2.065625 8.703125  2 8.853125  2 9  C 2 9.146875  2.065625 9.296875  2.19375 9.396875  L 11.175 16.453125  C 11.509375 16.715625  12 16.478125  12 16.05625  L 12 1.94375  Z M 22 1.94375  C 22 1.521875  21.509375 1.284375  21.175 1.546875  L 12.19375 8.603125  C 12.065625 8.703125  12 8.853125  12 9  C 12 9.146875  12.065625 9.296875  12.19375 9.396875  L 21.175 16.453125  C 21.509375 16.715625  22 16.478125  22 16.05625  L 22 1.94375  Z M 2 0.9375  C 2 0.834375  1.909375 0.75  1.8 0.75  L 0.200000000000001 0.75  C 0.0906250000000011 0.75  0 0.834375  0 0.9375  L 0 17.0625  C 0 17.165625  0.0906250000000011 17.25  0.200000000000001 17.25  L 1.8 17.25  C 1.909375 17.25  2 17.165625  2 17.0625  L 2 0.9375  Z " fill-rule="nonzero" fill="#000000" stroke="none" transform="matrix(1 0 0 1 205 158 )" />
  </g>
</svg>