<?xml version="1.0" encoding="utf-8"?>
<svg version="1.1" xmlns:xlink="http://www.w3.org/1999/xlink" width="9px" height="22px" xmlns="http://www.w3.org/2000/svg">
  <g transform="matrix(1 0 0 1 -119 -949 )">
    <path d="M 8.196875 17.34375  C 8.325 17.18125  8.209375 16.9375  8 16.9375  L 5.625 16.9375  L 5.625 0.375  C 5.625 0.2375  5.5125 0.125  5.375 0.125  L 3.625 0.125  C 3.4875 0.125  3.375 0.2375  3.375 0.375  L 3.375 16.9375  L 1 16.9375  C 0.790625 16.9375  0.671875 17.18125  0.803125 17.34375  L 4.303125 21.778125  C 4.403125 21.90625  4.596875 21.90625  4.696875 21.778125  L 8.196875 17.34375  Z " fill-rule="nonzero" fill="#ffffff" stroke="none" transform="matrix(1 0 0 1 119 949 )" />
  </g>
</svg>