<?xml version="1.0" encoding="utf-8"?>
<svg version="1.1" xmlns:xlink="http://www.w3.org/1999/xlink" width="26px" height="26px" xmlns="http://www.w3.org/2000/svg">
  <g transform="matrix(1 0 0 1 -110 -812 )">
    <path d="M 25 13.25  C 25.5 13.1125  25.3875 13  25.25 13  L 23.5 13  C 23.3625 13  23.25 13.1125  23 13.25  L 23 23  L 3 23  L 3 2.75  L 12.75 2.75  C 12.8875 2.75  13 2.6375  13 2.5  L 13 0.75  C 13 0.6125  12.8875 0.5  12.75 1  L 1.5 1  C 0.946875 0.5  0.5 0.946875  1 1.5  L 1 24.5  C 0.5 25.053125  0.946875 25.5  1.5 25  L 24.5 25  C 25.053125 25.5  25.5 25.053125  25 24.5  L 25 13.25  Z M 8.19375 13.540625  C 8.15 13.5875  8.121875 13.65  8.121875 13.715625  L 8.0625 17.43125  C 8.059375 17.709375  8.284375 17.9375  8.5625 17.9375  L 8.575 17.9375  L 12.2625 17.846875  C 12.325 17.84375  12.3875 17.81875  12.43125 17.775  L 25.428125 4.80625  C 25.525 4.709375  25.525 4.55  25.428125 4.453125  L 21.54375 0.571875  C 21.49375 0.521875  21.43125 0.5  21.365625 0.5  C 21.3 0.5  21.2375 0.525  21.1875 0.571875  L 8.19375 13.540625  Z M 10.084375 15.903125  L 10.10625 14.453125  L 21.365625 3.21875  L 22.778125 4.628125  L 11.5125 15.86875  L 10.084375 15.903125  Z " fill-rule="nonzero" fill="#ffffff" stroke="none" transform="matrix(1 0 0 1 110 812 )" />
  </g>
</svg>