<?xml version="1.0" encoding="utf-8"?>
<svg version="1.1" xmlns:xlink="http://www.w3.org/1999/xlink" width="24px" height="24px" xmlns="http://www.w3.org/2000/svg">
  <g transform="matrix(1 0 0 1 -296 -813 )">
    <path d="M 23.675 21.978125  L 13.721875 12  L 23.675 2.021875  C 23.83125 1.865625  23.721875 1.59375  23.5 1.59375  L 20.671875 1.59375  C 20.60625 1.59375  20.540625 1.61875  20.496875 1.665625  L 11.95625 10.228125  L 9.1375 7.4  C 9.528125 6.709375  9.753125 5.9125  9.753125 5.0625  C 9.753125 2.440625  7.625 0.3125  5.003125 0.3125  C 2.38125 0.3125  0.253124999999999 2.440625  0.253124999999999 5.0625  C 0.253124999999999 7.684375  2.38125 9.8125  5.003125 9.8125  C 5.86875 9.8125  6.678125 9.58125  7.375 9.178125  L 10.1875 12  L 7.371875 14.821875  C 6.675 14.41875  5.865625 14.1875  5 14.1875  C 2.378125 14.1875  0.25 16.315625  0.25 18.9375  C 0.25 21.559375  2.378125 23.6875  5 23.6875  C 7.621875 23.6875  9.75 21.559375  9.75 18.9375  C 9.75 18.0875  9.525 17.290625  9.134375 16.6  L 11.953125 13.771875  L 20.49375 22.334375  C 20.540625 22.38125  20.603125 22.40625  20.66875 22.40625  L 23.5 22.40625  C 23.721875 22.40625  23.834375 22.1375  23.675 21.978125  Z M 7.5 5.0625  C 7.5 6.440625  6.378125 7.5625  5 7.5625  C 3.621875 7.5625  2.5 6.440625  2.5 5.0625  C 2.5 3.684375  3.621875 2.5625  5 2.5625  C 6.378125 2.5625  7.5 3.684375  7.5 5.0625  Z M 7.5 18.9375  C 7.5 20.315625  6.378125 21.4375  5 21.4375  C 3.621875 21.4375  2.5 20.315625  2.5 18.9375  C 2.5 17.559375  3.621875 16.4375  5 16.4375  C 6.378125 16.4375  7.5 17.559375  7.5 18.9375  Z " fill-rule="nonzero" fill="#000000" stroke="none" transform="matrix(1 0 0 1 296 813 )" />
  </g>
</svg>