<?xml version="1.0" encoding="utf-8"?>
<svg version="1.1" xmlns:xlink="http://www.w3.org/1999/xlink" width="27px" height="22px" xmlns="http://www.w3.org/2000/svg">
  <g transform="matrix(1 0 0 1 -946 -882 )">
    <path d="M 17.5 0.25  C 17.5 0.1125  17.3875 0  17.25 0  L 0.25 0  C 0.1125 0  0 0.1125  0 0.25  L 0 4.25  C 0 4.3875  0.1125 4.5  0.25 4.5  L 2 4.5  C 2.1375 4.5  2.25 4.3875  2.25 4.25  L 2.25 2.25  L 8 2.25  L 8 19.75  L 4.625 19.75  C 4.4875 19.75  4.375 19.8625  4.375 20  L 4.375 21.75  C 4.375 21.8875  4.4875 22  4.625 22  L 12.875 22  C 13.0125 22  13.125 21.8875  13.125 21.75  L 13.125 20  C 13.125 19.8625  13.0125 19.75  12.875 19.75  L 10 19.75  L 10 2.25  L 15.25 2.25  L 15.25 4.25  C 15.25 4.3875  15.3625 4.5  15.5 4.5  L 17.25 4.5  C 17.3875 4.5  17.5 4.3875  17.5 4.25  L 17.5 0.25  Z M 25.95 17.428125  C 26.06875 17.28125  25.9625 17.0625  25.775 17.0625  L 23.75 17.0625  L 23.75 4.9375  L 25.775 4.9375  C 25.9625 4.9375  26.06875 4.71875  25.953125 4.571875  L 22.803125 0.584375  C 22.7125 0.46875  22.5375 0.46875  22.45 0.584375  L 19.3 4.571875  C 19.184375 4.71875  19.2875 4.9375  19.478125 4.9375  L 21 4.9375  L 21 17.0625  L 19.475 17.0625  C 19.2875 17.0625  19.18125 17.28125  19.296875 17.428125  L 22.446875 21.4125  C 22.5375 21.528125  22.7125 21.528125  22.8 21.4125  L 25.95 17.428125  Z " fill-rule="nonzero" fill="#000000" stroke="none" transform="matrix(1 0 0 1 946 882 )" />
  </g>
</svg>