<?xml version="1.0" encoding="utf-8"?>
<svg version="1.1" xmlns:xlink="http://www.w3.org/1999/xlink" width="27px" height="27px" xmlns="http://www.w3.org/2000/svg">
  <g transform="matrix(1 0 0 1 -572 -947 )">
    <path d="M 5.625 0.25  C 5.625 0.1125  5.5125 0  5.375 0  L 0.875 0  C 0.7375 0  0.625 0.1125  0.625 0.25  L 0.625 4.75  C 0.625 4.8875  0.7375 5  0.875 5  L 5.375 5  C 5.5125 5  5.625 4.8875  5.625 4.75  L 5.625 0.25  Z M 3.875 1.825  L 3.875 3.175  C 3.875 3.215625  3.840625 3.25  3.8 3.25  L 2.45 3.25  C 2.409375 3.25  2.375 3.215625  2.375 3.175  L 2.375 1.825  C 2.375 1.784375  2.409375 1.75  2.45 1.75  L 3.8 1.75  C 3.840625 1.75  3.875 1.784375  3.875 1.825  Z M 27 21.625  C 27 21.4875  26.8875 21.375  26.75 21.375  L 22.25 21.375  C 22.1125 21.375  22 21.4875  22 21.625  L 22 26.125  C 22 26.2625  22.1125 26.375  22.25 26.375  L 26.75 26.375  C 26.8875 26.375  27 26.2625  27 26.125  L 27 21.625  Z M 25.25 23.2  L 25.25 24.55  C 25.25 24.590625  25.215625 24.625  25.175 24.625  L 23.825 24.625  C 23.784375 24.625  23.75 24.590625  23.75 24.55  L 23.75 23.2  C 23.75 23.159375  23.784375 23.125  23.825 23.125  L 25.175 23.125  C 25.215625 23.125  25.25 23.159375  25.25 23.2  Z " fill-rule="nonzero" fill="#ffffff" stroke="none" transform="matrix(1 0 0 1 572 947 )" />
  </g>
</svg>