<?xml version="1.0" encoding="utf-8"?>
<svg version="1.1" xmlns:xlink="http://www.w3.org/1999/xlink" width="22px" height="28px" xmlns="http://www.w3.org/2000/svg">
  <g transform="matrix(1 0 0 1 -574 -811 )">
    <path d="M 9.875 13.125  L 9.875 10.471875  C 9.875 10.35  9.778125 10.25  9.65625 10.25  L 8.34375 10.25  C 8.225 10.25  8.125 10.35  8.125 10.471875  L 8.125 13.125  L 5.484375 13.125  C 5.35625 13.125  5.25 13.221875  5.25 13.34375  L 5.25 14.65625  C 5.25 14.775  5.35625 14.875  5.484375 14.875  L 8.125 14.875  L 8.125 17.528125  C 8.125 17.65  8.225 17.75  8.34375 17.75  L 9.65625 17.75  C 9.778125 17.75  9.875 17.65  9.875 17.528125  L 9.875 14.875  L 12.515625 14.875  C 12.64375 14.875  12.75 14.775  12.75 14.65625  L 12.75 13.34375  C 12.75 13.221875  12.64375 13.125  12.515625 13.125  L 9.875 13.125  Z M 12.75 20.21875  C 12.75 20.1  12.64375 20  12.515625 20  L 5.484375 20  C 5.35625 20  5.25 20.1  5.25 20.21875  L 5.25 21.53125  C 5.25 21.65  5.35625 21.75  5.484375 21.75  L 12.515625 21.75  C 12.64375 21.75  12.75 21.65  12.75 21.53125  L 12.75 20.21875  Z M 17.70625 9.709375  L 12.29375 4.29375  C 12.10625 4.10625  11.853125 4  11.5875 4  L 1 4  C 0.446875 4  0 4.446875  0 5  L 0 27  C 0 27.553125  0.446875 28  1 28  L 17 28  C 17.553125 28  18 27.553125  18 27  L 18 10.415625  C 18 10.15  17.89375 9.896875  17.70625 9.709375  Z M 15.75 10.93125  L 15.75 25.75  L 2.25 25.75  L 2.25 6.25  L 11.06875 6.25  L 15.75 10.93125  Z M 22 8.3  C 22 8.028125  21.890625 7.76875  21.69375 7.58125  L 14.103125 0.278125  C 13.915625 0.1  13.66875 0  13.409375 0  L 4.25 0  C 4.1125 0  4 0.1125  4 0.25  L 4 2  C 4 2.1375  4.1125 2.25  4.25 2.25  L 12.90625 2.25  L 19.75 8.83125  L 19.75 23.75  C 19.75 23.8875  19.8625 24  20 24  L 21.75 24  C 21.8875 24  22 23.8875  22 23.75  L 22 8.3  Z " fill-rule="nonzero" fill="#ffffff" stroke="none" transform="matrix(1 0 0 1 574 811 )" />
  </g>
</svg>