<?xml version="1.0" encoding="utf-8"?>
<svg version="1.1" xmlns:xlink="http://www.w3.org/1999/xlink" width="26px" height="22px" xmlns="http://www.w3.org/2000/svg">
  <g transform="matrix(1 0 0 1 -479 -949 )">
    <path d="M 25.75 1.25  C 25.75 1.1125  25.6375 1  25.5 1  L 7.25 1  C 7.1125 1  7 1.1125  7 1.25  L 7 3  C 7 3.1375  7.1125 3.25  7.25 3.25  L 25.5 3.25  C 25.6375 3.25  25.75 3.1375  25.75 3  L 25.75 1.25  Z M 25.75 10.125  C 25.75 9.9875  25.6375 9.875  25.5 10  L 7.25 10  C 7.1125 9.875  7 9.9875  7 10.125  L 7 11.875  C 7 12.0125  7.1125 12.125  7.25 12  L 25.5 12  C 25.6375 12.125  25.75 12.0125  25.75 11.875  L 25.75 10.125  Z M 25.75 19  C 25.75 18.8625  25.6375 18.75  25.5 18.75  L 7.25 18.75  C 7.1125 18.75  7 18.8625  7 19  L 7 20.75  C 7 20.8875  7.1125 21  7.25 21  L 25.5 21  C 25.6375 21  25.75 20.8875  25.75 20.75  L 25.75 19  Z M 0.249999999999999 2.12500002607703  C 0.249999999999999 3.09149833828092  1.03350168779611 3.87500002607703  2 3.87500002607703  C 2.96649831220389 3.87500002607703  3.75 3.09149833828092  3.75 2.12500002607703  C 3.75 1.15850166171908  2.96649831220389 0.374999973922968  2 0.374999973922968  C 1.03350168779611 0.374999973922968  0.249999999999999 1.15850166171908  0.249999999999999 2.12499997392297  Z M 0.249999999999999 11.000000026077  C 0.249999999999999 11.9664983382809  1.03350168779611 12.750000026077  2 12.750000026077  C 2.96649831220389 12.750000026077  3.75 11.9664983382809  3.75 11.000000026077  C 3.75 10.0335016617191  2.96649831220389 9.24999997392297  2 9.24999997392297  C 1.03350168779611 9.24999997392297  0.249999999999999 10.0335016617191  0.249999999999999 10.999999973923  Z M 0.249999999999999 19.875000026077  C 0.249999999999999 20.8414983382809  1.03350168779611 21.625000026077  2 21.625000026077  C 2.96649831220389 21.625000026077  3.75 20.8414983382809  3.75 19.875000026077  C 3.75 18.9085016617191  2.96649831220389 18.124999973923  2 18.124999973923  C 1.03350168779611 18.124999973923  0.249999999999999 18.9085016617191  0.249999999999999 19.874999973923  Z " fill-rule="nonzero" fill="#ffffff" stroke="none" transform="matrix(1 0 0 1 479 949 )" />
  </g>
</svg>