<?xml version="1.0" encoding="utf-8"?>
<svg version="1.1" xmlns:xlink="http://www.w3.org/1999/xlink" width="26px" height="28px" xmlns="http://www.w3.org/2000/svg">
  <g transform="matrix(1 0 0 1 -479 -879 )">
    <path d="M 25.815625 4.734375  C 25.8125 4.528125  25.571875 4.4125  25.409375 4.540625  L 23.646875 5.91875  C 21.24375 2.846875  17.50625 0.875  13.309375 0.875  C 6.0625 0.875  0.196875 6.734375  0.1875 13.984375  C 0.178125 21.240625  6.05625 27.125  13.309375 27.125  C 18.975 27.125  23.803125 23.53125  25.640625 18.496875  C 25.6875 18.365625  25.61875 18.21875  25.4875 18.175  L 23.715625 17.565625  C 23.5875 17.521875  23.446875 17.5875  23.4 17.715625  C 23.34375 17.871875  23.28125 18.028125  23.215625 18.18125  C 22.675 19.4625  21.9 20.6125  20.9125 21.6  C 19.925 22.5875  18.775 23.3625  17.496875 23.90625  C 16.175 24.465625  14.765625 24.75  13.315625 24.75  C 11.8625 24.75  10.45625 24.465625  9.134375 23.90625  C 7.85625 23.365625  6.70625 22.590625  5.71875 21.6  C 4.73125 20.6125  3.95625 19.4625  3.415625 18.18125  C 2.85625 16.85625  2.571875 15.45  2.571875 13.996875  C 2.571875 12.54375  2.85625 11.1375  3.415625 9.8125  C 3.95625 8.53125  4.73125 7.38125  5.71875 6.39375  C 6.70625 5.40625  7.85624999999999 4.63125  9.134375 4.0875  C 10.45625 3.528125  11.865625 3.24375  13.315625 3.24375  C 14.76875 3.24375  16.175 3.528125  17.496875 4.0875  C 18.775 4.628125  19.925 5.403125  20.9125 6.39375  C 21.221875 6.703125  21.5125 7.03125  21.78125 7.375  L 19.9 8.84375  C 19.734375 8.971875  19.790625 9.234375  19.99375 9.284375  L 25.48125 10.628125  C 25.6375 10.665625  25.790625 10.546875  25.790625 10.3875  L 25.815625 4.734375  Z " fill-rule="nonzero" fill="#000000" stroke="none" transform="matrix(1 0 0 1 479 879 )" />
  </g>
</svg>