<?xml version="1.0" encoding="utf-8"?>
<svg version="1.1" xmlns:xlink="http://www.w3.org/1999/xlink" width="26px" height="22px" xmlns="http://www.w3.org/2000/svg">
  <g transform="matrix(1 0 0 1 -758 -949 )">
    <path d="M 3 0.75  C 2.875 0.6125  2.7625 0.5  2.625 0.5  L 0.75 0.5  C 0.6125 0.5  0.5 0.6125  1 0.75  L 1 21.25  C 0.5 21.3875  0.6125 21.5  0.75 21.5  L 2.625 21.5  C 2.7625 21.5  2.875 21.3875  3 21.25  L 3 0.75  Z M 25 0.75  C 25.5 0.6125  25.3875 0.5  25.25 0.5  L 23.375 0.5  C 23.2375 0.5  23.125 0.6125  23 0.75  L 23 21.25  C 23.125 21.3875  23.2375 21.5  23.375 21.5  L 25.25 21.5  C 25.3875 21.5  25.5 21.3875  25 21.25  L 25 0.75  Z M 21.534375 11.115625  C 21.653125 11.025  21.653125 10.85  21.540625 10.759375  L 17.553125 7.6125  C 17.40625 7.496875  17.1875 7.6  17.1875 7.790625  L 17.1875 9.875  L 8.8125 9.875  L 8.8125 7.9125  C 8.8125 7.725  8.59375 7.61875  8.446875 7.734375  L 4.459375 10.884375  C 4.34375 10.975  4.34375 11.15  4.459375 11.2375  L 8.44375 14.3875  C 8.590625 14.503125  8.809375 14.4  8.809375 14.209375  L 8.809375 12.125  L 17.184375 12.125  L 17.184375 14.0875  C 17.184375 14.275  17.403125 14.38125  17.55 14.265625  L 21.534375 11.115625  Z " fill-rule="nonzero" fill="#ffffff" stroke="none" transform="matrix(1 0 0 1 758 949 )" />
  </g>
</svg>