<?xml version="1.0" encoding="utf-8"?>
<svg version="1.1" xmlns:xlink="http://www.w3.org/1999/xlink" width="26px" height="26px" xmlns="http://www.w3.org/2000/svg">
  <g transform="matrix(1 0 0 1 -758 -880 )">
    <path d="M 25.5 22.75  C 25.5 22.6125  25.3875 22.5  25.25 22  L 0.75 22  C 0.6125 22.5  0.5 22.6125  0.5 22.75  L 0.5 25.25  C 0.5 25.3875  0.6125 25.5  0.75 25  L 25.25 25  C 25.3875 25.5  25.5 25.3875  25.5 25.25  L 25.5 22.75  Z M 4.625 19.696875  C 4.621875 19.8625  4.759375 20  4.928125 20  L 7.584375 20  C 7.715625 20  7.834375 19.915625  7.875 19.7875  L 9.553125 14.6  L 16.403125 14.6  L 18.065625 19.7875  C 18.10625 19.9125  18.221875 20  18.35625 20  L 21.140625 20  C 21.175 20  21.209375 19.99375  21.240625 19.984375  C 21.4 19.928125  21.484375 19.75625  21.428125 19.596875  L 14.925 0.70625  C 14.88125 0.584375  14.765625 0.5  14.6375 0.5  L 11.440625 0.5  C 11.309375 0.5  11.19375 0.58125  11.153125 0.70625  L 4.640625 19.596875  C 4.628125 19.628125  4.625 19.6625  4.625 19.696875  Z M 10.278125 12.115625  L 12.925 3.871875  L 13.053125 3.871875  L 15.671875 12.115625  L 10.278125 12.115625  Z " fill-rule="nonzero" fill="#000000" stroke="none" transform="matrix(1 0 0 1 758 880 )" />
  </g>
</svg>