<?xml version="1.0" encoding="utf-8"?>
<svg version="1.1" xmlns:xlink="http://www.w3.org/1999/xlink" width="28px" height="28px" xmlns="http://www.w3.org/2000/svg">
  <g transform="matrix(1 0 0 1 -202 -219 )">
    <path d="M 19.765625 16.946875  L 14.203125 9.259375  C 14.103125 9.121875  13.9 9.121875  13.8 9.259375  L 8.2375 16.946875  C 8.11875 17.1125  8.2375 17.34375  8.440625 17.34375  L 9.90625 17.34375  C 10.225 17.34375  10.528125 17.190625  10.715625 16.93125  L 14 12.3875  L 17.2875 16.93125  C 17.475 17.190625  17.775 17.34375  18.096875 17.34375  L 19.5625 17.34375  C 19.765625 17.34375  19.884375 17.1125  19.765625 16.946875  Z M 28 14  C 28 6.26875  21.73125 0  14 0  C 6.26875 0  0 6.26875  0 14  C 0 21.73125  6.26875 28  14 28  C 21.73125 28  28 21.73125  28 14  Z M 25.625 14  C 25.625 20.41875  20.41875 25.625  14 25.625  C 7.58125 25.625  2.375 20.41875  2.375 14  C 2.375 7.58125  7.58125 2.375  14 2.375  C 20.41875 2.375  25.625 7.58125  25.625 14  Z " fill-rule="nonzero" fill="#ffffff" stroke="none" transform="matrix(1 0 0 1 202 219 )" />
  </g>
</svg>