<?xml version="1.0" encoding="utf-8"?>
<svg version="1.1" xmlns:xlink="http://www.w3.org/1999/xlink" width="28px" height="24px" xmlns="http://www.w3.org/2000/svg">
  <g transform="matrix(1 0 0 1 -664 -813 )">
    <path d="M 27.915625 12.20625  C 28.021875 12.1125  28.021875 11.95625  27.925 11.85625  L 16.85 0.94375  C 16.753125 0.846875  16.596875 0.846875  16.5 0.94375  L 9.040625 8.29375  C 8.94375 8.390625  8.940625 8.55  9.0375 8.646875  L 9.040625 8.65  L 10.290625 9.88125  L 6.628125 13.484375  C 6.53125 13.58125  6.528125 13.740625  6.625 13.8375  L 6.628125 13.840625  L 7.8625 15.05625  L 1.953125 20.9  L 0.253125 20.9  C 0.115625 20.9  0 21.0125  0 21.15  L 0 22.875  C 0 23.0125  0.1125 23.125  0.25 23  L 11.028125 23  C 11.09375 23.125  11.15625 23.1  11.203125 23.053125  L 13.58125 20.690625  L 14.84375 21.934375  C 14.940625 22.03125  15.096875 22.03125  15.19375 21.934375  L 18.853125 18.321875  L 20.10625 19.55625  C 20.203125 19.653125  20.359375 19.653125  20.45625 19.55625  L 27.915625 12.20625  Z M 11.878125 19.190625  L 10.18125 20.88125  L 5.175 20.88125  L 9.375 16.725  L 11.878125 19.190625  Z M 17.1625 16.828125  L 15.01875 18.940625  L 9.6625 13.6625  L 11.80625 11.55  L 17.1625 16.828125  Z M 24.8875 12.03125  L 20.284375 16.5625  L 12.071875 8.471875  L 16.675 3.9375  L 24.8875 12.03125  Z " fill-rule="nonzero" fill="#ffffff" stroke="none" transform="matrix(1 0 0 1 664 813 )" />
  </g>
</svg>