<?xml version="1.0" encoding="utf-8"?>
<svg version="1.1" xmlns:xlink="http://www.w3.org/1999/xlink" width="26px" height="22px" xmlns="http://www.w3.org/2000/svg">
  <g transform="matrix(1 0 0 1 -852 -949 )">
    <path d="M 7.25 2.25  C 7.25 2.1125  7.1375 2  7 2  L 4.9375 2  L 4.9375 0.25  C 4.9375 0.1125  4.825 0  4.6875 0  L 3.0625 0  C 2.925 0  2.8125 0.1125  2.8125 0.25  L 2.8125 2  L 0.75 2  C 0.6125 2  0.5 2.1125  1 2.25  L 1 19.75  C 0.5 19.8875  0.6125 20  0.75 20  L 2.8125 20  L 2.8125 21.75  C 2.8125 21.8875  2.925 22  3.0625 22  L 4.6875 22  C 4.825 22  4.9375 21.8875  4.9375 21.75  L 4.9375 20  L 7 20  C 7.1375 20  7.25 19.8875  7.25 19.75  L 7.25 2.25  Z M 5.125 4.125  L 5.125 17.875  L 3 17.875  L 3 4.125  L 5.125 4.125  Z M 25 4.5  C 25.5 4.3625  25.3875 4.25  25.25 4.25  L 23.1875 4.25  L 23.1875 1.25  C 23.1875 1.1125  23.075 1  22.9375 1  L 21.3125 1  C 21.175 1  21.0625 1.1125  21.0625 1.25  L 21.0625 4.25  L 19 4.25  C 18.8625 4.25  18.75 4.3625  18.75 4.5  L 18.75 17.5  C 18.75 17.6375  18.8625 17.75  19 17.75  L 21.0625 17.75  L 21.0625 20.75  C 21.0625 20.8875  21.175 21  21.3125 21  L 22.9375 21  C 23.075 21  23.1875 20.8875  23.1875 20.75  L 23.1875 17.75  L 25.25 17.75  C 25.3875 17.75  25.5 17.6375  25 17.5  L 25 4.5  Z M 23.375 6.375  L 23.375 15.625  L 20.875 15.625  L 20.875 6.375  L 23.375 6.375  Z M 16.375 7.875  C 16.375 7.7375  16.2625 7.625  16.125 7.625  L 14.0625 7.625  L 14.0625 2.25  C 14.0625 2.1125  13.95 2  13.8125 2  L 12.1875 2  C 12.05 2  11.9375 2.1125  11.9375 2.25  L 11.9375 7.625  L 9.875 7.625  C 9.7375 7.625  9.625 7.7375  9.625 7.875  L 9.625 14.125  C 9.625 14.2625  9.7375 14.375  9.875 14.375  L 11.9375 14.375  L 11.9375 19.75  C 11.9375 19.8875  12.05 20  12.1875 20  L 13.8125 20  C 13.95 20  14.0625 19.8875  14.0625 19.75  L 14.0625 14.375  L 16.125 14.375  C 16.2625 14.375  16.375 14.2625  16.375 14.125  L 16.375 7.875  Z M 14.25 9.84375  L 14.25 12.15625  C 14.25 12.20625  14.209375 12.25  14.15625 12.25  L 11.84375 12.25  C 11.79375 12.25  11.75 12.209375  11.75 12.15625  L 11.75 9.84375  C 11.75 9.79375  11.790625 9.75  11.84375 9.75  L 14.15625 9.75  C 14.20625 9.75  14.25 9.790625  14.25 9.84375  Z " fill-rule="nonzero" fill="#ffffff" stroke="none" transform="matrix(1 0 0 1 852 949 )" />
  </g>
</svg>