<?xml version="1.0" encoding="utf-8"?>
<svg version="1.1" xmlns:xlink="http://www.w3.org/1999/xlink" width="26px" height="22px" xmlns="http://www.w3.org/2000/svg">
  <g transform="matrix(1 0 0 1 -852 -882 )">
    <path d="M 26 8.25  C 26 8.1125  25.8875 8  25.75 8  L 16.25 8  C 16.1125 8  16 8.1125  16 8.25  L 16 11.75  C 16 11.8875  16.1125 12  16.25 12  L 17.75 12  C 17.8875 12  18 11.8875  18 11.75  L 18 10  L 19.875 10  L 19.875 20  L 18.4375 20  C 18.3 20  18.1875 20.1125  18.1875 20.25  L 18.1875 21.75  C 18.1875 21.8875  18.3 22  18.4375 22  L 23.5625 22  C 23.7 22  23.8125 21.8875  23.8125 21.75  L 23.8125 20.25  C 23.8125 20.1125  23.7 20  23.5625 20  L 22 20  L 22 10  L 24 10  L 24 11.75  C 24 11.8875  24.1125 12  24.25 12  L 25.75 12  C 25.8875 12  26 11.8875  26 11.75  L 26 8.25  Z M 17.25 4.5  C 17.3875 4.5  17.5 4.3875  17.5 4.25  L 17.5 0.25  C 17.5 0.1125  17.3875 0  17.25 0  L 0.25 0  C 0.1125 0  0 0.1125  0 0.25  L 0 4.25  C 0 4.3875  0.1125 4.5  0.25 4.5  L 2 4.5  C 2.1375 4.5  2.25 4.3875  2.25 4.25  L 2.25 2.25  L 8 2.25  L 8 19.75  L 4.625 19.75  C 4.4875 19.75  4.375 19.8625  4.375 20  L 4.375 21.75  C 4.375 21.8875  4.4875 22  4.625 22  L 12.875 22  C 13.0125 22  13.125 21.8875  13.125 21.75  L 13.125 20  C 13.125 19.8625  13.0125 19.75  12.875 19.75  L 10 19.75  L 10 2.25  L 15.25 2.25  L 15.25 4.25  C 15.25 4.3875  15.3625 4.5  15.5 4.5  L 17.25 4.5  Z " fill-rule="nonzero" fill="#000000" stroke="none" transform="matrix(1 0 0 1 852 882 )" />
  </g>
</svg>