<?xml version="1.0" encoding="utf-8"?>
<svg version="1.1" xmlns:xlink="http://www.w3.org/1999/xlink" width="28px" height="24px" xmlns="http://www.w3.org/2000/svg">
  <g transform="matrix(1 0 0 1 -294 -882 )">
    <path d="M 28 11.059375  C 28 10.925  27.8875 10.8125  27.75 11  L 15.809375 11  C 15.496875 10.75  15.16875 10.6875  14.821875 10.625  C 14.325 10.534375  14.128125 10.496875  13.859375 10.44375  C 12.25625 10.13125  11.290625 9.81875  10.521875 9.375  C 9.425 8.734375  8.890625 7.865625  8.890625 6.715625  C 8.890625 5.559375  9.365625 4.6  10.265625 3.934375  C 11.153125 3.278125  12.415625 2.93125  13.915625 2.93125  C 15.628125 2.93125  16.95 3.38125  17.846875 4.26875  C 18.303125 4.71875  18.6375 5.271875  18.840625 5.9125  C 18.88125 6.040625  18.928125 6.225  18.975 6.46875  C 19.003125 6.61875  19.1375 6.725  19.284375 6.725  L 21.559375 6.725  C 21.734375 6.725  21.875 6.58125  21.875 6.409375  L 21.875 6.378125  C 21.853125 6.165625  21.834375 6  21.8125 5.878125  C 21.584375 4.51875  20.9375 3.325  19.946875 2.43125  C 18.559375 1.165625  16.51875 0.499999999999998  14.05 0.499999999999998  C 11.790625 0.499999999999998  9.75624999999999 1.065625  8.32187499999999 2.090625  C 7.52187499999999 2.665625  6.90312499999999 3.378125  6.49062499999999 4.20625  C 6.06874999999999 5.053125  5.85624999999999 6.03125  5.85624999999999 7.109375  C 5.85624999999999 8.03125  6.03437499999999 8.8125  6.39687499999999 9.5  C 6.65624999999999 9.990625  7.00937499999999 10.421875  7.46249999999999 10.8125  L 0.25 10.8125  C 0.1125 10.8125  0 10.925  0 11.0625  L 0 12.9375  C 0 13.075  0.1125 13.1875  0.25 13  L 13.7875 13  C 13.853125 13.2  13.909375 13.2125  13.971875 13.225  C 14.9375 13.41875  15.51875 13.55  16.053125 13.7  C 16.771875 13.903125  17.321875 14.115625  17.778125 14.371875  C 18.896875 15.003125  19.44375 15.909375  19.44375 17.153125  C 19.44375 18.25625  18.959375 19.240625  18.08125 19.928125  C 17.128125 20.675  15.71875 21.065625  14.003125 21.065625  C 12.6375 21.065625  11.48125 20.8  10.559375 20.284375  C 9.65 19.775  9.025 19.040625  8.69375 18.1125  C 8.66875 18.04375  8.640625 17.95  8.609375 17.83125  C 8.571875 17.69375  8.44375 17.596875  8.30625 17.596875  L 5.815625 17.596875  C 5.640625 17.596875  5.5 17.740625  5.5 17.9125  L 5.5 17.94375  C 5.50625 18.015625  5.5125 18.075  5.51875 18.121875  C 5.721875 19.646875  6.465625 20.896875  7.728125 21.834375  C 9.2 22.921875  11.271875 23.496875  13.721875 23.496875  C 16.353125 23.496875  18.559375 22.878125  20.103125 21.70625  C 20.884375 21.115625  21.484375 20.3875  21.8875 19.55  C 22.29375 18.703125  22.503125 17.740625  22.503125 16.690625  C 22.503125 15.696875  22.321875 14.865625  21.946875 14.146875  C 21.765625 13.796875  21.5375 13.475  21.265625 13.184375  L 27.75 13.184375  C 27.8875 13.184375  28 13.071875  28 12.934375  L 28 11.059375  Z " fill-rule="nonzero" fill="#ffffff" stroke="none" transform="matrix(1 0 0 1 294 882 )" />
  </g>
</svg>