<?xml version="1.0" encoding="utf-8"?>
<svg version="1.1" xmlns:xlink="http://www.w3.org/1999/xlink" width="28px" height="22px" xmlns="http://www.w3.org/2000/svg">
  <g transform="matrix(1 0 0 1 -202 -485 )">
    <path d="M 28 20  C 28 19.8625  27.8875 19.75  27.75 19.75  L 0.25 19.75  C 0.1125 19.75  0 19.8625  0 20  L 0 21.75  C 0 21.8875  0.1125 22  0.25 22  L 27.75 22  C 27.8875 22  28 21.8875  28 21.75  L 28 20  Z M 28 0.25  C 28 0.1125  27.8875 0  27.75 0  L 0.25 0  C 0.1125 0  0 0.1125  0 0.25  L 0 2  C 0 2.1375  0.1125 2.25  0.25 2.25  L 27.75 2.25  C 27.8875 2.25  28 2.1375  28 2  L 28 0.25  Z M 11 15.625  L 27 15.625  C 27.275 15.625  27.5 15.4  27.5 15.125  L 27.5 6.875  C 27.5 6.6  27.275 6.375  27 6.375  L 11 6.375  C 10.725 6.375  10.5 6.6  10.5 6.875  L 10.5 15.125  C 10.5 15.4  10.725 15.625  11 15.625  Z M 12.75 13  L 12.75 9  L 25.25 9  L 25.25 13  L 12.75 13  Z M 0.5 13.4375  L 0.5 15.1875  C 0.5 15.325  0.6125 15.4375  0.75 15.4375  L 7.75 15.4375  C 7.8875 15.4375  8 15.325  8 15.1875  L 8 13.4375  C 8 13.3  7.8875 13.1875  7.75 13.1875  L 0.75 13.1875  C 0.6125 13.1875  0.5 13.3  0.5 13.4375  Z M 0.5 8.5625  C 0.5 8.7  0.6125 8.8125  0.75 8.8125  L 7.75 8.8125  C 7.8875 8.8125  8 8.7  8 8.5625  L 8 6.8125  C 8 6.675  7.8875 6.5625  7.75 6.5625  L 0.75 6.5625  C 0.6125 6.5625  0.5 6.675  0.5 6.8125  L 0.5 8.5625  Z " fill-rule="nonzero" fill="#ffffff" stroke="none" transform="matrix(1 0 0 1 202 485 )" />
  </g>
</svg>