<?xml version="1.0" encoding="utf-8"?>
<svg version="1.1" xmlns:xlink="http://www.w3.org/1999/xlink" width="22px" height="29px" xmlns="http://www.w3.org/2000/svg">
  <g transform="matrix(1 0 0 1 -18 -1209 )">
    <path d="M 10.009375 6.034375  C 10.0125 5.459375  9.590625 5.0375  9.009375 5.0375  C 8.428125 5.0375  8.009375 5.45625  8.009375 6.034375  C 8.009375 6.6125  8.43125 7.03125  9.009375 7.03125  C 9.590625 7.03125  10.009375 6.6125  10.009375 6.034375  Z M 21.9875 9.703125  C 21.984375 9.06875  21.75 8.484375  21.31875 8.05  C 20.8875 7.61875  20.296875 7.378125  19.65625 7.378125  C 19.534375 7.378125  19.425 7.390625  19.321875 7.409375  L 19.321875 7.378125  L 19.209375 7.378125  C 19.0375 6.421875  18.628125 5.4875  18.01875 4.646875  C 17.434375 3.84375  16.675 3.15  15.80625 2.61875  L 16.590625 1.5  L 16.590625 1.396875  C 16.590625 1.371875  16.603125 1.325  16.6125 1.278125  C 16.63125 1.203125  16.65625 1.10625  16.65625 1  C 16.65625 0.421875  16.234375 0.00312500000000071  15.65625 0.00312500000000071  C 15.35 0.00312500000000071  15.046875 0.181250000000001  14.846875 0.484375000000001  L 13.93125 1.8  C 12.99375 1.49375  11.98125 1.33125  11 1.33125  C 10.021875 1.33125  9.009375 1.49375  8.06875 1.8  L 7.15625 0.48125  C 6.95 0.18125  6.653125 0  6.34375 0  C 5.7625 0  5.34375 0.41875  5.34375 0.996875  C 5.34375 1.190625  5.421875 1.396875  5.553125 1.540625  L 6.259375 2.55  C 5.3625 3.08125  4.5875 3.78125  4.003125 4.584375  C 3.396875 5.425  3.003125 6.359375  2.85625 7.315625  L 2.684375 7.315625  L 2.684375 7.346875  C 2.584375 7.328125  2.475 7.315625  2.35 7.315625  C 1.715625 7.315625  1.125 7.55  0.690625000000002 7.98125  C 0.259375000000001 8.4125  0.0187500000000016 9  0.0187500000000016 9.6375  L 0.0187500000000016 16.98125  C 0.0187500000000016 17.615625  0.253125000000002 18.203125  0.687500000000002 18.634375  C 1.11875 19.065625  1.7125 19.30625  2.35 19.30625  C 2.471875 19.30625  2.58125 19.29375  2.684375 19.275  L 2.684375 22.196875  C 2.684375 23.109375  3.43125 23.85625  4.346875 23.85625  L 5.34375 23.85625  L 5.34375 25.678125  C 5.34375 26.3125  5.578125 26.9  6.0125 27.33125  C 6.44375 27.7625  7.0375 28.003125  7.675 28.003125  C 8.309375 28.003125  8.9 27.76875  9.334375 27.3375  C 9.765625 26.90625  10.00625 26.31875  10.00625 25.68125  L 10.00625 23.8625  L 12 23.8625  L 12 25.678125  C 12 26.3125  12.234375 26.9  12.66875 27.33125  C 13.1 27.7625  13.69375 28.003125  14.33125 28.003125  C 14.96875 28.003125  15.55625 27.76875  15.990625 27.328125  C 16.421875 26.896875  16.6625 26.309375  16.6625 25.671875  L 16.6625 23.853125  L 17.659375 23.853125  C 18.575 23.853125  19.321875 23.109375  19.321875 22.19375  L 19.321875 19.3375  C 19.421875 19.35625  19.53125 19.36875  19.65625 19.36875  C 20.290625 19.36875  20.88125 19.134375  21.315625 18.703125  C 21.746875 18.271875  21.9875 17.684375  21.9875 17.046875  L 21.9875 9.703125  Z M 2.6875 9.703125  L 2.6875 17.05  C 2.6875 17.2625  2.565625 17.38125  2.353125 17.38125  C 2.140625 17.38125  2.01875 17.2625  2.01875 17.05  L 2.01875 9.703125  C 2.01875 9.490625  2.140625 9.371875  2.353125 9.371875  C 2.565625 9.371875  2.6875 9.490625  2.6875 9.703125  Z M 4.825 7.390625  C 5.090625 6.346875  5.778125 5.390625  6.784375 4.65  C 7.95625 3.796875  9.45 3.328125  11.003125 3.328125  C 12.55625 3.328125  14.05 3.8  15.221875 4.65625  C 16.234375 5.396875  16.915625 6.35  17.18125 7.390625  L 4.825 7.390625  Z M 8.0125 23.85625  L 8.0125 25.734375  C 7.99375 25.909375  7.875 26.00625  7.684375 26.00625  C 7.471875 26.00625  7.35 25.8875  7.35 25.675  L 7.35 23.85625  L 8.0125 23.85625  Z M 14.6625 25.734375  C 14.64375 25.909375  14.528125 26.00625  14.334375 26.00625  C 14.121875 26.00625  14 25.8875  14 25.675  L 14 23.85625  L 14.6625 23.85625  L 14.6625 25.734375  Z M 17 9.375  L 17 21.8625  L 5 21.8625  L 5 9.375  L 17 9.375  Z M 19.990625 9.703125  L 19.990625 17.05  C 19.990625 17.2625  19.86875 17.38125  19.65625 17.38125  C 19.44375 17.38125  19.321875 17.2625  19.321875 17.05  L 19.321875 9.703125  C 19.321875 9.490625  19.44375 9.371875  19.65625 9.371875  C 19.86875 9.371875  19.990625 9.490625  19.990625 9.703125  Z M 14.00625 6.03125  C 14.003125 5.45  13.5875 5.0375  13.003125 5.0375  C 12.421875 5.0375  12.003125 5.45625  12.003125 6.034375  C 12.003125 6.6125  12.425 7.03125  13.003125 7.03125  C 13.584375 7.03125  14.00625 6.6125  14.00625 6.03125  Z " fill-rule="nonzero" fill="#000000" stroke="none" transform="matrix(1 0 0 1 18 1209 )" />
  </g>
</svg>