<?xml version="1.0" encoding="utf-8"?>
<svg version="1.1" xmlns:xlink="http://www.w3.org/1999/xlink" width="28px" height="24px" xmlns="http://www.w3.org/2000/svg">
  <g transform="matrix(1 0 0 1 -202 -1280 )">
    <path d="M 10.3375 15.475  C 10.3375 11.23125  14.46875 7.79374999999999  19.565625 7.79375  C 19.75 7.79375  19.934375 7.8  20.115625 7.809375  C 19.353125 3.7875  15.16875 0.712499999999999  10.11875 0.712499999999999  C 4.53125 0.7125  0 4.48125  0 9.13125  C 0 11.665625  1.3625 13.95  3.496875 15.49375  C 3.66875 15.615625  3.78125 15.815625  3.78125 16.04375  C 3.78125 16.11875  3.765625 16.1875  3.746875 16.259375  C 3.575 16.89375  3.303125 17.909375  3.290625 17.95625  C 3.26875 18.0375  3.2375 18.11875  3.2375 18.203125  C 3.2375 18.3875  3.3875 18.540625  3.575 18.540625  C 3.646875 18.540625  3.70625 18.5125  3.76875 18.478125  L 5.984375 17.2  C 6.15 17.103125  6.328125 17.04375  6.521875 17.04375  C 6.621875 17.04375  6.721875 17.059375  6.81875 17.0875  C 7.853125 17.384375  8.96875 17.55  10.121875 17.55  C 10.309375 17.55  10.49375 17.546875  10.678125 17.5375  C 10.45625 16.88125  10.3375 16.190625  10.3375 15.475  Z M 12.14375 6.4375  C 12.14375 5.69375  12.75 5.090625  13.49375 5.090625  C 14.2375 5.090625  14.84375 5.69375  14.84375 6.4375  C 14.84375 7.18125  14.240625 7.784375  13.49375 7.784375  C 12.75 7.784375  12.14375 7.18125  12.14375 6.4375  Z M 8.096875 6.4375  C 8.096875 7.18125  7.490625 7.784375  6.746875 7.784375  C 6.003125 7.784375  5.396875 7.18125  5.396875 6.4375  C 5.396875 5.69375  6 5.090625  6.746875 5.090625  C 7.49375 5.090625  8.096875 5.69375  8.096875 6.4375  Z M 24.846875 21.225  C 24.85 21.040625  24.94375 20.875  25.084375 20.771875  C 26.8625 19.484375  27.996875 17.584375  27.996875 15.46875  C 27.996875 11.59375  24.221875 8.453125  19.5625 8.453125  C 14.90625 8.453125  11.128125 11.59375  11.128125 15.46875  C 11.128125 19.34375  14.903125 22.484375  19.5625 22.484375  C 20.525 22.484375  21.45625 22.346875  22.315625 22.1  C 22.396875 22.075  22.478125 22.0625  22.5625 22.0625  C 22.725 22.0625  22.871875 22.1125  23.009375 22.190625  L 24.85625 23.253125  C 24.909375 23.284375  24.959375 23.30625  25.01875 23.30625  C 25.09375 23.30625  25.165625 23.278125  25.21875 23.225  C 25.271875 23.171875  25.3 23.1  25.3 23.025  C 25.3 22.95625  25.271875 22.8875  25.25625 22.81875  C 25.246875 22.78125  25.01875 21.934375  24.875 21.403125  C 24.859375 21.34375  24.846875 21.284375  24.846875 21.225  Z M 17.88125 13.228125  C 17.88125 13.846875  17.375 14.35  16.75625 14.35  C 16.134375 14.35  15.63125 13.846875  15.63125 13.228125  C 15.63125 12.609375  16.134375 12.10625  16.75625 12.10625  C 17.378125 12.10625  17.88125 12.609375  17.88125 13.228125  Z M 23.503125 13.228125  C 23.5 13.846875  22.996875 14.35  22.378125 14.35  C 21.75625 14.35  21.253125 13.846875  21.253125 13.228125  C 21.253125 12.609375  21.75625 12.10625  22.378125 12.10625  C 23 12.10625  23.503125 12.609375  23.503125 13.228125  Z " fill-rule="nonzero" fill="#000000" stroke="none" transform="matrix(1 0 0 1 202 1280 )" />
  </g>
</svg>