<?xml version="1.0" encoding="utf-8"?>
<svg version="1.1" xmlns:xlink="http://www.w3.org/1999/xlink" width="26px" height="26px" xmlns="http://www.w3.org/2000/svg">
  <g transform="matrix(1 0 0 1 -203 -1341 )">
    <path d="M 25 1.5  C 25.5 0.946875  25.053125 0.5  24.5 1  L 1.5 1  C 0.946875 0.5  0.5 0.946875  1 1.5  L 1 24.5  C 0.5 25.053125  0.946875 25.5  1.5 25  L 24.5 25  C 25.053125 25.5  25.5 25.053125  25 24.5  L 25 1.5  Z M 23 3  L 23 23.5  L 17.746875 23.5  L 17.746875 15.81875  L 20.996875 15.81875  L 21.484375 12.046875  L 17.746875 12.046875  L 17.746875 9.6375  C 17.746875 8.54375  18.05 7.8  19.615625 7.8  L 21.6125 7.8  L 21.6125 4.425  C 21.265625 4.378125  20.08125 4.275  18.7 4.275  C 15.81875 4.275  13.846875 6.034375  13.846875 9.2625  L 13.846875 12.04375  L 10.590625 12.04375  L 10.590625 15.815625  L 13.85 15.815625  L 13.85 23  L 3 23  L 3 3  L 23 3  Z " fill-rule="nonzero" fill="#000000" stroke="none" transform="matrix(1 0 0 1 203 1341 )" />
  </g>
</svg>