<?xml version="1.0" encoding="utf-8"?>
<svg version="1.1" xmlns:xlink="http://www.w3.org/1999/xlink" width="26px" height="24px" xmlns="http://www.w3.org/2000/svg">
  <g transform="matrix(1 0 0 1 -203 -1212 )">
    <path d="M 0.753125 13  L 0.753125 20.08125  L 10.84375 21.725  L 10.84375 13  L 0.753125 13  Z M 2.734375 18.4  L 2.734375 14.971875  L 8.865625 14.971875  L 8.865625 19.396875  L 2.734375 18.4  Z M 13.36875 13  L 13.36875 22.05  L 25 23.99375  L 25 13  L 13.36875 13  Z M 15.35 20.371875  L 15.35 14.971875  L 23.328125 14.971875  L 23.328125 21.671875  L 15.35 20.371875  Z M 25 0.00312499999999982  L 13.36875 1.98125  L 13.36875 11  L 25 11  L 25 0.00312499999999982  Z M 23.33125 9.028125  L 23.328125 9.028125  L 15.353125 9.028125  L 15.353125 3.65625  L 23.33125 2.334375  L 23.33125 9.028125  Z M 0.753125000000001 3.98125  L 0.753125 11  L 10.84375 11  L 10.84375 2.309375  L 0.753125000000001 3.98125  Z M 2.734375 9.028125  L 2.734375 5.65625  L 8.865625 4.640625  L 8.865625 9.028125  L 2.734375 9.028125  Z " fill-rule="nonzero" fill="#000000" stroke="none" transform="matrix(1 0 0 1 203 1212 )" />
  </g>
</svg>