<?xml version="1.0" encoding="utf-8"?>
<svg version="1.1" xmlns:xlink="http://www.w3.org/1999/xlink" width="26px" height="26px" xmlns="http://www.w3.org/2000/svg">
  <g transform="matrix(1 0 0 1 -387 -1409 )">
    <path d="M 25 1.5  C 25.5 0.946875  25.053125 0.5  24.5 1  L 1.5 1  C 0.946875 0.5  0.5 0.946875  1 1.5  L 1 24.5  C 0.5 25.053125  0.946875 25.5  1.5 25  L 24.5 25  C 25.053125 25.5  25.5 25.053125  25 24.5  L 25 1.5  Z M 15.703125 9.01875  L 15.703125 7.965625  L 20.028125 7.965625  L 20.028125 9.01875  L 15.703125 9.01875  Z M 13.3125 15.25  C 13.3125 15.79375  13.209375 16.259375  13 16.65  C 12.796875 17.034375  12.509375 17.365625  12.15625 17.61875  C 11.7875 17.875  11.378125 18.0625  10.94375 18.171875  C 10.490625 18.29375  10.021875 18.353125  9.55 18.35  L 4.375 18.35  L 4.375 7.690625  L 9.40625 7.690625  C 9.915625 7.690625  10.378125 7.7375  10.8 7.825  C 11.21875 7.9125  11.575 8.0625  11.875 8.265625  C 12.171875 8.46875  12.40625 8.740625  12.571875 9.078125  C 12.734375 9.4125  12.81875 9.83125  12.81875 10.328125  C 12.81875 10.865625  12.696875 11.309375  12.453125 11.66875  C 12.20625 12.028125  11.85 12.31875  11.365625 12.546875  C 12.025 12.734375  12.509375 13.06875  12.828125 13.5375  C 13.153125 14.0125  13.3125 14.58125  13.3125 15.25  Z M 21.56875 13.290625  C 21.703125 13.83125  21.75 14.4  21.7125 15  L 16.1375 15  C 16.1375 15.60625  16.346875 16.1875  16.6625 16.5  C 16.98125 16.809375  17.4375 16.965625  18.034375 16.965625  C 18.465625 16.965625  18.83125 16.85625  19.14375 16.640625  C 19.453125 16.425  19.640625 16.196875  19.709375 15.959375  L 21.578125 15.959375  C 21.278125 16.8875  20.821875 17.55  20.203125 17.95  C 19.590625 18.35  18.840625 18.55  17.96875 18.55  C 17.359375 18.55  16.8125 18.45  16.321875 18.259375  C 15.85 18.075  15.425 17.79375  15.075 17.43125  C 14.73125 17.059375  14.4625 16.621875  14.290625 16.14375  C 14.1 15.615625  14.00625 15.059375  14.0125 14.5  C 14.0125 13.921875  14.109375 13.384375  14.296875 12.884375  C 14.65625 11.9125  15.403125 11.134375  16.35625 10.73125  C 16.865625 10.51875  17.4125 10.4125  17.965625 10.41875  C 18.621875 10.41875  19.190625 10.54375  19.684375 10.8  C 20.171875 11.053125  20.571875 11.396875  20.890625 11.825  C 21.20625 12.253125  21.428125 12.740625  21.56875 13.290625  Z M 19.10625 12.440625  C 18.84375 12.1625  18.421875 12.0125  17.9 12.0125  C 17.5625 12.0125  17.278125 12.071875  17.059375 12.1875  C 16.840625 12.303125  16.659375 12.446875  16.521875 12.6125  C 16.390625 12.771875  16.29375 12.959375  16.2375 13.15625  C 16.1875 13.321875  16.153125 13.490625  16.140625 13.6625  L 19.59375 13.6625  C 19.54375 13.121875  19.35625 12.721875  19.10625 12.440625  Z M 9.10625 11.99375  C 9.515625 11.996875  9.8625 11.896875  10.134375 11.696875  C 10.40625 11.5  10.5375 11.175  10.5375 10.728125  C 10.546875 10.515625  10.503125 10.30625  10.409375 10.115625  C 10.325 9.9625  10.2 9.834375  10.046875 9.74375  C 9.8875 9.646875  9.7125 9.584375  9.528125 9.55625  C 9.328125 9.51875  9.125 9.5  8.925 9.503125  L 6.728125 9.503125  L 6.728125 11.99375  L 9.10625 11.99375  Z M 10.96875 15.128125  C 10.96875 14.575  10.8125 14.184375  10.503125 13.946875  C 10.196875 13.7125  9.7875 13.596875  9.278125 13.596875  L 6.721875 13.596875  L 6.721875 16.534375  L 9.228125 16.534375  C 9.4625 16.534375  9.678125 16.5125  9.8875 16.46875  C 10.096875 16.425  10.284375 16.35  10.44375 16.24375  C 10.603125 16.140625  10.73125 16  10.828125 15.81875  C 10.921875 15.6375  10.96875 15.40625  10.96875 15.128125  Z " fill-rule="nonzero" fill="#000000" stroke="none" transform="matrix(1 0 0 1 387 1409 )" />
  </g>
</svg>