<?xml version="1.0" encoding="utf-8"?>
<svg version="1.1" xmlns:xlink="http://www.w3.org/1999/xlink" width="28px" height="28px" xmlns="http://www.w3.org/2000/svg">
  <g transform="matrix(1 0 0 1 -386 -1278 )">
    <path d="M 14.5625 16.915625  C 12.05625 15.7  9.934375 14.828125  7.64375 15.053125  C 7.025 15.115625  5.859375 15.3875  5.225 15.946875  C 3.31875 17.603125  4.459375 20.634375  8.31875 20.634375  C 10.5625 20.634375  12.803125 19.20625  14.5625 16.915625  Z M 18.228125 15.775  C 19.7125 16.309375  21.04375 16.815625  22.034375 17.146875  C 25.1625 18.190625  26.86875 18.490625  27.24375 18.546875  C 27.734375 17.121875  28 15.59375  28 14  C 28 6.26875  21.73125 0  14 0  C 6.26875 0  0 6.26875  0 14  C 0 21.73125  6.26875 28  14 28  C 18.871875 28  23.1625 25.509375  25.671875 21.734375  C 23.309375 20.803125  18.996875 19.078125  16.709375 17.98125  C 14.525 20.659375  11.70625 22.2875  8.78125 22.2875  C 3.83125 22.2875  2.153125 17.971875  4.49375 15.13125  C 5.003125 14.5125  5.875 13.921875  7.221875 13.5875  C 9.33125 13.071875  12.690625 13.909375  15.8375 14.94375  C 16.403125 13.903125  16.88125 12.759375  17.234375 11.540625  L 7.534375 11.540625  L 7.534375 10.5625  L 12.534375 10.5625  L 12.534375 8.80625  L 6.478125 8.80625  L 6.478125 7.828125  L 12.534375 7.828125  L 12.534375 5.325  C 12.534375 5.325  12.534375 4.903125  12.9625 4.903125  L 15.40625 4.903125  L 15.40625 7.828125  L 21.396875 7.828125  L 21.396875 8.80625  L 15.409375 8.80625  L 15.409375 10.5625  L 20.296875 10.5625  C 19.828125 12.471875  19.11875 14.23125  18.228125 15.775  Z " fill-rule="nonzero" fill="#000000" stroke="none" transform="matrix(1 0 0 1 386 1278 )" />
  </g>
</svg>