<?xml version="1.0" encoding="utf-8"?>
<svg version="1.1" xmlns:xlink="http://www.w3.org/1999/xlink" width="26px" height="27px" xmlns="http://www.w3.org/2000/svg">
  <g transform="matrix(1 0 0 1 -387 -1210 )">
    <path d="M 26 13.003125  L 26 13.009375  L 26 13  C 26 5.81875  20.18125 0  13 0  C 5.81875 0  0 5.81875  0 13  L 0 13.0125  C 0 20.19375  5.81875 26.0125  13 26.0125  C 20.18125 26.0125  26 20.19375  26 13.0125  L 26 13.003125  Z M 25.771875 10.58125  C 25.778125 10.615625  25.784375 10.646875  25.790625 10.678125  L 25.809375 10.78125  C 25.821875 10.85625  25.834375 10.93125  25.846875 11.003125  C 25.834375 10.928125  25.821875 10.853125  25.809375 10.78125  L 25.790625 10.678125  C 25.784375 10.646875  25.778125 10.615625  25.771875 10.58125  Z M 13.653125 23.85625  L 18.146875 16.94375  C 19.81875 14.375  19.7875 11.025  17.8 8.703125  L 22.875 8.440625  C 23.515625 9.828125  23.875 11.371875  23.875 13  C 23.875 18.7875  19.35625 23.51875  13.653125 23.85625  Z M 17.38125 13  C 17.38125 15.421875  15.421875 17.384375  13 17.384375  C 10.578125 17.384375  8.61875 15.425  8.61875 13.003125  C 8.61875 10.575  10.578125 8.621875  13 8.621875  C 15.421875 8.621875  17.38125 10.578125  17.38125 13  Z M 24.44375 6.840625  L 24.5375 7.01875  L 24.44375 6.840625  Z M 4.11875 6.71875  C 6.090625 3.940625  9.334375 2.125  13 2.125  C 16.790625 2.125  20.13125 4.065625  22.075 7.00625  L 13.8375 6.571875  C 10.790625 6.39375  7.89375 8.109375  6.890625 10.98125  L 4.11875 6.71875  Z M 8.378125 25.153125  C 4.175 23.5625  1.015625 19.84375  0.203125 15.30625  C 1.015625 19.8375  4.175 23.55625  8.378125 25.153125  Z M 12.009375 23.83125  C 6.465625 23.328125  2.125 18.671875  2.125 13  C 2.125 11.253125  2.5375 9.603125  3.26875 8.140625  L 7.009375 15.496875  C 8.3875 18.20625  11.303125 19.8625  14.321875 19.296875  L 12.009375 23.83125  Z M 12.646875 25.996875  C 12.521875 25.990625  12.396875 25.9875  12.271875 25.98125  C 12.396875 25.9875  12.521875 25.99375  12.646875 25.996875  Z " fill-rule="nonzero" fill="#000000" stroke="none" transform="matrix(1 0 0 1 387 1210 )" />
  </g>
</svg>