<?xml version="1.0" encoding="utf-8"?>
<svg version="1.1" xmlns:xlink="http://www.w3.org/1999/xlink" width="26px" height="26px" xmlns="http://www.w3.org/2000/svg">
  <g transform="matrix(1 0 0 1 -387 -352 )">
    <path d="M 8.415625 12.796875  C 8.278125 12.896875  8.278125 13.103125  8.415625 13.203125  L 16.103125 18.765625  C 16.26875 18.884375  16.5 18.765625  16.5 18.5625  L 16.5 17.096875  C 16.5 16.778125  16.346875 16.475  16.0875 16.2875  L 11.54375 13  L 16.0875 9.7125  C 16.346875 9.525  16.5 9.225  16.5 8.903125  L 16.5 7.4375  C 16.5 7.234375  16.26875 7.115625  16.103125 7.234375  L 8.415625 12.796875  Z M 25 1.5  C 25.5 0.946875  25.053125 0.5  24.5 1  L 1.5 1  C 0.946875 0.5  0.5 0.946875  1 1.5  L 1 24.5  C 0.5 25.053125  0.946875 25.5  1.5 25  L 24.5 25  C 25.053125 25.5  25.5 25.053125  25 24.5  L 25 1.5  Z M 23 3  L 23 23  L 3 23  L 3 3  L 23 3  Z " fill-rule="nonzero" fill="#000000" stroke="none" transform="matrix(1 0 0 1 387 352 )" />
  </g>
</svg>