<?xml version="1.0" encoding="utf-8"?>
<svg version="1.1" xmlns:xlink="http://www.w3.org/1999/xlink" width="29px" height="18px" xmlns="http://www.w3.org/2000/svg">
  <g transform="matrix(1 0 0 1 -109 -1413 )">
    <path d="M 26.409375 15.834375  C 26.409375 14.9875  25.715625 14.29375  24.871875 14.29375  L 24.43125 14.29375  C 23.584375 14.29375  22.89375 14.9875  22.89375 15.834375  L 22.89375 16.275  C 22.89375 17.121875  23.5875 17.815625  24.43125 17.815625  L 24.871875 17.815625  C 25.71875 17.815625  26.409375 17.121875  26.409375 16.275  L 26.409375 15.834375  Z M 21.13125 9.015625  C 21.13125 4.15625  16.409375 0.21875  10.58125 0.21875  C 4.75625 0.21875  0.03125 4.15625  0.03125 9.015625  C 0.03125 13.875  4.75625 17.8125  10.58125 17.8125  C 16.40625 17.8125  21.13125 13.875  21.13125 9.015625  Z M 19.38125 9.0125  C 19.38125 12.828125  15.50625 16.0625  10.58125 16.0625  C 5.659375 16.0625  1.78125 12.83125  1.78125 9.015625  C 1.78125 7.06875  2.790625 5.275  4.434375 3.984375  L 4.434375 5.496875  L 5.590625 5.496875  L 10.584375 10.49375  L 10.584375 12.534375  L 7.946875 12.534375  L 7.946875 14.29375  L 14.98125 14.29375  L 14.98125 12.534375  L 12.34375 12.534375  L 12.34375 10.49375  L 15.578125 7.25625  L 17.61875 7.25625  L 17.61875 5.496875  L 12.34375 5.496875  L 12.34375 7.5375  L 11.465625 8.415625  L 8.546875 5.49375  L 9.703125 5.49375  L 9.703125 3.734375  L 4.7625 3.734375  C 6.30625 2.640625  8.334375 1.965625  10.58125 1.965625  C 15.50625 1.965625  19.38125 5.196875  19.38125 9.0125  Z M 28.015625 1.084375  C 28.1 0.609375000000002  27.771875 0.218750000000002  27.290625 0.21875  L 23.771875 0.21875  C 23.2875 0.21875  22.90625 0.6125  22.925 1.096875  L 23.334375 12.534375  L 25.971875 12.534375  L 28.015625 1.084375  Z " fill-rule="nonzero" fill="#000000" stroke="none" transform="matrix(1 0 0 1 109 1413 )" />
  </g>
</svg>