<?xml version="1.0" encoding="utf-8"?>
<svg version="1.1" xmlns:xlink="http://www.w3.org/1999/xlink" width="27px" height="22px" xmlns="http://www.w3.org/2000/svg">
  <g transform="matrix(1 0 0 1 -110 -1281 )">
    <path d="M 24.328125 5.703125  C 25.365625 4.94375  26.275 4.003125  27 2.946875  C 26.04375 3.359375  25.003125 3.65625  23.93125 3.771875  C 25.0375 3.1125  25.878125 2.071875  26.275 0.834375  C 25.253125 1.44375  24.096875 1.890625  22.89375 2.121875  C 21.91875 1.08125  20.534375 0.4375  19 0.4375  C 16.046875 0.4375  13.671875 2.83125  13.671875 5.76875  C 13.671875 6.18125  13.721875 6.59375  13.803125 6.990625  C 9.38125 6.759375  5.4375 4.646875  2.815625 1.4125  C 2.353125 2.20625  2.090625 3.1125  2.090625 4.103125  C 2.090625 5.953125  3.03125 7.584375  4.465625 8.54375  C 3.590625 8.509375  2.765625 8.2625  2.05625 7.865625  L 2.05625 7.93125  C 2.05625 10.521875  3.8875 12.66875  6.328125 13.1625  C 5.88125 13.278125  5.403125 13.34375  4.925 13.34375  C 4.578125 13.34375  4.25 13.309375  3.91875 13.2625  C 4.59375 15.375  6.559375 16.909375  8.9 16.959375  C 7.06875 18.39375  4.775 19.2375  2.284375 19.2375  C 1.8375 19.2375  1.425 19.221875  0.996875000000001 19.171875  C 3.359375 20.6875  6.1625 21.5625  9.18125 21.5625  C 18.98125 21.5625  24.34375 13.44375  24.34375 6.396875  C 24.34375 6.165625  24.34375 5.934375  24.328125 5.703125  Z " fill-rule="nonzero" fill="#000000" stroke="none" transform="matrix(1 0 0 1 110 1281 )" />
  </g>
</svg>