<?xml version="1.0" encoding="utf-8"?>
<svg version="1.1" xmlns:xlink="http://www.w3.org/1999/xlink" width="28px" height="27px" xmlns="http://www.w3.org/2000/svg">
  <g transform="matrix(1 0 0 1 -109 -1341 )">
    <path d="M 5.7125 10.896875  L 0 15.403125  L 8.25625 20.825  L 14.015625 16.03125  L 5.7125 10.896875  Z M 22.303125 10.896875  L 28 6.33125  L 19.775 0.96875  L 14.015625 5.765625  L 22.303125 10.896875  L 14.015625 16.03125  L 19.775 20.825  L 28 15.4625  L 22.303125 10.896875  Z M 19.80625 21.853125  L 14.03125 17.05625  L 8.25625 21.853125  L 5.775 20.24375  L 5.775 22.05  L 14.03125 27  L 22.271875 22.05  L 22.271875 20.24375  L 19.80625 21.853125  Z M 14.015625 5.765625  L 8.25625 0.96875  L 0 6.284375  L 5.7125 10.896875  L 14.015625 5.765625  Z " fill-rule="nonzero" fill="#000000" stroke="none" transform="matrix(1 0 0 1 109 1341 )" />
  </g>
</svg>