<?xml version="1.0" encoding="utf-8"?>
<svg version="1.1" xmlns:xlink="http://www.w3.org/1999/xlink" width="22px" height="27px" xmlns="http://www.w3.org/2000/svg">
  <g transform="matrix(1 0 0 1 -112 -1210 )">
    <path d="M 21.9375 19.075  C 18.153125 17.290625  18.35625 13.85  18.35625 13.740625  C 18.34375 11.609375  19.309375 10.003125  21.259375 8.81875  C 20.16875 7.25625  18.51875 6.396875  16.34375 6.23125  C 14.284375 6.06875  12.03125 7.43125  11.20625 7.43125  C 10.334375 7.43125  8.340625 6.2875  6.771875 6.2875  C 3.534375 6.3375  0.09375 8.86875  0.09375 14.01875  C 0.09375 15.540625  0.371875 17.1125  0.928125 18.73125  C 1.671875 20.8625  4.353125 26.084375  7.15 26  C 8.6125 25.965625  9.646875 24.9625  11.55 24.9625  C 13.396875 24.9625  14.353125 26  15.984375 26  C 18.80625 25.959375  21.23125 21.2125  21.9375 19.075  Z M 19.2875 19.934375  C 18.928125 20.675  18.4875 21.440625  18.025 22.084375  C 17.578125 22.70625  17.128125 23.196875  16.715625 23.5125  C 16.3875 23.7625  16.134375 23.86875  15.965625 23.875  C 15.684375 23.871875  15.4125 23.803125  14.88125 23.6  C 14.84375 23.584375  14.803125 23.56875  14.75 23.55  C 14.725 23.540625  14.628125 23.503125  14.6125 23.496875  C 14.06875 23.2875  13.74375 23.175  13.328125 23.065625  C 12.746875 22.915625  12.16875 22.834375  11.55 22.834375  C 10.91875 22.834375  10.325 22.9125  9.734375 23.059375  C 9.3 23.16875  8.934375 23.290625  8.4 23.490625  C 8.378125 23.5  8.146875 23.5875  8.08125 23.6125  C 7.971875 23.653125  7.8875 23.684375  7.809375 23.7125  C 7.484375 23.825  7.278125 23.871875  7.09375 23.875  C 7.071875 23.875  7.053125 23.871875  7.0375 23.86875  C 7.003125 23.8625  6.959375 23.85  6.909375 23.828125  C 6.76875 23.771875  6.6 23.66875  6.409375 23.521875  C 5.971875 23.18125  5.490625 22.646875  5 21.9625  C 4.140625 20.75625  3.328125 19.15625  2.9375 18.034375  C 2.45625 16.634375  2.21875 15.29375  2.21875 14.015625  C 2.21875 12.134375  2.775 10.703125  3.73125 9.73125000000001  C 4.553125 8.90000000000001  5.659375 8.43437500000001  6.7875 8.40937500000001  C 6.971875 8.41250000000001  7.240625 8.45625000000001  7.58125 8.55000000000001  C 7.85 8.62187500000001  8.14375 8.71875000000001  8.540625 8.85937500000001  C 8.659375 8.903125  9.06874999999999 9.05000000000001  9.11875 9.06875  C 9.35937499999999 9.15625000000001  9.540625 9.21875000000001  9.71874999999999 9.27500000000001  C 10.2875 9.45625000000001  10.728125 9.55625000000001  11.20625 9.55625000000001  C 11.690625 9.55625000000001  12.10625 9.45312500000001  12.696875 9.25000000000001  C 12.91875 9.17500000000001  13.725 8.87500000000001  13.86875 8.825  C 14.66875 8.540625  15.259375 8.3875  15.76875 8.35  C 15.91875 8.33750000000001  16.053125 8.33750000000001  16.18125 8.346875  C 16.890625 8.403125  17.496875 8.54375  18.0125 8.778125  C 16.8375 10.134375  16.23125 11.79375  16.234375 13.728125  C 16.225 14.1875  16.2625 14.71875  16.39375 15.346875  C 16.59375 16.3  16.975 17.24375  17.578125 18.128125  C 18.0375 18.8  18.60625 19.40625  19.2875 19.934375  Z M 11.040625 6.2  C 12.553125 6.315625  13.934375 5.5375  15.071875 4.209375  C 16.65625 2.328125  16.5125 0.615625  16.465625 0  C 15.065625 0.0812499999999998  13.446875 0.953125  12.525 2.025  C 11.509375 3.175  10.9125 4.596875  11.040625 6.2  Z " fill-rule="nonzero" fill="#000000" stroke="none" transform="matrix(1 0 0 1 112 1210 )" />
  </g>
</svg>