<?xml version="1.0" encoding="utf-8"?>
<svg version="1.1" xmlns:xlink="http://www.w3.org/1999/xlink" width="26px" height="16px" xmlns="http://www.w3.org/2000/svg">
  <g transform="matrix(1 0 0 1 -295 -1414 )">
    <path d="M 16.8125 2.709375  L 16.8125 1.196875  L 23.046875 1.196875  L 23.046875 2.709375  L 16.8125 2.709375  Z M 13.36875 11.078125  C 13.36875 9.146875  12.45625 7.71875  10.565625 7.18125  C 11.94375 6.521875  12.665625 5.51875  12.665625 3.96875  C 12.665625 0.903124999999999  10.384375 0.159375000000001  7.75 0.159375000000001  L 1 0.159375000000001  L 1 15.546875  L 7.953125 15.546875  C 10.746875 15.546875  13.36875 14.203125  13.36875 11.078125  Z M 3.88125 6.375  L 3.88125 2.784375  L 7.053125 2.784375  C 8.275 2.784375  9.371875 3.125  9.371875 4.54375  C 9.371875 5.85  8.51875 6.375  7.309375 6.375  L 3.88125 6.375  Z M 9.990625 10.89375  C 9.990625 12.44375  8.86875 12.934375  7.490625 12.934375  L 3.878125 12.934375  L 3.878125 8.696875  L 7.5625 8.696875  C 9.05 8.696875  9.990625 9.31875  9.990625 10.89375  Z M 25.4625 10.7125  C 25.471875 10.528125  25.484375 10.334375  25.484375 10.1375  C 25.484375 6.840625  23.55625 4.09375  20.06875 4.09375  C 16.678125 4.09375  14.371875 6.646875  14.371875 9.99375  C 14.371875 13.4625  16.55625 15.84375  20.06875 15.84375  C 22.728125 15.84375  24.45 14.646875  25.278125 12.09375  L 22.58125 12.09375  C 22.2875 13.046875  21.09375 13.546875  20.165625 13.546875  C 18.371875 13.546875  17.434375 12.496875  17.434375 10.7125  L 25.4625 10.7125  Z M 22.4125 8.78125  L 17.434375 8.78125  C 17.53125 7.315625  18.509375 6.4  19.971875 6.4  C 21.509375 6.4  22.278125 7.303125  22.4125 8.78125  Z " fill-rule="nonzero" fill="#000000" stroke="none" transform="matrix(1 0 0 1 295 1414 )" />
  </g>
</svg>