<?xml version="1.0" encoding="utf-8"?>
<svg version="1.1" xmlns:xlink="http://www.w3.org/1999/xlink" width="25px" height="25px" xmlns="http://www.w3.org/2000/svg">
  <g transform="matrix(1 0 0 1 -296 -1211 )">
    <path d="M 23.903125 14  C 24.203125 12.059375  23.825 9.615625  22.64375 7.4875  C 23.153125 6.334375  23.646875 4.653125  23.646875 3.36875  C 23.646875 -0.0406249999999995  19.9125 -1.24375  13.81875 1.559375  C 8.775 1.221875  3.91875 5.0125  2.70625 10.3  C 4.153125 8.665625  6.375 6.44375  8.425 5.559375  C 5.878125 7.821875  3.709375 10.6875  2.0625 13.675  C 1.090625 15.453125  0 18.325  0 20.471875  C 0 25.09375  4.353125 24.528125  8.45 22.440625  C 9.921875 23.1625  11.56875 23.171875  13.215625 23.171875  C 17.76875 23.171875  21.853125 20.628125  23.378125 16.328125  L 17.715625 16.328125  C 15.253125 20.48125  8.490625 18.8125  8.490625 14  L 23.903125 14  Z M 7.725 22.040625  C 3.565625 24.334375  -0.396874999999998 23.403125  3.025 16.259375  C 3.85625 18.65625  5.54375 20.753125  7.725 22.040625  Z M 18.2125 11.15625  L 8.4625 11.15625  C 8.55625 8.571875  10.81875 6.709375  13.3375 6.709375  C 15.840625 6.709375  18.11875 8.571875  18.2125 11.15625  Z M 22.371875 7.03125  C 21.14375 5.046875  19.28125 3.20625  17.1125 2.3625  C 18.115625 1.88125  19.3875 1.33125  20.5125 1.33125  C 21.984375 1.33125  23.05625 2.35  23.05625 3.85  C 23.05625 4.7875  22.709375 6.146875  22.371875 7.03125  Z " fill-rule="nonzero" fill="#ffffff" stroke="none" transform="matrix(1 0 0 1 296 1211 )" />
  </g>
</svg>