<?xml version="1.0" encoding="utf-8"?>
<svg version="1.1" xmlns:xlink="http://www.w3.org/1999/xlink" width="24px" height="20px" xmlns="http://www.w3.org/2000/svg">
  <g transform="matrix(1 0 0 1 -947 -1282 )">
    <path d="M 21.871875 3.28125  C 21.8375 3.078125  21.921875 2.86875  22.084375 2.74375  L 24 0.903125  L 24 0.5  L 17.365625 0.5  L 12.6375 12.325  L 7.259375 0.5  L 0.303125 0.5  L 0.303125 0.903125  L 2.540625 3.609375  C 2.759375 3.809375  2.871875 4.103125  3 4.396875  L 3 15.03125  C 2.9125 15.415625  2.790625 15.80625  2.521875 16.084375  L 0 19.15625  L 0 19.553125  L 7.14375 19.553125  L 7.14375 19.15  L 4.625 16.0875  C 4.353125 15.809375  4.221875 15.421875  4.278125 15.034375  L 4.278125 5.834375  L 10.55 19.559375  L 11.278125 19.559375  L 16.671875 5.834375  L 16.671875 16.76875  C 16.671875 17.05625  16.671875 17.115625  16.484375 17.30625  L 14.54375 19.190625  L 14.54375 19.59375  L 23.95625 19.59375  L 23.95625 19.190625  L 22.084375 17.35  C 21.921875 17.225  21.8375 17.015625  21.871875 16.8125  L 21.871875 3.28125  Z " fill-rule="nonzero" fill="#ffffff" stroke="none" transform="matrix(1 0 0 1 947 1282 )" />
  </g>
</svg>