<?xml version="1.0" encoding="utf-8"?>
<svg version="1.1" xmlns:xlink="http://www.w3.org/1999/xlink" width="28px" height="16px" xmlns="http://www.w3.org/2000/svg">
  <g transform="matrix(1 0 0 1 -945 -1346 )">
    <path d="M 10.040625 15.040625  C 9.975 15.05625  9.909375 15.0625  9.840625 15.0625  C 9.74375 15.0625  9.65 15.046875  9.565625 15.015625  L 9.703125 15.975  L 10.525 15.975  L 10.040625 15.040625  Z M 28 10.96875  C 28 8.203125  25.759375 5.9625  22.996875 5.9625  C 22.603125 5.9625  22.221875 6.009375  21.85625 6.09375  C 21.1875 4.89375  19.909375 4.084375  18.440625 4.084375  C 18.225 4.084375  18.015625 4.103125  17.809375 4.134375  C 16.703125 1.715625  14.265625 0.0375000000000014  11.4375 0.0375000000000014  C 7.928125 0.0375000000000014  5.021875 2.61875  4.5125 5.9875  C 1.978125 6.234375  0 8.36875  0 10.96875  C 0 13.73125  2.2375 15.971875  5 15.975  L 6.5625 15.975  L 6.975 15.1125  C 6.15625 14.853125  5.621875 14.20625  5.753125 13.5875  C 5.896875 12.9125  6.778125 12.528125  7.725 12.728125  C 8.440625 12.88125  8.9875 13.325  9.146875 13.825  C 9.290625 13.59375  9.546875 13.4375  9.8375 13.4375  L 9.84375 13.4375  C 9.81875 13.3375  9.80625 13.234375  9.80625 13.128125  C 9.80625 12.5  10.26875 11.98125  10.871875 11.890625  L 10.871875 11.096875  C 10.871875 10.959375  10.984375 10.846875  11.121875 10.846875  C 11.259375 10.846875  11.371875 10.959375  11.371875 11.096875  L 11.371875 11.91875  C 11.515625 11.95625  11.646875 12.01875  11.765625 12.1  L 12.375 11.43125  C 12.46875 11.328125  12.625 11.321875  12.728125 11.415625  C 12.83125 11.509375  12.8375 11.665625  12.74375 11.76875  L 12.11875 12.45625  L 12.1125 12.4625  C 12.234375 12.65625  12.30625 12.884375  12.30625 13.13125  C 12.30625 13.821875  11.746875 14.38125  11.05625 14.38125  C 10.9125 14.38125  10.775 14.35625  10.646875 14.3125  C 10.634375 14.4875  10.565625 14.646875  10.459375 14.775  L 11.084375 16  L 23.125 16  L 23.125 15.971875  C 25.828125 15.903125  28 13.690625  28 10.96875  Z M 9.0125 14.678125  C 8.903125 14.821875  8.753125 14.94375  8.56875 15.0375  L 8.434375 15.975  L 9.196875 15.975  L 9.0125 14.678125  Z M 22.921875 1.53125  C 22.921875 2.35967712474619  23.5934478752538 3.03125  24.421875 3.03125  C 25.2503021247462 3.03125  25.921875 2.35967712474619  25.921875 1.53125  C 25.921875 0.702822875253808  25.2503021247462 0.03125  24.421875 0.03125  C 23.5934478752538 0.03125  22.921875 0.702822875253808  22.921875 1.53125  Z M 20.86875 3.44687504470348  C 20.86875 3.86108860707658  21.2045364376269 4.19687504470348  21.61875 4.19687504470348  C 22.0329635623731 4.19687504470348  22.36875 3.86108860707658  22.36875 3.44687504470348  C 22.36875 3.03266139292342  22.0329635623731 2.69687495529651  21.61875 2.69687495529651  C 21.2045364376269 2.69687495529651  20.86875 3.03266139292342  20.86875 3.44687495529651  Z M 8.040625 15.203125  C 7.8625 15.228125  7.675 15.234375  7.48125 15.215625  L 7.11875 15.975  L 7.93125 15.975  L 8.040625 15.203125  Z " fill-rule="nonzero" fill="#ffffff" stroke="none" transform="matrix(1 0 0 1 945 1346 )" />
  </g>
</svg>