<?xml version="1.0" encoding="utf-8"?>
<svg version="1.1" xmlns:xlink="http://www.w3.org/1999/xlink" width="26px" height="26px" xmlns="http://www.w3.org/2000/svg">
  <g transform="matrix(1 0 0 1 -572 -1409 )">
    <path d="M 26 13  C 26 5.83125  20.16875 0  13 0  C 5.83125 0  0 5.83125  0 13  C 0 20.16875  5.83125 26  13 26  C 20.16875 26  26 20.16875  26 13  Z M 15.396875 10.375  C 19.5 8.696875  21.3625 6.3125  21.596875 5.99375  C 23.14375 7.884375  24.08125 10.290625  24.103125 12.9125  C 23.7375 12.834375  20.065625 12.090625  16.371875 12.55625  C 16.29375 12.365625  16.215625 12.175  16.134375 11.984375  C 15.903125 11.44375  15.65625 10.903125  15.396875 10.375  Z M 10.396875 2.221875  C 11.25 2.015625  12.121875 1.9125  13 1.9125  C 15.821875 1.9125  18.4 2.971875  20.359375 4.709375  C 20.159375 4.99375  18.4875 7.240625  14.540625 8.721875  C 12.721875 5.378125  10.70625 2.634375  10.396875 2.221875  Z M 2.128125 10.74375  C 2.85 7.296875  5.171875 4.434375  8.278125 2.96875  C 8.571875 3.36875  10.55625 6.121875  12.39375 9.390625  C 7.2 10.76875  2.625 10.75  2.128125 10.74375  Z M 4.75 20.440625  C 2.978125 18.471875  1.896875 15.86875  1.896875 13.015625  C 1.896875 12.903125  1.9 12.7875  1.903125 12.675  C 2.3875 12.684375  7.76875 12.753125  13.315625 11.09375  C 13.634375 11.715625  13.9375 12.346875  14.215625 12.978125  C 14.06875 13.01875  13.921875 13.0625  13.778125 13.109375  C 8.05 14.965625  5.003125 20.0125  4.75 20.440625  Z M 17.334375 23.2375  C 16.003125 23.80625  14.5375 24.121875  13 24.11875  C 10.43125 24.11875  8.065625 23.24375  6.184375 21.775  C 6.384375 21.365625  8.63125 17.025  14.89375 14.840625  L 14.965625 14.815625  C 16.525 18.865625  17.16875 22.2625  17.334375 23.2375  Z M 23.9625 14.78125  C 23.46875 17.86875  21.696875 20.5375  19.203125 22.221875  C 19.090625 21.546875  18.5 18.296875  17.046875 14.30625  C 20.528125 13.75  23.584375 14.6625  23.9625 14.78125  Z " fill-rule="nonzero" fill="#ffffff" stroke="none" transform="matrix(1 0 0 1 572 1409 )" />
  </g>
</svg>