<?xml version="1.0" encoding="utf-8"?>
<svg version="1.1" xmlns:xlink="http://www.w3.org/1999/xlink" width="26px" height="20px" xmlns="http://www.w3.org/2000/svg">
  <g transform="matrix(1 0 0 1 -479 -1282 )">
    <path d="M 2.265625 2.553125  C 2.265625 3.73881132229298  3.22681367770702 4.7  4.4125 4.7  C 5.59818632229298 4.7  6.559375 3.73881132229298  6.559375 2.553125  C 6.559375 1.36743867770702  5.59818632229298 0.40625  4.4125 0.40625  C 3.22681367770702 0.40625  2.265625 1.36743867770702  2.265625 2.553125  Z M 25.240625 15.25625  C 25.90625 9.00625  25.078125 5.028125  25.078125 5.028125  C 25.078125 5.028125  24.3375 -0.734375000000001  11.7375 2.8375  C 12.278125 1.9  12.5375 1.290625  12.5375 1.290625  L 9.3875 0.40625  C 9.3875 0.40625  8.11875 4.55  5.85625 6.48125  C 5.85625 6.48125  8.046875 7.75  8.025 7.7125  C 8.653125 7.084375  9.21875 6.44375  9.703125 5.825  C 10.20625 5.60625  10.6875 5.4  11.1625 5.20625  C 10.58125 6.253125  9.640625 7.825  8.7 8.81875  L 10.025 9.975  C 10.025 9.975  10.925 9.109375  11.9125 8.0625  L 13.0375 8.0625  L 13.0375 9.99375  L 8.653125 9.99375  L 8.653125 11.540625  L 13.0375 11.540625  L 13.0375 15.24375  C 12.984375 15.24375  12.925 15.24375  12.86875 15.2375  C 12.3875 15.215625  11.634375 15.134375  11.3375 14.66875  C 10.978125 14.103125  11.24375 13.059375  11.2625 12.421875  L 8.23125 12.421875  L 8.125 12.478125  C 8.125 12.478125  7.015625 17.45  11.321875 17.3375  C 15.35625 17.45  17.665625 16.2125  18.778125 15.365625  L 19.221875 17.009375  L 21.709375 15.971875  L 20.025 11.85  L 18.00625 12.478125  L 18.384375 13.890625  C 17.865625 14.278125  17.271875 14.56875  16.628125 14.778125  L 16.628125 11.540625  L 20.9125 11.540625  L 20.9125 9.99375  L 16.628125 9.99375  L 16.628125 8.0625  L 20.928125 8.0625  L 20.928125 6.515625  L 13.290625 6.515625  C 13.840625 5.846875  14.275 5.23125  14.384375 4.840625  L 13.05625 4.478125  C 18.76875 2.43125  21.946875 2.784375  21.91875 6.140625  L 21.91875 14.978125  C 21.91875 14.978125  22.25625 18.0125  18.78125 17.79375  L 16.9 17.390625  L 16.45625 19.175  C 16.45625 19.175  24.578125 21.5  25.240625 15.25625  Z M 6.409375 8.51875  C 5.084375 7.1875  4.940625 7.0625  2.971875 5.6  L 1.553125 7.778125  L 4.165625 9.40625  C 4.165625 9.40625  5.915625 10.296875  5.084375 11.965625  C 4.30625 13.546875  0.5 17.009375  0.5 17.009375  L 3.90625 19.1375  C 6.2625 14.021875  6.109375 14.7  6.703125 12.865625  C 7.3125 10.9875  7.44375 9.55625  6.409375 8.51875  Z " fill-rule="nonzero" fill="#000000" stroke="none" transform="matrix(1 0 0 1 479 1282 )" />
  </g>
</svg>