<?xml version="1.0" encoding="utf-8"?>
<svg version="1.1" xmlns:xlink="http://www.w3.org/1999/xlink" width="30px" height="16px" xmlns="http://www.w3.org/2000/svg">
  <g transform="matrix(1 0 0 1 -756 -1414 )">
    <path d="M 29.234375 9.746875  C 25.74375 11.240625  21.95625 12.66875  17.840625 12.93125  C 16.678125 13.0125  16.790625 12.390625  17.48125 11.4875  C 19.05625 9.3875  21.971875 6.534375  22.103125 4.45  C 22.284375 1.74375  19.5625 0.906249999999996  16.759375 0.906249999999996  C 14.809375 0.956249999999997  12.790625 1.496875  11.415625 1.9875  C 6.678125 3.659375  3.709375 6.284375  1.825 9.2375  C -0.125000000000001 12.15625  0.481249999999999 14.9625  4.69375 15.04375  C 7.875 14.9125  10.021875 14.028125  12.184375 12.9125  C 12.2 12.9125  6.16875 14.634375  3.9375 13.371875  C 3.690625 13.240625  3.446875 13.059375  3.38125 12.553125  C 3.38125 11.51875  5.0875 10.4375  6.0875 10.09375  L 6.0875 8.32187499999999  C 8.103125 9.02812499999999  10.48125 8.83124999999999  12.515625 7.32187499999999  C 12.58125 7.50312499999999  12.646875 7.73124999999999  12.63125 7.97812499999999  L 12.975 7.97812499999999  C 13.05625 7.27187499999999  12.58125 6.58437499999999  11.79375 6.53437499999999  C 12.021875 6.71562499999999  12.1875 6.86249999999999  12.26875 6.99374999999999  L 12.2375 7.02499999999999  L 12.221875 7.04062499999999  C 9.6 8.87812499999999  7.05625 8.02499999999999  6.8125 7.97499999999999  L 8.271875 6.54687499999999  L 7.8625 5.51249999999999  C 10.765625 4.49687499999999  13.159375 3.75624999999999  17.140625 3.05312499999999  L 16.25 2.33437499999999  L 16.709375 2.05624999999999  C 19.06875 2.71249999999999  20.659375 3.20312499999999  20.578125 4.44999999999999  C 20.546875 4.66249999999999  20.4625 4.90937499999999  20.33125 5.17187499999999  C 19.628125 6.565625  17.5625 8.8125  16.725 9.78125  C 16.184375 10.421875  15.64375 11.0125  15.265625 11.603125  C 14.840625 12.209375  14.625 12.76875  14.609375 13.275  C 14.690625 17.39375  26.840625 11.340625  29.234375 9.746875  Z M 20.625 4.0625  C 20.621875 3.85  20.58125 3.646875  20.496875 3.465625  C 20.584375 3.628125  20.625 3.828125  20.625 4.0625  Z " fill-rule="nonzero" fill="#ffffff" stroke="none" transform="matrix(1 0 0 1 756 1414 )" />
  </g>
</svg>