<?xml version="1.0" encoding="utf-8"?>
<svg version="1.1" xmlns:xlink="http://www.w3.org/1999/xlink" width="26px" height="26px" xmlns="http://www.w3.org/2000/svg">
  <g transform="matrix(1 0 0 1 -758 -1211 )">
    <path d="M 10.865625 16.74375  C 11.140625 16.296875  10.996875 15.7875  10.55 15.596875  C 10.10625 15.4125  9.5375 15.603125  9.2625 16.03125  C 8.9875 16.4625  9.115625 16.975  9.553125 17.175  C 10 17.378125  10.590625 17.184375  10.865625 16.74375  Z M 25 1.5  C 25.5 0.946875  25.053125 0.5  24.5 1  L 1.5 1  C 0.946875 0.5  0.5 0.946875  1 1.5  L 1 24.5  C 0.5 25.053125  0.946875 25.5  1.5 25  L 24.5 25  C 25.053125 25.5  25.5 25.053125  25 24.5  L 25 1.5  Z M 19.41875 15.096875  C 19.425 17.26875  16.303125 20  11.6125 20  C 8.034375 20  4.375 18.2625  4.375 15.403125  C 4.375 13.909375  5.31875 12.18125  6.946875 10.55  C 9.11875 8.375  11.653125 7.38125  12.60625 8.3375  C 13.028125 8.759375  13.06875 9.4875  12.796875 10.35625  C 12.65625 10.79375  13.20625 10.553125  13.20625 10.553125  C 14.9625 9.815625  16.49375 9.771875  17.053125 10.575  C 17.353125 11.003125  17.321875 11.6  17.046875 12.296875  C 16.91875 12.615625  17.0875 12.665625  17.328125 12.7375  C 18.31875 13.04375  19.41875 13.7875  19.41875 15.096875  Z M 18.459375 11.628125  C 18.159375 11.53125  17.99375 11.2125  18.090625 10.9125  C 18.20625 10.553125  18.134375 10.146875  17.865625 9.846875  C 17.596875 9.546875  17.196875 9.434375  16.83125 9.5125  C 16.525 9.578125  16.221875 9.38125  16.15625 9.075  C 16.090625 8.765625  16.2875 8.4625  16.59375 8.396875  C 17.346875 8.2375  18.159375 8.46875  18.709375 9.08125  C 19.2625 9.69375  19.409375 10.528125  19.175 11.2625  C 19.078125 11.5625  18.759375 11.725  18.459375 11.628125  Z M 20.446875 7.509375  C 21.58125 8.765625  21.8875 10.48125  21.403125 11.984375  C 21.403125 11.984375  21.403125 11.9875  21.403125 11.984375  C 21.290625 12.334375  20.91875 12.525  20.571875 12.4125  C 20.225 12.3  20.034375 11.928125  20.146875 11.578125  C 20.490625 10.509375  20.271875 9.290625  19.46875 8.396875  C 18.6625 7.503125  17.475 7.1625  16.378125 7.39375  C 16.021875 7.471875  15.66875 7.240625  15.59375 6.884375  C 15.515625 6.528125  15.74375 6.175  16.1 6.1  C 17.64375 5.771875  19.3125 6.25  20.446875 7.509375  Z M 16.45625 15.0625  C 16.271875 13.184375  13.80625 11.890625  10.95 12.175  C 8.09375 12.45625  5.928125 14.209375  6.115625 16.0875  C 6.3 17.965625  8.765625 19.259375  11.621875 18.978125  C 14.478125 18.69375  16.64375 16.94375  16.45625 15.0625  Z M 11.90625 13.61875  C 13.3125 13.984375  14.03125 15.3125  13.45625 16.603125  C 12.871875 17.925  11.196875 18.628125  9.775 18.16875  C 8.403125 17.725  7.821875 16.365625  8.421875 15.14375  C 9.0125 13.94375  10.546875 13.265625  11.90625 13.61875  Z M 11.78125 15.575  C 11.875 15.4  11.8125 15.20625  11.640625 15.14375  C 11.471875 15.075  11.259375 15.159375  11.159375 15.325  C 11.0625 15.49375  11.115625 15.684375  11.2875 15.75625  C 11.459375 15.828125  11.68125 15.746875  11.78125 15.575  Z " fill-rule="nonzero" fill="#000000" stroke="none" transform="matrix(1 0 0 1 758 1211 )" />
  </g>
</svg>