<?xml version="1.0" encoding="utf-8"?>
<svg version="1.1" xmlns:xlink="http://www.w3.org/1999/xlink" width="22px" height="26px" xmlns="http://www.w3.org/2000/svg">
  <g transform="matrix(1 0 0 1 -667 -1279 )">
    <path d="M 21.228125 21.03125  C 21.49375 20.996875  21.8375 19.58125  20.775 16.1625  C 20.275 14.55625  19.7 13.20625  18.815625 10.996875  C 18.953125 5.19375  16.540625 0.5  10.984375 0.5  C 5.365625 0.5  3.00625 5.2875  3.15625 10.996875  C 2.26875 13.209375  1.696875 14.55  1.196875 16.1625  C 0.134375 19.584375  0.478125 21  0.740625000000001 21.03125  C 1.303125 21.1  2.93125 18.45625  2.93125 18.45625  C 2.93125 19.9875  3.71875 21.984375  5.425 23.425  C 4.6 23.678125  2.746875 24.359375  3.1875 25.10625  C 3.54375 25.709375  9.31875 25.490625  10.984375 25.303125  C 12.65 25.490625  18.425 25.709375  18.78125 25.10625  C 19.221875 24.3625  17.365625 23.678125  16.54375 23.425  C 18.25 21.98125  19.0375 19.984375  19.0375 18.45625  C 19.0375 18.45625  20.665625 21.1  21.228125 21.03125  Z " fill-rule="nonzero" fill="#000000" stroke="none" transform="matrix(1 0 0 1 667 1279 )" />
  </g>
</svg>