<?xml version="1.0" encoding="utf-8"?>
<svg version="1.1" xmlns:xlink="http://www.w3.org/1999/xlink" width="22px" height="27px" xmlns="http://www.w3.org/2000/svg">
  <g transform="matrix(1 0 0 1 -667 -1210 )">
    <path d="M 21.234375 10.71875  C 21.765625 8.490625  17.65625 7.6125  12.928125 5.890625  C 8.203125 4.16875  1.290625 1.021875  1.290625 1.021875  C 0.800000000000001 0.89375  0.73125 1.36875  0.73125 1.36875  C 0.575 3.278125  1.78125 6.384375  2.40625 7.08125  C 3.028125 7.778125  12.378125 10.634375  12.378125 10.634375  C 12.378125 10.634375  5.1875 9.184375  3.453125 8.684375  C 1.715625 8.184375  2.26875 9.240625  2.26875 9.240625  C 2.625 11.16875  4.296875 13.359375  5.61875 13.565625  C 6.9375 13.771875  12.496875 13.690625  12.496875 13.690625  C 12.496875 13.690625  11.3875 13.81875  9.584375 14.0625  C 8.25 14.24375  6.553125 14.453125  6.1125 14.61875  C 5.078125 15.009375  6.8625 16.575  6.8625 16.575  C 9.509375 18.975  10.915625 18.153125  10.915625 18.153125  C 11.95625 17.81875  12.834375 17.575  13.578125 17.396875  L 12.65625 21.221875  L 15.3 21.221875  L 13.84375 27  L 20.259375 18.503125  L 16.9 18.503125  L 17.596875 17.29375  C 17.60625 17.309375  17.609375 17.31875  17.609375 17.31875  C 17.609375 17.31875  19.99375 13.503125  20.90625 11.55625  L 20.925 11.525  L 20.921875 11.525  C 21.078125 11.1875  21.190625 10.909375  21.234375 10.71875  Z " fill-rule="nonzero" fill="#000000" stroke="none" transform="matrix(1 0 0 1 667 1210 )" />
  </g>
</svg>