<?xml version="1.0" encoding="utf-8"?>
<svg version="1.1" xmlns:xlink="http://www.w3.org/1999/xlink" width="28px" height="28px" xmlns="http://www.w3.org/2000/svg">
  <g transform="matrix(1 0 0 1 -851 -1210 )">
    <path d="M 28 14  C 28 6.26875  21.73125 0  14 0  C 6.26875 0  0 6.26875  0 14  C 0 21.73125  6.26875 28  14 28  C 21.73125 28  28 21.73125  28 14  Z M 20.41875 16.096875  C 20.425 18.26875  17.303125 21  12.6125 21  C 9.034375 21  5.375 19.2625  5.375 16.403125  C 5.375 14.909375  6.31875 13.18125  7.946875 11.55  C 10.11875 9.375  12.653125 8.38125  13.60625 9.3375  C 14.028125 9.759375  14.06875 10.4875  13.796875 11.35625  C 13.65625 11.79375  14.20625 11.553125  14.20625 11.553125  C 15.9625 10.815625  17.49375 10.771875  18.053125 11.575  C 18.353125 12.003125  18.321875 12.6  18.046875 13.296875  C 17.91875 13.615625  18.0875 13.665625  18.328125 13.7375  C 19.31875 14.04375  20.41875 14.7875  20.41875 16.096875  Z M 19.459375 12.628125  C 19.159375 12.53125  18.99375 12.2125  19.090625 11.9125  C 19.20625 11.553125  19.134375 11.146875  18.865625 10.846875  C 18.596875 10.546875  18.196875 10.434375  17.83125 10.5125  C 17.525 10.578125  17.221875 10.38125  17.15625 10.075  C 17.090625 9.765625  17.2875 9.4625  17.59375 9.396875  C 18.346875 9.2375  19.159375 9.46875  19.709375 10.08125  C 20.2625 10.69375  20.409375 11.528125  20.175 12.2625  C 20.078125 12.5625  19.759375 12.725  19.459375 12.628125  Z M 21.446875 8.509375  C 22.58125 9.765625  22.8875 11.48125  22.403125 12.984375  C 22.403125 12.984375  22.403125 12.9875  22.403125 12.984375  C 22.290625 13.334375  21.91875 13.525  21.571875 13.4125  C 21.225 13.3  21.034375 12.928125  21.146875 12.578125  C 21.490625 11.509375  21.271875 10.290625  20.46875 9.396875  C 19.6625 8.503125  18.475 8.1625  17.378125 8.39375  C 17.021875 8.471875  16.66875 8.240625  16.59375 7.884375  C 16.515625 7.528125  16.74375 7.175  17.1 7.1  C 18.64375 6.771875  20.3125 7.25  21.446875 8.509375  Z M 17.45625 16.0625  C 17.271875 14.184375  14.80625 12.890625  11.95 13.175  C 9.09375 13.45625  6.928125 15.209375  7.115625 17.0875  C 7.3 18.965625  9.765625 20.259375  12.621875 19.978125  C 15.478125 19.69375  17.64375 17.94375  17.45625 16.0625  Z M 12.90625 14.61875  C 14.3125 14.984375  15.03125 16.3125  14.45625 17.603125  C 13.871875 18.925  12.196875 19.628125  10.775 19.16875  C 9.403125 18.725  8.821875 17.365625  9.421875 16.14375  C 10.0125 14.94375  11.546875 14.265625  12.90625 14.61875  Z M 11.865625 17.74375  C 12.140625 17.296875  11.996875 16.7875  11.55 16.596875  C 11.10625 16.4125  10.5375 16.603125  10.2625 17.03125  C 9.9875 17.4625  10.115625 17.975  10.553125 18.175  C 11 18.378125  11.590625 18.184375  11.865625 17.74375  Z M 12.78125 16.575  C 12.875 16.4  12.8125 16.20625  12.640625 16.14375  C 12.471875 16.075  12.259375 16.159375  12.159375 16.325  C 12.0625 16.49375  12.115625 16.684375  12.2875 16.75625  C 12.459375 16.828125  12.68125 16.746875  12.78125 16.575  Z " fill-rule="nonzero" fill="#ffffff" stroke="none" transform="matrix(1 0 0 1 851 1210 )" />
  </g>
</svg>