<?xml version="1.0" encoding="utf-8"?>
<svg version="1.1" xmlns:xlink="http://www.w3.org/1999/xlink" width="24px" height="26px" xmlns="http://www.w3.org/2000/svg">
  <g transform="matrix(1 0 0 1 -17 -2016 )">
    <path d="M 16.94375 17.471875  C 17.021875 17.51875  17.115625 17.525  17.196875 17.48125  C 17.953125 17.075  18.81875 16.84375  19.740625 16.84375  L 19.74375 16.84375  C 19.8375 16.84375  19.88125 16.73125  19.8125 16.66875  C 18.85 15.80625  17.7625 15.115625  16.571875 14.6125  C 16.559375 14.60625  16.546875 14.603125  16.534375 14.596875  C 18.475 13.1875  19.7375 10.896875  19.7375 8.3125  C 19.7375 4.03125  16.275 0.5625  12.003125 0.5625  C 7.73125 0.5625  4.271875 4.03125  4.271875 8.3125  C 4.271875 10.896875  5.534375 13.1875  7.478125 14.596875  C 7.465625 14.603125  7.453125 14.60625  7.440625 14.6125  C 6.04375 15.203125  4.790625 16.05  3.7125 17.13125  C 2.634375 18.209375  1.790625 19.465625  1.2 20.865625  C 0.621875 22.234375  0.3125 23.6875  0.28125 25.18125  C 0.278125 25.321875  0.390625 25.4375  0.53125 25.4375  L 2.403125 25.4375  C 2.5375 25.4375  2.65 25.328125  2.653125 25.19375  C 2.715625 22.78125  3.68125 20.521875  5.390625 18.809375  C 7.15625 17.0375  9.50625 16.0625  12.00625 16.0625  C 13.778125 16.0625  15.478125 16.553125  16.94375 17.471875  Z M 15.8 12.1125  C 14.784375 13.128125  13.4375 13.6875  12.00625 13.6875  C 10.575 13.6875  9.228125 13.128125  8.2125 12.1125  C 7.2 11.096875  6.640625 9.746875  6.640625 8.3125  C 6.640625 6.878125  7.2 5.528125  8.2125 4.5125  C 9.225 3.496875  10.571875 2.9375  12.00625 2.9375  C 13.440625 2.9375  14.784375 3.496875  15.8 4.5125  C 16.8125 5.528125  17.371875 6.878125  17.371875 8.3125  C 17.371875 9.746875  16.8125 11.096875  15.8 12.1125  Z M 23.75 21.375  C 23.75 21.2375  23.6375 21.125  23.5 21.125  L 16 21.125  C 15.8625 21.125  15.75 21.2375  15.75 21.375  L 15.75 23.125  C 15.75 23.2625  15.8625 23.375  16 23.375  L 23.5 23.375  C 23.6375 23.375  23.75 23.2625  23.75 23.125  L 23.75 21.375  Z " fill-rule="nonzero" fill="#ffffff" stroke="none" transform="matrix(1 0 0 1 17 2016 )" />
  </g>
</svg>