<?xml version="1.0" encoding="utf-8"?>
<svg version="1.1" xmlns:xlink="http://www.w3.org/1999/xlink" width="26px" height="26px" xmlns="http://www.w3.org/2000/svg">
  <g transform="matrix(1 0 0 1 -16 -1539 )">
    <path d="M 25 3.75  C 25.5 3.196875  25.053125 2.75  24.5 2.75  L 19.25 2.75  L 19.25 0.75  C 19.25 0.6125  19.1375 0.5  19 0.5  L 17.25 0.5  C 17.1125 0.5  17 0.6125  17 0.75  L 17 2.75  L 9 2.75  L 9 0.75  C 9 0.6125  8.8875 0.5  8.75 0.5  L 7 0.5  C 6.8625 0.5  6.75 0.6125  6.75 0.75  L 6.75 2.75  L 1.5 2.75  C 0.946875 2.75  0.5 3.196875  1 3.75  L 1 24.5  C 0.5 25.053125  0.946875 25.5  1.5 25  L 24.5 25  C 25.053125 25.5  25.5 25.053125  25 24.5  L 25 3.75  Z M 23 5  L 23 23  L 3 23  L 3 5  L 6.75 5  L 6.75 6.5  C 6.75 6.6375  6.8625 6.75  7 6.75  L 8.75 6.75  C 8.8875 6.75  9 6.6375  9 6.5  L 9 5  L 17 5  L 17 6.5  C 17 6.6375  17.1125 6.75  17.25 6.75  L 19 6.75  C 19.1375 6.75  19.25 6.6375  19.25 6.5  L 19.25 5  L 23 5  Z M 17.23125 10.1875  C 17.234375 10.05  17.125 9.9375  16.984375 9.9375  L 15.578125 9.9375  C 15.484375 9.9375  15.396875 9.990625  15.35625 10.075  L 13.0625 14.61875  L 12.975 14.61875  L 10.68125 10.075  C 10.6375 9.990625  10.553125 9.9375  10.459375 9.9375  L 9.021875 9.9375  C 8.98125 9.9375  8.9375 9.946875  8.903125 9.96875  C 8.78125 10.034375  8.7375 10.1875  8.803125 10.309375  L 11.59375 15.434375  L 10.075 15.434375  C 9.9375 15.434375  9.825 15.546875  9.825 15.684375  L 9.825 16.35  C 9.825 16.4875  9.9375 16.6  10.075 16.6  L 12.109375 16.6  L 12.109375 17.653125  L 10.075 17.653125  C 9.9375 17.653125  9.825 17.765625  9.825 17.903125  L 9.825 18.56875  C 9.825 18.70625  9.9375 18.81875  10.075 18.81875  L 12.109375 18.81875  L 12.109375 20.5  C 12.109375 20.6375  12.221875 20.75  12.359375 20.75  L 13.65 20.75  C 13.7875 20.75  13.9 20.6375  13.9 20.5  L 13.9 18.81875  L 15.94375 18.81875  C 16.08125 18.81875  16.19375 18.70625  16.19375 18.56875  L 16.19375 17.903125  C 16.19375 17.765625  16.08125 17.653125  15.94375 17.653125  L 13.9 17.653125  L 13.9 16.6  L 15.94375 16.6  C 16.08125 16.6  16.19375 16.4875  16.19375 16.35  L 16.19375 15.684375  C 16.19375 15.546875  16.08125 15.434375  15.94375 15.434375  L 14.409375 15.434375  L 17.2 10.30625  C 17.21875 10.26875  17.23125 10.228125  17.23125 10.1875  Z " fill-rule="nonzero" fill="#ffffff" stroke="none" transform="matrix(1 0 0 1 16 1539 )" />
  </g>
</svg>