<?xml version="1.0" encoding="utf-8"?>
<svg version="1.1" xmlns:xlink="http://www.w3.org/1999/xlink" width="28px" height="23px" xmlns="http://www.w3.org/2000/svg">
  <g transform="matrix(1 0 0 1 -15 -1678 )">
    <path d="M 27 6.25  C 27.5 4.86875  26.38125 3.75  25 3.75  L 20.75 3.75  L 19.7375 0.9125  C 19.59375 0.515625  19.21875 0.25  18.79375 0.25  L 9.20625 0.25  C 8.784375 0.25  8.40625 0.515625  8.265625 0.9125  L 7.25 3.75  L 3 3.75  C 1.61875 3.75  0.5 4.86875  1 6.25  L 1 20.5  C 0.5 21.88125  1.61875 23  3 23  L 25 23  C 26.38125 23  27.5 21.88125  27 20.5  L 27 6.25  Z M 25 6.25  L 25 20.5  C 25.25 20.6375  25.1375 20.75  25 20.75  L 3 20.75  C 2.8625 20.75  2.75 20.6375  3 20.5  L 3 6.25  C 2.75 6.1125  2.8625 6  3 6  L 8.834375 6  L 9.36875 4.50625  L 10.084375 2.5  L 17.9125 2.5  L 18.628125 4.50625  L 19.1625 6  L 25 6  C 25.1375 6  25.25 6.1125  25 6.25  Z M 19 13  C 19 10.2375  16.7625 8  14 8  C 11.2375 8  9 10.2375  9 13  C 9 15.7625  11.2375 18  14 18  C 16.7625 18  19 15.7625  19 13  Z M 17 13  C 17 14.65625  15.65625 16  14 16  C 12.34375 16  11 14.65625  11 13  C 11 11.34375  12.34375 10  14 10  C 15.65625 10  17 11.34375  17 13  Z " fill-rule="nonzero" fill="#ffffff" stroke="none" transform="matrix(1 0 0 1 15 1678 )" />
  </g>
</svg>