<?xml version="1.0" encoding="utf-8"?>
<svg version="1.1" xmlns:xlink="http://www.w3.org/1999/xlink" width="26px" height="26px" xmlns="http://www.w3.org/2000/svg">
  <g transform="matrix(1 0 0 1 -16 -1744 )">
    <path d="M 13.125 16.53125  L 13.125 18.03125  C 13.125 18.16875  13.23125 18.28125  13.359375 18.28125  L 19.140625 18.28125  C 19.26875 18.28125  19.375 18.16875  19.375 18.03125  L 19.375 16.53125  C 19.375 16.39375  19.26875 16.28125  19.140625 16.28125  L 13.359375 16.28125  C 13.23125 16.28125  13.125 16.39375  13.125 16.53125  Z M 6.625 18.03125  C 6.625 18.24375  6.871875 18.359375  7.034375 18.221875  L 13.034375 13.190625  C 13.153125 13.090625  13.153125 12.90625  13.034375 12.80625  L 7.034375 7.778125  C 6.871875 7.640625  6.625 7.75625  6.625 7.96875  L 6.625 9.928125  C 6.625 10.003125  6.65625 10.071875  6.715625 10.11875  L 10.146875 13  L 6.715625 15.88125  C 6.659375 15.928125  6.625 16  6.625 16.071875  L 6.625 18.03125  Z M 25 1.5  C 25.5 0.946875  25.053125 0.5  24.5 1  L 1.5 1  C 0.946875 0.5  0.5 0.946875  1 1.5  L 1 24.5  C 0.5 25.053125  0.946875 25.5  1.5 25  L 24.5 25  C 25.053125 25.5  25.5 25.053125  25 24.5  L 25 1.5  Z M 23 3  L 23 23  L 3 23  L 3 3  L 23 3  Z " fill-rule="nonzero" fill="#000000" stroke="none" transform="matrix(1 0 0 1 16 1744 )" />
  </g>
</svg>