<?xml version="1.0" encoding="utf-8"?>
<svg version="1.1" xmlns:xlink="http://www.w3.org/1999/xlink" width="26px" height="26px" xmlns="http://www.w3.org/2000/svg">
  <g transform="matrix(1 0 0 1 -16 -2702 )">
    <path d="M 25 12.6875  L 23.225 5.690625  C 23.090625 5.278125  22.70625 5  22.275 5  L 20 5  L 20 1.5  C 20 0.946875  19.553125 0.5  19 1  L 7 1  C 6.446875 0.5  6 0.946875  6 1.5  L 6 5  L 3.725 5  C 3.290625 5  2.909375 5.278125  2.775 5.690625  L 1 12.6875  L 1 24.5  C 0.5 25.053125  0.946875 25.5  1.5 25  L 24.5 25  C 25.053125 25.5  25.5 25.053125  25 24.5  L 25 12.6875  Z M 8.25 5  L 8.25 2.75  L 17.75 2.75  L 17.75 5  L 8.25 5  Z M 23 13.04375  L 23 23  L 2.75 23  L 2.75 13.04375  L 4.634375 7.25  L 21.365625 7.25  L 23 13.04375  Z M 17.625 15.125  C 17.625 14.9875  17.5125 14.875  17.375 14.875  L 14 14.875  L 14 11.5  C 14 11.3625  13.8875 11.25  13.75 11.25  L 12.25 11.25  C 12.1125 11.25  12 11.3625  12 11.5  L 12 14.875  L 8.625 14.875  C 8.4875 14.875  8.375 14.9875  8.375 15.125  L 8.375 16.625  C 8.375 16.7625  8.4875 16.875  8.625 16.875  L 12 16.875  L 12 20.25  C 12 20.3875  12.1125 20.5  12.25 20.5  L 13.75 20.5  C 13.8875 20.5  14 20.3875  14 20.25  L 14 16.875  L 17.375 16.875  C 17.5125 16.875  17.625 16.7625  17.625 16.625  L 17.625 15.125  Z " fill-rule="nonzero" fill="#ffffff" stroke="none" transform="matrix(1 0 0 1 16 2702 )" />
  </g>
</svg>