<?xml version="1.0" encoding="utf-8"?>
<svg version="1.1" xmlns:xlink="http://www.w3.org/1999/xlink" width="28px" height="22px" xmlns="http://www.w3.org/2000/svg">
  <g transform="matrix(1 0 0 1 -15 -2497 )">
    <path d="M 25.25 7.25  L 27 7.25  C 27.275 7.25  27.5 7.025  27.5 6.75  L 27.5 1  C 27.5 0.725  27.275 0.5  27 0.5  L 21.25 0.5  C 20.975 0.5  20.75 0.725  20.75 1  L 20.75 3  L 7.25 3  L 7.25 1  C 7.25 0.725  7.025 0.5  6.75 0.5  L 1 0.5  C 0.725 0.5  0.5 0.725  0.5 1  L 0.5 6.75  C 0.5 7.025  0.725 7.25  1 7.25  L 2.75 7.25  L 2.75 14.75  L 1 14.75  C 0.725 14.75  0.5 14.975  0.5 15.25  L 0.5 21  C 0.5 21.275  0.725 21.5  1 21.5  L 6.75 21.5  C 7.025 21.5  7.25 21.275  7.25 21  L 7.25 19  L 20.75 19  L 20.75 21  C 20.75 21.275  20.975 21.5  21.25 21.5  L 27 21.5  C 27.275 21.5  27.5 21.275  27.5 21  L 27.5 15.25  C 27.5 14.975  27.275 14.75  27 14.75  L 25.25 14.75  L 25.25 7.25  Z M 22.75 5.25  L 22.75 2.5  L 25.5 2.5  L 25.5 5.25  L 22.75 5.25  Z M 5.25 5.25  L 2.5 5.25  L 2.5 2.5  L 5.25 2.5  L 5.25 5.25  Z M 5.25 16.75  L 5.25 19.5  L 2.5 19.5  L 2.5 16.75  L 5.25 16.75  Z M 22.75 16.75  L 25.5 16.75  L 25.5 19.5  L 22.75 19.5  L 22.75 16.75  Z M 23 7.25  L 23 14.75  L 21.25 14.75  C 20.975 14.75  20.75 14.975  20.75 15.25  L 20.75 17  L 7.25 17  L 7.25 15.25  C 7.25 14.975  7.025 14.75  6.75 14.75  L 5 14.75  L 5 7.25  L 6.75 7.25  C 7.025 7.25  7.25 7.025  7.25 6.75  L 7.25 5  L 20.75 5  L 20.75 6.75  C 20.75 7.025  20.975 7.25  21.25 7.25  L 23 7.25  Z " fill-rule="nonzero" fill="#000000" stroke="none" transform="matrix(1 0 0 1 15 2497 )" />
  </g>
</svg>