<?xml version="1.0" encoding="utf-8"?>
<svg version="1.1" xmlns:xlink="http://www.w3.org/1999/xlink" width="30px" height="28px" xmlns="http://www.w3.org/2000/svg">
  <g transform="matrix(1 0 0 1 -14 -2426 )">
    <path d="M 29.165625 15.19375  C 29.165625 14.6625  28.95625 14.159375  28.578125 13.78125  L 16.503125 1.7125  L 15.69375 0.903125  C 15.309375 0.521875  14.690625 0.521875  14.30625 0.903125  L 1.421875 13.78125  C 1.0375 14.165625  0.83125 14.675  0.834375 15.21875  C 0.846875 16.31875  1.7625 17.196875  2.8625 17.196875  L 4.190625 17.196875  L 4.190625 27  L 25.809375 27  L 25.809375 17.196875  L 27.165625 17.196875  C 27.7 17.196875  28.203125 16.9875  28.58125 16.609375  C 28.959375 16.23125  29.165625 15.728125  29.165625 15.19375  Z M 16.75 18.75  L 16.75 25.125  L 13.25 25.125  L 13.25 18.75  L 16.75 18.75  Z M 26.5625 14.946875  L 23 14.946875  L 23 25.125  L 18.75 25.125  L 18.75 18  C 18.75 17.309375  18.190625 16.75  17.5 16.75  L 12.5 16.75  C 11.809375 16.75  11.25 17.309375  11.25 18  L 11.25 25.125  L 7 25.125  L 7 14.946875  L 3.440625 14.946875  L 15.003125 3.39375  L 15.725 4.115625  L 26.5625 14.946875  Z " fill-rule="nonzero" fill="#ffffff" stroke="none" transform="matrix(1 0 0 1 14 2426 )" />
  </g>
</svg>