<?xml version="1.0" encoding="utf-8"?>
<svg version="1.1" xmlns:xlink="http://www.w3.org/1999/xlink" width="22px" height="28px" xmlns="http://www.w3.org/2000/svg">
  <g transform="matrix(1 0 0 1 -18 -2357 )">
    <path d="M 22 21.003125  L 22 21  C 22 17.5125  19.95625 14.5  17 13.096875  L 17 7.915625  C 17 7.44375  16.834375 6.9875  16.528125 6.628125  L 11.765625 0.98125  C 11.565625 0.74375  11.28125 0.625  11 0.625  C 10.71875 0.625  10.434375 0.74375  10.234375 0.98125  L 5.471875 6.628125  C 5.16875 6.9875  5 7.44375  5 7.915625  L 5 13.096875  C 2.04375 14.5  0 17.5125  0 21  L 4.890625 21  C 4.81875 21.225  4.78125 21.46875  4.78125 21.74375  C 4.78125 22.434375  5.01875 23.109375  5.45 23.64375  C 5.803125 24.08125  6.26875 24.4125  6.796875 24.6  C 7.51875 26.2875  9.159375 27.375  11 27.375  C 11.909375 27.375  12.790625 27.10625  13.54375 26.6  C 14.28125 26.10625  14.853125 25.415625  15.2 24.6  C 15.728125 24.4125  16.19375 24.084375  16.546875 23.646875  C 16.978125 23.109375  17.215625 22.434375  17.215625 21.746875  C 17.215625 21.484375  17.18125 21.234375  17.11875 21.003125  L 22 21.003125  Z M 16.875 15.459375  C 17.65 15.965625  18.315625 16.63125  18.821875 17.41875  C 19.115625 17.875  19.353125 18.365625  19.525 18.875  L 16.875 18.875  L 16.875 15.459375  Z M 7.125 18.875  L 7.125 13.096875  L 7.125 7.9625  L 11 3.36875  L 14.875 7.9625  L 14.875 18.875  L 7.125 18.875  Z M 5.125 18.875  L 2.475 18.875  C 2.646875 18.365625  2.884375 17.875  3.178125 17.41875  C 3.6875 16.63125  4.35 15.965625  5.125 15.459375  L 5.125 18.875  Z M 15.071875 21.740625  C 15.06875 22.059375  14.9 22.353125  14.628125 22.50625  C 14.465625 22.6  14.278125 22.6375  14.09375 22.6125  L 13.484375 22.5375  L 13.396875 23.14375  C 13.228125 24.328125  12.196875 25.221875  11 25.221875  C 9.803125 25.221875  8.771875 24.328125  8.603125 23.14375  L 8.515625 22.534375  L 7.90625 22.6125  C 7.875 22.615625  7.840625 22.61875  7.803125 22.61875  C 7.65 22.61875  7.503125 22.578125  7.371875 22.503125  C 7.1 22.346875  6.93125 22.05625  6.93125 21.740625  C 6.93125 21.409375  7.115625 21.134375  7.3875 20.996875  L 14.615625 20.996875  C 14.890625 21.1375  15.071875 21.4125  15.071875 21.740625  Z M 9.5 10.5  C 9.5 11.3284271247462  10.1715728752538 12  11 12  C 11.8284271247462 12  12.5 11.3284271247462  12.5 10.5  C 12.5 9.67157287525381  11.8284271247462 9  11 9  C 10.1715728752538 9  9.5 9.67157287525381  9.5 10.5  Z " fill-rule="nonzero" fill="#000000" stroke="none" transform="matrix(1 0 0 1 18 2357 )" />
  </g>
</svg>