<?xml version="1.0" encoding="utf-8"?>
<svg version="1.1" xmlns:xlink="http://www.w3.org/1999/xlink" width="26px" height="22px" xmlns="http://www.w3.org/2000/svg">
  <g transform="matrix(1 0 0 1 -16 -2292 )">
    <path d="M 25 6.5  C 25.5 5.946875  25.034375 5.5  24.459375 5.5  L 1.540625 5.5  C 0.965625 5.5  0.5 5.946875  1 6.5  L 1 21  C 0.5 21.553125  0.965625000000001 22  1.540625 22  L 24.45625 22  C 25.03125 22  25.496875 21.553125  25 21  L 25 6.5  Z M 8.25 14.75  L 8.25 19.75  L 2.75 19.75  L 2.75 14.75  L 8.25 14.75  Z M 8.25 7.75  L 8.25 12.75  L 2.75 12.75  L 2.75 7.75  L 8.25 7.75  Z M 15.75 14.75  L 15.75 19.75  L 10.25 19.75  L 10.25 14.75  L 15.75 14.75  Z M 15.75 7.75  L 15.75 12.75  L 10.25 12.75  L 10.25 7.75  L 15.75 7.75  Z M 23.25 14.75  L 23.25 19.75  L 17.75 19.75  L 17.75 14.75  L 23.25 14.75  Z M 23.25 7.75  L 23.25 12.75  L 17.75 12.75  L 17.75 7.75  L 23.25 7.75  Z M 25.5 0.25  C 25.5 0.1125  25.3875 0  25.25 0  L 0.75 0  C 0.6125 0  0.5 0.1125  0.5 0.25  L 0.5 2.75  C 0.5 2.8875  0.6125 3  0.75 3  L 25.25 3  C 25.3875 3  25.5 2.8875  25.5 2.75  L 25.5 0.25  Z " fill-rule="nonzero" fill="#ffffff" stroke="none" transform="matrix(1 0 0 1 16 2292 )" />
  </g>
</svg>