<?xml version="1.0" encoding="utf-8"?>
<svg version="1.1" xmlns:xlink="http://www.w3.org/1999/xlink" width="26px" height="26px" xmlns="http://www.w3.org/2000/svg">
  <g transform="matrix(1 0 0 1 -203 -2016 )">
    <path d="M 25.5 25.24375  C 25.4375 22.8375  24.46875 20.58125  22.75625 18.871875  C 21.9625 18.078125  21.046875 17.44375  20.05625 16.984375  C 21.471875 15.8375  22.375 14.0875  22.375 12.125  C 22.375 8.6625  19.4875 5.821875  16.025 5.875  C 12.615625 5.928125  9.86875 8.70625  9.86875 12.125  C 9.86875 14.0875  10.775 15.8375  12.1875 16.984375  C 11.196875 17.44375  10.284375 18.075  9.4875 18.871875  C 7.78125 20.58125  6.8125 22.8375  6.75 25.24375  C 6.746875 25.384375  6.859375 25.5  7 25.5  L 8.75 25.5  C 8.884375 25.5  8.996875 25.39375  9 25.259375  C 9.059375 23.446875  9.79375 21.75  11.084375 20.4625  C 12.43125 19.115625  14.221875 18.375  16.125 18.375  C 18.028125 18.375  19.81875 19.115625  21.165625 20.4625  C 22.453125 21.75  23.1875 23.446875  23.25 25.259375  C 23.253125 25.39375  23.365625 25.5  23.5 25.5  L 25.25 25.5  C 25.390625 25.5  25.503125 25.384375  25.5 25.24375  Z M 18.95625 14.953125  C 18.2 15.709375  17.19375 16.125  16.125 16.125  C 15.05625 16.125  14.05 15.709375  13.296875 14.953125  C 12.53125 14.1875  12.1125 13.16875  12.125 12.084375  C 12.134375 11.059375  12.54375 10.06875  13.259375 9.334375  C 14.009375 8.565625  15.0125 8.1375  16.084375 8.125  C 17.14375 8.115625  18.171875 8.528125  18.928125 9.26875  C 19.703125 10.028125  20.128125 11.04375  20.128125 12.125  C 20.128125 13.19375  19.7125 14.196875  18.95625 14.953125  Z M 8.109375 13.221875  C 8.23125 13.190625  8.3125 13.075  8.296875 12.95  C 8.26875 12.678125  8.253125 12.403125  8.253125 12.125  C 8.253125 11.628125  8.3 11.14375  8.3875 10.671875  C 8.409375 10.559375  8.35 10.44375  8.246875 10.396875  C 7.821875 10.20625  7.43125 9.94375  7.09375 9.6125  C 6.2875 8.825  5.853125 7.759375  5.884375 6.63125  C 5.9125 5.628125  6.315625 4.675  7.01875 3.95625  C 7.790625 3.165625  8.828125 2.734375  9.93125 2.746875  C 10.928125 2.75625  11.890625 3.140625  12.61875 3.821875  C 12.865625 4.053125  13.078125 4.309375  13.25625 4.584375  C 13.31875 4.68125  13.440625 4.721875  13.546875 4.684375  C 14.096875 4.49375  14.678125 4.359375  15.275 4.296875  C 15.45 4.278125  15.55 4.090625  15.471875 3.934375  C 14.45625 1.925  12.38125 0.537499999999997  9.98125 0.499999999999997  C 6.515625 0.446874999999997  3.628125 3.2875  3.628125 6.746875  C 3.628125 8.709375  4.53125 10.459375  5.946875 11.60625  C 4.953125 12.065625  4.0375 12.7  3.24375 13.49375  C 1.53125 15.203125  0.562499999999997 17.459375  0.499999999999997 19.86875  C 0.496874999999997 20.009375  0.609374999999997 20.125  0.749999999999997 20.125  L 2.503125 20.125  C 2.6375 20.125  2.75 20.01875  2.753125 19.884375  C 2.8125 18.071875  3.546875 16.375  4.8375 15.0875  C 5.75625 14.16875  6.88125 13.53125  8.109375 13.221875  Z " fill-rule="nonzero" fill="#000000" stroke="none" transform="matrix(1 0 0 1 203 2016 )" />
  </g>
</svg>