<?xml version="1.0" encoding="utf-8"?>
<svg version="1.1" xmlns:xlink="http://www.w3.org/1999/xlink" width="24px" height="28px" xmlns="http://www.w3.org/2000/svg">
  <g transform="matrix(1 0 0 1 -204 -1538 )">
    <path d="M 2.03125 15.59375  L 2.03125 22.875  C 2.03125 23.428125  2.478125 23.875  3.03125 23.875  L 20.96875 23.875  C 21.521875 23.875  21.96875 23.428125  21.96875 22.875  L 21.96875 15.59375  C 21.96875 10.0875  17.50625 5.625  12 5.625  C 6.49375 5.625  2.03125 10.0875  2.03125 15.59375  Z M 4.28125 21.625  L 4.28125 15.59375  C 4.28125 11.33125  7.7375 7.875  12 7.875  C 16.2625 7.875  19.71875 11.33125  19.71875 15.59375  L 19.71875 21.625  L 8.625 21.625  L 8.625 16.28125  C 8.625 16.109375  8.484375 15.96875  8.3125 15.96875  L 6.9375 15.96875  C 6.765625 15.96875  6.625 16.109375  6.625 16.28125  L 6.625 21.625  L 4.28125 21.625  Z M 2.425 7.703125  C 2.521875 7.8  2.678125 7.8  2.778125 7.703125  L 4.015625 6.465625  C 4.1125 6.36875  4.1125 6.209375  4.015625 6.1125  L 1.89375 3.990625  C 1.796875 3.89375  1.6375 3.89375  1.540625 3.990625  L 0.303125 5.228125  C 0.20625 5.325  0.20625 5.484375  0.303125 5.58125  L 2.425 7.703125  Z M 23.703125 5.58125  C 23.8 5.48125  23.8 5.325  23.703125 5.228125  L 22.465625 3.990625  C 22.36875 3.89375  22.209375 3.89375  22.1125 3.990625  L 19.990625 6.1125  C 19.89375 6.209375  19.89375 6.36875  19.990625 6.465625  L 21.228125 7.703125  C 21.325 7.8  21.484375 7.8  21.58125 7.703125  L 23.703125 5.58125  Z M 23 26.875  C 23 26.321875  22.553125 25.875  22 25.875  L 2 25.875  C 1.446875 25.875  1 26.321875  1 26.875  L 1 27.625  C 1 27.7625  1.1125 27.875  1.25 27.875  L 22.75 27.875  C 22.8875 27.875  23 27.7625  23 27.625  L 23 26.875  Z M 10.875 3.375  C 10.875 3.5125  10.9875 3.625  11.125 3.625  L 12.875 3.625  C 13.0125 3.625  13.125 3.5125  13.125 3.375  L 13.125 0.375  C 13.125 0.2375  13.0125 0.125  12.875 0.125  L 11.125 0.125  C 10.9875 0.125  10.875 0.2375  10.875 0.375  L 10.875 3.375  Z " fill-rule="nonzero" fill="#ffffff" stroke="none" transform="matrix(1 0 0 1 204 1538 )" />
  </g>
</svg>