<?xml version="1.0" encoding="utf-8"?>
<svg version="1.1" xmlns:xlink="http://www.w3.org/1999/xlink" width="26px" height="26px" xmlns="http://www.w3.org/2000/svg">
  <g transform="matrix(1 0 0 1 -203 -1676 )">
    <path d="M 25 3.75  C 25.5 3.196875  25.053125 2.75  24.5 2.75  L 19.25 2.75  L 19.25 0.75  C 19.25 0.6125  19.1375 0.5  19 0.5  L 17.25 0.5  C 17.1125 0.5  17 0.6125  17 0.75  L 17 2.75  L 9 2.75  L 9 0.75  C 9 0.6125  8.8875 0.5  8.75 0.5  L 7 0.5  C 6.8625 0.5  6.75 0.6125  6.75 0.75  L 6.75 2.75  L 1.5 2.75  C 0.946875 2.75  0.5 3.196875  1 3.75  L 1 24.5  C 0.5 25.053125  0.946875 25.5  1.5 25  L 24.5 25  C 25.053125 25.5  25.5 25.053125  25 24.5  L 25 3.75  Z M 23 5  L 23 23  L 3 23  L 3 5  L 6.75 5  L 6.75 6.5  C 6.75 6.6375  6.8625 6.75  7 6.75  L 8.75 6.75  C 8.8875 6.75  9 6.6375  9 6.5  L 9 5  L 17 5  L 17 6.5  C 17 6.6375  17.1125 6.75  17.25 6.75  L 19 6.75  C 19.1375 6.75  19.25 6.6375  19.25 6.5  L 19.25 5  L 23 5  Z M 18.703125 10.525  C 18.821875 10.35625  18.703125 10.125  18.5 10.125  L 16.775 10.125  C 16.615625 10.125  16.4625 10.203125  16.36875 10.33125  L 11.653125 16.825  L 9.63125 14.04375  C 9.5375 13.915625  9.3875 13.8375  9.225 13.8375  L 7.5 13.8375  C 7.296875 13.8375  7.178125 14.06875  7.296875 14.234375  L 11.246875 19.671875  C 11.446875 19.946875  11.859375 19.946875  12.059375 19.671875  L 18.703125 10.525  Z " fill-rule="nonzero" fill="#ffffff" stroke="none" transform="matrix(1 0 0 1 203 1676 )" />
  </g>
</svg>