<?xml version="1.0" encoding="utf-8"?>
<svg version="1.1" xmlns:xlink="http://www.w3.org/1999/xlink" width="22px" height="28px" xmlns="http://www.w3.org/2000/svg">
  <g transform="matrix(1 0 0 1 -205 -1811 )">
    <path d="M 22 1  C 22 0.446875  21.553125 0  21 0  L 1 0  C 0.446875 0  0 0.446875  0 1  L 0 27  C 0 27.553125  0.446875 28  1 28  L 21 28  C 21.553125 28  22 27.553125  22 27  L 22 1  Z M 2.25 9  L 2.25 2.25  L 19.75 2.25  L 19.75 9  L 2.25 9  Z M 19.75 11  L 19.75 17  L 2.25 17  L 2.25 11  L 19.75 11  Z M 19.75 19  L 19.75 25.75  L 2.25 25.75  L 2.25 19  L 19.75 19  Z M 4.5 5.5  C 4.5 6.19035593728849  5.05964406271151 6.75  5.75 6.75  C 6.44035593728849 6.75  7 6.19035593728849  7 5.5  C 7 4.80964406271151  6.44035593728849 4.25  5.75 4.25  C 5.05964406271151 4.25  4.5 4.80964406271151  4.5 5.5  Z M 4.5 14  C 4.5 14.6903559372885  5.05964406271151 15.25  5.75 15.25  C 6.44035593728849 15.25  7 14.6903559372885  7 14  C 7 13.3096440627115  6.44035593728849 12.75  5.75 12.75  C 5.05964406271151 12.75  4.5 13.3096440627115  4.5 14  Z M 4.5 22.5  C 4.5 23.1903559372885  5.05964406271151 23.75  5.75 23.75  C 6.44035593728849 23.75  7 23.1903559372885  7 22.5  C 7 21.8096440627115  6.44035593728849 21.25  5.75 21.25  C 5.05964406271151 21.25  4.5 21.8096440627115  4.5 22.5  Z " fill-rule="nonzero" fill="#000000" stroke="none" transform="matrix(1 0 0 1 205 1811 )" />
  </g>
</svg>