<?xml version="1.0" encoding="utf-8"?>
<svg version="1.1" xmlns:xlink="http://www.w3.org/1999/xlink" width="28px" height="28px" xmlns="http://www.w3.org/2000/svg">
  <g transform="matrix(1 0 0 1 -109 -351 )">
    <path d="M 28 14  C 28 6.26875  21.73125 0  14 0  C 6.26875 0  0 6.26875  0 14  C 0 21.73125  6.26875 28  14 28  C 21.73125 28  28 21.73125  28 14  Z M 25.625 14  C 25.625 20.41875  20.41875 25.625  14 25.625  C 7.58125 25.625  2.375 20.41875  2.375 14  C 2.375 7.58125  7.58125 2.375  14 2.375  C 20.41875 2.375  25.625 7.58125  25.625 14  Z M 20.48125 14.403125  C 20.75625 14.203125  20.75625 13.796875  20.48125 13.596875  L 11.228125 6.878125  C 10.896875 6.6375  10.4375 6.871875  10.4375 7.28125  L 10.4375 20.71875  C 10.4375 21.128125  10.9 21.359375  11.228125 21.121875  L 20.48125 14.403125  Z M 17.640625 14  L 12.43125 17.784375  L 12.43125 10.215625  L 17.640625 14  Z " fill-rule="nonzero" fill="#ffffff" stroke="none" transform="matrix(1 0 0 1 109 351 )" />
  </g>
</svg>