<?xml version="1.0" encoding="utf-8"?>
<svg version="1.1" xmlns:xlink="http://www.w3.org/1999/xlink" width="22px" height="4px" xmlns="http://www.w3.org/2000/svg">
  <g transform="matrix(1 0 0 1 -205 -1891 )">
    <path d="M 0.499999999999999 1.96875003687849  C 0.499999999999999 2.93524834908238  1.28350168779611 3.71875003687849  2.25 3.71875003687849  C 3.21649831220389 3.71875003687849  4 2.93524834908238  4 1.96875003687849  C 4 1.00225165091762  3.21649831220389 0.218749963121509  2.25 0.218749963121509  C 1.28350168779611 0.218749963121509  0.499999999999999 1.00225165091762  0.499999999999999 1.96874996312151  Z M 9.25 1.96875  C 9.25 2.93524831220389  10.0335016877961 3.71875  11 3.71875  C 11.9664983122039 3.71875  12.75 2.93524831220389  12.75 1.96875  C 12.75 1.00225168779611  11.9664983122039 0.21875  11 0.21875  C 10.0335016877961 0.21875  9.25 1.00225168779611  9.25 1.96875  Z M 18 1.96875  C 18 2.93524831220389  18.7835016877961 3.71875  19.75 3.71875  C 20.7164983122039 3.71875  21.5 2.93524831220389  21.5 1.96875  C 21.5 1.00225168779611  20.7164983122039 0.21875  19.75 0.21875  C 18.7835016877961 0.21875  18 1.00225168779611  18 1.96875  Z " fill-rule="nonzero" fill="#ffffff" stroke="none" transform="matrix(1 0 0 1 205 1891 )" />
  </g>
</svg>