<?xml version="1.0" encoding="utf-8"?>
<svg version="1.1" xmlns:xlink="http://www.w3.org/1999/xlink" width="22px" height="26px" xmlns="http://www.w3.org/2000/svg">
  <g transform="matrix(1 0 0 1 -205 -2634 )">
    <path d="M 18.01875 25.3125  C 20.309375 24.659375  21.746875 22.39375  21.359375 20.04375  C 20.971875 17.69375  18.884375 16.009375  16.50625 16.125  C 14.128125 16.240625  12.215625 18.125  12.0625 20.5  C 7.265625 20.35  5.5625 19.228125  5.840625 16.946875  C 5.94375 16.09375  6.459375 15.6375  7.40625 15.415625  C 7.98125 15.28125  8.61875 15.2625  9.196875 15.315625  C 9.25 15.321875  9.30625 15.325  9.359375 15.33125  C 9.7125 15.415625  10.071875 15.4875  10.43125 15.54375  C 11.496875 15.71875  12.58125 15.80625  13.6125 15.75  C 16.5125 15.59375  18.4875 14.315625  18.5875 11.603125  C 18.684375 8.975  16.878125 7.1125  13.965625 5.865625  C 13.03125 5.465625  12.040625 5.15625  11.05 4.921875  C 10.603125 4.815625  10.228125 4.74375  9.95 4.696875  C 9.703125 2.325  7.715625 0.515624999999998  5.33125 0.496874999999998  C 2.946875 0.478124999999999  0.928125000000001 2.25  0.640625000000001 4.61875  C 0.353125000000001 6.9875  1.890625 9.190625  4.209375 9.740625  C 6.528125 10.290625  8.89375 9.0125  9.7 6.76875  C 9.99375 6.821875  10.284375 6.88125  10.575 6.95  C 11.45625 7.15625  12.3375 7.43125  13.15 7.78125  C 15.359375 8.725  16.565625 9.971875  16.509375 11.528125  C 16.459375 12.921875  15.459375 13.565625  13.503125 13.671875  C 12.64375 13.71875  11.703125 13.64375  10.775 13.490625  C 10.515625 13.446875  10.278125 13.403125  10.06875 13.35625  C 9.946875 13.33125  9.8625 13.309375  9.825 13.3  L 9.728125 13.28125  C 9.659375 13.271875  9.54375 13.25625  9.39375 13.240625  C 8.6125 13.16875  7.765625 13.19375  6.940625 13.384375  C 5.215625 13.7875  4.00625 14.859375  3.78125 16.690625  C 3.290625 20.634375  6.2375 22.4625  12.40625 22.59375  C 13.315625 24.79375  15.73125 25.965625  18.01875 25.3125  Z M 7.8875 5.184375  C 7.8875 6.621875  6.721875 7.7875  5.284375 7.7875  C 3.846875 7.7875  2.68125 6.621875  2.68125 5.184375  C 2.68125 3.746875  3.846875 2.58125  5.284375 2.58125  C 6.721875 2.58125  7.8875 3.746875  7.8875 5.184375  Z M 19.340625 20.803125  C 19.340625 22.240625  18.175 23.40625  16.7375 23.40625  C 15.3 23.40625  14.134375 22.240625  14.134375 20.803125  C 14.134375 19.365625  15.3 18.2  16.7375 18.2  C 18.175 18.2  19.340625 19.365625  19.340625 20.803125  Z " fill-rule="nonzero" fill="#ffffff" stroke="none" transform="matrix(1 0 0 1 205 2634 )" />
  </g>
</svg>