<?xml version="1.0" encoding="utf-8"?>
<svg version="1.1" xmlns:xlink="http://www.w3.org/1999/xlink" width="28px" height="28px" xmlns="http://www.w3.org/2000/svg">
  <g transform="matrix(1 0 0 1 -202 -2494 )">
    <path d="M 8.125 18.8125  C 8.125 19.6409271247462  8.79657287525381 20.3125  9.625 20.3125  C 10.4534271247462 20.3125  11.125 19.6409271247462  11.125 18.8125  C 11.125 17.9840728752538  10.4534271247462 17.3125  9.625 17.3125  C 8.79657287525381 17.3125  8.125 17.9840728752538  8.125 18.8125  Z M 27.4 12.046875  C 28.2 11.24375  28.2 9.9375  27.396875 9.1375  L 18.8625 0.6  C 18.475 0.215625  17.959375 0  17.409375 0  C 16.859375 0  16.34375 0.2125  15.95625 0.6  L 0.603125 15.953125  C -0.2 16.75625  -0.2 18.059375  0.603125 18.8625  L 9.140625 27.4  C 9.525 27.784375  10.04375 28  10.59375 28  C 11.14375 28  11.659375 27.7875  12.046875 27.4  L 27.4 12.046875  Z M 25.503125 10.59375  L 10.59375 25.503125  L 2.496875 17.40625  L 17.409375 2.49375  L 25.503125 10.59375  Z M 1.571875 8.471875  L 2.775 9.678125  C 2.871875 9.775  3.028125 9.775  3.125 9.678125  L 9.678125 3.125  C 9.775 3.028125  9.775 2.871875  9.678125 2.775  L 8.478125 1.575  C 8.38125 1.478125  8.225 1.478125  8.128125 1.575  L 1.571875 8.121875  C 1.475 8.21875  1.475 8.375  1.571875 8.471875  Z M 26.428125 19.525  L 25.23125 18.321875  C 25.134375 18.225  24.978125 18.225  24.88125 18.321875  L 18.321875 24.878125  C 18.225 24.975  18.225 25.13125  18.321875 25.228125  L 19.521875 26.428125  C 19.61875 26.525  19.775 26.525  19.871875 26.428125  L 26.428125 19.875  C 26.525 19.778125  26.525 19.621875  26.428125 19.525  Z " fill-rule="nonzero" fill="#ffffff" stroke="none" transform="matrix(1 0 0 1 202 2494 )" />
  </g>
</svg>