<?xml version="1.0" encoding="utf-8"?>
<svg version="1.1" xmlns:xlink="http://www.w3.org/1999/xlink" width="22px" height="28px" xmlns="http://www.w3.org/2000/svg">
  <g transform="matrix(1 0 0 1 -205 -1947 )">
    <path d="M 22 7.728125  C 22 7.4625  21.89375 7.20625  21.70625 7.01875  L 14.98125 0.29375  C 14.79375 0.10625  14.540625 0  14.275 0  L 1 0  C 0.446875 0  0 0.446875  0 1  L 0 27  C 0 27.553125  0.446875 28  1 28  L 21 28  C 21.553125 28  22 27.553125  22 27  L 22 7.728125  Z M 13.8125 2.30625  L 19.69375 8.1875  L 13.8125 8.1875  L 13.8125 2.30625  Z M 19.75 10.3125  L 19.75 25.75  L 2.25 25.75  L 2.25 2.25  L 11.6875 2.25  L 11.6875 9  C 11.6875 9.725  12.275 10.3125  13 10.3125  L 19.75 10.3125  Z M 9.75 21.25  C 9.75 21.9403559372885  10.3096440627115 22.5  11 22.5  C 11.6903559372885 22.5  12.25 21.9403559372885  12.25 21.25  C 12.25 20.5596440627115  11.6903559372885 20  11 20  C 10.3096440627115 20  9.75 20.5596440627115  9.75 21.25  Z M 10 17.75  C 10 17.8875  10.1125 18  10.25 18  L 11.75 18  C 11.8875 18  12 17.8875  12 17.75  L 12 12  C 12 11.8625  11.8875 11.75  11.75 11.75  L 10.25 11.75  C 10.1125 11.75  10 11.8625  10 12  L 10 17.75  Z " fill-rule="nonzero" fill="#ffffff" stroke="none" transform="matrix(1 0 0 1 205 1947 )" />
  </g>
</svg>