<?xml version="1.0" encoding="utf-8"?>
<svg version="1.1" xmlns:xlink="http://www.w3.org/1999/xlink" width="26px" height="26px" xmlns="http://www.w3.org/2000/svg">
  <g transform="matrix(1 0 0 1 -203 -2427 )">
    <path d="M 25.25 1.6875  C 25.25 1.171875  24.828125 0.75  24.3125 0.75  L 16.4375 0.75  C 16.334375 0.75  16.25 0.834375  16.25 0.9375  L 16.25 2.6875  C 16.25 2.790625  16.334375 2.875  16.4375 2.875  L 21.45 2.875  L 15.221875 9.103125  C 13.659375 7.9  11.753125 7.25  9.75 7.25  C 7.346875 7.25  5.084375 8.1875  3.3875 9.8875  C 1.690625 11.5875  0.75 13.846875  0.75 16.25  C 0.75 18.653125  1.6875 20.915625  3.3875 22.6125  C 5.084375 24.3125  7.346875 25.25  9.75 25.25  C 12.153125 25.25  14.415625 24.3125  16.1125 22.6125  C 17.8125 20.915625  18.75 18.653125  18.75 16.25  C 18.75 14.246875  18.1 12.346875  16.9 10.784375  L 23.125 4.559375  L 23.125 9.5625  C 23.125 9.665625  23.209375 9.75  23.3125 9.75  L 25.0625 9.75  C 25.165625 9.75  25.25 9.665625  25.25 9.5625  L 25.25 1.6875  Z M 16.375 16.25  C 16.375 19.903125  13.403125 22.875  9.75 22.875  C 6.096875 22.875  3.125 19.903125  3.125 16.25  C 3.125 12.596875  6.096875 9.625  9.75 9.625  C 13.403125 9.625  16.375 12.596875  16.375 16.25  Z " fill-rule="nonzero" fill="#000000" stroke="none" transform="matrix(1 0 0 1 203 2427 )" />
  </g>
</svg>