<?xml version="1.0" encoding="utf-8"?>
<svg version="1.1" xmlns:xlink="http://www.w3.org/1999/xlink" width="22px" height="22px" xmlns="http://www.w3.org/2000/svg">
  <g transform="matrix(1 0 0 1 -112 -288 )">
    <path d="M 21.996875 0.28125  C 22.01875 0.11875  21.88125 -0.0187499999999998  21.71875 0.00312499999999982  L 15.80625 0.7375  C 15.6 0.7625  15.515625 1.0125  15.659375 1.159375  L 17.36875 2.86875  L 12.571875 7.665625  C 12.475 7.7625  12.475 7.921875  12.571875 8.01875  L 13.98125 9.428125  C 14.078125 9.525  14.2375 9.525  14.334375 9.428125  L 19.134375 4.628125  L 20.84375 6.3375  C 20.990625 6.484375  21.240625 6.396875  21.265625 6.190625  L 21.996875 0.28125  Z M 9.43125 13.978125  L 8.01875 12.571875  C 7.921875 12.475  7.7625 12.475  7.665625 12.571875  L 2.86875 17.371875  L 1.159375 15.6625  C 1.0125 15.515625  0.762500000000001 15.603125  0.737500000000001 15.809375  L 0.00312499999999982 21.71875  C -0.015625 21.88125  0.118749999999999 22.015625  0.28125 21.996875  L 6.19375 21.2625  C 6.4 21.2375  6.484375 20.9875  6.340625 20.840625  L 4.63125 19.13125  L 9.43125 14.33125  C 9.528125 14.234375  9.528125 14.075  9.43125 13.978125  Z " fill-rule="nonzero" fill="#ffffff" stroke="none" transform="matrix(1 0 0 1 112 288 )" />
  </g>
</svg>