<?xml version="1.0" encoding="utf-8"?>
<svg version="1.1" xmlns:xlink="http://www.w3.org/1999/xlink" width="28px" height="28px" xmlns="http://www.w3.org/2000/svg">
  <g transform="matrix(1 0 0 1 -202 -2564 )">
    <path d="M 21.5 15.6875  C 21.5 15.4125  21.275 15.1875  21 15  L 7 15  C 6.725 15.1875  6.5 15.4125  6.5 15.6875  L 6.5 21.1875  C 6.5 21.4625  6.725 21.6875  7 21.6875  L 21 21.6875  C 21.275 21.6875  21.5 21.4625  21.5 21.1875  L 21.5 15.6875  Z M 19.25 17  L 19.25 19  L 8.75 19  L 8.75 17  L 19.25 17  Z M 28 25.75  C 28 24.50625  26.99375 23.5  25.75 23.5  C 24.50625 23.5  23.5 24.50625  23.5 25.75  C 23.5 26.99375  24.50625 28  25.75 28  C 26.99375 28  28 26.99375  28 25.75  Z M 26.5 25.75  C 26.5 26.165625  26.165625 26.5  25.75 26.5  C 25.334375 26.5  25 26.165625  25 25.75  C 25 25.334375  25.334375 25  25.75 25  C 26.165625 25  26.5 25.334375  26.5 25.75  Z M 21.5 6.8125  C 21.5 6.5375  21.275 6.3125  21 6.3125  L 7 6.3125  C 6.725 6.3125  6.5 6.5375  6.5 6.8125  L 6.5 12.3125  C 6.5 12.5875  6.725 12.8125  7 13  L 21 13  C 21.275 12.8125  21.5 12.5875  21.5 12.3125  L 21.5 6.8125  Z M 19.25 9  L 19.25 11  L 8.75 11  L 8.75 9  L 19.25 9  Z M 23.5 2.25  C 23.5 3.49375  24.50625 4.5  25.75 4.5  C 26.99375 4.5  28 3.49375  28 2.25  C 28 1.00625  26.99375 0  25.75 0  C 24.50625 0  23.5 1.00625  23.5 2.25  Z M 25 2.25  C 25 1.834375  25.334375 1.5  25.75 1.5  C 26.165625 1.5  26.5 1.834375  26.5 2.25  C 26.5 2.665625  26.165625 3  25.75 3  C 25.334375 3  25 2.665625  25 2.25  Z M 4.5 2.25  C 4.5 1.00625  3.49375 0  2.25 0  C 1.00625 0  0 1.00625  0 2.25  C 0 3.49375  1.00625 4.5  2.25 4.5  C 3.49375 4.5  4.5 3.49375  4.5 2.25  Z M 3 2.25  C 3 2.665625  2.665625 3  2.25 3  C 1.834375 3  1.5 2.665625  1.5 2.25  C 1.5 1.834375  1.834375 1.5  2.25 1.5  C 2.665625 1.5  3 1.834375  3 2.25  Z M 4.5 25.75  C 4.5 24.50625  3.49375 23.5  2.25 23.5  C 1.00625 23.5  0 24.50625  0 25.75  C 0 26.99375  1.00625 28  2.25 28  C 3.49375 28  4.5 26.99375  4.5 25.75  Z M 3 25.75  C 3 26.165625  2.665625 26.5  2.25 26.5  C 1.834375 26.5  1.5 26.165625  1.5 25.75  C 1.5 25.334375  1.834375 25  2.25 25  C 2.665625 25  3 25.334375  3 25.75  Z " fill-rule="nonzero" fill="#ffffff" stroke="none" transform="matrix(1 0 0 1 202 2564 )" />
  </g>
</svg>