<?xml version="1.0" encoding="utf-8"?>
<svg version="1.1" xmlns:xlink="http://www.w3.org/1999/xlink" width="28px" height="28px" xmlns="http://www.w3.org/2000/svg">
  <g transform="matrix(1 0 0 1 -386 -2221 )">
    <path d="M 27.5 13.9875  C 27.5 8.7  24.46875 4.121875  20.05 1.903125  C 19.884375 1.81875  19.6875 1.940625  19.6875 2.128125  L 19.6875 4.134375  C 19.6875 4.30625  19.778125 4.465625  19.921875 4.559375  C 20.621875 5  21.271875 5.51875  21.865625 6.115625  C 22.8875 7.140625  23.690625 8.33125  24.25 9.65625  C 24.828125 11.028125  25.121875 12.484375  25.121875 13.990625  C 25.121875 15.49375  24.828125 16.953125  24.25 18.325  C 23.690625 19.65  22.8875 20.840625  21.865625 21.865625  C 20.84375 22.890625  19.653125 23.69375  18.328125 24.253125  C 16.959375 24.834375  15.5 25.128125  14 25.128125  C 12.5 25.128125  11.040625 24.834375  9.671875 24.253125  C 8.346875 23.69375  7.15625 22.890625  6.134375 21.865625  C 5.1125 20.840625  4.309375 19.65  3.75 18.325  C 3.171875 16.953125  2.878125 15.496875  2.878125 13.990625  C 2.878125 12.4875  3.171875 11.028125  3.75 9.65625  C 4.309375 8.33125  5.1125 7.140625  6.134375 6.115625  C 6.728125 5.521875  7.378125 5.003125  8.078125 4.559375  C 8.225 4.46875  8.3125 4.30625  8.3125 4.134375  L 8.3125 2.125  C 8.3125 1.9375  8.115625 1.81875  7.95 1.9  C 3.578125 4.1  0.5625 8.603125  0.5 13.821875  C 0.4125 21.284375  6.515625 27.484375  13.975 27.5  C 21.44375 27.515625  27.5 21.459375  27.5 13.9875  Z M 13 15.25  C 12.75 15.3875  12.8625 15.5  13 15.5  L 15 15.5  C 15.1375 15.5  15.25 15.3875  15 15.25  L 15 0.75  C 15.25 0.6125  15.1375 0.5  15 0.5  L 13 0.5  C 12.8625 0.5  12.75 0.6125  13 0.75  L 13 15.25  Z " fill-rule="nonzero" fill="#ffffff" stroke="none" transform="matrix(1 0 0 1 386 2221 )" />
  </g>
</svg>