<?xml version="1.0" encoding="utf-8"?>
<svg version="1.1" xmlns:xlink="http://www.w3.org/1999/xlink" width="26px" height="26px" xmlns="http://www.w3.org/2000/svg">
  <g transform="matrix(1 0 0 1 -387 -1539 )">
    <path d="M 25.678125 2.00625  C 25.775 1.90625  25.775 1.746875  25.678125 1.65  L 24.353125 0.325  C 24.303125 0.275  24.240625 0.253125  24.175 0.253125  C 24.109375 0.253125  24.046875 0.278125  23.996875 0.325  L 21.61875 2.703125  C 20.565625 1.9875  19.340625 1.63125  18.115625 1.63125  C 16.515625 1.63125  14.915625 2.240625  13.69375 3.4625  L 10.509375 6.646875  C 10.4125 6.74375  10.4125 6.903125  10.509375 7  L 19 15.490625  C 19.05 15.540625  19.1125 15.5625  19.178125 15.5625  C 19.240625 15.5625  19.30625 15.5375  19.35625 15.490625  L 22.540625 12.30625  C 24.69375 10.15  24.946875 6.815625  23.3 4.384375  L 25.678125 2.00625  Z M 22.24375 7.884375  C 22.24375 8.9875  21.8125 10.021875  21.034375 10.803125  L 19.178125 12.659375  L 13.340625 6.821875  L 15.196875 4.965625  C 15.975 4.1875  17.0125 3.75625  18.115625 3.75625  C 19.21875 3.75625  20.253125 4.184375  21.034375 4.965625  C 21.8125 5.74375  22.24375 6.78125  22.24375 7.884375  Z M 16.234375 15.215625  L 15.090625 14.084375  C 14.99375 13.9875  14.834375 13.9875  14.7375 14.084375  L 12.65625 16.165625  L 9.834375 13.34375  L 11.91875 11.259375  C 12.015625 11.1625  12.015625 11.003125  11.91875 10.90625  L 10.78125 9.76875  C 10.684375 9.671875  10.525 9.671875  10.428125 9.76875  L 8.34375 11.853125  L 7 10.509375  C 6.95 10.459375  6.8875 10.4375  6.821875 10.4375  C 6.759375 10.4375  6.69375 10.4625  6.64375 10.509375  L 3.4625 13.69375  C 1.309375 15.85  1.05625 19.184375  2.703125 21.615625  L 0.325 23.99375  C 0.228125 24.090625  0.228125 24.25  0.325 24.346875  L 1.65 25.671875  C 1.7 25.721875  1.7625 25.74375  1.828125 25.74375  C 1.89375 25.74375  1.95625 25.71875  2.00625 25.671875  L 4.384375 23.29375  C 5.4375 24.009375  6.6625 24.365625  7.8875 24.365625  C 9.4875 24.365625  11.0875 23.75625  12.309375 22.534375  L 15.49375 19.35  C 15.590625 19.253125  15.590625 19.09375  15.49375 18.996875  L 14.15 17.653125  L 16.234375 15.56875  C 16.33125 15.471875  16.33125 15.3125  16.234375 15.215625  Z M 12.659375 19.178125  L 10.803125 21.034375  C 10.025 21.8125  8.9875 22.24375  7.884375 22.24375  C 6.78125 22.24375  5.746875 21.815625  4.965625 21.034375  C 4.1875 20.25625  3.75625 19.21875  3.75625 18.115625  C 3.75625 17.0125  4.184375 15.978125  4.965625 15.196875  L 6.821875 13.340625  L 12.659375 19.178125  Z " fill-rule="nonzero" fill="#ffffff" stroke="none" transform="matrix(1 0 0 1 387 1539 )" />
  </g>
</svg>