<?xml version="1.0" encoding="utf-8"?>
<svg version="1.1" xmlns:xlink="http://www.w3.org/1999/xlink" width="21px" height="18px" xmlns="http://www.w3.org/2000/svg">
  <g transform="matrix(1 0 0 1 -113 -224 )">
    <path d="M 19.80625 9.4375  C 20.065625 9.2125  20.065625 8.7875  19.80625 8.5625  L 10.825 0.809375  C 10.490625 0.521875000000001  10 0.78125  10 1.246875  L 10 16.75625  C 10 17.221875  10.490625 17.48125  10.825 17.19375  L 19.80625 9.4375  Z M 10 9  C 10 8.8375  9.934375 8.675  9.80625 8.5625  L 0.825 0.809375  C 0.490625000000001 0.521875000000001  0 0.78125  0 1.246875  L 0 16.75625  C 0 17.221875  0.490625 17.48125  0.825 17.19375  L 9.80625 9.4375  C 9.934375 9.325  10 9.1625  10 9  Z " fill-rule="nonzero" fill="#000000" stroke="none" transform="matrix(1 0 0 1 113 224 )" />
  </g>
</svg>