<?xml version="1.0" encoding="utf-8"?>
<svg version="1.1" xmlns:xlink="http://www.w3.org/1999/xlink" width="25px" height="24px" xmlns="http://www.w3.org/2000/svg">
  <g transform="matrix(1 0 0 1 -388 -2635 )">
    <path d="M 24 19.909375  C 24 19.775  23.890625 19.66875  23.759375 19.66875  L 22.078125 19.66875  C 21.946875 19.66875  21.8375 19.778125  21.8375 19.909375  L 21.8375 21.840625  L 2.159375 21.840625  L 2.159375 2.159375  L 21.840625 2.159375  L 21.840625 4.090625  C 21.840625 4.221875  21.95 4.33125  22.08125 4.33125  L 23.7625 4.33125  C 23.89375 4.33125  24.003125 4.225  24.003125 4.090625  L 24.003125 0.959375  C 24.003125 0.428125  23.575 0  23.04375 0  L 0.959375 0  C 0.428125 0  0 0.428125  0 0.959375  L 0 23.040625  C 0 23.571875  0.428125 24  0.959375 24  L 23.040625 24  C 23.571875 24  24 23.571875  24 23.040625  L 24 19.909375  Z M 24.4375 11.125  C 24.4375 10.9875  24.325 10.875  24.1875 10.875  L 14.375 10.875  L 14.375 8.5  C 14.375 8.290625  14.13125 8.171875  13.96875 8.303125  L 9.534375 11.803125  C 9.40625 11.903125  9.40625 12.096875  9.534375 12.196875  L 13.96875 15.696875  C 14.134375 15.828125  14.375 15.709375  14.375 15.5  L 14.375 13.125  L 24.1875 13.125  C 24.325 13.125  24.4375 13.0125  24.4375 12.875  L 24.4375 11.125  Z " fill-rule="nonzero" fill="#000000" stroke="none" transform="matrix(1 0 0 1 388 2635 )" />
  </g>
</svg>