<?xml version="1.0" encoding="utf-8"?>
<svg version="1.1" xmlns:xlink="http://www.w3.org/1999/xlink" width="22px" height="28px" xmlns="http://www.w3.org/2000/svg">
  <g transform="matrix(1 0 0 1 -389 -2152 )">
    <path d="M 11.009375 16.89375  L 8.76875 12.45625  C 8.725 12.36875  8.634375 12.3125  8.534375 12.3125  L 7.009375 12.3125  C 6.96875 12.3125  6.928125 12.325  6.8875 12.34375  C 6.759375 12.4125  6.7125 12.571875  6.78125 12.7  L 9.5125 17.734375  L 8.09375 17.734375  C 7.95 17.734375  7.83125 17.853125  7.83125 17.996875  L 7.83125 18.78125  C 7.83125 18.925  7.95 19.04375  8.09375 19.04375  L 10.0625 19.04375  L 10.0625 19.9375  L 8.09375 19.9375  C 7.95 19.9375  7.83125 20.05625  7.83125 20.2  L 7.83125 20.984375  C 7.83125 21.128125  7.95 21.246875  8.09375 21.246875  L 10.0625 21.246875  L 10.0625 22.80625  C 10.0625 22.95  10.18125 23.06875  10.325 23.06875  L 11.690625 23.06875  C 11.834375 23.06875  11.953125 22.95  11.953125 22.80625  L 11.953125 21.246875  L 13.93125 21.246875  C 14.078125 21.246875  14.19375 21.128125  14.1875 20.98125  L 14.1875 20.2  C 14.1875 20.05625  14.06875 19.9375  13.925 19.9375  L 11.946875 19.9375  L 11.946875 19.04375  L 13.925 19.04375  C 14.06875 19.04375  14.1875 18.925  14.1875 18.78125  L 14.1875 17.996875  C 14.1875 17.853125  14.06875 17.734375  13.925 17.734375  L 12.490625 17.734375  L 15.215625 12.703125  C 15.2375 12.665625  15.246875 12.621875  15.246875 12.578125  C 15.246875 12.434375  15.128125 12.315625  14.984375 12.315625  L 13.490625 12.315625  C 13.39375 12.315625  13.303125 12.371875  13.25625 12.459375  L 11.009375 16.89375  Z M 22 1  C 22 0.446875  21.553125 0  21 0  L 1 0  C 0.446875 0  0 0.446875  0 1  L 0 27  C 0 27.553125  0.446875 28  1 28  L 21 28  C 21.553125 28  22 27.553125  22 27  L 22 1  Z M 19.75 4.034375  L 19.75 25.75  L 2.25 25.75  L 2.25 4.034375  L 10.384375 10.4125  C 10.746875 10.696875  11.25625 10.696875  11.61875 10.4125  L 19.75 4.034375  Z M 19.75 2.25  L 19.75 2.271875  L 18.759375 2.271875  L 11 8.353125  L 3.240625 2.271875  L 2.25 2.271875  L 2.25 2.25  L 19.75 2.25  Z " fill-rule="nonzero" fill="#000000" stroke="none" transform="matrix(1 0 0 1 389 2152 )" />
  </g>
</svg>