<?xml version="1.0" encoding="utf-8"?>
<svg version="1.1" xmlns:xlink="http://www.w3.org/1999/xlink" width="26px" height="26px" xmlns="http://www.w3.org/2000/svg">
  <g transform="matrix(1 0 0 1 -387 -2495 )">
    <path d="M 25.45 7.690625  C 25.646875 6.515625  25.253125 5.30625  24.409375 4.459375  L 21.08125 1.134375  C 20.675 0.728125  20.13125 0.5  19.55625 0.5  C 18.98125 0.5  18.4375 0.725000000000001  18.03125 1.134375  L 14.446875 4.7125  C 14.040625 5.11875  13.8125 5.665625  13.8125 6.240625  C 13.8125 6.81875  14.0375 7.359375  14.446875 7.76875  L 17.246875 10.571875  C 16.603125 12.065625  15.696875 13.403125  14.546875 14.55  C 13.4 15.703125  12.059375 16.6125  10.571875 17.25625  L 7.771875 14.453125  C 7.365625 14.046875  6.821875 13.81875  6.246875 13.81875  C 5.66875 13.81875  5.128125 14.04375  4.721875 14.453125  L 1.134375 18.03125  C 0.728125 18.4375  0.5 18.984375  0.5 19.559375  C 0.5 20.1375  0.725000000000001 20.678125  1.134375 21.0875  L 4.459375 24.4125  C 5.153125 25.10625  6.109375 25.503125  7.090625 25.503125  C 7.29375 25.503125  7.490625 25.4875  7.690625 25.453125  C 11.828125 24.771875  15.934375 22.56875  19.25 19.25625  C 22.5625 15.9375  24.7625 11.83125  25.45 7.690625  Z M 22.81875 6.04375  C 23.15625 6.38125  23.3125 6.85625  23.234375 7.31875  C 22.625 11.003125  20.64375 14.678125  17.659375 17.6625  C 14.675 20.646875  11.003125 22.628125  7.31875 23.2375  C 6.85625 23.315625  6.38125 23.159375  6.04375 22.825  L 2.778125 19.559375  L 6.240625 16.09375  L 9.984375 19.84375  L 10.0125 19.871875  L 10.6875 19.621875  C 14.834375 18.09375  18.090625 14.8375  19.615625 10.690625  L 19.865625 10.015625  L 16.090625 6.24375  L 19.553125 2.778125  L 22.81875 6.04375  Z " fill-rule="nonzero" fill="#ffffff" stroke="none" transform="matrix(1 0 0 1 387 2495 )" />
  </g>
</svg>