<?xml version="1.0" encoding="utf-8"?>
<svg version="1.1" xmlns:xlink="http://www.w3.org/1999/xlink" width="22px" height="28px" xmlns="http://www.w3.org/2000/svg">
  <g transform="matrix(1 0 0 1 -389 -1947 )">
    <path d="M 22 7.728125  C 22 7.4625  21.89375 7.20625  21.70625 7.01875  L 14.98125 0.29375  C 14.79375 0.10625  14.540625 0  14.275 0  L 1 0  C 0.446875 0  0 0.446875  0 1  L 0 27  C 0 27.553125  0.446875 28  1 28  L 21 28  C 21.553125 28  22 27.553125  22 27  L 22 7.728125  Z M 13.8125 2.30625  L 19.69375 8.1875  L 13.8125 8.1875  L 13.8125 2.30625  Z M 19.75 10.3125  L 19.75 25.75  L 2.25 25.75  L 2.25 2.25  L 11.6875 2.25  L 11.6875 9  C 11.6875 9.725  12.275 10.3125  13 10.3125  L 19.75 10.3125  Z M 11.00625 19.00625  L 8.40625 13.0375  C 8.346875 12.9  8.2125 12.8125  8.0625 12.8125  L 6.96875 12.8125  C 6.7625 12.8125  6.59375 12.98125  6.59375 13.1875  L 6.59375 21.6875  C 6.59375 21.89375  6.7625 22.0625  6.96875 22.0625  L 7.815625 22.0625  C 8.021875 22.0625  8.190625 21.89375  8.190625 21.6875  L 8.190625 16.190625  L 10.278125 20.884375  C 10.3375 21.01875  10.471875 21.10625  10.621875 21.10625  L 11.375 21.10625  C 11.521875 21.10625  11.65625 21.01875  11.71875 20.884375  L 13.80625 16.178125  L 13.80625 21.6875  C 13.80625 21.89375  13.975 22.0625  14.18125 22.0625  L 15.03125 22.0625  C 15.2375 22.0625  15.40625 21.89375  15.40625 21.6875  L 15.40625 13.1875  C 15.40625 12.98125  15.2375 12.8125  15.03125 12.8125  L 13.946875 12.8125  C 13.796875 12.8125  13.6625 12.9  13.603125 13.0375  L 11.00625 19.00625  Z " fill-rule="nonzero" fill="#000000" stroke="none" transform="matrix(1 0 0 1 389 1947 )" />
  </g>
</svg>