<?xml version="1.0" encoding="utf-8"?>
<svg version="1.1" xmlns:xlink="http://www.w3.org/1999/xlink" width="28px" height="28px" xmlns="http://www.w3.org/2000/svg">
  <g transform="matrix(1 0 0 1 -109 -1538 )">
    <path d="M 28 13.0625  C 28 12.925  27.8875 12.8125  27.75 12.8125  L 23.93125 12.8125  C 23.390625 8.2375  19.7625 4.609375  15.1875 4.06875  L 15.1875 0.25  C 15.1875 0.1125  15.075 0  14.9375 0  L 13.0625 0  C 12.925 0  12.8125 0.1125  12.8125 0.25  L 12.8125 4.06875  C 8.2375 4.609375  4.609375 8.2375  4.06875 12.8125  L 0.25 12.8125  C 0.1125 12.8125  0 12.925  0 13.0625  L 0 14.9375  C 0 15.075  0.1125 15.1875  0.25 15.1875  L 4.06875 15.1875  C 4.609375 19.7625  8.2375 23.390625  12.8125 23.93125  L 12.8125 27.75  C 12.8125 27.8875  12.925 28  13.0625 28  L 14.9375 28  C 15.075 28  15.1875 27.8875  15.1875 27.75  L 15.1875 23.93125  C 19.7625 23.390625  23.390625 19.7625  23.93125 15.1875  L 27.75 15.1875  C 27.8875 15.1875  28 15.075  28 14.9375  L 28 13.0625  Z M 21.625 14  C 21.625 18.2125  18.2125 21.625  14 21.625  C 9.7875 21.625  6.375 18.2125  6.375 14  C 6.375 9.7875  9.7875 6.375  14 6.375  C 18.2125 6.375  21.625 9.7875  21.625 14  Z M 16.65 11.35  C 15.940625 10.6375  15.003125 10.25  14 10.25  C 12.996875 10.25  12.059375 10.6375  11.35 11.35  C 10.640625 12.059375  10.25 12.996875  10.25 14  C 10.25 15.003125  10.640625 15.940625  11.35 16.65  C 12.059375 17.35625  13 17.75  14 17.75  C 15 17.75  15.940625 17.359375  16.65 16.65  C 17.35625 15.940625  17.75 15  17.75 14  C 17.75 13  17.359375 12.059375  16.65 11.35  Z " fill-rule="nonzero" fill="#000000" stroke="none" transform="matrix(1 0 0 1 109 1538 )" />
  </g>
</svg>