<?xml version="1.0" encoding="utf-8"?>
<svg version="1.1" xmlns:xlink="http://www.w3.org/1999/xlink" width="28px" height="26px" xmlns="http://www.w3.org/2000/svg">
  <g transform="matrix(1 0 0 1 -109 -1812 )">
    <path d="M 28 14.5  C 28 12.609375  27.628125 10.778125  26.9 9.05  C 26.19375 7.38125  25.184375 5.884375  23.9 4.6  C 22.615625 3.315625  21.11875 2.30625  19.45 1.6  C 17.721875 0.86875  15.890625 0.5  14 0.5  C 12.109375 0.5  10.278125 0.86875  8.55 1.6  C 6.88125 2.30625  5.384375 3.315625  4.1 4.6  C 2.815625 5.884375  1.80625 7.38125  1.1 9.05  C 0.36875 10.778125  0 12.609375  0 14.5  C 0 18.646875  1.821875 22.553125  4.996875 25.221875  L 5.05 25.265625  C 5.23125 25.415625  5.459375 25.5  5.69375 25  L 22.309375 25  C 22.54375 25.5  22.771875 25.415625  22.953125 25.265625  L 23.00625 25.221875  C 26.178125 22.553125  28 18.646875  28 14.5  Z M 25.625 14.5  C 25.625 17.8  24.234375 20.921875  21.79375 23  L 6.20625 23  C 3.765625 20.921875  2.375 17.8  2.375 14.5  C 2.375 11.39375  3.584375 8.475  5.78125 6.28125  C 7.978125 4.084375  10.896875 2.875  14 2.875  C 17.10625 2.875  20.025 4.084375  22.21875 6.28125  C 24.415625 8.478125  25.625 11.396875  25.625 14.5  Z M 18.36875 11.05625  L 17.484375 10.171875  C 17.3875 10.075  17.228125 10.075  17.13125 10.171875  L 14.490625 12.8125  C 13.90625 12.65625  13.259375 12.80625  12.8 13.265625  C 12.115625 13.95  12.115625 15.05625  12.8 15.740625  C 13.484375 16.425  14.590625 16.425  15.275 15.740625  C 15.734375 15.28125  15.884375 14.634375  15.728125 14.05  L 18.36875 11.409375  C 18.465625 11.3125  18.465625 11.153125  18.36875 11.05625  Z M 13.0625 6.75  C 13.0625 6.8875  13.175 7  13.3125 7  L 14.6875 7  C 14.825 7  14.9375 6.8875  14.9375 6.75  L 14.9375 4.25  C 14.9375 4.1125  14.825 4  14.6875 4  L 13.3125 4  C 13.175 4  13.0625 4.1125  13.0625 4.25  L 13.0625 6.75  Z M 21.6875 13.5625  C 21.55 13.5625  21.4375 13.675  21.4375 13.8125  L 21.4375 15.1875  C 21.4375 15.325  21.55 15.4375  21.6875 15.4375  L 24.1875 15.4375  C 24.325 15.4375  24.4375 15.325  24.4375 15.1875  L 24.4375 13.8125  C 24.4375 13.675  24.325 13.5625  24.1875 13.5625  L 21.6875 13.5625  Z M 21.834375 8.003125  C 21.93125 7.90625  21.93125 7.746875  21.834375 7.65  L 20.8625 6.678125  C 20.765625 6.58125  20.60625 6.58125  20.509375 6.678125  L 18.740625 8.446875  C 18.64375 8.54375  18.64375 8.703125  18.740625 8.8  L 19.7125 9.771875  C 19.809375 9.86875  19.96875 9.86875  20.065625 9.771875  L 21.834375 8.003125  Z M 9.271875 8.446875  L 7.503125 6.678125  C 7.40625 6.58125  7.246875 6.58125  7.15 6.678125  L 6.178125 7.65  C 6.08125 7.746875  6.08125 7.90625  6.178125 8.003125  L 7.946875 9.771875  C 8.04375 9.86875  8.203125 9.86875  8.3 9.771875  L 9.271875 8.8  C 9.36875 8.703125  9.36875 8.54375  9.271875 8.446875  Z M 6.4375 13.8125  C 6.4375 13.675  6.325 13.5625  6.1875 13.5625  L 3.6875 13.5625  C 3.55 13.5625  3.4375 13.675  3.4375 13.8125  L 3.4375 15.1875  C 3.4375 15.325  3.55 15.4375  3.6875 15.4375  L 6.1875 15.4375  C 6.325 15.4375  6.4375 15.325  6.4375 15.1875  L 6.4375 13.8125  Z " fill-rule="nonzero" fill="#ffffff" stroke="none" transform="matrix(1 0 0 1 109 1812 )" />
  </g>
</svg>