<?xml version="1.0" encoding="utf-8"?>
<svg version="1.1" xmlns:xlink="http://www.w3.org/1999/xlink" width="28px" height="28px" xmlns="http://www.w3.org/2000/svg">
  <g transform="matrix(1 0 0 1 -109 -2701 )">
    <path d="M 17.5 17.5  L 17.5 19  C 17.5 19.828125  18.171875 20.5  19 20.5  C 19.828125 20.5  20.5 19.828125  20.5 19  C 20.5 18.171875  19.828125 17.5  19 17.5  L 17.5 17.5  Z M 19 10.5  C 19.828125 10.5  20.5 9.828125  20.5 9  C 20.5 8.171875  19.828125 7.5  19 7.5  C 18.171875 7.5  17.5 8.171875  17.5 9  L 17.5 10.5  L 19 10.5  Z M 28 1  C 28 0.446875  27.553125 0  27 0  L 1 0  C 0.446875 0  0 0.446875  0 1  L 0 27  C 0 27.553125  0.446875 28  1 28  L 27 28  C 27.553125 28  28 27.553125  28 27  L 28 1  Z M 17.5 15.5  L 19 15.5  C 20.934375 15.5  22.5 17.065625  22.5 19  C 22.5 20.934375  20.934375 22.5  19 22.5  C 17.065625 22.5  15.5 20.934375  15.5 19  L 15.5 17.5  L 12.5 17.5  L 12.5 19  C 12.5 20.934375  10.934375 22.5  9 22.5  C 7.065625 22.5  5.5 20.934375  5.5 19  C 5.5 17.065625  7.065625 15.5  9 15.5  L 10.5 15.5  L 10.5 12.5  L 9 12.5  C 7.065625 12.5  5.5 10.934375  5.5 9  C 5.5 7.065625  7.065625 5.5  9 5.5  C 10.934375 5.5  12.5 7.065625  12.5 9  L 12.5 10.5  L 15.5 10.5  L 15.5 9  C 15.5 7.065625  17.065625 5.5  19 5.5  C 20.934375 5.5  22.5 7.065625  22.5 9  C 22.5 10.934375  20.934375 12.5  19 12.5  L 17.5 12.5  L 17.5 15.5  Z M 12.5 15.5  L 12.5 12.5  L 15.5 12.5  L 15.5 15.5  L 12.5 15.5  Z M 10.5 9  C 10.5 8.171875  9.828125 7.5  9 7.5  C 8.171875 7.5  7.5 8.171875  7.5 9  C 7.5 9.828125  8.171875 10.5  9 10.5  L 10.5 10.5  L 10.5 9  Z M 9 17.5  C 8.171875 17.5  7.5 18.171875  7.5 19  C 7.5 19.828125  8.171875 20.5  9 20.5  C 9.828125 20.5  10.5 19.828125  10.5 19  L 10.5 17.5  L 9 17.5  Z " fill-rule="nonzero" fill="#ffffff" stroke="none" transform="matrix(1 0 0 1 109 2701 )" />
  </g>
</svg>