<?xml version="1.0" encoding="utf-8"?>
<svg version="1.1" xmlns:xlink="http://www.w3.org/1999/xlink" width="22px" height="26px" xmlns="http://www.w3.org/2000/svg">
  <g transform="matrix(1 0 0 1 -112 -2634 )">
    <path d="M 22 3.625  C 22 1.69375  20.43125 0.124999999999998  18.5 0.125  C 16.56875 0.125  15 1.69375  15 3.625  C 15 5.115625  15.934375 6.390625  17.25 6.89375  L 17.25 7.75625  L 11 15.79375  L 4.75 7.75625  L 4.75 6.89375  C 6.065625 6.390625  7 5.115625  7 3.625  C 7 1.69375  5.43125 0.124999999999999  3.5 0.124999999999999  C 1.56875 0.124999999999999  0 1.69375  0 3.625  C 0 5.20625  1.05625 6.546875  2.5 6.978125  L 2.5 8.053125  C 2.5 8.35625  2.603125 8.65625  2.790625 8.896875  L 9.875 18.009375  L 9.875 19.059375  C 8.49375 19.528125  7.5 20.8375  7.5 22.375  C 7.5 24.30625  9.06875 25.875  11 25.875  C 12.93125 25.875  14.5 24.30625  14.5 22.375  C 14.5 20.8375  13.50625 19.53125  12.125 19.059375  L 12.125 18.009375  L 19.209375 8.896875  C 19.396875 8.65625  19.5 8.35625  19.5 8.053125  L 19.5 6.978125  C 20.94375 6.546875  22 5.20625  22 3.625  Z M 3.5 5.125  C 2.671875 5.125  2 4.453125  2 3.625  C 2 2.796875  2.671875 2.125  3.5 2.125  C 4.328125 2.125  5 2.796875  5 3.625  C 5 4.453125  4.328125 5.125  3.5 5.125  Z M 11 20.875  C 11.828125 20.875  12.5 21.546875  12.5 22.375  C 12.5 23.203125  11.828125 23.875  11 23.875  C 10.171875 23.875  9.5 23.203125  9.5 22.375  C 9.5 21.546875  10.171875 20.875  11 20.875  Z M 20 3.625  C 20 4.453125  19.328125 5.125  18.5 5.125  C 17.671875 5.125  17 4.453125  17 3.625  C 17 2.796875  17.671875 2.125  18.5 2.125  C 19.328125 2.125  20 2.796875  20 3.625  Z " fill-rule="nonzero" fill="#ffffff" stroke="none" transform="matrix(1 0 0 1 112 2634 )" />
  </g>
</svg>