<?xml version="1.0" encoding="utf-8"?>
<svg version="1.1" xmlns:xlink="http://www.w3.org/1999/xlink" width="22px" height="28px" xmlns="http://www.w3.org/2000/svg">
  <g transform="matrix(1 0 0 1 -112 -1947 )">
    <path d="M 22 7.728125  C 22 7.4625  21.89375 7.20625  21.70625 7.01875  L 14.98125 0.29375  C 14.79375 0.10625  14.540625 0  14.275 0  L 1 0  C 0.446875 0  0 0.446875  0 1  L 0 27  C 0 27.553125  0.446875 28  1 28  L 21 28  C 21.553125 28  22 27.553125  22 27  L 22 7.728125  Z M 13.8125 2.30625  L 19.69375 8.1875  L 13.8125 8.1875  L 13.8125 2.30625  Z M 19.75 10.3125  L 19.75 25.75  L 2.25 25.75  L 2.25 2.25  L 11.6875 2.25  L 11.6875 9  C 11.6875 9.725  12.275 10.3125  13 10.3125  L 19.75 10.3125  Z M 12.978125 12.93125  L 11.065625 16.128125  L 9.134375 12.928125  C 9.065625 12.815625  8.94375 12.746875  8.8125 12.746875  L 7.6125 12.746875  C 7.540625 12.746875  7.471875 12.765625  7.4125 12.80625  C 7.2375 12.915625  7.184375 13.146875  7.296875 13.325  L 9.86875 17.4  L 7.2625 21.55  C 7.225 21.609375  7.20625 21.678125  7.20625 21.75  C 7.20625 21.95625  7.375 22.125  7.58125 22.125  L 8.659375 22.125  C 8.790625 22.125  8.909375 22.05625  8.978125 21.946875  L 10.9375 18.775  L 12.884375 21.94375  C 12.953125 22.05625  13.075 22.121875  13.203125 22.121875  L 14.375 22.121875  C 14.446875 22.121875  14.515625 22.1  14.578125 22.0625  C 14.753125 21.95  14.803125 21.71875  14.690625 21.54375  L 12.065625 17.46875  L 14.73125 13.328125  C 14.76875 13.26875  14.790625 13.196875  14.790625 13.125  C 14.790625 12.91875  14.621875 12.75  14.415625 12.75  L 13.3 12.75  C 13.16875 12.75  13.046875 12.81875  12.978125 12.93125  Z " fill-rule="nonzero" fill="#ffffff" stroke="none" transform="matrix(1 0 0 1 112 1947 )" />
  </g>
</svg>