<?xml version="1.0" encoding="utf-8"?>
<svg version="1.1" xmlns:xlink="http://www.w3.org/1999/xlink" width="26px" height="16px" xmlns="http://www.w3.org/2000/svg">
  <g transform="matrix(1 0 0 1 -110 -2776 )">
    <path d="M 13 0.9375  C 13.0625 0.834375  12.978125 0.75  12.875 0.75  L 10.896875 0.75  C 10.79375 0.75  10.709375 0.834375  11 0.9375  L 11 11.56875  L 10.53125 11.56875  L 3.16875 0.831250000000001  C 3.134375 0.78125  3.075 0.75  3.015625 0.75  L 0.9375 0.75  C 0.834375 0.75  0.75 0.834375  1 0.9375  L 1 15.4375  C 0.75 15.540625  0.834375 15.625  0.9375 15.625  L 2.896875 15.625  C 3 15.625  3.084375 15.540625  3 15.4375  L 3 4.659375  L 3.2625 4.659375  L 10.70625 15.54375  C 10.740625 15.59375  10.8 15.625  10.8625 15.625  L 12.875 15.625  C 12.978125 15.625  13.0625 15.540625  13 15.4375  L 13 0.9375  Z M 24.9375 13.90625  C 24.9375 13.76875  24.825 13.65625  24.6875 13.65625  L 15.1875 13.65625  C 15.05 13.65625  14.9375 13.76875  14.9375 13.90625  L 14.9375 15.40625  C 14.9375 15.54375  15.05 15.65625  15.1875 15.65625  L 24.6875 15.65625  C 24.825 15.65625  24.9375 15.54375  24.9375 15.40625  L 24.9375 13.90625  Z M 15.9875 10.05625  C 16.94375 11.140625  18.26875 11.6875  19.93125 11.6875  C 21.584375 11.6875  22.90625 11.15  23.875 10.071875  C 24.79375 9.04375  25.25 7.703125  25.25 6.046875  C 25.25 4.3875  24.79375 3.03125  23.875 2.00625  C 22.909375 0.918749999999998  21.5875 0.374999999999998  19.93125 0.374999999999998  C 18.253125 0.374999999999998  16.934375 0.921874999999998  15.984375 2.025  C 15.071875 3.059375  14.628125 4.396875  14.628125 6.046875  C 14.628125 7.684375  15.075 9.021875  15.9875 10.05625  Z M 16.93125 6.046875  C 16.934375 4.928125  17.1875 4.078125  17.696875 3.446875  C 18.225 2.803125  18.95625 2.48125  19.928125 2.48125  C 20.9125 2.48125  21.640625 2.78125  22.146875 3.390625  C 22.659375 4.025  22.925 4.909375  22.925 6.04375  C 22.925 7.178125  22.6625 8.046875  22.15 8.665625  C 21.634375 9.271875  20.9 9.578125  19.928125 9.578125  C 18.953125 9.578125  18.209375 9.25625  17.696875 8.628125  C 17.1875 8  16.93125 7.15  16.93125 6.046875  Z " fill-rule="nonzero" fill="#000000" stroke="none" transform="matrix(1 0 0 1 110 2776 )" />
  </g>
</svg>