<?xml version="1.0" encoding="utf-8"?>
<svg version="1.1" xmlns:xlink="http://www.w3.org/1999/xlink" width="26px" height="26px" xmlns="http://www.w3.org/2000/svg">
  <g transform="matrix(1 0 0 1 -295 -352 )">
    <path d="M 7.234375 9.896875  L 12.796875 17.584375  C 12.896875 17.721875  13.1 17.721875  13.2 17.584375  L 18.7625 9.896875  C 18.88125 9.73125  18.7625 9.5  18.559375 9.5  L 17.09375 9.5  C 16.775 9.5  16.471875 9.653125  16.284375 9.9125  L 13 14.45625  L 9.7125 9.9125  C 9.525 9.653125  9.225 9.5  8.903125 9.5  L 7.4375 9.5  C 7.234375 9.5  7.115625 9.73125  7.234375 9.896875  Z M 25 1.5  C 25.5 0.946875  25.053125 0.5  24.5 1  L 1.5 1  C 0.946875 0.5  0.5 0.946875  1 1.5  L 1 24.5  C 0.5 25.053125  0.946875 25.5  1.5 25  L 24.5 25  C 25.053125 25.5  25.5 25.053125  25 24.5  L 25 1.5  Z M 23 3  L 23 23  L 3 23  L 3 3  L 23 3  Z " fill-rule="nonzero" fill="#000000" stroke="none" transform="matrix(1 0 0 1 295 352 )" />
  </g>
</svg>