<?xml version="1.0" encoding="utf-8"?>
<svg version="1.1" xmlns:xlink="http://www.w3.org/1999/xlink" width="24px" height="30px" xmlns="http://www.w3.org/2000/svg">
  <g transform="matrix(1 0 0 1 -296 -2220 )">
    <path d="M 23.55625 4.971875  C 23.5625 4.696875  23.35 4.4  23.090625 4.309375  L 12.471875 0.690625  C 12.34375 0.646875  12.171875 0.625  12 0.625  C 11.828125 0.625  11.65625 0.646875  11.528125 0.690625  L 0.909375 4.309375  C 0.649999999999999 4.396875  0.4375 4.696875  0.4375 4.971875  L 0.4375 20.046875  C 0.4375 20.321875  0.615625 20.684375  0.83125 20.85625  L 11.603125 29.25  C 11.7125 29.334375  11.853125 29.378125  11.996875 29.378125  C 12.140625 29.378125  12.284375 29.334375  12.390625 29.25  L 23.1625 20.85625  C 23.378125 20.6875  23.55625 20.325  23.55625 20.046875  L 23.55625 4.971875  Z M 21 6.084375  L 21 19.446875  L 12 26.703125  L 3 19.446875  L 3 6.084375  L 12 2.909375  L 21 6.084375  Z M 9.734375 9.109375  C 9.68125 9.003125  9.571875 8.9375  9.453125 8.9375  L 8.015625 8.9375  C 7.9625 8.9375  7.9125 8.95  7.865625 8.975  C 7.715625 9.05625  7.659375 9.246875  7.740625 9.4  L 10.490625 14.434375  L 9.078125 14.434375  C 8.90625 14.434375  8.765625 14.575  8.765625 14.746875  L 8.765625 15.4125  C 8.765625 15.584375  8.90625 15.725  9.078125 15.725  L 11.05 15.725  L 11.05 16.653125  L 9.078125 16.653125  C 8.90625 16.653125  8.765625 16.79375  8.765625 16.965625  L 8.765625 17.63125  C 8.765625 17.803125  8.90625 17.94375  9.078125 17.94375  L 11.05 17.94375  L 11.05 19.5625  C 11.05 19.734375  11.190625 19.875  11.3625 19.875  L 12.653125 19.875  C 12.825 19.875  12.965625 19.734375  12.965625 19.5625  L 12.965625 17.94375  L 14.946875 17.94375  C 15.11875 17.94375  15.259375 17.803125  15.259375 17.63125  L 15.259375 16.965625  C 15.259375 16.79375  15.11875 16.653125  14.946875 16.653125  L 12.965625 16.653125  L 12.965625 15.725  L 14.946875 15.725  C 15.11875 15.725  15.259375 15.584375  15.259375 15.4125  L 15.259375 14.746875  C 15.259375 14.575  15.11875 14.434375  14.946875 14.434375  L 13.51875 14.434375  L 16.259375 9.4  C 16.284375 9.353125  16.296875 9.303125  16.296875 9.25  C 16.296875 9.078125  16.15625 8.9375  15.984375 8.9375  L 14.578125 8.9375  C 14.459375 8.9375  14.353125 9.003125  14.3 9.109375  L 12.0125 13.61875  L 9.734375 9.109375  Z " fill-rule="nonzero" fill="#ffffff" stroke="none" transform="matrix(1 0 0 1 296 2220 )" />
  </g>
</svg>