<?xml version="1.0" encoding="utf-8"?>
<svg version="1.1" xmlns:xlink="http://www.w3.org/1999/xlink" width="22px" height="28px" xmlns="http://www.w3.org/2000/svg">
  <g transform="matrix(1 0 0 1 -297 -1607 )">
    <path d="M 22 1  C 22 0.446875  21.553125 0  21 0  L 1 0  C 0.446875 0  0 0.446875  0 1  L 0 27  C 0 27.553125  0.446875 28  1 28  L 21 28  C 21.553125 28  22 27.553125  22 27  L 22 1  Z M 12.875 8.85625  L 12.875 2.25  L 15.875 2.25  L 15.875 8.809375  L 14.421875 7.75  L 12.875 8.85625  Z M 19.746875 25.75  L 19.75 25.75  L 2.25 25.75  L 2.25 2.25  L 11 2.25  L 11 11.528125  C 11 11.63125  11.03125 11.734375  11.09375 11.81875  C 11.253125 12.04375  11.565625 12.096875  11.790625 11.934375  L 14.409375 10.0625  L 16.953125 11.91875  C 17.0375 11.98125  17.140625 12.015625  17.246875 12.015625  C 17.521875 12.015625  17.746875 11.790625  17.746875 11.515625  L 17.746875 2.25  L 19.746875 2.25  L 19.746875 25.75  Z " fill-rule="nonzero" fill="#ffffff" stroke="none" transform="matrix(1 0 0 1 297 1607 )" />
  </g>
</svg>