<?xml version="1.0" encoding="utf-8"?>
<svg version="1.1" xmlns:xlink="http://www.w3.org/1999/xlink" width="14px" height="14px" xmlns="http://www.w3.org/2000/svg">
  <g transform="matrix(1 0 0 1 -301 -1750 )">
    <path d="M 13.753125 0.778125000000001  C 13.64375 0.531250000000002  13.446875 0.343750000000002  13.2 0.246874999999999  C 12.95 0.149999999999999  12.678125 0.15625  12.434375 0.262499999999999  L 3.965625 3.96875  L 0.262499999999999 12.4375  C 0.149999999999999 12.69375  0.149999999999999 12.984375  0.262499999999999 13.240625  C 0.368749999999999 13.484375  0.565624999999999 13.675  0.815624999999999 13.771875  C 0.934374999999999 13.81875  1.05625 13.840625  1.18125 13.840625  C 1.31875 13.840625  1.453125 13.8125  1.58125 13.75625  L 10.05 10.05  L 13.753125 1.58125  C 13.865625 1.325  13.865625 1.034375  13.753125 0.778125000000001  Z M 11.1375 2.875  L 9.025 7.7  L 9.84375 8.51875  L 8.51875 9.84375  L 7.7 9.025  L 2.875 11.1375  L 4.984375 6.3125  L 4.1875 5.5125  L 5.5125 4.1875  L 6.309375 4.984375  L 11.1375 2.875  Z " fill-rule="nonzero" fill="#ffffff" stroke="none" transform="matrix(1 0 0 1 301 1750 )" />
  </g>
</svg>