<?xml version="1.0" encoding="utf-8"?>
<svg version="1.1" xmlns:xlink="http://www.w3.org/1999/xlink" width="26px" height="26px" xmlns="http://www.w3.org/2000/svg">
  <g transform="matrix(1 0 0 1 -295 -1812 )">
    <path d="M 17.38125 17.409375  C 17.46875 17.303125  17.453125 17.146875  17.346875 17.059375  C 17.303125 17.021875  17.246875 17  17.1875 17  L 15.478125 17  C 15.403125 17  15.334375 17.034375  15.2875 17.090625  L 13 19.834375  L 10.715625 17.090625  C 10.66875 17.034375  10.596875 17  10.525 17  L 8.8125 17  C 8.753125 17  8.696875 17.021875  8.653125 17.059375  C 8.546875 17.146875  8.53125 17.30625  8.621875 17.4125  L 11.81875 21.25  L 8.61875 25.090625  C 8.53125 25.196875  8.54375 25.353125  8.65 25.44375  C 8.69375 25.48125  8.75 25.503125  8.809375 25.503125  L 10.51875 25.503125  C 10.59375 25.503125  10.6625 25.46875  10.709375 25.4125  L 12.99375 22.66875  L 15.278125 25.4125  C 15.325 25.46875  15.396875 25.503125  15.46875 25.503125  L 17.1875 25.503125  C 17.246875 25.503125  17.303125 25.48125  17.346875 25.44375  C 17.453125 25.35625  17.46875 25.196875  17.378125 25.090625  L 14.18125 21.25  L 17.38125 17.409375  Z M 12 13.75  C 11.5 13.8875  11.6125 14  11.75 14  L 14.25 14  C 14.3875 14  14.5 13.8875  14 13.75  L 14 0.75  C 14.5 0.6125  14.3875 0.5  14.25 0.5  L 11.75 0.5  C 11.6125 0.5  11.5 0.6125  12 0.75  L 12 13.75  Z M 8.125 9.25  C 8.125 9.146875  8.040625 9.0625  7.9375 9.0625  L 2.75 9.0625  L 2.75 1.25  C 2.75 1.146875  2.665625 1.0625  2.5625 1.0625  L 0.6875 1.0625  C 0.584375 1.0625  0.5 1.146875  0.5 1.25  L 0.5 10.375  C 0.5 10.89375  0.91875 11.3125  1.4375 11.3125  L 7.9375 11.3125  C 8.040625 11.3125  8.125 11.228125  8.125 11.125  L 8.125 9.25  Z M 25.5 1.25  C 25.5 1.146875  25.415625 1.0625  25.3125 1.0625  L 23.4375 1.0625  C 23.334375 1.0625  23.25 1.146875  23.25 1.25  L 23.25 9.0625  L 18.0625 9.0625  C 17.959375 9.0625  17.875 9.146875  17.875 9.25  L 17.875 11.125  C 17.875 11.228125  17.959375 11.3125  18.0625 11.3125  L 24.5625 11.3125  C 25.08125 11.3125  25.5 10.89375  25.5 10.375  L 25.5 1.25  Z " fill-rule="nonzero" fill="#000000" stroke="none" transform="matrix(1 0 0 1 295 1812 )" />
  </g>
</svg>