<?xml version="1.0" encoding="utf-8"?>
<svg version="1.1" xmlns:xlink="http://www.w3.org/1999/xlink" width="26px" height="26px" xmlns="http://www.w3.org/2000/svg">
  <g transform="matrix(1 0 0 1 -295 -2702 )">
    <path d="M 25 1.5  C 25.5 0.946875  25.053125 0.5  24.5 1  L 1.5 1  C 0.946875 0.5  0.5 0.946875  1 1.5  L 1 24.5  C 0.5 25.053125  0.946875 25.5  1.5 25  L 24.5 25  C 25.053125 25.5  25.5 25.053125  25 24.5  L 25 1.5  Z M 23 3  L 23 23  L 3 23  L 3 3  L 23 3  Z M 12.125 9.25  C 12.125 9.3875  12.2375 9.5  12.375 9.5  L 18.125 9.5  C 18.2625 9.5  18.375 9.3875  18.375 9.25  L 18.375 7.75  C 18.375 7.6125  18.2625 7.5  18.125 7.5  L 12.375 7.5  C 12.2375 7.5  12.125 7.6125  12.125 7.75  L 12.125 9.25  Z M 12.125 13.75  C 12.125 13.8875  12.2375 14  12.375 14  L 18.125 14  C 18.2625 14  18.375 13.8875  18.375 13.75  L 18.375 12.25  C 18.375 12.1125  18.2625 12  18.125 12  L 12.375 12  C 12.2375 12  12.125 12.1125  12.125 12.25  L 12.125 13.75  Z M 12.125 18.25  C 12.125 18.3875  12.2375 18.5  12.375 18.5  L 18.125 18.5  C 18.2625 18.5  18.375 18.3875  18.375 18.25  L 18.375 16.75  C 18.375 16.6125  18.2625 16.5  18.125 16.5  L 12.375 16.5  C 12.2375 16.5  12.125 16.6125  12.125 16.75  L 12.125 18.25  Z M 7.625 8.5  C 7.625 9.19035593728849  8.18464406271151 9.75  8.875 9.75  C 9.56535593728849 9.75  10.125 9.19035593728849  10.125 8.5  C 10.125 7.80964406271151  9.56535593728849 7.25  8.875 7.25  C 8.18464406271151 7.25  7.625 7.80964406271151  7.625 8.5  Z M 7.625 13  C 7.625 13.6903559372885  8.18464406271151 14.25  8.875 14.25  C 9.56535593728849 14.25  10.125 13.6903559372885  10.125 13  C 10.125 12.3096440627115  9.56535593728849 11.75  8.875 11.75  C 8.18464406271151 11.75  7.625 12.3096440627115  7.625 13  Z M 7.625 17.5  C 7.625 18.1903559372885  8.18464406271151 18.75  8.875 18.75  C 9.56535593728849 18.75  10.125 18.1903559372885  10.125 17.5  C 10.125 16.8096440627115  9.56535593728849 16.25  8.875 16.25  C 8.18464406271151 16.25  7.625 16.8096440627115  7.625 17.5  Z " fill-rule="nonzero" fill="#ffffff" stroke="none" transform="matrix(1 0 0 1 295 2702 )" />
  </g>
</svg>