<?xml version="1.0" encoding="utf-8"?>
<svg version="1.1" xmlns:xlink="http://www.w3.org/1999/xlink" width="22px" height="23px" xmlns="http://www.w3.org/2000/svg">
  <g transform="matrix(1 0 0 1 -297 -288 )">
    <path d="M 21.78125 5.5625  C 21.78125 4.459375  20.884375 3.5625  19.78125 4  L 6.4375 4  L 6.4375 1.25  C 6.4375 1.040625  6.196875 0.925  6.034375 1.053125  L 1.596875 4.553125  C 1.46875 4.653125  1.46875 4.846875  1.596875 4.946875  L 6.034375 8.446875  C 6.196875 8.575  6.4375 8.459375  6.4375 8.25  L 6.4375 6  L 19 6  L 19 20.625  L 0.46875 20.625  C 0.33125 20.625  0.21875 20.7375  0.21875 20.875  L 0.21875 22.75  C 0.21875 22.8875  0.33125 23  0.46875 23  L 19.78125 23  C 20.884375 23  21.78125 22.103125  21.78125 21  L 21.78125 5.5625  Z " fill-rule="nonzero" fill="#000000" stroke="none" transform="matrix(1 0 0 1 297 288 )" />
  </g>
</svg>