<?xml version="1.0" encoding="utf-8"?>
<svg version="1.1" xmlns:xlink="http://www.w3.org/1999/xlink" width="28px" height="28px" xmlns="http://www.w3.org/2000/svg">
  <g transform="matrix(1 0 0 1 -294 -1879 )">
    <path d="M 28 14  C 28 6.26875  21.73125 0  14 0  C 6.26875 0  0 6.26875  0 14  C 0 21.73125  6.26875 28  14 28  C 21.73125 28  28 21.73125  28 14  Z M 25.625 14  C 25.625 20.41875  20.41875 25.625  14 25.625  C 7.58125 25.625  2.375 20.41875  2.375 14  C 2.375 7.58125  7.58125 2.375  14 2.375  C 20.41875 2.375  25.625 7.58125  25.625 14  Z M 17.875 7.475  C 17.875 7.35625  17.79375 7.25625  17.678125 7.23125  C 17.18125 7.121875  16.603125 7.0625  15.95 7.0625  C 12.615625 7.0625  10.359375 8.803125  9.74375 11.746875  L 8.75 11.746875  C 8.6125 11.746875  8.5 11.859375  8.5 11.996875  L 8.5 12.846875  C 8.5 12.984375  8.6125 13.096875  8.75 13.096875  L 9.575 13.096875  C 9.565625 13.225  9.565625 13.359375  9.565625 13.496875  L 9.565625 14.65  L 8.75 14.65  C 8.6125 14.65  8.5 14.7625  8.5 14.9  L 8.5 15.75  C 8.5 15.8875  8.6125 16  8.75 16  L 9.69375 16  C 10.23125 19.1  12.51875 20.9375  15.95 20.9375  C 16.603125 20.9375  17.18125 20.884375  17.678125 20.778125  C 17.79375 20.753125  17.878125 20.653125  17.878125 20.534375  L 17.878125 19.196875  C 17.878125 19.040625  17.734375 18.921875  17.58125 18.953125  C 17.121875 19.040625  16.584375 19.08125  15.9625 19.08125  C 13.821875 19.08125  12.384375 17.9375  11.90625 16  L 15.9875 16  C 16.125 16  16.2375 15.8875  16.2375 15.75  L 16.2375 14.9  C 16.2375 14.7625  16.125 14.65  15.9875 14.65  L 11.725 14.65  L 11.725 13.525  C 11.725 13.378125  11.725 13.23125  11.734375 13.09375  L 15.98125 13.09375  C 16.11875 13.09375  16.23125 12.98125  16.23125 12.84375  L 16.23125 11.99375  C 16.23125 11.85625  16.11875 11.74375  15.98125 11.74375  L 11.971875 11.74375  C 12.509375 9.965625  13.91875 8.91875  15.959375 8.91875  C 16.58125 8.91875  17.11875 8.965625  17.575 9.05625  C 17.73125 9.0875  17.875 8.96875  17.875 8.8125  L 17.875 7.475  Z " fill-rule="nonzero" fill="#ffffff" stroke="none" transform="matrix(1 0 0 1 294 1879 )" />
  </g>
</svg>