<?xml version="1.0" encoding="utf-8"?>
<svg version="1.1" xmlns:xlink="http://www.w3.org/1999/xlink" width="22px" height="28px" xmlns="http://www.w3.org/2000/svg">
  <g transform="matrix(1 0 0 1 -297 -1947 )">
    <path d="M 12.68125 13.909375  C 12.578125 13.78125  12.384375 13.78125  12.284375 13.909375  L 9.853125 17.009375  L 8.56875 15.371875  C 8.46875 15.24375  8.275 15.24375  8.175 15.371875  L 5.05625 19.346875  C 4.928125 19.509375  5.04375 19.75  5.253125 19.75  L 16.75 19.75  C 16.959375 19.75  17.075 19.509375  16.946875 19.346875  L 12.68125 13.909375  Z M 6.25 11.8125  C 6.25 12.5028559372885  6.8096440627115 13.0625  7.5 13.0625  C 8.19035593728849 13.0625  8.75 12.5028559372885  8.75 11.8125  C 8.75 11.1221440627115  8.19035593728849 10.5625  7.5 10.5625  C 6.8096440627115 10.5625  6.25 11.1221440627115  6.25 11.8125  Z M 22 7.728125  C 22 7.4625  21.89375 7.20625  21.70625 7.01875  L 14.98125 0.29375  C 14.79375 0.10625  14.540625 0  14.275 0  L 1 0  C 0.446875 0  0 0.446875  0 1  L 0 27  C 0 27.553125  0.446875 28  1 28  L 21 28  C 21.553125 28  22 27.553125  22 27  L 22 7.728125  Z M 13.8125 2.30625  L 19.69375 8.1875  L 13.8125 8.1875  L 13.8125 2.30625  Z M 19.75 10.3125  L 19.75 25.75  L 2.25 25.75  L 2.25 2.25  L 11.6875 2.25  L 11.6875 9  C 11.6875 9.725  12.275 10.3125  13 10.3125  L 19.75 10.3125  Z " fill-rule="nonzero" fill="#ffffff" stroke="none" transform="matrix(1 0 0 1 297 1947 )" />
  </g>
</svg>