<?xml version="1.0" encoding="utf-8"?>
<svg version="1.1" xmlns:xlink="http://www.w3.org/1999/xlink" width="28px" height="25px" xmlns="http://www.w3.org/2000/svg">
  <g transform="matrix(1 0 0 1 -294 -2772 )">
    <path d="M 27.44375 13.803125  C 27.684375 13.296875  27.684375 12.709375  27.446875 12.2  L 27.44375 12.196875  L 27.440625 12.19375  C 26.303125 9.796875  24.940625 7.859375  23.35625 6.38125  L 18.91875 10.81875  C 19.209375 11.4875  19.36875 12.228125  19.36875 13.003125  C 19.36875 16.040625  16.90625 18.503125  13.86875 18.503125  C 13.09375 18.503125  12.353125 18.34375  11.684375 18.053125  L 7.871875 21.865625  C 9.70625 22.74375  11.74375 23.1875  14 23.1875  C 20.00625 23.1875  24.48125 20.046875  27.44375 13.803125  Z M 25.446875 2.16875  C 25.54375 2.075  25.54375 1.915625  25.446875 1.81875  L 24.121875 0.493749999999999  C 24.025 0.396875  23.865625 0.396875  23.76875 0.493749999999999  L 20.11875 4.140625  C 18.29375 3.25625  16.25625 2.8125  14 2.8125  C 7.99375 2.8125  3.51875 5.953125  0.55625 12.196875  L 0.55625 12.2  C 0.315625 12.70625  0.315625 13.3  0.55625 13.809375  C 1.69375 16.20625  3.05625 18.14375  4.640625 19.625  L 1.49375 22.765625  C 1.396875 22.8625  1.396875 23.021875  1.49375 23.11875  L 2.81875 24.44375  C 2.915625 24.540625  3.075 24.540625  3.171875 24.44375  L 25.446875 2.16875  Z M 16.23125 8.028125  L 8.903125 15.35625  C 8.565625 14.640625  8.375 13.84375  8.375 13  C 8.375 9.9625  10.8375 7.5  13.875 7.5  C 14.71875 7.5  15.515625 7.690625  16.23125 8.028125  Z " fill-rule="nonzero" fill="#ffffff" stroke="none" transform="matrix(1 0 0 1 294 2772 )" />
  </g>
</svg>