<?xml version="1.0" encoding="utf-8"?>
<svg version="1.1" xmlns:xlink="http://www.w3.org/1999/xlink" width="24px" height="30px" xmlns="http://www.w3.org/2000/svg">
  <g transform="matrix(1 0 0 1 -296 -2356 )">
    <path d="M 23.55625 4.971875  C 23.5625 4.696875  23.35 4.4  23.090625 4.309375  L 12.471875 0.690625  C 12.34375 0.646875  12.171875 0.625  12 0.625  C 11.828125 0.625  11.65625 0.646875  11.528125 0.690625  L 0.909375 4.309375  C 0.649999999999999 4.396875  0.4375 4.696875  0.4375 4.971875  L 0.4375 20.046875  C 0.4375 20.321875  0.615625 20.684375  0.83125 20.85625  L 11.603125 29.25  C 11.7125 29.334375  11.853125 29.378125  11.996875 29.378125  C 12.140625 29.378125  12.284375 29.334375  12.390625 29.25  L 23.1625 20.85625  C 23.378125 20.6875  23.55625 20.325  23.55625 20.046875  L 23.55625 4.971875  Z M 21 6.084375  L 21 19.446875  L 12 26.703125  L 3 19.446875  L 3 6.084375  L 12 2.909375  L 21 6.084375  Z M 9.21875 9.94375  C 7.703125 11.459375  7.49375 13.7875  8.590625 15.525  L 6.16875 17.946875  C 6.071875 18.04375  6.071875 18.203125  6.16875 18.3  L 7.23125 19.3625  C 7.328125 19.459375  7.4875 19.459375  7.584375 19.3625  L 10.00625 16.940625  C 11.746875 18.0375  14.071875 17.828125  15.5875 16.3125  C 17.346875 14.553125  17.346875 11.703125  15.5875 9.94375  C 13.828125 8.184375  10.978125 8.184375  9.21875 9.94375  Z M 10.634375 14.896875  C 9.659375 13.91875  9.65625 12.3375  10.634375 11.359375  C 11.6125 10.38125  13.196875 10.38125  14.171875 11.359375  C 15.15 12.3375  15.15 13.921875  14.171875 14.896875  C 13.19375 15.875  11.609375 15.875  10.634375 14.896875  Z " fill-rule="nonzero" fill="#ffffff" stroke="none" transform="matrix(1 0 0 1 296 2356 )" />
  </g>
</svg>