<?xml version="1.0" encoding="utf-8"?>
<svg version="1.1" xmlns:xlink="http://www.w3.org/1999/xlink" width="30px" height="28px" xmlns="http://www.w3.org/2000/svg">
  <g transform="matrix(1 0 0 1 -944 -2221 )">
    <path d="M 13.5 14  C 13.5 14.8284271247462  14.1715728752538 15.5  15 15.5  C 15.8284271247462 15.5  16.5 14.8284271247462  16.5 14  C 16.5 13.1715728752538  15.8284271247462 12.5  15 12.5  C 14.1715728752538 12.5  13.5 13.1715728752538  13.5 14  Z M 19.75 14  C 19.75 14.8284271247462  20.4215728752538 15.5  21.25 15.5  C 22.0784271247462 15.5  22.75 14.8284271247462  22.75 14  C 22.75 13.1715728752538  22.0784271247462 12.5  21.25 12.5  C 20.4215728752538 12.5  19.75 13.1715728752538  19.75 14  Z M 7.25 14  C 7.25 14.8284271247462  7.92157287525381 15.5  8.75 15.5  C 9.57842712474619 15.5  10.25 14.8284271247462  10.25 14  C 10.25 13.1715728752538  9.57842712474619 12.5  8.75 12.5  C 7.92157287525381 12.5  7.25 13.1715728752538  7.25 14  Z M 29 14.0625  C 29.009375 12.159375  28.640625 10.3125  27.9125 8.575  C 27.20625 6.896875  26.19375 5.390625  24.903125 4.096875  C 23.6125 2.80625  22.10625 1.790625  20.425 1.0875  C 18.70625 0.365625  16.88125 0  15 0  L 14.9375 0  C 13.04375 0.00937499999999991  11.209375 0.384375  9.484375 1.121875  C 7.81875 1.834375  6.325 2.846875  5.046875 4.1375  C 3.76875 5.428125  2.765625 6.928125  2.071875 8.6  C 1.353125 10.33125  0.990625 12.171875  1 14.065625  C 1.009375 16.234375  1.528125 18.3875  2.5 20.3125  L 2.5 25.0625  C 2.5 25.85625  3.14375 26.5  3.9375 26.5  L 8.690625 26.5  C 10.615625 27.471875  12.76875 27.990625  14.9375 28  L 15.003125 28  C 16.875 28  18.690625 27.6375  20.4 26.928125  C 22.071875 26.23125  23.575 25.23125  24.8625 23.953125  C 26.153125 22.675  27.16875 21.18125  27.878125 19.515625  C 28.615625 17.790625  28.990625 15.95625  29 14.0625  Z M 26.63125 14.053125  C 26.6125 17.165625  25.390625 20.08125  23.190625 22.2625  C 21 24.43125  18.09375 25.625  15 25.625  L 14.946875 25.625  C 13.0625 25.615625  11.190625 25.146875  9.5375 24.265625  L 9.275 24.125  L 4.875 24.125  L 4.875 19.725  L 4.734375 19.4625  C 3.853125 17.809375  3.384375 15.9375  3.375 14.053125  C 3.3625 10.9375  4.553125 8.0125  6.7375 5.809375  C 8.91875 3.60625  11.834375 2.3875  14.95 2.375  L 15.003125 2.375  C 16.565625 2.375  18.08125 2.678125  19.509375 3.278125  C 20.903125 3.8625  22.153125 4.703125  23.228125 5.778125  C 24.3 6.85  25.14375 8.103125  25.728125 9.496875  C 26.334375 10.940625  26.6375 12.471875  26.63125 14.053125  Z " fill-rule="nonzero" fill="#ffffff" stroke="none" transform="matrix(1 0 0 1 944 2221 )" />
  </g>
</svg>