<?xml version="1.0" encoding="utf-8"?>
<svg version="1.1" xmlns:xlink="http://www.w3.org/1999/xlink" width="28px" height="26px" xmlns="http://www.w3.org/2000/svg">
  <g transform="matrix(1 0 0 1 -945 -2016 )">
    <path d="M 27.496875 9.046875  C 27.5 7.94375  27.278125 6.871875  26.84375 5.8625  C 26.425 4.890625  25.825 4.021875  25.065625 3.275  C 24.30625 2.53125  23.425 1.95  22.440625 1.540625  C 21.425 1.11875  20.35 0.90625  19.240625 0.90625  C 17.7 0.90625  16.196875 1.328125  14.890625 2.125  C 14.578125 2.315625  14.28125 2.525  14 2.753125  C 13.71875 2.525  13.421875 2.315625  13.109375 2.125  C 11.803125 1.328125  10.3 0.90625  8.759375 0.90625  C 7.65 0.90625  6.575 1.11875  5.559375 1.540625  C 4.578125 1.946875  3.69375 2.53125  2.934375 3.275  C 2.171875 4.021875  1.575 4.890625  1.15625 5.8625  C 0.721875 6.871875  0.5 7.94375  0.5 9.046875  C 0.5 10.0875  0.7125 11.171875  1.134375 12.275  C 1.4875 13.196875  1.99375 14.153125  2.640625 15.11875  C 3.665625 16.646875  5.075 18.240625  6.825 19.85625  C 9.725 22.534375  12.596875 24.384375  12.71875 24.459375  L 13.459375 24.934375  C 13.7875 25.14375  14.209375 25.14375  14.5375 24.934375  L 15.278125 24.459375  C 15.4 24.38125  18.26875 22.534375  21.171875 19.85625  C 22.921875 18.240625  24.33125 16.646875  25.35625 15.11875  C 26.003125 14.153125  26.5125 13.196875  26.8625 12.275  C 27.284375 11.171875  27.496875 10.0875  27.496875 9.046875  Z M 25.125 9.046875  C 25.125 15.334375  14 22.4625  14 22.4625  C 14 22.4625  2.875 15.334375  2.875 9.046875  C 2.875 5.8625  5.509375 3.28125  8.759375 3.28125  C 11.04375 3.28125  13.025 4.55625  14 6.41875  C 14.975 4.55625  16.95625 3.28125  19.240625 3.28125  C 22.490625 3.28125  25.125 5.8625  25.125 9.046875  Z " fill-rule="nonzero" fill="#ffffff" stroke="none" transform="matrix(1 0 0 1 945 2016 )" />
  </g>
</svg>