<?xml version="1.0" encoding="utf-8"?>
<svg version="1.1" xmlns:xlink="http://www.w3.org/1999/xlink" width="28px" height="28px" xmlns="http://www.w3.org/2000/svg">
  <g transform="matrix(1 0 0 1 -945 -2083 )">
    <path d="M 24.596875 23.14375  C 24.634375 23.103125  24.66875 23.065625  24.7 23.028125  C 24.70625 23.01875  24.715625 23.009375  24.721875 23  C 26.76875 20.565625  28 17.428125  28 14  C 28 10.571875  26.76875 7.434375  24.725 5  C 24.71875 4.990625  24.709375 4.984375  24.703125 4.975  C 24.66875 4.934375  24.6375 4.896875  24.603125 4.859375  C 24.590625 4.84375  24.578125 4.83125  24.565625 4.815625  C 24.521875 4.765625  24.48125 4.71875  24.4375 4.66875  L 24.434375 4.665625  C 24.3875 4.6125  24.3375 4.559375  24.290625 4.50625  L 24.2875 4.503125  C 24.1875 4.396875  24.0875 4.290625  23.984375 4.1875  L 23.98125 4.184375  L 23.83125 4.034375  L 23.821875 4.025  C 23.775 3.978125  23.728125 3.934375  23.68125 3.890625  C 23.665625 3.875  23.65 3.859375  23.63125 3.84375  C 23.6 3.8125  23.56875 3.784375  23.5375 3.75625  C 23.528125 3.746875  23.515625 3.7375  23.50625 3.725  C 21.0125 1.4125  17.671875 0  14 0  C 10.328125 0  6.9875 1.4125  4.490625 3.725  C 4.48125 3.734375  4.46875 3.74375  4.459375 3.75625  C 4.428125 3.784375  4.396875 3.815625  4.365625 3.846875  C 4.35 3.8625  4.334375 3.878125  4.315625 3.89375  C 4.26875 3.9375  4.221875 3.984375  4.175 4.028125  L 4.165625 4.0375  L 4.015625 4.1875  L 4.0125 4.190625  C 3.909375 4.29375  3.809375 4.4  3.709375 4.50625  L 3.70625 4.509375  C 3.65625 4.5625  3.609375 4.615625  3.5625 4.66875  L 3.559375 4.671875  C 3.515625 4.71875  3.471875 4.76875  3.43125 4.81875  C 3.41875 4.834375  3.40625 4.846875  3.39375 4.8625  C 3.359375 4.9  3.328125 4.940625  3.29375 4.978125  C 3.2875 4.9875  3.278125 4.99375  3.271875 5.003125  C 1.23125 7.434375  0 10.571875  0 14  C 0 17.428125  1.23125 20.565625  3.275 23  C 3.28125 23.009375  3.290625 23.01875  3.296875 23.028125  C 3.328125 23.065625  3.3625 23.10625  3.39375 23.14375  C 3.40625 23.159375  3.41875 23.171875  3.43125 23.1875  C 3.475 23.2375  3.515625 23.284375  3.559375 23.334375  C 3.559375 23.3375  3.5625 23.3375  3.5625 23.340625  C 3.609375 23.39375  3.65625 23.446875  3.70625 23.496875  L 3.709375 23.5  C 3.809375 23.60625  3.909375 23.7125  4.009375 23.815625  L 4.0125 23.81875  C 4.0625 23.86875  4.109375 23.91875  4.159375 23.965625  L 4.16875 23.975  C 4.271875 24.078125  4.378125 24.178125  4.484375 24.275  C 6.9875 26.5875  10.328125 28  14 28  C 17.671875 28  21.0125 26.5875  23.509375 24.275  C 23.615625 24.178125  23.71875 24.078125  23.821875 23.975  L 23.83125 23.965625  C 23.88125 23.915625  23.93125 23.86875  23.978125 23.81875  L 23.98125 23.815625  C 24.084375 23.7125  24.184375 23.60625  24.28125 23.5  L 24.284375 23.496875  C 24.33125 23.44375  24.38125 23.39375  24.428125 23.340625  C 24.428125 23.3375  24.43125 23.3375  24.43125 23.334375  C 24.475 23.2875  24.51875 23.2375  24.559375 23.1875  C 24.571875 23.171875  24.584375 23.159375  24.596875 23.14375  Z M 25.71875 14.875  C 25.625 16.153125  25.325 17.39375  24.828125 18.571875  C 24.396875 19.590625  23.828125 20.534375  23.134375 21.390625  C 22.35625 20.71875  21.503125 20.13125  20.5875 19.64375  C 20.95 18.178125  21.175 16.56875  21.234375 14.875  L 25.71875 14.875  Z M 24.828125 9.428125  C 25.325 10.60625  25.625 11.846875  25.71875 13.125  L 21.234375 13.125  C 21.175 11.43125  20.95 9.821875  20.5875 8.35625  C 21.503125 7.86875  22.35625 7.28125  23.134375 6.609375  C 23.828125 7.465625  24.396875 8.409375  24.828125 9.428125  Z M 18.228125 3.034375  C 18.34375 3.078125  18.459375 3.125  18.571875 3.171875  C 19.8125 3.696875  20.940625 4.421875  21.934375 5.334375  C 21.35625 5.828125  20.734375 6.2625  20.078125 6.640625  C 19.5875 5.234375  18.959375 4.0125  18.228125 3.034375  Z M 17.584375 22.71875  C 17.040625 23.73125  16.403125 24.540625  15.740625 25.065625  C 15.453125 25.290625  15.165625 25.4625  14.875 25.578125  L 14.875 19.78125  C 16.121875 19.86875  17.33125 20.14375  18.490625 20.6  C 18.23125 21.36875  17.93125 22.078125  17.584375 22.71875  Z M 15.740625 2.9375  C 16.403125 3.459375  17.040625 4.26875  17.584375 5.28125  C 17.928125 5.925  18.23125 6.634375  18.490625 7.4  C 17.33125 7.85625  16.121875 8.13125  14.875 8.21875  L 14.875 2.425  C 15.1625 2.540625  15.453125 2.709375  15.740625 2.9375  Z M 18.965625 18.90625  C 17.68125 18.41875  16.30625 18.115625  14.875 18.028125  L 14.875 14.875  L 19.484375 14.875  C 19.434375 16.25625  19.2625 17.596875  18.975 18.86875  L 18.965625 18.90625  Z M 19.484375 13.125  L 14.875 13.125  L 14.875 9.971875  C 16.30625 9.884375  17.68125 9.58125  18.965625 9.09375  L 18.975 9.13125  C 19.2625 10.403125  19.434375 11.740625  19.484375 13.125  Z M 8.515625 14.875  L 13.125 14.875  L 13.125 18.028125  C 11.69375 18.115625  10.31875 18.41875  9.034375 18.90625  L 9.025 18.86875  C 8.7375 17.596875  8.565625 16.259375  8.515625 14.875  Z M 13.125 13.125  L 8.515625 13.125  C 8.565625 11.74375  8.7375 10.403125  9.025 9.13125  L 9.034375 9.09375  C 10.31875 9.58125  11.690625 9.884375  13.125 9.971875  L 13.125 13.125  Z M 9.50625 20.596875  C 10.66875 20.140625  11.878125 19.86875  13.125 19.78125  L 13.125 25.575  C 12.8375 25.459375  12.546875 25.290625  12.259375 25.0625  C 11.596875 24.540625  10.95625 23.728125  10.4125 22.715625  C 10.06875 22.071875  9.765625 21.3625  9.50625 20.596875  Z M 13.128125 8.21875  L 13.125 8.21875  C 11.878125 8.13125  10.66875 7.85625  9.509375 7.4  C 9.76875 6.63125  10.06875 5.921875  10.415625 5.28125  C 10.959375 4.26875  11.596875 3.45625  12.2625 2.934375  C 12.55 2.709375  12.8375 2.5375  13.128125 2.421875  L 13.128125 8.21875  Z M 6.065625 5.334375  C 7.059375 4.421875  8.1875 3.696875  9.428125 3.171875  C 9.54375 3.125  9.65625 3.078125  9.771875 3.034375  C 9.040625 4.0125  8.4125 5.234375  7.921875 6.640625  C 7.265625 6.265625  6.64375 5.828125  6.065625 5.334375  Z M 2.28125 13.125  C 2.375 11.846875  2.675 10.60625  3.171875 9.428125  C 3.603125 8.409375  4.171875 7.465625  4.865625 6.609375  C 5.64375 7.28125  6.496875 7.86875  7.4125 8.35625  C 7.05 9.821875  6.825 11.43125  6.765625 13.125  L 2.28125 13.125  Z M 3.171875 18.571875  C 2.675 17.39375  2.375 16.153125  2.28125 14.875  L 6.765625 14.875  C 6.825 16.56875  7.05 18.178125  7.4125 19.64375  C 6.496875 20.13125  5.64375 20.71875  4.865625 21.390625  C 4.171875 20.534375  3.603125 19.590625  3.171875 18.571875  Z M 9.771875 24.965625  C 9.65625 24.921875  9.540625 24.875  9.428125 24.828125  C 8.1875 24.303125  7.059375 23.578125  6.065625 22.665625  C 6.64375 22.171875  7.265625 21.7375  7.921875 21.359375  C 8.4125 22.765625  9.040625 23.9875  9.771875 24.965625  Z M 21.934375 22.665625  C 20.940625 23.578125  19.8125 24.303125  18.571875 24.828125  C 18.45625 24.875  18.34375 24.921875  18.228125 24.965625  C 18.959375 23.9875  19.5875 22.765625  20.078125 21.359375  C 20.734375 21.734375  21.35625 22.171875  21.934375 22.665625  Z " fill-rule="nonzero" fill="#000000" stroke="none" transform="matrix(1 0 0 1 945 2083 )" />
  </g>
</svg>