<?xml version="1.0" encoding="utf-8"?>
<svg version="1.1" xmlns:xlink="http://www.w3.org/1999/xlink" width="25px" height="25px" xmlns="http://www.w3.org/2000/svg">
  <g transform="matrix(1 0 0 1 -947 -2772 )">
    <path d="M 16.175 19.03125  L 14.9375 17.79375  C 14.840625 17.696875  14.68125 17.696875  14.584375 17.79375  L 10.953125 21.425  C 9.271875 23.10625  6.434375 23.284375  4.578125 21.425  C 2.71875 19.565625  2.896875 16.73125  4.578125 15.05  L 8.209375 11.41875  C 8.30625 11.321875  8.30625 11.1625  8.209375 11.065625  L 6.965625 9.821875  C 6.86875 9.725  6.709375 9.725  6.6125 9.821875  L 2.98125 13.453125  C 0.3375 16.096875  0.3375 20.375  2.98125 23.015625  C 5.625 25.65625  9.903125 25.659375  12.54375 23.015625  L 16.175 19.384375  C 16.271875 19.2875  16.271875 19.128125  16.175 19.03125  Z M 23.01875 12.546875  C 25.659375 9.903125  25.659375 5.625  23.01875 2.98125  C 20.375 0.3375  16.096875 0.3375  13.45625 2.98125  L 9.821875 6.6125  C 9.725 6.709375  9.725 6.86875  9.821875 6.965625  L 11.0625 8.20625  C 11.159375 8.303125  11.31875 8.303125  11.415625 8.20625  L 15.046875 4.575  C 16.728125 2.89375  19.565625 2.715625  21.421875 4.575  C 23.28125 6.434375  23.103125 9.26875  21.421875 10.95  L 17.790625 14.58125  C 17.69375 14.678125  17.69375 14.8375  17.790625 14.934375  L 19.034375 16.178125  C 19.13125 16.275  19.290625 16.275  19.3875 16.178125  L 23.01875 12.546875  Z M 17.3 9.871875  L 16.065625 8.634375  C 15.96875 8.5375  15.809375 8.5375  15.7125 8.634375  L 8.634375 15.709375  C 8.5375 15.80625  8.5375 15.965625  8.634375 16.0625  L 9.871875 17.3  C 9.96875 17.396875  10.128125 17.396875  10.225 17.3  L 17.3 10.225  C 17.396875 10.128125  17.396875 9.96875  17.3 9.871875  Z " fill-rule="nonzero" fill="#000000" stroke="none" transform="matrix(1 0 0 1 947 2772 )" />
  </g>
</svg>