<?xml version="1.0" encoding="utf-8"?>
<svg version="1.1" xmlns:xlink="http://www.w3.org/1999/xlink" width="28px" height="22px" xmlns="http://www.w3.org/2000/svg">
  <g transform="matrix(1 0 0 1 -945 -2360 )">
    <path d="M 28 1  C 28 0.446875  27.553125 0  27 0  L 1 0  C 0.446875 0  0 0.446875  0 1  L 0 21  C 0 21.553125  0.446875 22  1 22  L 27 22  C 27.553125 22  28 21.553125  28 21  L 28 1  Z M 25.75 2.25  L 25.75 6.5  L 19.125 6.5  L 19.125 2.25  L 25.75 2.25  Z M 25.75 8.5  L 25.75 13.5  L 19.125 13.5  L 19.125 8.5  L 25.75 8.5  Z M 10.875 13.5  L 10.875 8.5  L 17.125 8.5  L 17.125 13.5  L 10.875 13.5  Z M 17.125 2.25  L 17.125 6.5  L 10.875 6.5  L 10.875 2.25  L 17.125 2.25  Z M 2.25 13.5  L 2.25 8.5  L 8.875 8.5  L 8.875 13.5  L 2.25 13.5  Z M 2.25 6.5  L 2.25 2.25  L 8.875 2.25  L 8.875 6.5  L 2.25 6.5  Z M 2.25 19.75  L 2.25 15.5  L 8.875 15.5  L 8.875 19.75  L 2.25 19.75  Z M 10.875 19.75  L 10.875 15.5  L 17.125 15.5  L 17.125 19.75  L 10.875 19.75  Z M 25.75 15.5  L 25.75 19.75  L 19.125 19.75  L 19.125 15.5  L 25.75 15.5  Z " fill-rule="nonzero" fill="#000000" stroke="none" transform="matrix(1 0 0 1 945 2360 )" />
  </g>
</svg>