<?xml version="1.0" encoding="utf-8"?>
<svg version="1.1" xmlns:xlink="http://www.w3.org/1999/xlink" width="28px" height="26px" xmlns="http://www.w3.org/2000/svg">
  <g transform="matrix(1 0 0 1 -1039 -2222 )">
    <path d="M 27.78125 10.125  C 27.78125 9.9875  27.66875 9.875  27.53125 9.875  L 19.53125 9.875  C 19.39375 9.875  19.28125 9.9875  19.28125 10.125  L 19.28125 11.625  C 19.28125 11.7625  19.39375 11.875  19.53125 11.875  L 27.53125 11.875  C 27.66875 11.875  27.78125 11.7625  27.78125 11.625  L 27.78125 10.125  Z M 23.59375 14.375  C 23.59375 14.2375  23.48125 14.125  23.34375 14.125  L 19.53125 14.125  C 19.39375 14.125  19.28125 14.2375  19.28125 14.375  L 19.28125 15.875  C 19.28125 16.0125  19.39375 16.125  19.53125 16.125  L 23.34375 16.125  C 23.48125 16.125  23.59375 16.0125  23.59375 15.875  L 23.59375 14.375  Z M 13.2625 7.428125  C 13.265625 7.234375  13.10625 7.078125  12.915625 7.078125  L 11.5625 7.078125  C 11.36875 7.078125  11.2125 7.234375  11.2125 7.428125  L 11.2125 15.178125  C 11.2125 15.290625  11.265625 15.39375  11.35625 15.459375  L 16.009375 18.853125  C 16.165625 18.965625  16.384375 18.934375  16.496875 18.778125  L 17.3 17.68125  L 17.3 17.678125  C 17.4125 17.521875  17.378125 17.303125  17.221875 17.190625  L 13.2625 14.328125  L 13.2625 7.428125  Z M 23.40625 18.475  C 23.503125 18.284375  23.3625 18.059375  23.15 18.059375  L 21.34375 18.059375  C 21.16875 18.059375  21.003125 18.15  20.909375 18.3  C 20.5125 18.928125  20.05 19.509375  19.51875 20.040625  C 18.603125 20.95625  17.5375 21.675  16.353125 22.175  C 15.125 22.69375  13.821875 22.95625  12.478125 22.95625  C 11.13125 22.95625  9.828125 22.69375  8.603125 22.175  C 7.41875 21.675  6.353125 20.95625  5.4375 20.040625  C 4.521875 19.125  3.803125 18.059375  3.303125 16.875  C 2.784375 15.65  2.521875 14.346875  2.521875 13  C 2.521875 11.653125  2.784375 10.353125  3.303125 9.125  C 3.803125 7.940625  4.521875 6.875  5.4375 5.959375  C 6.353125 5.04375  7.41875 4.325  8.603125 3.825  C 9.828125 3.30625  11.134375 3.04375  12.478125 3.04375  C 13.825 3.04375  15.128125 3.30625  16.353125 3.825  C 17.5375 4.325  18.603125 5.04375  19.51875 5.959375  C 20.05 6.490625  20.5125 7.071875  20.909375 7.7  C 21.003125 7.85  21.16875 7.940625  21.34375 7.940625  L 23.15 7.940625  C 23.365625 7.940625  23.503125 7.715625  23.40625 7.525  C 21.36875 3.471875  17.2375 0.837500000000002  12.625 0.784375000000002  C 5.871875 0.700000000000002  0.262499999999999 6.228125  0.25 12.975  C 0.2375 19.734375  5.715625 25.21875  12.475 25.21875  C 17.146875 25.21875  21.346875 22.575  23.40625 18.475  Z " fill-rule="nonzero" fill="#ffffff" stroke="none" transform="matrix(1 0 0 1 1039 2222 )" />
  </g>
</svg>