<?xml version="1.0" encoding="utf-8"?>
<svg version="1.1" xmlns:xlink="http://www.w3.org/1999/xlink" width="22px" height="28px" xmlns="http://www.w3.org/2000/svg">
  <g transform="matrix(1 0 0 1 -1042 -2015 )">
    <path d="M 22 17.065625  C 22 15.540625  21.6875 14.059375  21.065625 12.6625  C 20.45625 11.29375  19.584375 10.08125  18.475 9.0625  L 17.565625 8.228125  C 17.43125 8.109375  17.21875 8.1625  17.159375 8.33125  L 16.753125 9.496875  C 16.5 10.228125  16.034375 10.975  15.375 11.709375  C 15.33125 11.75625  15.28125 11.76875  15.246875 11.771875  C 15.2125 11.775  15.159375 11.76875  15.1125 11.725  C 15.06875 11.6875  15.046875 11.63125  15.05 11.575  C 15.165625 9.69375  14.603125 7.571875  13.371875 5.2625  C 12.353125 3.34375  10.9375 1.846875  9.16875 0.803125  L 7.878125 0.0437500000000002  C 7.709375 -0.0562499999999999  7.49375 0.0750000000000002  7.503125 0.271875  L 7.571875 1.771875  C 7.61875 2.796875  7.5 3.703125  7.21875 4.45625  C 6.875 5.378125  6.38125 6.234375  5.75 7.003125  C 5.30625 7.540625  4.809375 8.025  4.265625 8.44375  C 2.95 9.453125  1.865625 10.76875  1.13125 12.240625  C 0.390625 13.728125  0 15.39375  0 17.0625  C 0 18.5375  0.290625 19.965625  0.865625 21.3125  C 1.421875 22.609375  2.215625 23.778125  3.225 24.778125  C 4.2375 25.778125  5.4125 26.565625  6.721875 27.1125  C 8.078125 27.68125  9.515625 27.96875  11 27.96875  C 12.484375 27.96875  13.921875 27.68125  15.278125 27.115625  C 16.5875 26.56875  17.765625 25.784375  18.775 24.78125  C 19.7875 23.78125  20.58125 22.6125  21.134375 21.315625  C 21.709375 19.96875  22 18.540625  22 17.065625  Z M 19.875 17.065625  C 19.875 19.40625  18.953125 21.609375  17.28125 23.265625  C 15.603125 24.928125  13.375 25.840625  11 25.840625  C 8.625 25.840625  6.396875 24.928125  4.71875 23.265625  C 3.046875 21.60625  2.125 19.40625  2.125 17.065625  C 2.125 15.70625  2.43125 14.403125  3.034375 13.190625  C 3.621875 12.00625  4.496875 10.946875  5.559375 10.13125  C 6.23125 9.61875  6.846875 9.021875  7.390625 8.35625  C 8.171875 7.403125  8.784375 6.340625  9.209375 5.2  C 9.378125 4.746875  9.50625 4.2625  9.5875 3.746875  C 10.340625 4.440625  10.971875 5.278125  11.5 6.259375  C 12.54375 8.215625  13.025 9.95625  12.93125 11.4375  C 12.8875 12.15  13.165625 12.828125  13.69375 13.30625  C 14.153125 13.71875  14.746875 13.928125  15.3625 13.89375  C 15.978125 13.8625  16.54375 13.590625  16.95625 13.13125  C 17.371875 12.665625  17.73125 12.190625  18.03125 11.70625  C 18.46875 12.265625  18.834375 12.875  19.125 13.53125  C 19.621875 14.65  19.875 15.840625  19.875 17.065625  Z " fill-rule="nonzero" fill="#ffffff" stroke="none" transform="matrix(1 0 0 1 1042 2015 )" />
  </g>
</svg>