<?xml version="1.0" encoding="utf-8"?>
<svg version="1.1" xmlns:xlink="http://www.w3.org/1999/xlink" width="26px" height="26px" xmlns="http://www.w3.org/2000/svg">
  <g transform="matrix(1 0 0 1 -1040 -1608 )">
    <path d="M 25 3.75  C 25.5 3.196875  25.053125 2.75  24.5 2.75  L 19.25 2.75  L 19.25 0.75  C 19.25 0.6125  19.1375 0.5  19 0.5  L 17.25 0.5  C 17.1125 0.5  17 0.6125  17 0.75  L 17 2.75  L 9 2.75  L 9 0.75  C 9 0.6125  8.8875 0.5  8.75 0.5  L 7 0.5  C 6.8625 0.5  6.75 0.6125  6.75 0.75  L 6.75 2.75  L 1.5 2.75  C 0.946875 2.75  0.5 3.196875  1 3.75  L 1 24.5  C 0.5 25.053125  0.946875 25.5  1.5 25  L 24.5 25  C 25.053125 25.5  25.5 25.053125  25 24.5  L 25 3.75  Z M 23 11.375  L 23 23  L 3 23  L 3 11.375  L 23 11.375  Z M 23.25 9.25  L 2.75 9.25  L 2.75 5  L 6.75 5  L 6.75 6.5  C 6.75 6.6375  6.8625 6.75  7 6.75  L 8.75 6.75  C 8.8875 6.75  9 6.6375  9 6.5  L 9 5  L 17 5  L 17 6.5  C 17 6.6375  17.1125 6.75  17.25 6.75  L 19 6.75  C 19.1375 6.75  19.25 6.6375  19.25 6.5  L 19.25 5  L 23.25 5  L 23.25 9.25  Z " fill-rule="nonzero" fill="#000000" stroke="none" transform="matrix(1 0 0 1 1040 1608 )" />
  </g>
</svg>