<?xml version="1.0" encoding="utf-8"?>
<svg version="1.1" xmlns:xlink="http://www.w3.org/1999/xlink" width="29px" height="22px" xmlns="http://www.w3.org/2000/svg">
  <g transform="matrix(1 0 0 1 -1038 -2704 )">
    <path d="M 20.621875 14.740625  C 20.709375 14.6375  20.696875 14.48125  20.59375 14.390625  C 18.8375 12.8625  16.54375 11.9375  14.03125 11.9375  C 11.51875 11.9375  9.225 12.8625  7.465625 14.39375  C 7.365625 14.48125  7.353125 14.6375  7.440625 14.74375  L 8.565625 16.084375  C 8.65625 16.190625  8.815625 16.203125  8.921875 16.1125  C 10.284375 14.9125  12.071875 14.1875  14.03125 14.1875  C 15.990625 14.1875  17.778125 14.9125  19.140625 16.109375  C 19.246875 16.2  19.40625 16.1875  19.496875 16.08125  L 20.621875 14.740625  Z M 24.29375 10.365625  C 24.38125 10.259375  24.36875 10.1  24.2625 10.0125  C 21.490625 7.703125  17.925 6.3125  14.03125 6.3125  C 10.1375 6.3125  6.571875 7.703125  3.796875 10.0125  C 3.690625 10.1  3.678125 10.259375  3.765625 10.365625  L 4.890625 11.70625  C 4.978125 11.8125  5.1375 11.825  5.240625 11.7375  C 7.625 9.75625  10.690625 8.5625  14.03125 8.5625  C 17.371875 8.5625  20.4375 9.75625  22.81875 11.7375  C 22.925 11.825  23.08125 11.8125  23.16875 11.70625  L 24.29375 10.365625  Z M 27.94375 6.021875  C 28.034375 5.915625  28.01875 5.75625  27.909375 5.66875  C 24.115625 2.55625  19.259375 0.6875  13.96875 0.6875  C 8.7125 0.6875  3.8875 2.53125  0.103125 5.60625  C -0.00624999999999964 5.69375  -0.0218749999999996 5.853125  0.0687500000000005 5.9625  L 1.19375 7.303125  C 1.28125 7.40625  1.4375 7.421875  1.540625 7.3375  C 4.9375 4.584375  9.259375 2.9375  13.96875 2.9375  C 18.7125 2.9375  23.0625 4.609375  26.46875 7.396875  C 26.575 7.484375  26.73125 7.46875  26.81875 7.3625  L 27.94375 6.021875  Z M 12 19.3125  C 12 20.4170694996616  12.8954305003384 21.3125  14 21.3125  C 15.1045694996616 21.3125  16 20.4170694996616  16 19.3125  C 16 18.2079305003384  15.1045694996616 17.3125  14 17.3125  C 12.8954305003384 17.3125  12 18.2079305003384  12 19.3125  Z " fill-rule="nonzero" fill="#000000" stroke="none" transform="matrix(1 0 0 1 1038 2704 )" />
  </g>
</svg>