<?xml version="1.0" encoding="utf-8"?>
<svg version="1.1" xmlns:xlink="http://www.w3.org/1999/xlink" width="26px" height="26px" xmlns="http://www.w3.org/2000/svg">
  <g transform="matrix(1 0 0 1 -1040 -2084 )">
    <path d="M 25 1.5  C 25.5 0.946875  25.053125 0.5  24.5 1  L 1.5 1  C 0.946875 0.5  0.5 0.946875  1 1.5  L 1 24.5  C 0.5 25.053125  0.946875 25.5  1.5 25  L 24.5 25  C 25.053125 25.5  25.5 25.053125  25 24.5  L 25 1.5  Z M 23 3  L 23 23  L 3 23  L 3 3  L 23 3  Z M 6.3125 13.15625  C 6.3125 13.28125  6.40625 13.375  6.525 13.375  L 8.109375 13.375  C 8.225 13.375  8.321875 13.28125  8.321875 13.1625  L 8.321875 10.696875  C 8.321875 10.08125  8.81875 9.584375  9.43125 9.584375  L 15.859375 9.584375  L 15.859375 11.253125  C 15.859375 11.43125  16.0625 11.528125  16.2 11.41875  L 19.609375 8.740625  C 19.71875 8.65625  19.71875 8.490625  19.609375 8.40625  L 16.2 5.728125  C 16.0625 5.61875  15.859375 5.71875  15.859375 5.89375  L 15.859375 7.5625  L 9.428125 7.5625  C 7.70625 7.5625  6.3125 8.9625  6.3125 10.690625  L 6.3125 13.15625  Z M 6.39375 17.2625  C 6.284375 17.340625  6.284375 17.50625  6.39375 17.590625  L 9.803125 20.26875  C 9.940625 20.378125  10.14375 20.278125  10.14375 20.103125  L 10.14375 18.434375  L 16.571875 18.434375  C 18.29375 18.434375  19.6875 17.034375  19.6875 15.30625  L 19.6875 12.840625  C 19.6875 12.725  19.59375 12.628125  19.475 12.628125  L 17.890625 12.628125  C 17.775 12.628125  17.678125 12.721875  17.678125 12.840625  L 17.678125 15.30625  C 17.678125 15.921875  17.18125 16.41875  16.56875 16.41875  L 10.14375 16.41875  L 10.14375 14.75  C 10.14375 14.571875  9.940625 14.475  9.803125 14.584375  L 6.39375 17.2625  Z " fill-rule="nonzero" fill="#ffffff" stroke="none" transform="matrix(1 0 0 1 1040 2084 )" />
  </g>
</svg>