<?xml version="1.0" encoding="utf-8"?>
<svg version="1.1" xmlns:xlink="http://www.w3.org/1999/xlink" width="28px" height="28px" xmlns="http://www.w3.org/2000/svg">
  <g transform="matrix(1 0 0 1 -1039 -2770 )">
    <path d="M 27.33125 14.265625  C 27.453125 14.015625  27.353125 13.715625  27.10625 13.590625  L 0.965625 0.484375  C 0.859375 0.43125  0.7375 0.41875  0.621875 0.446875  C 0.35625 0.5125  0.190625 0.78125  0.25625 1.05  L 2.95 12.05625  C 2.990625 12.221875  3.1125 12.35625  3.275 12.409375  L 7.890625 13.99375  L 3.278125 15.578125  C 3.115625 15.634375  2.99375 15.765625  2.95625 15.93125  L 0.25625 26.953125  C 0.228125 27.06875  0.240625 27.190625  0.29375 27.29375  C 0.415625 27.540625  0.715625 27.640625  0.965625 27.51875  L 27.10625 14.4875  C 27.203125 14.440625  27.28125 14.359375  27.33125 14.265625  Z M 22.96875 14.034375  L 3.3375 23.821875  L 4.909375 17.396875  L 14.134375 14.23125  C 14.20625 14.20625  14.265625 14.15  14.290625 14.075  C 14.334375 13.94375  14.265625 13.803125  14.134375 13.75625  L 4.909375 10.59375  L 3.34375 4.19375  L 22.96875 14.034375  Z " fill-rule="nonzero" fill="#ffffff" stroke="none" transform="matrix(1 0 0 1 1039 2770 )" />
  </g>
</svg>