<?xml version="1.0" encoding="utf-8"?>
<svg version="1.1" xmlns:xlink="http://www.w3.org/1999/xlink" width="28px" height="28px" xmlns="http://www.w3.org/2000/svg">
  <g transform="matrix(1 0 0 1 -571 -2221 )">
    <path d="M 3 14  C 3.1375 14  3.246875 13.890625  3.25 13.75625  C 3.28125 12.390625  3.5625 11.065625  4.090625 9.81875  C 4.63125 8.5375  5.40625 7.390625  6.39375 6.4  C 7.38125 5.409375  8.53125 4.634375  9.8125 4.09375  C 11.1375 3.534375  12.54375 3.25  13.996875 3.25  C 15.45 3.25  16.85625 3.534375  18.178125 4.09375  C 19.45625 4.634375  20.60625 5.409375  21.59375 6.4  C 21.903125 6.709375  22.19375 7.0375  22.4625 7.38125  L 20.58125 8.85  C 20.415625 8.978125  20.471875 9.240625  20.675 9.290625  L 26.165625 10.634375  C 26.321875 10.671875  26.475 10.553125  26.475 10.39375  L 26.5 4.740625  C 26.5 4.53125  26.259375 4.4125  26.096875 4.54375  L 24.334375 5.921875  C 21.93125 2.846875  18.19375 0.875  13.99375 0.875  C 6.834375 0.875  1.009375 6.6125  0.875 13.74375  C 0.871875 13.884375  0.984375 14  1.125 14  L 3 14  Z M 27.125 14.25625  C 27.128125 14.115625  27.015625 14  26.875 14  L 25 14  C 24.8625 14  24.753125 14.109375  24.75 14.24375  C 24.71875 15.609375  24.4375 16.934375  23.909375 18.18125  C 23.36875 19.4625  22.59375 20.6125  21.60625 21.6  C 20.61875 22.5875  19.46875 23.365625  18.1875 23.90625  C 16.8625 24.465625  15.45625 24.75  14.003125 24.75  C 12.55 24.75  11.14375 24.465625  9.81875 23.90625  C 8.540625 23.365625  7.390625 22.590625  6.403125 21.6  C 6.09375 21.290625  5.803125 20.9625  5.534375 20.61875  L 7.415625 19.15  C 7.58125 19.021875  7.525 18.759375  7.321875 18.709375  L 1.83125 17.365625  C 1.675 17.328125  1.521875 17.446875  1.521875 17.60625  L 1.5 23.2625  C 1.5 23.471875  1.740625 23.590625  1.903125 23.459375  L 3.665625 22.08125  C 6.06875 25.153125  9.80625 27.125  14.00625 27.125  C 21.16875 27.125  26.990625 21.384375  27.125 14.25625  Z " fill-rule="nonzero" fill="#ffffff" stroke="none" transform="matrix(1 0 0 1 571 2221 )" />
  </g>
</svg>