<?xml version="1.0" encoding="utf-8"?>
<svg version="1.1" xmlns:xlink="http://www.w3.org/1999/xlink" width="24px" height="28px" xmlns="http://www.w3.org/2000/svg">
  <g transform="matrix(1 0 0 1 -573 -2015 )">
    <path d="M 11.96875 16.21875  C 16.25 16.21875  19.71875 12.75  19.71875 8.46875  C 19.71875 4.1875  16.25 0.71875  11.96875 0.71875  C 7.6875 0.71875  4.21875 4.1875  4.21875 8.46875  C 4.21875 11.05625  5.4875 13.35  7.4375 14.75625  C 7.425 14.7625  7.415625 14.765625  7.409375 14.76875  C 6.0125 15.359375  4.759375 16.20625  3.68125 17.2875  C 2.603125 18.365625  1.759375 19.621875  1.16875 21.021875  C 0.590625 22.390625  0.28125 23.84375  0.25 25.3375  C 0.246875 25.478125  0.359375 25.59375  0.5 25.59375  L 2.371875 25.59375  C 2.50625 25.59375  2.61875 25.484375  2.621875 25.35  C 2.684375 22.9375  3.65 20.678125  5.359375 18.965625  C 7.125 17.19375  9.46875 16.21875  11.96875 16.21875  Z M 17.34375 8.46875  C 17.34375 11.4375  14.9375 13.84375  11.96875 13.84375  C 9 13.84375  6.59375 11.4375  6.59375 8.46875  C 6.59375 5.5  9 3.09375  11.96875 3.09375  C 14.9375 3.09375  17.34375 5.5  17.34375 8.46875  Z M 14.246875 19.75  C 14.25 20.303125  14.696875 20.75  15.25 20.75  L 23.5 20.75  C 23.6375 20.75  23.75 20.6375  23.75 20.5  L 23.75 18.75  C 23.75 18.6125  23.6375 18.5  23.5 18.5  L 17.984375 18.5  L 19.459375 16.621875  C 19.49375 16.578125  19.5125 16.521875  19.5125 16.46875  C 19.5125 16.33125  19.4 16.21875  19.2625 16.21875  L 16.99375 16.21875  C 16.840625 16.21875  16.696875 16.290625  16.6 16.409375  L 14.459375 19.13125  C 14.321875 19.30625  14.246875 19.525  14.246875 19.75  Z M 23.753125 23.75  C 23.75 23.196875  23.303125 22.75  22.75 22.75  L 14.5 22.75  C 14.3625 22.75  14.25 22.8625  14.25 23  L 14.25 24.75  C 14.25 24.8875  14.3625 25  14.5 25  L 20.015625 25  L 18.540625 26.878125  C 18.50625 26.921875  18.4875 26.978125  18.4875 27.03125  C 18.4875 27.16875  18.6 27.28125  18.7375 27.28125  L 21.00625 27.28125  C 21.159375 27.28125  21.303125 27.209375  21.4 27.090625  L 23.540625 24.36875  C 23.678125 24.19375  23.753125 23.975  23.753125 23.75  Z " fill-rule="nonzero" fill="#000000" stroke="none" transform="matrix(1 0 0 1 573 2015 )" />
  </g>
</svg>