<?xml version="1.0" encoding="utf-8"?>
<svg version="1.1" xmlns:xlink="http://www.w3.org/1999/xlink" width="24px" height="24px" xmlns="http://www.w3.org/2000/svg">
  <g transform="matrix(1 0 0 1 -947 -287 )">
    <path d="M 23.15625 12.75625  C 23.615625 12.35625  23.615625 11.64375  23.15625 11.24375  L 11.35 0.996875  C 11.259375 0.91875  11.14375 0.875  11.021875 0.875  L 8.25625 0.875  C 8.025 0.875  7.91875 1.1625  8.09375 1.3125  L 19.0375 11  L 0.75 11  C 0.6125 10.8125  0.5 10.925  0.5 11.0625  L 0.5 12.9375  C 0.5 13.075  0.6125 13.1875  0.75 13  L 19.034375 13  L 8.090625 22.6875  C 7.915625 22.840625  8.021875 23.125  8.253125 23.125  L 11.1125 23.125  C 11.171875 23.125  11.23125 23.103125  11.275 23.0625  L 23.15625 12.75625  Z " fill-rule="nonzero" fill="#000000" stroke="none" transform="matrix(1 0 0 1 947 287 )" />
  </g>
</svg>