<?xml version="1.0" encoding="utf-8"?>
<svg version="1.1" xmlns:xlink="http://www.w3.org/1999/xlink" width="28px" height="22px" xmlns="http://www.w3.org/2000/svg">
  <g transform="matrix(1 0 0 1 -571 -1678 )">
    <path d="M 17.696875 17.475  C 17.825 17.3125  17.709375 17.071875  17.5 17.071875  L 15.184375 17.071875  L 15.184375 9.5  C 15.184375 9.3625  15.071875 9.25  14.934375 9.25  L 13.059375 9.25  C 12.921875 9.25  12.809375 9.3625  12.809375 9.5  L 12.809375 17.071875  L 10.5 17.071875  C 10.290625 17.071875  10.175 17.3125  10.303125 17.475  L 13.803125 21.903125  C 13.903125 22.03125  14.096875 22.03125  14.196875 21.903125  L 17.696875 17.475  Z M 28 12.5  C 28 9.603125  26.028125 7.165625  23.35625 6.459375  C 21.925 2.684375  18.278125 0  14.00625 0  C 9.734375 0  6.0875 2.68125  4.65625 6.45625  C 1.978125 7.159375  0 9.6  0 12.5  C 0 15.953125  2.796875 18.75  6.246875 18.75  L 7.5 18.75  C 7.6375 18.75  7.75 18.6375  7.75 18.5  L 7.75 16.625  C 7.75 16.4875  7.6375 16.375  7.5 16.375  L 6.246875 16.375  C 5.19375 16.375  4.203125 15.95625  3.465625 15.196875  C 2.73125 14.440625  2.340625 13.421875  2.375 12.365625  C 2.403125 11.540625  2.684375 10.765625  3.19375 10.1125  C 3.715625 9.446875  4.446875 8.9625  5.259375 8.746875  L 6.44375 8.4375  L 6.878125 7.29375  C 7.146875 6.58125  7.521875 5.915625  7.99375 5.3125  C 8.459375 4.7125  9.0125 4.190625  9.63125 3.753125  C 10.915625 2.85  12.428125 2.371875  14.00625 2.371875  C 15.584375 2.371875  17.096875 2.85  18.38125 3.753125  C 19.003125 4.190625  19.553125 4.715625  20.01875 5.3125  C 20.490625 5.915625  20.865625 6.584375  21.134375 7.29375  L 21.565625 8.434375  L 22.746875 8.746875  C 24.440625 9.203125  25.625 10.74375  25.625 12.5  C 25.625 13.534375  25.221875 14.509375  24.490625 15.240625  C 23.759375 15.971875  22.7875 16.375  21.753125 16.375  L 20.5 16.375  C 20.3625 16.375  20.25 16.4875  20.25 16.625  L 20.25 18.5  C 20.25 18.6375  20.3625 18.75  20.5 18.75  L 21.753125 18.75  C 25.203125 18.75  28 15.953125  28 12.5  Z " fill-rule="nonzero" fill="#ffffff" stroke="none" transform="matrix(1 0 0 1 571 1678 )" />
  </g>
</svg>