<?xml version="1.0" encoding="utf-8"?>
<svg version="1.1" xmlns:xlink="http://www.w3.org/1999/xlink" width="28px" height="22px" xmlns="http://www.w3.org/2000/svg">
  <g transform="matrix(1 0 0 1 -571 -1746 )">
    <path d="M 18.90625 17.7375  C 18.81875 16.071875  17.90625 14.621875  16.571875 13.796875  C 17.1375 13.175  17.48125 12.346875  17.48125 11.4375  C 17.48125 9.503125  15.921875 7.9375  14 7.9375  C 12.078125 7.9375  10.51875 9.503125  10.51875 11.4375  C 10.51875 12.346875  10.8625 13.171875  11.428125 13.796875  C 10.09375 14.625  9.184375 16.071875  9.096875 17.7375  C 9.090625 17.88125  9.203125 18  9.346875 18  L 10.71875 18  C 10.85 18  10.95625 17.896875  10.965625 17.765625  C 11.084375 16.184375  12.403125 14.9375  14.003125 14.9375  C 15.603125 14.9375  16.921875 16.1875  17.040625 17.765625  C 17.05 17.896875  17.15625 18  17.2875 18  L 18.65625 18  C 18.8 18  18.9125 17.88125  18.90625 17.7375  Z M 15.615625 11.4375  C 15.615625 12.334375  14.890625 13.0625  14 13.0625  C 13.109375 13.0625  12.384375 12.334375  12.384375 11.4375  C 12.384375 10.540625  13.109375 9.8125  14 9.8125  C 14.890625 9.8125  15.615625 10.540625  15.615625 11.4375  Z M 28 3  C 28 2.446875  27.553125 2  27 2  L 22 2  L 22 0.25  C 22 0.1125  21.8875 0  21.75 0  L 20 0  C 19.8625 0  19.75 0.1125  19.75 0.25  L 19.75 2  L 15.125 2  L 15.125 0.25  C 15.125 0.1125  15.0125 0  14.875 0  L 13.125 0  C 12.9875 0  12.875 0.1125  12.875 0.25  L 12.875 2  L 8.25 2  L 8.25 0.25  C 8.25 0.1125  8.1375 0  8 0  L 6.25 0  C 6.1125 0  6 0.1125  6 0.25  L 6 2  L 1 2  C 0.446875 2  0 2.446875  0 3  L 0 21  C 0 21.553125  0.446875 22  1 22  L 27 22  C 27.553125 22  28 21.553125  28 21  L 28 3  Z M 25.75 4.25  L 25.75 19.75  L 2.25 19.75  L 2.25 4.25  L 6 4.25  L 6 6  C 6 6.1375  6.1125 6.25  6.25 6.25  L 8 6.25  C 8.1375 6.25  8.25 6.1375  8.25 6  L 8.25 4.25  L 12.875 4.25  L 12.875 6  C 12.875 6.1375  12.9875 6.25  13.125 6.25  L 14.875 6.25  C 15.0125 6.25  15.125 6.1375  15.125 6  L 15.125 4.25  L 19.75 4.25  L 19.75 6  C 19.75 6.1375  19.8625 6.25  20 6.25  L 21.75 6.25  C 21.8875 6.25  22 6.1375  22 6  L 22 4.25  L 25.75 4.25  Z " fill-rule="nonzero" fill="#000000" stroke="none" transform="matrix(1 0 0 1 571 1746 )" />
  </g>
</svg>