<?xml version="1.0" encoding="utf-8"?>
<svg version="1.1" xmlns:xlink="http://www.w3.org/1999/xlink" width="28px" height="26px" xmlns="http://www.w3.org/2000/svg">
  <g transform="matrix(1 0 0 1 -571 -1812 )">
    <path d="M 27.03125 23.440625  C 27.99375 21.765625  27.425 19.628125  25.759375 18.6625  C 24.43125 17.89375  22.8125 18.1  21.721875 19.0625  L 20.065625 18.103125  L 20.065625 13.3625  C 20.065625 12.871875  19.803125 12.415625  19.378125 12.171875  L 15.128125 9.725  L 15.128125 7.628125  C 16.509375 7.159375  17.503125 5.853125  17.503125 4.3125  C 17.503125 2.378125  15.9375 0.812500000000001  14.003125 0.812500000000001  C 12.06875 0.812500000000001  10.503125 2.378125  10.503125 4.3125  C 10.503125 5.853125  11.496875 7.159375  12.878125 7.628125  L 12.878125 9.725  L 8.628125 12.171875  C 8.203125 12.415625  7.940625 12.871875  7.940625 13.3625  L 7.940625 18.1  L 6.284375 19.059375  C 5.19375 18.096875  3.571875 17.890625  2.246875 18.659375  C 0.574999999999998 19.628125  0.00624999999999742 21.765625  0.965624999999998 23.4375  C 1.928125 25.109375  4.05625 25.684375  5.721875 24.71875  C 7.05 23.95  7.68125 22.4375  7.396875 21.00625  L 8.91875 20.121875  L 13.3125 22.653125  C 13.525 22.775  13.7625 22.8375  14 22.8375  C 14.2375 22.8375  14.475 22.775  14.6875 22.653125  L 19.078125 20.125  L 20.6 21.009375  C 20.315625 22.4375  20.95 23.953125  22.275 24.721875  C 23.940625 25.6875  26.071875 25.115625  27.03125 23.440625  Z M 5.275 20.940625  C 5.6875 21.65625  5.44375 22.575  4.728125 22.9875  C 4.015625 23.4  3.1 23.15625  2.690625 22.4375  C 2.278125 21.721875  2.521875 20.803125  3.2375 20.390625  C 3.95 19.978125  4.865625 20.221875  5.275 20.940625  Z M 14 5.8125  C 13.171875 5.8125  12.5 5.140625  12.5 4.3125  C 12.5 3.484375  13.171875 2.8125  14 2.8125  C 14.828125 2.8125  15.5 3.484375  15.5 4.3125  C 15.5 5.140625  14.828125 5.8125  14 5.8125  Z M 17.8125 13.86875  L 17.8125 18.25625  L 14 20.453125  L 10.1875 18.25625  L 10.1875 13.86875  L 14 11.671875  L 17.8125 13.86875  Z M 24.7625 20.39375  C 25.478125 20.80625  25.721875 21.721875  25.309375 22.440625  C 24.896875 23.15625  23.984375 23.403125  23.271875 22.990625  C 22.559375 22.578125  22.3125 21.659375  22.725 20.94375  C 23.1375 20.228125  24.05 19.98125  24.7625 20.39375  Z " fill-rule="nonzero" fill="#000000" stroke="none" transform="matrix(1 0 0 1 571 1812 )" />
  </g>
</svg>