<?xml version="1.0" encoding="utf-8"?>
<svg version="1.1" xmlns:xlink="http://www.w3.org/1999/xlink" width="27px" height="23px" xmlns="http://www.w3.org/2000/svg">
  <g transform="matrix(1 0 0 1 -572 -2636 )">
    <path d="M 13.259375 15  L 26.75 15  C 26.8875 15.125  27 15.0125  27 14.875  L 27 13.125  C 27 12.9875  26.8875 12.875  26.75 12.875  L 6.3125 12.875  C 5.86875 11.775  4.790625 11  3.53125 11  C 1.875 11  0.53125 12.34375  0.53125 14  C 0.53125 15.65625  1.875 17  3.53125 17  C 4.790625 17  5.86875 16.225  6.3125 15.125  L 11.009375 15.125  L 11.009375 19.875  C 11.009375 21.6  12.409375 23  14.134375 23  L 26.75 23  C 26.8875 23  27 22.8875  27 22.75  L 27 21  C 27 20.8625  26.8875 20.75  26.75 20.75  L 14.134375 20.75  C 13.65 20.75  13.259375 20.359375  13.259375 19.875  L 13.259375 15  Z M 11.115625 5.321875  C 10.9625 5.44375  10.9625 5.68125  11.115625 5.803125  L 16.50625 10.059375  C 16.703125 10.21875  17 10.075  17 9.81875  L 17 6.75  L 25.25 6.75  C 25.3875 6.75  25.5 6.6375  25.5 6.5  L 25.5 4.625  C 25.5 4.4875  25.3875 4.375  25.25 4.375  L 17 4.375  L 17 1.30625  C 17 1.053125  16.70625 0.90625  16.50625 1.065625  L 11.115625 5.321875  Z " fill-rule="nonzero" fill="#ffffff" stroke="none" transform="matrix(1 0 0 1 572 2636 )" />
  </g>
</svg>