<?xml version="1.0" encoding="utf-8"?>
<svg version="1.1" xmlns:xlink="http://www.w3.org/1999/xlink" width="28px" height="22px" xmlns="http://www.w3.org/2000/svg">
  <g transform="matrix(1 0 0 1 -571 -2155 )">
    <path d="M 28 1  C 28 0.446875  27.553125 0  27 0  L 1 0  C 0.446875 0  0 0.446875  0 1  L 0 21  C 0 21.553125  0.446875 22  1 22  L 27 22  C 27.553125 22  28 21.553125  28 21  L 28 1  Z M 25.75 2.25  L 25.75 19.75  L 2.25 19.75  L 2.25 2.25  L 25.75 2.25  Z M 17 9.625  C 17 9.7625  17.03125 9.875  17.071875 9.875  L 20.928125 9.875  C 20.96875 9.875  21 9.7625  21 9.625  L 21 8.125  C 21 7.9875  20.96875 7.875  20.928125 7.875  L 17.071875 7.875  C 17.03125 7.875  17 7.9875  17 8.125  L 17 9.625  Z M 17 14.125  C 17 14.2625  17.1 14.375  17.221875 14.375  L 23.025 14.375  C 23.146875 14.375  23.246875 14.2625  23.246875 14.125  L 23.246875 12.625  C 23.246875 12.4875  23.146875 12.375  23.025 12.375  L 17.221875 12.375  C 17.1 12.375  17 12.4875  17 12.625  L 17 14.125  Z M 4.75625 15.76875  C 4.74375 15.9125  4.85625 16.03125  5 16.03125  L 6.371875 16.03125  C 6.503125 16.03125  6.609375 15.928125  6.61875 15.796875  C 6.7375 14.21875  8.05625 12.96875  9.65625 12.96875  C 11.25625 12.96875  12.575 14.21875  12.69375 15.796875  C 12.703125 15.928125  12.809375 16.03125  12.940625 16.03125  L 14.3125 16.03125  C 14.45625 16.03125  14.56875 15.9125  14.5625 15.76875  C 14.475 14.103125  13.5625 12.653125  12.23125 11.828125  C 12.796875 11.20625  13.140625 10.378125  13.140625 9.46875  C 13.140625 7.534375  11.58125 5.96875  9.659375 5.96875  C 7.7375 5.96875  6.178125 7.534375  6.178125 9.46875  C 6.178125 10.378125  6.521875 11.203125  7.0875 11.828125  C 5.753125 12.65625  4.84375 14.103125  4.75625 15.76875  Z M 8.040625 9.46875  C 8.040625 8.571875  8.765625 7.84375  9.65625 7.84375  C 10.546875 7.84375  11.271875 8.571875  11.271875 9.46875  C 11.271875 10.365625  10.546875 11.09375  9.65625 11.09375  C 8.765625 11.09375  8.040625 10.365625  8.040625 9.46875  Z " fill-rule="nonzero" fill="#ffffff" stroke="none" transform="matrix(1 0 0 1 571 2155 )" />
  </g>
</svg>