<?xml version="1.0" encoding="utf-8"?>
<svg version="1.1" xmlns:xlink="http://www.w3.org/1999/xlink" width="22px" height="28px" xmlns="http://www.w3.org/2000/svg">
  <g transform="matrix(1 0 0 1 -574 -1947 )">
    <path d="M 8.25 12.878125  L 8.25 12.875  C 8.1125 12.875  8 12.9875  8 13.125  L 8 21.75  C 8 21.8875  8.1125 22  8.25 22  L 9.265625 22  C 9.403125 22  9.515625 21.8875  9.515625 21.75  L 9.515625 18.765625  L 11.49375 18.765625  C 13.35 18.765625  14.5 17.55  14.5 15.825  C 14.5 14.121875  13.365625 12.878125  11.5 12.878125  L 8.25 12.878125  Z M 11.271875 14.13125  C 12.328125 14.13125  12.95625 14.746875  12.95625 15.821875  C 12.95625 17.178125  12.128125 17.51875  10.73125 17.51875  L 9.515625 17.51875  L 9.515625 14.13125  L 11.271875 14.13125  Z M 22 7.728125  C 22 7.4625  21.89375 7.20625  21.70625 7.01875  L 14.98125 0.29375  C 14.79375 0.10625  14.540625 0  14.275 0  L 1 0  C 0.446875 0  0 0.446875  0 1  L 0 27  C 0 27.553125  0.446875 28  1 28  L 21 28  C 21.553125 28  22 27.553125  22 27  L 22 7.728125  Z M 13.8125 2.30625  L 19.69375 8.1875  L 13.8125 8.1875  L 13.8125 2.30625  Z M 19.75 10.3125  L 19.75 25.75  L 2.25 25.75  L 2.25 2.25  L 11.6875 2.25  L 11.6875 9  C 11.6875 9.725  12.275 10.3125  13 10.3125  L 19.75 10.3125  Z " fill-rule="nonzero" fill="#ffffff" stroke="none" transform="matrix(1 0 0 1 574 1947 )" />
  </g>
</svg>