<?xml version="1.0" encoding="utf-8"?>
<svg version="1.1" xmlns:xlink="http://www.w3.org/1999/xlink" width="24px" height="30px" xmlns="http://www.w3.org/2000/svg">
  <g transform="matrix(1 0 0 1 -573 -2769 )">
    <path d="M 9.89375 8.815625  C 9.925 8.725  9.884375 8.628125  9.8 8.5875  L 8.59375 8.01875  C 8.490625 7.96875  8.365625 8.025  8.33125 8.134375  C 7.784375 9.9625  6.91875 11.575  5.7625 12.934375  C 5.721875 12.984375  5.70625 13.05  5.725 13.109375  L 6.1375 14.46875  C 6.178125 14.60625  6.35625 14.646875  6.45625 14.54375  C 6.696875 14.290625  6.9375 14.015625  7.178125 13.73125  L 7.178125 19.5  C 7.178125 19.6375  7.290625 19.75  7.428125 19.75  L 8.59375 19.75  C 8.73125 19.75  8.84375 19.6375  8.84375 19.5  L 8.84375 11.284375  C 9.275 10.5  9.628125 9.66875  9.89375 8.815625  Z M 10.8875 8.625  C 10.75 8.625  10.6375 8.7375  10.6375 8.875  L 10.6375 12.85  C 10.6375 12.9875  10.75 13.1  10.8875 13.1  L 12.946875 13.1  L 12.946875 13.68125  L 9.98125 13.68125  C 9.84375 13.68125  9.73125 13.79375  9.73125 13.93125  L 9.73125 15.04375  C 9.73125 15.18125  9.84375 15.29375  9.98125 15.29375  L 11.703125 15.29375  C 11.10625 16.25625  10.378125 17.034375  9.484375 17.66875  C 9.403125 17.725  9.38125 17.8375  9.434375 17.921875  L 10.146875 19.0625  C 10.20625 19.159375  10.340625 19.18125  10.425 19.10625  C 11.4125 18.26875  12.259375 17.140625  12.94375 15.74375  L 12.94375 19.49375  C 12.94375 19.63125  13.05625 19.74375  13.19375 19.74375  L 14.325 19.74375  C 14.4625 19.74375  14.575 19.63125  14.575 19.49375  L 14.575 15.75  C 15.240625 17.053125  16.059375 18.171875  17.015625 19.090625  C 17.096875 19.16875  17.228125 19.15625  17.29375 19.06875  L 18.115625 17.965625  C 18.178125 17.88125  18.159375 17.7625  18.078125 17.703125  C 17.125 16.996875  16.384375 16.209375  15.81875 15.3  L 17.6625 15.3  C 17.8 15.3  17.9125 15.1875  17.9125 15.05  L 17.9125 13.9375  C 17.9125 13.8  17.8 13.6875  17.6625 13.6875  L 14.575 13.6875  L 14.575 13.10625  L 16.659375 13.10625  C 16.796875 13.10625  16.909375 12.99375  16.909375 12.85625  L 16.909375 8.875  C 16.909375 8.7375  16.796875 8.625  16.659375 8.625  L 10.8875 8.625  Z M 12.246875 11.5125  L 12.246875 10.2125  L 15.30625 10.2125  L 15.30625 11.5125  L 12.246875 11.5125  Z M 23.55625 4.971875  C 23.5625 4.696875  23.35 4.4  23.090625 4.309375  L 12.471875 0.690625  C 12.34375 0.646875  12.171875 0.625  12 0.625  C 11.828125 0.625  11.65625 0.646875  11.528125 0.690625  L 0.909375 4.309375  C 0.649999999999999 4.396875  0.4375 4.696875  0.4375 4.971875  L 0.4375 20.046875  C 0.4375 20.321875  0.615625 20.684375  0.83125 20.85625  L 11.603125 29.25  C 11.7125 29.334375  11.853125 29.378125  11.996875 29.378125  C 12.140625 29.378125  12.284375 29.334375  12.390625 29.25  L 23.1625 20.85625  C 23.378125 20.6875  23.55625 20.325  23.55625 20.046875  L 23.55625 4.971875  Z M 21 6.084375  L 21 19.446875  L 12 26.703125  L 3 19.446875  L 3 6.084375  L 12 2.909375  L 21 6.084375  Z " fill-rule="nonzero" fill="#000000" stroke="none" transform="matrix(1 0 0 1 573 2769 )" />
  </g>
</svg>