<?xml version="1.0" encoding="utf-8"?>
<svg version="1.1" xmlns:xlink="http://www.w3.org/1999/xlink" width="28px" height="28px" xmlns="http://www.w3.org/2000/svg">
  <g transform="matrix(1 0 0 1 -571 -2564 )">
    <path d="M 27.625 14.25  C 27.625 14.1125  27.5125 14  27.375 14  L 22.75 14  L 22.75 10.875  C 25.15 10.875  27.09375 8.93125  27.09375 6.53125  C 27.09375 6.39375  26.98125 6.28125  26.84375 6.28125  L 24.96875 6.28125  C 24.83125 6.28125  24.71875 6.39375  24.71875 6.53125  C 24.71875 7.61875  23.8375 8.5  22.75 9  L 5.25 9  C 4.1625 8.5  3.28125 7.61875  3.28125 6.53125  C 3.28125 6.39375  3.16875 6.28125  3.03125 6.28125  L 1.15625 6.28125  C 1.01875 6.28125  0.90625 6.39375  0.90625 6.53125  C 0.90625 8.93125  2.85 10.875  5.25 10.875  L 5.25 14  L 0.625 14  C 0.4875 14  0.375 14.1125  0.375 14.25  L 0.375 16  C 0.375 16.1375  0.4875 16.25  0.625 16.25  L 5.25 16.25  L 5.25 19.25  C 5.25 19.453125  5.25625 19.65625  5.271875 19.853125  C 3.128125 20.76875  1.625 22.896875  1.625 25.375  C 1.625 25.5125  1.7375 25.625  1.875 25.625  L 3.625 25.625  C 3.7625 25.625  3.875 25.5125  3.875 25.375  C 3.875 23.99375  4.621875 22.784375  5.7375 22.134375  C 5.925 22.671875  6.1625 23.184375  6.446875 23.665625  C 7.20625 24.9625  8.290625 26.046875  9.5875 26.80625  C 10.490625 27.334375  11.49375 27.70625  12.565625 27.884375  C 12.703125 27.884375  12.815625 27.771875  13 27.634375  L 13 13.125  C 12.815625 12.9875  12.928125 12.875  13.065625 12.875  L 14.940625 12.875  C 15.078125 12.875  15.190625 12.9875  15 13.125  L 15 27.63125  C 15.190625 27.76875  15.303125 27.88125  15.440625 27.88125  C 16.5125 27.703125  17.515625 27.33125  18.41875 26.803125  C 19.715625 26.04375  20.8 24.959375  21.559375 23.6625  C 21.84375 23.178125  22.08125 22.665625  22.26875 22.13125  C 23.378125 22.784375  24.125 23.99375  24.125 25.375  C 24.125 25.5125  24.2375 25.625  24.375 25.625  L 26.125 25.625  C 26.2625 25.625  26.375 25.5125  26.375 25.375  C 26.375 22.896875  24.871875 20.76875  22.728125 19.853125  C 22.740625 19.653125  22.75 19.453125  22.75 19.25  L 22.75 16.25  L 27.375 16.25  C 27.5125 16.25  27.625 16.1375  27.625 16  L 27.625 14.25  Z M 7.25 6.5  C 7.25 6.6375  7.3625 6.75  7.5 7  L 20.5 7  C 20.6375 6.75  20.75 6.6375  20.75 6.5  C 20.75 5.25  20.475 4.103125  19.940625 3.121875  C 19.403125 2.1375  18.6125 1.346875  17.628125 0.809375  C 16.646875 0.275  15.5 0  14.25 0  L 13.75 0  C 12.5 0  11.353125 0.275  10.371875 0.809375  C 9.3875 1.346875  8.596875 2.1375  8.059375 3.121875  C 7.525 4.103125  7.25 5.25  7.25 6.5  Z " fill-rule="nonzero" fill="#ffffff" stroke="none" transform="matrix(1 0 0 1 571 2564 )" />
  </g>
</svg>