<?xml version="1.0" encoding="utf-8"?>
<svg version="1.1" xmlns:xlink="http://www.w3.org/1999/xlink" width="26px" height="22px" xmlns="http://www.w3.org/2000/svg">
  <g transform="matrix(1 0 0 1 -572 -2292 )">
    <path d="M 12.34375 8.625  C 12.225 8.625  12.125 8.725  12.125 8.846875  L 12.125 11.5  L 9.484375 11.5  C 9.35625 11.5  9.25 11.596875  9.25 11.71875  L 9.25 13.03125  C 9.25 13.15  9.35625 13.25  9.484375 13.25  L 12.125 13.25  L 12.125 15.903125  C 12.125 16.025  12.225 16.125  12.34375 16.125  L 13.65625 16.125  C 13.778125 16.125  13.875 16.025  13.875 15.903125  L 13.875 13.25  L 16.515625 13.25  C 16.64375 13.25  16.75 13.15  16.75 13.03125  L 16.75 11.71875  C 16.75 11.596875  16.64375 11.5  16.515625 11.5  L 13.875 11.5  L 13.875 8.846875  C 13.875 8.725  13.778125 8.625  13.65625 8.625  L 12.34375 8.625  Z M 25 5.325  C 25.5 4.771875  25.053125 4.325  24.5 4.325  L 13.28125 4.325  L 9.615625 0.81875  C 9.56875 0.774999999999999  9.50625 0.75  9.44375 0.75  L 1.5 0.75  C 0.946875 0.75  0.5 1.196875  1 1.75  L 1 20.25  C 0.5 20.803125  0.946875 21.25  1.5 21  L 24.5 21  C 25.053125 21.25  25.5 20.803125  25 20.25  L 25 5.325  Z M 23 7  L 23 19  L 3 19  L 3 3  L 8.640625 3  L 12.378125 7  L 23 7  Z " fill-rule="nonzero" fill="#ffffff" stroke="none" transform="matrix(1 0 0 1 572 2292 )" />
  </g>
</svg>