<?xml version="1.0" encoding="utf-8"?>
<svg version="1.1" xmlns:xlink="http://www.w3.org/1999/xlink" width="28px" height="28px" xmlns="http://www.w3.org/2000/svg">
  <g transform="matrix(1 0 0 1 -478 -2221 )">
    <path d="M 15.003125 6.78125  C 15.003125 6.64375  14.890625 6.53125  14.753125 6.53125  L 13.25 6.53125  C 13.1125 6.53125  13 6.64375  13 6.78125  L 13 15.384375  C 13 15.465625  13.0375 15.540625  13.103125 15.5875  L 18.26875 19.359375  C 18.38125 19.440625  18.5375 19.41875  18.61875 19.30625  L 19.5125 18.0875  C 19.596875 17.971875  19.571875 17.815625  19.459375 17.7375  L 15.003125 14.515625  L 15.003125 6.78125  Z M 21.528125 8.440625  C 21.3625 8.571875  21.41875 8.83125  21.621875 8.88125  L 26.521875 10.078125  C 26.678125 10.115625  26.83125 9.996875  26.83125 9.8375  L 26.85625 4.790625  C 26.85625 4.58125  26.615625 4.4625  26.453125 4.59375  L 21.528125 8.440625  Z M 27.015625 18.615625  C 27.0625 18.484375  26.99375 18.3375  26.8625 18.290625  L 25.090625 17.68125  C 24.9625 17.6375  24.821875 17.703125  24.775 17.83125  C 24.715625 17.990625  24.653125 18.146875  24.5875 18.303125  C 24.03125 19.61875  23.234375 20.803125  22.215625 21.81875  C 21.2 22.834375  20.015625 23.634375  18.7 24.190625  C 17.3375 24.765625  15.890625 25.059375  14.396875 25.059375  C 12.903125 25.059375  11.45625 24.76875  10.09375 24.190625  C 8.778125 23.634375  7.59375 22.834375  6.578125 21.81875  C 5.5625 20.803125  4.765625 19.61875  4.20625 18.303125  C 3.634375 16.94375  3.34375 15.49375  3.34375 14  C 3.34375 12.50625  3.634375 11.05625  4.2125 9.69375  C 4.76875 8.378125  5.565625 7.19375  6.584375 6.178125  C 7.6 5.1625  8.784375 4.3625  10.1 3.80625  C 11.45625 3.228125  12.90625 2.9375  14.4 2.9375  C 15.89375 2.9375  17.340625 3.228125  18.703125 3.80625  C 20.01875 4.3625  21.203125 5.1625  22.21875 6.178125  C 22.5375 6.5  22.8375 6.834375  23.1125 7.1875  L 24.98125 5.725  C 22.521875 2.58125  18.69375 0.559375  14.39375 0.5625  C 6.90625 0.565625  0.89375 6.646875  0.96875 14.1375  C 1.04375 21.496875  7.028125 27.4375  14.4 27.4375  C 20.196875 27.4375  25.134375 23.7625  27.015625 18.615625  Z " fill-rule="nonzero" fill="#000000" stroke="none" transform="matrix(1 0 0 1 478 2221 )" />
  </g>
</svg>