<?xml version="1.0" encoding="utf-8"?>
<svg version="1.1" xmlns:xlink="http://www.w3.org/1999/xlink" width="25px" height="26px" xmlns="http://www.w3.org/2000/svg">
  <g transform="matrix(1 0 0 1 -480 -2016 )">
    <path d="M 25 21.75  C 25 21.6125  24.8875 21.5  24.75 21.5  L 17.75 21.5  C 17.6125 21.5  17.5 21.6125  17.5 21.75  L 17.5 23.25  C 17.5 23.3875  17.6125 23.5  17.75 23.5  L 24.75 23.5  C 24.8875 23.5  25 23.3875  25 23.25  L 25 21.75  Z M 8.484375 13.221875  C 8.60625 13.190625  8.6875 13.075  8.671875 12.95  C 8.64375 12.678125  8.628125 12.403125  8.628125 12.125  C 8.628125 11.628125  8.675 11.14375  8.7625 10.671875  C 8.784375 10.559375  8.725 10.44375  8.621875 10.396875  C 8.196875 10.20625  7.80625 9.94375  7.46875 9.6125  C 6.6625 8.825  6.228125 7.759375  6.259375 6.63125  C 6.2875 5.628125  6.690625 4.675  7.39375 3.95625  C 8.165625 3.165625  9.203125 2.734375  10.30625 2.746875  C 11.303125 2.75625  12.265625 3.140625  12.99375 3.821875  C 13.240625 4.053125  13.453125 4.309375  13.63125 4.584375  C 13.69375 4.68125  13.815625 4.721875  13.921875 4.684375  C 14.471875 4.49375  15.053125 4.359375  15.65 4.296875  C 15.825 4.278125  15.925 4.090625  15.846875 3.934375  C 14.83125 1.925  12.75625 0.537499999999997  10.35625 0.499999999999997  C 6.890625 0.446874999999997  4.003125 3.2875  4.003125 6.746875  C 4.003125 8.709375  4.90625 10.459375  6.321875 11.60625  C 5.328125 12.065625  4.4125 12.7  3.61875 13.49375  C 1.90625 15.203125  0.937499999999997 17.459375  0.874999999999997 19.86875  C 0.871874999999997 20.009375  0.984374999999997 20.125  1.125 20.125  L 2.878125 20.125  C 3.0125 20.125  3.125 20.01875  3.128125 19.884375  C 3.1875 18.071875  3.921875 16.375  5.2125 15.0875  C 6.13125 14.16875  7.25625 13.53125  8.484375 13.221875  Z M 16.5 18.375  C 19.95 18.375  22.75 15.578125  22.75 12.125  C 22.75 8.70625  20.003125 5.928125  16.596875 5.875  C 13.134375 5.821875  10.25 8.6625  10.25 12.125  C 10.25 14.0875  11.15625 15.8375  12.56875 16.984375  C 11.578125 17.44375  10.665625 18.075  9.86875 18.871875  C 8.15625 20.58125  7.1875 22.8375  7.125 25.24375  C 7.121875 25.384375  7.234375 25.5  7.375 25.5  L 9.125 25.5  C 9.259375 25.5  9.371875 25.39375  9.375 25.259375  C 9.434375 23.446875  10.16875 21.75  11.459375 20.4625  C 12.80625 19.115625  14.59375 18.375  16.5 18.375  Z M 20.503125 12.125  C 20.5 13.19375  20.084375 14.196875  19.328125 14.953125  C 18.571875 15.709375  17.56875 16.125  16.5 16.125  C 15.43125 16.125  14.428125 15.709375  13.671875 14.953125  C 12.90625 14.1875  12.490625 13.16875  12.5 12.084375  C 12.509375 11.059375  12.91875 10.06875  13.634375 9.334375  C 14.384375 8.565625  15.3875 8.1375  16.459375 8.125  C 17.51875 8.115625  18.546875 8.528125  19.303125 9.26875  C 20.078125 10.028125  20.503125 11.04375  20.503125 12.125  Z " fill-rule="nonzero" fill="#000000" stroke="none" transform="matrix(1 0 0 1 480 2016 )" />
  </g>
</svg>