<?xml version="1.0" encoding="utf-8"?>
<svg version="1.1" xmlns:xlink="http://www.w3.org/1999/xlink" width="25px" height="25px" xmlns="http://www.w3.org/2000/svg">
  <g transform="matrix(1 0 0 1 -480 -1540 )">
    <path d="M 12 1  C 12 0.725  11.775 0.5  11.5 0.5  L 2 0.5  C 1.725 0.5  1.5 0.725  1.5 1  L 1.5 10.5  C 1.5 10.775  1.725 11  2 11  L 11.5 11  C 11.775 11  12 10.775  12 10.5  L 12 1  Z M 9.875 2.625  L 9.875 8.875  L 3.625 8.875  L 3.625 2.625  L 9.875 2.625  Z M 24.5 1  C 24.5 0.725  24.275 0.5  24 0.5  L 14.5 0.5  C 14.225 0.5  14 0.725  14 1  L 14 10.5  C 14 10.775  14.225 11  14.5 11  L 24 11  C 24.275 11  24.5 10.775  24.5 10.5  L 24.5 1  Z M 22.375 2.625  L 22.375 8.875  L 16.125 8.875  L 16.125 2.625  L 22.375 2.625  Z M 24.5 13.5  C 24.5 13.225  24.275 13  24 13  L 14.5 13  C 14.225 13  14 13.225  14 13.5  L 14 23  C 14 23.275  14.225 23.5  14.5 23.5  L 24 23.5  C 24.275 23.5  24.5 23.275  24.5 23  L 24.5 13.5  Z M 22.375 15.125  L 22.375 21.375  L 16.125 21.375  L 16.125 15.125  L 22.375 15.125  Z M 10.5 18.5  C 10.5 18.3625  10.3875 18.25  10.25 18.25  L 6.25 18.25  L 6.25 14.25  C 6.25 14.1125  6.1375 14  6 14  L 4.5 14  C 4.3625 14  4.25 14.1125  4.25 14.25  L 4.25 18.25  L 0.25 18.25  C 0.1125 18.25  0 18.3625  0 18.5  L 0 20  C 0 20.1375  0.1125 20.25  0.25 20.25  L 4.25 20.25  L 4.25 24.25  C 4.25 24.3875  4.3625 24.5  4.5 24.5  L 6 24.5  C 6.1375 24.5  6.25 24.3875  6.25 24.25  L 6.25 20.25  L 10.25 20.25  C 10.3875 20.25  10.5 20.1375  10.5 20  L 10.5 18.5  Z " fill-rule="nonzero" fill="#ffffff" stroke="none" transform="matrix(1 0 0 1 480 1540 )" />
  </g>
</svg>