<?xml version="1.0" encoding="utf-8"?>
<svg version="1.1" xmlns:xlink="http://www.w3.org/1999/xlink" width="24px" height="24px" xmlns="http://www.w3.org/2000/svg">
  <g transform="matrix(1 0 0 1 -480 -1609 )">
    <path d="M 18.125 8.3125  L 23.25 8.3125  C 23.3875 8.3125  23.5 8.2  23.5 8.0625  L 23.5 6.1875  C 23.5 6.05  23.3875 5.9375  23.25 5.9375  L 18.125 5.9375  L 18.125 0.75  C 18.125 0.6125  18.0125 0.5  17.875 0.5  L 15.875 0.5  C 15.7375 0.5  15.625 0.6125  15.625 0.75  L 15.625 5.9375  L 8.5 5.9375  L 8.5 0.75  C 8.5 0.6125  8.3875 0.5  8.25 0.5  L 6.25 0.5  C 6.1125 0.5  6 0.6125  6 0.75  L 6 5.9375  L 0.75 5.9375  C 0.6125 5.9375  0.5 6.05  0.5 6.1875  L 0.5 8.0625  C 0.5 8.2  0.6125 8.3125  0.75 8.3125  L 6 8.3125  L 6 15.6875  L 0.75 15.6875  C 0.6125 15.6875  0.5 15.8  0.5 15.9375  L 0.5 17.8125  C 0.5 17.95  0.6125 18.0625  0.75 18.0625  L 6 18.0625  L 6 23.25  C 6 23.3875  6.1125 23.5  6.25 23.5  L 8.25 23.5  C 8.3875 23.5  8.5 23.3875  8.5 23.25  L 8.5 18.0625  L 15.625 18.0625  L 15.625 23.25  C 15.625 23.3875  15.7375 23.5  15.875 23.5  L 17.875 23.5  C 18.0125 23.5  18.125 23.3875  18.125 23.25  L 18.125 18.0625  L 23.25 18.0625  C 23.3875 18.0625  23.5 17.95  23.5 17.8125  L 23.5 15.9375  C 23.5 15.8  23.3875 15.6875  23.25 15.6875  L 18.125 15.6875  L 18.125 8.3125  Z M 15.625 8.3125  L 15.625 15.6875  L 8.5 15.6875  L 8.5 8.3125  L 15.625 8.3125  Z " fill-rule="nonzero" fill="#ffffff" stroke="none" transform="matrix(1 0 0 1 480 1609 )" />
  </g>
</svg>