<?xml version="1.0" encoding="utf-8"?>
<svg version="1.1" xmlns:xlink="http://www.w3.org/1999/xlink" width="26px" height="26px" xmlns="http://www.w3.org/2000/svg">
  <g transform="matrix(1 0 0 1 -479 -2702 )">
    <path d="M 6.625 17.75  C 6.625 17.8875  6.7375 18  6.875 18  L 8.75 18  C 8.8875 18  9 17.8875  9 17.75  L 9 8.25  C 9 8.1125  8.8875 8  8.75 8  L 6.875 8  C 6.7375 8  6.625 8.1125  6.625 8.25  L 6.625 17.75  Z M 11.75 15.21875  C 11.75 15.878125  12.309375 16.4375  13 16.4375  C 13.690625 16.4375  14.25 15.878125  14.25 15.21875  C 14.25 14.496875  13.690625 13.9375  13 13.9375  C 12.309375 13.9375  11.75 14.496875  11.75 15.21875  Z M 11.75 10.84375  C 11.75 11.503125  12.309375 12.0625  13 12.0625  C 13.690625 12.0625  14.25 11.503125  14.25 10.84375  C 14.25 10.121875  13.690625 9.5625  13 9.5625  C 12.309375 9.5625  11.75 10.121875  11.75 10.84375  Z M 25 1.5  C 25.5 0.946875  25.053125 0.5  24.5 1  L 1.5 1  C 0.946875 0.5  0.5 0.946875  1 1.5  L 1 24.5  C 0.5 25.053125  0.946875 25.5  1.5 25  L 24.5 25  C 25.053125 25.5  25.5 25.053125  25 24.5  L 25 1.5  Z M 23 3  L 23 23  L 3 23  L 3 3  L 23 3  Z M 17 17.75  C 17 17.8875  17.1125 18  17.25 18  L 19.125 18  C 19.2625 18  19.375 17.8875  19.375 17.75  L 19.375 8.25  C 19.375 8.1125  19.2625 8  19.125 8  L 17.25 8  C 17.1125 8  17 8.1125  17 8.25  L 17 17.75  Z " fill-rule="nonzero" fill="#ffffff" stroke="none" transform="matrix(1 0 0 1 479 2702 )" />
  </g>
</svg>