<?xml version="1.0" encoding="utf-8"?>
<svg version="1.1" xmlns:xlink="http://www.w3.org/1999/xlink" width="26px" height="26px" xmlns="http://www.w3.org/2000/svg">
  <g transform="matrix(1 0 0 1 -479 -2634 )">
    <path d="M 24.434375 25.1125  C 24.878125 25.0375  25.175 24.615625  25.096875 24.175  L 23.440625 14.625  L 24 14.625  C 24.45 14.625  24.8125 14.2625  24.8125 13.8125  L 24.8125 7.8125  C 24.8125 7.3625  24.45 7  24 7  L 16.3125 7  L 16.3125 1.3125  C 16.3125 0.8625  15.95 0.5  15.5 0.5  L 10.5 0.5  C 10.05 0.5  9.6875 0.8625  9.6875 1.3125  L 9.6875 7  L 2 7  C 1.55 7  1.1875 7.3625  1.1875 7.8125  L 1.1875 13.8125  C 1.1875 14.2625  1.55 14.625  2 14.625  L 2.559375 14.625  L 0.903125 24.175  C 0.89375 24.221875  0.890625 24.26875  0.890625 24.3125  C 0.890625 24.7625  1.253125 25.125  1.703125 25  L 24.296875 25  C 24.34375 25.125  24.390625 25.121875  24.434375 25.1125  Z M 3.375 12.4375  L 3.375 9.1875  L 11.875 9.1875  L 11.875 2.6875  L 14.125 2.6875  L 14.125 9.1875  L 22.625 9.1875  L 22.625 12.4375  L 3.375 12.4375  Z M 22.659375 22.9375  L 18 22.9375  L 18 18.0625  C 18 17.925  17.8875 17.8125  17.75 17.8125  L 16.25 17.8125  C 16.1125 17.8125  16 17.925  16 18.0625  L 16 22.9375  L 10 22.9375  L 10 18.0625  C 10 17.925  9.8875 17.8125  9.75 17.8125  L 8.25 17.8125  C 8.1125 17.8125  8 17.925  8 18.0625  L 8 22.9375  L 3.3375 22.9375  L 4.746875 14.8125  L 21.25 14.8125  L 22.659375 22.9375  Z " fill-rule="nonzero" fill="#ffffff" stroke="none" transform="matrix(1 0 0 1 479 2634 )" />
  </g>
</svg>