<?xml version="1.0" encoding="utf-8"?>
<svg version="1.1" xmlns:xlink="http://www.w3.org/1999/xlink" width="24px" height="22px" xmlns="http://www.w3.org/2000/svg">
  <g transform="matrix(1 0 0 1 -947 -222 )">
    <path d="M 23.90625 19.625  C 23.90625 19.4875  23.79375 19.375  23.65625 19  L 1.15625 19  C 1.01875 19.375  0.90625 19.4875  0.90625 19.625  L 0.90625 21.5  C 0.90625 21.6375  1.01875 21.75  1.15625 21.75  L 23.65625 21.75  C 23.79375 21.75  23.90625 21.6375  23.90625 21.5  L 23.90625 19.625  Z M 8.303125 4.771875  C 8.175 4.9375  8.290625 5.178125  8.5 5.178125  L 11 5.178125  L 11 15.75  C 10.809375 15.8875  10.921875 16  11.059375 16  L 12.934375 16  C 13.071875 16  13.184375 15.8875  13 15.75  L 13 5.178125  L 15.5 5.178125  C 15.709375 5.178125  15.825 4.9375  15.696875 4.775  L 12.196875 0.34375  C 12.096875 0.215625  11.903125 0.215625  11.803125 0.34375  L 8.303125 4.771875  Z " fill-rule="nonzero" fill="#ffffff" stroke="none" transform="matrix(1 0 0 1 947 222 )" />
  </g>
</svg>