<?xml version="1.0" encoding="utf-8"?>
<svg version="1.1" xmlns:xlink="http://www.w3.org/1999/xlink" width="26px" height="26px" xmlns="http://www.w3.org/2000/svg">
  <g transform="matrix(1 0 0 1 -479 -2495 )">
    <path d="M 25 1.5  C 25.5 0.946875  25.053125 0.5  24.5 1  L 1.5 1  C 0.946875 0.5  0.5 0.946875  1 1.5  L 1 24.5  C 0.5 25.053125  0.946875 25.5  1.5 25  L 24.5 25  C 25.053125 25.5  25.5 25.053125  25 24.5  L 25 1.5  Z M 23.25 11  L 23.25 15  L 13.5 15  L 13.5 11  L 23.25 11  Z M 23.25 17  L 23.25 23  L 3 23  L 3 3  L 23.25 3  L 23.25 9  L 12.5 9  C 11.946875 9  11.5 9.446875  11.5 10  L 11.5 16  C 11.5 16.553125  11.946875 17  12.5 17  L 23.25 17  Z M 15.125 13  C 15.125 13.6903559372885  15.6846440627115 14.25  16.375 14.25  C 17.0653559372885 14.25  17.625 13.6903559372885  17.625 13  C 17.625 12.3096440627115  17.0653559372885 11.75  16.375 11.75  C 15.6846440627115 11.75  15.125 12.3096440627115  15.125 13  Z " fill-rule="nonzero" fill="#ffffff" stroke="none" transform="matrix(1 0 0 1 479 2495 )" />
  </g>
</svg>