<?xml version="1.0" encoding="utf-8"?>
<svg version="1.1" xmlns:xlink="http://www.w3.org/1999/xlink" width="22px" height="28px" xmlns="http://www.w3.org/2000/svg">
  <g transform="matrix(1 0 0 1 -481 -1947 )">
    <path d="M 13.240625 18.00625  C 12.471875 17.5375  11.96875 16.9  11.603125 15.95  L 11.6125 15.90625  C 11.79375 15.159375  12.021875 14.228125  11.84375 13.384375  C 11.725 12.71875  11.234375 12.459375  10.815625 12.440625  C 10.321875 12.41875  9.88125 12.7  9.771875 13.109375  C 9.565625 13.859375  9.75 14.884375  10.0875 16.190625  C 9.6625 17.203125  8.984375 18.675  8.4875 19.55  C 7.5625 20.028125  6.321875 20.765625  6.1375 21.696875  C 6.1 21.86875  6.14375 22.0875  6.246875 22.284375  C 6.3625 22.503125  6.546875 22.671875  6.7625 22.753125  C 6.85625 22.7875  6.96875 22.815625  7.1 22.815625  C 7.65 22.815625  8.540625 22.371875  9.728125 20.334375  C 9.909375 20.275  10.096875 20.2125  10.278125 20.15  C 11.128125 19.8625  12.009375 19.5625  12.80625 19.428125  C 13.6875 19.9  14.690625 20.203125  15.371875 20.203125  C 16.046875 20.203125  16.3125 19.803125  16.4125 19.5625  C 16.5875 19.140625  16.503125 18.609375  16.21875 18.325  C 15.80625 17.91875  14.803125 17.8125  13.240625 18.00625  Z M 7.234375 21.78125  C 7.44375 21.396875  7.853125 20.990625  8.175 20.696875  C 7.740625 21.328125  7.4125 21.64375  7.234375 21.78125  Z M 10.84375 13.275  C 10.86875 13.278125  10.890625 13.296875  10.9125 13.3375  C 11.075 13.615625  11.053125 14.45625  10.928125 14.88125  C 10.775 14.259375  10.753125 13.378125  10.84375 13.275  Z M 9.859375 19.334375  C 10.275 18.58125  10.621875 17.728125  10.8625 17.103125  C 11.196875 17.68125  11.61875 18.178125  12.084375 18.546875  C 11.409375 18.7  10.79375 18.953125  10.24375 19.178125  C 10.1125 19.23125  9.984375 19.284375  9.859375 19.334375  Z M 14.315625 18.91875  C 15.584375 18.859375  15.721875 19.146875  15.725 19.15  C 15.728125 19.15625  15.73125 19.165625  15.7125 19.178125  L 15.70625 19.178125  L 15.7 19.1875  C 15.675 19.203125  15.41875 19.353125  14.315625 18.91875  Z M 22 7.728125  C 22 7.4625  21.89375 7.20625  21.70625 7.01875  L 14.98125 0.29375  C 14.79375 0.10625  14.540625 0  14.275 0  L 1 0  C 0.446875 0  0 0.446875  0 1  L 0 27  C 0 27.553125  0.446875 28  1 28  L 21 28  C 21.553125 28  22 27.553125  22 27  L 22 7.728125  Z M 13.8125 2.30625  L 19.69375 8.1875  L 13.8125 8.1875  L 13.8125 2.30625  Z M 19.75 10.3125  L 19.75 25.75  L 2.25 25.75  L 2.25 2.25  L 11.6875 2.25  L 11.6875 9  C 11.6875 9.725  12.275 10.3125  13 10.3125  L 19.75 10.3125  Z " fill-rule="nonzero" fill="#000000" stroke="none" transform="matrix(1 0 0 1 481 1947 )" />
  </g>
</svg>