<?xml version="1.0" encoding="utf-8"?>
<svg version="1.1" xmlns:xlink="http://www.w3.org/1999/xlink" width="26px" height="25px" xmlns="http://www.w3.org/2000/svg">
  <g transform="matrix(1 0 0 1 -479 -2428 )">
    <path d="M 19 11.0625  C 19 10.509375  18.553125 10.0625  18 10  L 1.5 10  C 0.946875 10.0625  0.5 10.509375  1 11.0625  L 1 24  C 0.5 24.553125  0.946875 25  1.5 25  L 18 25  C 18.553125 25  19 24.553125  19 24  L 19 11.0625  Z M 16.625 12  L 16.625 22.625  L 3 22.625  L 3 12  L 16.625 12  Z M 25.134375 16.7125  C 25.596875 13.475  24.78125 10.05625  22.603125 7.265625  C 20.140625 4.11875  16.478125 2.465625  12.771875 2.446875  L 12.765625 0.446875  C 12.765625 0.24375  12.528125 0.131250000000001  12.371875 0.256250000000001  L 8.371875 3.4125  C 8.246875 3.509375  8.25 3.696875  8.371875 3.796875  L 12.375 6.95625  C 12.534375 7.08125  12.771875 6.96875  12.76875 6.765625  L 12.76875 4.76875  C 13.171875 4.771875  13.578125 4.796875  13.98125 4.846875  C 15.296875 5.009375  16.546875 5.415625  17.7 6.05625  C 18.890625 6.71875  19.925 7.609375  20.775 8.690625  C 21.621875 9.775  22.234375 10.99375  22.590625 12.309375  C 22.934375 13.58125  23.028125 14.89375  22.86875 16.209375  C 22.846875 16.378125  22.825 16.546875  22.79375 16.7125  L 25.134375 16.7125  Z " fill-rule="nonzero" fill="#ffffff" stroke="none" transform="matrix(1 0 0 1 479 2428 )" />
  </g>
</svg>