<?xml version="1.0" encoding="utf-8"?>
<svg version="1.1" xmlns:xlink="http://www.w3.org/1999/xlink" width="26px" height="26px" xmlns="http://www.w3.org/2000/svg">
  <g transform="matrix(1 0 0 1 -479 -2358 )">
    <path d="M 25.5 6.5  C 25.5 5.96875  25.084375 5.534375  24.5625 5.503125  L 24.5625 1.5  C 24.5625 0.946875  24.115625 0.5  23.5625 1  L 2.4375 1  C 1.884375 0.5  1.4375 0.946875  1.4375 1.5  L 1.4375 5.503125  C 0.915625 5.534375  0.5 5.96875  0.5 6.5  L 0.5 10.615625  C 0.5 11.378125  0.65 12.11875  0.95 12.815625  C 1.084375 13.134375  1.25 13.434375  1.4375 13.71875  L 1.4375 24.5  C 1.4375 25.05  1.884375 25.5  2.4375 25  L 23.5625 25  C 24.115625 25.5  24.5625 25.053125  24.5625 24.5  L 24.5625 13.71875  C 24.753125 13.434375  24.915625 13.13125  25.05 12.815625  C 25.346875 12.11875  25.5 11.378125  25.5 10.615625  L 25.5 6.5  Z M 3.6875 6  L 3.6875 3  L 22.3125 3  L 22.3125 6  L 3.6875 6  Z M 15 20  L 15 23.253125  L 11 23.253125  L 11 20  L 15 20  Z M 22.325 23.253125  L 22.3125 23.253125  L 17 23.253125  L 17 19  C 17 18.446875  16.553125 18  16 18  L 10 18  C 9.446875 18  9 18.446875  9 19  L 9 23.253125  L 3.6875 23.253125  L 3.6875 15.684375  C 3.778125 15.728125  3.871875 15.771875  3.96875 15.809375  C 4.665625 16.103125  5.40625 16.25  6.16875 16.25  C 6.93125 16.25  7.66875 16.103125  8.36875 15.809375  C 8.8 15.628125  9.20625 15.396875  9.578125 15.11875  C 9.584375 15.115625  9.590625 15.115625  9.596875 15.11875  C 9.96875 15.396875  10.371875 15.628125  10.80625 15.809375  C 11.503125 16.103125  12.24375 16.25  13.00625 16.25  C 13.76875 16.25  14.50625 16.103125  15.20625 15.809375  C 15.6375 15.628125  16.04375 15.396875  16.415625 15.11875  C 16.421875 15.115625  16.428125 15.115625  16.434375 15.11875  C 16.80625 15.396875  17.209375 15.628125  17.64375 15.809375  C 18.340625 16.103125  19.08125 16.25  19.84375 16.25  C 20.60625 16.25  21.34375 16.103125  22.04375 15.809375  C 22.1375 15.76875  22.23125 15.728125  22.325 15.684375  L 22.325 23.253125  Z M 23.25 7.765625  L 23.25 10.615625  C 23.25 12.484375  21.71875 14  19.834375 14  C 18.559375 14  17.446875 13.309375  16.859375 12.284375  C 16.76875 12.128125  16.60625 12.03125  16.425 12.03125  L 16.40625 12.03125  C 16.228125 12.03125  16.0625 12.128125  15.971875 12.284375  C 15.3875 13.309375  14.275 14  13 14  C 11.728125 14  10.61875 13.3125  10.03125 12.290625  C 9.9375 12.13125  9.76875 12.03125  9.584375 12.03125  C 9.4 12.03125  9.228125 12.13125  9.1375 12.290625  C 8.546875 13.3125  7.4375 14  6.165625 14  C 4.28125 14  2.75 12.484375  2.75 10.615625  L 2.75 7.765625  C 2.75 7.75625  2.75625 7.75  2.765625 8  L 23.234375 8  C 23.24375 7.75  23.25 7.75625  23.25 7.765625  Z " fill-rule="nonzero" fill="#ffffff" stroke="none" transform="matrix(1 0 0 1 479 2358 )" />
  </g>
</svg>