<?xml version="1.0" encoding="utf-8"?>
<svg version="1.1" xmlns:xlink="http://www.w3.org/1999/xlink" width="28px" height="22px" xmlns="http://www.w3.org/2000/svg">
  <g transform="matrix(1 0 0 1 -478 -2567 )">
    <path d="M 27.871875 17.584375  C 28.040625 17.225  28.040625 16.809375  27.875 16.453125  L 27.871875 16.45  L 27.86875 16.446875  C 26.490625 13.53125  24.35625 12.03125  21.515625 12.03125  C 18.675 12.03125  16.540625 13.534375  15.159375 16.446875  L 15.159375 16.45  C 14.990625 16.809375  14.990625 17.228125  15.159375 17.5875  C 16.540625 20.5  18.675 22  21.515625 22  C 24.35625 22  26.490625 20.496875  27.871875 17.584375  Z M 25.925 17.015625  C 24.875 19.0625  23.45625 20  21.515625 20  C 19.575 20  18.159375 19.0625  17.10625 17.015625  C 18.15625 14.96875  19.575 14.03125  21.515625 14.03125  C 23.45625 14.03125  24.871875 14.96875  25.925 17.015625  Z M 19.78125 17.03125  C 19.78125 17.9977483122039  20.5647516877961 18.78125  21.53125 18.78125  C 22.4977483122039 18.78125  23.28125 17.9977483122039  23.28125 17.03125  C 23.28125 16.0647516877961  22.4977483122039 15.28125  21.53125 15.28125  C 20.5647516877961 15.28125  19.78125 16.0647516877961  19.78125 17.03125  Z M 2.25 16  L 2.25 2.25  L 24.25 2.25  L 24.25 10.15625  L 26.5 10.15625  L 26.5 1  C 26.5 0.446875  26.053125 0  25.5 0  L 1 0  C 0.446875 0  0 0.446875  0 1  L 0 17.25  C 0 17.803125  0.446875 18.25  1 18  L 12 18  L 12 16  L 2.25 16  Z M 20.653125 5.91875  C 20.753125 5.821875  20.753125 5.6625  20.653125 5.565625  L 19.503125 4.415625  C 19.40625 4.31875  19.246875 4.31875  19.15 4.415625  L 13.40625 10.165625  L 10.715625 7.471875  C 10.61875 7.375  10.459375 7.375  10.3625 7.471875  L 5.853125 11.98125  C 5.75625 12.078125  5.75625 12.2375  5.853125 12.334375  L 7.003125 13.484375  C 7.1 13.58125  7.259375 13.58125  7.35625 13.484375  L 10.5375 10.303125  L 13.228125 12.996875  C 13.325 13.09375  13.484375 13.09375  13.58125 12.996875  L 20.653125 5.91875  Z " fill-rule="nonzero" fill="#000000" stroke="none" transform="matrix(1 0 0 1 478 2567 )" />
  </g>
</svg>