<?xml version="1.0" encoding="utf-8"?>
<svg version="1.1" xmlns:xlink="http://www.w3.org/1999/xlink" width="26px" height="26px" xmlns="http://www.w3.org/2000/svg">
  <g transform="matrix(1 0 0 1 -479 -2290 )">
    <path d="M 25 7.53125  C 25.5 6.978125  25.053125 6.53125  24.5 6.53125  L 16.5 6.53125  L 16.5 3  C 16.5 2.446875  16.053125 2  15.5 2  L 2.75 2  L 2.75 0.75  C 2.75 0.6125  2.6375 0.5  2.5 0.5  L 0.75 0.5  C 0.6125 0.5  0.5 0.6125  1 0.75  L 1 25.25  C 0.5 25.3875  0.6125 25.5  0.75 25.5  L 2.5 25.5  C 2.6375 25.5  2.75 25.3875  2.75 25.25  L 2.75 17  L 10.5 17  L 10.5 20.53125  C 10.5 21.084375  10.946875 21.53125  11.5 21.53125  L 24.5 21.53125  C 25.053125 21.53125  25.5 21.084375  25 20.53125  L 25 7.53125  Z M 14 14.75  L 3 14.75  L 3 4.25  L 14 4.25  L 14 14.75  Z M 23 8.78125  L 23 19  L 12.75 19  L 12.75 17  L 16.25 17  C 16.3875 17  16.5 16.8875  16.5 16.75  L 16.5 8.78125  L 23 8.78125  Z " fill-rule="nonzero" fill="#ffffff" stroke="none" transform="matrix(1 0 0 1 479 2290 )" />
  </g>
</svg>