<?xml version="1.0" encoding="utf-8"?>
<svg version="1.1" xmlns:xlink="http://www.w3.org/1999/xlink" width="28px" height="28px" xmlns="http://www.w3.org/2000/svg">
  <g transform="matrix(1 0 0 1 -757 -2221 )">
    <path d="M 28 14  C 28 6.26875  21.73125 0  14 0  C 6.26875 0  0 6.26875  0 14  C 0 21.73125  6.26875 28  14 28  C 21.73125 28  28 21.73125  28 14  Z M 25.625 14  C 25.625 20.41875  20.41875 25.625  14 25.625  C 7.58125 25.625  2.375 20.41875  2.375 14  C 2.375 7.58125  7.58125 2.375  14 2.375  C 20.41875 2.375  25.625 7.58125  25.625 14  Z M 19.253125 20.296875  L 16.734375 15.165625  C 17.821875 14.765625  19.184375 13.634375  19.184375 11.440625  C 19.184375 9.215625  17.7625 7.34375  14.678125 7.34375  L 9.8125 7.34375  C 9.675 7.34375  9.5625 7.45625  10 7.59375  L 10 20.40625  C 9.5625 20.54375  9.675 20.65625  9.8125 20.65625  L 11.515625 20.65625  C 11.653125 20.65625  11.765625 20.54375  11.765625 20.40625  L 11.765625 15.5375  L 14.5375 15.5375  L 16.86875 20.5125  C 16.909375 20.6  16.996875 20.65625  17.09375 20.65625  L 19.03125 20.65625  C 19.06875 20.65625  19.10625 20.646875  19.140625 20.63125  C 19.265625 20.56875  19.315625 20.421875  19.253125 20.296875  Z M 16.9 11.515625  C 16.9 12.98125  15.96875 13.78125  14.3125 13.78125  L 11.765625 13.78125  L 11.765625 9.15625  L 14.371875 9.15625  C 15.871875 9.15625  16.9 9.946875  16.9 11.515625  Z " fill-rule="nonzero" fill="#000000" stroke="none" transform="matrix(1 0 0 1 757 2221 )" />
  </g>
</svg>