<?xml version="1.0" encoding="utf-8"?>
<svg version="1.1" xmlns:xlink="http://www.w3.org/1999/xlink" width="25px" height="30px" xmlns="http://www.w3.org/2000/svg">
  <g transform="matrix(1 0 0 1 -759 -1537 )">
    <path d="M 14 19.46875  C 16.93125 19.46875  19.3125 17.121875  19.3125 14.21875  L 19.3125 9.71875  L 16.9375 12.09375  L 16.9375 14.21875  C 16.934375 15.803125  15.625 17.096875  14 17.09375  C 13.403125 17.096875  12.85 16.925  12.375 16.625  L 10.6875 18.34375  C 11.596875 19.04375  12.746875 19.46875  14 19.46875  Z M 24.28125 14.1875  C 24.28125 14.05  24.16875 13.9375  24.03125 13.9375  L 22.15625 13.9375  C 22.01875 13.9375  21.90625 14.05  21.90625 14.1875  C 21.90625 18.571875  18.353125 22.125  13.96875 22.125  C 12 22.125  10.196875 21.40625  8.8125 20.21875  L 7.125 21.90625  C 8.653125 23.25625  10.5875 24.165625  12.71875 24.4375  L 12.71875 27.625  L 8.1875 27.625  C 7.753125 27.625  7.409375 28.071875  7.40625 28.625  L 7.40625 29.75  C 7.409375 29.8875  7.496875 30  7.59375 30  L 20.34375 30  C 20.44375 30  20.53125 29.8875  20.53125 29.75  L 20.53125 28.625  C 20.53125 28.071875  20.1875 27.625  19.75 27.625  L 15.09375 27.625  L 15.09375 24.4375  C 20.259375 23.878125  24.28125 19.503125  24.28125 14.1875  Z M 24.446875 2.490625  C 24.54375 2.390625  24.540625 2.23125  24.440625 2.134375  L 23.08125 0.825  C 22.984375 0.73125  22.828125 0.73125  22.73125 0.828125  L 18.7 4.859375  C 17.821875 3.1625  16.03125 2  13.96875 2  C 11.034375 2  8.65625 4.353125  8.65625 7.25  L 8.65625 14.25  C 8.65625 14.459375  8.66875 14.665625  8.69375 14.86875  L 6.56875 16.99375  C 6.240625 16.121875  6.059375 15.175  6.0625 14.1875  C 6.05625 14.05  5.94375 13.9375  5.8125 13.9375  L 3.9375 13.9375  C 3.8 13.9375  3.6875 14.05  3.6875 14.1875  C 3.6875 15.84375  4.078125 17.40625  4.76875 18.79375  L 0.4875 23.075  C 0.390625 23.171875  0.390625 23.33125  0.4875 23.428125  L 1.821875 24.7625  C 1.91875 24.859375  2.078125 24.859375  2.175 24.7625  L 24.44375 2.49375  L 24.446875 2.490625  Z M 16.853125 6.709375  L 11.03125 12.53125  L 11.03125 7.25  C 11.03125 5.66875  12.340625 4.375  13.96875 4.375  C 15.40625 4.375  16.596875 5.384375  16.853125 6.709375  Z " fill-rule="nonzero" fill="#ffffff" stroke="none" transform="matrix(1 0 0 1 759 1537 )" />
  </g>
</svg>