<?xml version="1.0" encoding="utf-8"?>
<svg version="1.1" xmlns:xlink="http://www.w3.org/1999/xlink" width="24px" height="24px" xmlns="http://www.w3.org/2000/svg">
  <g transform="matrix(1 0 0 1 -1041 -420 )">
    <path d="M 7.75 0.25  C 7.75 0.1125  7.6375 0  7.5 0  L 5.75 0  C 5.6125 0  5.5 0.1125  5.5 0.25  L 5.5 2  C 5.5 2.1375  5.6125 2.25  5.75 2.25  L 7.5 2.25  C 7.6375 2.25  7.75 2.1375  7.75 2  L 7.75 0.25  Z M 7.6875 22  C 7.6875 21.8625  7.575 21.75  7.4375 21.75  L 5.6875 21.75  C 5.55 21.75  5.4375 21.8625  5.4375 22  L 5.4375 23.75  C 5.4375 23.8875  5.55 24  5.6875 24  L 7.4375 24  C 7.575 24  7.6875 23.8875  7.6875 23.75  L 7.6875 22  Z M 24 16.5625  C 24 16.425  23.8875 16.3125  23.75 16.3125  L 22 16.3125  C 21.8625 16.3125  21.75 16.425  21.75 16.5625  L 21.75 18.3125  C 21.75 18.45  21.8625 18.5625  22 18.5625  L 23.75 18.5625  C 23.8875 18.5625  24 18.45  24 18.3125  L 24 16.5625  Z M 24 22  C 24 21.8625  23.8875 21.75  23.75 21.75  L 22 21.75  C 21.8625 21.75  21.75 21.8625  21.75 22  L 21.75 23.75  C 21.75 23.8875  21.8625 24  22 24  L 23.75 24  C 23.8875 24  24 23.8875  24 23.75  L 24 22  Z M 2.25 0.25  C 2.25 0.1125  2.1375 0  2 0  L 0.25 0  C 0.1125 0  0 0.1125  0 0.25  L 0 2  C 0 2.1375  0.1125 2.25  0.25 2.25  L 2 2.25  C 2.1375 2.25  2.25 2.1375  2.25 2  L 2.25 0.25  Z M 2.25 5.6875  C 2.25 5.55  2.1375 5.4375  2 5.4375  L 0.25 5.4375  C 0.1125 5.4375  0 5.55  0 5.6875  L 0 7.4375  C 0 7.575  0.1125 7.6875  0.25 7.6875  L 2 7.6875  C 2.1375 7.6875  2.25 7.575  2.25 7.4375  L 2.25 5.6875  Z M 2.25 11.125  C 2.25 10.9875  2.1375 10.875  2 10.875  L 0.25 10.875  C 0.1125 10.875  0 10.9875  0 11.125  L 0 12.875  C 0 13.0125  0.1125 13.125  0.25 13.125  L 2 13.125  C 2.1375 13.125  2.25 13.0125  2.25 12.875  L 2.25 11.125  Z M 2.25 16.5625  C 2.25 16.425  2.1375 16.3125  2 16.3125  L 0.25 16.3125  C 0.1125 16.3125  0 16.425  0 16.5625  L 0 18.3125  C 0 18.45  0.1125 18.5625  0.25 18.5625  L 2 18.5625  C 2.1375 18.5625  2.25 18.45  2.25 18.3125  L 2.25 16.5625  Z M 2.25 22  C 2.25 21.8625  2.1375 21.75  2 21.75  L 0.25 21.75  C 0.1125 21.75  0 21.8625  0 22  L 0 23.75  C 0 23.8875  0.1125 24  0.25 24  L 2 24  C 2.1375 24  2.25 23.8875  2.25 23.75  L 2.25 22  Z M 13.125 22  C 13.125 21.8625  13.0125 21.75  12.875 21.75  L 11.125 21.75  C 10.9875 21.75  10.875 21.8625  10.875 22  L 10.875 23.75  C 10.875 23.8875  10.9875 24  11.125 24  L 12.875 24  C 13.0125 24  13.125 23.8875  13.125 23.75  L 13.125 22  Z M 18.5625 22  C 18.5625 21.8625  18.45 21.75  18.3125 21.75  L 16.5625 21.75  C 16.425 21.75  16.3125 21.8625  16.3125 22  L 16.3125 23.75  C 16.3125 23.8875  16.425 24  16.5625 24  L 18.3125 24  C 18.45 24  18.5625 23.8875  18.5625 23.75  L 18.5625 22  Z M 24 7.1875  C 24 3.21875  20.78125 0  16.8125 0  L 11.125 0  C 10.9875 0  10.875 0.1125  10.875 0.25  L 10.875 2  C 10.875 2.1375  10.9875 2.25  11.125 2.25  L 16.8125 2.25  C 19.540625 2.25  21.75 4.459375  21.75 7.1875  L 21.75 12.875  C 21.75 13.0125  21.8625 13.125  22 13.125  L 23.75 13.125  C 23.8875 13.125  24 13.0125  24 12.875  L 24 7.1875  Z " fill-rule="nonzero" fill="#ffffff" stroke="none" transform="matrix(1 0 0 1 1041 420 )" />
  </g>
</svg>