<?xml version="1.0" encoding="utf-8"?>
<svg version="1.1" xmlns:xlink="http://www.w3.org/1999/xlink" width="3px" height="16px" xmlns="http://www.w3.org/2000/svg">
  <g transform="matrix(1 0 0 1 -770 -1749 )">
    <path d="M 1.375 9  C 1.025 9  0.690625000000001 8.94375  0.375 8.84375  L 0.375 15.75  C 0.375 15.8875  0.487500000000001 16  0.625 16  L 2.125 16  C 2.2625 16  2.375 15.8875  2.375 15.75  L 2.375 8.84375  C 2.059375 8.946875  1.725 9  1.375 9  Z M 1.375 2.5  C 1.725 2.5  2.059375 2.55625  2.375 2.65625  L 2.375 0.25  C 2.375 0.112500000000001  2.2625 0  2.125 0  L 0.625 0  C 0.487500000000001 0  0.375 0.112500000000001  0.375 0.25  L 0.375 2.65625  C 0.690625000000001 2.553125  1.025 2.5  1.375 2.5  Z " fill-rule="nonzero" fill="#ffffff" stroke="none" transform="matrix(1 0 0 1 770 1749 )" />
  </g>
</svg>