<?xml version="1.0" encoding="utf-8"?>
<svg version="1.1" xmlns:xlink="http://www.w3.org/1999/xlink" width="26px" height="26px" xmlns="http://www.w3.org/2000/svg">
  <g transform="matrix(1 0 0 1 -758 -2084 )">
    <path d="M 25 7.578125  C 25.5 7.046875  25.290625 6.540625  24.915625 6.165625  L 19.834375 1.084375  C 19.6 0.85  19.3125 0.678125  19 0.584375  L 19 1  L 1.5 1  C 0.946875 0.5  0.5 0.946875  1 1.5  L 1 24.5  C 0.5 25.053125  0.946875 25.5  1.5 25  L 24.5 25  C 25.053125 25.5  25.5 25.053125  25 24.5  L 25 7.578125  Z M 9 6  L 9 2.75  L 17 2.75  L 17 6  L 9 6  Z M 23 7.68125  L 23 23  L 3 23  L 3 2.75  L 7 2.75  L 7 7  C 7 7.553125  7.446875 8  8 8  L 18 8  C 18.553125 8  19 7.553125  19 7  L 19 3.43125  L 23 7.68125  Z M 17.5 15.3125  C 17.5 12.828125  15.484375 10.8125  13 10.8125  C 10.515625 10.8125  8.5 12.828125  8.5 15.3125  C 8.5 17.796875  10.515625 19.8125  13 19.8125  C 15.484375 19.8125  17.5 17.796875  17.5 15.3125  Z M 15.5 15.3125  C 15.5 16.69375  14.38125 17.8125  13 17.8125  C 11.61875 17.8125  10.5 16.69375  10.5 15.3125  C 10.5 13.93125  11.61875 12.8125  13 12.8125  C 14.38125 12.8125  15.5 13.93125  15.5 15.3125  Z " fill-rule="nonzero" fill="#ffffff" stroke="none" transform="matrix(1 0 0 1 758 2084 )" />
  </g>
</svg>