<?xml version="1.0" encoding="utf-8"?>
<svg version="1.1" xmlns:xlink="http://www.w3.org/1999/xlink" width="22px" height="28px" xmlns="http://www.w3.org/2000/svg">
  <g transform="matrix(1 0 0 1 -760 -2633 )">
    <path d="M 12.496875 13.590625  C 12.49375 13.446875  12.378125 13.328125  12.234375 13.328125  L 11.28125 13.328125  C 11.1375 13.328125  11.01875 13.44375  11.01875 13.590625  L 11.01875 20.5  C 11.01875 20.64375  11.134375 20.7625  11.28125 20.7625  L 12.234375 20.7625  C 12.378125 20.7625  12.496875 20.646875  12.496875 20.5  L 12.496875 13.590625  Z M 10.175 17.009375  C 10.175 16.865625  10.059375 16.75  9.915625 16.75  L 7.1625 16.75  C 7.01875 16.75  6.9 16.865625  6.9 17.0125  L 6.9 17.75625  C 6.9 17.9  7.015625 18.01875  7.1625 18.01875  L 8.65 18.01875  L 8.65 18.040625  C 8.63125 18.975  7.93125 19.596875  6.884375 19.596875  C 5.659375 19.596875  4.896875 18.6375  4.896875 17.053125  C 4.896875 15.4875  5.64375 14.534375  6.84375 14.534375  C 7.721875 14.534375  8.328125 14.95625  8.575 15.73125  L 8.603125 15.81875  L 10.140625 15.81875  L 10.11875 15.675  C 9.871875 14.121875  8.584375 13.125  6.84375 13.125  C 4.69375 13.125  3.3125 14.66875  3.3125 17.059375  C 3.3125 19.48125  4.678125 21  6.8625 21  C 8.875 21  10.175 19.740625  10.175 17.784375  L 10.175 17.009375  Z M 22 7.728125  C 22 7.4625  21.89375 7.20625  21.70625 7.01875  L 14.98125 0.29375  C 14.79375 0.10625  14.540625 0  14.275 0  L 1 0  C 0.446875 0  0 0.446875  0 1  L 0 27  C 0 27.553125  0.446875 28  1 28  L 21 28  C 21.553125 28  22 27.553125  22 27  L 22 7.728125  Z M 13.8125 8.1875  L 13.8125 2.30625  L 19.69375 8.1875  L 13.8125 8.1875  Z M 19.75 10.3125  L 19.75 25.75  L 2.25 25.75  L 2.25 2.25  L 11.6875 2.25  L 11.6875 9  C 11.6875 9.725  12.275 10.3125  13 10.3125  L 19.75 10.3125  Z M 13.74375 20.478125  C 13.74375 20.628125  13.8625 20.74375  14.00625 20.74375  L 15.015625 20.74375  C 15.159375 20.74375  15.278125 20.628125  15.278125 20.48125  L 15.278125 17.83125  L 18.021875 17.83125  C 18.165625 17.83125  18.284375 17.715625  18.284375 17.56875  L 18.284375 16.771875  C 18.284375 16.628125  18.16875 16.509375  18.021875 16.509375  L 15.278125 16.509375  L 15.278125 14.66875  L 18.303125 14.66875  C 18.446875 14.66875  18.565625 14.553125  18.565625 14.40625  L 18.565625 13.56875  C 18.565625 13.425  18.45 13.30625  18.303125 13.30625  L 14.00625 13.30625  C 13.8625 13.30625  13.74375 13.421875  13.74375 13.56875  L 13.74375 20.478125  Z " fill-rule="nonzero" fill="#000000" stroke="none" transform="matrix(1 0 0 1 760 2633 )" />
  </g>
</svg>