<?xml version="1.0" encoding="utf-8"?>
<svg version="1.1" xmlns:xlink="http://www.w3.org/1999/xlink" width="22px" height="24px" xmlns="http://www.w3.org/2000/svg">
  <g transform="matrix(1 0 0 1 -1042 -353 )">
    <path d="M 8.240625 7.565625  L 4.0625 3.3875  L 5.434375 2.015625  C 5.58125 1.86875  5.49375 1.615625  5.2875 1.590625  L 0.28125 1  C 0.121875 0.98125  -0.015625 1.115625  0.00312499999999982 1.278125  L 0.59375 6.284375  C 0.61875 6.490625  0.871875 6.578125  1.01875 6.43125  L 2.384375 5.065625  L 6.5625 9.240625  C 6.659375 9.3375  6.81875 9.3375  6.915625 9.240625  L 8.240625 7.91875  C 8.3375 7.821875  8.3375 7.6625  8.240625 7.565625  Z M 13.759375 7.915625  L 15.084375 9.240625  C 15.18125 9.3375  15.340625 9.3375  15.4375 9.240625  L 19.615625 5.065625  L 20.98125 6.43125  C 21.128125 6.578125  21.38125 6.490625  21.40625 6.284375  L 21.996875 1.28125  C 22.015625 1.121875  21.88125 0.984375  21.71875 1.003125  L 16.7125 1.59375  C 16.50625 1.61875  16.41875 1.871875  16.565625 2.01875  L 17.9375 3.390625  L 13.759375 7.5625  C 13.6625 7.659375  13.6625 7.81875  13.759375 7.915625  Z M 21.996875 22.721875  L 21.40625 17.715625  C 21.38125 17.509375  21.128125 17.421875  20.98125 17.56875  L 19.615625 18.934375  L 15.4375 14.759375  C 15.340625 14.6625  15.18125 14.6625  15.084375 14.759375  L 13.759375 16.08125  C 13.6625 16.178125  13.6625 16.3375  13.759375 16.434375  L 17.9375 20.6125  L 16.565625 21.984375  C 16.41875 22.13125  16.50625 22.384375  16.7125 22.409375  L 21.71875 23  C 21.878125 23.01875  22.015625 22.884375  21.996875 22.721875  Z M 8.240625 16.084375  L 6.915625 14.759375  C 6.81875 14.6625  6.659375 14.6625  6.5625 14.759375  L 2.384375 18.934375  L 1.01875 17.56875  C 0.871875000000001 17.421875  0.61875 17.509375  0.593750000000001 17.715625  L 0.00312499999999982 22.71875  C -0.015625 22.878125  0.118749999999999 23.015625  0.28125 22.996875  L 5.2875 22.40625  C 5.49375 22.38125  5.58125 22.128125  5.434375 21.98125  L 4.0625 20.6125  L 8.240625 16.4375  C 8.3375 16.340625  8.3375 16.18125  8.240625 16.084375  Z " fill-rule="nonzero" fill="#ffffff" stroke="none" transform="matrix(1 0 0 1 1042 353 )" />
  </g>
</svg>