<?xml version="1.0" encoding="utf-8"?>
<svg version="1.1" xmlns:xlink="http://www.w3.org/1999/xlink" width="28px" height="28px" xmlns="http://www.w3.org/2000/svg">
  <g transform="matrix(1 0 0 1 -757 -2494 )">
    <path d="M 27.225 12.5875  C 27.2875 12.521875  27.31875 12.43125  27.3125 12.3375  L 26.3875 2.56875  C 26.340625 2.0625  25.9375 1.6625  25.43125 1.6125  L 15.6625 0.6875  L 15.65 0.6875  C 15.55 0.6875  15.471875 0.71875  15.4125 0.778125  L 0.778125 15.4125  C 0.65625 15.534375  0.65625 15.73125  0.778125 15.853125  L 12.146875 27.221875  C 12.20625 27.28125  12.284375 27.3125  12.36875 27.3125  C 12.453125 27.3125  12.53125 27.28125  12.590625 27.221875  L 27.225 12.5875  Z M 24.85625 11.59375  L 12.365625 24.084375  L 3.915625 15.634375  L 16.40625 3.14375  L 24.125 3.875  L 24.85625 11.59375  Z M 22 8.75  C 22 7.234375  20.765625 6  19.25 6  C 17.734375 6  16.5 7.234375  16.5 8.75  C 16.5 10.265625  17.734375 11.5  19.25 11.5  C 20.765625 11.5  22 10.265625  22 8.75  Z M 20.25 8.75  C 20.25 9.303125  19.803125 9.75  19.25 9.75  C 18.696875 9.75  18.25 9.303125  18.25 8.75  C 18.25 8.196875  18.696875 7.75  19.25 7.75  C 19.803125 7.75  20.25 8.196875  20.25 8.75  Z " fill-rule="nonzero" fill="#000000" stroke="none" transform="matrix(1 0 0 1 757 2494 )" />
  </g>
</svg>