<?xml version="1.0" encoding="utf-8"?>
<svg version="1.1" xmlns:xlink="http://www.w3.org/1999/xlink" width="22px" height="28px" xmlns="http://www.w3.org/2000/svg">
  <g transform="matrix(1 0 0 1 -760 -1947 )">
    <path d="M 22 7.728125  C 22 7.4625  21.89375 7.209375  21.70625 7.021875  L 14.98125 0.29375  C 14.79375 0.10625  14.5375 0  14.271875 0  L 1 0  C 0.446875 0  0 0.446875  0 1  L 0 27  C 0 27.553125  0.446875 28  1 28  L 21 28  C 21.553125 28  22 27.553125  22 27  L 22 7.728125  Z M 13.8125 2.30625  L 19.69375 8.1875  L 13.8125 8.1875  L 13.8125 2.30625  Z M 19.75 10.3125  L 19.75 25.75  L 2.25 25.75  L 2.25 2.25  L 11.6875 2.25  L 11.6875 9  C 11.6875 9.725  12.275 10.3125  13 10.3125  L 19.75 10.3125  Z M 11.046875 11.9375  C 9.128125 11.915625  7.5625 13.3625  7.5625 15.15625  C 7.5625 15.325  7.7 15.453125  7.86875 15.453125  L 8.88125 15.453125  C 9.05 15.453125  9.1875 15.321875  9.1875 15.159375  C 9.1875 14.278125  9.99375 13.546875  11 13.546875  C 12.00625 13.546875  12.8125 14.278125  12.8125 15.15625  C 12.8125 15.946875  12.15625 16.63125  11.271875 16.746875  C 10.66875 16.834375  10.19375 17.38125  10.1875 18  L 10.1875 19  C 10.1875 19.171875  10.328125 19.3125  10.5 19.3125  L 11.5 19.3125  C 11.671875 19.3125  11.8125 19.171875  11.8125 19  L 11.8125 18.61875  C 11.8125 18.43125  11.9375 18.259375  12.115625 18.203125  C 13.509375 17.753125  14.459375 16.515625  14.4375 15.1125  C 14.4125 13.378125  12.9 11.9625  11.046875 11.9375  Z M 10 21.25  C 10 21.8022847498308  10.4477152501692 22.25  11 22.25  C 11.5522847498308 22.25  12 21.8022847498308  12 21.25  C 12 20.6977152501692  11.5522847498308 20.25  11 20.25  C 10.4477152501692 20.25  10 20.6977152501692  10 21.25  Z " fill-rule="nonzero" fill="#ffffff" stroke="none" transform="matrix(1 0 0 1 760 1947 )" />
  </g>
</svg>