<?xml version="1.0" encoding="utf-8"?>
<svg version="1.1" xmlns:xlink="http://www.w3.org/1999/xlink" width="26px" height="26px" xmlns="http://www.w3.org/2000/svg">
  <g transform="matrix(1 0 0 1 -758 -2427 )">
    <path d="M 25 1.5375  C 25.5 0.94375  25.03125 0.5  24.5 0.5  C 24.38125 0.5  24.259375 0.521875  24.1375 0.571875  L 6.125 7.809375  L 1 7.809375  C 0.725 7.809375  0.5 8.040625  0.5 8.328125  L 0.5 17.671875  C 0.5 17.959375  0.725 18.190625  1 18.190625  L 4.178125 18.190625  C 4.0625 18.553125  4 18.9375  4 19.328125  C 4 21.3875  5.68125 23.0625  7.75 23.0625  C 9.48125 23.0625  10.940625 21.8875  11.371875 20.3  L 24.140625 25.43125  C 24.2625 25.478125  24.384375 25.503125  24.503125 25.503125  C 25.03125 25.503125  25.503125 25.059375  25 24.465625  L 25 1.5375  Z M 9.246875 19.44375  C 9.184375 20.2125  8.5375 20.821875  7.75 20.821875  C 6.921875 20.821875  6.25 20.153125  6.25 19.328125  C 6.25 18.978125  6.371875 18.64375  6.59375 18.378125  L 9.246875 19.44375  Z M 23 3.353125  L 23 22.646875  L 6.9625 16.103125  L 6.559375 15.940625  L 2.75 15.940625  L 2.75 10.059375  L 6.559375 10.059375  L 6.9625 9.896875  L 23 3.353125  Z " fill-rule="nonzero" fill="#ffffff" stroke="none" transform="matrix(1 0 0 1 758 2427 )" />
  </g>
</svg>