<?xml version="1.0" encoding="utf-8"?>
<svg version="1.1" xmlns:xlink="http://www.w3.org/1999/xlink" width="22px" height="23px" xmlns="http://www.w3.org/2000/svg">
  <g transform="matrix(1 0 0 1 -760 -2773 )">
    <path d="M 15.675 12.796875  L 21.28125 6.5625  C 21.375 6.459375  21.365625 6.303125  21.2625 6.209375  C 21.215625 6.16875  21.15625 6.14375  21.096875 6.14375  L 18.828125 6.14375  C 18.753125 6.14375  18.684375 6.175  18.6375 6.23125  L 14.796875 10.76875  C 14.70625 10.875  14.55 10.8875  14.44375 10.796875  C 14.415625 10.771875  14.39375 10.74375  14.378125 10.709375  L 12.39375 6.29375  C 12.353125 6.203125  12.265625 6.146875  12.165625 6.146875  L 6.896875 6.146875  L 6.925 6  L 7.175 4.678125  C 7.503125 2.946875  8.3625 2.134375  9.85625 2.134375  C 10.4375 2.134375  10.965625 2.1875  11.38125 2.28125  L 11.821875 0.19375  C 11.115625 0.046875  10.721875 0.00312499999999982  10.10625 0.00312499999999982  C 6.878125 0.00312499999999982  5.21875 1.3875  4.609375 4.60625  L 4.315625 6.15  L 1.265625 6.15  C 1.146875 6.15  1.04375 6.234375  1.021875 6.35  L 0.684375 7.96875  C 0.65625 8.103125  0.74375 8.2375  0.878125 8.265625  C 0.89375 8.26875  0.9125 8.271875  0.928125 8.271875  L 3.875 8.271875  L 1.09375 21.70625  C 1.065625 21.840625  1.153125 21.975  1.2875 22.003125  C 1.303125 22.00625  1.321875 22.009375  1.3375 22.009375  L 3.40625 22.009375  C 3.525 22.009375  3.628125 21.925  3.65 21.809375  L 6.453125 8.275  L 10.696875 8.275  L 12.828125 12.621875  C 12.871875 12.7125  12.859375 12.821875  12.790625 12.896875  L 7.146875 19.240625  C 7.05625 19.34375  7.065625 19.503125  7.16875 19.59375  C 7.215625 19.634375  7.275 19.65625  7.334375 19.65625  L 9.60625 19.65625  C 9.68125 19.65625  9.75 19.625  9.796875 19.56875  L 13.6625 14.984375  C 13.75 14.878125  13.909375 14.865625  14.015625 14.953125  C 14.04375 14.978125  14.065625 15.00625  14.08125 15.040625  L 16.1375 19.5  C 16.178125 19.5875  16.265625 19.646875  16.365625 19.646875  L 18.384375 19.646875  C 18.521875 19.646875  18.634375 19.534375  18.634375 19.396875  C 18.634375 19.359375  18.625 19.321875  18.609375 19.2875  L 15.634375 13.071875  C 15.590625 12.98125  15.60625 12.871875  15.675 12.796875  Z " fill-rule="nonzero" fill="#ffffff" stroke="none" transform="matrix(1 0 0 1 760 2773 )" />
  </g>
</svg>