<?xml version="1.0" encoding="utf-8"?>
<svg version="1.1" xmlns:xlink="http://www.w3.org/1999/xlink" width="28px" height="26px" xmlns="http://www.w3.org/2000/svg">
  <g transform="matrix(1 0 0 1 -757 -2358 )">
    <path d="M 18.5625 1.596875  C 18.5625 1.009375  18.08125 0.59375  17.559375 0.59375  C 17.375 0.59375  17.1875 0.64375  17.015625 0.759375  L 5.9375 8  L 0.8125 8  C 0.5375 8  0.3125 8.225  0.3125 8.5  L 0.3125 17.5  C 0.3125 17.775  0.5375 18  0.8125 18  L 5.9375 18  L 17.015625 25.240625  C 17.1875 25.353125  17.378125 25.40625  17.559375 25.40625  C 18.08125 25.40625  18.5625 24.990625  18.5625 24.403125  L 18.5625 1.596875  Z M 16 3.90625  L 16 22.09375  L 7.16875 16.115625  L 6.60625 15.75  L 2.5625 15.75  L 2.5625 10.25  L 6.60625 10.25  L 7.165625 9.884375  L 16 3.90625  Z M 27.6875 12.375  C 27.6875 12.1  27.4625 11.875  27.1875 11.875  L 23.1875 11.875  C 22.9125 11.875  22.6875 12.1  22.6875 12.375  L 22.6875 13.625  C 22.6875 13.9  22.9125 14.125  23.1875 14.125  L 27.1875 14.125  C 27.4625 14.125  27.6875 13.9  27.6875 13.625  L 27.6875 12.375  Z M 26.059375 20.7375  C 26.196875 20.5  26.1125 20.19375  25.878125 20.05625  L 22.43125 18.065625  C 22.353125 18.021875  22.26875 18  22.184375 18  C 22.0125 18  21.84375 18.090625  21.753125 18.25  L 21.13125 19.328125  C 20.99375 19.565625  21.075 19.871875  21.3125 20.009375  L 24.759375 22  C 24.8375 22.04375  24.921875 22.065625  25.00625 22.065625  C 25.178125 22.065625  25.346875 21.975  25.4375 21.815625  L 26.059375 20.7375  Z M 21.13125 6.675  L 21.75 7.75  C 21.840625 7.909375  22.009375 8  22.18125 8  C 22.265625 8  22.35 7.978125  22.428125 7.934375  L 25.875 5.94375  C 26.1125 5.80625  26.19375 5.5  26.05625 5.2625  L 25.4375 4.1875  C 25.346875 4.028125  25.178125 3.9375  25.00625 3.9375  C 24.921875 3.9375  24.8375 3.959375  24.759375 4.003125  L 21.3125 5.99375  C 21.075 6.13125  20.99375 6.4375  21.13125 6.675  Z " fill-rule="nonzero" fill="#ffffff" stroke="none" transform="matrix(1 0 0 1 757 2358 )" />
  </g>
</svg>