<?xml version="1.0" encoding="utf-8"?>
<svg version="1.1" xmlns:xlink="http://www.w3.org/1999/xlink" width="24px" height="22px" xmlns="http://www.w3.org/2000/svg">
  <g transform="matrix(1 0 0 1 -759 -2567 )">
    <path d="M 23.125 0.5  C 23.125 0.3625  23.0125 0.25  22.871875 0.25  L 1.128125 0.25  C 0.9875 0.25  0.875 0.3625  0.875 0.5  L 0.875 2.375  C 0.875 2.5125  0.9875 2.625  1.128125 3  L 22.871875 3  C 23.0125 2.625  23.125 2.5125  23.125 2.375  L 23.125 0.5  Z M 15.696875 10.525  L 12.196875 6.09375  C 12.096875 5.965625  11.903125 5.965625  11.803125 6.09375  L 8.303125 10.521875  C 8.175 10.684375  8.290625 10.925  8.5 10.925  L 11 10.925  L 11 21.5  C 10.809375 21.6375  10.921875 21.75  11.059375 21.75  L 12.934375 21.75  C 13.071875 21.75  13.184375 21.6375  13 21.5  L 13 10.928125  L 15.5 10.928125  C 15.709375 10.928125  15.825 10.6875  15.696875 10.525  Z " fill-rule="nonzero" fill="#000000" stroke="none" transform="matrix(1 0 0 1 759 2567 )" />
  </g>
</svg>