<?xml version="1.0" encoding="utf-8"?>
<svg version="1.1" xmlns:xlink="http://www.w3.org/1999/xlink" width="26px" height="26px" xmlns="http://www.w3.org/2000/svg">
  <g transform="matrix(1 0 0 1 -665 -2222 )">
    <path d="M 25.5 13.371875  C 25.5 6.4625  19.89375 0.865625  12.98125 0.875  C 6.078125 0.884375  0.5 6.46875  0.5 13.371875  C 0.5 17.371875  2.38125 20.934375  5.30625 23.221875  L 4.134375 24.721875  C 4.00625 24.8875  4.125 25.128125  4.33125 25.125  L 9.55 25.1  C 9.7125 25.1  9.83125 24.946875  9.790625 24.790625  L 8.55625 19.71875  C 8.50625 19.515625  8.24375 19.459375  8.115625 19.625  L 6.84375 21.253125  C 6.525 21.003125  6.21875 20.73125  5.928125 20.440625  C 5.009375 19.521875  4.2875 18.453125  3.784375 17.2625  C 3.2625 16.03125  3 14.721875  3 13.371875  C 3 12.021875  3.2625 10.7125  3.784375 9.48125  C 4.2875 8.290625  5.009375 7.221875  5.928125 6.303125  C 6.846875 5.384375  7.915625 4.6625  9.10625 4.159375  C 10.340625 3.6375  11.65 3.375  13 3.375  C 14.35 3.375  15.659375 3.6375  16.890625 4.159375  C 18.08125 4.6625  19.15 5.384375  20.06875 6.303125  C 20.9875 7.221875  21.709375 8.290625  22.2125 9.48125  C 22.734375 10.7125  22.996875 12.021875  22.996875 13.371875  C 22.996875 14.721875  22.734375 16.03125  22.2125 17.2625  C 21.709375 18.453125  20.9875 19.521875  20.06875 20.440625  C 19.834375 20.675  19.590625 20.89375  19.3375 21.103125  C 19.23125 21.190625  19.215625 21.34375  19.3 21.45  L 20.53125 23.028125  C 20.61875 23.1375  20.778125 23.15625  20.8875 23.06875  C 23.703125 20.775  25.5 17.284375  25.5 13.371875  Z " fill-rule="nonzero" fill="#000000" stroke="none" transform="matrix(1 0 0 1 665 2222 )" />
  </g>
</svg>