<?xml version="1.0" encoding="utf-8"?>
<svg version="1.1" xmlns:xlink="http://www.w3.org/1999/xlink" width="24px" height="24px" xmlns="http://www.w3.org/2000/svg">
  <g transform="matrix(1 0 0 1 -1041 -287 )">
    <path d="M 22.9375 13.459375  C 23.15 13.459375  23.265625 13.209375  23.125 13.046875  L 12.753125 1.09375  C 12.35625 0.634375  11.64375 0.634375  11.24375 1.09375  L 0.875 13.046875  C 0.734375 13.209375  0.85 13.459375  1.0625 13.459375  L 3.59375 13.459375  C 3.7375 13.459375  3.875 13.396875  3.971875 13.2875  L 11 5.403125  L 11 23  C 10.8125 23.1375  10.925 23.25  11.0625 23.25  L 12.9375 23.25  C 13.075 23.25  13.1875 23.1375  13 23  L 13 5.403125  L 20.028125 13.2875  C 20.121875 13.396875  20.259375 13.459375  20.40625 13.459375  L 22.9375 13.459375  Z " fill-rule="nonzero" fill="#ffffff" stroke="none" transform="matrix(1 0 0 1 1041 287 )" />
  </g>
</svg>