<?xml version="1.0" encoding="utf-8"?>
<svg version="1.1" xmlns:xlink="http://www.w3.org/1999/xlink" width="28px" height="24px" xmlns="http://www.w3.org/2000/svg">
  <g transform="matrix(1 0 0 1 -664 -1813 )">
    <path d="M 28 1.375  C 28 0.821875  27.553125 0.375  27 0.375  L 1 0.375  C 0.446875 0.375  0 0.821875  0 1.375  L 0 16.875  C 0 17.428125  0.446875 17.875  1 17.875  L 12.875 17.875  L 12.875 21.375  L 7.5 21.375  C 7.225 21.375  7 21.6  7 21.875  L 7 23.375  C 7 23.5125  7.1125 23.625  7.25 23.625  L 20.75 23.625  C 20.8875 23.625  21 23.5125  21 23.375  L 21 21.875  C 21 21.6  20.775 21.375  20.5 21.375  L 15.125 21.375  L 15.125 17.875  L 27 17.875  C 27.553125 17.875  28 17.428125  28 16.875  L 28 1.375  Z M 25.75 3  L 25.75 15.625  L 2.25 15.625  L 2.25 3  L 25.75 3  Z " fill-rule="nonzero" fill="#ffffff" stroke="none" transform="matrix(1 0 0 1 664 1813 )" />
  </g>
</svg>