<?xml version="1.0" encoding="utf-8"?>
<svg version="1.1" xmlns:xlink="http://www.w3.org/1999/xlink" width="26px" height="22px" xmlns="http://www.w3.org/2000/svg">
  <g transform="matrix(1 0 0 1 -665 -2704 )">
    <path d="M 0.65625 8.5  L 0.65625 6.5  L 7.875 6.5  L 7.875 8.5  L 0.65625 8.5  Z M 18.125 8.5  L 18.125 6.5  L 25.65625 6.5  L 25.65625 8.5  L 18.125 8.5  Z M 9.875 8.5  L 9.875 6.5  L 16.125 6.5  L 16.125 8.5  L 9.875 8.5  Z M 9.875 15.5  L 9.875 13.5  L 16.125 13.5  L 16.125 15.5  L 9.875 15.5  Z M 18.125 15.5  L 18.125 13.5  L 25.65625 13.5  L 25.65625 15.5  L 18.125 15.5  Z M 0.65625 15.5  L 0.65625 13.5  L 7.875 13.5  L 7.875 15.5  L 0.65625 15.5  Z M 9.875 13.5  L 9.875 8.5  L 9.875 0.59375  L 8 0.59375  L 8 21.40625  L 9.875 21.40625  L 9.875 13.5  Z M 18 8.5  L 18.125 6.5  L 18.125 0.59375  L 16 0.59375  L 16 21.40625  L 18 21.40625  L 18 8.5  Z " fill-rule="nonzero" fill="#000000" stroke="none" transform="matrix(1 0 0 1 665 2704 )" />
  </g>
</svg>