<?xml version="1.0" encoding="utf-8"?>
<svg version="1.1" xmlns:xlink="http://www.w3.org/1999/xlink" width="28px" height="24px" xmlns="http://www.w3.org/2000/svg">
  <g transform="matrix(1 0 0 1 -664 -2085 )">
    <path d="M 26.9625 23.75  C 27.65625 23.75  28.1375 23.0625  27.903125 22.409375  L 26 15.75  L 26 1.25  C 26.0125 0.696875  25.565625 0.25  25.0125 0.25  L 3.0125 0.25  C 2.459375 0.25  2.0125 0.696875  2 1.25  L 2 15.75  L 0.121875 22.409375  C -0.1125 23.0625  0.36875 23.75  1.0625 23.75  L 26.9625 23.75  Z M 4.2625 14.84375  L 4.2625 2.5  L 23.7625 2.5  L 23.7625 14.84375  L 4.2625 14.84375  Z M 16.6 21.5  L 11.396875 21.5  L 11.65 20.34375  L 16.346875 20.34375  L 16.6 21.5  Z M 25.30625 21.5  L 18.396875 21.5  L 17.8 18.790625  C 17.775 18.675  17.671875 18.59375  17.55625 18.59375  L 10.44375 18.59375  C 10.325 18.59375  10.225 18.675  10.2 18.790625  L 9.603125 21.5  L 2.71875 21.5  L 4.040625 16.84375  L 23.984375 16.84375  L 25.30625 21.5  Z " fill-rule="nonzero" fill="#000000" stroke="none" transform="matrix(1 0 0 1 664 2085 )" />
  </g>
</svg>