<?xml version="1.0" encoding="utf-8"?>
<svg version="1.1" xmlns:xlink="http://www.w3.org/1999/xlink" width="25px" height="24px" xmlns="http://www.w3.org/2000/svg">
  <g transform="matrix(1 0 0 1 -666 -1881 )">
    <path d="M 24 19.909375  C 24 19.775  23.890625 19.66875  23.759375 19.66875  L 22.078125 19.66875  C 21.946875 19.66875  21.8375 19.778125  21.8375 19.909375  L 21.8375 21.840625  L 2.159375 21.840625  L 2.159375 2.159375  L 21.840625 2.159375  L 21.840625 4.090625  C 21.840625 4.221875  21.95 4.33125  22.08125 4.33125  L 23.7625 4.33125  C 23.89375 4.33125  24.003125 4.225  24.003125 4.090625  L 24.003125 0.959375  C 24.003125 0.428125  23.575 0  23.04375 0  L 0.959375 0  C 0.428125 0  0 0.428125  0 0.959375  L 0 23.040625  C 0 23.571875  0.428125 24  0.959375 24  L 23.040625 24  C 23.571875 24  24 23.571875  24 23.040625  L 24 19.909375  Z M 24.340625 12.196875  C 24.46875 12.096875  24.46875 11.903125  24.340625 11.803125  L 19.90625 8.303125  C 19.740625 8.171875  19.5 8.290625  19.5 8.5  L 19.5 10.875  L 9.6875 10.875  C 9.55 10.875  9.4375 10.9875  9.4375 11.125  L 9.4375 12.875  C 9.4375 13.0125  9.55 13.125  9.6875 13.125  L 19.5 13.125  L 19.5 15.5  C 19.5 15.709375  19.74375 15.828125  19.90625 15.696875  L 24.340625 12.196875  Z " fill-rule="nonzero" fill="#ffffff" stroke="none" transform="matrix(1 0 0 1 666 1881 )" />
  </g>
</svg>