<?xml version="1.0" encoding="utf-8"?>
<svg version="1.1" xmlns:xlink="http://www.w3.org/1999/xlink" width="24px" height="26px" xmlns="http://www.w3.org/2000/svg">
  <g transform="matrix(1 0 0 1 -17 -352 )">
    <path d="M 23.125 12.0625  C 23.125 11.925  23.0125 11.8125  22.871875 12  L 1.128125 12  C 0.9875 11.8125  0.875 11.925  0.875 12.0625  L 0.875 13.9375  C 0.875 14.075  0.9875 14.1875  1.128125 14  L 22.871875 14  C 23.0125 14.1875  23.125 14.075  23.125 13.9375  L 23.125 12.0625  Z M 8.671875 5.490625  L 11.821875 9.478125  C 11.9125 9.59375  12.0875 9.59375  12.175 9.478125  L 15.325 5.49375  C 15.440625 5.346875  15.3375 5.128125  15.146875 5.128125  L 13.1875 5.128125  L 13.1875 0.25  C 13.1875 0.1125  13.075 0  12.9375 0  L 11.0625 0  C 10.925 0  10.8125 0.1125  10.8125 0.25  L 10.8125 5.125  L 8.85 5.125  C 8.6625 5.125  8.55625 5.34375  8.671875 5.490625  Z M 15.328125 20.509375  L 12.178125 16.521875  C 12.0875 16.40625  11.9125 16.40625  11.825 16.521875  L 8.675 20.509375  C 8.559375 20.65625  8.6625 20.875  8.853125 20.875  L 10.8125 20.875  L 10.8125 25.75  C 10.8125 25.8875  10.925 26  11.0625 26  L 12.9375 26  C 13.075 26  13.1875 25.8875  13.1875 25.75  L 13.1875 20.875  L 15.15 20.875  C 15.3375 20.875  15.44375 20.65625  15.328125 20.509375  Z " fill-rule="nonzero" fill="#000000" stroke="none" transform="matrix(1 0 0 1 17 352 )" />
  </g>
</svg>