<?xml version="1.0" encoding="utf-8"?>
<svg version="1.1" xmlns:xlink="http://www.w3.org/1999/xlink" width="24px" height="24px" xmlns="http://www.w3.org/2000/svg">
  <g transform="matrix(1 0 0 1 -666 -2496 )">
    <path d="M 23.446875 9.715625  C 23.85 9.315625  23.85 8.659375  23.446875 8.253125  L 15.746875 0.553125  C 15.54375 0.35  15.278125 0.25  15.0125 0.25  C 14.746875 0.25  14.48125 0.35  14.278125 0.553125  L 9.24375 5.590625  C 8.8625 5.546875  8.478125 5.528125  8.09375 5.528125  C 5.80625 5.528125  3.51875 6.28125  1.640625 7.7875  C 1.159375 8.171875  1.11875 8.89375  1.55625 9.33125  L 7.234375 15.009375  L 0.503125 21.734375  C 0.421875 21.815625  0.368749999999999 21.925  0.359375 22.040625  L 0.253125 23.203125  C 0.225 23.496875  0.459375 23.746875  0.75 23.746875  C 0.765625 23.746875  0.78125 23.746875  0.796875 23.74375  L 1.959375 23.6375  C 2.075 23.628125  2.184375 23.575  2.265625 23.49375  L 8.996875 16.7625  L 14.675 22.440625  C 14.878125 22.64375  15.14375 22.74375  15.409375 22.74375  C 15.7125 22.74375  16.0125 22.6125  16.21875 22.35625  C 17.978125 20.159375  18.709375 17.409375  18.4125 14.75  L 23.446875 9.715625  Z M 21 8.984375  L 16.81875 13.165625  L 16.053125 13.93125  L 16.171875 15.00625  C 16.2875 16.059375  16.203125 17.10625  15.915625 18.121875  C 15.746875 18.715625  15.515625 19.28125  15.221875 19.815625  L 4.1875 8.775  C 4.590625 8.553125  5.009375 8.365625  5.446875 8.215625  C 6.296875 7.921875  7.1875 7.775  8.09375 7.775  C 8.39375 7.775  8.696875 7.790625  8.996875 7.825  L 10.071875 7.94375  L 10.8375 7.178125  L 15.015625 3  L 21 8.984375  Z " fill-rule="nonzero" fill="#ffffff" stroke="none" transform="matrix(1 0 0 1 666 2496 )" />
  </g>
</svg>