<?xml version="1.0" encoding="utf-8"?>
<svg version="1.1" xmlns:xlink="http://www.w3.org/1999/xlink" width="26px" height="26px" xmlns="http://www.w3.org/2000/svg">
  <g transform="matrix(1 0 0 1 -665 -2771 )">
    <path d="M 25.425 24.065625  C 25.525 23.965625  25.525 23.803125  25.425 23.703125  L 17.309375 15.5875  C 18.56875 13.959375  19.25 11.96875  19.25 9.875  C 19.25 7.36875  18.271875 5.01875  16.503125 3.246875  C 14.734375 1.475  12.378125 0.5  9.875 0.5  C 7.371875 0.5  5.015625 1.478125  3.246875 3.246875  C 1.475 5.015625  0.5 7.36875  0.5 9.875  C 0.5 12.378125  1.478125 14.734375  3.246875 16.503125  C 5.015625 18.275  7.36875 19.25  9.875 19.25  C 11.96875 19.25  13.95625 18.56875  15.584375 17.3125  L 23.7 25.425  C 23.8 25.525  23.9625 25.525  24.0625 25.425  L 25.425 24.065625  Z M 16.875 9.875  C 16.875 11.74375  16.146875 13.503125  14.825 14.825  C 13.5 16.146875  11.74375 16.875  9.875 16.875  C 8.00625 16.875  6.25 16.146875  4.925 14.825  C 3.603125 13.5  2.875 11.74375  2.875 9.875  C 2.875 8.00625  3.603125 6.246875  4.925 4.925  C 6.25 3.603125  8.00625 2.875  9.875 2.875  C 11.74375 2.875  13.503125 3.6  14.825 4.925  C 16.146875 6.25  16.875 8.00625  16.875 9.875  Z " fill-rule="nonzero" fill="#ffffff" stroke="none" transform="matrix(1 0 0 1 665 2771 )" />
  </g>
</svg>