<?xml version="1.0" encoding="utf-8"?>
<svg version="1.1" xmlns:xlink="http://www.w3.org/1999/xlink" width="28px" height="28px" xmlns="http://www.w3.org/2000/svg">
  <g transform="matrix(1 0 0 1 -664 -2564 )">
    <path d="M 27.625 14.25  C 27.625 14.1125  27.5125 14  27.375 14  L 22.75 14  L 22.75 10.875  C 25.15 10.875  27.09375 8.93125  27.09375 6.53125  C 27.09375 6.39375  26.98125 6.28125  26.84375 6.28125  L 24.96875 6.28125  C 24.83125 6.28125  24.71875 6.39375  24.71875 6.53125  C 24.71875 7.61875  23.8375 8.5  22.75 9  L 5.25 9  C 4.1625 8.5  3.28125 7.61875  3.28125 6.53125  C 3.28125 6.39375  3.16875 6.28125  3.03125 6.28125  L 1.15625 6.28125  C 1.01875 6.28125  0.90625 6.39375  0.90625 6.53125  C 0.90625 8.93125  2.85 10.875  5.25 10.875  L 5.25 14  L 0.625 14  C 0.4875 14  0.375 14.1125  0.375 14.25  L 0.375 16  C 0.375 16.1375  0.4875 16.25  0.625 16.25  L 5.25 16.25  L 5.25 19.25  C 5.25 19.453125  5.25625 19.65625  5.271875 19.853125  C 3.128125 20.76875  1.625 22.896875  1.625 25.375  C 1.625 25.5125  1.7375 25.625  1.875 25.625  L 3.625 25.625  C 3.7625 25.625  3.875 25.5125  3.875 25.375  C 3.875 23.99375  4.621875 22.784375  5.7375 22.134375  C 5.925 22.671875  6.1625 23.184375  6.446875 23.665625  C 7.20625 24.9625  8.290625 26.046875  9.5875 26.80625  C 10.884375 27.565625  12.390625 28  14 28  C 15.609375 28  17.11875 27.565625  18.415625 26.80625  C 19.7125 26.046875  20.796875 24.9625  21.55625 23.665625  C 21.840625 23.18125  22.078125 22.66875  22.265625 22.134375  C 23.378125 22.784375  24.125 23.99375  24.125 25.375  C 24.125 25.5125  24.2375 25.625  24.375 25.625  L 26.125 25.625  C 26.2625 25.625  26.375 25.5125  26.375 25.375  C 26.375 22.896875  24.871875 20.76875  22.728125 19.853125  C 22.740625 19.653125  22.75 19.453125  22.75 19.25  L 22.75 16.25  L 27.375 16.25  C 27.5125 16.25  27.625 16.1375  27.625 16  L 27.625 14.25  Z M 20.375 11  L 20.375 19.25  C 20.375 20.4  20.071875 21.5  19.50625 22.465625  C 18.953125 23.4125  18.1625 24.203125  17.215625 24.75625  C 16.5875 25.125  15.903125 25.38125  15 25.515625  L 15 13.125  C 15.1875 12.9875  15.075 12.875  14.9375 12.875  L 13.0625 12.875  C 12.925 12.875  12.8125 12.9875  13 13.125  L 13 25.515625  C 12.096875 25.38125  11.4125 25.125  10.784375 24.75625  C 9.8375 24.203125  9.046875 23.4125  8.49375 22.465625  C 7.928125 21.5  7.625 20.4  7.625 19.25  L 7.625 11  L 20.375 11  Z M 7.25 6.5  C 7.25 6.6375  7.3625 6.75  7.5 6.75  L 9.25 6.75  C 9.3875 6.75  9.5 6.6375  9.5 6.5  C 9.5 5.615625  9.684375 4.8375  10.034375 4.203125  C 10.365625 3.596875  10.846875 3.115625  11.453125 2.784375  C 12.090625 2.4375  12.865625 2.25  13.75 2.25  L 14.25 2.25  C 15.134375 2.25  15.9125 2.434375  16.546875 2.784375  C 17.153125 3.115625  17.634375 3.596875  17.965625 4.203125  C 18.3125 4.840625  18.5 5.615625  18.5 6.5  C 18.5 6.6375  18.6125 6.75  18.75 6.75  L 20.5 6.75  C 20.6375 6.75  20.75 6.6375  20.75 6.5  C 20.75 5.25  20.475 4.103125  19.940625 3.121875  C 19.403125 2.1375  18.6125 1.346875  17.628125 0.809375  C 16.646875 0.275  15.5 0  14.25 0  L 13.75 0  C 12.5 0  11.353125 0.275  10.371875 0.809375  C 9.3875 1.346875  8.596875 2.1375  8.059375 3.121875  C 7.525 4.103125  7.25 5.25  7.25 6.5  Z " fill-rule="nonzero" fill="#ffffff" stroke="none" transform="matrix(1 0 0 1 664 2564 )" />
  </g>
</svg>