<?xml version="1.0" encoding="utf-8"?>
<svg version="1.1" xmlns:xlink="http://www.w3.org/1999/xlink" width="28px" height="28px" xmlns="http://www.w3.org/2000/svg">
  <g transform="matrix(1 0 0 1 -851 -2015 )">
    <path d="M 7 11.15625  C 7 11.9846771247462  7.67157287525381 12.65625  8.5 12.65625  C 9.32842712474619 12.65625  10 11.9846771247462  10 11.15625  C 10 10.3278228752538  9.32842712474619 9.65625  8.5 9.65625  C 7.67157287525381 9.65625  7 10.3278228752538  7 11.15625  Z M 18 11.15625  C 18 11.9846771247462  18.6715728752538 12.65625  19.5 12.65625  C 20.3284271247462 12.65625  21 11.9846771247462  21 11.15625  C 21 10.3278228752538  20.3284271247462 9.65625  19.5 9.65625  C 18.6715728752538 9.65625  18 10.3278228752538  18 11.15625  Z M 28 14  C 28 6.26875  21.73125 0  14 0  C 6.26875 0  0 6.26875  0 14  C 0 21.73125  6.26875 28  14 28  C 21.73125 28  28 21.73125  28 14  Z M 24.7125 18.525  C 24.128125 19.909375  23.2875 21.153125  22.21875 22.21875  C 21.15 23.2875  19.90625 24.125  18.521875 24.7125  C 17.09375 25.31875  15.571875 25.625  14 25.625  C 12.428125 25.625  10.90625 25.31875  9.475 24.7125  C 8.090625 24.128125  6.846875 23.2875  5.778125 22.21875  C 4.709375 21.15  3.871875 19.90625  3.284375 18.521875  C 2.68125 17.09375  2.375 15.571875  2.375 14  C 2.375 12.428125  2.68125 10.90625  3.2875 9.475  C 3.871875 8.090625  4.7125 6.846875  5.78125 5.778125  C 6.85 4.709375  8.09375 3.871875  9.478125 3.284375  C 10.90625 2.68125  12.428125 2.375  14 2.375  C 15.571875 2.375  17.09375 2.68125  18.525 3.2875  C 19.909375 3.871875  21.153125 4.7125  22.221875 5.78125  C 23.290625 6.85  24.128125 8.09375  24.715625 9.478125  C 25.31875 10.90625  25.625 12.428125  25.625 14  C 25.625 15.571875  25.31875 17.09375  24.7125 18.525  Z M 19 15.90625  C 19 15.76875  18.8875 15.65625  18.75 15.65625  L 9.25 15.65625  C 9.1125 15.65625  9 15.76875  9 15.90625  L 9 17.40625  C 9 17.54375  9.1125 17.65625  9.25 17.65625  L 18.75 17.65625  C 18.8875 17.65625  19 17.54375  19 17.40625  L 19 15.90625  Z " fill-rule="nonzero" fill="#ffffff" stroke="none" transform="matrix(1 0 0 1 851 2015 )" />
  </g>
</svg>