<?xml version="1.0" encoding="utf-8"?>
<svg version="1.1" xmlns:xlink="http://www.w3.org/1999/xlink" width="22px" height="28px" xmlns="http://www.w3.org/2000/svg">
  <g transform="matrix(1 0 0 1 -854 -1607 )">
    <path d="M 15 26  C 15 25.8625  14.8875 25.75  14.75 25.75  L 7.25 25.75  C 7.1125 25.75  7 25.8625  7 26  L 7 27  C 7 27.553125  7.446875 28  8 28  L 14 28  C 14.553125 28  15 27.553125  15 27  L 15 26  Z M 21.25 10.25  C 21.25 4.590625  16.659375 0  11 0  C 5.340625 0  0.75 4.590625  0.75 10.25  C 0.75 14.04375  2.8125 17.35625  5.875 19.128125  L 5.875 22.75  C 5.875 23.303125  6.321875 23.75  6.875 23.75  L 15.125 23.75  C 15.678125 23.75  16.125 23.303125  16.125 22.75  L 16.125 19.128125  C 19.1875 17.35625  21.25 14.04375  21.25 10.25  Z M 19 10.25  C 19 13.140625  17.45625 15.759375  14.996875 17.18125  L 13.875 17.83125  L 13.875 21.5  L 8.125 21.5  L 8.125 17.83125  L 7.003125 17.18125  C 4.54375 15.759375  3 13.140625  3 10.25  C 3 5.83125  6.58125 2.25  11 2.25  C 15.41875 2.25  19 5.83125  19 10.25  Z " fill-rule="nonzero" fill="#000000" stroke="none" transform="matrix(1 0 0 1 854 1607 )" />
  </g>
</svg>