<?xml version="1.0" encoding="utf-8"?>
<svg version="1.1" xmlns:xlink="http://www.w3.org/1999/xlink" width="30px" height="22px" xmlns="http://www.w3.org/2000/svg">
  <g transform="matrix(1 0 0 1 -850 -1678 )">
    <path d="M 29 12.61875  C 29.01875 9.7  27.040625 7.240625  24.35625 6.528125  C 22.925 2.75  19.278125 0.0625  15.00625 0.0625  C 10.734375 0.0625  7.0875 2.746875  5.65625 6.525  C 2.965625 7.234375  0.984375 9.69375  1 12.6125  C 1.01875 15.875  3.55 18.528125  6.7375 18.8125  C 6.884375 18.825  7.009375 18.709375  7.009375 18.5625  L 7.009375 16.675  C 7.009375 16.55  6.915625 16.44375  6.790625 16.428125  C 5.946875 16.321875  5.15 15.953125  4.5375 15.35  C 3.7875 14.615625  3.375 13.628125  3.375 12.58125  C 3.375 11.70625  3.659375 10.88125  4.19375 10.19375  C 4.715625 9.525  5.45 9.040625  6.259375 8.828125  L 7.44375 8.515625  L 7.878125 7.36875  C 8.146875 6.65625  8.521875 5.9875  8.99375 5.384375  C 9.459375 4.784375  10.0125 4.259375  10.63125 3.821875  C 11.915625 2.91875  13.428125 2.440625  15.00625 2.440625  C 16.584375 2.440625  18.096875 2.91875  19.38125 3.825  C 20.003125 4.2625  20.553125 4.7875  21.01875 5.3875  C 21.490625 5.990625  21.865625 6.659375  22.134375 7.371875  L 22.565625 8.515625  L 23.746875 8.828125  C 25.440625 9.278125  26.625 10.81875  26.625 12.578125  C 26.625 13.628125  26.2125 14.6125  25.4625 15.346875  C 24.853125 15.946875  24.059375 16.31875  23.215625 16.425  C 23.090625 16.440625  23 16.546875  23 16.671875  L 23 18.5625  C 23 18.709375  23.128125 18.825  23.275 18.8125  C 26.453125 18.525  28.978125 15.875  29 12.61875  Z M 10.53125 15.753125  C 10.6625 15.75  10.771875 15.646875  10.778125 15.5125  C 10.834375 14.465625  11.26875 13.490625  12.0125 12.74375  C 12.80625 11.946875  13.8875 11.5  15.0125 11.5  C 16.14375 11.5  17.209375 11.940625  18.0125 12.74375  C 18.05625 12.7875  18.096875 12.83125  18.140625 12.878125  L 17.359375 13.490625  C 17.19375 13.61875  17.25 13.88125  17.453125 13.93125  L 20.521875 14.68125  C 20.678125 14.71875  20.83125 14.6  20.83125 14.440625  L 20.846875 11.275  C 20.846875 11.065625  20.609375 10.946875  20.44375 11.078125  L 19.71875 11.646875  C 18.575 10.334375  16.89375 9.503125  15.015625 9.503125  C 11.659375 9.503125  8.921875 12.1625  8.784375 15.49375  C 8.778125 15.634375  8.890625 15.753125  9.034375 15.753125  L 10.53125 15.753125  Z M 21.21875 16.009375  C 21.225 15.86875  21.1125 15.75  20.96875 15.75  L 19.471875 15.75  C 19.340625 15.75  19.23125 15.853125  19.221875 15.9875  C 19.165625 17.034375  18.73125 18.009375  17.9875 18.75625  C 17.19375 19.553125  16.1125 20  14.9875 20  C 13.85625 20  12.790625 19.559375  11.9875 18.75625  C 11.94375 18.7125  11.903125 18.66875  11.859375 18.621875  L 12.640625 18.009375  C 12.80625 17.88125  12.75 17.61875  12.546875 17.56875  L 9.478125 16.81875  C 9.321875 16.78125  9.16875 16.9  9.16875 17.059375  L 9.15625 20.228125  C 9.15625 20.4375  9.39375 20.55625  9.559375 20.425  L 10.284375 19.85625  C 11.428125 21.16875  13.109375 22  14.9875 22  C 18.34375 22  21.08125 19.340625  21.21875 16.009375  Z " fill-rule="nonzero" fill="#000000" stroke="none" transform="matrix(1 0 0 1 850 1678 )" />
  </g>
</svg>