<?xml version="1.0" encoding="utf-8"?>
<svg version="1.1" xmlns:xlink="http://www.w3.org/1999/xlink" width="28px" height="28px" xmlns="http://www.w3.org/2000/svg">
  <g transform="matrix(1 0 0 1 -851 -1743 )">
    <path d="M 28 14  C 28 6.26875  21.73125 0  14 0  C 6.26875 0  0 6.26875  0 14  C 0 21.73125  6.26875 28  14 28  C 21.73125 28  28 21.73125  28 14  Z M 25.625 14  C 25.625 20.41875  20.41875 25.625  14 25.625  C 7.58125 25.625  2.375 20.41875  2.375 14  C 2.375 7.58125  7.58125 2.375  14 2.375  C 20.41875 2.375  25.625 7.58125  25.625 14  Z M 10.98125 13.2125  C 10.984375 10.49375  12.1375 8.978125  14.175 8.978125  C 15.83125 8.978125  16.95625 10.034375  17.08125 11.584375  C 17.090625 11.715625  17.2 11.815625  17.33125 11.815625  L 19.103125 11.815625  C 19.184375 11.815625  19.25 11.75  19.25 11.66875  C 19.25 8.959375  17.1125 7.0625  14.165625 7.0625  C 10.73125 7.0625  8.75 9.38125  8.75 13.2125  L 8.75 14.846875  C 8.75 18.65  10.73125 20.9375  14.165625 20.9375  C 17.103125 20.9375  19.25 19.1  19.25 16.51875  C 19.25 16.4375  19.184375 16.371875  19.103125 16.371875  L 17.328125 16.371875  C 17.196875 16.371875  17.090625 16.471875  17.078125 16.6  C 16.946875 18.040625  15.825 19.03125  14.171875 19.03125  C 12.13125 19.03125  10.98125 17.534375  10.98125 14.85625  L 10.98125 13.2125  Z " fill-rule="nonzero" fill="#ffffff" stroke="none" transform="matrix(1 0 0 1 851 1743 )" />
  </g>
</svg>