<?xml version="1.0" encoding="utf-8"?>
<svg version="1.1" xmlns:xlink="http://www.w3.org/1999/xlink" width="25px" height="25px" xmlns="http://www.w3.org/2000/svg">
  <g transform="matrix(1 0 0 1 -853 -1813 )">
    <path d="M 23.021875 12.546875  C 25.659375 9.903125  25.659375 5.625  23.01875 2.98125  C 20.375 0.3375  16.096875 0.3375  13.45625 2.98125  L 10.428125 6.009375  L 12.021875 7.603125  L 15.05 4.575  C 16.73125 2.89375  19.56875 2.715625  21.425 4.575  C 23.284375 6.434375  23.10625 9.26875  21.425 10.95  L 18.396875 13.978125  L 19.99375 15.575  L 23.021875 12.546875  Z M 13.978125 18.39375  L 10.953125 21.425  C 9.271875 23.10625  6.434375 23.284375  4.578125 21.425  C 2.71875 19.565625  2.896875 16.73125  4.578125 15.05  L 7.60625 12.021875  L 6.009375 10.425  L 2.98125 13.453125  C 0.337499999999999 16.096875  0.337499999999999 20.375  2.98125 23.015625  C 5.625 25.65625  9.903125 25.659375  12.54375 23.015625  L 15.571875 19.9875  L 13.978125 18.39375  Z M 22.459375 20.86875  L 5.134375 3.54375  C 5.0375 3.446875  4.878125 3.446875  4.78125 3.54375  L 3.54375 4.78125  C 3.446875 4.878125  3.446875 5.0375  3.54375 5.134375  L 20.86875 22.459375  C 20.965625 22.55625  21.125 22.55625  21.221875 22.459375  L 22.459375 21.221875  C 22.55625 21.125  22.55625 20.965625  22.459375 20.86875  Z " fill-rule="nonzero" fill="#000000" stroke="none" transform="matrix(1 0 0 1 853 1813 )" />
  </g>
</svg>