<?xml version="1.0" encoding="utf-8"?>
<svg version="1.1" xmlns:xlink="http://www.w3.org/1999/xlink" width="28px" height="28px" xmlns="http://www.w3.org/2000/svg">
  <g transform="matrix(1 0 0 1 -851 -2701 )">
    <path d="M 6.603125 15.334375  L 7.753125 16.484375  C 7.85 16.58125  8.009375 16.58125  8.10625 16.484375  L 11.2875 13.303125  L 13.978125 15.996875  C 14.075 16.09375  14.234375 16.09375  14.33125 15.996875  L 21.403125 8.91875  C 21.5 8.821875  21.5 8.6625  21.403125 8.565625  L 20.253125 7.415625  C 20.15625 7.31875  19.996875 7.31875  19.9 7.415625  L 14.15625 13.165625  L 11.465625 10.471875  C 11.36875 10.375  11.209375 10.375  11.1125 10.471875  L 6.603125 14.98125  C 6.50625 15.078125  6.50625 15.2375  6.603125 15.334375  Z M 27 4  C 27.25 3.446875  26.803125 3  26.25 3  L 15.125 3  L 15.125 1  C 15.125 0.8625  15.0125 0.75  14.875 0.75  L 13.125 0.75  C 12.9875 0.75  12.875 0.8625  12.875 1  L 12.875 3  L 1.75 3  C 1.196875 3  0.75 3.446875  1 4  L 1 20.25  C 0.75 20.803125  1.196875 21.25  1.75 21  L 12.8875 21  L 12.8875 22.25  L 7.7375 25.628125  C 7.621875 25.703125  7.590625 25.85625  7.665625 25.971875  L 8.6125 27.446875  L 8.6125 27.45  C 8.6875 27.565625  8.84375 27.596875  8.959375 27.521875  L 14 24.215625  L 19.040625 27.521875  C 19.15625 27.596875  19.3125 27.565625  19.3875 27.45  L 19.3875 27.446875  L 20.334375 25.971875  C 20.409375 25.85625  20.375 25.703125  20.2625 25.628125  L 15.125 22.259375  L 15.125 21  L 26.25 21  C 26.803125 21.25  27.25 20.803125  27 20.25  L 27 4  Z M 25 5.25  L 25 19  L 3 19  L 3 5.25  L 25 5.25  Z " fill-rule="nonzero" fill="#ffffff" stroke="none" transform="matrix(1 0 0 1 851 2701 )" />
  </g>
</svg>