<?xml version="1.0" encoding="utf-8"?>
<svg version="1.1" xmlns:xlink="http://www.w3.org/1999/xlink" width="28px" height="26px" xmlns="http://www.w3.org/2000/svg">
  <g transform="matrix(1 0 0 1 -851 -2358 )">
    <path d="M 27.221875 10.16875  C 27.30625 9.621875  26.925 9.115625  26.378125 9.034375  L 18.44375 7.88125  L 14.896875 0.690625  C 14.8 0.49375  14.640625 0.334375  14.44375 0.2375  C 13.95 -0.00625000000000009  13.35 0.196875  13.103125 0.690625  L 9.55625 7.88125  L 1.621875 9.034375  C 1.403125 9.065625  1.203125 9.16875  1.05 9.325  C 0.665625 9.721875  0.671875 10.353125  1.06875 10.740625  L 6.809375 16.3375  L 5.453125 24.240625  C 5.415625 24.45625  5.45 24.68125  5.553125 24.875  C 5.809375 25.3625  6.415625 25.553125  6.903125 25.29375  L 14 21.5625  L 21.096875 25.29375  C 21.290625 25.396875  21.515625 25.43125  21.73125 25.39375  C 22.275 25.3  22.640625 24.784375  22.546875 24.240625  L 21.190625 16.3375  L 26.93125 10.740625  C 27.0875 10.5875  27.190625 10.3875  27.221875 10.16875  Z M 23.55 10.896875  L 18.775 15.55  L 19.903125 22.121875  L 14 19.021875  L 8.096875 22.125  L 9.225 15.553125  L 4.45 10.896875  L 11.05 9.9375  L 14 3.959375  L 16.95 9.9375  L 23.55 10.896875  Z " fill-rule="nonzero" fill="#000000" stroke="none" transform="matrix(1 0 0 1 851 2358 )" />
  </g>
</svg>