<?xml version="1.0" encoding="utf-8"?>
<svg version="1.1" xmlns:xlink="http://www.w3.org/1999/xlink" width="7px" height="7px" xmlns="http://www.w3.org/2000/svg">
  <g transform="matrix(1 0 0 1 -768 -1754 )">
    <path d="M 0.375 3.25  C 0.375 4.696875  1.31875 5.921875  2.625 6.34375  C 2.940625 6.446875  3.275 6.5  3.625 6.5  C 3.975 6.5  4.309375 6.44375  4.625 6.34375  C 5.93125 5.921875  6.875 4.696875  6.875 3.25  C 6.875 1.803125  5.93125 0.578125  4.625 0.15625  C 4.309375 0.0531249999999996  3.975 0  3.625 0  C 3.275 0  2.940625 0.0562500000000004  2.625 0.15625  C 1.31875 0.578125  0.375 1.803125  0.375 3.25  Z M 2.5 3.25  C 2.5 3.0625  2.546875 2.884375  2.628125 2.728125  C 2.6375 2.709375  2.65 2.690625  2.659375 2.671875  L 2.659375 2.66875  L 2.696875 2.6125  C 2.7 2.60625  2.703125 2.603125  2.70625 2.596875  C 2.715625 2.58125  2.728125 2.56875  2.7375 2.553125  C 2.740625 2.55  2.74375 2.54375  2.746875 2.540625  C 2.7625 2.521875  2.775 2.50625  2.790625 2.490625  L 2.8 2.48125  L 2.8375 2.44375  L 2.85 2.43125  C 2.865625 2.415625  2.88125 2.403125  2.9 2.3875  C 2.91875 2.371875  2.934375 2.359375  2.953125 2.346875  C 2.959375 2.34375  2.9625 2.340625  2.96875 2.33750000000001  C 2.984375 2.32812500000001  2.996875 2.315625  3.0125 2.30625000000001  C 3.015625 2.303125  3.021875 2.3  3.025 2.29687500000001  C 3.04375 2.28437500000001  3.0625 2.27500000000001  3.084375 2.26250000000001  C 3.0875 2.25937500000001  3.09375 2.25937500000001  3.096875 2.25625  C 3.1125 2.24687500000001  3.128125 2.240625  3.146875 2.23125000000001  L 3.165625 2.22187500000001  C 3.1875 2.21250000000001  3.20625 2.20312500000001  3.228125 2.19687500000001  C 3.25 2.18750000000001  3.271875 2.18125000000001  3.29375 2.17500000000001  C 3.3 2.17187500000001  3.30625 2.17187500000001  3.3125 2.16875000000001  C 3.33125 2.1625  3.346875 2.15937500000001  3.365625 2.15625000000001  C 3.371875 2.15625000000001  3.375 2.15312500000001  3.38125 2.15312500000001  C 3.403125 2.146875  3.428125 2.14375000000001  3.45 2.14062500000001  C 3.45625 2.14062500000001  3.459375 2.14062500000001  3.465625 2.13750000000001  C 3.484375 2.13437500000001  3.503125 2.13437500000001  3.521875 2.13125  L 3.540625 2.13125  C 3.565625 2.13125  3.5875 2.128125  3.6125 2.128125  C 3.6375 2.128125  3.659375 2.128125  3.684375 2.13125  L 3.703125 2.13125  C 3.721875 2.13125  3.740625 2.13437500000001  3.759375 2.13750000000001  C 3.765625 2.13750000000001  3.76875 2.13750000000001  3.775 2.14062500000001  C 3.796875 2.14375000000001  3.821875 2.14687500000001  3.84375 2.15312500000001  C 3.85 2.15312500000001  3.853125 2.15625000000001  3.859375 2.15625000000001  C 3.878125 2.15937500000001  3.896875 2.16562500000001  3.9125 2.16875000000001  C 3.91875 2.17187500000001  3.925 2.17187500000001  3.93125 2.17500000000001  C 3.953125 2.18125000000001  3.975 2.18750000000001  3.996875 2.19687500000001  C 4.01875 2.20312500000001  4.0375 2.21250000000001  4.059375 2.22187500000001  L 4.078125 2.23125000000001  C 4.09375 2.23750000000001  4.1125 2.24687500000001  4.128125 2.25625  C 4.13125 2.25937500000001  4.1375 2.25937500000001  4.140625 2.26250000000001  C 4.159375 2.271875  4.18125 2.28437500000001  4.2 2.29687500000001  C 4.203125 2.30000000000001  4.209375 2.30312500000001  4.2125 2.30625000000001  C 4.228125 2.315625  4.24375 2.32500000000001  4.25625 2.33750000000001  C 4.2625 2.34062500000001  4.265625 2.34375000000001  4.271875 2.346875  C 4.290625 2.359375  4.309375 2.375  4.325 2.3875  C 4.340625 2.4  4.359375 2.415625  4.375 2.43125  L 4.3875 2.44375  L 4.425 2.48125  L 4.434375 2.490625  C 4.45 2.50625  4.465625 2.525  4.478125 2.540625  C 4.48125 2.54375  4.484375 2.55  4.4875 2.553125  C 4.5 2.565625  4.509375 2.58125  4.51875 2.596875  C 4.521875 2.603125  4.525 2.60625  4.528125 2.6125  L 4.565625 2.66875  C 4.565625 2.66875  4.565625 2.671875  4.56875 2.671875  C 4.58125 2.690625  4.590625 2.709375  4.6 2.728125  C 4.68125 2.884375  4.728125 3.0625  4.728125 3.25  C 4.728125 3.4375  4.68125 3.615625  4.6 3.771875  C 4.590625 3.790625  4.578125 3.809375  4.56875 3.828125  C 4.56875 3.828125  4.56875 3.83125  4.565625 3.83125  L 4.528125 3.8875  C 4.525 3.89375  4.521875 3.896875  4.51875 3.903125  C 4.509375 3.91875  4.496875 3.93125  4.4875 3.946875  C 4.484375 3.95  4.48125 3.95625  4.478125 3.959375  C 4.4625 3.978125  4.45 3.99375  4.434375 4.009375  L 4.425 4.01875  L 4.3875 4.05625  L 4.375 4.06875  C 4.359375 4.084375  4.34375 4.096875  4.325 4.1125  C 4.30625 4.128125  4.290625 4.140625  4.271875 4.153125  C 4.265625 4.15625  4.2625 4.159375  4.25625 4.16249999999999  C 4.240625 4.17187499999999  4.228125 4.184375  4.2125 4.19374999999999  C 4.209375 4.196875  4.203125 4.2  4.2 4.20312499999999  C 4.18125 4.21562499999999  4.1625 4.22499999999999  4.140625 4.23749999999999  C 4.1375 4.24062499999999  4.13125 4.24062499999999  4.128125 4.24375  C 4.1125 4.25312499999999  4.096875 4.259375  4.078125 4.26874999999999  L 4.059375 4.27812499999999  C 4.0375 4.28749999999999  4.01875 4.29687499999999  3.996875 4.30312499999999  C 3.975 4.31249999999999  3.953125 4.31874999999999  3.93125 4.32499999999999  C 3.925 4.32812499999999  3.91875 4.32812499999999  3.9125 4.33124999999999  C 3.89375 4.3375  3.878125 4.34062499999999  3.859375 4.34374999999999  C 3.853125 4.34374999999999  3.85 4.34687499999999  3.84375 4.34687499999999  C 3.821875 4.353125  3.796875 4.35624999999999  3.775 4.35937499999999  C 3.76875 4.35937499999999  3.765625 4.35937499999999  3.759375 4.36249999999999  C 3.740625 4.36562499999999  3.721875 4.36562499999999  3.703125 4.36875  L 3.684375 4.36875  C 3.659375 4.36875  3.6375 4.371875  3.6125 4.371875  C 3.5875 4.371875  3.565625 4.371875  3.540625 4.36875  L 3.521875 4.36875  C 3.503125 4.36875  3.484375 4.36562499999999  3.465625 4.36249999999999  C 3.459375 4.36249999999999  3.45625 4.36249999999999  3.45 4.35937499999999  C 3.428125 4.35624999999999  3.403125 4.35312499999999  3.38125 4.34687499999999  C 3.375 4.34687499999999  3.371875 4.34374999999999  3.365625 4.34374999999999  C 3.346875 4.34062499999999  3.328125 4.33437499999999  3.3125 4.33124999999999  C 3.30625 4.32812499999999  3.3 4.32812499999999  3.29375 4.32499999999999  C 3.271875 4.31874999999999  3.25 4.31249999999999  3.228125 4.30312499999999  C 3.20625 4.29687499999999  3.1875 4.28749999999999  3.165625 4.27812499999999  L 3.146875 4.26874999999999  C 3.13125 4.26249999999999  3.1125 4.25312499999999  3.096875 4.24375  C 3.09375 4.24062499999999  3.0875 4.24062499999999  3.084375 4.23749999999999  C 3.065625 4.228125  3.04375 4.21562499999999  3.025 4.20312499999999  C 3.021875 4.19999999999999  3.015625 4.19687499999999  3.0125 4.19374999999999  C 2.996875 4.184375  2.98125 4.17499999999999  2.96875 4.16249999999999  C 2.9625 4.15937499999999  2.959375 4.15624999999999  2.953125 4.153125  C 2.934375 4.140625  2.915625 4.125  2.9 4.1125  C 2.884375 4.1  2.865625 4.084375  2.85 4.06875  L 2.8375 4.05625  L 2.8 4.01875  L 2.790625 4.009375  C 2.775 3.99375  2.759375 3.975  2.746875 3.959375  C 2.74375 3.95625  2.740625 3.95  2.7375 3.946875  C 2.725 3.934375  2.715625 3.91875  2.70625 3.903125  C 2.703125 3.896875  2.7 3.89375  2.696875 3.8875  L 2.659375 3.83125  L 2.659375 3.828125  C 2.646875 3.809375  2.6375 3.790625  2.628125 3.771875  C 2.546875 3.615625  2.5 3.4375  2.5 3.25  Z " fill-rule="nonzero" fill="#000000" stroke="none" transform="matrix(1 0 0 1 768 1754 )" />
  </g>
</svg>