<?xml version="1.0" encoding="utf-8"?>
<svg version="1.1" xmlns:xlink="http://www.w3.org/1999/xlink" width="28px" height="28px" xmlns="http://www.w3.org/2000/svg">
  <g transform="matrix(1 0 0 1 -571 -351 )">
    <path d="M 25.334375 21.259375  C 25.440625 21.09375  25.321875 20.875  25.125 20.875  L 22.928125 20.875  C 22.778125 20.875  22.6375 20.940625  22.54375 21.05625  C 22.325 21.321875  22.090625 21.578125  21.84375 21.821875  C 20.825 22.8375  19.640625 23.6375  18.321875 24.19375  C 16.959375 24.76875  15.509375 25.0625  14.0125 25.0625  C 12.515625 25.0625  11.065625 24.76875  9.703125 24.19375  C 8.384375 23.6375  7.2 22.8375  6.18125 21.821875  C 5.1625 20.80625  4.365625 19.621875  3.80625 18.30625  C 3.228125 16.94375  2.9375 15.496875  2.9375 14  C 2.9375 12.503125  3.23125 11.05625  3.80625 9.69375  C 4.3625 8.378125  5.1625 7.19375  6.18125 6.178125  C 7.2 5.1625  8.384375 4.3625  9.703125 3.80625  C 11.065625 3.23125  12.515625 2.9375  14.0125 2.9375  C 15.509375 2.9375  16.959375 3.228125  18.321875 3.80625  C 19.640625 4.3625  20.825 5.1625  21.84375 6.178125  C 22.090625 6.425  22.321875 6.68125  22.54375 6.94375  C 22.6375 7.059375  22.78125 7.125  22.928125 7.125  L 25.125 7.125  C 25.321875 7.125  25.44375 6.90625  25.334375 6.740625  C 22.9375 3.015625  18.74375 0.55  13.978125 0.5625  C 6.490625 0.58125  0.4875 6.659375  0.5625 14.1375  C 0.6375 21.496875  6.63125 27.4375  14.0125 27.4375  C 18.765625 27.4375  22.940625 24.975  25.334375 21.259375  Z M 27.903125 14.196875  C 28.03125 14.096875  28.03125 13.903125  27.903125 13.803125  L 23.46875 10.303125  C 23.303125 10.171875  23.0625 10.290625  23.0625 10.5  L 23.0625 12.875  L 13.25 12.875  C 13.1125 12.875  13 12.9875  13 13.125  L 13 14.875  C 13 15.0125  13.1125 15.125  13.25 15.125  L 23.0625 15.125  L 23.0625 17.5  C 23.0625 17.709375  23.30625 17.828125  23.46875 17.696875  L 27.903125 14.196875  Z " fill-rule="nonzero" fill="#ffffff" stroke="none" transform="matrix(1 0 0 1 571 351 )" />
  </g>
</svg>