<?xml version="1.0" encoding="utf-8"?>
<svg version="1.1" xmlns:xlink="http://www.w3.org/1999/xlink" width="28px" height="28px" xmlns="http://www.w3.org/2000/svg">
  <g transform="matrix(1 0 0 1 -15 -2973 )">
    <path d="M 28 14  C 28 6.26875  21.73125 0  14 0  C 6.26875 0  0 6.26875  0 14  C 0 21.73125  6.26875 28  14 28  C 21.73125 28  28 21.73125  28 14  Z M 19.84375 9.03125  C 20.046875 9.03125  20.165625 9.2625  20.046875 9.428125  L 13.465625 18.553125  C 13.06875 19.10625  12.246875 19.10625  11.85 18.553125  L 7.953125 13.153125  C 7.834375 12.9875  7.953125 12.75625  8.15625 12.75625  L 9.621875 12.75625  C 9.940625 12.75625  10.24375 12.909375  10.43125 13.171875  L 12.65625 16.259375  L 17.56875 9.446875  C 17.75625 9.1875  18.05625 9.03125  18.378125 9.03125  L 19.84375 9.03125  Z " fill-rule="nonzero" fill="#ffffff" stroke="none" transform="matrix(1 0 0 1 15 2973 )" />
  </g>
</svg>