<?xml version="1.0" encoding="utf-8"?>
<svg version="1.1" xmlns:xlink="http://www.w3.org/1999/xlink" width="26px" height="26px" xmlns="http://www.w3.org/2000/svg">
  <g transform="matrix(1 0 0 1 -852 -2905 )">
    <path d="M 25 1.5  C 25.5 0.946875  25.053125 0.5  24.5 1  L 1.5 1  C 0.946875 0.5  0.5 0.946875  1 1.5  L 1 24.5  C 0.5 25.053125  0.946875 25.5  1.5 25  L 24.5 25  C 25.053125 25.5  25.5 25.053125  25 24.5  L 25 1.5  Z M 18.53125 8.03125  C 18.734375 8.03125  18.853125 8.2625  18.734375 8.428125  L 12.153125 17.553125  C 11.75625 18.10625  10.934375 18.10625  10.5375 17.553125  L 6.640625 12.153125  C 6.521875 11.9875  6.640625 11.75625  6.84375 11.75625  L 8.309375 11.75625  C 8.628125 11.75625  8.93125 11.909375  9.11875 12.171875  L 11.34375 15.259375  L 16.25625 8.446875  C 16.44375 8.1875  16.74375 8.03125  17.065625 8.03125  L 18.53125 8.03125  Z " fill-rule="nonzero" fill="#000000" stroke="none" transform="matrix(1 0 0 1 852 2905 )" />
  </g>
</svg>