<?xml version="1.0" encoding="utf-8"?>
<svg version="1.1" xmlns:xlink="http://www.w3.org/1999/xlink" width="26px" height="26px" xmlns="http://www.w3.org/2000/svg">
  <g transform="matrix(1 0 0 1 -665 -2905 )">
    <path d="M 25 1.5  C 25.5 0.946875  25.053125 0.5  24.5 1  L 1.5 1  C 0.946875 0.5  0.5 0.946875  1 1.5  L 1 24.5  C 0.5 25.053125  0.946875 25.5  1.5 25  L 24.5 25  C 25.053125 25.5  25.5 25.053125  25 24.5  L 25 1.5  Z M 16.5 7.440625  L 16.5 8.903125  C 16.5 9.221875  16.346875 9.525  16.0875 9.7125  L 11.54375 13  L 16.0875 16.2875  C 16.346875 16.475  16.5 16.775  16.5 17.096875  L 16.5 18.5625  C 16.5 18.765625  16.26875 18.884375  16.103125 18.765625  L 8.415625 13.203125  C 8.278125 13.103125  8.278125 12.9  8.415625 12.8  L 16.103125 7.2375  C 16.26875 7.11875  16.5 7.2375  16.5 7.440625  Z " fill-rule="nonzero" fill="#ffffff" stroke="none" transform="matrix(1 0 0 1 665 2905 )" />
  </g>
</svg>