<?xml version="1.0" encoding="utf-8"?>
<svg version="1.1" xmlns:xlink="http://www.w3.org/1999/xlink" width="26px" height="26px" xmlns="http://www.w3.org/2000/svg">
  <g transform="matrix(1 0 0 1 -946 -2905 )">
    <path d="M 25 1.5  C 25.5 0.946875  25.053125 0.5  24.5 1  L 1.5 1  C 0.946875 0.5  0.5 0.946875  1 1.5  L 1 24.5  C 0.5 25.053125  0.946875 25.5  1.5 25  L 24.5 25  C 25.053125 25.5  25.5 25.053125  25 24.5  L 25 1.5  Z M 19 12.25  L 19 13.75  C 19 13.8875  18.8875 14  18.75 14  L 14 14  L 14 18.75  C 14 18.8875  13.8875 19  13.75 19  L 12.25 19  C 12.1125 19  12 18.8875  12 18.75  L 12 14  L 7.25 14  C 7.1125 14  7 13.8875  7 13.75  L 7 12.25  C 7 12.1125  7.1125 12  7.25 12  L 12 12  L 12 7.25  C 12 7.1125  12.1125 7  12.25 7  L 13.75 7  C 13.8875 7  14 7.1125  14 7.25  L 14 12  L 18.75 12  C 18.8875 12  19 12.1125  19 12.25  Z " fill-rule="nonzero" fill="#000000" stroke="none" transform="matrix(1 0 0 1 946 2905 )" />
  </g>
</svg>