<?xml version="1.0" encoding="utf-8"?>
<svg version="1.1" xmlns:xlink="http://www.w3.org/1999/xlink" width="24px" height="30px" xmlns="http://www.w3.org/2000/svg">
  <g transform="matrix(1 0 0 1 -17 -2903 )">
    <path d="M 23.55625 4.971875  C 23.5625 4.696875  23.35 4.4  23.090625 4.309375  L 12.471875 0.690625  C 12.34375 0.646875  12.171875 0.625  12 0.625  C 11.828125 0.625  11.65625 0.646875  11.528125 0.690625  L 0.909375 4.309375  C 0.649999999999999 4.396875  0.4375 4.696875  0.4375 4.971875  L 0.4375 20.046875  C 0.4375 20.321875  0.615625 20.684375  0.83125 20.85625  L 11.603125 29.25  C 11.7125 29.334375  11.853125 29.378125  11.996875 29.378125  C 12.140625 29.378125  12.284375 29.334375  12.390625 29.25  L 23.1625 20.85625  C 23.378125 20.6875  23.55625 20.325  23.55625 20.046875  L 23.55625 4.971875  Z M 17.5 9.246875  C 17.703125 9.25  17.821875 9.48125  17.703125 9.646875  L 11.059375 18.79375  C 10.859375 19.06875  10.446875 19.06875  10.246875 18.79375  L 6.296875 13.35625  C 6.178125 13.190625  6.296875 12.959375  6.5 12.959375  L 8.225 12.959375  C 8.384375 12.959375  8.5375 13.0375  8.63125 13.165625  L 10.653125 15.946875  L 15.36875 9.453125  C 15.4625 9.325  15.6125 9.246875  15.775 9.246875  L 17.5 9.246875  Z " fill-rule="nonzero" fill="#000000" stroke="none" transform="matrix(1 0 0 1 17 2903 )" />
  </g>
</svg>