<?xml version="1.0" encoding="utf-8"?>
<svg version="1.1" xmlns:xlink="http://www.w3.org/1999/xlink" width="28px" height="28px" xmlns="http://www.w3.org/2000/svg">
  <g transform="matrix(1 0 0 1 -202 -2973 )">
    <path d="M 28 14  C 28 6.26875  21.73125 0  14 0  C 6.26875 0  0 6.26875  0 14  C 0 21.73125  6.26875 28  14 28  C 21.73125 28  28 21.73125  28 14  Z M 15 12.25  L 15 20.75  C 15 20.8875  14.8875 21  14.75 21  L 13.25 21  C 13.1125 21  13 20.8875  13 20.75  L 13 12.25  C 13 12.1125  13.1125 12  13.25 12  L 14.75 12  C 14.8875 12  15 12.1125  15 12.25  Z M 15.5 8.5  C 15.5 9.328125  14.828125 10  14 10  C 13.171875 10  12.5 9.328125  12.5 8.5  C 12.5 7.671875  13.171875 7  14 7  C 14.828125 7  15.5 7.671875  15.5 8.5  Z " fill-rule="nonzero" fill="#000000" stroke="none" transform="matrix(1 0 0 1 202 2973 )" />
  </g>
</svg>