<?xml version="1.0" encoding="utf-8"?>
<svg version="1.1" xmlns:xlink="http://www.w3.org/1999/xlink" width="28px" height="28px" xmlns="http://www.w3.org/2000/svg">
  <g transform="matrix(1 0 0 1 -851 -2973 )">
    <path d="M 28 14  C 28 6.26875  21.73125 0  14 0  C 6.26875 0  0 6.26875  0 14  C 0 21.73125  6.26875 28  14 28  C 21.73125 28  28 21.73125  28 14  Z M 15.25 20.875  C 15.25 21.565625  14.690625 22.125  14 22.125  C 13.309375 22.125  12.75 21.565625  12.75 20.875  C 12.75 20.184375  13.309375 19.625  14 19.625  C 14.690625 19.625  15.25 20.184375  15.25 20.875  Z M 19 11.125  C 19 12.93125  17.809375 14.55625  15.965625 15.265625  C 15.3875 15.4875  15 16.05  15 16.665625  L 15 17.375  C 15 17.5125  14.8875 17.625  14.75 17.625  L 13.25 17.625  C 13.1125 17.625  13 17.5125  13 17.375  L 13 16.703125  C 13 15.98125  13.209375 15.26875  13.621875 14.675  C 14.025 14.09375  14.5875 13.65  15.25 13.396875  C 16.3125 12.9875  17 12.096875  17 11.125  C 17 9.746875  15.653125 8.625  14 8.625  C 12.346875 8.625  11 9.746875  11 11.125  L 11 11.3625  C 11 11.5  10.8875 11.6125  10.75 11.6125  L 9.25 11.6125  C 9.1125 11.6125  9 11.5  9 11.3625  L 9 11.125  C 9 9.896875  9.5375 8.75  10.5125 7.896875  C 11.45 7.075  12.6875 6.625  14 6.625  C 15.3125 6.625  16.55 7.078125  17.4875 7.896875  C 18.4625 8.75  19 9.896875  19 11.125  Z " fill-rule="nonzero" fill="#000000" stroke="none" transform="matrix(1 0 0 1 851 2973 )" />
  </g>
</svg>