<?xml version="1.0" encoding="utf-8"?>
<svg version="1.1" xmlns:xlink="http://www.w3.org/1999/xlink" width="28px" height="28px" xmlns="http://www.w3.org/2000/svg">
  <g transform="matrix(1 0 0 1 -386 -2973 )">
    <path d="M 28 14  C 28 6.26875  21.73125 0  14 0  C 6.26875 0  0 6.26875  0 14  C 0 21.73125  6.26875 28  14 28  C 21.73125 28  28 21.73125  28 14  Z M 19.7625 16.946875  C 19.884375 17.1125  19.765625 17.34375  19.5625 17.34375  L 18.096875 17.34375  C 17.778125 17.34375  17.475 17.190625  17.2875 16.93125  L 14 12.3875  L 10.7125 16.93125  C 10.525 17.190625  10.225 17.34375  9.903125 17.34375  L 8.4375 17.34375  C 8.234375 17.34375  8.115625 17.1125  8.234375 16.946875  L 13.796875 9.259375  C 13.896875 9.121875  14.1 9.121875  14.2 9.259375  L 19.7625 16.946875  Z " fill-rule="nonzero" fill="#000000" stroke="none" transform="matrix(1 0 0 1 386 2973 )" />
  </g>
</svg>