<?xml version="1.0" encoding="utf-8"?>
<svg version="1.1" xmlns:xlink="http://www.w3.org/1999/xlink" width="24px" height="24px" xmlns="http://www.w3.org/2000/svg">
  <g transform="matrix(1 0 0 1 -480 -420 )">
    <path d="M 23.5 11.125  C 23.5 10.9875  23.3875 10.875  23.25 11  L 0.75 11  C 0.6125 10.875  0.5 10.9875  0.5 11.125  L 0.5 12.875  C 0.5 13.0125  0.6125 13.125  0.75 13  L 23.25 13  C 23.3875 13.125  23.5 13.0125  23.5 12.875  L 23.5 11.125  Z M 23.5 5.9375  C 23.5 5.8  23.3875 5.6875  23.25 5.6875  L 21.5 5.6875  C 21.3625 5.6875  21.25 5.8  21.25 5.9375  L 21.25 7.6875  C 21.25 7.825  21.3625 7.9375  21.5 7.9375  L 23.25 7.9375  C 23.3875 7.9375  23.5 7.825  23.5 7.6875  L 23.5 5.9375  Z M 23.5 21.5  C 23.5 21.3625  23.3875 21.25  23.25 21.25  L 21.5 21.25  C 21.3625 21.25  21.25 21.3625  21.25 21.5  L 21.25 23.25  C 21.25 23.3875  21.3625 23.5  21.5 23.5  L 23.25 23.5  C 23.3875 23.5  23.5 23.3875  23.5 23.25  L 23.5 21.5  Z M 23.5 0.75  C 23.5 0.6125  23.3875 0.5  23.25 0.5  L 21.5 0.5  C 21.3625 0.5  21.25 0.6125  21.25 0.75  L 21.25 2.5  C 21.25 2.6375  21.3625 2.75  21.5 2.75  L 23.25 2.75  C 23.3875 2.75  23.5 2.6375  23.5 2.5  L 23.5 0.75  Z M 23.5 16.3125  C 23.5 16.175  23.3875 16.0625  23.25 16.0625  L 21.5 16.0625  C 21.3625 16.0625  21.25 16.175  21.25 16.3125  L 21.25 18.0625  C 21.25 18.2  21.3625 18.3125  21.5 18.3125  L 23.25 18.3125  C 23.3875 18.3125  23.5 18.2  23.5 18.0625  L 23.5 16.3125  Z M 16.0625 2.5  C 16.0625 2.6375  16.175 2.75  16.3125 2.75  L 18.0625 2.75  C 18.2 2.75  18.3125 2.6375  18.3125 2.5  L 18.3125 0.75  C 18.3125 0.6125  18.2 0.5  18.0625 0.5  L 16.3125 0.5  C 16.175 0.5  16.0625 0.6125  16.0625 0.75  L 16.0625 2.5  Z M 18.3125 21.5  C 18.3125 21.3625  18.2 21.25  18.0625 21.25  L 16.3125 21.25  C 16.175 21.25  16.0625 21.3625  16.0625 21.5  L 16.0625 23.25  C 16.0625 23.3875  16.175 23.5  16.3125 23.5  L 18.0625 23.5  C 18.2 23.5  18.3125 23.3875  18.3125 23.25  L 18.3125 21.5  Z M 7.9375 21.5  C 7.9375 21.3625  7.825 21.25  7.6875 21.25  L 5.9375 21.25  C 5.8 21.25  5.6875 21.3625  5.6875 21.5  L 5.6875 23.25  C 5.6875 23.3875  5.8 23.5  5.9375 23.5  L 7.6875 23.5  C 7.825 23.5  7.9375 23.3875  7.9375 23.25  L 7.9375 21.5  Z M 5.6875 2.5  C 5.6875 2.6375  5.8 2.75  5.9375 2.75  L 7.6875 2.75  C 7.825 2.75  7.9375 2.6375  7.9375 2.5  L 7.9375 0.75  C 7.9375 0.6125  7.825 0.5  7.6875 0.5  L 5.9375 0.5  C 5.8 0.5  5.6875 0.6125  5.6875 0.75  L 5.6875 2.5  Z M 0.5 2.5  C 0.5 2.6375  0.6125 2.75  0.75 2.75  L 2.5 2.75  C 2.6375 2.75  2.75 2.6375  2.75 2.5  L 2.75 0.75  C 2.75 0.6125  2.6375 0.5  2.5 0.5  L 0.75 0.5  C 0.6125 0.5  0.5 0.6125  0.5 0.75  L 0.5 2.5  Z M 10.875 2.5  C 10.875 2.6375  10.9875 2.75  11.125 2.75  L 12.875 2.75  C 13.0125 2.75  13.125 2.6375  13.125 2.5  L 13.125 0.75  C 13.125 0.6125  13.0125 0.5  12.875 0.5  L 11.125 0.5  C 10.9875 0.5  10.875 0.6125  10.875 0.75  L 10.875 2.5  Z M 2.75 21.5  C 2.75 21.3625  2.6375 21.25  2.5 21.25  L 0.75 21.25  C 0.6125 21.25  0.5 21.3625  0.5 21.5  L 0.5 23.25  C 0.5 23.3875  0.6125 23.5  0.75 23.5  L 2.5 23.5  C 2.6375 23.5  2.75 23.3875  2.75 23.25  L 2.75 21.5  Z M 13.125 21.5  C 13.125 21.3625  13.0125 21.25  12.875 21.25  L 11.125 21.25  C 10.9875 21.25  10.875 21.3625  10.875 21.5  L 10.875 23.25  C 10.875 23.3875  10.9875 23.5  11.125 23.5  L 12.875 23.5  C 13.0125 23.5  13.125 23.3875  13.125 23.25  L 13.125 21.5  Z M 0.5 7.6875  C 0.5 7.825  0.6125 7.9375  0.75 7.9375  L 2.5 7.9375  C 2.6375 7.9375  2.75 7.825  2.75 7.6875  L 2.75 5.9375  C 2.75 5.8  2.6375 5.6875  2.5 5.6875  L 0.75 5.6875  C 0.6125 5.6875  0.5 5.8  0.5 5.9375  L 0.5 7.6875  Z M 10.875 7.6875  C 10.875 7.825  10.9875 7.9375  11.125 7.9375  L 12.875 7.9375  C 13.0125 7.9375  13.125 7.825  13.125 7.6875  L 13.125 5.9375  C 13.125 5.8  13.0125 5.6875  12.875 5.6875  L 11.125 5.6875  C 10.9875 5.6875  10.875 5.8  10.875 5.9375  L 10.875 7.6875  Z M 2.75 16.3125  C 2.75 16.175  2.6375 16.0625  2.5 16.0625  L 0.75 16.0625  C 0.6125 16.0625  0.5 16.175  0.5 16.3125  L 0.5 18.0625  C 0.5 18.2  0.6125 18.3125  0.75 18.3125  L 2.5 18.3125  C 2.6375 18.3125  2.75 18.2  2.75 18.0625  L 2.75 16.3125  Z M 13.125 16.3125  C 13.125 16.175  13.0125 16.0625  12.875 16.0625  L 11.125 16.0625  C 10.9875 16.0625  10.875 16.175  10.875 16.3125  L 10.875 18.0625  C 10.875 18.2  10.9875 18.3125  11.125 18.3125  L 12.875 18.3125  C 13.0125 18.3125  13.125 18.2  13.125 18.0625  L 13.125 16.3125  Z " fill-rule="nonzero" fill="#ffffff" stroke="none" transform="matrix(1 0 0 1 480 420 )" />
  </g>
</svg>