<?xml version="1.0" encoding="utf-8"?>
<svg version="1.1" xmlns:xlink="http://www.w3.org/1999/xlink" width="26px" height="26px" xmlns="http://www.w3.org/2000/svg">
  <g transform="matrix(1 0 0 1 -479 -352 )">
    <path d="M 9.5 18.5625  C 9.5 18.765625  9.73125 18.884375  9.896875 18.765625  L 17.584375 13.203125  C 17.721875 13.103125  17.721875 12.9  17.584375 12.8  L 9.896875 7.2375  C 9.73125 7.11875  9.5 7.2375  9.5 7.440625  L 9.5 8.90625  C 9.5 9.225  9.653125 9.528125  9.9125 9.715625  L 14.45625 13  L 9.9125 16.2875  C 9.653125 16.475  9.5 16.775  9.5 17.096875  L 9.5 18.5625  Z M 25 1.5  C 25.5 0.946875  25.053125 0.5  24.5 1  L 1.5 1  C 0.946875 0.5  0.5 0.946875  1 1.5  L 1 24.5  C 0.5 25.053125  0.946875 25.5  1.5 25  L 24.5 25  C 25.053125 25.5  25.5 25.053125  25 24.5  L 25 1.5  Z M 23 3  L 23 23  L 3 23  L 3 3  L 23 3  Z " fill-rule="nonzero" fill="#ffffff" stroke="none" transform="matrix(1 0 0 1 479 352 )" />
  </g>
</svg>