<?xml version="1.0" encoding="utf-8"?>
<svg version="1.1" xmlns:xlink="http://www.w3.org/1999/xlink" width="28px" height="28px" xmlns="http://www.w3.org/2000/svg">
  <g transform="matrix(1 0 0 1 -478 -219 )">
    <path d="M 18.834375 14.203125  C 18.971875 14.103125  18.971875 13.896875  18.834375 13.796875  L 11.146875 8.234375  C 10.98125 8.115625  10.75 8.23125  10.75 8.4375  L 10.75 9.903125  C 10.75 10.221875  10.903125 10.525  11.1625 10.7125  L 15.70625 14  L 11.1625 17.2875  C 10.903125 17.475  10.75 17.775  10.75 18.096875  L 10.75 19.5625  C 10.75 19.765625  10.98125 19.884375  11.146875 19.765625  L 18.834375 14.203125  Z M 28 14  C 28 6.26875  21.73125 0  14 0  C 6.26875 0  0 6.26875  0 14  C 0 21.73125  6.26875 28  14 28  C 21.73125 28  28 21.73125  28 14  Z M 25.625 14  C 25.625 20.41875  20.41875 25.625  14 25.625  C 7.58125 25.625  2.375 20.41875  2.375 14  C 2.375 7.58125  7.58125 2.375  14 2.375  C 20.41875 2.375  25.625 7.58125  25.625 14  Z " fill-rule="nonzero" fill="#ffffff" stroke="none" transform="matrix(1 0 0 1 478 219 )" />
  </g>
</svg>