<?xml version="1.0" encoding="utf-8"?>
<svg version="1.1" xmlns:xlink="http://www.w3.org/1999/xlink" width="26px" height="22px" xmlns="http://www.w3.org/2000/svg">
  <g transform="matrix(1 0 0 1 -758 -354 )">
    <path d="M 9.5 8.5625  C 9.5 8.7  9.6125 8.8125  9.75 9  L 24.75 9  C 24.8875 8.8125  25 8.7  25 8.5625  L 25 6.8125  C 25 6.675  24.8875 6.5625  24.75 7  L 9.75 7  C 9.6125 6.5625  9.5 6.675  9.5 6.8125  L 9.5 8.5625  Z M 9.5 13.4375  L 9.5 15.1875  C 9.5 15.325  9.6125 15.4375  9.75 15  L 24.75 15  C 24.8875 15.4375  25 15.325  25 15.1875  L 25 13.4375  C 25 13.3  24.8875 13.1875  24.75 13  L 9.75 13  C 9.6125 13.1875  9.5 13.3  9.5 13.4375  Z M 25.5 0.25  C 25.5 0.1125  25.3875 0  25.25 0  L 0.75 0  C 0.6125 0  0.5 0.1125  0.5 0.25  L 0.5 2  C 0.5 2.1375  0.6125 2.25  0.75 2.25  L 25.25 2.25  C 25.3875 2.25  25.5 2.1375  25.5 2  L 25.5 0.25  Z M 25.5 20  C 25.5 19.8625  25.3875 19.75  25.25 19.75  L 0.75 19.75  C 0.6125 19.75  0.5 19.8625  0.5 20  L 0.5 21.75  C 0.5 21.8875  0.6125 22  0.75 22  L 25.25 22  C 25.3875 22  25.5 21.8875  25.5 21.75  L 25.5 20  Z M 0.60625 10.784375  C 0.465625 10.89375  0.465625 11.10625  0.60625 11.215625  L 5.490625 15.0625  C 5.671875 15.20625  5.940625 15.078125  5.940625 14.846875  L 5.940625 7.153125  C 5.940625 6.921875  5.675 6.79375  5.490625 6.9375  L 0.60625 10.784375  Z " fill-rule="nonzero" fill="#ffffff" stroke="none" transform="matrix(1 0 0 1 758 354 )" />
  </g>
</svg>