<?xml version="1.0" encoding="utf-8"?>
<svg version="1.1" xmlns:xlink="http://www.w3.org/1999/xlink" width="18px" height="24px" xmlns="http://www.w3.org/2000/svg">
  <g transform="matrix(1 0 0 1 -762 -221 )">
    <path d="M 17 1.375  C 17.0625 1.2375  16.95 1.125  16.8125 1.125  L 14.8125 1.125  C 14.675 1.125  14.5625 1.2375  14.5625 1.375  L 14.5625 22.875  C 14.5625 23.0125  14.675 23.125  14.8125 23.125  L 16.8125 23.125  C 16.95 23.125  17.0625 23.0125  17 22.875  L 17 1.375  Z M 1.346875 0.934375  C 1.184375 0.796875  0.937500000000001 0.912500000000001  0.9375 1.125  L 0.9375 3.3875  C 0.9375 3.684375  1.06875 3.9625  1.29375 4.153125  L 10.64375 12  L 1.29375 19.846875  C 1.06875 20.0375  0.937499999999999 20.315625  0.937499999999999 20.6125  L 0.937499999999999 22.875  C 0.937499999999999 23.0875  1.184375 23.203125  1.346875 23.065625  L 14.53125 12  L 1.346875 0.934375  Z " fill-rule="nonzero" fill="#ffffff" stroke="none" transform="matrix(1 0 0 1 762 221 )" />
  </g>
</svg>