<?xml version="1.0" encoding="utf-8"?>
<svg version="1.1" xmlns:xlink="http://www.w3.org/1999/xlink" width="26px" height="26px" xmlns="http://www.w3.org/2000/svg">
  <g transform="matrix(1 0 0 1 -665 -419 )">
    <path d="M 25 1.5  C 25.5 0.946875  25.053125 0.5  24.5 1  L 1.5 1  C 0.946875 0.5  0.5 0.946875  1 1.5  L 1 24.5  C 0.5 25.053125  0.946875 25.5  1.5 25  L 24.5 25  C 25.053125 25.5  25.5 25.053125  25 24.5  L 25 1.5  Z M 23 3  L 23 23  L 3 23  L 3 3  L 23 3  Z M 11.875 8.1875  C 11.875 8.325  11.9875 8.4375  12.125 8.4375  L 13.875 8.4375  C 14.0125 8.4375  14.125 8.325  14.125 8.1875  L 14.125 6.4375  C 14.125 6.3  14.0125 6.1875  13.875 6.1875  L 12.125 6.1875  C 11.9875 6.1875  11.875 6.3  11.875 6.4375  L 11.875 8.1875  Z M 6.1875 13.875  C 6.1875 14.0125  6.3 14.125  6.4375 14.125  L 8.1875 14.125  C 8.325 14.125  8.4375 14.0125  8.4375 13.875  L 8.4375 12.125  C 8.4375 11.9875  8.325 11.875  8.1875 11.875  L 6.4375 11.875  C 6.3 11.875  6.1875 11.9875  6.1875 12.125  L 6.1875 13.875  Z M 17.5625 13.875  C 17.5625 14.0125  17.675 14.125  17.8125 14.125  L 19.5625 14.125  C 19.7 14.125  19.8125 14.0125  19.8125 13.875  L 19.8125 12.125  C 19.8125 11.9875  19.7 11.875  19.5625 11.875  L 17.8125 11.875  C 17.675 11.875  17.5625 11.9875  17.5625 12.125  L 17.5625 13.875  Z M 11.875 13.875  C 11.875 14.0125  11.9875 14.125  12.125 14.125  L 13.875 14.125  C 14.0125 14.125  14.125 14.0125  14.125 13.875  L 14.125 12.125  C 14.125 11.9875  14.0125 11.875  13.875 11.875  L 12.125 11.875  C 11.9875 11.875  11.875 11.9875  11.875 12.125  L 11.875 13.875  Z M 11.875 19.5625  C 11.875 19.7  11.9875 19.8125  12.125 19.8125  L 13.875 19.8125  C 14.0125 19.8125  14.125 19.7  14.125 19.5625  L 14.125 17.8125  C 14.125 17.675  14.0125 17.5625  13.875 17.5625  L 12.125 17.5625  C 11.9875 17.5625  11.875 17.675  11.875 17.8125  L 11.875 19.5625  Z " fill-rule="nonzero" fill="#ffffff" stroke="none" transform="matrix(1 0 0 1 665 419 )" />
  </g>
</svg>