<?xml version="1.0" encoding="utf-8"?>
<svg version="1.1" xmlns:xlink="http://www.w3.org/1999/xlink" width="22px" height="22px" xmlns="http://www.w3.org/2000/svg">
  <g transform="matrix(1 0 0 1 -667 -222 )">
    <path d="M 11.6625 11.61875  C 11.946875 11.253125  11.946875 10.746875  11.6625 10.384375  L 3.684375 0.190625  C 3.590625 0.0687499999999996  3.44375 0  3.290625 0  L 0.875 0  C 0.665625 0  0.55 0.240625  0.678125 0.403125  L 8.971875 11  L 0.678125 21.596875  C 0.55 21.759375  0.665624999999999 22  0.875 22  L 3.290625 22  C 3.44375 22  3.590625 21.928125  3.684375 21.809375  L 11.6625 11.61875  Z M 21.1625 11.61875  C 21.446875 11.253125  21.446875 10.746875  21.1625 10.384375  L 13.184375 0.190625  C 13.090625 0.0687499999999996  12.94375 0  12.790625 0  L 10.375 0  C 10.165625 0  10.05 0.240625  10.178125 0.403125  L 18.471875 11  L 10.178125 21.596875  C 10.05 21.759375  10.165625 22  10.375 22  L 12.790625 22  C 12.94375 22  13.090625 21.928125  13.184375 21.809375  L 21.1625 11.61875  Z " fill-rule="nonzero" fill="#000000" stroke="none" transform="matrix(1 0 0 1 667 222 )" />
  </g>
</svg>