<?xml version="1.0" encoding="utf-8"?>
<svg version="1.1" xmlns:xlink="http://www.w3.org/1999/xlink" width="24px" height="24px" xmlns="http://www.w3.org/2000/svg">
  <g transform="matrix(1 0 0 1 -853 -287 )">
    <path d="M 23.5 11.0625  C 23.5 10.925  23.3875 10.8125  23.25 11  L 4.965625 11  L 15.909375 1.3125  C 16.084375 1.159375  15.978125 0.875  15.746875 0.875  L 12.98125 0.875  C 12.859375 0.875  12.74375 0.91875  12.653125 0.996875  L 0.84375 11.24375  C 0.384375 11.64375  0.384375 12.35625  0.84375 12.753125  L 12.721875 23.0625  C 12.76875 23.103125  12.825 23.125  12.884375 23.125  L 15.74375 23.125  C 15.975 23.125  16.08125 22.8375  15.90625 22.6875  L 4.965625 13  L 23.25 13  C 23.3875 13.1875  23.5 13.075  23.5 12.9375  L 23.5 11.0625  Z " fill-rule="nonzero" fill="#ffffff" stroke="none" transform="matrix(1 0 0 1 853 287 )" />
  </g>
</svg>