<?xml version="1.0" encoding="utf-8"?>
<svg version="1.1" xmlns:xlink="http://www.w3.org/1999/xlink" width="24px" height="22px" xmlns="http://www.w3.org/2000/svg">
  <g transform="matrix(1 0 0 1 -296 -1081 )">
    <path d="M 24 20  C 24 19.8625  23.8875 19.75  23.75 19.75  L 2.25 19.75  L 2.25 0.25  C 2.25 0.1125  2.1375 0  2 0  L 0.25 0  C 0.1125 0  0 0.1125  0 0.25  L 0 21.75  C 0 21.8875  0.1125 22  0.25 22  L 23.75 22  C 23.8875 22  24 21.8875  24 21.75  L 24 20  Z M 5 13.875  C 5 14.9795694996616  5.89543050033841 15.875  7 15.875  C 8.10456949966159 15.875  9 14.9795694996616  9 13.875  C 9 12.7704305003384  8.10456949966159 11.875  7 11.875  C 5.89543050033841 11.875  5 12.7704305003384  5 13.875  Z M 8.6875 6.875  C 8.6875 7.70342712474619  9.35907287525381 8.375  10.1875 8.375  C 11.0159271247462 8.375  11.6875 7.70342712474619  11.6875 6.875  C 11.6875 6.04657287525381  11.0159271247462 5.375  10.1875 5.375  C 9.35907287525381 5.375  8.6875 6.04657287525381  8.6875 6.875  Z M 13.625 14  C 13.625 15.6568542494924  14.9681457505076 17  16.625 17  C 18.2818542494924 17  19.625 15.6568542494924  19.625 14  C 19.625 12.3431457505076  18.2818542494924 11  16.625 11  C 14.9681457505076 11  13.625 12.3431457505076  13.625 14  Z M 18.25 4.1875  C 18.25 5.15399831220389  19.0335016877961 5.9375  20 5.9375  C 20.9664983122039 5.9375  21.75 5.15399831220389  21.75 4.1875  C 21.75 3.22100168779611  20.9664983122039 2.4375  20 2.4375  C 19.0335016877961 2.4375  18.25 3.22100168779611  18.25 4.1875  Z " fill-rule="nonzero" fill="#ffffff" stroke="none" transform="matrix(1 0 0 1 296 1081 )" />
  </g>
</svg>