<?xml version="1.0" encoding="utf-8"?>
<svg version="1.1" xmlns:xlink="http://www.w3.org/1999/xlink" width="30px" height="26px" xmlns="http://www.w3.org/2000/svg">
  <g transform="matrix(1 0 0 1 -570 -1079 )">
    <path d="M 28 25  C 28.76875 25.25  29.25 24.41875  28.865625 23.75  L 15.865625 1.25  C 15.671875 0.915625  15.3375 0.75  15 0.75  C 14.6625 0.75  14.325 0.915625  14.134375 1.25  L 1.134375 23.75  C 0.75 24.41875  1.23125 25.25  2 25  L 28 25  Z M 4.165625 23  L 4.165625 23.003125  L 15 4.246875  L 25.834375 23  L 4.165625 23  Z M 15 7.6875  C 14.6625 7.6875  14.325 7.853125  14.134375 8.1875  L 7.009375 20.5  C 6.625 21.165625  7.10625 22  7.875 22  L 22.11875 22  C 22.890625 22  23.371875 21.165625  22.984375 20.5  L 15.865625 8.1875  C 15.671875 7.853125  15.334375 7.6875  15 7.6875  Z M 15 10.1875  L 20.821875 20  L 9.178125 20  L 15 10.1875  Z M 15 13.6875  C 14.6625 13.6875  14.328125 13.853125  14.134375 14.184375  L 12.353125 17.259375  C 11.96875 17.921875  12.45 18.75  13.21875 18.75  L 16.78125 18.75  C 17.55 18.75  18.028125 17.921875  17.646875 17.259375  L 15.865625 14.184375  C 15.675 13.853125  15.3375 13.6875  15 13.6875  Z M 15.003125 15.675  L 15.91875 17.259375  L 14.084375 17.259375  L 15.003125 15.675  Z " fill-rule="nonzero" fill="#ffffff" stroke="none" transform="matrix(1 0 0 1 570 1079 )" />
  </g>
</svg>