<?xml version="1.0" encoding="utf-8"?>
<svg version="1.1" xmlns:xlink="http://www.w3.org/1999/xlink" width="28px" height="26px" xmlns="http://www.w3.org/2000/svg">
  <g transform="matrix(1 0 0 1 -478 -1079 )">
    <path d="M 27.328125 10.528125  C 27.459375 10.115625  27.3125 9.665625  26.9625 9.409375  L 14.5875 0.409375000000001  C 14.2377464319191 0.153125405949521  13.7622535680809 0.15312540594952  13.4125 0.409375000000001  L 1.0375 9.409375  C 0.687499999999998 9.6625  0.540624999999998 10.115625  0.674999999999998 10.528125  L 5.403125 25.090625  C 5.5375 25.503125  5.921875 25.78125  6.353125 25.78125  L 21.65 25.78125  C 22.084375 25.78125  22.465625 25.503125  22.6 25.090625  L 27.328125 10.528125  Z M 14.878125 3.246875  L 24.20625 10.03125  L 21.128125 11.03125  L 14.878125 6.509375  L 14.878125 3.246875  Z M 8.053125 13.259375  L 12.5625 14.725  L 9.778125 18.546875  L 8.053125 13.259375  Z M 13.125 13.065625  L 8.928125 11.7  L 13.125 8.665625  L 13.125 13.065625  Z M 11.065625 19.753125  L 14 15.725  L 16.934375 19.753125  L 11.065625 19.753125  Z M 14.878125 13.0625  L 14.878125 8.665625  L 19.071875 11.7  L 14.878125 13.0625  Z M 18.221875 18.546875  L 15.4375 14.725  L 19.946875 13.259375  L 18.221875 18.546875  Z M 3.79375 10.03125  L 13.125 3.246875  L 13.125 6.509375  L 6.871875 11.03125  L 3.79375 10.03125  Z M 6.825 22.6  L 3.290625 11.7125  L 5.99375 12.590625  L 8.50625 20.290625  L 6.825 22.6  Z M 19.78125 23.65625  L 8.221875 23.65625  L 9.79375 21.5  L 18.209375 21.5  L 19.78125 23.65625  Z M 24.709375 11.7125  L 21.175 22.6  L 19.49375 20.290625  L 22.00625 12.590625  L 24.709375 11.7125  Z " fill-rule="nonzero" fill="#ffffff" stroke="none" transform="matrix(1 0 0 1 478 1079 )" />
  </g>
</svg>