<?xml version="1.0" encoding="utf-8"?>
<svg version="1.1" xmlns:xlink="http://www.w3.org/1999/xlink" width="26px" height="20px" xmlns="http://www.w3.org/2000/svg">
  <g transform="matrix(1 0 0 1 -758 -1082 )">
    <path d="M 25.659375 19.403125  C 25.81875 19.425  25.95625 19.2875  25.934375 19.125  L 25.184375 12.9  C 25.159375 12.69375  24.90625 12.60625  24.759375 12.753125  L 22.90625 14.609375  L 14.428125 6.134375  C 14.23125 5.940625  13.915625 5.940625  13.721875 6.134375  L 10.540625 9.3125  L 1.89375 0.665625  C 1.796875 0.568750000000001  1.6375 0.568750000000001  1.540625 0.665625  L 0.134374999999999 2.078125  C 0.0374999999999996 2.175  0.0374999999999996 2.334375  0.134374999999999 2.43125  L 10.1875 12.490625  C 10.38125 12.6875  10.7 12.6875  10.89375 12.490625  L 14.075 9.3125  L 21.140625 16.375  L 19.2875 18.228125  C 19.140625 18.375  19.228125 18.628125  19.434375 18.653125  L 25.659375 19.403125  Z " fill-rule="nonzero" fill="#000000" stroke="none" transform="matrix(1 0 0 1 758 1082 )" />
  </g>
</svg>