<?xml version="1.0" encoding="utf-8"?>
<svg version="1.1" xmlns:xlink="http://www.w3.org/1999/xlink" width="26px" height="20px" xmlns="http://www.w3.org/2000/svg">
  <g transform="matrix(1 0 0 1 -665 -1082 )">
    <path d="M 25.934375 0.871875000000001  C 25.95625 0.712500000000001  25.81875 0.575000000000001  25.65625 0.596875  L 19.43125 1.346875  C 19.225 1.371875  19.1375 1.625  19.284375 1.771875  L 21.1375 3.625  L 14.075 10.6875  L 10.89375 7.509375  C 10.696875 7.3125  10.38125 7.315625  10.1875 7.509375  L 0.134375 17.565625  C 0.0375000000000001 17.6625  0.0375000000000001 17.821875  0.134375 17.91875  L 1.540625 19.33125  C 1.6375 19.428125  1.796875 19.428125  1.89375 19.33125  L 10.540625 10.6875  L 13.71875 13.865625  C 13.915625 14.059375  14.23125 14.059375  14.425 13.865625  L 22.90625 5.390625  L 24.759375 7.24375  C 24.90625 7.390625  25.159375 7.303125  25.184375 7.096875  L 25.934375 0.871875000000001  Z " fill-rule="nonzero" fill="#ffffff" stroke="none" transform="matrix(1 0 0 1 665 1082 )" />
  </g>
</svg>