<?xml version="1.0" encoding="utf-8"?>
<svg version="1.1" xmlns:xlink="http://www.w3.org/1999/xlink" width="21px" height="18px" xmlns="http://www.w3.org/2000/svg">
  <g transform="matrix(1 0 0 1 -19 -224 )">
    <path d="M 11 1.24375  C 11 0.78125  10.509375 0.518750000000001  10.175 0.809375  L 1.19375 8.5625  C 0.934374999999999 8.784375  0.934374999999999 9.2125  1.19375 9.434375  L 10.175 17.190625  C 10.509375 17.478125  11 17.21875  11 16.753125  L 11 1.24375  Z M 21 1.24375  C 21 0.78125  20.509375 0.518750000000001  20.175 0.809375  L 11.19375 8.5625  C 11.065625 8.675  11 8.8375  11 9  C 11 9.1625  11.065625 9.325  11.19375 9.4375  L 20.175 17.19375  C 20.509375 17.48125  21 17.221875  21 16.75625  L 21 1.24375  Z " fill-rule="nonzero" fill="#ffffff" stroke="none" transform="matrix(1 0 0 1 19 224 )" />
  </g>
</svg>