<?xml version="1.0" encoding="utf-8"?>
<svg version="1.1" xmlns:xlink="http://www.w3.org/1999/xlink" width="28px" height="22px" xmlns="http://www.w3.org/2000/svg">
  <g transform="matrix(1 0 0 1 -15 -485 )">
    <path d="M 28 20  C 28 19.8625  27.8875 19.75  27.75 19.75  L 0.25 19.75  C 0.1125 19.75  0 19.8625  0 20  L 0 21.75  C 0 21.8875  0.1125 22  0.25 22  L 27.75 22  C 27.8875 22  28 21.8875  28 21.75  L 28 20  Z M 28 0.25  C 28 0.1125  27.8875 0  27.75 0  L 0.25 0  C 0.1125 0  0 0.1125  0 0.25  L 0 2  C 0 2.1375  0.1125 2.25  0.25 2.25  L 27.75 2.25  C 27.8875 2.25  28 2.1375  28 2  L 28 0.25  Z M 3.5 15.625  L 24.5 15.625  C 24.775 15.625  25 15.4  25 15.125  L 25 6.875  C 25 6.6  24.775 6.375  24.5 6.375  L 3.5 6.375  C 3.225 6.375  3 6.6  3 6.875  L 3 15.125  C 3 15.4  3.225 15.625  3.5 15.625  Z M 5.25 13  L 5.25 9  L 22.75 9  L 22.75 13  L 5.25 13  Z " fill-rule="nonzero" fill="#000000" stroke="none" transform="matrix(1 0 0 1 15 485 )" />
  </g>
</svg>