<?xml version="1.0" encoding="utf-8"?>
<svg version="1.1" xmlns:xlink="http://www.w3.org/1999/xlink" width="18px" height="26px" xmlns="http://www.w3.org/2000/svg">
  <g transform="matrix(1 0 0 1 -20 -612 )">
    <path d="M 17.5625 8.93125  C 17.5625 7.8375  17.33125 6.775  16.875 5.778125  C 16.4375 4.821875  15.815625 3.9625  15.021875 3.228125  C 13.409375 1.73125  11.26875 0.90625  9 0.90625  C 6.73125 0.90625  4.590625 1.73125  2.978125 3.225  C 2.184375 3.9625  1.5625 4.81875  1.125 5.778125  C 0.66875 6.778125  0.4375 7.8375  0.4375 8.93125  L 0.4375 9.775  C 0.4375 9.96875  0.59375 10.125  0.7875 10.125  L 2.475 10.125  C 2.66875 10.125  2.825 9.96875  2.825 9.775  L 2.825 8.93125  C 2.825 5.821875  5.59375 3.29375  9 3.29375  C 12.40625 3.29375  15.175 5.821875  15.175 8.93125  C 15.175 10.20625  14.721875 11.40625  13.8625 12.40625  C 13.0125 13.396875  11.8125 14.10625  10.484375 14.40625  C 9.725 14.578125  9.040625 15.00625  8.55625 15.61875  C 8.075 16.225  7.809375 16.9875  7.809375 17.7625  L 7.809375 18.74375  C 7.809375 18.9375  7.965625 19.09375  8.159375 19.09375  L 9.846875 19.09375  C 10.040625 19.09375  10.196875 18.9375  10.196875 18.74375  L 10.196875 17.7625  C 10.196875 17.271875  10.5375 16.840625  11.009375 16.734375  C 12.834375 16.321875  14.490625 15.3375  15.675 13.9625  C 16.271875 13.265625  16.7375 12.490625  17.059375 11.65  C 17.39375 10.778125  17.5625 9.8625  17.5625 8.93125  Z M 10.75 23.34375  C 10.75 22.378125  9.965625 21.59375  9 21.59375  C 8.034375 21.59375  7.25 22.378125  7.25 23.34375  C 7.25 24.309375  8.034375 25.09375  9 25.09375  C 9.965625 25.09375  10.75 24.309375  10.75 23.34375  Z " fill-rule="nonzero" fill="#000000" stroke="none" transform="matrix(1 0 0 1 20 612 )" />
  </g>
</svg>