<?xml version="1.0" encoding="utf-8"?>
<svg version="1.1" xmlns:xlink="http://www.w3.org/1999/xlink" width="20px" height="22px" xmlns="http://www.w3.org/2000/svg">
  <g transform="matrix(1 0 0 1 -206 -682 )">
    <path d="M 19.821875 20.778125  L 11.61875 11  L 19.821875 1.221875  C 19.959375 1.059375  19.84375 0.812500000000001  19.63125 0.812500000000001  L 17.1375 0.812500000000001  C 16.990625 0.812500000000001  16.85 0.878125000000001  16.753125 0.990625  L 9.9875 9.05625  L 3.221875 0.990625  C 3.128125 0.878125  2.9875 0.8125  2.8375 0.8125  L 0.34375 0.8125  C 0.13125 0.8125  0.015625 1.059375  0.153125 1.221875  L 8.35625 11  L 0.153125 20.778125  C 0.015625 20.940625  0.131250000000001 21.1875  0.34375 21.1875  L 2.8375 21.1875  C 2.984375 21.1875  3.125 21.121875  3.221875 21.009375  L 9.9875 12.94375  L 16.753125 21.009375  C 16.846875 21.121875  16.9875 21.1875  17.1375 21.1875  L 19.63125 21.1875  C 19.84375 21.1875  19.959375 20.940625  19.821875 20.778125  Z " fill-rule="nonzero" fill="#000000" stroke="none" transform="matrix(1 0 0 1 206 682 )" />
  </g>
</svg>