<?xml version="1.0" encoding="utf-8"?>
<svg version="1.1" xmlns:xlink="http://www.w3.org/1999/xlink" width="28px" height="28px" xmlns="http://www.w3.org/2000/svg">
  <g transform="matrix(1 0 0 1 -109 -679 )">
    <path d="M 28 14  C 28 6.26875  21.73125 0  14 0  C 6.26875 0  0 6.26875  0 14  C 0 21.73125  6.26875 28  14 28  C 21.73125 28  28 21.73125  28 14  Z M 25.625 14  C 25.625 20.41875  20.41875 25.625  14 25.625  C 7.58125 25.625  2.375 20.41875  2.375 14  C 2.375 7.58125  7.58125 2.375  14 2.375  C 20.41875 2.375  25.625 7.58125  25.625 14  Z M 12.5 19.5  C 12.5 20.3284271247462  13.1715728752538 21  14 21  C 14.8284271247462 21  15.5 20.3284271247462  15.5 19.5  C 15.5 18.6715728752538  14.8284271247462 18  14 18  C 13.1715728752538 18  12.5 18.6715728752538  12.5 19.5  Z M 13 15.75  C 13 15.8875  13.1125 16  13.25 16  L 14.75 16  C 14.8875 16  15 15.8875  15 15.75  L 15 7.25  C 15 7.1125  14.8875 7  14.75 7  L 13.25 7  C 13.1125 7  13 7.1125  13 7.25  L 13 15.75  Z " fill-rule="nonzero" fill="#ffffff" stroke="none" transform="matrix(1 0 0 1 109 679 )" />
  </g>
</svg>