<?xml version="1.0" encoding="utf-8"?>
<svg version="1.1" xmlns:xlink="http://www.w3.org/1999/xlink" width="28px" height="28px" xmlns="http://www.w3.org/2000/svg">
  <g transform="matrix(1 0 0 1 -109 -611 )">
    <path d="M 28 14  C 28 6.26875  21.73125 0  14 0  C 6.26875 0  0 6.26875  0 14  C 0 21.73125  6.26875 28  14 28  C 21.73125 28  28 21.73125  28 14  Z M 25.625 14  C 25.625 20.41875  20.41875 25.625  14 25.625  C 7.58125 25.625  2.375 20.41875  2.375 14  C 2.375 7.58125  7.58125 2.375  14 2.375  C 20.41875 2.375  25.625 7.58125  25.625 14  Z M 18.996875 11.125  C 19 9.896875  18.4625 8.75  17.4875 7.896875  C 16.55 7.075  15.3125 6.625  14 6.625  C 12.6875 6.625  11.45 7.078125  10.5125 7.896875  C 9.5375 8.75  9 9.896875  9 11.125  L 9 11.3625  C 9 11.5  9.1125 11.6125  9.25 11.6125  L 10.75 11.6125  C 10.8875 11.6125  11 11.5  11 11.3625  L 11 11.125  C 11 9.746875  12.346875 8.625  14 8.625  C 15.653125 8.625  17 9.746875  17 11.125  C 17 12.096875  16.3125 12.9875  15.246875 13.396875  C 14.584375 13.65  14.021875 14.09375  13.61875 14.675  C 13.209375 15.26875  12.996875 15.98125  12.996875 16.703125  L 12.996875 17.375  C 12.996875 17.5125  13.109375 17.625  13.246875 17.625  L 14.746875 17.625  C 14.884375 17.625  14.996875 17.5125  14.996875 17.375  L 14.996875 16.665625  C 14.996875 16.05  15.384375 15.4875  15.9625 15.265625  C 17.80625 14.55625  18.996875 12.93125  18.996875 11.125  Z M 12.75 20.875  C 12.75 21.5653559372885  13.3096440627115 22.125  14 22.125  C 14.6903559372885 22.125  15.25 21.5653559372885  15.25 20.875  C 15.25 20.1846440627115  14.6903559372885 19.625  14 19.625  C 13.3096440627115 19.625  12.75 20.1846440627115  12.75 20.875  Z " fill-rule="nonzero" fill="#000000" stroke="none" transform="matrix(1 0 0 1 109 611 )" />
  </g>
</svg>