<?xml version="1.0" encoding="utf-8"?>
<svg version="1.1" xmlns:xlink="http://www.w3.org/1999/xlink" width="28px" height="29px" xmlns="http://www.w3.org/2000/svg">
  <g transform="matrix(1 0 0 1 -294 -679 )">
    <path d="M 19.3625 9.25  C 19.4 9.20625  19.41875 9.146875  19.41875 9.0875  C 19.41875 8.95  19.30625 8.8375  19.16875 8.8375  L 17.10625 8.846875  L 14 12.55  L 10.896875 8.85  L 8.83125 8.840625  C 8.69375 8.840625  8.58125 8.95  8.58125 9.090625  C 8.58125 9.15  8.603125 9.20625  8.640625 9.253125  L 12.70625 14.096875  L 8.640625 18.9375  C 8.603125 18.984375  8.58125 19.040625  8.58125 19.1  C 8.58125 19.2375  8.69375 19.35  8.83125 19.35  L 10.896875 19.340625  L 14 15.6375  L 17.103125 19.3375  L 19.165625 19.346875  C 19.303125 19.346875  19.415625 19.2375  19.415625 19.096875  C 19.415625 19.0375  19.39375 18.98125  19.35625 18.934375  L 15.296875 14.09375  L 19.3625 9.25  Z M 28 14.03125  C 28 6.3  21.73125 0.03125  14 0.03125  C 6.26875 0.03125  0 6.3  0 14.03125  C 0 21.7625  6.26875 28.03125  14 28.03125  C 21.73125 28.03125  28 21.7625  28 14.03125  Z M 25.625 14.03125  C 25.625 20.45  20.41875 25.65625  14 25.65625  C 7.58125 25.65625  2.375 20.45  2.375 14.03125  C 2.375 7.6125  7.58125 2.40625  14 2.40625  C 20.41875 2.40625  25.625 7.6125  25.625 14.03125  Z " fill-rule="nonzero" fill="#000000" stroke="none" transform="matrix(1 0 0 1 294 679 )" />
  </g>
</svg>