<?xml version="1.0" encoding="utf-8"?>
<svg version="1.1" xmlns:xlink="http://www.w3.org/1999/xlink" width="4px" height="23px" xmlns="http://www.w3.org/2000/svg">
  <g transform="matrix(1 0 0 1 -957 -614 )">
    <path d="M 0 2  C 0 3.10456949966159  0.895430500338414 4  2 4  C 3.10456949966159 4  4 3.10456949966159  4 2  C 4 0.895430500338414  3.10456949966159 0  2 0  C 0.895430500338414 0  0 0.895430500338414  0 2  Z M 3.25 7.5  C 3.25 7.3625  3.1375 7.25  3 7.25  L 1 7.25  C 0.862500000000001 7.25  0.75 7.3625  0.75 7.5  L 0.75 22  C 0.75 22.1375  0.862500000000001 22.25  1 22.25  L 3 22.25  C 3.1375 22.25  3.25 22.1375  3.25 22  L 3.25 7.5  Z " fill-rule="nonzero" fill="#000000" stroke="none" transform="matrix(1 0 0 1 957 614 )" />
  </g>
</svg>