<?xml version="1.0" encoding="utf-8"?>
<svg version="1.1" xmlns:xlink="http://www.w3.org/1999/xlink" width="28px" height="28px" xmlns="http://www.w3.org/2000/svg">
  <g transform="matrix(1 0 0 1 -1039 -611 )">
    <path d="M 28 14  C 28 6.26875  21.73125 0  14 0  C 6.26875 0  0 6.26875  0 14  C 0 21.73125  6.26875 28  14 28  C 21.73125 28  28 21.73125  28 14  Z M 25.625 14  C 25.625 20.41875  20.41875 25.625  14 25.625  C 7.58125 25.625  2.375 20.41875  2.375 14  C 2.375 7.58125  7.58125 2.375  14 2.375  C 20.41875 2.375  25.625 7.58125  25.625 14  Z M 12.5 8.5  C 12.5 9.32842712474619  13.1715728752538 10  14 10  C 14.8284271247462 10  15.5 9.32842712474619  15.5 8.5  C 15.5 7.67157287525381  14.8284271247462 7  14 7  C 13.1715728752538 7  12.5 7.67157287525381  12.5 8.5  Z M 15 12.25  C 15 12.1125  14.8875 12  14.75 12  L 13.25 12  C 13.1125 12  13 12.1125  13 12.25  L 13 20.75  C 13 20.8875  13.1125 21  13.25 21  L 14.75 21  C 14.8875 21  15 20.8875  15 20.75  L 15 12.25  Z " fill-rule="nonzero" fill="#000000" stroke="none" transform="matrix(1 0 0 1 1039 611 )" />
  </g>
</svg>