<?xml version="1.0" encoding="utf-8"?>
<svg version="1.1" xmlns:xlink="http://www.w3.org/1999/xlink" width="28px" height="28px" xmlns="http://www.w3.org/2000/svg">
  <g transform="matrix(1 0 0 1 -571 -679 )">
    <path d="M 20.04375 9.428125  C 20.165625 9.2625  20.046875 9.03125  19.84375 9.03125  L 18.378125 9.03125  C 18.059375 9.03125  17.75625 9.184375  17.56875 9.446875  L 12.65625 16.259375  L 10.43125 13.171875  C 10.24375 12.9125  9.94375 12.75625  9.621875 12.75625  L 8.15625 12.75625  C 7.953125 12.75625  7.834375 12.9875  7.953125 13.153125  L 11.846875 18.553125  C 12.24375 19.10625  13.065625 19.10625  13.4625 18.553125  L 20.04375 9.428125  Z M 28 14  C 28 6.26875  21.73125 0  14 0  C 6.26875 0  0 6.26875  0 14  C 0 21.73125  6.26875 28  14 28  C 21.73125 28  28 21.73125  28 14  Z M 25.625 14  C 25.625 20.41875  20.41875 25.625  14 25.625  C 7.58125 25.625  2.375 20.41875  2.375 14  C 2.375 7.58125  7.58125 2.375  14 2.375  C 20.41875 2.375  25.625 7.58125  25.625 14  Z " fill-rule="nonzero" fill="#ffffff" stroke="none" transform="matrix(1 0 0 1 571 679 )" />
  </g>
</svg>