<?xml version="1.0" encoding="utf-8"?>
<svg version="1.1" xmlns:xlink="http://www.w3.org/1999/xlink" width="28px" height="28px" xmlns="http://www.w3.org/2000/svg">
  <g transform="matrix(1 0 0 1 -478 -611 )">
    <path d="M 28 14  C 28 6.26875  21.73125 0  14 0  C 6.26875 0  0 6.26875  0 14  C 0 21.73125  6.26875 28  14 28  C 21.73125 28  28 21.73125  28 14  Z M 25.625 14  C 25.625 20.41875  20.41875 25.625  14 25.625  C 7.58125 25.625  2.375 20.41875  2.375 14  C 2.375 7.58125  7.58125 2.375  14 2.375  C 20.41875 2.375  25.625 7.58125  25.625 14  Z M 11.5 9.25  C 11.5 9.1125  11.3875 9  11.25 9  L 9.75 9  C 9.6125 9  9.5 9.1125  9.5 9.25  L 9.5 18.75  C 9.5 18.8875  9.6125 19  9.75 19  L 11.25 19  C 11.3875 19  11.5 18.8875  11.5 18.75  L 11.5 9.25  Z M 18.5 9.25  C 18.5 9.1125  18.3875 9  18.25 9  L 16.75 9  C 16.6125 9  16.5 9.1125  16.5 9.25  L 16.5 18.75  C 16.5 18.8875  16.6125 19  16.75 19  L 18.25 19  C 18.3875 19  18.5 18.8875  18.5 18.75  L 18.5 9.25  Z " fill-rule="nonzero" fill="#ffffff" stroke="none" transform="matrix(1 0 0 1 478 611 )" />
  </g>
</svg>