<?xml version="1.0" encoding="utf-8"?>
<svg version="1.1" xmlns:xlink="http://www.w3.org/1999/xlink" width="28px" height="28px" xmlns="http://www.w3.org/2000/svg">
  <g transform="matrix(1 0 0 1 -757 -679 )">
    <path d="M 28 14  C 28 6.26875  21.73125 0  14 0  C 6.26875 0  0 6.26875  0 14  C 0 21.73125  6.26875 28  14 28  C 21.73125 28  28 21.73125  28 14  Z M 25.625 14  C 25.625 20.41875  20.41875 25.625  14 25.625  C 7.58125 25.625  2.375 20.41875  2.375 14  C 2.375 7.58125  7.58125 2.375  14 2.375  C 20.41875 2.375  25.625 7.58125  25.625 14  Z M 19.515625 18.30625  C 19.596875 18.190625  19.571875 18.034375  19.459375 17.95625  L 15.003125 14.734375  L 15.003125 7  C 15.003125 6.8625  14.890625 6.75  14.753125 6.75  L 13.25 6.75  C 13.1125 6.75  13 6.8625  13 7  L 13 15.60625  C 13 15.6875  13.0375 15.7625  13.103125 15.809375  L 18.271875 19.578125  C 18.384375 19.659375  18.540625 19.634375  18.621875 19.525  L 19.515625 18.30625  Z " fill-rule="nonzero" fill="#000000" stroke="none" transform="matrix(1 0 0 1 757 679 )" />
  </g>
</svg>