<?xml version="1.0" encoding="utf-8"?>
<svg version="1.1" xmlns:xlink="http://www.w3.org/1999/xlink" width="18px" height="24px" xmlns="http://www.w3.org/2000/svg">
  <g transform="matrix(1 0 0 1 -20 -881 )">
    <path d="M 17.75 16.515625  C 17.75 14.234375  16.58125 12.225  14.80625 11.04375  C 15.85625 9.95  16.5 8.471875  16.5 6.846875  L 16.5 6.528125  C 16.5 3.165625  13.746875 0.4375  10.353125 0.4375  L 1.10625 0.4375  C 0.634374999999999 0.4375  0.249999999999999 0.821875  0.249999999999999 1.29375  L 0.249999999999999 22.515625  C 0.249999999999999 23.025  0.662499999999999 23.4375  1.171875 23.4375  L 11.13125 23.4375  C 14.7875 23.4375  17.75 20.49375  17.75 16.859375  L 17.75 16.515625  Z M 3.25 9.940625  L 3.25 3.4375  L 10.271875 3.4375  C 12.05625 3.4375  13.5 4.825  13.5 6.540625  L 13.5 6.8375  C 13.5 8.55  12.053125 9.940625  10.271875 9.940625  L 3.25 9.940625  Z M 14.70625 16.51875  L 14.70625 16.85625  C 14.70625 18.821875  13.090625 20.415625  11.096875 20.415625  L 3.25 20.415625  L 3.25 12.959375  L 11.096875 12.959375  C 13.090625 12.959375  14.70625 14.553125  14.70625 16.51875  Z " fill-rule="nonzero" fill="#000000" stroke="none" transform="matrix(1 0 0 1 20 881 )" />
  </g>
</svg>