<?xml version="1.0" encoding="utf-8"?>
<svg version="1.1" xmlns:xlink="http://www.w3.org/1999/xlink" width="24px" height="22px" xmlns="http://www.w3.org/2000/svg">
  <g transform="matrix(1 0 0 1 -204 -288 )">
    <path d="M 23.284375 15.11875  C 23.8 14.4625  23.334375 13.5  22.496875 13.5  L 0.75 13.5  C 0.6125 13.5  0.5 13.6125  0.5 13.75  L 0.5 15.625  C 0.5 15.7625  0.6125 15.875  0.75 15.875  L 19.6625 15.875  L 15.153125 21.59375  C 15.025 21.75625  15.140625 22  15.35 22  L 17.615625 22  C 17.76875 22  17.9125 21.93125  18.009375 21.809375  L 23.284375 15.11875  Z M 23.5 6.375  C 23.5 6.2375  23.3875 6.125  23.25 6.125  L 4.3375 6.125  L 8.846875 0.40625  C 8.975 0.24375  8.859375 0  8.65 0  L 6.384375 0  C 6.23125 0  6.0875 0.0687499999999996  5.990625 0.190625  L 0.715625 6.88125  C 0.2 7.5375  0.665625 8.5  1.5 8.5  L 23.25 8.5  C 23.3875 8.5  23.5 8.3875  23.5 8.25  L 23.5 6.375  Z " fill-rule="nonzero" fill="#000000" stroke="none" transform="matrix(1 0 0 1 204 288 )" />
  </g>
</svg>