<?xml version="1.0" encoding="utf-8"?>
<svg version="1.1" xmlns:xlink="http://www.w3.org/1999/xlink" width="8px" height="10px" xmlns="http://www.w3.org/2000/svg">
  <g transform="matrix(1 0 0 1 -212 -955 )">
    <path d="M 7.5 7.865625  C 7.503125 7.70625  7.371875 7.575  7.2125 7.575  L 3.1625 7.575  L 3.1625 7.5625  L 7.30625 1.659375  C 7.340625 1.609375  7.359375 1.553125  7.359375 1.490625  L 7.359375 0.353125000000002  C 7.359375 0.193750000000001  7.228125 0.0625000000000036  7.06875 0.0625000000000036  L 0.693750000000005 0.0625000000000036  C 0.534375000000004 0.0625000000000036  0.403125000000006 0.193750000000005  0.403125000000006 0.353125000000002  L 0.403125000000006 1.696875  C 0.403125000000006 1.85625  0.534375000000008 1.9875  0.693750000000005 1.9875  L 4.52500000000001 1.9875  L 4.52500000000001 2  L 0.365625000000001 7.903125  C 0.331250000000001 7.953125  0.3125 8.009375  0.3125 8.071875  L 0.3125 9.209375  C 0.3125 9.36875  0.443750000000001 9.5  0.603124999999999 9.5  L 7.209375 9.5  C 7.36875 9.5  7.5 9.36875  7.5 9.209375  L 7.5 7.865625  Z " fill-rule="nonzero" fill="#ffffff" stroke="none" transform="matrix(1 0 0 1 212 955 )" />
  </g>
</svg>