<?xml version="1.0" encoding="utf-8"?>
<svg version="1.1" xmlns:xlink="http://www.w3.org/1999/xlink" width="20px" height="24px" xmlns="http://www.w3.org/2000/svg">
  <g transform="matrix(1 0 0 1 -206 -881 )">
    <path d="M 20 21.3625  C 20 21.23125  19.8875 21.125  19.75 21  L 0.25 21  C 0.1125 21.125  0 21.23125  0 21.3625  L 0 23.2625  C 0 23.39375  0.1125 23.5  0.25 23.5  L 19.75 23.5  C 19.8875 23.5  20 23.39375  20 23.2625  L 20 21.3625  Z M 4.25625 16.36875  C 5.790625 17.90625  7.83125 18.75  10 18.75  C 12.16875 18.75  14.20625 17.903125  15.74375 16.36875  C 17.28125 14.834375  18.125 12.79375  18.125 10.625  L 18.125 0.875  C 18.125 0.66875  17.95625 0.5  17.75 0.5  L 15.875 0.5  C 15.66875 0.5  15.5 0.66875  15.5 0.875  L 15.5 10.625  C 15.5 13.65625  13.03125 16.125  10 16.125  C 6.96875 16.125  4.5 13.65625  4.5 10.625  L 4.5 0.875  C 4.5 0.66875  4.33125 0.5  4.125 0.5  L 2.25 0.5  C 2.04375 0.5  1.875 0.66875  1.875 0.875  L 1.875 10.625  C 1.875 12.79375  2.721875 14.83125  4.25625 16.36875  Z " fill-rule="nonzero" fill="#000000" stroke="none" transform="matrix(1 0 0 1 206 881 )" />
  </g>
</svg>