<?xml version="1.0" encoding="utf-8"?>
<svg version="1.1" xmlns:xlink="http://www.w3.org/1999/xlink" width="24px" height="21px" xmlns="http://www.w3.org/2000/svg">
  <g transform="matrix(1 0 0 1 -388 -817 )">
    <path d="M 24 1  C 24 0.446875  23.553125 0  23 0  L 1 0  C 0.446875 0  0 0.446875  0 1  L 0 2  C 0 2.1375  0.1125 2.25  0.25 2.25  L 2.1375 2.25  L 2.909375 18.59375  C 2.959375 19.659375  3.840625 20.5  4.90625 20.5  L 19.09375 20.5  C 20.1625 20.5  21.040625 19.6625  21.090625 18.59375  L 21.8625 2.25  L 23.75 2.25  C 23.8875 2.25  24 2.1375  24 2  L 24 1  Z M 19.609375 2.25  L 18.853125 18  L 5.146875 18  L 4.390625 2.25  L 19.609375 2.25  Z " fill-rule="nonzero" fill="#ffffff" stroke="none" transform="matrix(1 0 0 1 388 817 )" />
  </g>
</svg>