<?xml version="1.0" encoding="utf-8"?>
<svg version="1.1" xmlns:xlink="http://www.w3.org/1999/xlink" width="20px" height="22px" xmlns="http://www.w3.org/2000/svg">
  <g transform="matrix(1 0 0 1 -113 -882 )">
    <path d="M 19.1875 0.25  C 19.1875 0.1125  19.075 0  18.9375 0  L 5.4375 0  C 5.3 0  5.1875 0.1125  5.1875 0.25  L 5.1875 2.25  C 5.1875 2.3875  5.3 2.5  5.4375 2.5  L 11.1 2.5  L 6.225 19.5  L 1.15625 19.5  C 1.01875 19.5  0.90625 19.6125  0.90625 19.75  L 0.90625 21.75  C 0.90625 21.8875  1.01875 22  1.15625 22  L 14.65625 22  C 14.79375 22  14.90625 21.8875  14.90625 21.75  L 14.90625 19.75  C 14.90625 19.6125  14.79375 19.5  14.65625 19.5  L 8.825 19.5  L 13.7 2.5  L 18.9375 2.5  C 19.075 2.5  19.1875 2.3875  19.1875 2.25  L 19.1875 0.25  Z " fill-rule="nonzero" fill="#ffffff" stroke="none" transform="matrix(1 0 0 1 113 882 )" />
  </g>
</svg>