<?xml version="1.0" encoding="utf-8"?>
<svg version="1.1" xmlns:xlink="http://www.w3.org/1999/xlink" width="26px" height="26px" xmlns="http://www.w3.org/2000/svg">
  <g transform="matrix(1 0 0 1 -295 -947 )">
    <path d="M 25.4125 13.178125  C 25.528125 13.0875  25.528125 12.9125  25.415625 12.821875  L 21.428125 9.675  C 21.28125 9.559375  21.0625 9.6625  21.0625 9.853125  L 21.0625 11.875  L 14.125 11.875  L 14.125 4.9375  L 16.15 4.9375  C 16.3375 4.9375  16.44375 4.71875  16.328125 4.571875  L 13.178125 0.584375  C 13.0875 0.46875  12.9125 0.46875  12.825 0.584375  L 9.675 4.571875  C 9.559375 4.71875  9.6625 4.9375  9.853125 4.9375  L 11.875 4.9375  L 11.875 11.875  L 4.9375 11.875  L 4.9375 9.85  C 4.9375 9.6625  4.71875 9.55625  4.571875 9.671875  L 0.584375 12.821875  C 0.46875 12.9125  0.46875 13.0875  0.584375 13.175  L 4.56875 16.325  C 4.715625 16.440625  4.934375 16.3375  4.934375 16.146875  L 4.934375 14.125  L 11.871875 14.125  L 11.871875 21.0625  L 9.846875 21.0625  C 9.659375 21.0625  9.553125 21.28125  9.66875 21.428125  L 12.81875 25.4125  C 12.909375 25.528125  13.084375 25.528125  13.171875 25.4125  L 16.321875 21.428125  C 16.4375 21.28125  16.334375 21.0625  16.14375 21.0625  L 14.125 21.0625  L 14.125 14.125  L 21.0625 14.125  L 21.0625 16.15  C 21.0625 16.3375  21.28125 16.44375  21.428125 16.328125  L 25.4125 13.178125  Z " fill-rule="nonzero" fill="#000000" stroke="none" transform="matrix(1 0 0 1 295 947 )" />
  </g>
</svg>