<?xml version="1.0" encoding="utf-8"?>
<svg version="1.1" xmlns:xlink="http://www.w3.org/1999/xlink" width="26px" height="27px" xmlns="http://www.w3.org/2000/svg">
  <g transform="matrix(1 0 0 1 -1040 -812 )">
    <path d="M 18.46875 18.74375  C 18.46875 20.128125  19.584375 21.259375  20.95 21.259375  C 22.315625 21.259375  23.43125 20.128125  23.43125 18.74375  C 23.43125 17.071875  20.95 14.34375  20.95 14.34375  C 20.95 14.34375  18.46875 17.071875  18.46875 18.74375  Z M 1.16875 11.88125  L 9.165625 19.88125  C 9.3875 20.103125  9.746875 20.103125  9.965625 19.88125  L 17.96875 11.88125  C 18.190625 11.659375  18.190625 11.3  17.96875 11.08125  L 9.96875 3.08125  C 9.95 3.0625  9.928125 3.04375  9.90625 3.028125  L 7.4625 0.584375000000001  C 7.353125 0.475000000000001  7.171875 0.475000000000001  7.0625 0.584375000000001  L 5.5625 2.084375  C 5.453125 2.19375  5.453125 2.375  5.5625 2.484375  L 7.6625 4.584375  L 1.16875 11.08125  C 0.946874999999999 11.303125  0.946874999999999 11.6625  1.16875 11.88125  Z M 3.98125 11.453125  L 9.56875 5.8625  L 15.159375 11.453125  L 3.98125 11.453125  Z M 25.5 23.75  C 25.5 23.6125  25.3875 23.5  25.25 23  L 0.75 23  C 0.6125 23.5  0.5 23.6125  0.5 23.75  L 0.5 26.25  C 0.5 26.3875  0.6125 26.5  0.75 26  L 25.25 26  C 25.3875 26.5  25.5 26.3875  25.5 26.25  L 25.5 23.75  Z " fill-rule="nonzero" fill="#000000" stroke="none" transform="matrix(1 0 0 1 1040 812 )" />
  </g>
</svg>