<?xml version="1.0" encoding="utf-8"?>
<svg version="1.1" xmlns:xlink="http://www.w3.org/1999/xlink" width="24px" height="24px" xmlns="http://www.w3.org/2000/svg">
  <g transform="matrix(1 0 0 1 -573 -948 )">
    <path d="M 8.625 0.625  C 8.625 0.4875  8.5125 0.375  8.375 0.375  L 6.625 0.375  C 6.4875 0.375  6.375 0.4875  6.375 0.625  L 6.375 2.375  C 6.375 2.5125  6.4875 2.625  6.625 2.625  L 8.375 2.625  C 8.5125 2.625  8.625 2.5125  8.625 2.375  L 8.625 0.625  Z M 7.25 22  C 7.25 21.8625  7.1375 21.75  7 21.75  L 5.25 21.75  C 5.1125 21.75  5 21.8625  5 22  L 5 23.75  C 5 23.8875  5.1125 24  5.25 24  L 7 24  C 7.1375 24  7.25 23.8875  7.25 23.75  L 7.25 22  Z M 23.625 15.625  C 23.625 15.4875  23.5125 15.375  23.375 15.375  L 21.625 15.375  C 21.4875 15.375  21.375 15.4875  21.375 15.625  L 21.375 17.375  C 21.375 17.5125  21.4875 17.625  21.625 17.625  L 23.375 17.625  C 23.5125 17.625  23.625 17.5125  23.625 17.375  L 23.625 15.625  Z M 2.25 7  C 2.25 6.8625  2.1375 6.75  2 6.75  L 0.25 6.75  C 0.1125 6.75  0 6.8625  0 7  L 0 8.75  C 0 8.8875  0.1125 9  0.25 9  L 2 9  C 2.1375 9  2.25 8.8875  2.25 8.75  L 2.25 7  Z M 2.25 12  C 2.25 11.8625  2.1375 11.75  2 11.75  L 0.25 11.75  C 0.1125 11.75  0 11.8625  0 12  L 0 13.75  C 0 13.8875  0.1125 14  0.25 14  L 2 14  C 2.1375 14  2.25 13.8875  2.25 13.75  L 2.25 12  Z M 2.25 17  C 2.25 16.8625  2.1375 16.75  2 16.75  L 0.25 16.75  C 0.1125 16.75  0 16.8625  0 17  L 0 18.75  C 0 18.8875  0.1125 19  0.25 19  L 2 19  C 2.1375 19  2.25 18.8875  2.25 18.75  L 2.25 17  Z M 2.25 22  C 2.25 21.8625  2.1375 21.75  2 21.75  L 0.25 21.75  C 0.1125 21.75  0 21.8625  0 22  L 0 23.75  C 0 23.8875  0.1125 24  0.25 24  L 2 24  C 2.1375 24  2.25 23.8875  2.25 23.75  L 2.25 22  Z M 12.25 22  C 12.25 21.8625  12.1375 21.75  12 21.75  L 10.25 21.75  C 10.1125 21.75  10 21.8625  10 22  L 10 23.75  C 10 23.8875  10.1125 24  10.25 24  L 12 24  C 12.1375 24  12.25 23.8875  12.25 23.75  L 12.25 22  Z M 17.25 22  C 17.25 21.8625  17.1375 21.75  17 21.75  L 15.25 21.75  C 15.1125 21.75  15 21.8625  15 22  L 15 23.75  C 15 23.8875  15.1125 24  15.25 24  L 17 24  C 17.1375 24  17.25 23.8875  17.25 23.75  L 17.25 22  Z M 21.375 7.5625  L 21.375 12.875  C 21.375 13.0125  21.4875 13.125  21.625 13.125  L 23.375 13.125  C 23.5125 13.125  23.625 13.0125  23.625 12.875  L 23.625 7.5625  C 23.625 3.59375  20.40625 0.375  16.4375 0.375  L 11.125 0.375  C 10.9875 0.375  10.875 0.4875  10.875 0.625  L 10.875 2.375  C 10.875 2.5125  10.9875 2.625  11.125 2.625  L 16.4375 2.625  C 19.165625 2.625  21.375 4.834375  21.375 7.5625  Z " fill-rule="nonzero" fill="#ffffff" stroke="none" transform="matrix(1 0 0 1 573 948 )" />
  </g>
</svg>