<?xml version="1.0" encoding="utf-8"?>
<svg version="1.1" xmlns:xlink="http://www.w3.org/1999/xlink" width="26px" height="26px" xmlns="http://www.w3.org/2000/svg">
  <g transform="matrix(1 0 0 1 -572 -880 )">
    <path d="M 17.15625 11.09375  C 17.15625 10.95625  17.04375 10.84375  16.90625 10.84375  L 13.21875 10.84375  L 13.21875 6.65625  C 13.21875 6.51875  13.10625 6.40625  12.96875 6.40625  L 11.09375 6.40625  C 10.95625 6.40625  10.84375 6.51875  10.84375 6.65625  L 10.84375 10.84375  L 7.15625 10.84375  C 7.01875 10.84375  6.90625 10.95625  6.90625 11.09375  L 6.90625 12.96875  C 6.90625 13.10625  7.01875 13.21875  7.15625 13.21875  L 10.84375 13.21875  L 10.84375 17.40625  C 10.84375 17.54375  10.95625 17.65625  11.09375 17.65625  L 12.96875 17.65625  C 13.10625 17.65625  13.21875 17.54375  13.21875 17.40625  L 13.21875 13.21875  L 16.90625 13.21875  C 17.04375 13.21875  17.15625 13.10625  17.15625 12.96875  L 17.15625 11.09375  Z M 25.78125 24.4375  C 25.86875 24.353125  25.86875 24.19375  25.78125 24.09375  L 21.21875 19.53125  C 25.034375 14.878125  24.76875 7.984375  20.40625 3.625  C 15.78125 -1.003125  8.26875 -1.003125  3.625 3.625  C -1.003125 8.26875  -1.003125 15.78125  3.625 20.40625  C 7.984375 24.76875  14.878125 25.034375  19.53125 21.21875  L 24.09375 25.78125  C 24.19375 25.86875  24.353125 25.86875  24.4375 25.78125  L 25.78125 24.4375  Z M 18.75 5.3125  C 22.459375 9.025  22.459375 15.0375  18.75 18.75  C 15.0375 22.459375  9.025 22.459375  5.3125 18.75  C 1.603125 15.0375  1.603125 9.025  5.3125 5.3125  C 9.025 1.603125  15.0375 1.603125  18.75 5.3125  Z " fill-rule="nonzero" fill="#ffffff" stroke="none" transform="matrix(1 0 0 1 572 880 )" />
  </g>
</svg>