<?xml version="1.0" encoding="utf-8"?>
<svg version="1.1" xmlns:xlink="http://www.w3.org/1999/xlink" width="22px" height="28px" xmlns="http://www.w3.org/2000/svg">
  <g transform="matrix(1 0 0 1 -481 -811 )">
    <path d="M 22 2.5  C 22 1.946875  21.553125 1.5  21 1.5  L 17.625 1.5  L 17.625 0.25  C 17.625 0.1125  17.5125 0  17.375 0  L 15.625 0  C 15.4875 0  15.375 0.1125  15.375 0.25  L 15.375 1.5  L 10.625 1.5  L 10.625 0.25  C 10.625 0.1125  10.5125 0  10.375 0  L 8.625 0  C 8.4875 0  8.375 0.1125  8.375 0.25  L 8.375 1.5  L 5 1.5  C 4.446875 1.5  4 1.946875  4 2.5  L 4 6.25  L 1 6.25  C 0.446875 6.25  0 6.696875  0 7.25  L 0 27  C 0 27.553125  0.446875 28  1 28  L 17 28  C 17.553125 28  18 27.553125  18 27  L 18 24  L 21 24  C 21.553125 24  22 23.553125  22 23  L 22 2.5  Z M 15.75 15.1875  L 15.75 25.75  L 2.25 25.75  L 2.25 8.5  L 9.0625 8.5  L 9.0625 13.9375  C 9.0625 14.628125  9.621875 15.1875  10.3125 15.1875  L 15.75 15.1875  Z M 15.75 13.18125  L 15.75 13.1875  L 11.0625 13.1875  L 11.0625 8.5  L 11.06875 8.5  L 15.75 13.18125  Z M 19.75 3.75  L 19.75 21.75  L 18 21.75  L 18 12.25  L 12 6.25  L 6.25 6.25  L 6.25 3.75  L 8.375 3.75  L 8.375 4.75  C 8.375 4.8875  8.4875 5  8.625 5  L 10.375 5  C 10.5125 5  10.625 4.8875  10.625 4.75  L 10.625 3.75  L 15.375 3.75  L 15.375 4.75  C 15.375 4.8875  15.4875 5  15.625 5  L 17.375 5  C 17.5125 5  17.625 4.8875  17.625 4.75  L 17.625 3.75  L 19.75 3.75  Z " fill-rule="nonzero" fill="#000000" stroke="none" transform="matrix(1 0 0 1 481 811 )" />
  </g>
</svg>