<?xml version="1.0" encoding="utf-8"?>
<svg version="1.1" xmlns:xlink="http://www.w3.org/1999/xlink" width="26px" height="24px" xmlns="http://www.w3.org/2000/svg">
  <g transform="matrix(1 0 0 1 -758 -813 )">
    <path d="M 5 2.9375  C 5 3.075  5.1125 3.1875  5.25 3.1875  L 20.75 3.1875  C 20.8875 3.1875  21 3.075  21 2.9375  L 21 1.1875  C 21 1.05  20.8875 0.9375  20.75 1  L 5.25 1  C 5.1125 0.9375  5 1.05  5 1.1875  L 5 2.9375  Z M 5.25 16  L 20.75 16  C 20.8875 16.4375  21 16.325  21 16.1875  L 21 14.4375  C 21 14.3  20.8875 14.1875  20.75 14  L 5.25 14  C 5.1125 14.1875  5 14.3  5 14.4375  L 5 16.1875  C 5 16.325  5.1125 16.4375  5.25 16  Z M 25.5 21.0625  C 25.5 20.925  25.3875 20.8125  25.25 20.8125  L 0.75 20.8125  C 0.6125 20.8125  0.5 20.925  0.5 21.0625  L 0.5 22.8125  C 0.5 22.95  0.6125 23.0625  0.75 23  L 25.25 23  C 25.3875 23.0625  25.5 22.95  25.5 22.8125  L 25.5 21.0625  Z M 25.5 7.8125  C 25.5 7.675  25.3875 7.5625  25.25 8  L 0.75 8  C 0.6125 7.5625  0.5 7.675  0.5 7.8125  L 0.5 9.5625  C 0.5 9.7  0.6125 9.8125  0.75 10  L 25.25 10  C 25.3875 9.8125  25.5 9.7  25.5 9.5625  L 25.5 7.8125  Z " fill-rule="nonzero" fill="#000000" stroke="none" transform="matrix(1 0 0 1 758 813 )" />
  </g>
</svg>