<?xml version="1.0" encoding="utf-8"?>
<svg version="1.1" xmlns:xlink="http://www.w3.org/1999/xlink" width="22px" height="26px" xmlns="http://www.w3.org/2000/svg">
  <g transform="matrix(1 0 0 1 -667 -947 )">
    <path d="M 21.5 23.375  C 21.5 23.2375  21.3875 23.125  21.25 23  L 0.75 23  C 0.6125 23.125  0.5 23.2375  0.5 23.375  L 0.5 25.25  C 0.5 25.3875  0.6125 25.5  0.75 25  L 21.25 25  C 21.3875 25.5  21.5 25.3875  21.5 25.25  L 21.5 23.375  Z M 21.5 0.75  C 21.5 0.6125  21.3875 0.5  21.25 1  L 0.75 1  C 0.6125 0.5  0.5 0.6125  0.5 0.75  L 0.5 2.625  C 0.5 2.7625  0.6125 2.875  0.75 3  L 21.25 3  C 21.3875 2.875  21.5 2.7625  21.5 2.625  L 21.5 0.75  Z M 12.125 8.8125  L 14.0875 8.8125  C 14.275 8.8125  14.38125 8.59375  14.265625 8.446875  L 11.115625 4.459375  C 11.025 4.34375  10.85 4.34375  10.7625 4.459375  L 7.6125 8.446875  C 7.496875 8.59375  7.6 8.8125  7.790625 8.8125  L 9.875 8.8125  L 9.875 17.1875  L 7.9125 17.1875  C 7.725 17.1875  7.61875 17.40625  7.734375 17.553125  L 10.884375 21.5375  C 10.975 21.653125  11.15 21.653125  11.2375 21.5375  L 14.3875 17.553125  C 14.503125 17.40625  14.4 17.1875  14.209375 17.1875  L 12.125 17.1875  L 12.125 8.8125  Z " fill-rule="nonzero" fill="#ffffff" stroke="none" transform="matrix(1 0 0 1 667 947 )" />
  </g>
</svg>