<?xml version="1.0" encoding="utf-8"?>
<svg version="1.1" xmlns:xlink="http://www.w3.org/1999/xlink" width="9px" height="22px" xmlns="http://www.w3.org/2000/svg">
  <g transform="matrix(1 0 0 1 -212 -949 )">
    <path d="M 8.196875 4.65625  L 4.696875 0.221875  C 4.596875 0.09375  4.403125 0.09375  4.303125 0.221875  L 0.803125 4.65625  C 0.671875 4.821875  0.790624999999999 5.0625  1 5.0625  L 3.375 5.0625  L 3.375 21.625  C 3.375 21.7625  3.4875 21.875  3.625 21.875  L 5.375 21.875  C 5.5125 21.875  5.625 21.7625  5.625 21.625  L 5.625 5.0625  L 8 5.0625  C 8.209375 5.0625  8.328125 4.81875  8.196875 4.65625  Z " fill-rule="nonzero" fill="#ffffff" stroke="none" transform="matrix(1 0 0 1 212 949 )" />
  </g>
</svg>