<?xml version="1.0" encoding="utf-8"?>
<svg version="1.1" xmlns:xlink="http://www.w3.org/1999/xlink" width="24px" height="24px" xmlns="http://www.w3.org/2000/svg">
  <g transform="matrix(1 0 0 1 -17 -1410 )">
    <path d="M 23.74375 3.190625  L 13.646875 3.190625  L 13.646875 21.09375  L 15.521875 21.09375  L 16.309375 23.325  L 19.634375 21.09375  L 23.74375 21.09375  L 23.74375 3.190625  Z M 21 18.721875  L 21.3875 18.721875  L 19.515625 18.721875  L 17.16875 20.296875  L 16.6125 18.721875  L 16 18.721875  L 16 5.634375  L 21 5.634375  L 21 18.721875  Z M 12.515625 11.309375  L 12.440625 11.215625  L 8.290625 11.215625  C 8.35625 9.8125  8.425 7.95625  8.496875 5.8125  L 12.5875 5.8125  L 12.584375 5.559375  C 12.584375 5.540625  12.578125 5.1  12.5125 4.65  C 12.446875 4.18125  12.30625 3.559375  11.85625 3.559375  L 4.99375 3.559375  C 5.13125 2.915625  5.484375 1.38125  5.9125 0.628124999999999  L 6.1125 0.278124999999999  L 5.709375 0.25625  C 5.684375 0.25625  5.096875 0.228124999999999  4.415625 0.587499999999999  C 3.3 1.18125  2.8 2.35  2.58125 3.225  C 2.00625 5.509375  1.1875 7.096875  0.840625000000001 7.775  C 0.737500000000001 7.975  0.675000000000001 8.09375  0.646875000000001 8.175  C 0.590625000000001 8.328125  0.621875000000001 8.48125  0.734375000000002 8.58125  C 1.0625 8.878125  1.928125 8.490625  1.9375 8.4875  C 1.95625 8.478125  1.978125 8.46875  2.00625 8.45625  C 2.440625 8.259375  3.728125 7.675  4.1875 5.815625  L 5.959375 5.815625  C 5.98125 6.821875  6.05625 10.140625  6.05 11.21875  L 1.64375 11.21875  L 1.578125 11.265625  C 0.856250000000001 11.79375  0.625000000000001 13.240625  0.615625000000001 13.303125  L 0.571875 13.590625  L 5.790625 13.590625  C 5.40625 16.0375  4.9625 17.134375  4.728125 17.571875  C 4.6125 17.790625  4.5 18.009375  4.39375 18.221875  C 3.728125 19.540625  3.0375 20.903125  0.446875 23.021875  C 0.334375000000001 23.109375  0.228125 23.271875  0.296875 23.45  C 0.371875 23.646875  0.5875 23.734375  1.065625 23.734375  C 1.234375 23.734375  1.434375 23.725  1.671875 23.703125  C 3.23125 23.565625  4.821875 23.140625  5.89375 20.965625  C 6.425 19.86875  6.884375 18.725  7.265625 17.5625  L 11.53125 22.5625  L 11.6875 22.1875  C 11.7125 22.128125  12.28125 20.740625  11.846875 19.190625  L 11.83125 19.134375  L 8.453125 15.290625  L 7.765625 15.809375  C 7.965625 14.99375  8.096875 14.25  8.15625 13.5875  L 13.115625 13.5875  L 13.115625 13.3375  C 13.115625 12.084375  12.5375 11.340625  12.515625 11.309375  Z " fill-rule="nonzero" fill="#000000" stroke="none" transform="matrix(1 0 0 1 17 1410 )" />
  </g>
</svg>