<?xml version="1.0" encoding="utf-8"?>
<svg version="1.1" xmlns:xlink="http://www.w3.org/1999/xlink" width="28px" height="22px" xmlns="http://www.w3.org/2000/svg">
  <g transform="matrix(1 0 0 1 -15 -1281 )">
    <path d="M 14.715625 16.63125  C 15.6125 14.6125  14.490625 12.5375  12.290625 11.96875  C 10.1625 11.415625  7.759375 12.475  6.834375 14.35  C 5.89375 16.2625  6.803125 18.384375  8.953125 19.078125  C 11.178125 19.796875  13.803125 18.696875  14.715625 16.63125  Z M 10.165625 15.059375  C 10.865625 15.35625  11.090625 16.153125  10.665625 16.85  C 10.234375 17.540625  9.30625 17.840625  8.609375 17.525  C 7.921875 17.2125  7.71875 16.409375  8.153125 15.7375  C 8.58125 15.06875  9.475 14.76875  10.165625 15.059375  Z M 11.86875 14.35  C 12.140625 14.45  12.2375 14.753125  12.0875 15.021875  C 11.93125 15.290625  11.584375 15.41875  11.315625 15.30625  C 11.05 15.196875  10.965625 14.896875  11.115625 14.634375  C 11.271875 14.371875  11.603125 14.246875  11.86875 14.35  Z M 21.971875 7.734375  C 21.81875 8.20625  22.071875 8.70625  22.540625 8.859375  C 23.009375 9.009375  23.509375 8.753125  23.6625 8.2875  C 24.03125 7.14375  23.8 5.8375  22.9375 4.88125  C 22.075 3.925  20.8 3.559375  19.625 3.809375  C 19.14375 3.9125  18.8375 4.384375  18.940625 4.865625  C 19.04375 5.34375  19.515625 5.653125  19.996875 5.546875  C 20.571875 5.425  21.19375 5.603125  21.61875 6.06875  C 22.040625 6.5375  22.15625 7.175  21.971875 7.734375  Z M 27.15625 9.41875  C 27.909375 7.0625  27.434375 4.384375  25.659375 2.421875  C 23.8875 0.45625  21.271875 -0.29375  18.85625 0.21875  C 18.296875 0.3375  17.940625 0.8875  18.0625 1.446875  C 18.18125 2.00625  18.73125 2.3625  19.290625 2.24375  C 21.009375 1.878125  22.865625 2.4125  24.128125 3.809375  C 25.3875 5.20625  25.728125 7.1125  25.190625 8.78125  C 25.015625 9.325  25.3125 9.90625  25.85625 10.084375  C 26.4 10.259375  26.98125 9.9625  27.15625 9.421875  L 27.15625 9.41875  Z M 24.05625 14.28125  C 24.05625 12.234375  22.33125 11.075  20.78125 10.59375  C 20.4 10.48125  20.140625 10.403125  20.340625 9.903125  C 20.771875 8.81875  20.815625 7.88125  20.35 7.215625  C 19.475 5.9625  17.075 6.03125  14.325 7.18125  C 14.325 7.18125  13.4625 7.559375  13.68125 6.875  C 14.103125 5.515625  14.040625 4.378125  13.38125 3.71875  C 11.890625 2.225  7.92499999999999 3.775  4.52187499999999 7.175  C 1.978125 9.721875  0.5 12.421875  0.5 14.75625  C 0.5 19.221875  6.225 21.9375  11.828125 21.9375  C 19.171875 21.9375  24.05625 17.671875  24.05625 14.28125  Z M 19.4125 14.221875  C 19.7 17.15625  16.3125 19.89375  11.84375 20.3375  C 7.375 20.778125  3.515625 18.759375  3.225 15.821875  C 2.934375 12.8875  6.325 10.15  10.79375 9.709375  C 15.2625 9.265625  19.121875 11.2875  19.4125 14.221875  Z " fill-rule="nonzero" fill="#ffffff" stroke="none" transform="matrix(1 0 0 1 15 1281 )" />
  </g>
</svg>