<?xml version="1.0" encoding="utf-8"?>
<svg version="1.1" xmlns:xlink="http://www.w3.org/1999/xlink" width="29px" height="18px" xmlns="http://www.w3.org/2000/svg">
  <g transform="matrix(1 0 0 1 -15 -1345 )">
    <path d="M 28.01875 7.715625  C 27.178125 7.709375  26.328125 7.709375  25.484375 7.7  C 25.475 6.85625  25.471875 6.00625  25.46875 5.159375  L 22.94375 5.159375  C 22.934375 6.003125  22.928125 6.85  22.921875 7.7  C 22.071875 7.703125  21.228125 7.709375  20.384375 7.71875  L 20.384375 10.246875  C 21.228125 10.25625  22.078125 10.2625  22.921875 10.271875  C 22.93125 11.115625  22.93125 11.9625  22.9375 12.80625  L 25.465625 12.80625  C 25.46875 11.9625  25.475 11.115625  25.48125 10.265625  C 26.33125 10.25625  27.175 10.253125  28.01875 10.24375  L 28.01875 7.715625  Z M 17.41875 7.721875  C 14.584375 7.7  11.753125 7.703125  8.921875 7.7125  C 8.91875 8.721875  8.921875 9.734375  8.925 10.74375  C 10.61875 10.8  12.315625 10.775  14.009375 10.8  C 13.2625 14.559375  8.153125 15.778125  5.45 13.321875  C 2.66875 11.16875  2.8 6.446875  5.690625 4.446875  C 7.7125 2.834375  10.584375 3.23125  12.60625 4.628125  C 13.4 3.89375  14.14375 3.10625  14.859375 2.29375  C 13.178125 0.953124999999999  11.115625 -0.00312500000000071  8.921875 0.0968749999999989  C 4.340625 -0.0562500000000012  0.13125 3.95625  0.0562500000000004 8.540625  C -0.2375 12.2875  2.225 15.959375  5.7 17.284375  C 9.1625 18.61875  13.603125 17.709375  15.815625 14.596875  C 17.275 12.63125  17.590625 10.1  17.41875 7.721875  Z " fill-rule="nonzero" fill="#ffffff" stroke="none" transform="matrix(1 0 0 1 15 1345 )" />
  </g>
</svg>