<?xml version="1.0" encoding="utf-8"?>
<svg version="1.1" xmlns:xlink="http://www.w3.org/1999/xlink" width="28px" height="26px" xmlns="http://www.w3.org/2000/svg">
  <g transform="matrix(1 0 0 1 -202 -1409 )">
    <path d="M 7 14.75  C 7 15.7164983122039  7.78350168779611 16.5  8.75 16.5  C 9.71649831220389 16.5  10.5 15.7164983122039  10.5 14.75  C 10.5 13.7835016877961  9.71649831220389 13  8.75 13  C 7.78350168779611 13  7 13.7835016877961  7 14.75  Z M 19.04375 18.6625  C 18.690625 18.2125  18.034375 18.134375  17.584375 18.490625  C 16.8625 19.059375  15.43125 19.671875  14 19.671875  C 12.56875 19.671875  11.1375 19.059375  10.415625 18.490625  C 9.965625 18.1375  9.3125 18.2125  8.95625 18.6625  C 8.6 19.1125  8.678125 19.765625  9.128125 20.121875  C 10.384375 21.1125  12.296875 21.75  14 21.75  C 15.703125 21.75  17.615625 21.1125  18.871875 20.121875  C 19.321875 19.765625  19.4 19.1125  19.04375 18.6625  Z M 25.9125 14.453125  C 27.140625 13.909375  28 12.68125  28 11.25  C 28 9.315625  26.434375 7.75  24.5 7.75  C 23.184375 7.75  22.040625 8.475  21.440625 9.55  C 19.640625 8.565625  17.45 7.93125  15.0625 7.784375  L 17.153125 3.09375  L 21.15 4.246875  C 21.509375 5.265625  22.48125 6  23.625 6  C 25.075 6  26.25 4.825  26.25 3.375  C 26.25 1.925  25.075 0.75  23.625 0.75  C 22.625 0.75  21.75625 1.309375  21.3125 2.13125  L 16.859375 0.84375  C 16.359375 0.7  15.834375 0.94375  15.621875 1.41875  L 12.784375 7.790625  C 10.45625 7.953125  8.31875 8.584375  6.559375 9.546875  C 5.9625 8.475  4.815625 7.75  3.5 7.75  C 1.565625 7.75  0 9.315625  0 11.25  C 0 12.68125  0.859375 13.909375  2.0875 14.453125  C 1.865625 15.109375  1.75 15.796875  1.75 16.5  C 1.75 21.33125  7.234375 25.25  14 25.25  C 20.765625 25.25  26.25 21.33125  26.25 16.5  C 26.25 15.79375  26.13125 15.109375  25.9125 14.453125  Z M 22.640625 3.375  C 22.640625 2.83125  23.08125 2.390625  23.625 2.390625  C 24.16875 2.390625  24.609375 2.83125  24.609375 3.375  C 24.609375 3.91875  24.16875 4.359375  23.625 4.359375  C 23.08125 4.359375  22.640625 3.91875  22.640625 3.375  Z M 2.846875 12.875  C 2.20625 12.615625  1.75 11.984375  1.75 11.25  C 1.75 10.284375  2.534375 9.5  3.5 9.5  C 4.196875 9.5  4.8 9.909375  5.08125 10.503125  C 4.165625 11.196875  3.409375 11.996875  2.846875 12.875  Z M 24.171875 16.5  C 24.171875 20.184375  19.61875 23.171875  14 23.171875  C 8.38125 23.171875  3.828125 20.184375  3.828125 16.5  C 3.828125 12.815625  8.38125 9.828125  14 9.828125  C 19.61875 9.828125  24.171875 12.815625  24.171875 16.5  Z M 26.246875 11.25  C 26.25 11.984375  25.79375 12.615625  25.15 12.875  C 24.590625 11.996875  23.83125 11.196875  22.915625 10.503125  C 23.196875 9.9125  23.8 9.5  24.496875 9.5  C 25.4625 9.5  26.246875 10.284375  26.246875 11.25  Z M 17.5 14.75  C 17.5 15.7164983122039  18.2835016877961 16.5  19.25 16.5  C 20.2164983122039 16.5  21 15.7164983122039  21 14.75  C 21 13.7835016877961  20.2164983122039 13  19.25 13  C 18.2835016877961 13  17.5 13.7835016877961  17.5 14.75  Z " fill-rule="nonzero" fill="#ffffff" stroke="none" transform="matrix(1 0 0 1 202 1409 )" />
  </g>
</svg>