<?xml version="1.0" encoding="utf-8"?>
<svg version="1.1" xmlns:xlink="http://www.w3.org/1999/xlink" width="24px" height="26px" xmlns="http://www.w3.org/2000/svg">
  <g transform="matrix(1 0 0 1 -388 -1341 )">
    <path d="M 23 6.5  L 18.175 3.5625  L 18.1875 3.55625  L 18.19375 3.55625  L 12 0  L 5.809375 3.55625  L 5.803125 3.55625  L 5.825 3.565625  L 1 6.5  L 1 19.5  L 12 26  L 23 19.5  L 23 6.5  Z M 11.084375 13.56875  L 11.084375 23.3625  L 6.6125 20.78125  L 6.6125 16.41875  L 2.5625 14.11875  L 2.5625 8.653125  L 11.084375 13.56875  Z M 12.00625 11.984375  L 3.44375 7.046875  L 7.653125 4.615625  L 11.99375 7.10625  L 16.340625 4.609375  L 20.565625 7.046875  L 12.00625 11.984375  Z M 21.4375 8.659375  L 21.4375 14.134375  L 17.4125 16.41875  L 17.4125 20.765625  L 12.915625 23.359375  L 12.915625 13.575  L 21.4375 8.659375  Z " fill-rule="nonzero" fill="#ffffff" stroke="none" transform="matrix(1 0 0 1 388 1341 )" />
  </g>
</svg>