<?xml version="1.0" encoding="utf-8"?>
<svg version="1.1" xmlns:xlink="http://www.w3.org/1999/xlink" width="28px" height="22px" xmlns="http://www.w3.org/2000/svg">
  <g transform="matrix(1 0 0 1 -294 -1281 )">
    <path d="M 28 11  L 28 10.9125  C 28 10.84375  28 10.765625  27.996875 10.675  C 27.99375 10.421875  27.9875 10.1375  27.98125 9.834375  C 27.95625 8.9625  27.9125 8.09375  27.84375 7.275  C 27.75 6.146875  27.6125 5.20625  27.425 4.5  C 27.025 3.003125  25.85 1.825  24.353125 1.421875  C 23.46875 1.184375  21.7375 1.0375  19.3 0.946874999999999  C 18.140625 0.903124999999998  16.9 0.874999999999998  15.659375 0.859374999999998  C 15.225 0.853124999999998  14.821875 0.849999999999998  14.459375 0.846874999999998  L 13.540625 0.846874999999998  C 13.178125 0.849999999999998  12.775 0.853124999999998  12.340625 0.859374999999998  C 11.1 0.874999999999998  9.859375 0.903124999999998  8.7 0.946874999999999  C 6.2625 1.040625  4.528125 1.1875  3.646875 1.421875  C 2.153125 1.821875  0.975000000000001 3  0.575000000000002 4.5  C 0.384375000000002 5.20625  0.250000000000001 6.146875  0.156250000000001 7.275  C 0.0875000000000012 8.09375  0.0437500000000015 8.9625  0.0187500000000012 9.834375  C 0.00937500000000124 10.1375  0.00625000000000098 10.421875  0.00312500000000115 10.675  C 0.00312500000000115 10.765625  0 10.84375  0 10.9125  L 0 11.0875  C 0 11.15625  0 11.234375  0.00312500000000115 11.325  C 0.00625000000000098 11.578125  0.0125000000000011 11.8625  0.0187500000000012 12.165625  C 0.0437500000000011 13.0375  0.0875000000000012 13.90625  0.156250000000001 14.725  C 0.250000000000001 15.853125  0.387500000000002 16.79375  0.575000000000002 17.5  C 0.975000000000001 18.996875  2.15 20.178125  3.646875 20.578125  C 4.528125 20.815625  6.2625 20.9625  8.7 21.053125  C 9.859375 21.096875  11.1 21.125  12.340625 21.140625  C 12.775 21.146875  13.178125 21.15  13.540625 21.153125  L 14.459375 21.153125  C 14.821875 21.15  15.225 21.146875  15.659375 21.140625  C 16.9 21.125  18.140625 21.096875  19.3 21.053125  C 21.7375 20.959375  23.471875 20.8125  24.353125 20.578125  C 25.85 20.178125  27.025 19  27.425 17.5  C 27.615625 16.79375  27.75 15.853125  27.84375 14.725  C 27.9125 13.90625  27.95625 13.0375  27.98125 12.165625  C 27.990625 11.8625  27.99375 11.578125  27.996875 11.325  C 27.996875 11.234375  28 11.15625  28 11.0875  L 28 11  Z M 25.75 10.925  L 25.75 11.075  C 25.75 11.140625  25.75 11.2125  25.746875 11.296875  C 25.74375 11.540625  25.7375 11.809375  25.73125 12.1  C 25.709375 12.93125  25.665625 13.7625  25.6 14.534375  C 25.515625 15.540625  25.396875 16.365625  25.25 16.91875  C 25.05625 17.640625  24.4875 18.2125  23.76875 18.403125  C 23.1125 18.578125  21.459375 18.71875  19.2125 18.803125  C 18.075 18.846875  16.85 18.875  15.628125 18.890625  C 15.2 18.896875  14.803125 18.9  14.446875 18.9  L 13.553125 18.9  C 13.196875 18.896875  12.8 18.89375  12.371875 18.890625  C 11.15 18.875  9.928125 18.846875  8.7875 18.803125  C 6.540625 18.715625  4.884375 18.578125  4.23125 18.403125  C 3.5125 18.209375  2.94375 17.640625  2.75 16.91875  C 2.603125 16.365625  2.484375 15.540625  2.4 14.534375  C 2.334375 13.7625  2.29375 12.93125  2.26875 12.1  C 2.259375 11.809375  2.25625 11.5375  2.253125 11.296875  C 2.253125 11.2125  2.25 11.1375  2.25 11.075  L 2.25 10.98125  L 2.25 10.925  C 2.25 10.859375  2.25 10.7875  2.253125 10.703125  C 2.25625 10.459375  2.2625 10.190625  2.26875 9.9  C 2.290625 9.06875  2.334375 8.2375  2.4 7.465625  C 2.484375 6.459375  2.603125 5.634375  2.75 5.08125  C 2.94375 4.359375  3.5125 3.7875  4.23125 3.596875  C 4.8875 3.421875  6.540625 3.28125  8.7875 3.196875  C 9.925 3.153125  11.15 3.125  12.371875 3.109375  C 12.8 3.103125  13.196875 3.1  13.553125 3.1  L 14.446875 3.1  C 14.803125 3.103125  15.2 3.10625  15.628125 3.109375  C 16.85 3.125  18.071875 3.153125  19.2125 3.196875  C 21.459375 3.284375  23.115625 3.421875  23.76875 3.596875  C 24.4875 3.790625  25.05625 4.359375  25.25 5.08125  C 25.396875 5.634375  25.515625 6.459375  25.6 7.465625  C 25.665625 8.2375  25.70625 9.06875  25.73125 9.9  C 25.740625 10.190625  25.74375 10.4625  25.746875 10.703125  C 25.746875 10.7875  25.75 10.8625  25.75 10.925  Z M 11.21875 6.8125  L 11.21875 15.1875  L 18.46875 10.96875  L 11.21875 6.8125  Z " fill-rule="nonzero" fill="#ffffff" stroke="none" transform="matrix(1 0 0 1 294 1281 )" />
  </g>
</svg>