<?xml version="1.0" encoding="utf-8"?>
<svg version="1.1" xmlns:xlink="http://www.w3.org/1999/xlink" width="26px" height="26px" xmlns="http://www.w3.org/2000/svg">
  <g transform="matrix(1 0 0 1 -295 -1341 )">
    <path d="M 25.509375 9.18125  C 25.5 9.134375  25.496875 9.0875  25.490625 9.040625  L 25.48125 8.99375  C 25.475 8.9625  25.471875 8.934375  25.4625 8.903125  C 25.45625 8.884375  25.45 8.86875  25.446875 8.85  C 25.4375 8.825  25.43125 8.796875  25.41875 8.771875  C 25.4125 8.753125  25.403125 8.7375  25.39375 8.71875  C 25.38125 8.69375  25.36875 8.671875  25.35625 8.646875  C 25.346875 8.63125  25.3375 8.6125  25.325 8.596875  C 25.3 8.559375  25.271875 8.521875  25.24375 8.484375  C 25.228125 8.465625  25.209375 8.44375  25.190625 8.425  C 25.178125 8.409375  25.1625 8.396875  25.146875 8.384375  C 25.128125 8.365625  25.10625 8.35  25.0875 8.334375  C 25.071875 8.321875  25.05625 8.309375  25.0375 8.296875  C 25.03125 8.29375  25.025 8.2875  25.01875 8.284375  L 13.596875 0.68125  C 13.2375 0.440625  12.765625 0.440625  12.40625 0.68125  L 0.978125 8.290625  C 0.971875 8.29375  0.965625 8.3  0.959375 8.303125  C 0.94375 8.315625  0.928125 8.328125  0.909375 8.340625  C 0.8875 8.35625  0.86875 8.375  0.85 8.390625  C 0.834375 8.403125  0.821875 8.41875  0.80625 8.43125  C 0.7875 8.45  0.76875 8.46875  0.753125 8.490625  C 0.721875 8.525  0.696875 8.5625  0.671875 8.603125  C 0.6625 8.61875  0.65 8.634375  0.640625 8.653125  C 0.628125 8.675  0.615625 8.7  0.603125 8.725  C 0.59375 8.740625  0.5875 8.759375  0.578125 8.778125  C 0.56875 8.803125  0.559375 8.83125  0.55 8.85625  C 0.54375 8.875  0.5375 8.890625  0.534375 8.909375  C 0.528125 8.9375  0.521875 8.96875  0.515625 9  L 0.50625 9.046875  C 0.5 9.09375  0.496875 9.140625  0.496875 9.1875  L 0.496875 16.796875  C 0.496875 16.84375  0.5 16.890625  0.50625 16.9375  L 0.515625 16.984375  C 0.521875 17.015625  0.528125 17.04375  0.534375 17.075  C 0.540625 17.09375  0.54375 17.109375  0.55 17.128125  C 0.559375 17.15625  0.56875 17.18125  0.578125 17.20625  C 0.584375 17.225  0.59375 17.240625  0.603125 17.259375  C 0.615625 17.284375  0.625 17.30625  0.640625 17.33125  C 0.65 17.346875  0.659375 17.365625  0.671875 17.38125  C 0.6875 17.403125  0.7 17.425  0.71875 17.446875  L 0.75625 17.49375  C 0.771875 17.5125  0.790625 17.534375  0.809375 17.553125  C 0.821875 17.56875  0.8375 17.58125  0.853125 17.59375  C 0.871875 17.6125  0.89375 17.628125  0.912500000000001 17.64375  C 0.928125000000001 17.65625  0.943750000000001 17.66875  0.9625 17.68125  C 0.968750000000001 17.684375  0.975000000000001 17.690625  0.98125 17.69375  L 12.40625 25.303125  C 12.58125 25.421875  12.790625 25.484375  13.003125 25.484375  C 13.209375 25.484375  13.41875 25.425  13.6 25.303125  L 25.025 17.69375  C 25.03125 17.690625  25.0375 17.684375  25.04375 17.68125  C 25.059375 17.66875  25.075 17.65625  25.09375 17.64375  C 25.115625 17.628125  25.134375 17.609375  25.153125 17.59375  C 25.16875 17.58125  25.18125 17.565625  25.196875 17.553125  C 25.215625 17.534375  25.234375 17.515625  25.25 17.49375  L 25.2875 17.446875  L 25.334375 17.38125  C 25.34375 17.365625  25.35625 17.35  25.365625 17.33125  C 25.378125 17.30625  25.390625 17.284375  25.403125 17.259375  C 25.4125 17.24375  25.41875 17.225  25.428125 17.20625  C 25.4375 17.18125  25.446875 17.153125  25.45625 17.128125  C 25.4625 17.1125  25.46875 17.09375  25.471875 17.075  C 25.48125 17.046875  25.484375 17.015625  25.490625 16.984375  L 25.5 16.9375  C 25.50625 16.890625  25.509375 16.84375  25.509375 16.796875  L 25.509375 9.18125  Z M 14.078125 3.578125  L 14.075 3.578125  L 22.49375 9.184375  L 18.734375 11.696875  L 14.078125 8.584375  L 14.078125 3.578125  Z M 3.509375 9.184375  L 11.925 3.578125  L 11.925 8.584375  L 7.26875 11.696875  L 3.509375 9.184375  Z M 2.646875 14.784375  L 2.646875 11.190625  L 5.334375 12.9875  L 2.646875 14.784375  Z M 11.925 17.3875  L 11.925 22.39375  L 3.509375 16.7875  L 7.26875 14.275  L 11.925 17.3875  Z M 16.8 12.984375  L 13 15.525  L 9.2 12.9875  L 13 10.446875  L 16.8 12.984375  Z M 22.490625 16.7875  L 14.075 22.39375  L 14.075 17.3875  L 18.73125 14.275  L 22.490625 16.7875  Z M 23.353125 11.1875  L 23.353125 14.78125  L 20.665625 12.984375  L 23.353125 11.1875  Z " fill-rule="nonzero" fill="#000000" stroke="none" transform="matrix(1 0 0 1 295 1341 )" />
  </g>
</svg>