<?xml version="1.0" encoding="utf-8"?>
<svg version="1.1" xmlns:xlink="http://www.w3.org/1999/xlink" width="28px" height="28px" xmlns="http://www.w3.org/2000/svg">
  <g transform="matrix(1 0 0 1 -945 -1210 )">
    <path d="M 28 14  C 28 6.26875  21.73125 0  14 0  C 6.26875 0  0 6.26875  0 14  C 0 21.73125  6.26875 28  14 28  C 21.73125 28  28 21.73125  28 14  Z M 6.31875 8.653125  C 6.31875 7.8  7.009375 7.109375  7.865625 7.109375  C 8.71875 7.109375  9.4125 7.8  9.4125 8.653125  C 9.4125 9.50625  8.721875 10.196875  7.865625 10.196875  C 7.009375 10.196875  6.31875 9.50625  6.31875 8.653125  Z M 9.25625 12.934375  C 10 13.68125  9.903125 14.709375  9.465625 16.0625  C 9.040625 17.384375  9.146875 16.896875  7.453125 20.578125  L 5 19.046875  C 5 19.046875  7.740625 16.553125  8.3 15.415625  C 8.9 14.215625  7.640625 13.575  7.640625 13.575  L 5.759375 12.403125  L 6.78125 10.834375  C 8.2 11.8875  8.303125 11.978125  9.25625 12.934375  Z M 22.696875 10.415625  C 22.696875 10.415625  23.29375 13.284375  22.815625 17.78125  C 22.3375 22.275  16.490625 20.603125  16.490625 20.603125  L 16.809375 19.31875  L 18.1625 19.609375  C 20.6625 19.765625  20.421875 17.58125  20.421875 17.58125  L 20.421875 11.21875  C 20.440625 8.803125  18.153125 8.55  14.040625 10.021875  L 14.996875 10.28125  C 14.91875 10.5625  14.60625 11.00625  14.209375 11.4875  L 19.709375 11.4875  L 19.709375 12.6  L 16.6125 12.6  L 16.6125 13.990625  L 19.696875 13.990625  L 19.696875 15.10625  L 16.6125 15.10625  L 16.6125 17.4375  C 17.078125 17.2875  17.50625 17.078125  17.878125 16.796875  L 17.60625 15.78125  L 19.059375 15.33125  L 20.271875 18.296875  L 18.48125 19.04375  L 18.1625 17.8625  C 17.3625 18.471875  15.7 19.3625  12.79375 19.28125  C 9.69374999999999 19.3625  10.490625 15.78125  10.490625 15.78125  L 10.56875 15.740625  L 12.75 15.740625  C 12.734375 16.2  12.54375 16.95  12.803125 17.359375  C 13.015625 17.696875  13.559375 17.753125  13.90625 17.76875  C 13.946875 17.771875  13.9875 17.771875  14.028125 17.771875  L 14.028125 15.10625  L 10.871875 15.10625  L 10.871875 13.990625  L 14.028125 13.990625  L 14.028125 12.6  L 13.21875 12.6  C 12.509375 13.353125  11.859375 13.978125  11.859375 13.978125  L 10.903125 13.14375  C 11.58125 12.428125  12.25625 11.296875  12.678125 10.54375  C 12.3375 10.68125  11.990625 10.83125  11.628125 10.9875  C 11.278125 11.434375  10.871875 11.89375  10.41875 12.346875  C 10.434375 12.371875  8.85625 11.459375  8.85625 11.459375  C 10.4875 10.071875  11.4 7.08750000000001  11.4 7.08750000000001  L 13.665625 7.725  C 13.665625 7.725  13.48125 8.1625  13.090625 8.83750000000001  C 22.1625 6.26562500000001  22.696875 10.415625  22.696875 10.415625  Z " fill-rule="nonzero" fill="#000000" stroke="none" transform="matrix(1 0 0 1 945 1210 )" />
  </g>
</svg>