<?xml version="1.0" encoding="utf-8"?>
<svg version="1.1" xmlns:xlink="http://www.w3.org/1999/xlink" width="26px" height="26px" xmlns="http://www.w3.org/2000/svg">
  <g transform="matrix(1 0 0 1 -1040 -1279 )">
    <path d="M 25 2.509375  C 25.5 1.4  24.6 0.5  23.490625 1  L 2.509375 1  C 1.4 0.5  0.5 1.4  1 2.509375  L 1 23.490625  C 0.5 24.6  1.4 25.5  2.509375 25  L 23.490625 25  C 24.6 25.5  25.5 24.6  25 23.490625  L 25 2.509375  Z M 23.5 2.509375  C 23.496875 16.503125  23.49375 23.5  23.490625 23.5  C 9.496875 23.496875  2.5 23.49375  2.5 23.490625  C 2.503125 9.496875  2.50625 2.5  2.509375 2.5  C 16.503125 2.503125  23.5 2.50625  23.5 2.509375  Z M 4.20625 21.803125  L 4.20625 9.871875  L 8 9.871875  L 8 21.803125  L 4.20625 21.803125  Z M 3.9125 6.090625  C 3.909375 7.278125  4.871875 8.240625  6.0625 8.240625  C 7.246875 8.240625  8.2125 7.278125  8.2125 6.090625  C 8.2125 4.90625  7.25 3.940625  6.0625 3.940625  C 4.875 3.940625  3.9125 4.903125  3.9125 6.090625  Z M 13.946875 21.803125  L 13.946875 15.9  C 13.946875 14.34375  14.24375 12.8375  16.171875 12.8375  C 18.071875 12.8375  18.1 14.615625  18.1 16  L 18.1 21.803125  L 21.80625 21.803125  L 21.80625 15.259375  C 21.80625 12.046875  21.1125 9.575  17.359375 9.575  C 15.55625 9.575  14.346875 10.565625  13.85 11.503125  L 13.8 11.503125  L 13.8 9.871875  L 10.240625 9.871875  L 10.240625 21.803125  L 13.946875 21.803125  Z " fill-rule="nonzero" fill="#ffffff" stroke="none" transform="matrix(1 0 0 1 1040 1279 )" />
  </g>
</svg>