<?xml version="1.0" encoding="utf-8"?>
<svg version="1.1" xmlns:xlink="http://www.w3.org/1999/xlink" width="29px" height="28px" xmlns="http://www.w3.org/2000/svg">
  <g transform="matrix(1 0 0 1 -1038 -1340 )">
    <path d="M 18.2375 7.80625  C 18.83125 8.4  19.79375 8.4  20.384375 7.80625  C 20.978125 7.215625  20.978125 6.253125  20.384375 5.6625  L 18.2 3.478125  L 18.203125 3.48125  C 17.625 2.903125  16.63125 1.909375  15.225 0.50625  C 14.5625 -0.140625  13.490625 -0.134375  12.834375 0.521875  L 0.528125 12.81875  C -0.134375 13.478125  -0.134375 14.546875  0.528125 15.20625  L 12.83125 27.5  C 13.49375 28.159375  14.5625 28.159375  15.221875 27.5  L 20.38125 22.34375  C 20.975 21.753125  20.975 20.790625  20.38125 20.2  C 19.7875 19.609375  18.828125 19.609375  18.234375 20.2  L 14.328125 24.1125  C 14.165625 24.275  13.9125 24.275  13.75 24.1125  L 3.921875 14.29375  C 3.759375 14.13125  3.759375 13.878125  3.921875 13.715625  L 13.746875 3.896875  C 13.759375 3.884375  13.775 3.875  13.7875 3.8625  C 13.95 3.734375  14.175 3.746875  14.325 3.896875  L 18.2375 7.80625  Z M 10.76875 14.075  C 10.76875 15.9078950135009  12.2560040966558 17.39375  14.090625 17.39375  C 15.9252459033442 17.39375  17.4125 15.9078950135009  17.4125 14.075  C 17.4125 12.2421049864991  15.9252459033442 10.75625  14.090625 10.75625  C 12.2560040966558 10.75625  10.76875 12.2421049864991  10.76875 14.075  Z M 27.528125 15.25625  C 28.1875 14.596875  28.1875 13.53125  27.525 12.86875  L 23.684375 9.046875  C 23.090625 8.45625  22.128125 8.45625  21.5375 9.05  C 20.94375 9.640625  20.94375 10.603125  21.5375 11.19375  L 24.13125 13.784375  C 24.29375 13.946875  24.29375 14.2  24.13125 14.3625  L 21.575 16.915625  C 20.98125 17.50625  20.98125 18.46875  21.575 19.059375  C 22.16875 19.65  23.128125 19.65  23.721875 19.059375  L 27.528125 15.25625  Z " fill-rule="nonzero" fill="#ffffff" stroke="none" transform="matrix(1 0 0 1 1038 1340 )" />
  </g>
</svg>