<?xml version="1.0" encoding="utf-8"?>
<svg version="1.1" xmlns:xlink="http://www.w3.org/1999/xlink" width="24px" height="26px" xmlns="http://www.w3.org/2000/svg">
  <g transform="matrix(1 0 0 1 -1041 -1211 )">
    <path d="M 23.459375 0  L 0.53125 0  L 2.59375 23.33125  L 11.99375 26  L 21.35625 23.33125  L 23.459375 0  Z M 21.428125 2  L 19.621875 21.89375  L 11.99375 24.06875  L 4.33125 21.89375  L 2.559375 2  L 21.428125 2  Z M 11.96875 4.78125  L 4.78125 4.78125  L 4.834375 5.540625  L 5.54375 13.4625  L 11.996875 13.4625  L 11.996875 13.459375  L 15.525 13.459375  L 15.16875 17.1625  L 11.96875 18.028125  L 11.96875 18.034375  L 11.94375 18.034375  L 8.74375 17.16875  L 8.540625 14.88125  L 5.696875 14.88125  L 6.05 19.403125  L 11.94375 21.028125  L 11.996875 21.028125  L 11.996875 21.015625  L 17.8625 19.4  L 17.915625 18.890625  L 18.578125 11.321875  L 18.678125 10.5625  L 11.96875 10.5625  L 11.96875 10.56875  L 8.184375 10.56875  L 7.928125 8  L 18.93125 8  L 18.984375 7.015625  L 19.134375 5.540625  L 19.1875 4.78125  L 11.96875 4.78125  Z " fill-rule="nonzero" fill="#000000" stroke="none" transform="matrix(1 0 0 1 1041 1211 )" />
  </g>
</svg>