<?xml version="1.0" encoding="utf-8"?>
<svg version="1.1" xmlns:xlink="http://www.w3.org/1999/xlink" width="26px" height="26px" xmlns="http://www.w3.org/2000/svg">
  <g transform="matrix(1 0 0 1 -572 -1279 )">
    <path d="M 25.496875 18.478125  C 25.5 17.290625  25.19375 16.11875  24.615625 15.08125  C 24.74375 14.378125  24.8125 13.659375  24.8125 12.940625  C 24.8125 11.346875  24.5 9.8  23.884375 8.346875  C 23.290625 6.940625  22.4375 5.678125  21.353125 4.59375  C 20.26875 3.509375  19.00625 2.659375  17.6 2.065625  C 16.14375 1.45  14.6 1.1375  13.00625 1.1375  C 12.25625 1.1375  11.503125 1.209375  10.771875 1.35  C 9.7625 0.815625000000002  8.63125 0.531250000000001  7.4875 0.531250000000001  C 5.621875 0.531250000000001  3.865625 1.259375  2.546875 2.578125  C 1.228125 3.896875  0.499999999999997 5.653125  0.499999999999997 7.51875  C 0.499999999999997 8.70625  0.806249999999997 9.875  1.378125 10.90625  C 1.2625 11.575  1.2 12.259375  1.2 12.940625  C 1.2 14.534375  1.5125 16.08125  2.128125 17.534375  C 2.721875 18.940625  3.571875 20.203125  4.65625 21.2875  C 5.740625 22.371875  7.003125 23.221875  8.409375 23.815625  C 9.865625 24.43125  11.409375 24.74375  13.003125 24.74375  C 13.696875 24.74375  14.390625 24.68125  15.071875 24.559375  C 16.11875 25.15  17.3 25.465625  18.509375 25.465625  C 20.375 25.465625  22.13125 24.740625  23.45 23.41875  C 24.771875 22.1  25.496875 20.34375  25.496875 18.478125  Z M 23.25 18.48125  C 23.25 19.753125  22.759375 20.934375  21.8625 21.83125  C 20.965625 22.73125  19.78125 23.21875  18.5125 23.21875  C 17.696875 23.21875  16.89375 23.00625  16.18125 22.603125  L 15.478125 22.20625  L 14.68125 22.346875  C 14.125 22.446875  13.5625 22.496875  13.00625 22.496875  C 11.7125 22.496875  10.465625 22.24375  9.284375 21.74375  C 8.15 21.265625  7.128125 20.578125  6.246875 19.696875  C 5.36875 18.81875  4.68125 17.8  4.2 16.6625  C 3.7 15.484375  3.45 14.2375  3.45 12.94375  C 3.45 12.4  3.5 11.84375  3.59375 11.29375  L 3.73125 10.509375  L 3.34375 9.8125  C 2.953125 9.1125  2.746875 8.31875  2.746875 7.51875  C 2.746875 6.25  3.2375 5.065625  4.134375 4.16875  C 5.034375 3.271875  6.21875 2.78125  7.4875 2.78125  C 8.259375 2.78125  9.028125 2.975  9.71875 3.340625  L 10.41875 3.709375  L 11.19375 3.559375  C 11.784375 3.446875  12.39375 3.3875  13.00625 3.3875  C 14.3 3.3875  15.546875 3.640625  16.725 4.1375  C 17.865625 4.61875  18.884375 5.30625  19.7625 6.184375  C 20.64375 7.0625  21.33125 8.084375  21.8125 9.221875  C 22.3125 10.4  22.5625 11.646875  22.5625 12.940625  C 22.5625 13.515625  22.509375 14.096875  22.403125 14.675  L 22.25625 15.471875  L 22.65 16.178125  C 23.04375 16.88125  23.25 17.678125  23.25 18.48125  Z M 19.021875 15.66875  C 19.021875 14.009375  18.25625 12.24375  15.23125 11.56875  L 12.46875 10.95625  C 11.41875 10.715625  10.209375 10.4  10.209375 9.409375  C 10.209375 8.41875  11.05625 7.725  12.5875 7.725  C 15.671875 7.725  15.390625 9.84375  16.921875 9.84375  C 17.728125 9.84375  18.434375 9.36875  18.434375 8.55625  C 18.434375 6.65625  15.390625 5.228125  12.809375 5.228125  C 10.00625 5.228125  7.021875 6.41875  7.021875 9.5875  C 7.021875 11.1125  7.565625 12.7375  10.571875 13.490625  L 14.303125 14.421875  C 15.43125 14.7  15.715625 15.334375  15.715625 15.909375  C 15.715625 16.8625  14.76875 17.79375  13.053125 17.79375  C 9.703125 17.79375  10.16875 15.215625  8.375 15.215625  C 7.56875 15.215625  6.984375 15.771875  6.984375 16.5625  C 6.984375 18.10625  8.859375 20.16875  13.053125 20.16875  C 17.04375 20.16875  19.021875 18.246875  19.021875 15.66875  Z " fill-rule="nonzero" fill="#000000" stroke="none" transform="matrix(1 0 0 1 572 1279 )" />
  </g>
</svg>