<?xml version="1.0" encoding="utf-8"?>
<svg version="1.1" xmlns:xlink="http://www.w3.org/1999/xlink" width="24px" height="24px" xmlns="http://www.w3.org/2000/svg">
  <g transform="matrix(1 0 0 1 -573 -1342 )">
    <path d="M 23.746875 12.278125  C 23.746875 11.428125  23.671875 10.6125  23.53125 10  L 12.240625 10  L 12.240625 14.465625  L 18.690625 14.465625  C 18.4125 15.965625  17.56875 17.234375  16.296875 18.084375  C 15.221875 18.803125  13.85 19.228125  12.2375 19.228125  C 9.115625 19.228125  6.475 17.11875  5.53125 14.284375  C 5.29375 13.565625  5.15625 12.796875  5.15625 12.00625  C 5.15625 11.215625  5.29375 10.446875  5.53125 9.728125  C 6.478125 6.896875  9.11875 4.7875  12.240625 4.7875  C 14 4.7875  15.578125 5.39375  16.821875 6.58125  L 20.259375 3.140625  C 18.18125 1.203125  15.471875 0.0156249999999973  12.240625 0.0156249999999973  C 7.55625 0.0156249999999973  3.503125 2.703125  1.53125 6.621875  C 0.718750000000002 8.240625  0.256250000000001 10.071875  0.256250000000001 12.009375  C 0.256250000000001 13.946875  0.71875 15.775  1.53125 17.39375  C 3.503125 21.3125  7.55625 24  12.240625 24  C 15.478125 24  18.190625 22.925  20.171875 21.09375  C 22.4375 19.00625  23.746875 15.93125  23.746875 12.278125  Z " fill-rule="nonzero" fill="#000000" stroke="none" transform="matrix(1 0 0 1 573 1342 )" />
  </g>
</svg>