<?xml version="1.0" encoding="utf-8"?>
<svg version="1.1" xmlns:xlink="http://www.w3.org/1999/xlink" width="26px" height="26px" xmlns="http://www.w3.org/2000/svg">
  <g transform="matrix(1 0 0 1 -572 -1211 )">
    <path d="M 25.065625 13.4  C 25.059375 11.8  24.75 10.25  24.13125 8.79375  C 23.540625 7.384375  22.684375 6.11875  21.59375 5.025  C 20.509375 3.9375  19.2375 3.084375  17.828125 2.4875  C 16.36875 1.86875  14.81875 1.55625  13.21875 1.55625  C 11.909375 1.55625  10.628125 1.765625  9.409375 2.18125  C 6.5625 0.853125  3.275 0.75  2.33125 0.75  C 2.2625 0.75  2.1 0.75  2.0375 0.75625  C 1.665625 0.76875  1.325 0.959375  1.125 1.26875  C 0.921875 1.578125  0.884375 1.96875  1.01875 2.315625  L 3.028125 7.365625  C 1.946875 9.1875  1.378125 11.275  1.378125 13.403125  C 1.378125 15.009375  1.690625 16.559375  2.309375 18.015625  C 2.9 19.421875  3.753125 20.690625  4.846875 21.78125  C 5.93125 22.86875  7.203125 23.721875  8.6125 24.31875  C 10.071875 24.9375  11.621875 25.25  13.21875 25.25  C 14.821875 25.25  16.371875 24.934375  17.834375 24.31875  C 19.2375 23.728125  20.50625 22.871875  21.596875 21.78125  C 22.68125 20.69375  23.5375 19.425  24.134375 18.0125  C 24.753125 16.553125  25.065625 14.996875  25.065625 13.4  Z M 22.815625 13.378125  C 22.8125 14.68125  22.55625 15.940625  22.05625 17.121875  C 21.571875 18.271875  20.878125 19.3  19.996875 20.184375  C 19.109375 21.075  18.08125 21.76875  16.94375 22.24375  L 16.940625 22.24375  C 15.753125 22.74375  14.49375 23  13.19375 23  C 11.89375 23  10.6375 22.74375  9.453125 22.24375  C 8.30625 21.759375  7.278125 21.0625  6.396875 20.18125  C 5.509375 19.290625  4.815625 18.2625  4.340625 17.125  L 4.340625 17.121875  C 3.840625 15.940625  3.5875 14.678125  3.5875 13.375  C 3.5875 11.64375  4.05 9.946875  4.925 8.46875  L 5.3375 7.778125  L 5.040625 7.03125  L 3.4375 3  C 3.903125 3.01875  4.559375 3.065625  5.303125 3.175  C 6.671875 3.378125  7.88125 3.721875  8.89375 4.19375  L 9.4875 4.471875  L 10.109375 4.259375  C 11.09375 3.921875  12.134375 3.753125  13.2 3.753125  C 14.5 3.753125  15.759375 4.009375  16.940625 4.509375  C 18.0875 4.99375  19.115625 5.690625  19.996875 6.571875  C 20.884375 7.4625  21.578125 8.490625  22.053125 9.628125  L 22.05625 9.63125  L 22.059375 9.634375  C 22.559375 10.809375  22.8125 12.071875  22.815625 13.378125  Z M 19.44375 9.540625  C 19.44375 8.9  18.921875 8.38125  18.284375 8.38125  C 17.646875 8.38125  17.125 8.903125  17.125 9.540625  L 17.125 11.2625  C 17.125 11.9  17.64375 12.421875  18.284375 12.421875  C 18.925 12.421875  19.44375 11.9  19.44375 11.2625  L 19.44375 9.540625  Z M 13.96875 9.540625  C 13.96875 8.9  13.446875 8.38125  12.809375 8.38125  C 12.16875 8.38125  11.65 8.903125  11.65 9.540625  L 11.65 11.2625  C 11.65 11.9  12.171875 12.421875  12.809375 12.421875  C 13.45 12.421875  13.96875 11.9  13.96875 11.2625  L 13.96875 9.540625  Z " fill-rule="nonzero" fill="#000000" stroke="none" transform="matrix(1 0 0 1 572 1211 )" />
  </g>
</svg>