<?xml version="1.0" encoding="utf-8"?>
<svg version="1.1" xmlns:xlink="http://www.w3.org/1999/xlink" width="28px" height="28px" xmlns="http://www.w3.org/2000/svg">
  <g transform="matrix(1 0 0 1 -478 -1408 )">
    <path d="M 15.065625 11.0375  C 17.8 10.0125  18.95625 8.45625  19.096875 8.259375  C 17.740625 7.05625  15.953125 6.321875  14 6.321875  C 13.39375 6.321875  12.7875 6.39375  12.196875 6.5375  C 12.409375 6.821875  13.80625 8.721875  15.065625 11.0375  Z M 15.3625 15.25625  L 15.3125 15.275  C 10.978125 16.784375  9.41875 19.79375  9.28125 20.075  C 10.584375 21.090625  12.221875 21.696875  14 21.696875  C 15.065625 21.696875  16.08125 21.48125  17.003125 21.0875  C 16.8875 20.4125  16.44375 18.0625  15.3625 15.25625  Z M 21.590625 15.23125  C 21.328125 15.15  19.2125 14.51875  16.803125 14.903125  C 17.809375 17.665625  18.21875 19.915625  18.296875 20.384375  C 20.021875 19.21875  21.25 17.371875  21.590625 15.23125  Z M 28 14  C 28 6.26875  21.73125 0  14 0  C 6.26875 0  0 6.26875  0 14  C 0 21.73125  6.26875 28  14 28  C 21.73125 28  28 21.73125  28 14  Z M 23 14  C 23 18.9625  18.9625 23  14 23  C 9.0375 23  5 18.9625  5 14  C 5 9.0375  9.0375 5  14 5  C 18.9625 5  23 9.0375  23 14  Z M 19.953125 9.146875  C 19.7875 9.36875  18.5 11.021875  15.659375 12.18125  C 15.8375 12.546875  16.009375 12.91875  16.16875 13.29375  C 16.225 13.425  16.28125 13.55625  16.334375 13.690625  C 18.890625 13.36875  21.434375 13.884375  21.6875 13.9375  C 21.671875 12.121875  21.021875 10.45625  19.953125 9.146875  Z M 6.475 12.434375  C 6.81875 12.440625  9.9875 12.45625  13.58125 11.5  C 12.30625 9.234375  10.934375 7.33125  10.73125 7.053125  C 8.58125 8.06875  6.971875 10.05  6.475 12.434375  Z M 8.290625 19.153125  C 8.4625 18.853125  10.571875 15.359375  14.5375 14.078125  C 14.6375 14.046875  14.7375 14.015625  14.840625 13.9875  C 14.646875 13.55  14.4375 13.1125  14.21875 12.684375  C 10.38125 13.834375  6.653125 13.784375  6.31875 13.778125  C 6.315625 13.85625  6.315625 13.934375  6.315625 14.0125  C 6.315625 15.9875  7.0625 17.790625  8.290625 19.153125  Z " fill-rule="nonzero" fill="#ffffff" stroke="none" transform="matrix(1 0 0 1 478 1408 )" />
  </g>
</svg>