<?xml version="1.0" encoding="utf-8"?>
<svg version="1.1" xmlns:xlink="http://www.w3.org/1999/xlink" width="24px" height="22px" xmlns="http://www.w3.org/2000/svg">
  <g transform="matrix(1 0 0 1 -388 -288 )">
    <path d="M 23 0.5625  C 23.25 0.425  23.1375 0.3125  23 0.3125  L 21.125 0.3125  C 20.9875 0.3125  20.875 0.425  20.875 0.5625  L 20.875 16.75  L 5.6875 16.75  L 5.6875 14.46875  C 5.6875 14.259375  5.44375 14.140625  5.28125 14.271875  L 0.846875 17.771875  C 0.71875 17.871875  0.71875 18.065625  0.846875 18.165625  L 5.28125 21.665625  C 5.446875 21.796875  5.6875 21.678125  5.6875 21.46875  L 5.6875 19  L 21.25 19  C 22.353125 19.125  23.25 18.228125  23 17.125  L 23 0.5625  Z " fill-rule="nonzero" fill="#ffffff" stroke="none" transform="matrix(1 0 0 1 388 288 )" />
  </g>
</svg>