<?xml version="1.0" encoding="utf-8"?>
<svg version="1.1" xmlns:xlink="http://www.w3.org/1999/xlink" width="26px" height="26px" xmlns="http://www.w3.org/2000/svg">
  <g transform="matrix(1 0 0 1 -479 -1341 )">
    <path d="M 22.9375 21.275  C 22.940625 21.134375  22.884375 21.053125  22.78125 21.028125  C 22.678125 21  22.553125 21.015625  22.409375 21.06875  C 20.484375 21.95  18.6125 22.578125  16.79375 22.95  C 12.865625 23.75  9.0375 23.33125  5.3125 21.696875  C 4.278125 21.240625  2.840625 20.471875  1 19.384375  C 0.95 19.346875  0.896875 19.325  0.834375 19.321875  C 0.771875 19.31875  0.71875 19.325  0.66875 19.35  C 0.61875 19.375  0.58125 19.40625  0.553125 19.446875  C 0.525 19.4875  0.51875 19.54375  0.540625 19.615625  C 0.559375 19.684375  0.60625 19.7625  0.684375 19.846875  C 1.009375 20.228125  1.4125 20.634375  1.890625 21.065625  C 2.36875 21.496875  3.003125 21.984375  3.79375 22.528125  C 4.584375 23.071875  5.4125 23.55625  6.271875 23.978125  C 7.134375 24.4  8.134375 24.75625  9.275 25.04375  C 10.415625 25.33125  11.55625 25.475  12.69375 25.475  C 13.825 25.475  14.925 25.359375  15.990625 25.134375  C 17.059375 24.90625  17.959375 24.6375  18.69375 24.325  C 19.425 24.015625  20.1 23.66875  20.71875 23.29375  C 21.3375 22.91875  21.79375 22.6  22.090625 22.346875  C 22.3875 22.090625  22.6 21.890625  22.721875 21.740625  C 22.865625 21.5625  22.9375 21.409375  22.9375 21.275  Z M 14.90625 7.7875  C 14.43125 7.80625  13.95625 7.8375  13.48125 7.878125  C 13.00625 7.91875  12.434375 8.00625  11.7625 8.1375  C 11.090625 8.265625  10.46875 8.428125  9.89375 8.61875  C 9.31875 8.809375  8.73125 9.075  8.134375 9.4125  C 7.534375 9.75  7.025 10.1375  6.603125 10.56875  C 6.18125 11  5.8375 11.540625  5.56875 12.19375  C 5.3 12.84375  5.165625 13.559375  5.165625 14.340625  C 5.165625 15.1875  5.3125 15.940625  5.6125 16.60625  C 5.909375 17.271875  6.30625 17.79375  6.80625 18.18125  C 7.303125 18.56875  7.86875 18.871875  8.49375 19.09375  C 9.11875 19.315625  9.78125 19.415625  10.46875 19.3875  C 11.15625 19.359375  11.828125 19.253125  12.48125 19.065625  C 13.13125 18.88125  13.74375 18.584375  14.3125 18.18125  C 14.88125 17.778125  15.346875 17.3  15.7125 16.753125  C 15.846875 16.959375  15.965625 17.1125  16.071875 17.2125  L 16.34375 17.490625  C 16.525 17.675  16.803125 17.946875  17.178125 18.30625  C 17.55 18.665625  17.93125 19.015625  18.3125 19.359375  L 21.575 16.2375  L 21.3875 16.084375  C 21.253125 15.98125  21.09375 15.834375  20.9125 15.6375  C 20.73125 15.44375  20.55 15.228125  20.375 14.996875  C 20.196875 14.765625  20.04375 14.49375  19.915625 14.1875  C 19.7875 13.88125  19.721875 13.584375  19.721875 13.296875  L 19.721875 5.084375  C 19.721875 4.76875  19.6625 4.428125  19.54375 4.059375  C 19.421875 3.69375  19.209375 3.29375  18.896875 2.8625  C 18.584375 2.43125  18.196875 2.04375  17.734375 1.70625  C 17.26875 1.36875  16.65 1.08125  15.871875 0.849999999999999  C 15.096875 0.618749999999999  14.228125 0.503124999999999  13.271875 0.503124999999999  C 12.29375 0.503124999999999  11.384375 0.618749999999999  10.534375 0.843749999999999  C 9.68749999999999 1.071875  8.96249999999999 1.375  8.35624999999999 1.75625  C 7.75312499999999 2.1375  7.23437499999999 2.578125  6.80312499999999 3.08125  C 6.37187499999999 3.584375  6.04999999999999 4.109375  5.84062499999999 4.65625  C 5.63124999999999 5.203125  5.52499999999999 5.75625  5.52499999999999 6.315625  L 9.75 6.6875  C 9.921875 6.175  10.153125 5.73125  10.4375 5.35  C 10.725 4.96875  10.996875 4.69375  11.24375 4.521875  C 11.49375 4.35  11.7625 4.2125  12.046875 4.109375  C 12.334375 4.00625  12.528125 3.953125  12.628125 3.940625  C 12.728125 3.93125  12.80625 3.928125  12.865625 3.928125  C 13.7 3.928125  14.278125 4.175  14.603125 4.665625  C 14.80625 4.9625  14.90625 5.4125  14.90625 6.01875  L 14.90625 7.7875  Z M 14.909375 10.3625  L 14.909375 12.625  C 14.909375 13.14375  14.840625 13.615625  14.70625 14.03125  C 14.41875 14.940625  13.871875 15.5125  13.06875 15.74375  C 12.36875 15.95  11.703125 15.846875  11.071875 15.4375  C 10.4 15  10.065625 14.38125  10.065625 13.584375  C 10.065625 12.9625  10.221875 12.43125  10.534375 11.9875  C 10.846875 11.546875  11.2625 11.215625  11.784375 10.996875  C 12.30625 10.778125  12.815625 10.621875  13.315625 10.53125  C 13.8125 10.4375  14.346875 10.38125  14.909375 10.3625  Z M 25.425 20.434375  C 25.5 19.9375  25.4875 19.615625  25.384375 19.465625  C 25.25 19.296875  24.8875 19.1875  24.29375 19.13125  C 23.7 19.075  23.184375 19.078125  22.740625 19.14375  C 22.2625 19.2  21.76875 19.3375  21.2625 19.5625  C 20.753125 19.784375  20.53125 19.971875  20.5875 20.11875  L 20.609375 20.159375  L 20.6375 20.18125  L 20.68125 20.1875  L 20.825 20.1875  C 20.85 20.1875  20.88125 20.184375  20.925 20.18125  C 20.96875 20.178125  21.009375 20.171875  21.046875 20.16875  C 21.084375 20.165625  21.1375 20.159375  21.20625 20.15625  C 21.271875 20.153125  21.334375 20.14375  21.39375 20.134375  C 21.403125 20.134375  21.509375 20.125  21.715625 20.10625  C 21.921875 20.0875  22.071875 20.075  22.1625 20.065625  C 22.253125 20.05625  22.40625 20.046875  22.615625 20.0375  C 22.825 20.028125  22.99375 20.028125  23.11875 20.0375  C 23.24375 20.046875  23.384375 20.059375  23.54375 20.071875  C 23.703125 20.084375  23.83125 20.1125  23.93125 20.15625  C 24.03125 20.196875  24.10625 20.25  24.153125 20.315625  C 24.315625 20.521875  24.284375 20.978125  24.059375 21.6875  C 23.834375 22.396875  23.621875 22.9625  23.421875 23.38125  C 23.334375 23.559375  23.334375 23.66875  23.421875 23.715625  C 23.509375 23.7625  23.63125 23.71875  23.79375 23.590625  C 24.28125 23.209375  24.6875 22.634375  25.015625 21.8625  C 25.20625 21.40625  25.34375 20.93125  25.425 20.434375  Z " fill-rule="nonzero" fill="#ffffff" stroke="none" transform="matrix(1 0 0 1 479 1341 )" />
  </g>
</svg>