<?xml version="1.0" encoding="utf-8"?>
<svg version="1.1" xmlns:xlink="http://www.w3.org/1999/xlink" width="28px" height="28px" xmlns="http://www.w3.org/2000/svg">
  <g transform="matrix(1 0 0 1 -478 -1210 )">
    <path d="M 27.971875 14.3625  C 27.971875 6.6375  21.709375 0.384375  13.9875 0.384375  C 6.259375 0.38125  0 6.6375  0 14.359375  C 0 20.465625  3.915625 25.65625  9.36875 27.5625  C 10.103125 27.746875  9.990625 27.225  9.990625 26.86875  L 9.990625 24.446875  C 5.75 24.94375  5.578125 22.1375  5.29375 21.66875  C 4.71875 20.6875  3.359375 20.4375  3.765625 19.96875  C 4.73125 19.471875  5.715625 20.09375  6.85625 21.778125  C 7.68125 23  9.290625 22.79375  10.10625 22.590625  C 10.284375 21.85625  10.665625 21.2  11.190625 20.690625  C 6.796875 19.903125  4.965625 17.221875  4.965625 14.034375  C 4.965625 12.4875  5.475 11.065625  6.475 9.91875  C 5.8375 8.028125  6.534375 6.409375  6.628125 6.16875  C 8.44375 6.00625  10.33125 7.46875  10.478125 7.584375  C 11.509375 7.30625  12.6875 7.159375  14.00625 7.159375  C 15.33125 7.159375  16.5125 7.3125  17.553125 7.59375  C 17.90625 7.325  19.65625 6.06875  21.34375 6.221875  C 21.434375 6.4625  22.115625 8.04375  21.515625 9.909375  C 22.528125 11.059375  23.04375 12.49375  23.04375 14.04375  C 23.04375 17.2375  21.2 19.921875  16.79375 20.696875  C 17.528125 21.421875  17.984375 22.428125  17.984375 23.540625  L 17.984375 27.05625  C 18.009375 27.3375  17.984375 27.615625  18.453125 27.615625  C 23.9875 25.75  27.971875 20.521875  27.971875 14.3625  Z " fill-rule="nonzero" fill="#000000" stroke="none" transform="matrix(1 0 0 1 478 1210 )" />
  </g>
</svg>