<?xml version="1.0" encoding="utf-8"?>
<svg version="1.1" xmlns:xlink="http://www.w3.org/1999/xlink" width="26px" height="26px" xmlns="http://www.w3.org/2000/svg">
  <g transform="matrix(1 0 0 1 -758 -1279 )">
    <path d="M 19.409375 13  C 19.409375 9.453125  16.546875 6.590625  13 6.590625  C 9.453125 6.590625  6.590625 9.453125  6.590625 13  C 6.590625 16.546875  9.453125 19.409375  13 19.409375  C 16.546875 19.409375  19.409375 16.546875  19.409375 13  Z M 17.165625 13  C 17.165625 15.29375  15.29375 17.165625  13 17.165625  C 10.70625 17.165625  8.834375 15.29375  8.834375 13  C 8.834375 10.70625  10.70625 8.834375  13 8.834375  C 15.29375 8.834375  17.165625 10.70625  17.165625 13  Z M 21.16875 6.33125  C 21.165625 5.5  20.5 4.834375  19.671875 4.834375  C 18.84375 4.834375  18.175 5.503125  18.175 6.33125  C 18.175 7.159375  18.84375 7.828125  19.671875 7.828125  C 20.5 7.828125  21.16875 7.1625  21.16875 6.33125  Z M 25.4125 18.15625  C 25.5125 16.434375  25.49375 14.725  25.49375 13  C 25.49375 11.275  25.509375 9.565625  25.4125 7.84375  C 25.315625 5.84375  24.859375 4.06875  23.396875 2.60625  C 21.93125 1.140625  20.159375 0.6875  18.159375 0.590625  C 16.434375 0.49375  14.725 0.509375  13.003125 0.509375  C 11.278125 0.509375  9.56875 0.49375  7.846875 0.590625  C 5.846875 0.6875  4.071875 1.14375  2.609375 2.60625  C 1.14375 4.071875  0.690625 5.84375  0.59375 7.84375  C 0.496875 9.56875  0.5125 11.278125  0.5125 13  C 0.5125 14.721875  0.496875 16.434375  0.59375 18.15625  C 0.690625 20.15625  1.146875 21.93125  2.609375 23.39375  C 4.075 24.859375  5.846875 25.3125  7.846875 25.409375  C 9.571875 25.50625  11.28125 25.490625  13.003125 25.490625  C 14.728125 25.490625  16.4375 25.50625  18.159375 25.409375  C 20.159375 25.3125  21.934375 24.85625  23.396875 23.39375  C 24.8625 21.928125  25.315625 20.15625  25.4125 18.15625  Z M 23.25 13  C 23.25 14.821875  23.396875 18.725  22.74375 20.36875  C 22.515625 20.9375  22.240625 21.3625  21.8 21.8  C 21.359375 22.240625  20.9375 22.515625  20.36875 22.74375  C 18.725 23.396875  14.821875 23.25  13 23.25  C 11.178125 23.25  7.271875 23.396875  5.628125 22.746875  C 5.059375 22.51875  4.634375 22.24375  4.196875 21.803125  C 3.75625 21.3625  3.48125 20.940625  3.253125 20.371875  C 2.603125 18.725  2.75 14.821875  2.75 13  C 2.75 11.178125  2.603125 7.271875  3.253125 5.628125  C 3.48125 5.059375  3.75625 4.634375  4.196875 4.196875  C 4.6375 3.759375  5.059375 3.48125  5.628125 3.253125  C 7.271875 2.603125  11.178125 2.75  13 2.75  C 14.821875 2.75  18.728125 2.603125  20.371875 3.253125  C 20.940625 3.48125  21.365625 3.75625  21.803125 4.196875  C 22.24375 4.6375  22.51875 5.059375  22.746875 5.628125  C 23.396875 7.271875  23.25 11.178125  23.25 13  Z " fill-rule="nonzero" fill="#000000" stroke="none" transform="matrix(1 0 0 1 758 1279 )" />
  </g>
</svg>