<?xml version="1.0" encoding="utf-8"?>
<svg version="1.1" xmlns:xlink="http://www.w3.org/1999/xlink" width="28px" height="22px" xmlns="http://www.w3.org/2000/svg">
  <g transform="matrix(1 0 0 1 -757 -1343 )">
    <path d="M 28 16.60625  C 28 16.60625  27.0125 16.528125  22.65625 15.071875  C 21.446875 14.66875  19.821875 14.05  18.015625 13.396875  C 19.103125 11.5125  19.96875 9.365625  20.5375 7.034375  L 14.578125 7.034375  L 14.578125 4.890625  L 21.878125 4.890625  L 21.878125 3.69375  L 14.578125 3.69375  L 14.578125 0.125  L 11.596875 0.125  C 11.075 0.125  11.075 0.640625  11.075 0.640625  L 11.075 3.696875  L 3.69375 3.696875  L 3.69375 4.89375  L 11.078125 4.89375  L 11.078125 7.0375  L 4.98125 7.0375  L 4.98125 8.234375  L 16.80625 8.234375  C 16.375 9.721875  15.79375 11.11875  15.103125 12.3875  C 11.265625 11.125  7.171875 10.1  4.6 10.73125  C 2.95625 11.1375  1.896875 11.859375  1.271875 12.615625  C -1.584375 16.084375  0.462499999999998 21.353125  6.496875 21.353125  C 10.0625 21.35  13.5 19.3625  16.1625 16.09375  C 20.134375 18  28 21.271875  28 21.271875  L 28 16.60625  Z M 13.55 14.790625  C 11.4 17.5875  8.665625 19.33125  5.934375 19.33125  C 1.23125 19.33125  -0.159375 15.634375  2.165625 13.609375  C 2.940625 12.925  4.359375 12.590625  5.115625 12.515625  C 7.909375 12.240625  10.496875 13.303125  13.55 14.790625  Z " fill-rule="nonzero" fill="#ffffff" stroke="none" transform="matrix(1 0 0 1 757 1343 )" />
  </g>
</svg>