<?xml version="1.0" encoding="utf-8"?>
<svg version="1.1" xmlns:xlink="http://www.w3.org/1999/xlink" width="26px" height="24px" xmlns="http://www.w3.org/2000/svg">
  <g transform="matrix(1 0 0 1 -665 -1410 )">
    <path d="M 25.91875 8.91875  C 25.984375 8.84375  25.984375 8.734375  25.925 8.659375  L 19.58125 0.731250000000001  C 19.54375 0.684375000000001  19.484375 0.656250000000001  19.425 1  L 6.575 1  C 6.515625 0.656250000000001  6.45625 0.684375000000001  6.41875 0.731250000000001  L 0.0749999999999993 8.659375  C 0.0156249999999991 8.734375  0.0156249999999991 8.84375  0.0812499999999994 8.91875  L 12.85 23.278125  C 12.8875 23.321875  12.94375 23.34375  13 23.34375  C 13.05625 23.34375  13.109375 23.31875  13.15 23.278125  L 25.91875 8.91875  Z M 14.096875 2.45  L 17.1625 2.45  L 18.2375 6.634375  L 14.096875 2.45  Z M 13 3.5625  L 17.41875 8.028125  L 8.58125 8.028125  L 13 3.5625  Z M 7.759375 6.634375  L 8.8375 2.45  L 11.903125 2.45  L 7.759375 6.634375  Z M 2.88125 8.028125  L 7.16875 2.66875  L 5.790625 8.028125  L 2.88125 8.028125  Z M 9.9625 17.33125  L 3.08125 9.590625  L 6.03125 9.590625  L 9.9625 17.33125  Z M 18.2125 10  L 13 19.85625  L 7.784375 10  L 18.2125 10  Z M 22.91875 9.590625  L 16.034375 17.33125  L 19.96875 9.590625  L 22.91875 9.590625  Z M 23.11875 8.028125  L 20.209375 8.028125  L 18.83125 2.66875  L 23.11875 8.028125  Z " fill-rule="nonzero" fill="#ffffff" stroke="none" transform="matrix(1 0 0 1 665 1410 )" />
  </g>
</svg>