<?xml version="1.0" encoding="utf-8"?>
<svg version="1.1" xmlns:xlink="http://www.w3.org/1999/xlink" width="28px" height="28px" xmlns="http://www.w3.org/2000/svg">
  <g transform="matrix(1 0 0 1 -664 -1340 )">
    <path d="M 28 14  C 28 6.26875  21.73125 0  14 0  C 6.26875 0  0 6.26875  0 14  C 0 21.73125  6.26875 28  14 28  C 21.73125 28  28 21.73125  28 14  Z M 21.6125 18.4125  L 21.615625 18.4125  L 14 22.8125  L 6.384375 18.4125  L 6.384375 9.61875  L 9.821875 7.63125  L 9.809375 7.625  L 9.815625 7.625  L 14 5.21875  L 18.1875 7.625  L 18.18125 7.625  L 18.171875 7.63125  L 21.6125 9.61875  L 21.6125 18.4125  Z M 7.621875 11.075  L 7.621875 14.771875  L 10.359375 16.33125  L 10.359375 19.28125  L 13.38125 21.028125  L 13.38125 14.4  L 7.621875 11.075  Z M 16.934375 8.340625  L 13.99375 10.028125  L 11.0625 8.34375  L 8.215625 9.9875  L 14.003125 13.33125  L 19.790625 9.990625  L 16.934375 8.340625  Z M 14.61875 14.40625  L 14.61875 21.028125  L 17.659375 19.271875  L 17.659375 16.33125  L 20.378125 14.784375  L 20.378125 11.078125  L 14.61875 14.40625  Z " fill-rule="nonzero" fill="#000000" stroke="none" transform="matrix(1 0 0 1 664 1340 )" />
  </g>
</svg>