<?xml version="1.0" encoding="utf-8"?>
<svg version="1.1" xmlns:xlink="http://www.w3.org/1999/xlink" width="28px" height="28px" xmlns="http://www.w3.org/2000/svg">
  <g transform="matrix(1 0 0 1 -386 -219 )">
    <path d="M 17.25 8.4375  C 17.25 8.234375  17.01875 8.115625  16.853125 8.234375  L 9.165625 13.796875  C 9.028125 13.896875  9.028125 14.1  9.165625 14.2  L 16.853125 19.7625  C 17.01875 19.88125  17.25 19.7625  17.25 19.559375  L 17.25 18.09375  C 17.25 17.775  17.096875 17.471875  16.8375 17.284375  L 12.29375 14  L 16.8375 10.7125  C 17.096875 10.525  17.25 10.225  17.25 9.903125  L 17.25 8.4375  Z M 28 14  C 28 6.26875  21.73125 0  14 0  C 6.26875 0  0 6.26875  0 14  C 0 21.73125  6.26875 28  14 28  C 21.73125 28  28 21.73125  28 14  Z M 25.625 14  C 25.625 20.41875  20.41875 25.625  14 25.625  C 7.58125 25.625  2.375 20.41875  2.375 14  C 2.375 7.58125  7.58125 2.375  14 2.375  C 20.41875 2.375  25.625 7.58125  25.625 14  Z " fill-rule="nonzero" fill="#000000" stroke="none" transform="matrix(1 0 0 1 386 219 )" />
  </g>
</svg>