<?xml version="1.0" encoding="utf-8"?>
<svg version="1.1" xmlns:xlink="http://www.w3.org/1999/xlink" width="26px" height="24px" xmlns="http://www.w3.org/2000/svg">
  <g transform="matrix(1 0 0 1 -852 -1280 )">
    <path d="M 25.134375 14.525  C 25.521875 14.2375  25.696875 13.715625  25.559375 13.25625  L 22.15625 1.66875  L 22.15625 1.665625  C 21.91875 0.95  21.353125 0.525  20.646875 0.525  C 19.915625 0.525  19.31875 0.946875  19.09375 1.625  L 16.8625 8.28125  L 9.15 8.28125  L 6.91875 1.625  C 6.69375 0.946875  6.096875 0.525  5.365625 0.525  C 4.64375 0.525  4.0375 0.987500000000001  3.853125 1.66875  L 0.453125 13.25625  C 0.315625 13.715625  0.490625 14.2375  0.875 14.528125  L 12.390625 23.165625  C 12.471875 23.278125  12.584375 23.3625  12.715625 23.409375  L 12.984375 23.609375  L 13.25 23.409375  C 13.403125 23.35625  13.53125 23.2625  13.621875 23.13125  L 25.134375 14.525  Z M 18.390625 8.321875  L 20.490625 2.04375  C 20.521875 1.9875  20.58125 1.984375  20.6 1.984375  C 20.634375 1.984375  20.678125 1.99375  20.70625 2.078125  L 22.5625 8.321875  L 18.390625 8.321875  Z M 3.453125 8.325  L 5.259375 2.075  C 5.2875 1.99375  5.33125 1.984375  5.365625 1.984375  C 5.45 1.984375  5.45625 1.9875  5.471875 2.0375  L 7.575 8.325  L 3.453125 8.325  Z M 9.16875 18.8625  L 1.9625 13.459375  L 2.84375 10.41875  L 9.16875 18.8625  Z M 10.925 18.70625  L 4.271875 9.821875  L 8.0875 9.821875  L 10.925 18.70625  Z M 16.375 9.821875  L 13.028125 20.25  L 9.678125 9.821875  L 16.375 9.821875  Z M 15.125 18.596875  L 17.9625 9.821875  L 21.696875 9.821875  L 15.125 18.596875  Z M 24.090625 13.459375  L 16.690625 19.00625  L 23.16875 10.359375  L 24.090625 13.459375  Z " fill-rule="nonzero" fill="#ffffff" stroke="none" transform="matrix(1 0 0 1 852 1280 )" />
  </g>
</svg>