<?xml version="1.0" encoding="utf-8"?>
<svg version="1.1" xmlns:xlink="http://www.w3.org/1999/xlink" width="26px" height="24px" xmlns="http://www.w3.org/2000/svg">
  <g transform="matrix(1 0 0 1 -852 -1342 )">
    <path d="M 25.0125 12.25625  C 24.9125 9.446875  24.015625 8.8125  23.70625 7.58125  C 23.396875 6.35  24.015625 4.3875  26 3.69375  L 23.878125 3.58125  C 23.878125 3.58125  23.075 0.768750000000001  19.390625 0.518750000000001  C 15.709375 0.265625000000001  13.3 0.425000000000001  13.296875 0.425000000000001  C 13.3 0.425000000000001  16.028125 2.1625  14.934375 5.259375  C 14.134375 6.9  12.878125 8.246875  11.534375 9.78125  C 11.49375 9.821875  11.45625 9.8625  11.425 9.896875  C 6.98125 14.90625  0 22.875  0 22.875  C 7.684375 24.8875  12.834375 22.678125  15.88125 20.028125  C 16.521875 20.021875  17.003125 20.01875  17.328125 20.01875  C 21.571875 20.01875  25.159375 16.34375  25.0125 12.25625  Z M 23.015625 12.334375  C 23.11875 15.290625  20.43125 18.01875  17.328125 18.01875  C 16.996875 18.01875  16.509375 18.021875  15.865625 18.028125  L 15.128125 18.034375  L 14.571875 18.51875  C 13.1 19.8  11.309375 20.753125  9.215625 21.25625  C 7.575 21.65  5.778125 21.7625  3.81875 21.55625  C 4.38125 20.915625  4.959375 20.25625  5.55 19.584375  C 8.425 16.315625  10.98125 13.4125  12.953125 11.19375  L 12.996875 11.15  L 13.0375 11.103125  C 13.165625 10.959375  13.68125 10.375  13.809375 10.225  C 14.1125 9.878125  14.35 9.603125  14.575 9.33125  C 15.534375 8.184375  16.20625 7.2125  16.73125 6.1375  L 16.78125 6.034375  L 16.81875 5.928125  C 17.246875 4.715625  17.3 3.525  17.0125 2.403125  C 17.715625 2.425  18.465625 2.4625  19.253125 2.515625  C 20.29375 2.5875  20.9875 2.91875  21.475 3.428125  C 21.65625 3.615625  21.79375 3.81875  21.89375 4.0125  C 21.925 4.075  21.946875 4.125  21.965625 4.16875  L 22.121875 4.721875  C 21.63125 5.8  21.5 7.0125  21.765625 8.071875  C 21.859375 8.440625  21.98125 8.771875  22.15 9.146875  C 22.215625 9.29375  22.446875 9.775  22.49375 9.875  C 22.815625 10.584375  22.975 11.21875  23.015625 12.334375  Z " fill-rule="nonzero" fill="#ffffff" stroke="none" transform="matrix(1 0 0 1 852 1342 )" />
  </g>
</svg>