<?xml version="1.0" encoding="utf-8"?>
<svg version="1.1" xmlns:xlink="http://www.w3.org/1999/xlink" width="28px" height="28px" xmlns="http://www.w3.org/2000/svg">
  <g transform="matrix(1 0 0 1 -15 -2221 )">
    <path d="M 18.865625 8.115625  C 18.88125 8.08125  18.89375 8.040625  18.89375 8  C 18.89375 7.8625  18.78125 7.75  18.64375 7.75  L 16.940625 7.75  C 16.846875 7.75  16.759375 7.803125  16.71875 7.8875  L 14.071875 13.1625  L 13.96875 13.1625  L 11.321875 7.8875  C 11.278125 7.803125  11.19375 7.75  11.1 7.75  L 9.359375 7.75  C 9.31875 7.75  9.278125 7.759375  9.240625 7.78125  C 9.11875 7.846875  9.075 8  9.140625 8.11875  L 12.3875 14.10625  L 10.60625 14.10625  C 10.46875 14.10625  10.35625 14.21875  10.35625 14.35625  L 10.35625 15.203125  C 10.35625 15.340625  10.46875 15.453125  10.60625 15.453125  L 12.98125 15.453125  L 12.98125 16.671875  L 10.60625 16.671875  C 10.46875 16.671875  10.35625 16.784375  10.35625 16.921875  L 10.35625 17.76875  C 10.35625 17.90625  10.46875 18.01875  10.60625 18.01875  L 12.98125 18.01875  L 12.98125 20  C 12.98125 20.1375  13.09375 20.25  13.23125 20.25  L 14.790625 20.25  C 14.928125 20.25  15.040625 20.1375  15.040625 20  L 15.040625 18.015625  L 17.425 18.015625  C 17.5625 18.015625  17.675 17.903125  17.675 17.765625  L 17.675 16.91875  C 17.675 16.78125  17.5625 16.66875  17.425 16.66875  L 15.040625 16.66875  L 15.040625 15.45  L 17.425 15.45  C 17.5625 15.45  17.675 15.3375  17.675 15.2  L 17.675 14.353125  C 17.675 14.215625  17.5625 14.103125  17.425 14.103125  L 15.625 14.103125  L 18.865625 8.115625  Z M 2.6875 14  C 2.821875 14  2.93125 13.890625  2.934375 13.75625  C 2.965625 12.346875  3.25625 10.984375  3.8 9.696875  C 4.35625 8.38125  5.153125 7.196875  6.16875 6.18125  C 7.184375 5.165625  8.365625 4.365625  9.68125 3.809375  C 11.04375 3.234375  12.490625 2.940625  13.98125 2.940625  C 15.475 2.940625  16.921875 3.23125  18.28125 3.809375  C 19.596875 4.365625  20.778125 5.165625  21.79375 6.18125  C 22.10625 6.49375  22.396875 6.821875  22.665625 7.1625  L 21.103125 8.384375  C 20.9375 8.5125  20.99375 8.775  21.196875 8.825  L 26.096875 10.021875  C 26.253125 10.059375  26.40625 9.940625  26.40625 9.78125  L 26.43125 4.734375  C 26.43125 4.525  26.190625 4.40625  26.028125 4.5375  L 24.534375 5.70625  C 22.084375 2.571875  18.26875 0.5625  13.984375 0.5625  C 6.65625 0.5625  0.696875 6.440625  0.5625 13.74375  C 0.559375 13.884375  0.671875 14  0.8125 14  L 2.6875 14  Z M 27.4375 14.25625  C 27.440625 14.115625  27.328125 14  27.1875 14  L 25.3125 14  C 25.178125 14  25.065625 14.109375  25.0625 14.24375  C 25.03125 15.653125  24.740625 17.015625  24.196875 18.303125  C 23.640625 19.61875  22.84375 20.803125  21.828125 21.81875  C 20.8125 22.834375  19.63125 23.634375  18.315625 24.190625  C 16.953125 24.765625  15.50625 25.059375  14.015625 25.059375  C 12.525 25.059375  11.075 24.76875  9.715625 24.190625  C 8.4 23.634375  7.21875 22.834375  6.203125 21.81875  C 5.890625 21.50625  5.6 21.178125  5.33125 20.8375  L 6.890625 19.615625  C 7.05625 19.4875  7 19.225  6.796875 19.175  L 1.896875 17.978125  C 1.740625 17.940625  1.5875 18.059375  1.5875 18.21875  L 1.5625 23.271875  C 1.5625 23.48125  1.803125 23.6  1.965625 23.46875  L 3.459375 22.3  C 5.915625 25.428125  9.73125 27.4375  14.015625 27.4375  C 21.34375 27.4375  27.303125 21.559375  27.4375 14.25625  Z " fill-rule="nonzero" fill="#000000" stroke="none" transform="matrix(1 0 0 1 15 2221 )" />
  </g>
</svg>