<?xml version="1.0" encoding="utf-8"?>
<svg version="1.1" xmlns:xlink="http://www.w3.org/1999/xlink" width="26px" height="28px" xmlns="http://www.w3.org/2000/svg">
  <g transform="matrix(1 0 0 1 -16 -1607 )">
    <path d="M 16 10  C 16.25 9.446875  15.803125 9  15.25 9  L 10.75 9  C 10.196875 9  9.75 9.446875  10 10  L 10 27  C 9.75 27.553125  10.196875 28  10.75 28  L 15.25 28  C 15.803125 28  16.25 27.553125  16 27  L 16 10  Z M 25.875 1  C 25.875 0.446875  25.428125 0  24.875 0  L 20.375 0  C 19.821875 0  19.375 0.446875  19 1  L 19 27  C 19.375 27.553125  19.821875 28  20.375 28  L 24.875 28  C 25.428125 28  25.875 27.553125  25.875 27  L 25.875 1  Z M 6.625 19  C 6.625 18.446875  6.178125 18  5.625 18  L 1.125 18  C 0.571875 18  0.125 18.446875  0.125 19  L 0.125 27  C 0.125 27.553125  0.571875 28  1.125 28  L 5.625 28  C 6.178125 28  6.625 27.553125  6.625 27  L 6.625 19  Z " fill-rule="nonzero" fill="#ffffff" stroke="none" transform="matrix(1 0 0 1 16 1607 )" />
  </g>
</svg>