<?xml version="1.0" encoding="utf-8"?>
<svg version="1.1" xmlns:xlink="http://www.w3.org/1999/xlink" width="24px" height="24px" xmlns="http://www.w3.org/2000/svg">
  <g transform="matrix(1 0 0 1 -17 -1813 )">
    <path d="M 24 12  C 24 5.371875  18.628125 0  12 0  C 5.371875 0  0 5.371875  0 12  L 0 23.25  C 0 23.665625  0.334375 24  0.75 24  L 6.5 24  C 7.603125 24  8.5 23.103125  8.5 22  L 8.5 15.5  C 8.5 14.396875  7.603125 13.5  6.5 13.5  L 2.25 13.5  L 2.25 12  C 2.25 6.615625  6.615625 2.25  12 2.25  C 17.384375 2.25  21.75 6.615625  21.75 12  L 21.75 13.5  L 17.5 13.5  C 16.396875 13.5  15.5 14.396875  15.5 15.5  L 15.5 22  C 15.5 23.103125  16.396875 24  17.5 24  L 23.25 24  C 23.665625 24  24 23.665625  24 23.25  L 24 12  Z M 2.25 15.75  L 6.25 15.75  L 6.25 21.75  L 2.25 21.75  L 2.25 15.75  Z M 21.75 15.75  L 21.75 21.75  L 17.75 21.75  L 17.75 15.75  L 21.75 15.75  Z " fill-rule="nonzero" fill="#ffffff" stroke="none" transform="matrix(1 0 0 1 17 1813 )" />
  </g>
</svg>