<?xml version="1.0" encoding="utf-8"?>
<svg version="1.1" xmlns:xlink="http://www.w3.org/1999/xlink" width="28px" height="28px" xmlns="http://www.w3.org/2000/svg">
  <g transform="matrix(1 0 0 1 -15 -1879 )">
    <path d="M 28 14  C 28 6.26875  21.73125 0  14 0  C 6.26875 0  0 6.26875  0 14  C 0 21.73125  6.26875 28  14 28  C 21.73125 28  28 21.73125  28 14  Z M 25.625 14  C 25.625 20.41875  20.41875 25.625  14 25.625  C 7.58125 25.625  2.375 20.41875  2.375 14  C 2.375 7.58125  7.58125 2.375  14 2.375  C 20.41875 2.375  25.625 7.58125  25.625 14  Z M 18.5625 19.31875  C 18.5625 19.18125  18.45 19.06875  18.3125 19.06875  L 12.68125 19.06875  L 12.68125 18.921875  C 13.5375 18.384375  14.053125 17.346875  14.053125 16.075  C 14.053125 15.634375  13.984375 15.203125  13.8875 14.79375  L 16.96875 14.79375  C 17.10625 14.79375  17.21875 14.68125  17.21875 14.54375  L 17.21875 13.60625  C 17.21875 13.46875  17.10625 13.35625  16.96875 13.35625  L 13.46875 13.35625  C 13.24375 12.65  13.05 11.928125  13.05 11.153125  C 13.05 9.79375  14.1125 8.959375  15.778125 8.959375  C 16.45 8.959375  17.10625 9.0875  17.665625 9.2875  C 17.828125 9.346875  17.996875 9.225  17.996875 9.05  L 17.996875 7.815625  C 17.996875 7.7125  17.93125 7.61875  17.834375 7.58125  C 17.246875 7.35625  16.465625 7.184375  15.6375 7.184375  C 12.734375 7.184375  10.903125 8.575  10.903125 10.94375  C 10.903125 11.765625  11.11875 12.56875  11.359375 13.353125  L 9.6875 13.353125  C 9.55 13.353125  9.4375 13.465625  9.4375 13.603125  L 9.4375 14.540625  C 9.4375 14.678125  9.55 14.790625  9.6875 14.790625  L 11.784375 14.790625  C 11.890625 15.25  11.96875 15.709375  11.96875 16.171875  C 11.96875 17.584375  11.06875 18.775  9.69375 19.115625  C 9.58125 19.14375  9.503125 19.24375  9.503125 19.359375  L 9.503125 20.5625  C 9.503125 20.7  9.615625 20.8125  9.753125 20.8125  L 18.3125 20.8125  C 18.45 20.8125  18.5625 20.7  18.5625 20.5625  L 18.5625 19.31875  Z " fill-rule="nonzero" fill="#ffffff" stroke="none" transform="matrix(1 0 0 1 15 1879 )" />
  </g>
</svg>