<?xml version="1.0" encoding="utf-8"?>
<svg version="1.1" xmlns:xlink="http://www.w3.org/1999/xlink" width="24px" height="26px" xmlns="http://www.w3.org/2000/svg">
  <g transform="matrix(1 0 0 1 -17 -2634 )">
    <path d="M 23.25 21.5  C 23.25 19.43125  21.56875 17.75  19.5 17.75  C 18.609375 17.75  17.7875 18.0625  17.14375 18.584375  L 10.66875 13.9  C 10.721875 13.609375  10.75 13.30625  10.75 13  C 10.75 12.69375  10.721875 12.39375  10.66875 12.1  L 17.14375 7.415625  C 17.7875 7.9375  18.609375 8.25  19.5 8.25  C 21.56875 8.25  23.25 6.56875  23.25 4.5  C 23.25 2.43125  21.56875 0.75  19.5 0.75  C 17.43125 0.75  15.75 2.43125  15.75 4.5  C 15.75 4.8625  15.8 5.209375  15.896875 5.540625  L 9.746875 9.99375  C 8.834375 8.784375  7.384375 8  5.75 8  C 2.9875 8  0.75 10.2375  0.75 13  C 0.75 15.7625  2.9875 18  5.75 18  C 7.384375 18  8.834375 17.215625  9.746875 16.00625  L 15.896875 20.459375  C 15.8 20.790625  15.75 21.140625  15.75 21.5  C 15.75 23.56875  17.43125 25.25  19.5 25.25  C 21.56875 25.25  23.25 23.56875  23.25 21.5  Z M 17.875 4.5  C 17.875 3.603125  18.603125 2.875  19.5 2.875  C 20.396875 2.875  21.125 3.603125  21.125 4.5  C 21.125 5.396875  20.396875 6.125  19.5 6.125  C 18.603125 6.125  17.875 5.396875  17.875 4.5  Z M 8.5 13  C 8.5 14.515625  7.265625 15.75  5.75 15.75  C 4.234375 15.75  3 14.515625  3 13  C 3 11.484375  4.234375 10.25  5.75 10.25  C 7.265625 10.25  8.5 11.484375  8.5 13  Z M 21.125 21.5  C 21.125 22.396875  20.396875 23.125  19.5 23.125  C 18.603125 23.125  17.875 22.396875  17.875 21.5  C 17.875 20.603125  18.603125 19.875  19.5 19.875  C 20.396875 19.875  21.125 20.603125  21.125 21.5  Z " fill-rule="nonzero" fill="#ffffff" stroke="none" transform="matrix(1 0 0 1 17 2634 )" />
  </g>
</svg>