<?xml version="1.0" encoding="utf-8"?>
<svg version="1.1" xmlns:xlink="http://www.w3.org/1999/xlink" width="28px" height="22px" xmlns="http://www.w3.org/2000/svg">
  <g transform="matrix(1 0 0 1 -15 -2155 )">
    <path d="M 28 9.875  C 28 9.321875  27.553125 8.875  27 8.875  L 23.625 8.875  L 23.625 5.325  C 23.625 4.771875  23.178125 4.325  22.625 4.325  L 12.78125 4.325  L 9.115625 0.81875  C 9.06875 0.774999999999999  9.00625 0.75  8.94375 0.75  L 1 0.75  C 0.446875 0.75  0 1.196875  0 1.75  L 0 20.25  C 0 20.803125  0.446875 21.25  1 21  L 22.8125 21  C 23.21875 21.25  23.5875 21.003125  23.740625 20.625  L 27.928125 10.25  C 27.975 10.13125  28 10.003125  28 9.875  Z M 2.25 15.1  L 2.25 3  L 8.140625 3  L 11.878125 6.575  L 21.375 6.575  L 21.375 9  L 5.4375 9  C 5.03125 8.875  4.6625 9.121875  4.509375 9.5  L 2.25 15.1  Z M 25.334375 11  L 22.103125 19  L 2.96875 19  L 6.196875 11  L 25.334375 11  Z " fill-rule="nonzero" fill="#000000" stroke="none" transform="matrix(1 0 0 1 15 2155 )" />
  </g>
</svg>