<?xml version="1.0" encoding="utf-8"?>
<svg version="1.1" xmlns:xlink="http://www.w3.org/1999/xlink" width="24px" height="16px" xmlns="http://www.w3.org/2000/svg">
  <g transform="matrix(1 0 0 1 -17 -2776 )">
    <path d="M 14.5 4.10625  C 14.5 4.24375  14.6125 4.35625  14.75 4.35625  L 17.59375 4.35625  L 17.59375 12.28125  L 20 12.28125  L 20 0.34375  C 20.0625 0.206250000000001  19.95 0.09375  19.8125 0.09375  L 18.30625 0.09375  C 18.190625 0.09375  18.0875 0.175000000000001  18.065625 0.290625  C 17.984375 0.668750000000001  17.85 0.987500000000001  17.6625 1.25625  C 17.4375 1.571875  17.165625 1.825  16.840625 2.01875  C 16.51875 2.2125  16.153125 2.346875  15.746875 2.421875  C 15.421875 2.48125  15.090625 2.515625  14.746875 2.51875  C 14.609375 2.521875  14.5 2.63125  14.5 2.76875  L 14.5 4.10625  Z M 23.46875 14.1875  C 23.46875 14.05  23.35625 13.9375  23.21875 13.9375  L 13.71875 13.9375  C 13.58125 13.9375  13.46875 14.05  13.46875 14.1875  L 13.46875 15.6875  C 13.46875 15.825  13.58125 15.9375  13.71875 15.9375  L 23.21875 15.9375  C 23.35625 15.9375  23.46875 15.825  23.46875 15.6875  L 23.46875 14.1875  Z M 11.078125 4.171875  C 10.78125 3.16875  10.378125 2.36875  9.871875 1.771875  C 9.36875 1.178125  8.796875 0.759375  8.146875 0.509375  C 7.48125 0.253125000000001  6.76875 0.125  6.009375 0.125  C 5.2625 0.125  4.559375 0.253125000000001  3.89375 0.509375  C 3.24375 0.759375  2.675 1.178125  2.18125 1.76875  C 1.684375 2.365625  1.284375 3.165625  0.984374999999998 4.175  C 0.684374999999998 5.190625  0.531249999999998 6.45625  0.531249999999998 7.971875  C 0.531249999999998 9.53125  0.684374999999998 10.828125  0.984374999999998 11.859375  C 1.284375 12.884375  1.684375 13.69375  2.18125 14.2875  C 2.675 14.878125  3.24375 15.296875  3.89375 15.546875  C 4.559375 15.803125  5.2625 15.93125  6.009375 15.93125  C 6.771875 15.93125  7.484375 15.803125  8.146875 15.546875  C 8.796875 15.296875  9.371875 14.878125  9.871875 14.284375  C 10.375 13.690625  10.778125 12.88125  11.078125 11.85625  C 11.378125 10.825  11.53125 9.528125  11.53125 7.96875  C 11.53125 6.45625  11.378125 5.190625  11.078125 4.171875  Z M 8.99375 7.971875  C 8.996875 8.434375  8.98125 8.9875  8.95 9.6375  C 8.91875 10.30625  8.81875 10.95  8.653125 11.571875  C 8.48125 12.21875  8.2 12.775  7.809375 13.240625  C 7.384375 13.75  6.771875 14  6.009375 14  C 5.259375 14  4.659375 13.746875  4.2375 13.2375  C 3.85625 12.775  3.578125 12.21875  3.40625 11.571875  C 3.240625 10.95  3.140625 10.303125  3.109375 9.6375  C 3.078125 8.9875  3.0625 8.434375  3.0625 7.975  C 3.0625 7.7  3.065625 7.36875  3.075 6.98125  C 3.08125 6.584375  3.109375 6.175  3.15625 5.75625  C 3.203125 5.33125  3.28125 4.909375  3.39375 4.490625  C 3.509375 4.059375  3.66875 3.66875  3.875 3.321875  C 4.090625 2.959375  4.36875 2.6625  4.709375 2.4375  C 5.065625 2.2  5.5 2.084375  6.00625 2.084375  C 6.509375 2.084375  6.946875 2.2  7.309375 2.434375  C 7.65625 2.659375  7.94375 2.953125  8.165625 3.315625  C 8.38125 3.665625  8.54375 4.059375  8.653125 4.49375  C 8.75625 4.90625  8.834375 5.325  8.8875 5.746875  C 8.94375 6.16875  8.975 6.578125  8.98125 6.978125  C 8.9875 7.365625  8.99375 7.696875  8.99375 7.971875  Z " fill-rule="nonzero" fill="#ffffff" stroke="none" transform="matrix(1 0 0 1 17 2776 )" />
  </g>
</svg>