<?xml version="1.0" encoding="utf-8"?>
<svg version="1.1" xmlns:xlink="http://www.w3.org/1999/xlink" width="22px" height="26px" xmlns="http://www.w3.org/2000/svg">
  <g transform="matrix(1 0 0 1 -18 -2565 )">
    <path d="M 21.996875 22.375  C 22 20.8375  21.00625 19.53125  19.625 19.059375  L 19.625 3  C 19.625 2.725  19.4 2.5  19.125 2.5  L 13.8125 2.5  L 13.8125 0.35  C 13.8125 0.1625  13.59375 0.0562499999999999  13.446875 0.171875  L 9.459375 3.321875  C 9.34375 3.4125  9.34375 3.5875  9.459375 3.675  L 13.44375 6.825  C 13.590625 6.940625  13.809375 6.8375  13.809375 6.646875  L 13.809375 4.5  L 17 4.5  L 17 19.059375  C 15.990625 19.528125  14.996875 20.8375  14.996875 22.375  C 14.996875 24.30625  16.565625 25.875  18.496875 25.875  C 20.428125 25.875  21.996875 24.30625  21.996875 22.375  Z M 20 22.375  C 20 23.203125  19.328125 23.875  18.5 23.875  C 17.671875 23.875  17 23.203125  17 22.375  C 17 21.546875  17.671875 20.875  18.5 20.875  C 19.328125 20.875  20 21.546875  20 22.375  Z M 5 6.940625  C 6.00625 6.46875  7 5.1625  7 3.625  C 7 1.69375  5.43125 0.125  3.5 0.125  C 1.56875 0.125  0 1.69375  0 3.625  C 0 5.1625  0.99375 6.46875  2.375 6.940625  L 2.375 19.0625  C 0.99375 19.53125  0 20.840625  0 22.378125  C 0 24.309375  1.56875 25.878125  3.5 25.878125  C 5.43125 25.878125  7 24.309375  7 22.378125  C 7 20.840625  6.00625 19.534375  5 19.0625  L 5 6.940625  Z M 3.5 5.125  C 2.671875 5.125  2 4.453125  2 3.625  C 2 2.796875  2.671875 2.125  3.5 2.125  C 4.328125 2.125  5 2.796875  5 3.625  C 5 4.453125  4.328125 5.125  3.5 5.125  Z M 3.5 20.875  C 4.328125 20.875  5 21.546875  5 22.375  C 5 23.203125  4.328125 23.875  3.5 23.875  C 2.671875 23.875  2 23.203125  2 22.375  C 2 21.546875  2.671875 20.875  3.5 20.875  Z " fill-rule="nonzero" fill="#000000" stroke="none" transform="matrix(1 0 0 1 18 2565 )" />
  </g>
</svg>