<?xml version="1.0" encoding="utf-8"?>
<svg version="1.1" xmlns:xlink="http://www.w3.org/1999/xlink" width="26px" height="26px" xmlns="http://www.w3.org/2000/svg">
  <g transform="matrix(1 0 0 1 -203 -2222 )">
    <path d="M 25.5 18.984375  C 25.5 18.953125  25.49375 18.925  25.484375 18.896875  C 25.4375 18.765625  25.29375 18.7  25.1625 18.746875  L 23 19.44375  L 23 2.625  C 23.25 1.45  22.3 0.5  21.125 1  L 4.875 1  C 3.7 0.5  2.75 1.45  3 2.625  L 3 19.44375  L 0.834375 18.746875  C 0.80625 18.7375  0.778125 18.73125  0.75 18.73125  C 0.6125 18.73125  0.5 18.84375  0.5 18.98125  L 0.5 20.84375  C 0.5 20.946875  0.565625 21.040625  0.665625 21.078125  L 12.65625 25.440625  C 12.878125 25.521875  13.11875 25.521875  13.340625 25.440625  L 25.334375 21.08125  C 25.434375 21.04375  25.5 20.95  25.5 20.846875  L 25.5 18.984375  Z M 21 20.2625  L 13 23.171875  L 5 20.2625  L 5 3  L 21 3  L 21 20.2625  Z M 17.896875 6.996875  C 17.89375 6.8625  17.78125 6.75  17.64375 6.75  L 15.940625 6.75  C 15.846875 6.75  15.759375 6.803125  15.71875 6.8875  L 13.071875 12.1625  L 12.96875 12.1625  L 10.321875 6.8875  C 10.278125 6.803125  10.19375 6.75  10.1 6.75  L 8.359375 6.75  C 8.31875 6.75  8.278125 6.759375  8.240625 6.78125  C 8.11875 6.846875  8.075 7  8.140625 7.11875  L 11.3875 13.10625  L 9.60625 13.10625  C 9.46875 13.10625  9.35625 13.21875  9.35625 13.35625  L 9.35625 14.203125  C 9.35625 14.340625  9.46875 14.453125  9.60625 14.453125  L 11.98125 14.453125  L 11.98125 15.671875  L 9.60625 15.671875  C 9.46875 15.671875  9.35625 15.784375  9.35625 15.921875  L 9.35625 16.76875  C 9.35625 16.90625  9.46875 17.01875  9.60625 17.01875  L 11.98125 17.01875  L 11.98125 19  C 11.98125 19.1375  12.09375 19.25  12.23125 19.25  L 13.790625 19.25  C 13.928125 19.25  14.040625 19.1375  14.040625 19  L 14.040625 17.015625  L 16.425 17.015625  C 16.5625 17.015625  16.675 16.903125  16.675 16.765625  L 16.675 15.91875  C 16.675 15.78125  16.5625 15.66875  16.425 15.66875  L 14.040625 15.66875  L 14.040625 14.45  L 16.425 14.45  C 16.5625 14.45  16.675 14.3375  16.675 14.2  L 16.675 13.353125  C 16.675 13.215625  16.5625 13.103125  16.425 13.103125  L 14.625 13.103125  L 17.865625 7.115625  C 17.884375 7.078125  17.896875 7.0375  17.896875 6.996875  Z " fill-rule="nonzero" fill="#ffffff" stroke="none" transform="matrix(1 0 0 1 203 2222 )" />
  </g>
</svg>