<?xml version="1.0" encoding="utf-8"?>
<svg version="1.1" xmlns:xlink="http://www.w3.org/1999/xlink" width="24px" height="24px" xmlns="http://www.w3.org/2000/svg">
  <g transform="matrix(1 0 0 1 -204 -1609 )">
    <path d="M 23 8.25  C 23.25 7.975  23.025 7.75  22.75 7.75  L 16.25 7.75  L 16.25 1.25  C 16.25 0.975  16.025 0.75  15.75 1  L 1.25 1  C 0.975 0.75  0.75 0.975  1 1.25  L 1 15.75  C 0.75 16.025  0.975 16.25  1.25 16.25  L 7.75 16.25  L 7.75 22.75  C 7.75 23.025  7.975 23.25  8.25 23  L 22.75 23  C 23.025 23.25  23.25 23.025  23 22.75  L 23 8.25  Z M 8.25 7.75  C 7.975 7.75  7.75 7.975  7.75 8.25  L 7.75 14.125  L 3 14.125  L 3 3  L 14.125 3  L 14.125 7.75  L 8.25 7.75  Z M 9.875 9.875  L 14.125 9.875  L 14.125 14.125  L 9.875 14.125  L 9.875 9.875  Z M 21 9.875  L 21 21  L 9.875 21  L 9.875 16.25  L 15.75 16.25  C 16.025 16.25  16.25 16.025  16.25 15.75  L 16.25 9.875  L 21 9.875  Z " fill-rule="nonzero" fill="#ffffff" stroke="none" transform="matrix(1 0 0 1 204 1609 )" />
  </g>
</svg>