<?xml version="1.0" encoding="utf-8"?>
<svg version="1.1" xmlns:xlink="http://www.w3.org/1999/xlink" width="24px" height="23px" xmlns="http://www.w3.org/2000/svg">
  <g transform="matrix(1 0 0 1 -204 -1746 )">
    <path d="M 8.303125 5.521875  C 8.175 5.6875  8.290625 5.928125  8.5 5.928125  L 11 5.928125  L 11 16.5  C 10.809375 16.6375  10.921875 16.75  11.059375 16.75  L 12.934375 16.75  C 13.071875 16.75  13.184375 16.6375  13 16.5  L 13 5.928125  L 15.5 5.928125  C 15.709375 5.928125  15.825 5.6875  15.696875 5.525  L 12.196875 1.09375  C 12.096875 0.965625  11.903125 0.965625  11.803125 1.09375  L 8.303125 5.521875  Z M 23.6875 15.8125  C 23.6875 15.675  23.575 15.5625  23.4375 15.5625  L 21.5625 15.5625  C 21.425 15.5625  21.3125 15.675  21.3125 15.8125  L 21.3125 20.625  L 2.6875 20.625  L 2.6875 15.8125  C 2.6875 15.675  2.575 15.5625  2.4375 15.5625  L 0.5625 15.5625  C 0.425 15.5625  0.3125 15.675  0.3125 15.8125  L 0.3125 22  C 0.3125 22.553125  0.759375 23  1.3125 23  L 22.6875 23  C 23.240625 23  23.6875 22.553125  23.6875 22  L 23.6875 15.8125  Z " fill-rule="nonzero" fill="#ffffff" stroke="none" transform="matrix(1 0 0 1 204 1746 )" />
  </g>
</svg>