<?xml version="1.0" encoding="utf-8"?>
<svg version="1.1" xmlns:xlink="http://www.w3.org/1999/xlink" width="26px" height="26px" xmlns="http://www.w3.org/2000/svg">
  <g transform="matrix(1 0 0 1 -203 -2702 )">
    <path d="M 25 1.5  C 25.5 0.946875  25.053125 0.5  24.5 1  L 1.5 1  C 0.946875 0.5  0.5 0.946875  1 1.5  L 1 24.5  C 0.5 25.053125  0.946875 25.5  1.5 25  L 24.5 25  C 25.053125 25.5  25.5 25.053125  25 24.5  L 25 1.5  Z M 23 3  L 23 23  L 3 23  L 3 3  L 23 3  Z M 8.5875 14.321875  L 8.5875 14.325  C 6.88125 14.325  5.5 15.70625  5.5 17.4125  C 5.5 19.11875  6.88125 20.5  8.5875 20.5  C 10.29375 20.5  11.675 19.11875  11.675 17.4125  L 11.675 16.0875  L 14.321875 16.0875  L 14.321875 17.4125  C 14.321875 19.11875  15.703125 20.5  17.409375 20.5  C 19.115625 20.5  20.496875 19.11875  20.496875 17.4125  C 20.496875 15.70625  19.115625 14.325  17.409375 14.325  L 16.084375 14.325  L 16.084375 11.678125  L 17.409375 11.678125  C 19.115625 11.678125  20.496875 10.296875  20.496875 8.590625  C 20.496875 6.884375  19.115625 5.503125  17.409375 5.503125  C 15.703125 5.503125  14.321875 6.884375  14.321875 8.590625  L 14.321875 9.915625  L 11.675 9.915625  L 11.675 8.590625  C 11.675 6.884375  10.29375 5.503125  8.5875 5.503125  C 6.88125 5.503125  5.5 6.88125  5.5 8.5875  C 5.5 10.29375  6.88125 11.675  8.5875 11.675  L 9.9125 11.675  L 9.9125 14.321875  L 8.5875 14.321875  Z M 9.9125 16.0875  L 9.9125 17.4125  C 9.9125 18.14375  9.31875 18.7375  8.5875 18.7375  C 7.85625 18.7375  7.2625 18.14375  7.2625 17.4125  C 7.2625 16.68125  7.85625 16.0875  8.5875 16.0875  L 9.9125 16.0875  Z M 16.0875 9.9125  L 16.0875 8.5875  C 16.0875 7.85625  16.68125 7.2625  17.4125 7.2625  C 18.14375 7.2625  18.7375 7.85625  18.7375 8.5875  C 18.7375 9.31875  18.14375 9.9125  17.4125 9.9125  L 16.0875 9.9125  Z M 16.0875 17.4125  L 16.0875 16.0875  L 17.4125 16.0875  C 18.14375 16.0875  18.7375 16.68125  18.7375 17.4125  C 18.7375 18.14375  18.14375 18.7375  17.4125 18.7375  C 16.68125 18.7375  16.0875 18.14375  16.0875 17.4125  Z M 11.675 14.321875  L 11.675 11.675  L 14.321875 11.675  L 14.321875 14.321875  L 11.675 14.321875  Z M 9.9125 9.9125  L 8.5875 9.9125  C 7.85625 9.9125  7.2625 9.31875  7.2625 8.5875  C 7.2625 7.85625  7.85625 7.2625  8.5875 7.2625  C 9.31875 7.2625  9.9125 7.85625  9.9125 8.5875  L 9.9125 9.9125  Z " fill-rule="nonzero" fill="#000000" stroke="none" transform="matrix(1 0 0 1 203 2702 )" />
  </g>
</svg>