<?xml version="1.0" encoding="utf-8"?>
<svg version="1.1" xmlns:xlink="http://www.w3.org/1999/xlink" width="24px" height="28px" xmlns="http://www.w3.org/2000/svg">
  <g transform="matrix(1 0 0 1 -204 -2083 )">
    <path d="M 17.25 8  C 17.3875 8  17.5 7.8875  17.5 7.75  L 17.5 6.25  C 17.5 6.1125  17.3875 6  17.25 6  L 5.25 6  C 5.1125 6  5 6.1125  5 6.25  L 5 7.75  C 5 7.8875  5.1125 8  5.25 8  L 17.25 8  Z M 11 10.5  L 5.25 10.5  C 5.1125 10.5  5 10.6125  5 10.75  L 5 12.25  C 5 12.3875  5.1125 12.5  5.25 12.5  L 11 12.5  C 11.1375 12.5  11.25 12.3875  11.25 12.25  L 11.25 10.75  C 11.25 10.6125  11.1375 10.5  11 10.5  Z M 10 24.875  C 10 24.7375  9.8875 24.625  9.75 24.625  L 2.5 24.625  L 2.5 3  L 20 3  L 20 13.375  C 20 13.5125  20.1125 13.625  20.25 13.625  L 22 13.625  C 22.1375 13.625  22.25 13.5125  22 13.375  L 22 1.375  C 22.25 0.821875  21.803125 0.375  21.25 0.375  L 1.25 0.375  C 0.696875 0.375  0.25 0.821875  0.25 1.375  L 0.25 25.875  C 0.25 26.428125  0.696875 26.875  1.25 26.875  L 9.75 26.875  C 9.8875 26.875  10 26.7625  10 26.625  L 10 24.875  Z M 23.678125 26.584375  C 23.775 26.4875  23.775 26.33125  23.678125 26.234375  L 20.7625 23.31875  C 21.459375 22.396875  21.875 21.246875  21.875 20  C 21.875 16.9625  19.4125 14.5  16.375 14.5  C 13.3375 14.5  10.875 16.9625  10.875 20  C 10.875 23.0375  13.3375 25.5  16.375 25.5  C 17.49375 25.5  18.53125 25.165625  19.4 24.59375  L 22.359375 27.553125  C 22.409375 27.603125  22.471875 27.625  22.534375 27.625  C 22.596875 27.625  22.6625 27.6  22.709375 27.553125  L 23.678125 26.584375  Z M 19.875 20  C 19.875 21.934375  18.309375 23.5  16.375 23.5  C 14.440625 23.5  12.875 21.934375  12.875 20  C 12.875 18.065625  14.440625 16.5  16.375 16.5  C 18.309375 16.5  19.875 18.065625  19.875 20  Z " fill-rule="nonzero" fill="#000000" stroke="none" transform="matrix(1 0 0 1 204 2083 )" />
  </g>
</svg>