<?xml version="1.0" encoding="utf-8"?>
<svg version="1.1" xmlns:xlink="http://www.w3.org/1999/xlink" width="26px" height="16px" xmlns="http://www.w3.org/2000/svg">
  <g transform="matrix(1 0 0 1 -203 -2776 )">
    <path d="M 23.403125 8.015625  C 23.728125 8.01875  24.234375 8.071875  24.3625 8.121875  C 24.428125 8.146875  24.5 8.1125  24.525 8.046875  C 24.53125 8.034375  24.53125 8.01875  24.53125 8.003125  L 24.53125 6.18125  C 24.53125 6.125  24.496875 6.078125  24.44375 6.0625  C 24.25625 6.00625  23.90625 5.96875  23.59375 5.96875  C 22.565625 5.96875  21.665625 6.490625  21.296875 7.25625  L 21.296875 6.3625  C 21.296875 6.225  21.184375 6.1125  21.046875 6.1125  L 19.40625 6.1125  C 19.26875 6.1125  19.15625 6.225  19.15625 6.3625  L 19.15625 14.78125  C 19.15625 14.91875  19.26875 15.03125  19.40625 15.03125  L 21.11875 15.03125  C 21.25625 15.03125  21.36875 14.91875  21.36875 14.78125  L 21.36875 9.896875  C 21.36875 8.765625  22.184375 8.015625  23.403125 8.015625  Z M 11.71875 10.915625  C 11.71875 8.721875  10.5125 7.525  7.58125 6.85625  L 5.871875 6.4625  C 3.959375 6.01875  3.13125 5.375  3.13125 4.253125  C 3.13125 2.859375  4.353125 1.95625  6.159375 1.95625  C 7.809375 1.95625  9.015625 2.784375  9.28125 4.109375  L 11.46875 4.109375  C 11.246875 1.7375  9.1125 0.09375  6.16875 0.09375  C 2.940625 0.09375  0.824999999999999 1.828125  0.824999999999999 4.4375  C 0.824999999999999 6.58125  2.03125 7.859375  4.64375 8.453125  L 6.56875 8.9  C 8.55625 9.365625  9.43125 10.059375  9.43125 11.246875  C 9.43125 12.625  8.071875 13.596875  6.228125 13.596875  C 4.334375 13.596875  2.9625 12.746875  2.703125 11.39375  L 0.46875 11.39375  C 0.69375 13.890625  2.83125 15.46875  6.065625 15.46875  C 9.571875 15.46875  11.71875 13.725  11.71875 10.915625  Z M 23.28125 14.78125  C 23.28125 15.4025703435596  23.7849296564404 15.90625  24.40625 15.90625  C 25.0275703435596 15.90625  25.53125 15.4025703435596  25.53125 14.78125  C 25.53125 14.1599296564404  25.0275703435596 13.65625  24.40625 13.65625  C 23.7849296564404 13.65625  23.28125 14.1599296564404  23.28125 14.78125  Z M 17.65625 6.55625  C 17.65625 6.41875  17.54375 6.30625  17.40625 6.30625  L 15.8 6.30625  L 15.8 4.375  C 15.8 4.2375  15.6875 4.125  15.55 4.125  L 13.840625 4.125  C 13.703125 4.125  13.590625 4.2375  13.590625 4.375  L 13.590625 6.30625  L 12.46875 6.30625  C 12.33125 6.30625  12.21875 6.41875  12.21875 6.55625  L 12.21875 7.878125  C 12.21875 8.015625  12.33125 8.128125  12.46875 8.128125  L 13.590625 8.128125  L 13.590625 12.7375  C 13.590625 14.49375  14.446875 15.21875  16.5 15.21875  C 16.865625 15.21875  17.2375 15.18125  17.55625 15.121875  C 17.615625 15.1125  17.65625 15.059375  17.65625 15  L 17.65625 13.459375  C 17.65625 13.390625  17.6 13.334375  17.53125 13.334375  L 17.51875 13.334375  C 17.365625 13.35  17.325 13.353125  17.259375 13.359375  C 17.13125 13.36875  17.015625 13.375  16.865625 13.375  C 16.1125 13.375  15.8 13.053125  15.8 12.2625  L 15.8 8.128125  L 17.40625 8.128125  C 17.54375 8.128125  17.65625 8.015625  17.65625 7.878125  L 17.65625 6.55625  Z " fill-rule="nonzero" fill="#ffffff" stroke="none" transform="matrix(1 0 0 1 203 2776 )" />
  </g>
</svg>