<?xml version="1.0" encoding="utf-8"?>
<svg version="1.1" xmlns:xlink="http://www.w3.org/1999/xlink" width="26px" height="24px" xmlns="http://www.w3.org/2000/svg">
  <g transform="matrix(1 0 0 1 -203 -2359 )">
    <path d="M 1 7.75  C 1 7.8875  1.1125 8  1.25 8  L 3 8  C 3.1375 8  3.25 7.8875  3.25 7.75  L 3.25 2.25  L 8.75 2.25  C 8.8875 2.25  9 2.1375  9 2  L 9 0.25  C 9 0.1125  8.8875 0  8.75 0  L 3.125 0  C 1.95 0  1 0.95  1 2.125  L 1 7.75  Z M 17 2  C 17 2.1375  17.1125 2.25  17.25 2.25  L 22.75 2.25  L 22.75 7.75  C 22.75 7.8875  22.8625 8  23 8  L 24.75 8  C 24.8875 8  25 7.8875  25 7.75  L 25 2.125  C 25 0.95  24.05 0  22.875 0  L 17.25 0  C 17.1125 0  17 0.1125  17 0.25  L 17 2  Z M 9 22  C 9 21.8625  8.8875 21.75  8.75 21.75  L 3.25 21.75  L 3.25 16.25  C 3.25 16.1125  3.1375 16  3 16  L 1.25 16  C 1.1125 16  1 16.1125  1 16.25  L 1 21.875  C 1 23.05  1.95 24  3.125 24  L 8.75 24  C 8.8875 24  9 23.8875  9 23.75  L 9 22  Z M 25 16.25  C 25 16.1125  24.8875 16  24.75 16  L 23 16  C 22.8625 16  22.75 16.1125  22.75 16.25  L 22.75 21.75  L 17.25 21.75  C 17.1125 21.75  17 21.8625  17 22  L 17 23.75  C 17 23.8875  17.1125 24  17.25 24  L 22.875 24  C 24.05 24  25 23.05  25 21.875  L 25 16.25  Z M 25.5 11.125  C 25.5 10.9875  25.3875 10.875  25.25 11  L 0.75 11  C 0.6125 10.875  0.5 10.9875  0.5 11.125  L 0.5 12.875  C 0.5 13.0125  0.6125 13.125  0.75 13  L 25.25 13  C 25.3875 13.125  25.5 13.0125  25.5 12.875  L 25.5 11.125  Z " fill-rule="nonzero" fill="#000000" stroke="none" transform="matrix(1 0 0 1 203 2359 )" />
  </g>
</svg>