<?xml version="1.0" encoding="utf-8"?>
<svg version="1.1" xmlns:xlink="http://www.w3.org/1999/xlink" width="22px" height="26px" xmlns="http://www.w3.org/2000/svg">
  <g transform="matrix(1 0 0 1 -205 -2290 )">
    <path d="M 3 0.75  C 3 0.6125  2.8875 0.5  2.75 0.5  L 0.25 0.5  C 0.1125 0.5  0 0.6125  0 0.75  L 0 25.25  C 0 25.3875  0.1125 25.5  0.25 25.5  L 2.75 25.5  C 2.8875 25.5  3 25.3875  3 25.25  L 3 0.75  Z M 22 1.540625  C 22 0.965625  21.553125 0.5  21 1  L 6.5 1  C 5.946875 0.5  5.5 0.965625  5.5 1.540625  L 5.5 24.45625  C 5.5 25.03125  5.946875 25.496875  6.5 25  L 21 25  C 21.553125 25.496875  22 25.03125  22 24.45625  L 22 1.540625  Z M 12.75 17.75  L 12.75 23.25  L 7.75 23.25  L 7.75 17.75  L 12.75 17.75  Z M 12.75 10.25  L 12.75 15.75  L 7.75 15.75  L 7.75 10.25  L 12.75 10.25  Z M 12.75 2.75  L 12.75 8.25  L 7.75 8.25  L 7.75 2.75  L 12.75 2.75  Z M 19.75 17.75  L 19.75 23.25  L 14.75 23.25  L 14.75 17.75  L 19.75 17.75  Z M 19.75 10.25  L 19.75 15.75  L 14.75 15.75  L 14.75 10.25  L 19.75 10.25  Z M 19.75 2.75  L 19.75 8.25  L 14.75 8.25  L 14.75 2.75  L 19.75 2.75  Z " fill-rule="nonzero" fill="#000000" stroke="none" transform="matrix(1 0 0 1 205 2290 )" />
  </g>
</svg>