<?xml version="1.0" encoding="utf-8"?>
<svg version="1.1" xmlns:xlink="http://www.w3.org/1999/xlink" width="24px" height="26px" xmlns="http://www.w3.org/2000/svg">
  <g transform="matrix(1 0 0 1 -388 -2016 )">
    <path d="M 16.94375 17.065625  C 17.021875 17.1125  17.115625 17.11875  17.196875 17.075  C 17.953125 16.66875  18.81875 16.4375  19.740625 16.4375  L 19.74375 16.4375  C 19.8375 16.4375  19.88125 16.325  19.8125 16.2625  C 18.85 15.4  17.7625 14.709375  16.571875 14.20625  C 16.559375 14.2  16.546875 14.196875  16.534375 14.190625  C 18.475 12.78125  19.7375 10.490625  19.7375 7.90625  C 19.7375 3.625  16.275 0.15625  12.003125 0.15625  C 7.73125 0.15625  4.271875 3.625  4.271875 7.90625  C 4.271875 10.490625  5.534375 12.78125  7.478125 14.190625  C 7.465625 14.196875  7.453125 14.2  7.440625 14.20625  C 6.04375 14.796875  4.790625 15.64375  3.7125 16.725  C 2.634375 17.803125  1.790625 19.059375  1.2 20.459375  C 0.621875 21.828125  0.3125 23.28125  0.28125 24.775  C 0.278125 24.915625  0.390625 25.03125  0.53125 25.03125  L 2.403125 25.03125  C 2.5375 25.03125  2.65 24.921875  2.653125 24.7875  C 2.715625 22.375  3.68125 20.115625  5.390625 18.403125  C 7.15625 16.63125  9.50625 15.65625  12.00625 15.65625  C 13.778125 15.65625  15.478125 16.146875  16.94375 17.065625  Z M 15.8 11.70625  C 14.784375 12.721875  13.4375 13.28125  12.00625 13.28125  C 10.575 13.28125  9.228125 12.721875  8.2125 11.70625  C 7.2 10.690625  6.640625 9.340625  6.640625 7.90625  C 6.640625 6.471875  7.2 5.121875  8.2125 4.10625  C 9.225 3.090625  10.571875 2.53125  12.00625 2.53125  C 13.440625 2.53125  14.784375 3.090625  15.8 4.10625  C 16.8125 5.121875  17.371875 6.471875  17.371875 7.90625  C 17.371875 9.340625  16.8125 10.690625  15.8 11.70625  Z M 23.75 20.96875  C 23.75 20.83125  23.6375 20.71875  23.5 20.71875  L 20.875 20.71875  L 20.875 18.09375  C 20.875 17.95625  20.7625 17.84375  20.625 17.84375  L 18.875 17.84375  C 18.7375 17.84375  18.625 17.95625  18.625 18.09375  L 18.625 20.71875  L 16 20.71875  C 15.8625 20.71875  15.75 20.83125  15.75 20.96875  L 15.75 22.71875  C 15.75 22.85625  15.8625 22.96875  16 22.96875  L 18.625 22.96875  L 18.625 25.59375  C 18.625 25.73125  18.7375 25.84375  18.875 25.84375  L 20.625 25.84375  C 20.7625 25.84375  20.875 25.73125  20.875 25.59375  L 20.875 22.96875  L 23.5 22.96875  C 23.6375 22.96875  23.75 22.85625  23.75 22.71875  L 23.75 20.96875  Z " fill-rule="nonzero" fill="#ffffff" stroke="none" transform="matrix(1 0 0 1 388 2016 )" />
  </g>
</svg>