<?xml version="1.0" encoding="utf-8"?>
<svg version="1.1" xmlns:xlink="http://www.w3.org/1999/xlink" width="26px" height="26px" xmlns="http://www.w3.org/2000/svg">
  <g transform="matrix(1 0 0 1 -387 -1676 )">
    <path d="M 25.5 18  C 25.5 13.859375  22.140625 10.5  18 10.5  C 14.240625 10.5  11.128125 13.265625  10.584375 16.875  L 7 16.875  C 6.515625 16.875  6.125 16.484375  6.125 16  L 6.125 4.625  L 15.21875 4.625  C 15.6625 5.725  16.740625 6.5  18 6.5  C 19.65625 6.5  21 5.15625  21 3.5  C 21 1.84375  19.65625 0.5  18 0.5  C 16.740625 0.5  15.6625 1.275  15.21875 2.375  L 0.5 2.375  L 0.5 4.625  L 4 4.625  L 4 16  C 3.875 17.725  5.275 19.125  7 19.125  L 10.584375 19.125  C 11.128125 22.734375  14.240625 25.5  18 25.5  C 22.140625 25.5  25.5 22.140625  25.5 18  Z M 22 17.1875  L 22 18.8125  C 22 18.95  21.8875 19.0625  21.75 19.0625  L 19.0625 19.0625  L 19.0625 21.75  C 19.0625 21.8875  18.95 22  18.8125 22  L 17.1875 22  C 17.05 22  16.9375 21.8875  16.9375 21.75  L 16.9375 19.0625  L 14.25 19.0625  C 14.1125 19.0625  14 18.95  14 18.8125  L 14 17.1875  C 14 17.05  14.1125 16.9375  14.25 16.9375  L 16.9375 16.9375  L 16.9375 14.25  C 16.9375 14.1125  17.05 14  17.1875 14  L 18.8125 14  C 18.95 14  19.0625 14.1125  19.0625 14.25  L 19.0625 16.9375  L 21.75 16.9375  C 21.8875 16.9375  22 17.05  22 17.1875  Z " fill-rule="nonzero" fill="#ffffff" stroke="none" transform="matrix(1 0 0 1 387 1676 )" />
  </g>
</svg>