<?xml version="1.0" encoding="utf-8"?>
<svg version="1.1" xmlns:xlink="http://www.w3.org/1999/xlink" width="26px" height="26px" xmlns="http://www.w3.org/2000/svg">
  <g transform="matrix(1 0 0 1 -387 -1812 )">
    <path d="M 25.815625 16.840625  L 22.61875 13  L 25.81875 9.159375  C 25.90625 9.053125  25.89375 8.896875  25.7875 8.80625  C 25.74375 8.76875  25.6875 8.746875  25.628125 8.746875  L 23.91875 8.746875  C 23.84375 8.746875  23.775 8.78125  23.728125 8.8375  L 21.4375 11.584375  L 19.153125 8.840625  C 19.10625 8.784375  19.034375 8.75  18.9625 8.75  L 17.25 8.75  C 17.190625 8.75  17.134375 8.771875  17.090625 8.809375  C 16.984375 8.896875  16.96875 9.05625  17.059375 9.1625  L 20.25625 13  L 17.05625 16.840625  C 16.96875 16.946875  16.98125 17.103125  17.0875 17.19375  C 17.13125 17.23125  17.1875 17.253125  17.246875 17.253125  L 18.95625 17.253125  C 19.03125 17.253125  19.1 17.21875  19.146875 17.1625  L 21.43125 14.41875  L 23.715625 17.1625  C 23.7625 17.21875  23.834375 17.253125  23.90625 17.253125  L 25.625 17.253125  C 25.684375 17.253125  25.740625 17.23125  25.784375 17.19375  C 25.890625 17.10625  25.90625 16.946875  25.815625 16.840625  Z M 14 11.75  C 14 11.6125  13.8875 11.5  13.75 12  L 0.75 12  C 0.6125 11.5  0.5 11.6125  0.5 11.75  L 0.5 14.25  C 0.5 14.3875  0.6125 14.5  0.75 14  L 13.75 14  C 13.8875 14.5  14 14.3875  14 14.25  L 14 11.75  Z M 11.3125 18.0625  C 11.3125 17.959375  11.228125 17.875  11.125 17.875  L 9.25 17.875  C 9.146875 17.875  9.0625 17.959375  9.0625 18.0625  L 9.0625 23.25  L 1.25 23.25  C 1.146875 23.25  1.0625 23.334375  1.0625 23.4375  L 1.0625 25.3125  C 1.0625 25.415625  1.146875 25.5  1.25 25.5  L 10.375 25.5  C 10.89375 25.5  11.3125 25.08125  11.3125 24.5625  L 11.3125 18.0625  Z M 1.0625 2.5625  C 1.0625 2.665625  1.146875 2.75  1.25 2.75  L 9.0625 2.75  L 9.0625 7.9375  C 9.0625 8.040625  9.146875 8.125  9.25 8.125  L 11.125 8.125  C 11.228125 8.125  11.3125 8.040625  11.3125 7.9375  L 11.3125 1.4375  C 11.3125 0.91875  10.89375 0.5  10.375 0.5  L 1.25 0.5  C 1.146875 0.5  1.0625 0.584375  1.0625 0.6875  L 1.0625 2.5625  Z " fill-rule="nonzero" fill="#ffffff" stroke="none" transform="matrix(1 0 0 1 387 1812 )" />
  </g>
</svg>