<?xml version="1.0" encoding="utf-8"?>
<svg version="1.1" xmlns:xlink="http://www.w3.org/1999/xlink" width="16px" height="22px" xmlns="http://www.w3.org/2000/svg">
  <g transform="matrix(1 0 0 1 -115 -156 )">
    <path d="M 13.13778125 10.47028125  C 13.48184375 10.74059375  13.48184375 11.25940625  13.13778125 11.5296875  L 1.16246875 20.9366875  C 0.7171875 21.2864375  0.0625 20.9711875  0 20.407  L 0 1.5929375  C 0.0625 1.028875  0.7171875 0.713562500000002  1.16246875 1.0633125  L 13.13778125 10.47028125  Z M 13.4375 21.75  C 13.4375 21.8880711874577  13.5494288125423 22  13.6875 22  L 15.6875 22  C 15.8255711874577 22  15.9375 21.8880711874577  16 21.75  L 16 0.25  C 15.9375 0.111928812542302  15.8255711874577 0  15.6875 0  L 13.6875 0  C 13.5494288125423 0  13.4375 0.111928812542302  13.4375 0.25  L 13.4375 21.75  Z " fill-rule="nonzero" fill="#ffffff" stroke="none" transform="matrix(1 0 0 1 115 156 )" />
  </g>
</svg>