<?xml version="1.0" encoding="utf-8"?>
<svg version="1.1" xmlns:xlink="http://www.w3.org/1999/xlink" width="24px" height="28px" xmlns="http://www.w3.org/2000/svg">
  <g transform="matrix(1 0 0 1 -388 -2083 )">
    <path d="M 17.5 7.75  L 17.5 6.25  C 17.5 6.1125  17.3875 6  17.25 6  L 5.25 6  C 5.1125 6  5 6.1125  5 6.25  L 5 7.75  C 5 7.8875  5.1125 8  5.25 8  L 17.25 8  C 17.3875 8  17.5 7.8875  17.5 7.75  Z M 17.5 10.75  C 17.5 10.6125  17.3875 10.5  17.25 11  L 5.25 11  C 5.1125 10.5  5 10.6125  5 10.75  L 5 12.25  C 5 12.3875  5.1125 12.5  5.25 13  L 17.25 13  C 17.3875 12.5  17.5 12.3875  17.5 12.25  L 17.5 10.75  Z M 11.25 15.25  C 11.25 15.1125  11.1375 15  11 15  L 5.25 15  C 5.1125 15  5 15.1125  5 15.25  L 5 16.75  C 5 16.8875  5.1125 17  5.25 17  L 11 17  C 11.1375 17  11.25 16.8875  11.25 16.75  L 11.25 15.25  Z M 9.75 24.875  C 9.75 24.7375  9.6375 24.625  9.5 24.625  L 2.5 24.625  L 2.5 3  L 20 3  L 20 13.375  C 20 13.5125  20.1125 13.625  20.25 13.625  L 22 13.625  C 22.1375 13.625  22.25 13.5125  22 13.375  L 22 1.375  C 22.25 0.821875  21.803125 0.375  21.25 0.375  L 1.25 0.375  C 0.696875 0.375  0.25 0.821875  0.25 1.375  L 0.25 25.875  C 0.25 26.428125  0.696875 26.875  1.25 26.875  L 9.5 26.875  C 9.6375 26.875  9.75 26.7625  9.75 26.625  L 9.75 24.875  Z M 23.75 27.365625  C 23.659375 25.19375  22.43125 23.315625  20.65 22.3  C 21.55625 21.478125  22.125 20.290625  22.125 18.96875  C 22.125 16.484375  20.109375 14.46875  17.625 14.46875  C 15.140625 14.46875  13.125 16.484375  13.125 18.96875  C 13.125 20.290625  13.69375 21.478125  14.6 22.3  C 12.81875 23.315625  11.59375 25.196875  11.5 27.365625  C 11.49375 27.50625  11.609375 27.625  11.75 27.625  L 13.253125 27.625  C 13.384375 27.625  13.49375 27.521875  13.503125 27.3875  C 13.625 25.225  15.428125 23.5  17.625 23.5  C 19.821875 23.5  21.625 25.225  21.746875 27.3875  C 21.753125 27.51875  21.8625 27.625  21.996875 27.625  L 23.5 27.625  C 23.64375 27.625  23.75625 27.50625  23.75 27.365625  Z M 15.125 18.96875  C 15.125 17.5875  16.24375 16.46875  17.625 16.46875  C 19.00625 16.46875  20.125 17.5875  20.125 18.96875  C 20.125 20.35  19.00625 21.46875  17.625 21.46875  C 16.24375 21.46875  15.125 20.35  15.125 18.96875  Z " fill-rule="nonzero" fill="#ffffff" stroke="none" transform="matrix(1 0 0 1 388 2083 )" />
  </g>
</svg>