<?xml version="1.0" encoding="utf-8"?>
<svg version="1.1" xmlns:xlink="http://www.w3.org/1999/xlink" width="24px" height="28px" xmlns="http://www.w3.org/2000/svg">
  <g transform="matrix(1 0 0 1 -388 -2426 )">
    <path d="M 5.375 8.25  C 5.375 9.28553390593274  6.21446609406726 10.125  7.25 10.125  C 8.28553390593274 10.125  9.125 9.28553390593274  9.125 8.25  C 9.125 7.21446609406726  8.28553390593274 6.375  7.25 6.375  C 6.21446609406726 6.375  5.375 7.21446609406726  5.375 8.25  Z M 23.625 1  C 23.625 0.446875  23.178125 0  22.625 0  L 1.375 0  C 0.821875 0  0.375 0.446875  0.375 1  L 0.375 21.625  C 0.375 22.178125  0.821875 22.625  1.375 22.625  L 22.625 22.625  C 23.178125 22.625  23.625 22.178125  23.625 21.625  L 23.625 1  Z M 21.625 2  L 21.625 20.625  L 2.375 20.625  L 2.375 2  L 21.625 2  Z M 14.875 8.25  C 14.875 9.28553390593274  15.7144660940673 10.125  16.75 10.125  C 17.7855339059327 10.125  18.625 9.28553390593274  18.625 8.25  C 18.625 7.21446609406726  17.7855339059327 6.375  16.75 6.375  C 15.7144660940673 6.375  14.875 7.21446609406726  14.875 8.25  Z M 23.621875 26.625  C 23.625 26.071875  23.209375 25.625  22.69375 25.625  L 1.30625 25.625  C 0.790625 25.625  0.375 26.071875  0.375 26.625  L 0.375 27.75  C 0.375 27.8875  0.478125 28  0.60625 28  L 23.390625 28  C 23.51875 28  23.621875 27.8875  23.621875 27.75  L 23.621875 26.625  Z M 17 14.125  C 17 13.9875  16.8875 13.875  16.75 13.875  L 7.25 13.875  C 7.1125 13.875  7 13.9875  7 14.125  L 7 16  C 7 16.1375  7.1125 16.25  7.25 16.25  L 16.75 16.25  C 16.8875 16.25  17 16.1375  17 16  L 17 14.125  Z " fill-rule="nonzero" fill="#ffffff" stroke="none" transform="matrix(1 0 0 1 388 2426 )" />
  </g>
</svg>