<?xml version="1.0" encoding="utf-8"?>
<svg version="1.1" xmlns:xlink="http://www.w3.org/1999/xlink" width="28px" height="14px" xmlns="http://www.w3.org/2000/svg">
  <g transform="matrix(1 0 0 1 -386 -2777 )">
    <path d="M 27.75 0.59375  C 27.75 0.456250000000001  27.6375 0.34375  27.5 0.34375  L 19.625 0.34375  C 19.4875 0.34375  19.375 0.456250000000001  19 0.59375  L 19 13.28125  C 19.375 13.41875  19.4875 13.53125  19.625 13.53125  L 21.475 13.53125  C 21.6125 13.53125  21.725 13.41875  21.725 13.28125  L 21.725 8.184375  L 26.98125 8.184375  C 27.11875 8.184375  27.23125 8.071875  27.23125 7.934375  L 27.23125 6.46875  C 27.23125 6.33125  27.11875 6.21875  26.98125 6.21875  L 21.725 6.21875  L 21.725 2.38125  L 27.5 2.38125  C 27.6375 2.38125  27.75 2.26875  27.75 2.13125  L 27.75 0.59375  Z M 16.625 0.625  C 16.625 0.487500000000001  16.5125 0.375  16.375 0.375  L 14.625 0.375  C 14.4875 0.375  14.375 0.487500000000001  14 0.625  L 14 13.3125  C 14.375 13.45  14.4875 13.5625  14.625 13.5625  L 16.375 13.5625  C 16.5125 13.5625  16.625 13.45  16.625 13.3125  L 16.625 0.625  Z M 12.375 6.903125  C 12.375 6.765625  12.2625 6.653125  12.125 6.653125  L 7.078125 6.653125  C 6.940625 6.653125  6.828125 6.765625  6.828125 6.903125  L 6.828125 8.26875  C 6.828125 8.40625  6.940625 8.51875  7.078125 8.51875  L 10.04375 8.51875  L 10.034375 8.796875  C 9.996875 10.634375  8.609375 11.875  6.56875 11.875  C 4.1875 11.875  2.696875 10.009375  2.696875 6.978125  C 2.696875 3.984375  4.159375 2.128125  6.49375 2.128125  C 8.20625 2.128125  9.403125 2.96875  9.884375 4.484375  L 12.265625 4.484375  C 11.840625 1.759375  9.578125 0.00312500000000071  6.49375 0.00312500000000071  C 2.6875 0  0.25 2.725  0.25 6.996875  C 0.25 11.31875  2.659375 14  6.53125 14  C 10.096875 14  12.375 11.790625  12.375 8.325  L 12.375 6.903125  Z " fill-rule="nonzero" fill="#ffffff" stroke="none" transform="matrix(1 0 0 1 386 2777 )" />
  </g>
</svg>