<?xml version="1.0" encoding="utf-8"?>
<svg version="1.1" xmlns:xlink="http://www.w3.org/1999/xlink" width="26px" height="26px" xmlns="http://www.w3.org/2000/svg">
  <g transform="matrix(1 0 0 1 -387 -2358 )">
    <path d="M 25 1.5  C 25.5 0.946875  25.053125 0.5  24.5 1  L 1.5 1  C 0.946875 0.5  0.5 0.946875  1 1.5  L 1 24.5  C 0.5 25.053125  0.946875 25.5  1.5 25  L 12.75 25  C 12.8875 25.5  13 25.3875  13 25.25  L 13 23.5  C 13 23.3625  12.8875 23.25  12.75 23  L 3 23  L 3 3  L 23.25 3  L 23.25 12.75  C 23.25 12.8875  23.3625 13  23.5 13  L 25.25 13  C 25.3875 13  25.5 12.8875  25 12.75  L 25 1.5  Z M 25.41875 23.740625  L 17.415625 15.73125  L 19.046875 14.1  C 19.19375 13.953125  19.10625 13.7  18.9 13.675  L 13.29375 13.01875  C 13.134375 13  12.996875 13.134375  13.015625 13.296875  L 13.671875 18.903125  C 13.696875 19.109375  13.95 19.196875  14.096875 19.05  L 15.734375 17.4125  L 23.740625 25.41875  C 23.8375 25.515625  23.996875 25.515625  24.09375 25.41875  L 25.41875 24.09375  C 25.515625 23.996875  25.515625 23.8375  25.41875 23.740625  Z " fill-rule="nonzero" fill="#ffffff" stroke="none" transform="matrix(1 0 0 1 387 2358 )" />
  </g>
</svg>