<?xml version="1.0" encoding="utf-8"?>
<svg version="1.1" xmlns:xlink="http://www.w3.org/1999/xlink" width="28px" height="24px" xmlns="http://www.w3.org/2000/svg">
  <g transform="matrix(1 0 0 1 -386 -2566 )">
    <path d="M 9.75 17.875  C 9.75 17.7375  9.6375 17.625  9.5 17.625  L 5.875 17.625  L 5.875 14  C 5.875 13.8625  5.7625 13.75  5.625 13.75  L 4.125 13.75  C 3.9875 13.75  3.875 13.8625  3.875 14  L 3.875 17.625  L 0.25 17.625  C 0.1125 17.625  0 17.7375  0 17.875  L 0 19.375  C 0 19.5125  0.1125 19.625  0.25 19.625  L 3.875 19.625  L 3.875 23.25  C 3.875 23.3875  3.9875 23.5  4.125 23.5  L 5.625 23.5  C 5.7625 23.5  5.875 23.3875  5.875 23.25  L 5.875 19.625  L 9.5 19.625  C 9.6375 19.625  9.75 19.5125  9.75 19.375  L 9.75 17.875  Z M 28 5.3125  C 28 4.54375  27.165625 4.0625  26.5 4.446875  L 22.5 6.75  L 22.5 2  C 22.5 0.896875  21.603125 0  20.5 0  L 2 0  C 0.896875 0  0 0.896875  0 2  L 0 13  L 2.25 13  L 2.25 2.25  L 20 2.25  L 20 19.75  L 12 19.75  L 12 22  L 20.5 22  C 21.603125 22  22.5 21.103125  22.5 20  L 22.5 15.25  L 26.5 17.553125  C 27.165625 17.9375  28 17.45625  28 16.690625  L 28 5.3125  Z M 25.75 7.46875  L 25.75 14.53125  L 22.5 12.6625  L 22.5 9.340625  L 25.75 7.46875  Z M 4.5 6.25  L 8 6.25  C 8.1375 6.25  8.25 6.1375  8.25 6  L 8.25 4.5  C 8.25 4.3625  8.1375 4.25  8 4.25  L 4.5 4.25  C 4.3625 4.25  4.25 4.3625  4.25 4.5  L 4.25 6  C 4.25 6.1375  4.3625 6.25  4.5 6.25  Z " fill-rule="nonzero" fill="#ffffff" stroke="none" transform="matrix(1 0 0 1 386 2566 )" />
  </g>
</svg>