<?xml version="1.0" encoding="utf-8"?>
<svg version="1.1" xmlns:xlink="http://www.w3.org/1999/xlink" width="26px" height="24px" xmlns="http://www.w3.org/2000/svg">
  <g transform="matrix(1 0 0 1 -387 -2291 )">
    <path d="M 25.365625 2.3125  C 25.746875 1.646875  25.26875 0.8125  24.503125 1  L 1.496875 1  C 0.73125 0.8125  0.253125 1.646875  0.6375 2.3125  L 7.90625 14.66875  L 7.90625 22.1875  C 7.90625 22.740625  8.35 23.1875  8.9 23.1875  L 17.1 23.1875  C 17.65 23.1875  18.09375 22.740625  18.09375 22.1875  L 18.09375 14.66875  L 25.365625 2.3125  Z M 15.859375 20.9375  L 15.85625 20.9375  L 10.14375 20.9375  L 10.14375 16.0625  L 15.859375 16.0625  L 15.859375 20.9375  Z M 22.353125 3  L 16.15625 13.54375  L 15.859375 14.0625  L 10.140625 14.0625  L 9.84375 13.54375  L 3.646875 3  L 22.353125 3  Z " fill-rule="nonzero" fill="#ffffff" stroke="none" transform="matrix(1 0 0 1 387 2291 )" />
  </g>
</svg>