<?xml version="1.0" encoding="utf-8"?>
<svg version="1.1" xmlns:xlink="http://www.w3.org/1999/xlink" width="28px" height="28px" xmlns="http://www.w3.org/2000/svg">
  <g transform="matrix(1 0 0 1 -109 -2221 )">
    <path d="M 28 14  C 28 6.26875  21.73125 0  14 0  C 6.26875 0  0 6.26875  0 14  C 0 21.73125  6.26875 28  14 28  C 21.73125 28  28 21.73125  28 14  Z M 25.625 14  C 25.625 20.41875  20.41875 25.625  14 25.625  C 7.58125 25.625  2.375 20.41875  2.375 14  C 2.375 7.58125  7.58125 2.375  14 2.375  C 20.41875 2.375  25.625 7.58125  25.625 14  Z M 19.240625 7.59375  C 19.2375 7.45625  19.125 7.34375  18.9875 7.34375  L 17.128125 7.34375  C 17.034375 7.34375  16.946875 7.396875  16.90625 7.48125  L 14.075 13.10625  L 13.96875 13.10625  L 11.1375 7.48125  C 11.09375 7.396875  11.009375 7.34375  10.915625 7.34375  L 9.01875 7.34375  C 8.978125 7.34375  8.9375 7.353125  8.9 7.375  C 8.778125 7.440625  8.734375 7.59375  8.8 7.715625  L 12.28125 14.115625  L 10.3625 14.115625  C 10.225 14.115625  10.1125 14.228125  10.1125 14.365625  L 10.1125 15.3  C 10.1125 15.4375  10.225 15.55  10.3625 15.55  L 12.915625 15.55  L 12.915625 16.84375  L 10.3625 16.84375  C 10.225 16.84375  10.1125 16.95625  10.1125 17.09375  L 10.1125 18.028125  C 10.1125 18.165625  10.225 18.278125  10.3625 18.278125  L 12.915625 18.278125  L 12.915625 20.40625  C 12.915625 20.54375  13.028125 20.65625  13.165625 20.65625  L 14.8625 20.65625  C 15 20.65625  15.1125 20.54375  15.1125 20.40625  L 15.1125 18.278125  L 17.675 18.278125  C 17.8125 18.278125  17.925 18.165625  17.925 18.028125  L 17.925 17.09375  C 17.925 16.95625  17.8125 16.84375  17.675 16.84375  L 15.1125 16.84375  L 15.1125 15.546875  L 17.675 15.546875  C 17.8125 15.546875  17.925 15.434375  17.925 15.296875  L 17.925 14.3625  C 17.925 14.225  17.8125 14.1125  17.675 14.1125  L 15.7375 14.1125  L 19.209375 7.7125  C 19.228125 7.675  19.240625 7.634375  19.240625 7.59375  Z " fill-rule="nonzero" fill="#000000" stroke="none" transform="matrix(1 0 0 1 109 2221 )" />
  </g>
</svg>