<?xml version="1.0" encoding="utf-8"?>
<svg version="1.1" xmlns:xlink="http://www.w3.org/1999/xlink" width="24px" height="26px" xmlns="http://www.w3.org/2000/svg">
  <g transform="matrix(1 0 0 1 -111 -2016 )">
    <path d="M 23.75 25.18125  C 23.71875 23.6875  23.409375 22.234375  22.828125 20.8625  C 22.2375 19.4625  21.3875 18.20625  20.309375 17.128125  C 19.23125 16.05  17.975 15.203125  16.575 14.609375  C 16.5625 14.603125  16.55 14.6  16.5375 14.59375  C 18.484375 13.1875  19.75 10.896875  19.75 8.3125  C 19.75 4.03125  16.28125 0.5625  12 0.5625  C 7.71875 0.5625  4.25 4.03125  4.25 8.3125  C 4.25 10.896875  5.515625 13.1875  7.4625 14.596875  C 7.45 14.603125  7.4375 14.60625  7.425 14.6125  C 6.025 15.203125  4.76875 16.05  3.690625 17.13125  C 2.6125 18.209375  1.765625 19.465625  1.171875 20.865625  C 0.590625 22.234375  0.28125 23.6875  0.25 25.18125  C 0.246875 25.321875  0.359375 25.4375  0.5 25.4375  L 2.375 25.4375  C 2.5125 25.4375  2.621875 25.328125  2.625 25.19375  C 2.6875 22.78125  3.65625 20.521875  5.36875 18.809375  C 7.140625 17.0375  9.49375 16.0625  12 16.0625  C 14.50625 16.0625  16.859375 17.0375  18.63125 18.809375  C 20.34375 20.521875  21.3125 22.78125  21.375 25.19375  C 21.378125 25.33125  21.4875 25.4375  21.625 25.4375  L 23.5 25.4375  C 23.640625 25.4375  23.753125 25.321875  23.75 25.18125  Z M 15.8 12.1125  C 14.784375 13.128125  13.434375 13.6875  12 13.6875  C 10.565625 13.6875  9.215625 13.128125  8.2 12.1125  C 7.184375 11.096875  6.625 9.746875  6.625 8.3125  C 6.625 6.878125  7.184375 5.528125  8.2 4.5125  C 9.215625 3.496875  10.565625 2.9375  12 2.9375  C 13.434375 2.9375  14.784375 3.496875  15.8 4.5125  C 16.815625 5.528125  17.375 6.878125  17.375 8.3125  C 17.375 9.746875  16.815625 11.096875  15.8 12.1125  Z " fill-rule="nonzero" fill="#000000" stroke="none" transform="matrix(1 0 0 1 111 2016 )" />
  </g>
</svg>