<?xml version="1.0" encoding="utf-8"?>
<svg version="1.1" xmlns:xlink="http://www.w3.org/1999/xlink" width="22px" height="28px" xmlns="http://www.w3.org/2000/svg">
  <g transform="matrix(1 0 0 1 -112 -1607 )">
    <path d="M 21.5 23  C 21.5 22.446875  21.053125 22  20.5 22  L 19.75 22  L 19.75 11.375  C 19.75 6.965625  16.490625 3.321875  12.25 2.715625  L 12.25 1.5  C 12.25 0.809375  11.690625 0.25  11 0.25  C 10.309375 0.25  9.75 0.809375  9.75 1.5  L 9.75 2.715625  C 5.509375 3.321875  2.25 6.965625  2.25 11.375  L 2.25 22  L 1.5 22  C 0.946875 22  0.5 22.446875  0.5 23  L 0.5 24  C 0.5 24.1375  0.6125 24.25  0.75 24.25  L 7.5 24.25  C 7.5 26.18125  9.06875 27.75  11 27.75  C 12.93125 27.75  14.5 26.18125  14.5 24.25  L 21.25 24.25  C 21.3875 24.25  21.5 24.1375  21.5 24  L 21.5 23  Z M 12.5 24.25  C 12.5 25.078125  11.828125 25.75  11 25.75  C 10.171875 25.75  9.5 25.078125  9.5 24.25  L 12.5 24.25  Z M 17.5 22  L 4.5 22  L 4.5 11.375  C 4.5 9.6375  5.175 8.00625  6.403125 6.778125  C 7.63125 5.55  9.2625 4.875  11 4.875  C 12.7375 4.875  14.36875 5.55  15.596875 6.778125  C 16.825 8.00625  17.5 9.6375  17.5 11.375  L 17.5 22  Z " fill-rule="nonzero" fill="#000000" stroke="none" transform="matrix(1 0 0 1 112 1607 )" />
  </g>
</svg>