<?xml version="1.0" encoding="utf-8"?>
<svg version="1.1" xmlns:xlink="http://www.w3.org/1999/xlink" width="30px" height="24px" xmlns="http://www.w3.org/2000/svg">
  <g transform="matrix(1 0 0 1 -108 -1677 )">
    <path d="M 10.625 17.75  C 10.625 17.8875  10.7375 18  10.875 18  L 19.125 18  C 19.2625 18  19.375 17.8875  19.375 17.75  L 19.375 15.125  C 19.375 14.9875  19.2625 14.875  19.125 14.875  L 17.875 14.875  C 17.7375 14.875  17.625 14.9875  17.625 15.125  L 17.625 16.25  L 12.375 16.25  L 12.375 15.125  C 12.375 14.9875  12.2625 14.875  12.125 14.875  L 10.875 14.875  C 10.7375 14.875  10.625 14.9875  10.625 15.125  L 10.625 17.75  Z M 21.5 14.15625  C 21.5 14.8466059372885  22.0596440627115 15.40625  22.75 15.40625  C 23.4403559372885 15.40625  24 14.8466059372885  24 14.15625  C 24 13.4658940627115  23.4403559372885 12.90625  22.75 12.90625  C 22.0596440627115 12.90625  21.5 13.4658940627115  21.5 14.15625  Z M 28.875 9.25625  C 28.99375 9.1875  29.034375 9.0375  28.96875 8.91875  L 28.228125 7.625  C 28.159375 7.50625  28.00625 7.465625  27.8875 7.534375  L 26.303125 8.459375  L 23.85625 1.703125  C 23.590625 0.875000000000002  22.821875 0.315625000000002  21.953125 0.315625000000002  L 8.4125 0.315625000000002  C 7.328125 0.315625000000002  6.365625 1.015625  6.03125 2.05  L 3.7 8.4625  L 2.1125 7.5375  C 1.99375 7.46875  1.840625 7.509375  1.771875 7.628125  L 1.03125 8.91875  C 0.9625 9.0375  1.003125 9.1875  1.121875 9.25625  L 3.009375 10.35625  L 2.55625 11.60625  C 2.51875 11.70625  2.5 11.8125  3 11.91875  L 3 22.8  C 2.5 23.290625  2.86875 23.6875  3.321875 23.6875  L 5.434375 23.6875  C 5.81875 23.6875  6.153125 23.396875  6.234375 22.990625  L 6.475 21.8125  L 23.525 21.8125  L 23.765625 22.990625  C 23.85 23.396875  24.18125 23.6875  24.565625 23.6875  L 26.678125 23.6875  C 27.13125 23.6875  27.5 23.290625  27 22.8  L 27 11.91875  C 27.5 11.8125  27.48125 11.70625  27.44375 11.60625  L 26.990625 10.35625  L 28.875 9.25625  Z M 24.7625 11  L 25.25 12.15625  L 25.25 19.5625  L 4.75 19.5625  L 4.75 12.15625  L 5.2375 11  L 24.7625 11  Z M 5.875 9  L 8.146875 2.815625  L 8.1625 2.775  L 8.175 2.734375  C 8.209375 2.63125  8.303125 2.5625  8.4125 3  L 21.775 3  L 24.13125 9  L 5.875 9  Z M 6 14.15625  C 6 14.8466059372885  6.55964406271151 15.40625  7.25 15.40625  C 7.94035593728849 15.40625  8.5 14.8466059372885  8.5 14.15625  C 8.5 13.4658940627115  7.94035593728849 12.90625  7.25 12.90625  C 6.55964406271151 12.90625  6 13.4658940627115  6 14.15625  Z " fill-rule="nonzero" fill="#000000" stroke="none" transform="matrix(1 0 0 1 108 1677 )" />
  </g>
</svg>