<?xml version="1.0" encoding="utf-8"?>
<svg version="1.1" xmlns:xlink="http://www.w3.org/1999/xlink" width="24px" height="22px" xmlns="http://www.w3.org/2000/svg">
  <g transform="matrix(1 0 0 1 -111 -1746 )">
    <path d="M 8.303125 11.225  L 11.803125 15.65625  C 11.903125 15.784375  12.096875 15.784375  12.196875 15.65625  L 15.696875 11.228125  C 15.825 11.065625  15.709375 10.825  15.5 10.825  L 13 10.825  L 13 0.25  C 13.184375 0.1125  13.071875 0  12.934375 0  L 11.059375 0  C 10.921875 0  10.809375 0.1125  11 0.25  L 11 10.821875  L 8.5 10.821875  C 8.290625 10.821875  8.175 11.0625  8.303125 11.225  Z M 23.6875 14.8125  C 23.6875 14.675  23.575 14.5625  23.4375 14.5625  L 21.5625 14.5625  C 21.425 14.5625  21.3125 14.675  21.3125 14.8125  L 21.3125 19.625  L 2.6875 19.625  L 2.6875 14.8125  C 2.6875 14.675  2.575 14.5625  2.4375 14.5625  L 0.5625 14.5625  C 0.425 14.5625  0.3125 14.675  0.3125 14.8125  L 0.3125 21  C 0.3125 21.553125  0.759375 22  1.3125 22  L 22.6875 22  C 23.240625 22  23.6875 21.553125  23.6875 21  L 23.6875 14.8125  Z " fill-rule="nonzero" fill="#000000" stroke="none" transform="matrix(1 0 0 1 111 1746 )" />
  </g>
</svg>