<?xml version="1.0" encoding="utf-8"?>
<svg version="1.1" xmlns:xlink="http://www.w3.org/1999/xlink" width="28px" height="22px" xmlns="http://www.w3.org/2000/svg">
  <g transform="matrix(1 0 0 1 -109 -485 )">
    <path d="M 28 20  C 28 19.8625  27.8875 19.75  27.75 19.75  L 0.25 19.75  C 0.1125 19.75  0 19.8625  0 20  L 0 21.75  C 0 21.8875  0.1125 22  0.25 22  L 27.75 22  C 27.8875 22  28 21.8875  28 21.75  L 28 20  Z M 28 0.25  C 28 0.1125  27.8875 0  27.75 0  L 0.25 0  C 0.1125 0  0 0.1125  0 0.25  L 0 2  C 0 2.1375  0.1125 2.25  0.25 2.25  L 27.75 2.25  C 27.8875 2.25  28 2.1375  28 2  L 28 0.25  Z M 1 15.625  L 17 15.625  C 17.275 15.625  17.5 15.4  17.5 15.125  L 17.5 6.875  C 17.5 6.6  17.275 6.375  17 6.375  L 1 6.375  C 0.725 6.375  0.5 6.6  0.5 6.875  L 0.5 15.125  C 0.5 15.4  0.725 15.625  1 15.625  Z M 2.75 13  L 2.75 9  L 15.25 9  L 15.25 13  L 2.75 13  Z M 20 13.4375  L 20 15.1875  C 20 15.325  20.1125 15.4375  20.25 15.4375  L 27.25 15.4375  C 27.3875 15.4375  27.5 15.325  27.5 15.1875  L 27.5 13.4375  C 27.5 13.3  27.3875 13.1875  27.25 13.1875  L 20.25 13.1875  C 20.1125 13.1875  20 13.3  20 13.4375  Z M 20 8.5625  C 20 8.7  20.1125 8.8125  20.25 8.8125  L 27.25 8.8125  C 27.3875 8.8125  27.5 8.7  27.5 8.5625  L 27.5 6.8125  C 27.5 6.675  27.3875 6.5625  27.25 6.5625  L 20.25 6.5625  C 20.1125 6.5625  20 6.675  20 6.8125  L 20 8.5625  Z " fill-rule="nonzero" fill="#ffffff" stroke="none" transform="matrix(1 0 0 1 109 485 )" />
  </g>
</svg>