<?xml version="1.0" encoding="utf-8"?>
<svg version="1.1" xmlns:xlink="http://www.w3.org/1999/xlink" width="24px" height="28px" xmlns="http://www.w3.org/2000/svg">
  <g transform="matrix(1 0 0 1 -111 -2083 )">
    <path d="M 17.25 8  C 17.3875 8  17.5 7.8875  17.5 7.75  L 17.5 6.25  C 17.5 6.1125  17.3875 6  17.25 6  L 5.25 6  C 5.1125 6  5 6.1125  5 6.25  L 5 7.75  C 5 7.8875  5.1125 8  5.25 8  L 17.25 8  Z M 11 10.5  L 5.25 10.5  C 5.1125 10.5  5 10.6125  5 10.75  L 5 12.25  C 5 12.3875  5.1125 12.5  5.25 12.5  L 11 12.5  C 11.1375 12.5  11.25 12.3875  11.25 12.25  L 11.25 10.75  C 11.25 10.6125  11.1375 10.5  11 10.5  Z M 23.75 20.875  C 23.75 17.146875  20.728125 14.125  17 14.125  C 13.271875 14.125  10.25 17.146875  10.25 20.875  C 10.25 24.603125  13.271875 27.625  17 27.625  C 20.728125 27.625  23.75 24.603125  23.75 20.875  Z M 21.75 20.875  C 21.75 22.14375  21.25625 23.3375  20.359375 24.234375  C 19.4625 25.13125  18.26875 25.625  17 25.625  C 15.73125 25.625  14.5375 25.13125  13.640625 24.234375  C 12.74375 23.3375  12.25 22.14375  12.25 20.875  C 12.25 19.60625  12.74375 18.4125  13.640625 17.515625  C 14.5375 16.61875  15.73125 16.125  17 16.125  C 18.26875 16.125  19.4625 16.61875  20.359375 17.515625  C 21.25625 18.4125  21.75 19.60625  21.75 20.875  Z M 19.98125 18.896875  C 20.103125 18.73125  19.984375 18.5  19.78125 18.5  L 18.396875 18.5  C 18.315625 18.5  18.240625 18.5375  18.19375 18.603125  L 16.209375 21.346875  L 15.4875 20.35  C 15.440625 20.284375  15.365625 20.246875  15.284375 20.246875  L 13.90625 20.246875  C 13.703125 20.246875  13.584375 20.478125  13.703125 20.64375  L 16.009375 23.834375  C 16.109375 23.971875  16.3125 23.971875  16.4125 23.834375  L 19.98125 18.896875  Z M 10 24.875  C 10 24.7375  9.8875 24.625  9.75 24.625  L 2.5 24.625  L 2.5 3  L 20 3  L 20 13.375  C 20 13.5125  20.1125 13.625  20.25 13.625  L 22 13.625  C 22.1375 13.625  22.25 13.5125  22 13.375  L 22 1.375  C 22.25 0.821875  21.803125 0.375  21.25 0.375  L 1.25 0.375  C 0.696875 0.375  0.25 0.821875  0.25 1.375  L 0.25 25.875  C 0.25 26.428125  0.696875 26.875  1.25 26.875  L 9.75 26.875  C 9.8875 26.875  10 26.7625  10 26.625  L 10 24.875  Z " fill-rule="nonzero" fill="#ffffff" stroke="none" transform="matrix(1 0 0 1 111 2083 )" />
  </g>
</svg>