<?xml version="1.0" encoding="utf-8"?>
<svg version="1.1" xmlns:xlink="http://www.w3.org/1999/xlink" width="24px" height="28px" xmlns="http://www.w3.org/2000/svg">
  <g transform="matrix(1 0 0 1 -111 -1879 )">
    <path d="M 23.625 11.471875  C 23.625 9.934375  23.315625 8.440625  22.70625 7.034375  C 22.11875 5.678125  21.278125 4.4625  20.209375 3.41875  C 19.140625 2.375  17.9 1.559375  16.515625 0.987500000000001  C 15.084375 0.39375  13.565625 0.09375  12 0.09375  C 10.434375 0.09375  8.915625 0.39375  7.484375 0.984375  C 6.1 1.55625  4.859375 2.375  3.790625 3.415625  C 2.721875 4.459375  1.88125 5.678125  1.29375 7.03125  C 0.684375 8.4375  0.375 9.93125  0.375 11.46875  C 0.375 13.675  0.903125 15.871875  1.940625 17.990625  C 2.775 19.69375  3.940625 21.353125  5.409375 22.93125  C 7.91875 25.625  10.55 27.271875  11.296875 27.7125  C 11.5125 27.840625  11.75625 27.903125  11.996875 27.903125  C 12.240625 27.903125  12.48125 27.840625  12.696875 27.7125  C 13.44375 27.271875  16.075 25.625  18.584375 22.93125  C 20.053125 21.35625  21.21875 19.69375  22.053125 17.990625  C 23.096875 15.875  23.625 13.68125  23.625 11.471875  Z M 21.375 11.471875  C 21.375 19.0125  14.059375 24.196875  12 25.50625  C 9.940625 24.196875  2.625 19.0125  2.625 11.471875  C 2.625 9.0375  3.596875 6.75  5.3625 5.025  C 7.134375 3.296875  9.490625 2.34375  12 2.34375  C 14.509375 2.34375  16.865625 3.296875  18.6375 5.028125  C 20.403125 6.75  21.375 9.0375  21.375 11.471875  Z M 17.5 11.71875  C 17.5 8.68125  15.0375 6.21875  12 6.21875  C 8.9625 6.21875  6.5 8.68125  6.5 11.71875  C 6.5 14.75625  8.9625 17.21875  12 17.21875  C 15.0375 17.21875  17.5 14.75625  17.5 11.71875  Z M 15.5 11.71875  C 15.5 12.653125  15.1375 13.53125  14.475 14.19375  C 13.8125 14.853125  12.934375 15.21875  12 15.21875  C 11.065625 15.21875  10.1875 14.853125  9.525 14.19375  C 8.865625 13.53125  8.5 12.653125  8.5 11.71875  C 8.5 10.784375  8.865625 9.90625  9.525 9.24375  C 10.1875 8.58125  11.065625 8.21875  12 8.21875  C 12.934375 8.21875  13.8125 8.58125  14.475 9.24375  C 15.1375 9.90625  15.5 10.784375  15.5 11.71875  Z " fill-rule="nonzero" fill="#ffffff" stroke="none" transform="matrix(1 0 0 1 111 1879 )" />
  </g>
</svg>