<?xml version="1.0" encoding="utf-8"?>
<svg version="1.1" xmlns:xlink="http://www.w3.org/1999/xlink" width="22px" height="28px" xmlns="http://www.w3.org/2000/svg">
  <g transform="matrix(1 0 0 1 -112 -2494 )">
    <path d="M 22 2  C 22 0.896875  21.103125 0  20 0  L 2 0  C 0.896875 0  0 0.896875  0 2  L 0 26  C 0 27.103125  0.896875 28  2 28  L 20 28  C 21.103125 28  22 27.103125  22 26  L 22 2  Z M 19.75 2.25  L 19.75 25.75  L 2.25 25.75  L 2.25 2.25  L 19.75 2.25  Z M 9.75 22.5  C 9.75 23.1903559372885  10.3096440627115 23.75  11 23.75  C 11.6903559372885 23.75  12.25 23.1903559372885  12.25 22.5  C 12.25 21.8096440627115  11.6903559372885 21.25  11 21.25  C 10.3096440627115 21.25  9.75 21.8096440627115  9.75 22.5  Z " fill-rule="nonzero" fill="#000000" stroke="none" transform="matrix(1 0 0 1 112 2494 )" />
  </g>
</svg>