<?xml version="1.0" encoding="utf-8"?>
<svg version="1.1" xmlns:xlink="http://www.w3.org/1999/xlink" width="18px" height="28px" xmlns="http://www.w3.org/2000/svg">
  <g transform="matrix(1 0 0 1 -114 -2426 )">
    <path d="M 10.1875 17.671875  C 12.109375 17.415625  13.88125 16.54375  15.275 15.15  C 16.95 13.475  17.875 11.24375  17.875 8.875  C 17.875 6.503125  16.953125 4.275  15.275 2.6  C 13.6 0.925  11.36875 0  9 0  C 6.63125 0  4.4 0.921875  2.725 2.6  C 1.05 4.278125  0.125 6.503125  0.125 8.875  C 0.125 10.86875  0.778125 12.7625  1.98125 14.309375  C 2.209375 14.603125  2.45625 14.88125  2.721875 15.15  C 2.9875 15.415625  3.26875 15.6625  3.559375 15.890625  C 4.796875 16.853125  6.25625 17.465625  7.8125 17.671875  L 7.8125 21  L 4.25 21  C 4.1125 21  4 21.1125  4 21.25  L 4 23.125  C 4 23.2625  4.1125 23.375  4.25 23.375  L 7.8125 23.375  L 7.8125 27.75  C 7.8125 27.8875  7.925 28  8.0625 28  L 9.9375 28  C 10.075 28  10.1875 27.8875  10.1875 27.75  L 10.1875 23.375  L 13.75 23.375  C 13.8875 23.375  14 23.2625  14 23.125  L 14 21.25  C 14 21.1125  13.8875 21  13.75 21  L 10.1875 21  L 10.1875 17.671875  Z M 13.596875 13.471875  C 12.365625 14.7  10.7375 15.375  9 15.375  C 7.2625 15.375  5.634375 14.7  4.403125 13.471875  C 3.175 12.24375  2.5 10.6125  2.5 8.875  C 2.5 7.1375  3.175 5.509375  4.403125 4.278125  C 5.63125 3.046875  7.2625 2.375  9 2.375  C 10.7375 2.375  12.365625 3.05  13.596875 4.278125  C 14.825 5.50625  15.5 7.1375  15.5 8.875  C 15.5 10.6125  14.825 12.240625  13.596875 13.471875  Z " fill-rule="nonzero" fill="#000000" stroke="none" transform="matrix(1 0 0 1 114 2426 )" />
  </g>
</svg>