<?xml version="1.0" encoding="utf-8"?>
<svg version="1.1" xmlns:xlink="http://www.w3.org/1999/xlink" width="28px" height="26px" xmlns="http://www.w3.org/2000/svg">
  <g transform="matrix(1 0 0 1 -109 -2565 )">
    <path d="M 2.375 23  L 2.375 3  L 20.625 3  L 20.625 8  L 23 8  L 23 1.5  C 23 0.946875  22.553125 0.5  22 1  L 1 1  C 0.446875 0.5  0 0.946875  0 1.5  L 0 24.5  C 0 25.053125  0.446875 25.5  1 25  L 18 25  L 18 23  L 2.375 23  Z M 11.1875 5.16875  C 11.146875 5.06875  11.053125 5  10.946875 5  L 9.053125 5  C 8.946875 5  8.853125 5.06875  8.815625 5.16875  L 4.84375 16.66875  C 4.834375 16.69375  4.83125 16.721875  4.83125 16.75  C 4.83125 16.8875  4.94375 17  5.08125 17  L 6.803125 17  C 6.909375 17  7.003125 16.93125  7.040625 16.83125  L 8.0625 13.875  L 14.19375 13.875  L 11.1875 5.16875  Z M 10 8.25625  L 11.334375 12.125  L 8.6625 12.125  L 10 8.25625  Z M 28 14.25  C 28 13.834375  27.665625 13.5  27.25 13.5  L 23 13.5  L 23 10.59375  C 23 10.45625  22.8875 10.34375  22.75 10.34375  L 21 10.34375  C 20.8625 10.34375  20.75 10.45625  20.75 10.59375  L 20.75 13.5  L 16.5 13.5  C 16.084375 13.5  15.75 13.834375  15.75 14.25  L 15.75 19.75  C 15.75 20.165625  16.084375 20.5  16.5 20.5  L 20.75 20.5  L 20.75 25.25  C 20.75 25.3875  20.8625 25.5  21 25.5  L 22.75 25.5  C 22.8875 25.5  23 25.3875  23 25.25  L 23 20.5  L 27.25 20.5  C 27.665625 20.5  28 20.165625  28 19.75  L 28 14.25  Z M 20.75 15.75  L 20.75 18.25  L 18 18.25  L 18 15.75  L 20.75 15.75  Z M 25.75 15.75  L 25.75 18.25  L 23 18.25  L 23 15.75  L 25.75 15.75  Z " fill-rule="nonzero" fill="#000000" stroke="none" transform="matrix(1 0 0 1 109 2565 )" />
  </g>
</svg>