<?xml version="1.0" encoding="utf-8"?>
<svg version="1.1" xmlns:xlink="http://www.w3.org/1999/xlink" width="26px" height="22px" xmlns="http://www.w3.org/2000/svg">
  <g transform="matrix(1 0 0 1 -110 -2292 )">
    <path d="M 25.5 19.25  C 25.5 19.1125  25.3875 19  25.25 19  L 0.75 19  C 0.6125 19  0.5 19.1125  0.5 19.25  L 0.5 21.75  C 0.5 21.8875  0.6125 22  0.75 22  L 25.25 22  C 25.3875 22  25.5 21.8875  25.5 21.75  L 25.5 19.25  Z M 25 1  C 25.5 0.446875  25.034375 0  24.459375 0  L 1.540625 0  C 0.965625 0  0.5 0.446875  1 1  L 1 15.5  C 0.5 16.053125  0.965625000000001 16.5  1.540625 16.5  L 24.45625 16.5  C 25.03125 16.5  25.496875 16.053125  25 15.5  L 25 1  Z M 8.25 9.25  L 8.25 14.25  L 2.75 14.25  L 2.75 9.25  L 8.25 9.25  Z M 8.25 2.25  L 8.25 7.25  L 2.75 7.25  L 2.75 2.25  L 8.25 2.25  Z M 15.75 9.25  L 15.75 14.25  L 10.25 14.25  L 10.25 9.25  L 15.75 9.25  Z M 15.75 2.25  L 15.75 7.25  L 10.25 7.25  L 10.25 2.25  L 15.75 2.25  Z M 23.25 9.25  L 23.25 14.25  L 17.75 14.25  L 17.75 9.25  L 23.25 9.25  Z M 23.25 2.25  L 23.25 7.25  L 17.75 7.25  L 17.75 2.25  L 23.25 2.25  Z " fill-rule="nonzero" fill="#ffffff" stroke="none" transform="matrix(1 0 0 1 110 2292 )" />
  </g>
</svg>