<?xml version="1.0" encoding="utf-8"?>
<svg version="1.1" xmlns:xlink="http://www.w3.org/1999/xlink" width="26px" height="26px" xmlns="http://www.w3.org/2000/svg">
  <g transform="matrix(1 0 0 1 -295 -2016 )">
    <path d="M 25.125 21.375  C 25.125 21.2375  25.0125 21.125  24.875 21.125  L 22.375 21.125  L 22.375 18.625  C 22.375 18.4875  22.2625 18.375  22.125 18.375  L 20.625 18.375  C 20.4875 18.375  20.375 18.4875  20.375 18.625  L 20.375 21.125  L 17.875 21.125  C 17.7375 21.125  17.625 21.2375  17.625 21.375  L 17.625 22.875  C 17.625 23.0125  17.7375 23.125  17.875 23.125  L 20.375 23.125  L 20.375 25.625  C 20.375 25.7625  20.4875 25.875  20.625 25.875  L 22.125 25.875  C 22.2625 25.875  22.375 25.7625  22.375 25.625  L 22.375 23.125  L 24.875 23.125  C 25.0125 23.125  25.125 23.0125  25.125 22.875  L 25.125 21.375  Z M 8.4875 12.85  C 8.60625 12.815625  8.6875 12.7  8.671875 12.575  C 8.64375 12.303125  8.628125 12.028125  8.628125 11.75  C 8.628125 11.253125  8.675 10.76875  8.7625 10.296875  C 8.784375 10.184375  8.725 10.06875  8.621875 10.021875  C 8.196875 9.83125  7.80625 9.56875  7.46875 9.2375  C 6.6625 8.45  6.228125 7.384375  6.259375 6.25625  C 6.2875 5.253125  6.690625 4.3  7.39375 3.58125  C 8.165625 2.790625  9.203125 2.359375  10.30625 2.371875  C 11.303125 2.38125  12.265625 2.765625  12.99375 3.446875  C 13.240625 3.678125  13.453125 3.934375  13.63125 4.209375  C 13.69375 4.30625  13.815625 4.346875  13.921875 4.309375  C 14.471875 4.11875  15.053125 3.984375  15.65 3.921875  C 15.825 3.903125  15.925 3.715625  15.846875 3.559375  C 14.83125 1.55  12.75625 0.162499999999997  10.35625 0.124999999999997  C 6.89375 0.0718749999999972  4.00625 2.9125  4.00625 6.375  C 4.00625 8.3375  4.909375 10.0875  6.325 11.234375  C 5.33125 11.69375  4.415625 12.328125  3.621875 13.121875  C 1.909375 14.83125  0.940624999999998 17.0875  0.878124999999998 19.496875  C 0.874999999999998 19.6375  0.987499999999998 19.753125  1.128125 19.753125  L 2.88125 19.753125  C 3.015625 19.753125  3.128125 19.646875  3.13125 19.5125  C 3.190625 17.7  3.925 16.003125  5.215625 14.715625  C 6.134375 13.796875  7.259375 13.159375  8.4875 12.85  Z M 16.5 18  C 19.95 18  22.75 15.203125  22.75 11.75  C 22.75 8.33125  20.003125 5.553125  16.596875 5.5  C 13.134375 5.446875  10.25 8.2875  10.25 11.75  C 10.25 13.7125  11.15625 15.4625  12.56875 16.609375  C 11.578125 17.06875  10.665625 17.7  9.86875 18.496875  C 8.15625 20.20625  7.1875 22.4625  7.125 24.86875  C 7.121875 25.009375  7.234375 25.125  7.375 25.125  L 9.125 25.125  C 9.259375 25.125  9.371875 25.01875  9.375 24.884375  C 9.434375 23.071875  10.16875 21.375  11.459375 20.0875  C 12.80625 18.740625  14.59375 18  16.5 18  Z M 20.503125 11.75  C 20.5 12.81875  20.084375 13.821875  19.328125 14.578125  C 18.571875 15.334375  17.56875 15.75  16.5 15.75  C 15.43125 15.75  14.428125 15.334375  13.671875 14.578125  C 12.90625 13.8125  12.490625 12.79375  12.5 11.709375  C 12.509375 10.684375  12.91875 9.69375  13.634375 8.959375  C 14.384375 8.190625  15.3875 7.7625  16.459375 7.75  C 17.51875 7.740625  18.546875 8.153125  19.303125 8.89375  C 20.078125 9.653125  20.503125 10.66875  20.503125 11.75  Z " fill-rule="nonzero" fill="#000000" stroke="none" transform="matrix(1 0 0 1 295 2016 )" />
  </g>
</svg>