<?xml version="1.0" encoding="utf-8"?>
<svg version="1.1" xmlns:xlink="http://www.w3.org/1999/xlink" width="26px" height="28px" xmlns="http://www.w3.org/2000/svg">
  <g transform="matrix(1 0 0 1 -295 -1538 )">
    <path d="M 25.875 18.5  C 25.875 18.225  25.65 18  25.375 18  L 22.125 18  L 22.125 13.25  C 22.125 13.1125  22.0125 13  21.875 13  L 14.125 13  L 14.125 10  L 17.5 10  C 17.775 10  18 9.775  18 9.5  L 18 0.5  C 18 0.225  17.775 0  17.5 0  L 8.5 0  C 8.225 0  8 0.225  8 0.5  L 8 9.5  C 8 9.775  8.225 10  8.5 10  L 11.875 10  L 11.875 13  L 4.125 13  C 3.9875 13  3.875 13.1125  3.875 13.25  L 3.875 18  L 0.625 18  C 0.35 18  0.125 18.225  0.125 18.5  L 0.125 27.5  C 0.125 27.775  0.35 28  0.625 28  L 9.625 28  C 9.9 28  10.125 27.775  10.125 27.5  L 10.125 18.5  C 10.125 18.225  9.9 18  9.625 18  L 6.125 18  L 6.125 15  L 19.875 15  L 19.875 18  L 16.375 18  C 16.1 18  15.875 18.225  15.875 18.5  L 15.875 27.5  C 15.875 27.775  16.1 28  16.375 28  L 25.375 28  C 25.65 28  25.875 27.775  25.875 27.5  L 25.875 18.5  Z M 2.5 20.375  L 7.75 20.375  L 7.75 25.625  L 2.5 25.625  L 2.5 20.375  Z M 15.625 7.625  L 10.375 7.625  L 10.375 2.375  L 15.625 2.375  L 15.625 7.625  Z M 23.5 20.375  L 23.5 25.625  L 18.25 25.625  L 18.25 20.375  L 23.5 20.375  Z " fill-rule="nonzero" fill="#ffffff" stroke="none" transform="matrix(1 0 0 1 295 1538 )" />
  </g>
</svg>