<?xml version="1.0" encoding="utf-8"?>
<svg version="1.1" xmlns:xlink="http://www.w3.org/1999/xlink" width="28px" height="28px" xmlns="http://www.w3.org/2000/svg">
  <g transform="matrix(1 0 0 1 -294 -1675 )">
    <path d="M 28 14  C 28 6.26875  21.73125 0  14 0  C 6.26875 0  0 6.26875  0 14  C 0 21.73125  6.26875 28  14 28  C 21.73125 28  28 21.73125  28 14  Z M 25.625 14  C 25.625 20.41875  20.41875 25.625  14 25.625  C 7.58125 25.625  2.375 20.41875  2.375 14  C 2.375 7.58125  7.58125 2.375  14 2.375  C 20.41875 2.375  25.625 7.58125  25.625 14  Z M 21 7.996875  C 21.0625 7.859375  20.95 7.746875  20.8125 7.746875  L 19.2375 7.746875  C 19.1 7.746875  18.9875 7.859375  19 7.996875  L 19 20.003125  C 18.9875 20.140625  19.1 20.253125  19.2375 20.253125  L 20.8125 20.253125  C 20.95 20.253125  21.0625 20.140625  21 20.003125  L 21 7.996875  Z M 9.028125 13.259375  C 9.03125 10.715625  10.109375 9.296875  12.01875 9.296875  C 13.565625 9.296875  14.615625 10.28125  14.7375 11.721875  C 14.75 11.853125  14.85625 11.953125  14.9875 11.953125  L 16.63125 11.953125  C 16.70625 11.953125  16.76875 11.890625  16.76875 11.815625  C 16.76875 9.278125  14.76875 7.5  12.009375 7.5  C 8.79375 7.5  6.9375 9.671875  6.9375 13.2625  L 6.9375 14.79375  C 6.9375 18.35625  8.79375 20.5  12.009375 20.5  C 14.759375 20.5  16.76875 18.778125  16.76875 16.359375  C 16.76875 16.284375  16.70625 16.221875  16.63125 16.221875  L 14.984375 16.221875  C 14.853125 16.221875  14.746875 16.321875  14.734375 16.45  C 14.603125 17.79375  13.55625 18.7125  12.015625 18.7125  C 10.10625 18.7125  9.028125 17.309375  9.028125 14.8  L 9.028125 13.259375  Z " fill-rule="nonzero" fill="#000000" stroke="none" transform="matrix(1 0 0 1 294 1675 )" />
  </g>
</svg>