<?xml version="1.0" encoding="utf-8"?>
<svg version="1.1" xmlns:xlink="http://www.w3.org/1999/xlink" width="24px" height="28px" xmlns="http://www.w3.org/2000/svg">
  <g transform="matrix(1 0 0 1 -296 -2083 )">
    <path d="M 17.25 6  L 5.25 6  C 5.1125 6  5 6.1125  5 6.25  L 5 7.75  C 5 7.8875  5.1125 8  5.25 8  L 17.25 8  C 17.3875 8  17.5 7.8875  17.5 7.75  L 17.5 6.25  C 17.5 6.1125  17.3875 6  17.25 6  Z M 11 12.5  C 11.1375 12.5  11.25 12.3875  11.25 12.25  L 11.25 10.75  C 11.25 10.6125  11.1375 10.5  11 10.5  L 5.25 10.5  C 5.1125 10.5  5 10.6125  5 10.75  L 5 12.25  C 5 12.3875  5.1125 12.5  5.25 12.5  L 11 12.5  Z M 10 24.875  C 10 24.7375  9.8875 24.625  9.75 24.625  L 2.5 24.625  L 2.5 3  L 20 3  L 20 13.375  C 20 13.5125  20.1125 13.625  20.25 13.625  L 22 13.625  C 22.1375 13.625  22.25 13.5125  22 13.375  L 22 1.375  C 22.25 0.821875  21.803125 0.375  21.25 0.375  L 1.25 0.375  C 0.696875 0.375  0.25 0.821875  0.25 1.375  L 0.25 25.875  C 0.25 26.428125  0.696875 26.875  1.25 26.875  L 9.75 26.875  C 9.8875 26.875  10 26.7625  10 26.625  L 10 24.875  Z M 12.753125 21.25  C 12.8875 21.25  12.996875 21.146875  13.003125 21.0125  C 13.059375 19.934375  13.509375 18.925  14.278125 18.15625  C 15.096875 17.3375  16.215625 16.875  17.375 16.875  C 18.54375 16.875  19.64375 17.33125  20.471875 18.15625  C 20.571875 18.25625  20.66875 18.3625  20.759375 18.471875  L 20.0375 19.03125  C 19.871875 19.159375  19.928125 19.421875  20.13125 19.471875  L 23.046875 20.175  C 23.203125 20.2125  23.353125 20.09375  23.35625 19.934375  L 23.375 16.953125  C 23.375 16.74375  23.1375 16.625  22.971875 16.753125  L 22.3375 17.246875  C 21.16875 15.8  19.378125 14.875  17.375 14.875  C 13.940625 14.875  11.1375 17.590625  11 20.990625  C 10.99375 21.13125  11.109375 21.25  11.25 21.25  L 12.753125 21.25  Z M 23.75 21.509375  C 23.75625 21.36875  23.640625 21.25  23.5 21.25  L 21.996875 21.25  C 21.8625 21.25  21.753125 21.353125  21.746875 21.4875  C 21.690625 22.565625  21.240625 23.575  20.471875 24.34375  C 19.653125 25.1625  18.534375 25.625  17.375 25.625  C 16.20625 25.625  15.10625 25.16875  14.278125 24.34375  C 14.178125 24.24375  14.08125 24.1375  13.990625 24.028125  L 14.7125 23.46875  C 14.878125 23.340625  14.821875 23.078125  14.61875 23.028125  L 11.703125 22.325  C 11.546875 22.2875  11.396875 22.40625  11.39375 22.565625  L 11.375 25.546875  C 11.375 25.75625  11.6125 25.875  11.778125 25.746875  L 12.4125 25.253125  C 13.58125 26.7  15.371875 27.625  17.375 27.625  C 20.809375 27.625  23.6125 24.909375  23.75 21.509375  Z " fill-rule="nonzero" fill="#ffffff" stroke="none" transform="matrix(1 0 0 1 296 2083 )" />
  </g>
</svg>