<?xml version="1.0" encoding="utf-8"?>
<svg version="1.1" xmlns:xlink="http://www.w3.org/1999/xlink" width="22px" height="26px" xmlns="http://www.w3.org/2000/svg">
  <g transform="matrix(1 0 0 1 -297 -2153 )">
    <path d="M 21.5625 8.484375  C 21.565625 6.465625  20.778125 4.56875  19.353125 3.14375  C 16.409375 0.2  11.615625 0.2  8.675 3.14375  L 0.518749999999999 11.29375  C 0.465624999999999 11.346875  0.437499999999999 11.41875  0.437499999999999 11.49375  C 0.437499999999999 11.56875  0.465624999999999 11.640625  0.518749999999999 11.69375  L 1.671875 12.846875  C 1.78125 12.95625  1.959375 12.95625  2.06875 12.846875  L 10.225 4.696875  C 11.2375 3.684375  12.584375 3.128125  14.015625 3.128125  C 15.446875 3.128125  16.79375 3.684375  17.803125 4.696875  C 18.815625 5.709375  19.371875 7.05625  19.371875 8.484375  C 19.371875 9.915625  18.815625 11.259375  17.803125 12.271875  L 9.490625 20.58125  L 8.14375 21.928125  C 6.884375 23.1875  4.8375 23.1875  3.578125 21.928125  C 2.96875 21.31875  2.634375 20.509375  2.634375 19.646875  C 2.634375 18.784375  2.96875 17.975  3.578125 17.365625  L 11.825 9.121875  C 12.034375 8.915625  12.309375 8.8  12.603125 8.8  L 12.60625 8.8  C 12.9 8.8  13.171875 8.915625  13.378125 9.121875  C 13.5875 9.33125  13.7 9.60625  13.7 9.9  C 13.7 10.190625  13.584375 10.465625  13.378125 10.671875  L 6.6375 17.40625  C 6.584375 17.459375  6.55625 17.53125  6.55625 17.60625  C 6.55625 17.68125  6.584375 17.753125  6.6375 17.80625  L 7.790625 18.959375  C 7.9 19.06875  8.078125 19.06875  8.1875 18.959375  L 14.925 12.221875  C 15.546875 11.6  15.8875 10.775  15.8875 9.896875  C 15.8875 9.01875  15.54375 8.190625  14.925 7.571875  C 13.640625 6.2875  11.553125 6.290625  10.26875 7.571875  L 9.46875 8.375  L 2.025 15.815625  C 1 16.840625  0.4375 18.2  0.4375 19.65  C 0.4375 21.096875  1.003125 22.45625  2.025 23.478125  C 3.084375 24.534375  4.471875 25.0625  5.859375 25.0625  C 7.246875 25.0625  8.634375 24.534375  9.690625 23.478125  L 19.353125 13.821875  C 20.775 12.396875  21.5625 10.5  21.5625 8.484375  Z " fill-rule="nonzero" fill="#000000" stroke="none" transform="matrix(1 0 0 1 297 2153 )" />
  </g>
</svg>