<?xml version="1.0" encoding="utf-8"?>
<svg version="1.1" xmlns:xlink="http://www.w3.org/1999/xlink" width="22px" height="22px" xmlns="http://www.w3.org/2000/svg">
  <g transform="matrix(1 0 0 1 -297 -2497 )">
    <path d="M 21.7375 1.9375  C 21.8375 1.84375  21.8375 1.684375  21.740625 1.5875  L 20.415625 0.2625  C 20.31875 0.165625  20.159375 0.165625  20.0625 0.2625  L 0.259375 20.059375  C 0.162500000000001 20.15625  0.162500000000001 20.315625  0.259375 20.4125  L 1.584375 21.7375  C 1.68125 21.834375  1.840625 21.834375  1.9375 21.7375  L 21.7375 1.9375  Z M 0 4.5  C 0 6.98125  2.01875 9  4.5 9  C 6.98125 9  9 6.98125  9 4.5  C 9 2.01875  6.98125 0  4.5 0  C 2.01875 0  0 2.01875  0 4.5  Z M 2.25 4.5  C 2.25 3.259375  3.259375 2.25  4.5 2.25  C 5.740625 2.25  6.75 3.259375  6.75 4.5  C 6.75 5.740625  5.740625 6.75  4.5 6.75  C 3.259375 6.75  2.25 5.740625  2.25 4.5  Z M 22 17.5  C 22 15.01875  19.98125 13  17.5 13  C 15.01875 13  13 15.01875  13 17.5  C 13 19.98125  15.01875 22  17.5 22  C 19.98125 22  22 19.98125  22 17.5  Z M 19.75 17.5  C 19.75 18.740625  18.740625 19.75  17.5 19.75  C 16.259375 19.75  15.25 18.740625  15.25 17.5  C 15.25 16.259375  16.259375 15.25  17.5 15.25  C 18.740625 15.25  19.75 16.259375  19.75 17.5  Z " fill-rule="nonzero" fill="#ffffff" stroke="none" transform="matrix(1 0 0 1 297 2497 )" />
  </g>
</svg>