<?xml version="1.0" encoding="utf-8"?>
<svg version="1.1" xmlns:xlink="http://www.w3.org/1999/xlink" width="24px" height="28px" xmlns="http://www.w3.org/2000/svg">
  <g transform="matrix(1 0 0 1 -296 -2426 )">
    <path d="M 23.625 1  C 23.625 0.446875  23.178125 0  22.625 0  L 1.375 0  C 0.821875 0  0.375 0.446875  0.375 1  L 0.375 21.625  C 0.375 22.178125  0.821875 22.625  1.375 22.625  L 22.625 22.625  C 23.178125 22.625  23.625 22.178125  23.625 21.625  L 23.625 1  Z M 7.25 10.125  C 6.215625 10.125  5.375 9.284375  5.375 8.25  C 5.375 7.215625  6.215625 6.375  7.25 6.375  C 8.284375 6.375  9.125 7.215625  9.125 8.25  C 9.125 9.284375  8.284375 10.125  7.25 10.125  Z M 17 14.125  L 17 16  C 17 16.1375  16.8875 16.25  16.75 16.25  L 7.25 16.25  C 7.1125 16.25  7 16.1375  7 16  L 7 14.125  C 7 13.9875  7.1125 13.875  7.25 13.875  L 16.75 13.875  C 16.8875 13.875  17 13.9875  17 14.125  Z M 18.625 8.25  C 18.625 9.284375  17.784375 10.125  16.75 10.125  C 15.715625 10.125  14.875 9.284375  14.875 8.25  C 14.875 7.215625  15.715625 6.375  16.75 6.375  C 17.784375 6.375  18.625 7.215625  18.625 8.25  Z M 21.746875 26  C 21.75 25.446875  21.4 25  20.96875 25  L 3.03125 25  C 2.6 25  2.25 25.446875  2.25 26  L 2.25 27.75  C 2.25 27.8875  2.3375 28  2.44375 28  L 21.553125 28  C 21.659375 28  21.746875 27.8875  21.746875 27.75  L 21.746875 26  Z " fill-rule="nonzero" fill="#ffffff" stroke="none" transform="matrix(1 0 0 1 296 2426 )" />
  </g>
</svg>