<?xml version="1.0" encoding="utf-8"?>
<svg version="1.1" xmlns:xlink="http://www.w3.org/1999/xlink" width="24px" height="30px" xmlns="http://www.w3.org/2000/svg">
  <g transform="matrix(1 0 0 1 -296 -2563 )">
    <path d="M 9.896875 17.659375  C 9.978125 17.6  10.015625 17.5  9.99375 17.4  L 9.765625 16.384375  C 9.759375 16.353125  9.746875 16.325  9.73125 16.3  C 9.653125 16.184375  9.5 16.153125  9.384375 16.23125  L 8.65625 16.71875  L 8.65625 11.84375  C 8.65625 11.70625  8.54375 11.59375  8.40625 11.59375  L 5.875 11.59375  C 5.7375 11.59375  5.625 11.70625  5.625 11.84375  L 5.625 12.96875  C 5.625 13.10625  5.7375 13.21875  5.875 13.21875  L 7.03125 13.21875  L 7.03125 19.23125  C 7.03125 19.284375  7.046875 19.334375  7.078125 19.378125  C 7.159375 19.490625  7.315625 19.515625  7.428125 19.434375  L 9.896875 17.659375  Z M 6.528125 8.953125  L 8.221875 10.63125  L 8.228125 10.6375  C 8.328125 10.73125  8.4875 10.725  8.58125 10.621875  L 9.334375 9.803125  C 9.425 9.703125  9.421875 9.55  9.325 9.453125  L 7.646875 7.825  C 7.55 7.73125  7.39375 7.73125  7.296875 7.828125  L 6.525 8.6  C 6.428125 8.696875  6.428125 8.85625  6.528125 8.953125  Z M 23.55625 4.971875  C 23.5625 4.696875  23.35 4.4  23.090625 4.309375  L 12.471875 0.690625  C 12.34375 0.646875  12.171875 0.625  12 0.625  C 11.828125 0.625  11.65625 0.646875  11.528125 0.690625  L 0.909375 4.309375  C 0.649999999999999 4.396875  0.4375 4.696875  0.4375 4.971875  L 0.4375 20.046875  C 0.4375 20.321875  0.615625 20.684375  0.83125 20.85625  L 11.603125 29.25  C 11.7125 29.334375  11.853125 29.378125  11.996875 29.378125  C 12.140625 29.378125  12.284375 29.334375  12.390625 29.25  L 23.1625 20.85625  C 23.378125 20.6875  23.55625 20.325  23.55625 20.046875  L 23.55625 4.971875  Z M 21 6.084375  L 21 19.446875  L 12 26.703125  L 3 19.446875  L 3 6.084375  L 12 2.909375  L 21 6.084375  Z M 10.375 8.03125  C 10.2375 8.03125  10.125 8.14375  10.125 8.28125  L 10.125 9.40625  C 10.125 9.54375  10.2375 9.65625  10.375 9.65625  L 13.75 9.65625  L 13.75 18.21875  L 12.5625 18.21875  L 12.5625 11.65625  C 12.5625 11.51875  12.45 11.40625  12.3125 11.40625  L 11.21875 11.40625  C 11.08125 11.40625  10.96875 11.51875  10.96875 11.65625  L 10.96875 18.21875  L 10 18.21875  C 9.8625 18.21875  9.75 18.33125  9.75 18.46875  L 9.75 19.625  C 9.75 19.7625  9.8625 19.875  10 19.875  L 17.625 19.875  C 17.7625 19.875  17.875 19.7625  17.875 19.625  L 17.875 18.46875  C 17.875 18.33125  17.7625 18.21875  17.625 18.21875  L 15.375 18.21875  L 15.375 14.40625  L 17.1875 14.40625  C 17.325 14.40625  17.4375 14.29375  17.4375 14.15625  L 17.4375 13.0625  C 17.4375 12.925  17.325 12.8125  17.1875 12.8125  L 15.375 12.8125  L 15.375 9.65625  L 17.34375 9.65625  C 17.48125 9.65625  17.59375 9.54375  17.59375 9.40625  L 17.59375 8.28125  C 17.59375 8.14375  17.48125 8.03125  17.34375 8.03125  L 10.375 8.03125  Z " fill-rule="nonzero" fill="#000000" stroke="none" transform="matrix(1 0 0 1 296 2563 )" />
  </g>
</svg>