<?xml version="1.0" encoding="utf-8"?>
<svg version="1.1" xmlns:xlink="http://www.w3.org/1999/xlink" width="22px" height="26px" xmlns="http://www.w3.org/2000/svg">
  <g transform="matrix(1 0 0 1 -297 -2290 )">
    <path d="M 22 0.75  C 22 0.6125  21.8875 0.5  21.75 0.5  L 19.25 0.5  C 19.1125 0.5  19 0.6125  19 0.75  L 19 25.25  C 19 25.3875  19.1125 25.5  19.25 25.5  L 21.75 25.5  C 21.8875 25.5  22 25.3875  22 25.25  L 22 0.75  Z M 16.5 1.540625  C 16.5 0.965625  16.053125 0.5  15.5 1  L 1 1  C 0.446875 0.5  0 0.965625  0 1.540625  L 0 24.45625  C 0 25.03125  0.446875 25.496875  1 25  L 15.5 25  C 16.053125 25.496875  16.5 25.03125  16.5 24.45625  L 16.5 1.540625  Z M 7.25 17.75  L 7.25 23.25  L 2.25 23.25  L 2.25 17.75  L 7.25 17.75  Z M 7.25 10.25  L 7.25 15.75  L 2.25 15.75  L 2.25 10.25  L 7.25 10.25  Z M 7.25 2.75  L 7.25 8.25  L 2.25 8.25  L 2.25 2.75  L 7.25 2.75  Z M 14.25 17.75  L 14.25 23.25  L 9.25 23.25  L 9.25 17.75  L 14.25 17.75  Z M 14.25 10.25  L 14.25 15.75  L 9.25 15.75  L 9.25 10.25  L 14.25 10.25  Z M 14.25 2.75  L 14.25 8.25  L 9.25 8.25  L 9.25 2.75  L 14.25 2.75  Z " fill-rule="nonzero" fill="#000000" stroke="none" transform="matrix(1 0 0 1 297 2290 )" />
  </g>
</svg>