<?xml version="1.0" encoding="utf-8"?>
<svg version="1.1" xmlns:xlink="http://www.w3.org/1999/xlink" width="22px" height="18px" xmlns="http://www.w3.org/2000/svg">
  <g transform="matrix(1 0 0 1 -297 -158 )">
    <path d="M 20 9  C 20 8.853125  19.934375 8.703125  19.80625 8.603125  L 10.825 1.546875  C 10.490625 1.284375  10 1.521875  10 1.94375  L 10 16.05625  C 10 16.478125  10.490625 16.715625  10.825 16.453125  L 19.80625 9.396875  C 19.934375 9.296875  20 9.146875  20 9  Z M 10 8.996875  C 10 8.853125  9.934375 8.70312500000001  9.80625 8.603125  L 0.825 1.546875  C 0.490625000000001 1.284375  0 1.521875  0 1.94375  L 0 16.053125  C 0 16.475  0.490625 16.7125  0.825 16.45  L 9.80625 9.39375  C 9.934375 9.29375  10 9.14375  10 8.996875  Z M 22 0.9375  C 22 0.834375  21.909375 0.75  21.8 0.75  L 20.2 0.75  C 20.090625 0.75  20 0.834375  20 0.9375  L 20 17.0625  C 20 17.165625  20.090625 17.25  20.2 17.25  L 21.8 17.25  C 21.909375 17.25  22 17.165625  22 17.0625  L 22 0.9375  Z " fill-rule="nonzero" fill="#000000" stroke="none" transform="matrix(1 0 0 1 297 158 )" />
  </g>
</svg>