<?xml version="1.0" encoding="utf-8"?>
<svg version="1.1" xmlns:xlink="http://www.w3.org/1999/xlink" width="26px" height="26px" xmlns="http://www.w3.org/2000/svg">
  <g transform="matrix(1 0 0 1 -946 -1539 )">
    <path d="M 23 11.4375  L 24.9375 11.4375  C 25.903125 11.4375  26.30625 10.196875  25.521875 9.625  L 13.5875 0.94375  C 13.2377464319191 0.68750040594952  12.7622535680809 0.687500405949519  12.4125 0.94375  L 0.478125 9.625  C -0.30625 10.19375  0.0968749999999998 11.4375  1.065625 11.4375  L 3 11.4375  L 3 23.125  L 0.75 23.125  C 0.6125 23.125  0.5 23.2375  0.5 23.375  L 0.5 25  C 0.5 25.1375  0.6125 25.25  0.75 25  L 25.25 25  C 25.3875 25.25  25.5 25.1375  25.5 25  L 25.5 23.375  C 25.5 23.2375  25.3875 23.125  25.25 23.125  L 23 23.125  L 23 11.4375  Z M 4.528125 9.309375  L 13 3.146875  L 21.471875 9.309375  L 4.528125 9.309375  Z M 5.25 23.125  L 5.25 11.4375  L 9 11.4375  L 9 23.125  L 5.25 23.125  Z M 11.15625 23.125  L 11.15625 11.4375  L 14.8125 11.4375  L 14.8125 23.125  L 11.15625 23.125  Z M 20.75 11.4375  L 20.75 23.125  L 17 23.125  L 17 11.4375  L 20.75 11.4375  Z " fill-rule="nonzero" fill="#ffffff" stroke="none" transform="matrix(1 0 0 1 946 1539 )" />
  </g>
</svg>