<?xml version="1.0" encoding="utf-8"?>
<svg version="1.1" xmlns:xlink="http://www.w3.org/1999/xlink" width="26px" height="26px" xmlns="http://www.w3.org/2000/svg">
  <g transform="matrix(1 0 0 1 -946 -1608 )">
    <path d="M 4.75 8.96875  C 4.75 9.0375  4.79375 9.09375  4.85 9.09375  L 7 9.09375  L 7 11.24375  C 7 11.3  7.05625 11.34375  7.125 11.34375  L 8.625 11.34375  C 8.69375 11.34375  8.75 11.3  8.75 11.240625  L 8.75 9.09375  L 10.9 9.09375  C 10.95625 9.09375  11 9.0375  11 8.96875  L 11 7.46875  C 11 7.4  10.95625 7.34375  10.896875 7.34375  L 8.75 7.34375  L 8.75 5.19375  C 8.75 5.1375  8.69375 5.09375  8.625 5.09375  L 7.125 5.09375  C 7.05625 5.09375  7 5.1375  7 5.19375  L 7 7.34375  L 4.85 7.34375  C 4.79375 7.34375  4.75 7.4  4.75 7.46875  L 4.75 8.96875  Z M 15 8.96875  C 15 9.0375  15.04375 9.09375  15.1 9.09375  L 21.15 9.09375  C 21.20625 9.09375  21.25 9.0375  21.25 8.96875  L 21.25 7.46875  C 21.25 7.4  21.20625 7.34375  21.146875 7.34375  L 15.1 7.34375  C 15.04375 7.34375  15 7.4  15 7.46875  L 15 8.96875  Z M 15 17.25  C 15 17.31875  15.04375 17.375  15.1 17.375  L 21.15 17.375  C 21.20625 17.375  21.25 17.31875  21.25 17.25  L 21.25 15.75  C 21.25 15.68125  21.20625 15.625  21.146875 15.625  L 15.1 15.625  C 15.04375 15.625  15 15.68125  15 15.75  L 15 17.25  Z M 15 20.5  C 15 20.56875  15.04375 20.625  15.1 20.625  L 21.15 20.625  C 21.20625 20.625  21.25 20.56875  21.25 20.5  L 21.25 19  C 21.25 18.93125  21.20625 18.875  21.146875 18.875  L 15.1 18.875  C 15.04375 18.875  15 18.93125  15 19  L 15 20.5  Z M 10.9375 20.49375  L 8.984375 18.09375  L 10.896875 15.753125  C 11.03125 15.590625  10.91875 15.34375  10.7125 15.34375  L 9.125 15.34375  C 9.053125 15.34375  8.984375 15.375  8.940625 15.434375  L 7.878125 16.734375  L 6.815625 15.434375  C 6.76875 15.378125  6.7 15.34375  6.63125 15.34375  L 5.040625 15.34375  C 4.834375 15.34375  4.721875 15.590625  4.85625 15.753125  L 6.76875 18.09375  L 4.809375 20.49375  C 4.671875 20.65625  4.784375 20.903125  4.990625 20.903125  L 6.578125 20.903125  C 6.65 20.903125  6.71875 20.871875  6.7625 20.8125  L 7.871875 19.453125  L 8.98125 20.8125  C 9.028125 20.86875  9.096875 20.903125  9.165625 20.903125  L 10.753125 20.903125  C 10.959375 20.903125  11.071875 20.65625  10.9375 20.49375  Z M 25 1.5  C 25.5 0.946875  25.053125 0.5  24.5 1  L 1.5 1  C 0.946875 0.5  0.5 0.946875  1 1.5  L 1 24.5  C 0.5 25.053125  0.946875 25.5  1.5 25  L 24.5 25  C 25.053125 25.5  25.5 25.053125  25 24.5  L 25 1.5  Z M 23 3  L 23 23  L 3 23  L 3 3  L 23 3  Z " fill-rule="nonzero" fill="#ffffff" stroke="none" transform="matrix(1 0 0 1 946 1608 )" />
  </g>
</svg>