<?xml version="1.0" encoding="utf-8"?>
<svg version="1.1" xmlns:xlink="http://www.w3.org/1999/xlink" width="28px" height="22px" xmlns="http://www.w3.org/2000/svg">
  <g transform="matrix(1 0 0 1 -945 -1746 )">
    <path d="M 28 1  C 28 0.446875  27.553125 0  27 0  L 1 0  C 0.446875 0  0 0.446875  0 1  L 0 21  C 0 21.553125  0.446875 22  1 22  L 27 22  C 27.553125 22  28 21.553125  28 21  L 28 1  Z M 2.25 6  L 2.25 2.25  L 25.75 2.25  L 25.75 6  L 2.25 6  Z M 25.75 9  L 25.75 19.75  L 2.25 19.75  L 2.25 9  L 25.75 9  Z M 18.09375 17.5  C 18.09375 17.6375  18.20625 17.75  18.34375 17.75  L 23.5 17.75  C 23.6375 17.75  23.75 17.6375  23.75 17.5  L 23.75 15.25  C 23.75 15.1125  23.6375 15  23.5 15  L 18.34375 15  C 18.20625 15  18.09375 15.1125  18.09375 15.25  L 18.09375 17.5  Z " fill-rule="nonzero" fill="#000000" stroke="none" transform="matrix(1 0 0 1 945 1746 )" />
  </g>
</svg>