<?xml version="1.0" encoding="utf-8"?>
<svg version="1.1" xmlns:xlink="http://www.w3.org/1999/xlink" width="26px" height="26px" xmlns="http://www.w3.org/2000/svg">
  <g transform="matrix(1 0 0 1 -946 -1812 )">
    <path d="M 25.5 14.75  C 25.5 13.865625  25.209375 13.015625  24.684375 12.321875  C 24.796875 11.946875  24.853125 11.559375  24.853125 11.165625  C 24.853125 10.28125  24.5625 9.43125  24.0375 8.7375  C 24.15 8.3625  24.20625 7.975  24.20625 7.58125  C 24.20625 6.696875  23.915625 5.846875  23.390625 5.153125  C 23.503125 4.778125  23.559375 4.390625  23.559375 3.996875  C 23.559375 2.384375  22.6 0.931250000000001  21.1125 0.296875000000001  C 20.853125 0.184375000000001  20.575 0.128125000000001  20.284375 0.128125000000001  L 1.5 0.128125000000001  C 0.946875 0.128125000000001  0.5 0.575000000000001  1 1.128125  L 1 12.503125  C 0.5 13.05625  0.946875 13.503125  1.5 13.503125  L 5.540625 13.503125  L 8.221875 23.215625  C 8.653125 24.78125  10.090625 25.875  11.715625 25.875  C 12.64375 25.875  13.509375 25.50625  14.15 24.83125  C 14.790625 24.159375  15.11875 23.278125  15.071875 22.35  L 14.884375 18.509375  L 22.38125 18.509375  C 22.759375 18.509375  23.128125 18.409375  23.453125 18.21875  C 24.715625 17.484375  25.5 16.153125  25.5 14.75  Z M 5.28125 11.25  L 2.75 11.25  L 2.75 2.375  L 5.28125 2.375  L 5.28125 11.25  Z M 23.25 14.75  C 23.25 15.346875  22.90625 15.921875  22.35 16.2625  L 12.525 16.2625  L 12.825 22.4625  C 12.84375 22.834375  12.678125 23.184375  12.36875 23.415625  C 12.178125 23.55625  11.94375 23.628125  11.709375 23.625  C 11.096875 23.621875  10.55625 23.20625  10.390625 22.615625  L 7.28125 11.35  L 7.28125 2.375  L 20.2625 2.375  C 20.9 2.6625  21.3125 3.29375  21.3125 3.99375  C 21.3125 4.296875  21.240625 4.584375  21.096875 4.846875  L 20.6625 5.640625  L 21.346875 6.234375  C 21.7375 6.571875  21.959375 7.0625  21.959375 7.578125  C 21.959375 7.88125  21.8875 8.16875  21.74375 8.43125  L 21.309375 9.225  L 21.99375 9.81875  C 22.384375 10.15625  22.60625 10.646875  22.60625 11.1625  C 22.60625 11.465625  22.534375 11.753125  22.390625 12.015625  L 21.953125 12.8125  L 22.6375 13.40625  C 23.028125 13.74375  23.25 14.234375  23.25 14.75  Z " fill-rule="nonzero" fill="#ffffff" stroke="none" transform="matrix(1 0 0 1 946 1812 )" />
  </g>
</svg>