<?xml version="1.0" encoding="utf-8"?>
<svg version="1.1" xmlns:xlink="http://www.w3.org/1999/xlink" width="28px" height="25px" xmlns="http://www.w3.org/2000/svg">
  <g transform="matrix(1 0 0 1 -945 -1881 )">
    <path d="M 27.44375 13.803125  C 27.684375 13.296875  27.684375 12.709375  27.446875 12.2  L 27.44375 12.196875  L 27.440625 12.19375  C 26.303125 9.796875  24.940625 7.859375  23.35625 6.38125  L 21.771875 7.96875  C 23.1375 9.225  24.31875 10.896875  25.3375 12.996875  C 22.734375 18.38125  19.04375 20.9375  14 20.9375  C 12.396875 20.9375  10.928125 20.678125  9.5875 20.153125  L 7.878125 21.8625  C 9.70625 22.74375  11.74375 23.1875  14 23.1875  C 20.00625 23.1875  24.48125 20.046875  27.44375 13.803125  Z M 25.446875 2.16875  C 25.54375 2.075  25.54375 1.915625  25.446875 1.81875  L 24.121875 0.493749999999999  C 24.025 0.396875  23.865625 0.396875  23.76875 0.493749999999999  L 20.11875 4.140625  C 18.29375 3.25625  16.25625 2.8125  14 2.8125  C 7.99375 2.8125  3.51875 5.953125  0.55625 12.196875  L 0.55625 12.2  C 0.315625 12.70625  0.315625 13.3  0.55625 13.809375  C 1.69375 16.20625  3.05625 18.14375  4.640625 19.625  L 1.49375 22.765625  C 1.396875 22.8625  1.396875 23.021875  1.49375 23.11875  L 2.81875 24.44375  C 2.915625 24.540625  3.075 24.540625  3.171875 24.44375  L 25.446875 2.16875  Z M 14.66875 9.590625  L 10.465625 13.79375  C 10.40625 13.5375  10.375 13.271875  10.375 13  C 10.375 11.065625  11.940625 9.5  13.875 9.5  C 14.146875 9.5  14.415625 9.53125  14.66875 9.590625  Z M 18.4125 5.846875  L 16.23125 8.028125  C 15.515625 7.690625  14.71875 7.5  13.875 7.5  C 10.8375 7.5  8.375 9.9625  8.375 13  C 8.375 13.84375  8.565625 14.640625  8.903125 15.35625  L 6.228125 18.03125  C 4.8625 16.775  3.68125 15.103125  2.6625 13.003125  C 5.26875 7.61875  8.959375 5.0625  14 5.0625  C 15.603125 5.0625  17.071875 5.321875  18.4125 5.846875  Z M 17.378125 12.996875  C 17.375 14.934375  15.809375 16.5  13.875 16.5  C 13.675 16.5  13.478125 16.484375  13.2875 16.45  L 11.690625 18.046875  C 12.359375 18.3375  13.1 18.496875  13.875 18.496875  C 16.9125 18.496875  19.375 16.034375  19.375 12.996875  C 19.375 12.221875  19.215625 11.48125  18.925 10.8125  L 17.328125 12.409375  C 17.359375 12.6  17.378125 12.796875  17.378125 12.996875  Z " fill-rule="nonzero" fill="#ffffff" stroke="none" transform="matrix(1 0 0 1 945 1881 )" />
  </g>
</svg>