<?xml version="1.0" encoding="utf-8"?>
<svg version="1.1" xmlns:xlink="http://www.w3.org/1999/xlink" width="24px" height="27px" xmlns="http://www.w3.org/2000/svg">
  <g transform="matrix(1 0 0 1 -947 -2634 )">
    <path d="M 23.5 4.25  C 23.5 3.559375  22.940625 3  22.25 3  L 20.5 3  L 20.5 0.75  C 20.5 0.334375  20.165625 0  19.75 0  L 1.25 0  C 0.834375 0  0.5 0.334375  0.5 0.75  L 0.5 9.25  C 0.5 9.665625  0.834375 10  1.25 10  L 19.75 10  C 20.165625 10  20.5 9.665625  20.5 9.25  L 20.5 5  L 21.5 5  L 21.5 11.25  L 10.53125 11.25  C 9.840625 11.25  9.28125 11.809375  9.28125 12.5  L 9.28125 16.75  L 7.90625 16.75  C 7.76875 16.75  7.65625 16.8625  7.65625 17  L 7.65625 24.125  C 7.65625 24.159375  7.6625 24.19375  7.675 24.221875  C 7.6625 24.271875  7.65625 24.321875  7.65625 24.375  C 7.65625 25.825  8.83125 27  10.28125 27  C 11.73125 27  12.90625 25.825  12.90625 24.375  C 12.90625 24.321875  12.9 24.271875  12.8875 24.221875  C 12.9 24.190625  12.90625 24.159375  12.90625 24.125  L 12.90625 17  C 12.90625 16.8625  12.79375 16.75  12.65625 16.75  L 11.28125 16.75  L 11.28125 13  L 22.25 13  C 22.940625 13.25  23.5 12.690625  23.5 12  L 23.5 4.25  Z " fill-rule="nonzero" fill="#000000" stroke="none" transform="matrix(1 0 0 1 947 2634 )" />
  </g>
</svg>