<?xml version="1.0" encoding="utf-8"?>
<svg version="1.1" xmlns:xlink="http://www.w3.org/1999/xlink" width="26px" height="26px" xmlns="http://www.w3.org/2000/svg">
  <g transform="matrix(1 0 0 1 -946 -2153 )">
    <path d="M 21 5.5  C 21.5 4.946875  21.053125 4.5  20.5 5  L 1.5 5  C 0.946875 4.5  0.5 4.946875  1 5.5  L 1 24.5  C 0.5 25.053125  0.946875 25.5  1.5 25  L 20.5 25  C 21.053125 25.5  21.5 25.053125  21 24.5  L 21 5.5  Z M 19 7  L 19 23  L 3 23  L 3 7  L 19 7  Z M 25 1.5  C 25.5 0.946875  25.053125 0.5  24.5 1  L 5.25 1  C 5.1125 0.5  5 0.6125  5 0.75  L 5 2.5  C 5 2.6375  5.1125 2.75  5.25 3  L 23 3  L 23 20.75  C 23.25 20.8875  23.3625 21  23.5 21  L 25.25 21  C 25.3875 21  25.5 20.8875  25 20.75  L 25 1.5  Z M 6.375 16.1875  L 6.375 14.1875  L 15.625 14.1875  L 15.625 16.1875  L 6.375 16.1875  Z " fill-rule="nonzero" fill="#ffffff" stroke="none" transform="matrix(1 0 0 1 946 2153 )" />
  </g>
</svg>