<?xml version="1.0" encoding="utf-8"?>
<svg version="1.1" xmlns:xlink="http://www.w3.org/1999/xlink" width="22px" height="26px" xmlns="http://www.w3.org/2000/svg">
  <g transform="matrix(1 0 0 1 -948 -2495 )">
    <path d="M 21.671875 8.65625  C 21.834375 8.503125  21.725 8.228125  21.5 8.228125  L 14.615625 8.228125  L 20.80625 0.40625  C 20.934375 0.240625  20.81875 0  20.609375 0  L 8.625 0  C 8.5375 0  8.453125 0.046875  8.409375 0.125  L 0.3125 14.109375  C 0.215625 14.275  0.334375 14.484375  0.528125 14.484375  L 5.978125 14.484375  L 3.184375 25.659375  C 3.125 25.903125  3.41875 26.075  3.6 25.9  L 21.671875 8.65625  Z M 16.8125 10.35625  L 6.81875 19.890625  L 8.703125 12.359375  L 3.784375 12.359375  L 9.709375 2.128125  L 16.728125 2.128125  L 10.21875 10.35625  L 16.8125 10.35625  Z " fill-rule="nonzero" fill="#ffffff" stroke="none" transform="matrix(1 0 0 1 948 2495 )" />
  </g>
</svg>