<?xml version="1.0" encoding="utf-8"?>
<svg version="1.1" xmlns:xlink="http://www.w3.org/1999/xlink" width="24px" height="24px" xmlns="http://www.w3.org/2000/svg">
  <g transform="matrix(1 0 0 1 -947 -2428 )">
    <path d="M 11 0.25  C 10.875 0.1125  10.7625 0  10.625 0  L 1 0  C 0.446875 0  0 0.446875  0 1  L 0 10.625  C 0 10.7625  0.1125 10.875  0.25 11  L 10.625 11  C 10.7625 10.875  10.875 10.7625  11 10.625  L 11 0.25  Z M 8.875 2  L 8.875 8.875  L 2 8.875  L 2 2  L 8.875 2  Z M 4.3125 6.3125  C 4.3125 6.45  4.425 6.5625  4.5625 6.5625  L 6.3125 6.5625  C 6.45 6.5625  6.5625 6.45  6.5625 6.3125  L 6.5625 4.5625  C 6.5625 4.425  6.45 4.3125  6.3125 4.3125  L 4.5625 4.3125  C 4.425 4.3125  4.3125 4.425  4.3125 4.5625  L 4.3125 6.3125  Z M 11 13.375  C 10.875 13.2375  10.7625 13.125  10.625 13  L 0.25 13  C 0.1125 13.125  0 13.2375  0 13.375  L 0 23  C 0 23.553125  0.446875 24  1 24  L 10.625 24  C 10.7625 24  10.875 23.8875  11 23.75  L 11 13.375  Z M 8.875 15.125  L 8.875 22  L 2 22  L 2 15.125  L 8.875 15.125  Z M 4.3125 19.4375  C 4.3125 19.575  4.425 19.6875  4.5625 19.6875  L 6.3125 19.6875  C 6.45 19.6875  6.5625 19.575  6.5625 19.4375  L 6.5625 17.6875  C 6.5625 17.55  6.45 17.4375  6.3125 17.4375  L 4.5625 17.4375  C 4.425 17.4375  4.3125 17.55  4.3125 17.6875  L 4.3125 19.4375  Z M 24 1  C 24 0.446875  23.553125 0  23 0  L 13.375 0  C 13.2375 0  13.125 0.1125  13 0.25  L 13 10.625  C 13.125 10.7625  13.2375 10.875  13.375 11  L 23.75 11  C 23.8875 10.875  24 10.7625  24 10.625  L 24 1  Z M 22 2  L 22 8.875  L 15.125 8.875  L 15.125 2  L 22 2  Z M 17.4375 6.3125  C 17.4375 6.45  17.55 6.5625  17.6875 6.5625  L 19.4375 6.5625  C 19.575 6.5625  19.6875 6.45  19.6875 6.3125  L 19.6875 4.5625  C 19.6875 4.425  19.575 4.3125  19.4375 4.3125  L 17.6875 4.3125  C 17.55 4.3125  17.4375 4.425  17.4375 4.5625  L 17.4375 6.3125  Z M 24 13.375  C 24 13.2375  23.8875 13.125  23.75 13.125  L 22.25 13.125  C 22.1125 13.125  22 13.2375  22 13.375  L 22 17.5625  L 19.5625 17.5625  L 19.5625 13.375  C 19.5625 13.2375  19.45 13.125  19.3125 13.125  L 13.375 13.125  C 13.2375 13.125  13.125 13.2375  13 13.375  L 13 23.75  C 13.125 23.8875  13.2375 24  13.375 24  L 14.875 24  C 15.0125 24  15.125 23.8875  15.125 23.75  L 15.125 16.125  L 17.5625 16.125  L 17.5625 19.3125  C 17.5625 19.45  17.675 19.5625  17.8125 19.5625  L 23.75 19.5625  C 23.8875 19.5625  24 19.45  24 19.3125  L 24 13.375  Z M 19.5625 22.25  C 19.5625 22.1125  19.45 22  19.3125 22  L 17.8125 22  C 17.675 22  17.5625 22.1125  17.5625 22.25  L 17.5625 23.75  C 17.5625 23.8875  17.675 24  17.8125 24  L 19.3125 24  C 19.45 24  19.5625 23.8875  19.5625 23.75  L 19.5625 22.25  Z M 24 22.25  C 24 22.1125  23.8875 22  23.75 22  L 22.25 22  C 22.1125 22  22 22.1125  22 22.25  L 22 23.75  C 22 23.8875  22.1125 24  22.25 24  L 23.75 24  C 23.8875 24  24 23.8875  24 23.75  L 24 22.25  Z " fill-rule="nonzero" fill="#000000" stroke="none" transform="matrix(1 0 0 1 947 2428 )" />
  </g>
</svg>