<?xml version="1.0" encoding="utf-8"?>
<svg version="1.1" xmlns:xlink="http://www.w3.org/1999/xlink" width="27px" height="27px" xmlns="http://www.w3.org/2000/svg">
  <g transform="matrix(1 0 0 1 -946 -2564 )">
    <path d="M 24.0436298076923 14.7591346153846  C 26.7825721153846 12.0169471153846  27.2141826923077 7.84362980769231  25.3319711538462 4.65685096153846  C 25.3157451923077 4.62764423076923  25.2930288461538 4.5984375  25.2670673076923 4.57572115384615  C 25.1048076923077 4.41346153846154  24.8419471153846 4.41346153846154  24.6796875 4.57572115384615  L 19.0882211538462 10.1671875  L 16.8847355769231 7.96370192307692  L 22.4794471153846 2.36899038461538  C 22.5054086538462 2.34302884615385  22.5248798076923 2.31706730769231  22.5443509615385 2.28786057692308  C 22.6611778846154 2.08990384615385  22.5962740384615 1.83677884615385  22.3983173076923 1.71995192307692  C 19.2115384615385 -0.162259615384615  15.0382211538462 0.269350961538461  12.2960336538462 3.00829326923077  C 10.1217548076923 5.18257211538462  9.40132211538462 8.26550480769231  10.1379807692308 11.0368990384615  L 0.629567307692309 20.5453125  C 0.53221153846154 20.6426682692308  0.538701923076924 20.8016826923077  0.639302884615386 20.9022836538462  L 6.14639423076923 26.409375  C 6.24699519230769 26.5099759615385  6.40925480769231 26.5164663461538  6.50336538461539 26.4191105769231  L 16.0085336538462 16.9139423076923  C 18.7831730769231 17.6538461538461  21.8661057692308 16.9366586538462  24.0436298076923 14.7591346153846  Z M 24.13125 8.43425480769231  C 24.2513221153846 10.1152644230769  23.6639423076923 11.8352163461538  22.3918269230769 13.1040865384615  C 20.5063701923077 14.9895432692308  17.6765625 15.3530048076923  15.4276442307692 14.1944711538462  L 15.1420673076923 14.4800480769231  L 15.1388221153846 14.4768028846154  L 6.24699519230769 23.371875  L 3.67680288461538 20.8016826923077  L 11.1439903846154 13.3344951923077  C 11.1439903846154 13.3344951923077  11.1439903846154 13.3377403846154  11.1472355769231 13.3377403846154  L 12.8606971153846 11.6242788461538  C 11.7021634615385 9.37536057692307  12.065625 6.54555288461538  13.9510817307692 4.66009615384615  C 15.2231971153846 3.38798076923076  16.9399038461538 2.80060096153846  18.6241586538462 2.92391826923077  L 14.3112980769231 7.23353365384615  C 13.9056490384615 7.63918269230769  13.9056490384615 8.29795673076923  14.3112980769231 8.70360576923077  L 18.3515625 12.7438701923077  C 18.7572115384615 13.1495192307692  19.4159855769231 13.1495192307692  19.8216346153846 12.7438701923077  L 24.13125 8.43425480769231  Z " fill-rule="nonzero" fill="#ffffff" stroke="none" transform="matrix(1 0 0 1 946 2564 )" />
  </g>
</svg>