<?xml version="1.0" encoding="utf-8"?>
<svg version="1.1" xmlns:xlink="http://www.w3.org/1999/xlink" width="24px" height="26px" xmlns="http://www.w3.org/2000/svg">
  <g transform="matrix(1 0 0 1 -947 -2290 )">
    <path d="M 23.5 14.125  C 23.5 12.128125  21.81875 10.5  19.75 10.5  L 19.75 1.5  C 19.75 0.946875  19.303125 0.5  18.75 1  L 5.25 1  C 4.696875 0.5  4.25 0.946875  4.25 1.5  L 4.25 10.5  C 2.18125 10.5  0.5 12.128125  0.5 14.125  L 0.5 25.25  C 0.5 25.3875  0.6125 25.5  0.75 25.5  L 2.5 25.5  C 2.6375 25.5  2.75 25.3875  3 25.25  L 3 14.125  C 2.75 13.365625  3.425 12.75  4.253125 13  L 19.746875 13  C 20.575 12.75  21.25 13.365625  21 14.125  L 21 25.25  C 21.25 25.3875  21.3625 25.5  21.5 25.5  L 23.25 25.5  C 23.3875 25.5  23.5 25.3875  23.5 25.25  L 23.5 14.125  Z M 17.5 11  L 6.5 11  L 6.5 3  L 17.5 3  L 17.5 11  Z M 10.5 5  C 10.5 4.8625  10.3875 4.75  10.25 4.75  L 8.75 4.75  C 8.6125 4.75  8.5 4.8625  8.5 5  L 8.5 6.5  C 8.5 6.6375  8.6125 6.75  8.75 6.75  L 10.25 6.75  C 10.3875 6.75  10.5 6.6375  10.5 6.5  L 10.5 5  Z M 15.5 5  C 15.5 4.8625  15.3875 4.75  15.25 4.75  L 13.75 4.75  C 13.6125 4.75  13.5 4.8625  13.5 5  L 13.5 6.5  C 13.5 6.6375  13.6125 6.75  13.75 6.75  L 15.25 6.75  C 15.3875 6.75  15.5 6.6375  15.5 6.5  L 15.5 5  Z " fill-rule="nonzero" fill="#ffffff" stroke="none" transform="matrix(1 0 0 1 947 2290 )" />
  </g>
</svg>