<?xml version="1.0" encoding="utf-8"?>
<svg version="1.1" xmlns:xlink="http://www.w3.org/1999/xlink" width="28px" height="28px" xmlns="http://www.w3.org/2000/svg">
  <g transform="matrix(1 0 0 1 -294 -219 )">
    <path d="M 19.7625 11.053125  C 19.884375 10.8875  19.765625 10.65625  19.5625 10.65625  L 18.096875 10.65625  C 17.778125 10.65625  17.475 10.809375  17.2875 11.06875  L 14 15.6125  L 10.7125 11.06875  C 10.525 10.809375  10.225 10.65625  9.903125 10.65625  L 8.4375 10.65625  C 8.234375 10.65625  8.115625 10.8875  8.234375 11.053125  L 13.796875 18.740625  C 13.896875 18.878125  14.1 18.878125  14.2 18.740625  L 19.7625 11.053125  Z M 28 14  C 28 6.26875  21.73125 0  14 0  C 6.26875 0  0 6.26875  0 14  C 0 21.73125  6.26875 28  14 28  C 21.73125 28  28 21.73125  28 14  Z M 25.625 14  C 25.625 20.41875  20.41875 25.625  14 25.625  C 7.58125 25.625  2.375 20.41875  2.375 14  C 2.375 7.58125  7.58125 2.375  14 2.375  C 20.41875 2.375  25.625 7.58125  25.625 14  Z " fill-rule="nonzero" fill="#ffffff" stroke="none" transform="matrix(1 0 0 1 294 219 )" />
  </g>
</svg>