<?xml version="1.0" encoding="utf-8"?>
<svg version="1.1" xmlns:xlink="http://www.w3.org/1999/xlink" width="29px" height="22px" xmlns="http://www.w3.org/2000/svg">
  <g transform="matrix(1 0 0 1 -1038 -1541 )">
    <path d="M 2 0.25  C 2 0.1125  1.8875 0  1.75 0  L 0.25 0  C 0.1125 0  0 0.1125  0 0.25  L 0 21.75  C 0 21.8875  0.1125 22  0.25 22  L 1.75 22  C 1.8875 22  2 21.8875  2 21.75  L 2 0.25  Z M 28 0.25  C 28.03125 0.1125  27.91875 0  27.78125 0  L 26.28125 0  C 26.14375 0  26.03125 0.1125  26 0.25  L 26 21.75  C 26.03125 21.8875  26.14375 22  26.28125 22  L 27.78125 22  C 27.91875 22  28.03125 21.8875  28 21.75  L 28 0.25  Z M 4 17.75  C 4 17.8875  4.1125 18  4.25 18  L 7.75 18  C 7.8875 18  8 17.8875  8 17.75  L 8 0.25  C 8 0.1125  7.8875 0  7.75 0  L 4.25 0  C 4.1125 0  4 0.1125  4 0.25  L 4 17.75  Z M 14 17.75  C 14.03125 17.8875  14.14375 18  14.28125 18  L 15.78125 18  C 15.91875 18  16.03125 17.8875  16 17.75  L 16 0.25  C 16.03125 0.1125  15.91875 0  15.78125 0  L 14.28125 0  C 14.14375 0  14.03125 0.1125  14 0.25  L 14 17.75  Z M 18 17.75  C 17.96875 17.8875  18.08125 18  18.21875 18  L 23.78125 18  C 23.91875 18  24.03125 17.8875  24 17.75  L 24 0.25  C 24.03125 0.1125  23.91875 0  23.78125 0  L 18.21875 0  C 18.08125 0  17.96875 0.1125  18 0.25  L 18 17.75  Z M 10 17.75  C 10 17.8875  10.1125 18  10.25 18  L 11.75 18  C 11.8875 18  12 17.8875  12 17.75  L 12 0.25  C 12 0.1125  11.8875 0  11.75 0  L 10.25 0  C 10.1125 0  10 0.1125  10 0.25  L 10 17.75  Z M 8.03125 20.25  C 8.03125 20.1125  7.91875 20  7.78125 20  L 4.28125 20  C 4.14375 20  4.03125 20.1125  4.03125 20.25  L 4.03125 21.75  C 4.03125 21.8875  4.14375 22  4.28125 22  L 7.78125 22  C 7.91875 22  8.03125 21.8875  8.03125 21.75  L 8.03125 20.25  Z M 16.0625 20.25  C 16.0625 20.1125  15.95 20  15.8125 20  L 14.3125 20  C 14.175 20  14.0625 20.1125  14.0625 20.25  L 14.0625 21.75  C 14.0625 21.8875  14.175 22  14.3125 22  L 15.8125 22  C 15.95 22  16.0625 21.8875  16.0625 21.75  L 16.0625 20.25  Z M 24.0625 20.25  C 24.0625 20.1125  23.95 20  23.8125 20  L 18.25 20  C 18.1125 20  18 20.1125  18 20.25  L 18 21.75  C 18 21.8875  18.1125 22  18.25 22  L 23.8125 22  C 23.95 22  24.0625 21.8875  24.0625 21.75  L 24.0625 20.25  Z M 12.03125 20.25  C 12.03125 20.1125  11.91875 20  11.78125 20  L 10.28125 20  C 10.14375 20  10.03125 20.1125  10.03125 20.25  L 10.03125 21.75  C 10.03125 21.8875  10.14375 22  10.28125 22  L 11.78125 22  C 11.91875 22  12.03125 21.8875  12.03125 21.75  L 12.03125 20.25  Z " fill-rule="nonzero" fill="#000000" stroke="none" transform="matrix(1 0 0 1 1038 1541 )" />
  </g>
</svg>