<?xml version="1.0" encoding="utf-8"?>
<svg version="1.1" xmlns:xlink="http://www.w3.org/1999/xlink" width="24px" height="24px" xmlns="http://www.w3.org/2000/svg">
  <g transform="matrix(1 0 0 1 -1041 -1677 )">
    <path d="M 24 17.5  C 24 17.3625  23.8875 17.25  23.75 17.25  L 22.0625 17.25  L 22.0625 12.875  L 13.0625 12.875  L 13.0625 10  L 20.5 10  C 20.775 10  21 9.775  21 9.5  L 21 1.25  C 21 0.975  20.775 0.75  20.5 1  L 3.5 1  C 3.225 0.75  3 0.975  3 1.25  L 3 9.5  C 3 9.775  3.225 10  3.5 10  L 10.9375 10  L 10.9375 12.875  L 1.9375 12.875  L 1.9375 17.25  L 0.25 17.25  C 0.1125 17.25  0 17.3625  0 17.5  L 0 23  C 0 23.1375  0.1125 23.25  0.25 23.25  L 5.75 23.25  C 5.8875 23.25  6 23.1375  6 23  L 6 17.5  C 6 17.3625  5.8875 17.25  5.75 17.25  L 4.0625 17.25  L 4.0625 15  L 10.9375 15  L 10.9375 17.25  L 9.25 17.25  C 9.1125 17.25  9 17.3625  9 17.5  L 9 23  C 9 23.1375  9.1125 23.25  9.25 23.25  L 14.75 23.25  C 14.8875 23.25  15 23.1375  15 23  L 15 17.5  C 15 17.3625  14.8875 17.25  14.75 17.25  L 13.0625 17.25  L 13.0625 15  L 19.9375 15  L 19.9375 17.25  L 18.25 17.25  C 18.1125 17.25  18 17.3625  18 17.5  L 18 23  C 18 23.1375  18.1125 23.25  18.25 23.25  L 23.75 23.25  C 23.8875 23.25  24 23.1375  24 23  L 24 17.5  Z M 4 19.33125  L 4 21.165625  C 4 21.2125  3.9625 21.25  3.915625 21.25  L 2.08125 21.25  C 2.034375 21.25  1.996875 21.2125  1.996875 21.165625  L 1.996875 19.33125  C 1.996875 19.284375  2.034375 19.246875  2.08125 19.246875  L 3.915625 19.246875  C 3.9625 19.246875  4 19.284375  4 19.33125  Z M 13 19.33125  L 13 21.165625  C 13 21.2125  12.9625 21.25  12.915625 21.25  L 11.08125 21.25  C 11.034375 21.25  10.996875 21.2125  10.996875 21.165625  L 10.996875 19.33125  C 10.996875 19.284375  11.034375 19.246875  11.08125 19.246875  L 12.915625 19.246875  C 12.9625 19.246875  13 19.284375  13 19.33125  Z M 19 8  L 5 8  L 5 3  L 19 3  L 19 8  Z M 22 19.33125  L 22 21.165625  C 22 21.2125  21.9625 21.25  21.915625 21.25  L 20.08125 21.25  C 20.034375 21.25  19.996875 21.2125  19.996875 21.165625  L 19.996875 19.33125  C 19.996875 19.284375  20.034375 19.246875  20.08125 19.246875  L 21.915625 19.246875  C 21.9625 19.246875  22 19.284375  22 19.33125  Z M 7.25 5.375  C 7.25 6.06535593728849  7.80964406271151 6.625  8.5 6.625  C 9.19035593728849 6.625  9.75 6.06535593728849  9.75 5.375  C 9.75 4.68464406271151  9.19035593728849 4.125  8.5 4.125  C 7.80964406271151 4.125  7.25 4.68464406271151  7.25 5.375  Z " fill-rule="nonzero" fill="#ffffff" stroke="none" transform="matrix(1 0 0 1 1041 1677 )" />
  </g>
</svg>