<?xml version="1.0" encoding="utf-8"?>
<svg version="1.1" xmlns:xlink="http://www.w3.org/1999/xlink" width="26px" height="24px" xmlns="http://www.w3.org/2000/svg">
  <g transform="matrix(1 0 0 1 -1040 -1745 )">
    <path d="M 25.496875 4.8875  C 25.521875 4.678125  25.29375 4.53125  25.1125 4.640625  L 19.03125 8.3875  L 13.2 0.609375  C 13.1 0.475  12.9 0.475  12.796875 0.609375  L 6.96875 8.3875  L 0.884375 4.640625  C 0.70625 4.53125  0.475 4.678125  0.503125 4.8875  L 2.890625 23.03125  C 2.925 23.278125  3.1375 23.46875  3.390625 23  L 22.6125 23  C 22.8625 23.46875  23.078125 23.28125  23.109375 23.03125  L 25.496875 4.8875  Z M 22.859375 8.5375  L 21.175 21  L 4.821875 21  L 3.140625 8.5375  L 7.509375 11.228125  L 13 3.903125  L 18.490625 11.228125  L 22.859375 8.5375  Z M 16.51875 15.425  C 16.51875 13.484375  14.940625 11.90625  13 11.90625  C 11.059375 11.90625  9.48125 13.484375  9.48125 15.425  C 9.48125 17.365625  11.059375 18.94375  13 18.94375  C 14.940625 18.94375  16.51875 17.365625  16.51875 15.425  Z M 14.50625 15.425  C 14.50625 16.25625  13.83125 16.934375  13 16.934375  C 12.16875 16.934375  11.49375 16.259375  11.49375 15.425  C 11.49375 14.59375  12.16875 13.915625  13 13.915625  C 13.83125 13.915625  14.50625 14.590625  14.50625 15.425  Z " fill-rule="nonzero" fill="#000000" stroke="none" transform="matrix(1 0 0 1 1040 1745 )" />
  </g>
</svg>