<?xml version="1.0" encoding="utf-8"?>
<svg version="1.1" xmlns:xlink="http://www.w3.org/1999/xlink" width="28px" height="28px" xmlns="http://www.w3.org/2000/svg">
  <g transform="matrix(1 0 0 1 -1039 -1811 )">
    <path d="M 28 14  C 28 6.26875  21.73125 0  14 0  C 6.26875 0  0 6.26875  0 14  C 0 21.73125  6.26875 28  14 28  C 21.73125 28  28 21.73125  28 14  Z M 25.625 14  C 25.625 20.41875  20.41875 25.625  14 25.625  C 7.58125 25.625  2.375 20.41875  2.375 14  C 2.375 7.58125  7.58125 2.375  14 2.375  C 20.41875 2.375  25.625 7.58125  25.625 14  Z M 18.896875 16.9125  C 18.89375 14.74375  17.515625 13.775  15.490625 13.275  L 14.696875 13.090625  L 14.696875 8.89375  C 15.884375 9.05625  16.61875 9.8  16.74375 10.7125  C 16.759375 10.8375  16.865625 10.928125  16.990625 10.928125  L 18.39375 10.928125  C 18.540625 10.928125  18.65625 10.8  18.64375 10.653125  C 18.453125 8.70625  16.85 7.45625  14.709375 7.240625  L 14.709375 6.21875  C 14.709375 6.08125  14.596875 5.96875  14.459375 5.96875  L 13.58125 5.96875  C 13.44375 5.96875  13.33125 6.08125  13.33125 6.21875  L 13.33125 7.25  C 11.11875 7.465625  9.3875 8.6875  9.3875 10.96875  C 9.3875 13.08125  10.94375 14.1  12.578125 14.490625  L 13.35 14.6875  L 13.35 19.146875  C 11.96875 18.9625  11.19375 18.225  11.034375 17.23125  C 11.015625 17.1125  10.909375 17.025  10.7875 17.025  L 9.34375 17.025  C 9.196875 17.025  9.08125 17.15  9.09375 17.296875  C 9.234375 19.015625  10.5375 20.596875  13.31875 20.8  L 13.31875 21.78125  C 13.31875 21.91875  13.43125 22.03125  13.56875 22.03125  L 14.45625 22.03125  C 14.59375 22.03125  14.70625 21.91875  14.70625 21.778125  L 14.7 20.7875  C 17.146875 20.571875  18.896875 19.2625  18.896875 16.9125  Z M 13.346875 8.89375  L 13.346875 12.76875  C 13.171875 12.71875  13.025 12.671875  12.878125 12.6125  C 11.821875 12.23125  11.33125 11.615625  11.33125 10.821875  C 11.33125 9.6875  12.190625 9.040625  13.346875 8.89375  Z M 16.946875 17.08125  C 16.946875 18.303125  16.028125 19.0375  14.696875 19.15625  L 14.696875 14.978125  C 14.79375 15.00625  14.88125 15.028125  14.971875 15.046875  C 16.45 15.496875  16.946875 16.121875  16.946875 17.08125  Z " fill-rule="nonzero" fill="#000000" stroke="none" transform="matrix(1 0 0 1 1039 1811 )" />
  </g>
</svg>