<?xml version="1.0" encoding="utf-8"?>
<svg version="1.1" xmlns:xlink="http://www.w3.org/1999/xlink" width="28px" height="22px" xmlns="http://www.w3.org/2000/svg">
  <g transform="matrix(1 0 0 1 -1039 -1882 )">
    <path d="M 27.44375 11.803125  C 27.684375 11.296875  27.684375 10.709375  27.44375 10.19375  C 24.48125 3.953125  20.003125 0.8125  14 0.8125  C 7.99375 0.8125  3.51875 3.953125  0.55625 10.196875  C 0.315625 10.703125  0.315625 11.296875  0.55625 11.80625  C 3.51875 18.046875  7.996875 21.1875  14 21.1875  C 20.00625 21.1875  24.48125 18.046875  27.44375 11.803125  Z M 25.334375 11  C 22.734375 16.38125  19.04375 18.9375  14 18.9375  C 8.959375 18.9375  5.26875 16.38125  2.665625 11  C 5.26875 5.61875  8.959375 3.0625  14 3.0625  C 19.040625 3.0625  22.73125 5.61875  25.334375 11  Z M 19.375 11  C 19.375 7.9625  16.9125 5.5  13.875 5.5  C 10.8375 5.5  8.375 7.9625  8.375 11  C 8.375 14.0375  10.8375 16.5  13.875 16.5  C 16.9125 16.5  19.375 14.0375  19.375 11  Z M 17.375 11  C 17.375 12.934375  15.809375 14.5  13.875 14.5  C 11.940625 14.5  10.375 12.934375  10.375 11  C 10.375 9.065625  11.940625 7.5  13.875 7.5  C 15.809375 7.5  17.375 9.065625  17.375 11  Z " fill-rule="nonzero" fill="#ffffff" stroke="none" transform="matrix(1 0 0 1 1039 1882 )" />
  </g>
</svg>