<?xml version="1.0" encoding="utf-8"?>
<svg version="1.1" xmlns:xlink="http://www.w3.org/1999/xlink" width="24px" height="24px" xmlns="http://www.w3.org/2000/svg">
  <g transform="matrix(1 0 0 1 -947 -353 )">
    <path d="M 8.809375 8.534375  L 8.21875 3.528125  C 8.19375 3.321875  7.940625 3.234375  7.79375 3.38125  L 6.428125 4.746875  L 2.25 0.571875  C 2.153125 0.475000000000001  1.99375 0.475000000000001  1.896875 0.571875  L 0.571874999999999 1.89375  C 0.475 1.990625  0.475 2.15  0.571874999999999 2.246875  L 4.75 6.425  L 3.378125 7.796875  C 3.23125 7.94375  3.31875 8.196875  3.525 8.221875  L 8.53125 8.8125  C 8.690625 8.83125  8.828125 8.696875  8.809375 8.534375  Z M 8.809375 15.465625  C 8.828125 15.30625  8.69375 15.171875  8.534375 15.190625  L 3.525 15.78125  C 3.31875 15.80625  3.23125 16.059375  3.378125 16.20625  L 4.75 17.578125  L 0.571875 21.75  C 0.475000000000001 21.846875  0.475000000000001 22.00625  0.571875 22.103125  L 1.896875 23.425  C 1.99375 23.521875  2.153125 23.521875  2.25 23.425  L 6.428125 19.25  L 7.79375 20.615625  C 7.940625 20.7625  8.19375 20.675  8.21875 20.46875  L 8.809375 15.465625  Z M 15.190625 8.53125  C 15.171875 8.69375  15.30625 8.828125  15.465625 8.809375  L 20.475 8.21875  C 20.68125 8.19375  20.76875 7.940625  20.621875 7.79375  L 19.25 6.425  L 23.428125 2.25  C 23.525 2.153125  23.525 1.99375  23.428125 1.896875  L 22.103125 0.574999999999999  C 22.00625 0.478124999999999  21.846875 0.478124999999999  21.75 0.574999999999999  L 17.571875 4.746875  L 16.20625 3.38125  C 16.059375 3.234375  15.80625 3.321875  15.78125 3.528125  L 15.190625 8.53125  Z M 23.428125 21.753125  L 19.25 17.575  L 20.621875 16.203125  C 20.76875 16.05625  20.68125 15.803125  20.475 15.778125  L 15.46875 15.1875  C 15.309375 15.16875  15.171875 15.303125  15.190625 15.465625  L 15.78125 20.471875  C 15.80625 20.678125  16.059375 20.765625  16.20625 20.61875  L 17.571875 19.253125  L 21.75 23.428125  C 21.846875 23.525  22.00625 23.525  22.103125 23.428125  L 23.428125 22.10625  C 23.525 22.009375  23.525 21.85  23.428125 21.753125  Z " fill-rule="nonzero" fill="#000000" stroke="none" transform="matrix(1 0 0 1 947 353 )" />
  </g>
</svg>