<?xml version="1.0" encoding="utf-8"?>
<svg version="1.1" xmlns:xlink="http://www.w3.org/1999/xlink" width="26px" height="26px" xmlns="http://www.w3.org/2000/svg">
  <g transform="matrix(1 0 0 1 -1040 -2153 )">
    <path d="M 21 17.53125  C 21 15.94375  19.7125 14.65625  18.125 14.65625  C 16.5375 14.65625  15.25 15.94375  15.25 17.53125  C 15.25 19.11875  16.5375 20.40625  18.125 20.40625  C 19.7125 20.40625  21 19.11875  21 17.53125  Z M 19.1875 17.53125  C 19.1875 18.11875  18.7125 18.59375  18.125 18.59375  C 17.5375 18.59375  17.0625 18.11875  17.0625 17.53125  C 17.0625 16.94375  17.5375 16.46875  18.125 16.46875  C 18.7125 16.46875  19.1875 16.94375  19.1875 17.53125  Z M 25 3.25  C 25.5 2.696875  25.053125 2.25  24.5 2.25  L 17.875 2.25  C 17.875 1.284375  17.090625 0.5  16.125 0.5  L 13.625 0.5  C 12.659375 0.5  11.875 1.284375  11.875 2.25  L 5.25 2.25  C 4.696875 2.25  4.25 2.696875  4.25 3.25  L 4.25 9.5  L 1.5 9.5  C 0.946875 9.5  0.5 9.946875  1 10.5  L 1 24.5  C 0.5 25.053125  0.946875 25.5  1.5 25  L 12 25  C 12.553125 25.5  13 25.053125  13 24.5  L 13 24  L 24.5 24  C 25.053125 24  25.5 23.553125  25 23  L 25 3.25  Z M 11.625 5.75  L 11.625 4.25  L 13.875 4.25  L 13.875 2.5  L 15.875 2.5  L 15.875 4.25  L 18.125 4.25  L 18.125 5.75  L 11.625 5.75  Z M 11 16.25  L 11 23.5  L 2.5 23.5  L 2.5 16.25  L 11 16.25  Z M 11 11.5  L 11 14.25  L 2.5 14.25  L 2.5 11.5  L 11 11.5  Z M 23 4.5  L 23 21.75  L 13 21.75  L 13 10.5  C 13 9.946875  12.553125 9.5  12 9.5  L 6.5 9.5  L 6.5 4.5  L 9.625 4.5  L 9.625 8  L 20.125 8  L 20.125 4.5  L 23 4.5  Z M 19.25 9.5  C 19.1125 9.5  19 9.6125  19 9.75  L 19 12.75  C 19 12.8875  19.1125 13  19.25 13  L 20.75 13  C 20.8875 13  21 12.8875  21 12.75  L 21 9.75  C 21 9.6125  20.8875 9.5  20.75 9.5  L 19.25 9.5  Z M 15.25 12.75  C 15.25 12.8875  15.3625 13  15.5 13  L 17 13  C 17.1375 13  17.25 12.8875  17.25 12.75  L 17.25 11  C 17.25 10.8625  17.1375 10.75  17 10.75  L 15.5 10.75  C 15.3625 10.75  15.25 10.8625  15.25 11  L 15.25 12.75  Z " fill-rule="nonzero" fill="#000000" stroke="none" transform="matrix(1 0 0 1 1040 2153 )" />
  </g>
</svg>