<?xml version="1.0" encoding="utf-8"?>
<svg version="1.1" xmlns:xlink="http://www.w3.org/1999/xlink" width="26px" height="26px" xmlns="http://www.w3.org/2000/svg">
  <g transform="matrix(1 0 0 1 -1040 -2495 )">
    <path d="M 25.5 7.6875  C 25.5 7.134375  25.053125 6.6875  24.5 6.6875  L 19.8875 6.6875  C 20.3125 6.01875  20.5625 5.225  20.5625 4.375  C 20.5625 1.996875  18.628125 0.0625  16.25 0.0625  C 14.95625 0.0625  13.790625 0.6375  13 1.54375  C 12.209375 0.6375  11.04375 0.0625  9.75 0.0625  C 7.371875 0.0625  5.4375 1.996875  5.4375 4.375  C 5.4375 5.225  5.684375 6.01875  6.1125 6.6875  L 1.5 6.6875  C 0.946875 6.6875  0.5 7.134375  0.5 7.6875  L 0.5 13.9375  C 0.5 14.075  0.6125 14.1875  0.75 14.1875  L 2 14.1875  L 2 24.9375  C 2 25.490625  2.446875 25.9375  3 26  L 23 26  C 23.553125 25.9375  24 25.490625  24 24.9375  L 24 14.1875  L 25.25 14.1875  C 25.3875 14.1875  25.5 14.075  25.5 13.9375  L 25.5 7.6875  Z M 14.0625 6.5625  L 14.0625 4.375  C 14.0625 3.16875  15.04375 2.1875  16.25 2.1875  C 17.45625 2.1875  18.4375 3.16875  18.4375 4.375  C 18.4375 5.58125  17.45625 6.5625  16.25 6.5625  L 14.0625 6.5625  Z M 7.5625 4.375  C 7.5625 3.16875  8.54375 2.1875  9.75 2.1875  C 10.95625 2.1875  11.9375 3.16875  11.9375 4.375  L 11.9375 6.5625  L 9.75 6.5625  C 8.54375 6.5625  7.5625 5.58125  7.5625 4.375  Z M 11.9375 12.0625  L 2.625 12.0625  L 2.625 8.8125  L 11.9375 8.8125  L 11.9375 12.0625  Z M 4.125 23.8125  L 4.125 14.1875  L 11.9375 14.1875  L 11.9375 23.8125  L 4.125 23.8125  Z M 21.875 14.1875  L 21.875 23.8125  L 14.0625 23.8125  L 14.0625 14.1875  L 21.875 14.1875  Z M 23.375 8.8125  L 23.375 12.0625  L 14.0625 12.0625  L 14.0625 8.8125  L 23.375 8.8125  Z " fill-rule="nonzero" fill="#000000" stroke="none" transform="matrix(1 0 0 1 1040 2495 )" />
  </g>
</svg>