<?xml version="1.0" encoding="utf-8"?>
<svg version="1.1" xmlns:xlink="http://www.w3.org/1999/xlink" width="22px" height="26px" xmlns="http://www.w3.org/2000/svg">
  <g transform="matrix(1 0 0 1 -1042 -2427 )">
    <path d="M 6.375 14.5  C 6.375 16.984375  8.390625 19  10.875 19  C 13.359375 19  15.375 16.984375  15.375 14.5  C 15.375 12.015625  13.359375 10  10.875 10  C 8.390625 10  6.375 12.015625  6.375 14.5  Z M 8.375 14.5  C 8.375 13.11875  9.49375 12  10.875 12  C 12.25625 12  13.375 13.11875  13.375 14.5  C 13.375 15.88125  12.25625 17  10.875 17  C 9.49375 17  8.375 15.88125  8.375 14.5  Z M 22 6  C 22 5.446875  21.553125 5  21 5  L 20.121875 5  L 19.00625 1.221875  C 18.88125 0.79375  18.490625 0.5  18.046875 1  L 3.953125 1  C 3.50625 0.5  3.115625 0.79375  2.99375 1.221875  L 1.878125 5  L 1 5  C 0.446875 5  0 5.446875  0 6  L 0 6.875  C 0 7.0125  0.1125 7.125  0.25 7.125  L 1.68125 7.125  L 3.171875 24.584375  C 3.215625 25.103125  3.65 25.5  4.16875 25  L 17.58125 25  C 18.1 25.5  18.534375 25.103125  18.578125 24.584375  L 20.06875 7.125  L 21.75 7.125  C 21.8875 7.125  22 7.0125  22 6.875  L 22 6  Z M 4.09375 5  L 4.79375 3  L 17.20625 3  L 17.90625 5  L 4.09375 5  Z M 17.934375 7.125  L 16.55 23  L 5.2 23  L 3.8125 7.125  L 17.934375 7.125  Z " fill-rule="nonzero" fill="#ffffff" stroke="none" transform="matrix(1 0 0 1 1042 2427 )" />
  </g>
</svg>