<?xml version="1.0" encoding="utf-8"?>
<svg version="1.1" xmlns:xlink="http://www.w3.org/1999/xlink" width="26px" height="26px" xmlns="http://www.w3.org/2000/svg">
  <g transform="matrix(1 0 0 1 -1040 -2358 )">
    <path d="M 25.5 3.375  C 25.5 2.615625  24.884375 2  24.125 2  L 21.25 2  L 21.25 0.75  C 21.25 0.6125  21.1375 0.5  21 1  L 5 1  C 4.8625 0.5  4.75 0.6125  4.75 0.75  L 4.75 2  L 1.875 2  C 1.115625 2  0.5 2.615625  0.5 3.375  L 0.5 8  C 0.5 10.553125  2.375 12.675  4.81875 13.0625  C 5.303125 16.69375  8.21875 19.553125  11.875 19.953125  L 11.875 23.240625  L 5.75 23.240625  C 5.196875 23.240625  4.75 23.6875  4.75 24.240625  L 4.75 25.25  C 4.75 25.3875  4.8625 25.5  5 25  L 21 25  C 21.1375 25.5  21.25 25.3875  21.25 25.25  L 21.25 24.240625  C 21.25 23.6875  20.803125 23.240625  20.25 23.240625  L 14.125 23.240625  L 14.125 19.953125  C 17.78125 19.553125  20.696875 16.69375  21.18125 13.0625  C 23.625 12.675  25.5 10.553125  25.5 8  L 25.5 3.375  Z M 4.75 10.7375  C 3.590625 10.36875  2.75 9.28125  2.75 8  L 2.75 4.25  L 4.75 4.25  L 4.75 10.7375  Z M 19 3  L 19 12  C 19 13.534375  18.403125 14.98125  17.315625 16.065625  C 16.228125 17.153125  14.784375 17.75  13.25 17.75  L 12.75 17.75  C 11.215625 17.75  9.76875 17.153125  8.684375 16.065625  C 7.596875 14.978125  7 13.534375  7 12  L 7 3  L 19 3  Z M 23.25 4.25  L 23.25 8  C 23.25 9.28125  22.409375 10.36875  21.25 10.7375  L 21.25 4.25  L 23.25 4.25  Z " fill-rule="nonzero" fill="#000000" stroke="none" transform="matrix(1 0 0 1 1040 2358 )" />
  </g>
</svg>