<?xml version="1.0" encoding="utf-8"?>
<svg version="1.1" xmlns:xlink="http://www.w3.org/1999/xlink" width="26px" height="24px" xmlns="http://www.w3.org/2000/svg">
  <g transform="matrix(1 0 0 1 -1040 -2566 )">
    <path d="M 16.571875 8.984375  C 16.571875 9.23125  16.771875 9.43125  17.01875 9.43125  L 25.053125 9.43125  C 25.3 9.43125  25.5 9.23125  25.5 8.984375  L 25.5 0.946875  C 25.5 0.7  25.3 0.5  25.053125 0.5  L 17.01875 0.5  C 16.771875 0.5  16.571875 0.7  16.571875 0.946875  L 16.571875 3.85  L 12.33125 3.85  C 12.209375 3.85  12.109375 3.95  12.109375 4.071875  L 12.109375 10.99375  L 9.43125 10.99375  L 9.43125 7.978125  C 9.43125 7.73125  9.23125 7.53125  8.984375 7.53125  L 0.946875 7.53125  C 0.7 7.53125  0.5 7.73125  0.5 7.978125  L 0.5 16.015625  C 0.5 16.2625  0.7 16.4625  0.946875 16.4625  L 8.98125 16.4625  C 9.228125 16.4625  9.428125 16.2625  9.428125 16.015625  L 9.428125 13  L 12.10625 13  L 12.10625 19.921875  C 12.10625 20.04375  12.20625 20.14375  12.328125 20.14375  L 16.56875 20.14375  L 16.56875 23.046875  C 16.56875 23.29375  16.76875 23.49375  17.015625 23.49375  L 25.05 23.49375  C 25.296875 23.49375  25.496875 23.29375  25.496875 23.046875  L 25.496875 15.015625  C 25.496875 14.76875  25.296875 14.56875  25.05 14.56875  L 17.01875 14.56875  C 16.771875 14.56875  16.571875 14.76875  16.571875 15.015625  L 16.571875 18.140625  L 14 18.140625  L 14 5.859375  L 16.571875 5.859375  L 16.571875 8.984375  Z M 18.690625 7.3125  L 18.690625 2.621875  L 23.378125 2.621875  L 23.378125 7.3125  L 18.690625 7.3125  Z M 7.309375 9.65625  L 7.309375 14.34375  L 2.621875 14.34375  L 2.621875 9.65625  L 7.309375 9.65625  Z M 18.690625 21.38125  L 18.690625 16.690625  L 23.378125 16.690625  L 23.378125 21.38125  L 18.690625 21.38125  Z " fill-rule="nonzero" fill="#ffffff" stroke="none" transform="matrix(1 0 0 1 1040 2566 )" />
  </g>
</svg>