<?xml version="1.0" encoding="utf-8"?>
<svg version="1.1" xmlns:xlink="http://www.w3.org/1999/xlink" width="26px" height="26px" xmlns="http://www.w3.org/2000/svg">
  <g transform="matrix(1 0 0 1 -1040 -2290 )">
    <path d="M 25.5 10  C 25.5 4.753125  21.246875 0.5  16 0.5  C 10.753125 0.5  6.5 4.753125  6.5 10  C 6.5 12.196875  7.246875 14.21875  8.496875 15.828125  L 7.2125 17.1125  L 5.265625 15.165625  C 5.16875 15.06875  5.009375 15.06875  4.909375 15.165625  L 3.665625 16.409375  C 3.56875 16.50625  3.56875 16.665625  3.665625 16.765625  L 5.6125 18.7125  L 4.209375 20.115625  L 2.2625 18.16875  C 2.165625 18.071875  2.00625 18.071875  1.90625 18.16875  L 0.662499999999999 19.4125  C 0.565624999999999 19.509375  0.565624999999999 19.66875  0.662499999999999 19.76875  L 2.609375 21.715625  L 0.568749999999999 23.75625  C 0.471874999999999 23.853125  0.471874999999999 24.0125  0.568749999999999 24.109375  L 1.890625 25.43125  C 1.9875 25.528125  2.146875 25.528125  2.24375 25.43125  L 10.16875 17.50625  C 11.78125 18.753125  13.803125 19.5  16 19.5  C 21.246875 19.5  25.5 15.246875  25.5 10  Z M 23.125 10  C 23.125 11.903125  22.384375 13.69375  21.0375 15.0375  C 19.69375 16.384375  17.903125 17.125  16 17.125  C 14.096875 17.125  12.30625 16.384375  10.9625 15.0375  C 9.615625 13.69375  8.875 11.903125  8.875 10  C 8.875 8.096875  9.615625 6.30625  10.9625 4.9625  C 12.30625 3.615625  14.096875 2.875  16 2.875  C 17.903125 2.875  19.69375 3.615625  21.0375 4.9625  C 22.384375 6.30625  23.125 8.096875  23.125 10  Z " fill-rule="nonzero" fill="#000000" stroke="none" transform="matrix(1 0 0 1 1040 2290 )" />
  </g>
</svg>