<?xml version="1.0" encoding="utf-8"?>
<svg version="1.1" xmlns:xlink="http://www.w3.org/1999/xlink" width="24px" height="24px" xmlns="http://www.w3.org/2000/svg">
  <g transform="matrix(1 0 0 1 -573 -1540 )">
    <path d="M 11 1  C 11 0.725  10.775 0.5  10.5 0.5  L 1 0.5  C 0.725 0.5  0.5 0.725  0.5 1  L 0.5 10.5  C 0.5 10.775  0.725 11  1 11  L 10.5 11  C 10.775 11  11 10.775  11 10.5  L 11 1  Z M 8.875 2.625  L 8.875 8.875  L 2.625 8.875  L 2.625 2.625  L 8.875 2.625  Z M 23.5 1  C 23.5 0.725  23.275 0.5  23 0.5  L 13.5 0.5  C 13.225 0.5  13 0.725  13 1  L 13 10.5  C 13 10.775  13.225 11  13.5 11  L 23 11  C 23.275 11  23.5 10.775  23.5 10.5  L 23.5 1  Z M 21.375 2.625  L 21.375 8.875  L 15.125 8.875  L 15.125 2.625  L 21.375 2.625  Z M 11 13.5  C 11 13.225  10.775 13  10.5 13  L 1 13  C 0.725 13  0.5 13.225  0.5 13.5  L 0.5 23  C 0.5 23.275  0.725 23.5  1 23.5  L 10.5 23.5  C 10.775 23.5  11 23.275  11 23  L 11 13.5  Z M 8.875 15.125  L 8.875 21.375  L 2.625 21.375  L 2.625 15.125  L 8.875 15.125  Z M 23.5 13.5  C 23.5 13.225  23.275 13  23 13  L 13.5 13  C 13.225 13  13 13.225  13 13.5  L 13 23  C 13 23.275  13.225 23.5  13.5 23.5  L 23 23.5  C 23.275 23.5  23.5 23.275  23.5 23  L 23.5 13.5  Z M 21.375 15.125  L 21.375 21.375  L 15.125 21.375  L 15.125 15.125  L 21.375 15.125  Z " fill-rule="nonzero" fill="#ffffff" stroke="none" transform="matrix(1 0 0 1 573 1540 )" />
  </g>
</svg>