<?xml version="1.0" encoding="utf-8"?>
<svg version="1.1" xmlns:xlink="http://www.w3.org/1999/xlink" width="22px" height="26px" xmlns="http://www.w3.org/2000/svg">
  <g transform="matrix(1 0 0 1 -574 -1608 )">
    <path d="M 21.625 5.53125  C 21.625 3.6  20.05625 2.03125  18.125 2.03125  C 16.19375 2.03125  14.625 3.6  14.625 5.53125  C 14.625 7.096875  15.659375 8.425  17.078125 8.871875  L 17.078125 11.86875  L 5 15.825  L 5 6.940625  C 6.38125 6.471875  7.375 5.1625  7.375 3.625  C 7.375 1.69375  5.80625 0.125000000000001  3.875 0.125000000000001  C 1.94375 0.125000000000001  0.375 1.69375  0.375 3.625  C 0.375 5.1625  1.36875 6.46875  3 6.940625  L 3 19.0625  C 1.36875 19.53125  0.375 20.840625  0.375 22.378125  C 0.375 24.309375  1.94375 25.878125  3.875 25.878125  C 5.80625 25.878125  7.375 24.309375  7.375 22.378125  C 7.375 20.840625  6.38125 19.534375  5 19.0625  L 5 18.19375  L 18.234375 13.859375  C 18.8875 13.646875  19.325 13.040625  19.325 12.353125  L 19.325 8.81875  C 20.665625 8.325  21.625 7.0375  21.625 5.53125  Z M 3.875 5.125  C 3.046875 5.125  2.375 4.453125  2.375 3.625  C 2.375 2.796875  3.046875 2.125  3.875 2.125  C 4.703125 2.125  5.375 2.796875  5.375 3.625  C 5.375 4.453125  4.703125 5.125  3.875 5.125  Z M 3.875 20.875  C 4.703125 20.875  5.375 21.546875  5.375 22.375  C 5.375 23.203125  4.703125 23.875  3.875 23.875  C 3.046875 23.875  2.375 23.203125  2.375 22.375  C 2.375 21.546875  3.046875 20.875  3.875 20.875  Z M 19.625 5.53125  C 19.625 6.359375  18.953125 7.03125  18.125 7.03125  C 17.296875 7.03125  16.625 6.359375  16.625 5.53125  C 16.625 4.703125  17.296875 4.03125  18.125 4.03125  C 18.953125 4.03125  19.625 4.703125  19.625 5.53125  Z " fill-rule="nonzero" fill="#ffffff" stroke="none" transform="matrix(1 0 0 1 574 1608 )" />
  </g>
</svg>