<?xml version="1.0" encoding="utf-8"?>
<svg version="1.1" xmlns:xlink="http://www.w3.org/1999/xlink" width="26px" height="26px" xmlns="http://www.w3.org/2000/svg">
  <g transform="matrix(1 0 0 1 -572 -2702 )">
    <path d="M 10.25 17.896875  C 10.25 18.190625  10.590625 18.35625  10.821875 18.175  L 17.053125 13.278125  C 17.23125 13.1375  17.23125 12.86875  17.053125 12.725  L 10.821875 7.825  C 10.590625 7.64375  10.25 7.80625  10.25 8.1  L 10.25 17.896875  Z M 25 1.5  C 25.5 0.946875  25.053125 0.5  24.5 1  L 1.5 1  C 0.946875 0.5  0.5 0.946875  1 1.5  L 1 24.5  C 0.5 25.053125  0.946875 25.5  1.5 25  L 24.5 25  C 25.053125 25.5  25.5 25.053125  25 24.5  L 25 1.5  Z M 23 3  L 23 23  L 3 23  L 3 3  L 23 3  Z " fill-rule="nonzero" fill="#000000" stroke="none" transform="matrix(1 0 0 1 572 2702 )" />
  </g>
</svg>