<?xml version="1.0" encoding="utf-8"?>
<svg version="1.1" xmlns:xlink="http://www.w3.org/1999/xlink" width="22px" height="28px" xmlns="http://www.w3.org/2000/svg">
  <g transform="matrix(1 0 0 1 -574 -2083 )">
    <path d="M 22 1  C 22 0.446875  21.553125 0  21 0  L 1 0  C 0.446875 0  0 0.446875  0 1  L 0 27  C 0 27.553125  0.446875 28  1 28  L 21 28  C 21.553125 28  22 27.553125  22 27  L 22 1  Z M 2.25 9  L 2.25 2.25  L 19.75 2.25  L 19.75 9  L 2.25 9  Z M 19.75 11  L 19.75 17  L 2.25 17  L 2.25 11  L 19.75 11  Z M 19.75 19  L 19.75 25.75  L 2.25 25.75  L 2.25 19  L 19.75 19  Z M 10.75 4.75  C 10.75 4.6125  10.6375 4.5  10.5 4.5  L 4.75 4.5  C 4.6125 4.5  4.5 4.6125  4.5 4.75  L 4.5 6.25  C 4.5 6.3875  4.6125 6.5  4.75 6.5  L 10.5 6.5  C 10.6375 6.5  10.75 6.3875  10.75 6.25  L 10.75 4.75  Z M 4.5 14.75  C 4.5 14.8875  4.6125 15  4.75 15  L 10.5 15  C 10.6375 15  10.75 14.8875  10.75 14.75  L 10.75 13.25  C 10.75 13.1125  10.6375 13  10.5 13  L 4.75 13  C 4.6125 13  4.5 13.1125  4.5 13.25  L 4.5 14.75  Z M 15 22.625  C 15 23.3153559372885  15.5596440627115 23.875  16.25 23.875  C 16.9403559372885 23.875  17.5 23.3153559372885  17.5 22.625  C 17.5 21.9346440627115  16.9403559372885 21.375  16.25 21.375  C 15.5596440627115 21.375  15 21.9346440627115  15 22.625  Z " fill-rule="nonzero" fill="#ffffff" stroke="none" transform="matrix(1 0 0 1 574 2083 )" />
  </g>
</svg>