<?xml version="1.0" encoding="utf-8"?>
<svg version="1.1" xmlns:xlink="http://www.w3.org/1999/xlink" width="26px" height="20px" xmlns="http://www.w3.org/2000/svg">
  <g transform="matrix(1 0 0 1 -572 -1883 )">
    <path d="M 7.4375 8.5  C 7.4375 8.6375  7.55 8.75  7.6875 9  L 18.375 9  C 18.3875 8.75  18.403125 8.75  18.415625 8.746875  C 18.553125 8.725  18.64375 8.596875  18.621875 8.459375  L 17.365625 0.709375  C 17.346875 0.587499999999999  17.240625 0.5  17.11875 0.5  L 8.94375 0.5  C 8.821875 0.5  8.715625 0.5875  8.696875 0.709375  L 7.440625 8.459375  C 7.4375 8.471875  7.4375 8.4875  7.4375 8.5  Z M 9.8875 6.625  L 10.5375 2.625  L 15.521875 2.625  L 16.16875 6.625  L 9.8875 6.625  Z M 11.871875 19.209375  L 10.615625 11.459375  C 10.596875 11.3375  10.490625 11.25  10.36875 11.25  L 2.19375 11.25  C 2.071875 11.25  1.965625 11.3375  1.946875 11.459375  L 0.690624999999999 19.209375  C 0.6875 19.221875  0.6875 19.2375  0.6875 19.25  C 0.6875 19.3875  0.799999999999999 19.5  0.9375 19.5  L 11.625 19.5  C 11.6375 19.5  11.653125 19.5  11.665625 19.496875  C 11.803125 19.475  11.89375 19.346875  11.871875 19.209375  Z M 9.41875 17.375  L 3.140625 17.375  L 3.7875 13.375  L 8.771875 13.375  L 9.41875 17.375  Z M 25.103125 19.496875  C 25.2375 19.475  25.33125 19.346875  25.309375 19.209375  L 24.053125 11.459375  C 24.034375 11.3375  23.928125 11.25  23.80625 11.25  L 15.63125 11.25  C 15.509375 11.25  15.403125 11.3375  15.384375 11.459375  L 14.128125 19.209375  C 14.125 19.221875  14.125 19.2375  14.125 19.25  C 14.125 19.3875  14.2375 19.5  14.375 19.5  L 25.0625 19.5  C 25.075 19.5  25.090625 19.5  25.103125 19.496875  Z M 22.85625 17.375  L 16.578125 17.375  L 17.225 13.375  L 22.209375 13.375  L 22.85625 17.375  Z " fill-rule="nonzero" fill="#000000" stroke="none" transform="matrix(1 0 0 1 572 1883 )" />
  </g>
</svg>