<?xml version="1.0" encoding="utf-8"?>
<svg version="1.1" xmlns:xlink="http://www.w3.org/1999/xlink" width="28px" height="22px" xmlns="http://www.w3.org/2000/svg">
  <g transform="matrix(1 0 0 1 -571 -2497 )">
    <path d="M 18.915625 0.525000000000002  C 18.9125 0.384375000000002  18.803125 0.271875000000002  18.6625 0.271875  L 16.553125 0.271875  C 16.446875 0.271875  16.35 0.340624999999999  16.315625 0.440625  L 9.084375 21.4375  C 9.075 21.4625  9.071875 21.490625  9.071875 21.51875  C 9.071875 21.65625  9.184375 21.76875  9.321875 21.76875  L 11.440625 21.76875  C 11.546875 21.76875  11.64375 21.7  11.678125 21.6  L 11.7 21.534375  L 18.671875 1.275  L 18.903125 0.606250000000002  C 18.9125 0.581250000000002  18.915625 0.553125000000002  18.915625 0.525000000000002  Z M 27.746875 11.39375  C 27.9625 11.225  28.003125 10.909375  27.83125 10.690625  C 27.80625 10.659375  27.778125 10.63125  27.746875 10.60625  L 20.903125 5.253125  C 20.79375 5.16875  20.6375 5.1875  20.553125 5.296875  C 20.51875 5.340625  20.5 5.39375  20.5 5.45  L 20.5 7.990625  C 20.5 8.06875  20.534375 8.140625  20.596875 8.1875  L 24.190625 11  L 20.596875 13.8125  C 20.5375 13.859375  20.5 13.93125  20.5 14.009375  L 20.5 16.55  C 20.5 16.6875  20.6125 16.8  20.75 16.8  C 20.80625 16.8  20.859375 16.78125  20.903125 16.746875  L 27.746875 11.39375  Z M 7.446875 5.29687500000001  C 7.3625 5.18750000000001  7.20625 5.16875000000001  7.096875 5.253125  L 0.253125000000001 10.60625  C 0.221875000000001 10.63125  0.193750000000001 10.659375  0.168750000000001 10.690625  C 0 10.909375  0.0375000000000005 11.221875  0.253125000000001 11.39375  L 7.096875 16.746875  C 7.140625 16.78125  7.19375 16.8  7.25 16.8  C 7.3875 16.8  7.5 16.6875  7.5 16.55  L 7.5 14.009375  C 7.5 13.93125  7.465625 13.859375  7.403125 13.8125  L 3.809375 11  L 7.403125 8.18750000000001  C 7.4625 8.14062500000001  7.5 8.06875000000001  7.5 7.99062500000001  L 7.5 5.45000000000001  C 7.5 5.39375000000001  7.48125 5.34062500000001  7.446875 5.29687500000001  Z " fill-rule="nonzero" fill="#ffffff" stroke="none" transform="matrix(1 0 0 1 571 2497 )" />
  </g>
</svg>