<?xml version="1.0" encoding="utf-8"?>
<svg version="1.1" xmlns:xlink="http://www.w3.org/1999/xlink" width="26px" height="25px" xmlns="http://www.w3.org/2000/svg">
  <g transform="matrix(1 0 0 1 -572 -2428 )">
    <path d="M 8.29375 6.0625  C 9.45 5.41875  10.696875 5.0125  12.015625 4.85  C 12.421875 4.8  12.825 4.775  13.228125 4.771875  L 13.228125 6.76875  C 13.228125 6.971875  13.4625 7.084375  13.621875 6.959375  L 17.625 3.8  C 17.75 3.7  17.75 3.5125  17.625 3.415625  L 13.625 0.259374999999999  C 13.465625 0.134374999999999  13.23125 0.246874999999999  13.23125 0.449999999999999  L 13.225 2.45  C 9.51875 2.465625  5.85625 4.11875  3.39375 7.26875  C 1.21875 10.05625  0.403124999999997 13.475  0.859374999999997 16.71875  L 3.2 16.71875  C 3.171875 16.553125  3.146875 16.384375  3.125 16.215625  C 2.965625 14.9  3.059375 13.5875  3.403125 12.315625  C 3.759375 10.996875  4.371875 9.78125  5.21875 8.696875  C 6.06875 7.6125  7.103125 6.721875  8.29375 6.0625  Z M 25 11.0625  C 25.5 10.509375  25.053125 10.0625  24.5 10  L 8 10  C 7.446875 10.0625  7 10.509375  7 11.0625  L 7 24  C 7 24.553125  7.446875 25  8 25  L 24.5 25  C 25.053125 25  25.5 24.553125  25 24  L 25 11.0625  Z M 23 12  L 23 22.625  L 9.375 22.625  L 9.375 12  L 23 12  Z " fill-rule="nonzero" fill="#ffffff" stroke="none" transform="matrix(1 0 0 1 572 2428 )" />
  </g>
</svg>