<?xml version="1.0" encoding="utf-8"?>
<svg version="1.1" xmlns:xlink="http://www.w3.org/1999/xlink" width="22px" height="26px" xmlns="http://www.w3.org/2000/svg">
  <g transform="matrix(1 0 0 1 -574 -2358 )">
    <path d="M 22 7.75  C 22 7.196875  21.553125 6.75  21 6.75  L 16.75 6.75  L 16.75 6.25  C 16.75 3.075  14.175 0.5  11 0.5  C 7.825 0.5  5.25 3.075  5.25 6.25  L 5.25 6.75  L 1 6.75  C 0.446875 6.75  0 7.196875  0 7.75  L 0 24.5  C 0 25.053125  0.446875 25.5  1 25  L 21 25  C 21.553125 25.5  22 25.053125  22 24.5  L 22 7.75  Z M 7.5 6.75  L 7.5 6.25  C 7.5 4.315625  9.065625 2.75  11 2.75  C 12.934375 2.75  14.5 4.315625  14.5 6.25  L 14.5 6.75  L 7.5 6.75  Z M 19.75 9  L 19.75 23  L 2.25 23  L 2.25 9  L 5.25 9  L 5.25 11.75  C 5.25 11.8875  5.3625 12  5.5 12  L 7.25 12  C 7.3875 12  7.5 11.8875  7.5 11.75  L 7.5 9  L 14.5 9  L 14.5 11.75  C 14.5 11.8875  14.6125 12  14.75 12  L 16.5 12  C 16.6375 12  16.75 11.8875  16.75 11.75  L 16.75 9  L 19.75 9  Z " fill-rule="nonzero" fill="#000000" stroke="none" transform="matrix(1 0 0 1 574 2358 )" />
  </g>
</svg>