<?xml version="1.0" encoding="utf-8"?>
<svg version="1.1" xmlns:xlink="http://www.w3.org/1999/xlink" width="28px" height="26px" xmlns="http://www.w3.org/2000/svg">
  <g transform="matrix(1 0 0 1 -478 -1676 )">
    <path d="M 27.31875 13.1125  C 27.39375 13.05625  27.39375 12.94375  27.31875 12.8875  L 22.603125 9.15625  C 22.509375 9.08125  22.375 9.15  22.375 9.26875  L 22.375 11.9375  L 17.875 11.9375  L 17.875 2.75  L 24.25 2.75  L 24.25 6.75  C 24.25 6.81875  24.30625 6.875  24.375 6.875  L 26.25 6.875  C 26.31875 6.875  26.375 6.81875  26.375 6.75  L 26.375 1.5  C 26.375 1.015625  25.984375 0.625  25.5 0.625  L 16.625 0.625  C 16.140625 0.625  15.75 1.015625  15.75 1.5  L 15.75 24.5  C 15.75 24.984375  16.140625 25.375  16.625 25.375  L 25.5 25.375  C 25.984375 25.375  26.375 24.984375  26.375 24.5  L 26.375 19.25  C 26.375 19.18125  26.31875 19.125  26.25 19.125  L 24.375 19.125  C 24.30625 19.125  24.25 19.18125  24.25 19.25  L 24.25 23.25  L 17.875 23.25  L 17.875 14.0625  L 22.375 14.0625  L 22.375 16.73125  C 22.375 16.85  22.5125 16.91875  22.603125 16.84375  L 27.31875 13.1125  Z M 12.25 1.5  C 12.25 1.015625  11.859375 0.625  11.375 0.625  L 2.5 0.625  C 2.015625 0.625  1.625 1.015625  1.625 1.5  L 1.625 6.75  C 1.625 6.81875  1.68125 6.875  1.75 6.875  L 3.625 6.875  C 3.69375 6.875  3.75 6.81875  3.75 6.75  L 3.75 2.75  L 10.125 2.75  L 10.125 11.9375  L 5.625 11.9375  L 5.625 9.26875  C 5.625 9.15  5.490625 9.08125  5.396875 9.15625  L 0.678125 12.8875  C 0.60625 12.94375  0.60625 13.053125  0.678125 13.109375  L 5.396875 16.84375  C 5.4875 16.915625  5.625 16.85  5.625 16.73125  L 5.625 14.0625  L 10.125 14.0625  L 10.125 23.25  L 3.75 23.25  L 3.75 19.25  C 3.75 19.18125  3.69375 19.125  3.625 19.125  L 1.75 19.125  C 1.68125 19.125  1.625 19.18125  1.625 19.25  L 1.625 24.5  C 1.625 24.984375  2.015625 25.375  2.5 25.375  L 11.375 25.375  C 11.859375 25.375  12.25 24.984375  12.25 24.5  L 12.25 1.5  Z " fill-rule="nonzero" fill="#000000" stroke="none" transform="matrix(1 0 0 1 478 1676 )" />
  </g>
</svg>