<?xml version="1.0" encoding="utf-8"?>
<svg version="1.1" xmlns:xlink="http://www.w3.org/1999/xlink" width="28px" height="24px" xmlns="http://www.w3.org/2000/svg">
  <g transform="matrix(1 0 0 1 -478 -1745 )">
    <path d="M 8.540625 10.7375  C 8.54375 11.196875  8.0875 11.521875  7.415625 11.521875  C 6.671875 11.521875  6.159375 11.19375  6.115625 10.68125  L 4.40625 10.68125  C 4.434375 12.0375  5.559375 12.878125  7.340625 12.878125  C 9.1875 12.878125  10.309375 11.990625  10.309375 10.51875  C 10.309375 9.4  9.684375 8.771875  8.29375 8.503125  L 7.384375 8.328125  C 6.640625 8.18125  6.328125 7.95625  6.328125 7.571875  C 6.328125 7.103125  6.74375 6.80625  7.371875 6.80625  C 8 6.80625  8.475 7.153125  8.515625 7.65  L 10.171875 7.65  C 10.14375 6.346875  9 5.453125  7.35 5.453125  C 5.65 5.453125  4.546875 6.35625  4.546875 7.734375  C 4.546875 8.84375  5.209375 9.546875  6.5 9.790625  L 7.428125 9.975  C 8.234375 10.1375  8.540625 10.346875  8.540625 10.7375  Z M 28 1.375  C 28 0.821875  27.553125 0.375  27 0.375  L 1 0.375  C 0.446875 0.375  0 0.821875  0 1.375  L 0 16.875  C 0 17.428125  0.446875 17.875  1 17.875  L 12.875 17.875  L 12.875 21.375  L 7.5 21.375  C 7.225 21.375  7 21.6  7 21.875  L 7 23.375  C 7 23.5125  7.1125 23.625  7.25 23.625  L 20.75 23.625  C 20.8875 23.625  21 23.5125  21 23.375  L 21 21.875  C 21 21.6  20.775 21.375  20.5 21.375  L 15.125 21.375  L 15.125 17.875  L 27 17.875  C 27.553125 17.875  28 17.428125  28 16.875  L 28 1.375  Z M 25.75 3  L 25.75 15.625  L 2.25 15.625  L 2.25 3  L 25.75 3  Z M 23.890625 12.6875  L 23.890625 11.209375  L 20.896875 11.209375  L 20.896875 5.640625  L 19.103125 5.640625  L 19.103125 12.6875  L 23.890625 12.6875  Z M 11.0875 9.1625  C 11.084375 11.465625  12.43125 12.878125  14.559375 12.878125  C 15 12.878125  15.409375 12.815625  15.78125 12.696875  L 16.196875 13.33125  L 17.8625 13.33125  L 16.996875 11.96875  C 17.65625 11.34375  18.028125 10.371875  18.028125 9.1625  C 18.028125 6.871875  16.675 5.45  14.5625 5.45  C 12.45 5.45  11.0875 6.865625  11.0875 9.1625  Z M 12.90625 9.1625  C 12.909375 7.8  13.56875 6.940625  14.559375 6.940625  C 15.546875 6.940625  16.20625 7.80625  16.20625 9.1625  C 16.20625 9.684375  16.09375 10.11875  15.89375 10.428125  L 15.73125 10.2125  L 14.20625 10.2125  L 14.9375 11.34375  C 14.815625 11.371875  14.6875 11.3875  14.55625 11.3875  C 13.565625 11.3875  12.90625 10.528125  12.90625 9.1625  Z " fill-rule="nonzero" fill="#000000" stroke="none" transform="matrix(1 0 0 1 478 1745 )" />
  </g>
</svg>