<?xml version="1.0" encoding="utf-8"?>
<svg version="1.1" xmlns:xlink="http://www.w3.org/1999/xlink" width="26px" height="26px" xmlns="http://www.w3.org/2000/svg">
  <g transform="matrix(1 0 0 1 -479 -1812 )">
    <path d="M 16.34375 18.625  C 16.34375 18.834375  16.5875 18.95  16.75 18.821875  L 21.184375 15.321875  C 21.3125 15.221875  21.3125 15.028125  21.184375 14.928125  L 16.75 11.428125  C 16.584375 11.296875  16.34375 11.415625  16.34375 11.625  L 16.34375 14  L 6.21875 14  C 6.08125 14  5.96875 14.1125  5.96875 14.25  L 5.96875 16  C 5.96875 16.1375  6.08125 16.25  6.21875 16  L 16.34375 16  L 16.34375 18.625  Z M 25.5 7.578125  C 25.5 7.046875  25.290625 6.540625  24.915625 6.165625  L 19.834375 1.084375  C 19.6 0.85  19.3125 0.678125  19 0.584375  L 19 1  L 1.5 1  C 0.946875 0.5  0.5 0.946875  0.5 1.5  L 0.5 10.1875  C 0.5 10.325  0.6125 10.4375  0.75 10.4375  L 2.5 10.4375  C 2.6375 10.4375  2.75 10.325  2.75 10.1875  L 2.75 2.75  L 7 2.75  L 7 7  C 7 7.553125  7.446875 8  8 8  L 18 8  C 18.553125 8  19 7.553125  19 7  L 19 3.43125  L 23.25 7.68125  L 23.25 10.1875  C 23.25 10.325  23.3625 10.4375  23.5 10.4375  L 25.25 10.4375  C 25.3875 10.4375  25.5 10.325  25.5 10.1875  L 25.5 7.578125  Z M 17 2.75  L 17 6  L 9 6  L 9 2.75  L 17 2.75  Z M 25.5 19.875  C 25.5 19.7375  25.3875 19.625  25.25 19.625  L 23.5 19.625  C 23.3625 19.625  23.25 19.7375  23.25 19.875  L 23.25 23  L 2.75 23  L 2.75 19.875  C 2.75 19.7375  2.6375 19.625  2.5 19.625  L 0.75 19.625  C 0.6125 19.625  0.5 19.7375  0.5 19.875  L 0.5 24.5  C 0.5 25.053125  0.946875 25.5  1.5 25  L 24.5 25  C 25.053125 25.5  25.5 25.053125  25.5 24.5  L 25.5 19.875  Z " fill-rule="nonzero" fill="#000000" stroke="none" transform="matrix(1 0 0 1 479 1812 )" />
  </g>
</svg>