<?xml version="1.0" encoding="utf-8"?>
<svg version="1.1" xmlns:xlink="http://www.w3.org/1999/xlink" width="24px" height="28px" xmlns="http://www.w3.org/2000/svg">
  <g transform="matrix(1 0 0 1 -480 -2083 )">
    <path d="M 16.8625 19.909375  L 16.146875 18.9125  C 16.1 18.846875  16.025 18.809375  15.94375 18.809375  L 14.5625 18.809375  C 14.359375 18.809375  14.240625 19.040625  14.359375 19.20625  L 16.665625 22.396875  C 16.765625 22.534375  16.96875 22.534375  17.06875 22.396875  L 20.6375 17.459375  C 20.75625 17.29375  20.6375 17.0625  20.434375 17.0625  L 19.05 17.0625  C 18.96875 17.0625  18.89375 17.1  18.846875 17.165625  L 16.8625 19.909375  Z M 17.25 8  C 17.3875 7.8125  17.5 7.7  17.5 7.5625  L 17.5 6.0625  C 17.5 5.925  17.3875 5.8125  17.25 6  L 5.25 6  C 5.1125 5.8125  5 5.925  5 6.0625  L 5 7.5625  C 5 7.7  5.1125 7.8125  5.25 8  L 17.25 8  Z M 11 10.3125  L 5.25 10.3125  C 5.1125 10.3125  5 10.425  5 10.5625  L 5 12.0625  C 5 12.2  5.1125 12.3125  5.25 12.3125  L 11 12.3125  C 11.1375 12.3125  11.25 12.2  11.25 12.0625  L 11.25 10.5625  C 11.25 10.425  11.1375 10.3125  11 10.3125  Z M 11.25 24.875  C 11.25 24.7375  11.1375 24.625  11 24.625  L 2.5 24.625  L 2.5 3  L 20 3  L 20 11.875  C 20 12.0125  20.1125 12.125  20.25 12.125  L 22 12.125  C 22.1375 12.125  22.25 12.0125  22 11.875  L 22 1.375  C 22.25 0.821875  21.803125 0.375  21.25 0.375  L 1.25 0.375  C 0.696875 0.375  0.25 0.821875  0.25 1.375  L 0.25 25.875  C 0.25 26.428125  0.696875 26.875  1.25 26.875  L 11 26.875  C 11.1375 26.875  11.25 26.7625  11.25 26.625  L 11.25 24.875  Z M 23.75 14.834375  C 23.75 14.728125  23.68125 14.634375  23.58125 14.6  L 17.58125 12.515625  C 17.553125 12.50625  17.528125 12.503125  17.5 12.503125  C 17.471875 12.503125  17.44375 12.50625  17.41875 12.515625  L 11.41875 14.6  C 11.31875 14.634375  11.25 14.728125  11.25 14.834375  L 11.25 22.68125  C 11.25 22.759375  11.284375 22.83125  11.346875 22.878125  L 17.346875 27.571875  C 17.390625 27.60625  17.446875 27.625  17.5 27.625  C 17.553125 27.625  17.609375 27.60625  17.653125 27.571875  L 23.653125 22.878125  C 23.7125 22.83125  23.75 22.759375  23.75 22.68125  L 23.75 14.834375  Z M 21.8125 16.03125  L 21.8125 21.865625  L 17.5 25.2375  L 13.1875 21.865625  L 13.1875 16.03125  L 17.5 14.53125  L 21.8125 16.03125  Z " fill-rule="nonzero" fill="#ffffff" stroke="none" transform="matrix(1 0 0 1 480 2083 )" />
  </g>
</svg>