<?xml version="1.0" encoding="utf-8"?>
<svg version="1.1" xmlns:xlink="http://www.w3.org/1999/xlink" width="29px" height="27px" xmlns="http://www.w3.org/2000/svg">
  <g transform="matrix(1 0 0 1 -478 -1880 )">
    <path d="M 17.125 12.40625  C 17.125 11.715625  16.565625 11.15625  15.90625 11.15625  C 15.184375 11.15625  14.625 11.715625  14.625 12.40625  C 14.625 13.096875  15.184375 13.65625  15.90625 13.65625  C 16.565625 13.65625  17.125 13.096875  17.125 12.40625  Z M 8.375 12.40625  C 8.375 11.715625  7.815625 11.15625  7.15625 11.15625  C 6.434375 11.15625  5.875 11.715625  5.875 12.40625  C 5.875 13.096875  6.434375 13.65625  7.15625 13.65625  C 7.815625 13.65625  8.375 13.096875  8.375 12.40625  Z M 25.90625 21.53125  C 28.659375 17.79375  28.73125 12.628125  25.9375 8.78125  C 24.434375 6.71875  22.334375 5.340625  20.03125 4.71875  L 20.03125 4.721875  C 19.496875 4.128125  18.89375 3.58125  18.21875 3.09375  C 13.103125 -0.625  5.921875 0.509375  2.1875 5.625  C -0.821875 9.78125  -0.69375 15.371875  2.375 19.34375  L 2.4 23.4875  C 2.4 23.5875  2.415625 23.6875  2.446875 23.78125  C 2.6125 24.309375  3.175 24.6  3.7 24.434375  L 7.65625 23.1875  C 8.703125 23.559375  9.784375 23.771875  10.859375 23.83125  L 10.84375 23.84375  C 13.628125 25.871875  17.278125 26.48125  20.625 25.375  L 24.596875 26.66875  C 24.696875 26.7  24.8 26.71875  24.90625 26.71875  C 25.459375 26.71875  25.90625 26.271875  25.90625 25.71875  L 25.90625 21.53125  Z M 18.96875 17.78125  C 16.465625 21.215625  11.984375 22.484375  8.09375 20.96875  L 7.71875 20.8125  L 4.625 21.78125  L 4.59375 18.53125  L 4.34375 18.25  C 1.7 15.025  1.525 10.378125  4 6.96875  C 7.0125 2.8375  12.7875 1.925  16.90625 4.90625  C 21.0375 7.909375  21.953125 13.675  18.96875 17.78125  Z M 24.125 10.125  C 26.39375 13.2375  26.265625 17.475  23.875 20.4375  L 23.625 20.75  L 23.65625 24  L 20.59375 22.96875  L 20.21875 23.125  C 18.46875 23.775  16.603125 23.828125  14.875 23.34375  L 14.86875 23.340625  C 17.178125 22.63125  19.271875 21.19375  20.78125 19.125  C 23.16875 15.834375  23.55625 11.7  22.16875 8.175  L 22.1875 8.1875  C 22.90625 8.703125  23.565625 9.346875  24.125 10.125  Z M 12.75 12.40625  C 12.75 11.715625  12.190625 11.15625  11.53125 11.15625  C 10.809375 11.15625  10.25 11.715625  10.25 12.40625  C 10.25 13.096875  10.809375 13.65625  11.53125 13.65625  C 12.190625 13.65625  12.75 13.096875  12.75 12.40625  Z " fill-rule="nonzero" fill="#ffffff" stroke="none" transform="matrix(1 0 0 1 478 1880 )" />
  </g>
</svg>