<?xml version="1.0" encoding="utf-8"?>
<svg version="1.1" xmlns:xlink="http://www.w3.org/1999/xlink" width="28px" height="22px" xmlns="http://www.w3.org/2000/svg">
  <g transform="matrix(1 0 0 1 -478 -2155 )">
    <path d="M 28 3  C 28 2.446875  27.553125 2  27 2  L 22 2  L 22 0.25  C 22 0.1125  21.8875 0  21.75 0  L 20 0  C 19.8625 0  19.75 0.1125  19.75 0.25  L 19.75 2  L 15.125 2  L 15.125 0.25  C 15.125 0.1125  15.0125 0  14.875 0  L 13.125 0  C 12.9875 0  12.875 0.1125  12.875 0.25  L 12.875 2  L 8.25 2  L 8.25 0.25  C 8.25 0.1125  8.1375 0  8 0  L 6.25 0  C 6.1125 0  6 0.1125  6 0.25  L 6 2  L 1 2  C 0.446875 2  0 2.446875  0 3  L 0 21  C 0 21.553125  0.446875 22  1 22  L 27 22  C 27.553125 22  28 21.553125  28 21  L 28 3  Z M 25.75 4.25  L 25.75 19.75  L 2.25 19.75  L 2.25 4.25  L 6 4.25  L 6 6  C 6 6.1375  6.1125 6.25  6.25 6.25  L 8 6.25  C 8.1375 6.25  8.25 6.1375  8.25 6  L 8.25 4.25  L 12.875 4.25  L 12.875 6  C 12.875 6.1375  12.9875 6.25  13.125 6.25  L 14.875 6.25  C 15.0125 6.25  15.125 6.1375  15.125 6  L 15.125 4.25  L 19.75 4.25  L 19.75 6  C 19.75 6.1375  19.8625 6.25  20 6.25  L 21.75 6.25  C 21.8875 6.25  22 6.1375  22 6  L 22 4.25  L 25.75 4.25  Z M 11.25 10.75  C 11.25 10.6125  11.1375 10.5  11 10.5  L 5.25 10.5  C 5.1125 10.5  5 10.6125  5 10.75  L 5 12.25  C 5 12.3875  5.1125 12.5  5.25 12.5  L 11 12.5  C 11.1375 12.5  11.25 12.3875  11.25 12.25  L 11.25 10.75  Z M 11.25 15  C 11.25 14.8625  11.1375 14.75  11 14.75  L 5.25 14.75  C 5.1125 14.75  5 14.8625  5 15  L 5 16.5  C 5 16.6375  5.1125 16.75  5.25 16.75  L 11 16.75  C 11.1375 16.75  11.25 16.6375  11.25 16.5  L 11.25 15  Z M 21.03125 9.003125  C 20.875 9  20.725 9.078125  20.63125 9.20625  L 17.39375 13.696875  L 15.74375 11.4125  C 15.65 11.28125  15.5 11.20625  15.340625 11.20625  L 13.625 11.20625  C 13.421875 11.20625  13.303125 11.4375  13.421875 11.603125  L 16.9875 16.546875  C 17.1875 16.821875  17.59375 16.821875  17.79375 16.546875  L 22.95 9.4  C 23.06875 9.234375  22.95 9.003125  22.746875 9.003125  L 21.03125 9.003125  Z " fill-rule="nonzero" fill="#ffffff" stroke="none" transform="matrix(1 0 0 1 478 2155 )" />
  </g>
</svg>