<?xml version="1.0" encoding="utf-8"?>
<svg version="1.1" xmlns:xlink="http://www.w3.org/1999/xlink" width="22px" height="28px" xmlns="http://www.w3.org/2000/svg">
  <g transform="matrix(1 0 0 1 -481 -2770 )">
    <path d="M 5.6875 12.25  C 5.6875 15.15  8.065625 17.5  11 17.5  C 13.934375 17.5  16.3125 15.15  16.3125 12.25  L 16.3125 5.25  C 16.3125 2.35  13.934375 0  11 0  C 8.065625 0  5.6875 2.35  5.6875 5.25  L 5.6875 12.25  Z M 12.125 22.440625  C 17.290625 21.878125  21.3125 17.503125  21.3125 12.1875  C 21.3125 12.05  21.2 11.9375  21.0625 11.9375  L 19.1875 11.9375  C 19.05 11.9375  18.9375 12.05  18.9375 12.1875  C 18.9375 16.571875  15.384375 20.125  11 20.125  C 6.615625 20.125  3.0625 16.571875  3.0625 12.1875  C 3.0625 12.05  2.95 11.9375  2.8125 11.9375  L 0.9375 11.9375  C 0.8 11.9375  0.6875 12.05  0.6875 12.1875  C 0.6875 17.459375  4.64375 21.809375  9.75 22.425  L 9.75 25.625  L 5.209375 25.625  C 4.78125 25.625  4.4375 26.071875  4.4375 26.625  L 4.4375 27.75  C 4.4375 27.8875  4.525 28  4.63125 28  L 17.36875 28  C 17.475 28  17.5625 27.8875  17.5625 27.75  L 17.5625 26.625  C 17.5625 26.071875  17.21875 25.625  16.790625 25.625  L 12.125 25.625  L 12.125 22.440625  Z " fill-rule="nonzero" fill="#000000" stroke="none" transform="matrix(1 0 0 1 481 2770 )" />
  </g>
</svg>