<?xml version="1.0" encoding="utf-8"?>
<svg version="1.1" xmlns:xlink="http://www.w3.org/1999/xlink" width="28px" height="20px" xmlns="http://www.w3.org/2000/svg">
  <g transform="matrix(1 0 0 1 -757 -1611 )">
    <path d="M 27.625 1.5625  C 27.625 1.009375  27.178125 0.5625  26.625 0.5625  L 9.75 0.5625  C 9.196875 0.5625  8.75 1.009375  8.75 1.5625  L 8.75 8.9375  L 1.375 8.9375  C 0.821875 8.9375  0.375 9.384375  0.375 9.9375  L 0.375 18.4375  C 0.375 18.990625  0.821875 19.4375  1.375 19.4375  L 18.25 19.4375  C 18.803125 19.4375  19.25 18.990625  19.25 18.4375  L 19.25 11.0625  L 26.625 11.0625  C 27.178125 11.0625  27.625 10.615625  27.625 10.0625  L 27.625 1.5625  Z M 10.875 8.9375  L 10.875 2.6875  L 17.125 2.6875  L 17.125 8.9375  L 10.875 8.9375  Z M 8.75 11.0625  L 8.75 17.3125  L 2.5 17.3125  L 2.5 11.0625  L 8.75 11.0625  Z M 17.125 11.0625  L 17.125 17.3125  L 10.875 17.3125  L 10.875 11.0625  L 17.125 11.0625  Z M 25.5 2.6875  L 25.5 8.9375  L 19.25 8.9375  L 19.25 2.6875  L 25.5 2.6875  Z " fill-rule="nonzero" fill="#ffffff" stroke="none" transform="matrix(1 0 0 1 757 1611 )" />
  </g>
</svg>