<?xml version="1.0" encoding="utf-8"?>
<svg version="1.1" xmlns:xlink="http://www.w3.org/1999/xlink" width="30px" height="22px" xmlns="http://www.w3.org/2000/svg">
  <g transform="matrix(1 0 0 1 -756 -1678 )">
    <path d="M 21 9.1875  C 21.25 9.05  21.1375 8.9375  21 9  L 9 9  C 8.8625 8.9375  8.75 9.05  9 9.1875  L 9 21.75  C 8.75 21.8875  8.8625 22  9 22  L 21 22  C 21.1375 22  21.25 21.8875  21 21.75  L 21 9.1875  Z M 10.75 14.59375  L 10.75 10.9375  L 19.25 10.9375  L 19.25 14.59375  L 10.75 14.59375  Z M 19.25 16.34375  L 19.25 20  L 10.75 20  L 10.75 16.34375  L 19.25 16.34375  Z M 12.25 18.375  C 12.25 18.9272847498308  12.6977152501692 19.375  13.25 19.375  C 13.8022847498308 19.375  14.25 18.9272847498308  14.25 18.375  C 14.25 17.8227152501692  13.8022847498308 17.375  13.25 17.375  C 12.6977152501692 17.375  12.25 17.8227152501692  12.25 18.375  Z M 12.25 12.8125  C 12.25 13.3647847498308  12.6977152501692 13.8125  13.25 13.8125  C 13.8022847498308 13.8125  14.25 13.3647847498308  14.25 12.8125  C 14.25 12.2602152501692  13.8022847498308 11.8125  13.25 11.8125  C 12.6977152501692 11.8125  12.25 12.2602152501692  12.25 12.8125  Z M 29 12.61875  C 29.01875 9.7  27.040625 7.240625  24.35625 6.528125  C 22.925 2.75  19.278125 0.0625  15.00625 0.0625  C 10.734375 0.0625  7.0875 2.746875  5.65625 6.525  C 2.965625 7.234375  0.984375 9.69375  1 12.6125  C 1.01875 15.875  3.55 18.528125  6.7375 18.8125  C 6.884375 18.825  7.009375 18.709375  7.009375 18.5625  L 7.009375 16.675  C 7.009375 16.55  6.915625 16.44375  6.790625 16.428125  C 5.946875 16.321875  5.15 15.953125  4.5375 15.35  C 3.7875 14.615625  3.375 13.628125  3.375 12.58125  C 3.375 11.70625  3.659375 10.88125  4.19375 10.19375  C 4.715625 9.525  5.45 9.040625  6.259375 8.828125  L 7.44375 8.515625  L 7.878125 7.36875  C 8.146875 6.65625  8.521875 5.9875  8.99375 5.384375  C 9.459375 4.784375  10.0125 4.259375  10.63125 3.821875  C 11.915625 2.91875  13.428125 2.440625  15.00625 2.440625  C 16.584375 2.440625  18.096875 2.91875  19.38125 3.825  C 20.003125 4.2625  20.553125 4.7875  21.01875 5.3875  C 21.490625 5.990625  21.865625 6.659375  22.134375 7.371875  L 22.565625 8.515625  L 23.746875 8.828125  C 25.440625 9.278125  26.625 10.81875  26.625 12.578125  C 26.625 13.628125  26.2125 14.6125  25.4625 15.346875  C 24.853125 15.946875  24.059375 16.31875  23.215625 16.425  C 23.090625 16.440625  23 16.546875  23 16.671875  L 23 18.5625  C 23 18.709375  23.128125 18.825  23.275 18.8125  C 26.453125 18.525  28.978125 15.875  29 12.61875  Z " fill-rule="nonzero" fill="#ffffff" stroke="none" transform="matrix(1 0 0 1 756 1678 )" />
  </g>
</svg>