<?xml version="1.0" encoding="utf-8"?>
<svg version="1.1" xmlns:xlink="http://www.w3.org/1999/xlink" width="7px" height="7px" xmlns="http://www.w3.org/2000/svg">
  <g transform="matrix(1 0 0 1 -768 -1754 )">
    <path d="M 0.125 3.75  C 0.125 5.196875  1.06875 6.421875  2.375 6.84375  C 2.690625 6.946875  3.025 7  3.375 7  C 3.725 7  4.059375 6.94375  4.375 6.84375  C 5.68125 6.421875  6.625 5.196875  6.625 3.75  C 6.625 2.303125  5.68125 1.078125  4.375 0.65625  C 4.059375 0.553125  3.725 0.5  3.375 0.5  C 3.025 0.5  2.690625 0.55625  2.375 0.65625  C 1.06875 1.078125  0.125 2.303125  0.125 3.75  Z M 2.25 3.75  C 2.25 3.5625  2.296875 3.384375  2.378125 3.228125  C 2.3875 3.209375  2.4 3.190625  2.409375 3.171875  L 2.409375 3.16875  L 2.446875 3.1125  C 2.45 3.10625  2.453125 3.103125  2.45625 3.096875  C 2.465625 3.08125  2.478125 3.06875  2.4875 3.053125  C 2.490625 3.05  2.49375 3.04375  2.496875 3.040625  C 2.5125 3.021875  2.525 3.00625  2.540625 2.990625  L 2.55 2.98125  L 2.5875 2.94375  L 2.6 2.93125  C 2.615625 2.915625  2.63125 2.903125  2.65 2.8875  C 2.66875 2.871875  2.684375 2.859375  2.703125 2.846875  C 2.709375 2.84375  2.7125 2.840625  2.71875 2.8375  C 2.734375 2.828125  2.746875 2.815625  2.7625 2.80625  C 2.765625 2.803125  2.771875 2.8  2.775 2.796875  C 2.79375 2.784375  2.8125 2.775  2.834375 2.7625  C 2.8375 2.759375  2.84375 2.759375  2.846875 2.75625  C 2.8625 2.746875  2.878125 2.740625  2.896875 2.73125  L 2.915625 2.721875  C 2.9375 2.7125  2.95625 2.703125  2.978125 2.696875  C 3 2.6875  3.021875 2.68125  3.04375 2.675  C 3.05 2.671875  3.05625 2.671875  3.0625 2.66875  C 3.08125 2.6625  3.096875 2.659375  3.115625 2.65625  C 3.121875 2.65625  3.125 2.653125  3.13125 2.653125  C 3.153125 2.646875  3.178125 2.64375  3.2 2.640625  C 3.20625 2.640625  3.209375 2.640625  3.215625 2.6375  C 3.234375 2.634375  3.253125 2.634375  3.271875 2.63125  L 3.290625 2.63125  C 3.315625 2.63125  3.3375 2.628125  3.3625 2.628125  C 3.3875 2.628125  3.409375 2.628125  3.434375 2.63125  L 3.453125 2.63125  C 3.471875 2.63125  3.490625 2.634375  3.509375 2.6375  C 3.515625 2.6375  3.51875 2.6375  3.525 2.640625  C 3.546875 2.64375  3.571875 2.646875  3.59375 2.653125  C 3.6 2.653125  3.603125 2.65625  3.609375 2.65625  C 3.628125 2.659375  3.646875 2.665625  3.6625 2.66875  C 3.66875 2.671875  3.675 2.671875  3.68125 2.675  C 3.703125 2.68125  3.725 2.6875  3.746875 2.696875  C 3.76875 2.703125  3.7875 2.7125  3.809375 2.721875  L 3.828125 2.73125  C 3.84375 2.7375  3.8625 2.746875  3.878125 2.75625  C 3.88125 2.759375  3.8875 2.759375  3.890625 2.7625  C 3.909375 2.771875  3.93125 2.784375  3.95 2.796875  C 3.953125 2.8  3.959375 2.803125  3.9625 2.80625  C 3.978125 2.815625  3.99375 2.825  4.00625 2.8375  C 4.0125 2.840625  4.015625 2.84375  4.021875 2.846875  C 4.040625 2.859375  4.059375 2.875  4.075 2.8875  C 4.090625 2.9  4.109375 2.915625  4.125 2.93125  L 4.1375 2.94375  L 4.175 2.98125  L 4.184375 2.990625  C 4.2 3.00625  4.215625 3.025  4.228125 3.040625  C 4.23125 3.04375  4.234375 3.05  4.2375 3.053125  C 4.25 3.065625  4.259375 3.08125  4.26875 3.096875  C 4.271875 3.103125  4.275 3.10625  4.278125 3.1125  L 4.315625 3.16875  L 4.315625 3.171875  C 4.328125 3.190625  4.3375 3.209375  4.346875 3.228125  C 4.428125 3.384375  4.475 3.5625  4.475 3.75  C 4.475 3.9375  4.428125 4.115625  4.346875 4.271875  C 4.3375 4.290625  4.325 4.309375  4.315625 4.328125  L 4.315625 4.33125  L 4.278125 4.3875  C 4.275 4.39375  4.271875 4.396875  4.26875 4.403125  C 4.259375 4.41875  4.246875 4.43125  4.2375 4.446875  C 4.234375 4.45  4.23125 4.45625  4.228125 4.459375  C 4.2125 4.478125  4.2 4.49375  4.184375 4.509375  L 4.175 4.51875  L 4.1375 4.55625  L 4.125 4.56875  C 4.109375 4.584375  4.09375 4.596875  4.075 4.6125  C 4.05625 4.628125  4.040625 4.640625  4.021875 4.653125  C 4.015625 4.65625  4.0125 4.659375  4.00625 4.6625  C 3.990625 4.671875  3.978125 4.684375  3.9625 4.69375  C 3.959375 4.696875  3.953125 4.7  3.95 4.703125  C 3.93125 4.715625  3.9125 4.725  3.890625 4.7375  C 3.8875 4.740625  3.88125 4.740625  3.878125 4.74375  C 3.8625 4.753125  3.846875 4.759375  3.828125 4.76875  L 3.809375 4.778125  C 3.7875 4.7875  3.76875 4.796875  3.746875 4.803125  C 3.725 4.8125  3.703125 4.81875  3.68125 4.825  C 3.675 4.828125  3.66875 4.828125  3.6625 4.83125  C 3.64375 4.8375  3.628125 4.840625  3.609375 4.84375  C 3.603125 4.84375  3.6 4.846875  3.59375 4.846875  C 3.571875 4.853125  3.546875 4.85625  3.525 4.859375  C 3.51875 4.859375  3.515625 4.859375  3.509375 4.8625  C 3.490625 4.865625  3.471875 4.865625  3.453125 4.86875  L 3.434375 4.86875  C 3.409375 4.86875  3.3875 4.871875  3.3625 4.871875  C 3.3375 4.871875  3.315625 4.871875  3.290625 4.86875  L 3.271875 4.86875  C 3.253125 4.86875  3.234375 4.865625  3.215625 4.8625  C 3.209375 4.8625  3.20625 4.8625  3.2 4.859375  C 3.178125 4.85625  3.153125 4.853125  3.13125 4.846875  C 3.125 4.846875  3.121875 4.84375  3.115625 4.84375  C 3.096875 4.840625  3.078125 4.834375  3.0625 4.83125  C 3.05625 4.828125  3.05 4.828125  3.04375 4.825  C 3.021875 4.81875  3 4.8125  2.978125 4.803125  C 2.95625 4.796875  2.9375 4.7875  2.915625 4.778125  L 2.896875 4.76875  C 2.88125 4.7625  2.8625 4.753125  2.846875 4.74375  C 2.84375 4.740625  2.8375 4.740625  2.834375 4.7375  C 2.815625 4.728125  2.79375 4.715625  2.775 4.703125  C 2.771875 4.7  2.765625 4.696875  2.7625 4.69375  C 2.746875 4.684375  2.73125 4.675  2.71875 4.6625  C 2.7125 4.659375  2.709375 4.65625  2.703125 4.653125  C 2.684375 4.640625  2.665625 4.625  2.65 4.6125  C 2.634375 4.6  2.615625 4.584375  2.6 4.56875  L 2.5875 4.55625  L 2.55 4.51875  L 2.540625 4.509375  C 2.525 4.49375  2.509375 4.475  2.496875 4.459375  C 2.49375 4.45625  2.490625 4.45  2.4875 4.446875  C 2.475 4.434375  2.465625 4.41875  2.45625 4.403125  C 2.453125 4.396875  2.45 4.39375  2.446875 4.3875  L 2.409375 4.33125  L 2.409375 4.328125  C 2.396875 4.309375  2.3875 4.290625  2.378125 4.271875  C 2.296875 4.115625  2.25 3.9375  2.25 3.75  Z " fill-rule="nonzero" fill="#ffffff" stroke="none" transform="matrix(1 0 0 1 768 1754 )" />
  </g>
</svg>