<?xml version="1.0" encoding="utf-8"?>
<svg version="1.1" xmlns:xlink="http://www.w3.org/1999/xlink" width="26px" height="26px" xmlns="http://www.w3.org/2000/svg">
  <g transform="matrix(1 0 0 1 -758 -2702 )">
    <path d="M 12.06875 13.1125  C 12.14375 13.05625  12.14375 12.94375  12.06875 12.8875  L 7.353125 9.15625  C 7.259375 9.08125  7.125 9.15  7.125 9.26875  L 7.125 11.9375  L 2.75 11.9375  L 2.75 2.75  L 9.125 2.75  L 9.125 6.75  C 9.125 6.81875  9.18125 6.875  9.25 6.875  L 11.125 6.875  C 11.19375 6.875  11.25 6.81875  11.25 6.75  L 11.25 1.5  C 11.25 1.015625  10.859375 0.625  10.375 0.625  L 1.5 0.625  C 1.015625 0.625  0.625 1.015625  1 1.5  L 1 24.5  C 0.625 24.984375  1.015625 25.375  1.5 25.375  L 10.375 25.375  C 10.859375 25.375  11.25 24.984375  11.25 24.5  L 11.25 19.25  C 11.25 19.18125  11.19375 19.125  11.125 19.125  L 9.25 19.125  C 9.18125 19.125  9.125 19.18125  9.125 19.25  L 9.125 23.25  L 2.75 23.25  L 2.75 14.0625  L 7.125 14.0625  L 7.125 16.73125  C 7.125 16.85  7.2625 16.91875  7.353125 16.84375  L 12.06875 13.1125  Z M 25 1.5  C 25.375 1.015625  24.984375 0.625  24.5 0.625  L 15.625 0.625  C 15.140625 0.625  14.75 1.015625  14.75 1.5  L 14.75 6.75  C 14.75 6.81875  14.80625 6.875  14.875 6.875  L 16.75 6.875  C 16.81875 6.875  16.875 6.81875  16.875 6.75  L 16.875 2.75  L 23.25 2.75  L 23.25 11.9375  L 18.875 11.9375  L 18.875 9.26875  C 18.875 9.15  18.740625 9.08125  18.646875 9.15625  L 13.928125 12.8875  C 13.85625 12.94375  13.85625 13.053125  13.928125 13.109375  L 18.646875 16.84375  C 18.7375 16.915625  18.875 16.85  18.875 16.73125  L 18.875 14.0625  L 23.25 14.0625  L 23.25 23.25  L 16.875 23.25  L 16.875 19.25  C 16.875 19.18125  16.81875 19.125  16.75 19.125  L 14.875 19.125  C 14.80625 19.125  14.75 19.18125  14.75 19.25  L 14.75 24.5  C 14.75 24.984375  15.140625 25.375  15.625 25.375  L 24.5 25.375  C 24.984375 25.375  25.375 24.984375  25 24.5  L 25 1.5  Z " fill-rule="nonzero" fill="#000000" stroke="none" transform="matrix(1 0 0 1 758 2702 )" />
  </g>
</svg>