<?xml version="1.0" encoding="utf-8"?>
<svg version="1.1" xmlns:xlink="http://www.w3.org/1999/xlink" width="28px" height="28px" xmlns="http://www.w3.org/2000/svg">
  <g transform="matrix(1 0 0 1 -757 -1879 )">
    <path d="M 9.1875 1.25  C 9.1875 0.975  8.9625 0.75  8.6875 0.75  L 1.75 0.75  C 1.196875 0.75  0.75 1.196875  0.75 1.75  L 0.75 8.75  C 0.75 9.025  0.975 9.25  1.25 9.25  L 2.75 9.25  C 3.025 9.25  3.25 9.025  3.25 8.75  L 3.25 3.25  L 8.6875 3.25  C 8.9625 3.25  9.1875 3.025  9.1875 2.75  L 9.1875 1.25  Z M 27.25 19.25  C 27.25 18.975  27.025 18.75  26.75 18.75  L 25.25 18.75  C 24.975 18.75  24.75 18.975  24.75 19.25  L 24.75 24.75  L 19.3125 24.75  C 19.0375 24.75  18.8125 24.975  18.8125 25.25  L 18.8125 26.75  C 18.8125 27.025  19.0375 27.25  19.3125 27.25  L 26.25 27.25  C 26.803125 27.25  27.25 26.803125  27.25 26.25  L 27.25 19.25  Z M 9.1875 25.25  C 9.1875 24.975  8.9625 24.75  8.6875 24.75  L 3.25 24.75  L 3.25 19.25  C 3.25 18.975  3.025 18.75  2.75 18.75  L 1.25 18.75  C 0.975 18.75  0.75 18.975  0.75 19.25  L 0.75 26.25  C 0.75 26.803125  1.196875 27.25  1.75 27.25  L 8.6875 27.25  C 8.9625 27.25  9.1875 27.025  9.1875 26.75  L 9.1875 25.25  Z M 27.25 1.75  C 27.25 1.196875  26.803125 0.75  26.25 0.75  L 19.3125 0.75  C 19.0375 0.75  18.8125 0.975  18.8125 1.25  L 18.8125 2.75  C 18.8125 3.025  19.0375 3.25  19.3125 3.25  L 24.75 3.25  L 24.75 8.75  C 24.75 9.025  24.975 9.25  25.25 9.25  L 26.75 9.25  C 27.025 9.25  27.25 9.025  27.25 8.75  L 27.25 1.75  Z " fill-rule="nonzero" fill="#000000" stroke="none" transform="matrix(1 0 0 1 757 1879 )" />
  </g>
</svg>