<?xml version="1.0" encoding="utf-8"?>
<svg version="1.1" xmlns:xlink="http://www.w3.org/1999/xlink" width="28px" height="22px" xmlns="http://www.w3.org/2000/svg">
  <g transform="matrix(1 0 0 1 -757 -2155 )">
    <path d="M 28 1.03125  C 28 0.478125  27.553125 0.03125  27 0.03125  L 19.85 0.03125  C 18.315625 0.03125  16.815625 0.471875  15.525 1.303125  L 14 2.28125  L 12.475 1.303125  C 11.1875 0.471875  9.684375 0.03125  8.15 0.03125  L 1 0.03125  C 0.446875 0.03125  0 0.478125  0 1.03125  L 0 18.78125  C 0 19.334375  0.446875 19.78125  1 19.78125  L 8.15 19.78125  C 9.684375 19.78125  11.184375 20.221875  12.475 21.053125  L 13.8625 21.946875  C 13.903125 21.971875  13.95 21.9875  13.996875 21.9875  C 14.04375 21.9875  14.090625 21.975  14.13125 21.946875  L 15.51875 21.053125  C 16.8125 20.221875  18.315625 19.78125  19.85 19.78125  L 27 19.78125  C 27.553125 19.78125  28 19.334375  28 18.78125  L 28 1.03125  Z M 13 18.75  C 11.5125 17.95  9.85 17.53125  8.15 17.53125  L 2.25 17.53125  L 2.25 2.28125  L 8.15 2.28125  C 9.25625 2.28125  10.33125 2.596875  11.259375 3.19375  L 12.784375 4.171875  L 13 4.3125  L 13 18.75  Z M 25.75 2.28125  L 25.75 17.53125  L 19.85 17.53125  C 18.15 17.53125  16.4875 17.95  15 18.75  L 15 4.3125  L 15.215625 4.171875  L 16.740625 3.19375  C 17.66875 2.596875  18.74375 2.28125  19.85 2.28125  L 25.75 2.28125  Z M 10.621875 6.515625  C 10.625 6.3875  10.525 6.28125  10.403125 6.28125  L 4.596875 6.28125  C 4.475 6.28125  4.375 6.3875  4.375 6.515625  L 4.375 7.921875  C 4.375 8.05  4.475 8.15625  4.596875 8.15625  L 10.4 8.15625  C 10.521875 8.15625  10.621875 8.05  10.621875 7.921875  L 10.621875 6.515625  Z M 17.596875 6.28125  C 17.475 6.28125  17.375 6.3875  17.375 6.515625  L 17.375 7.921875  C 17.375 8.05  17.475 8.15625  17.596875 8.15625  L 23.4 8.15625  C 23.521875 8.15625  23.621875 8.05  23.621875 7.921875  L 23.621875 6.515625  C 23.621875 6.3875  23.521875 6.28125  23.4 6.28125  L 17.596875 6.28125  Z M 10.621875 10.890625  C 10.625 10.7625  10.525 10.65625  10.403125 10.65625  L 4.596875 10.65625  C 4.475 10.65625  4.375 10.7625  4.375 10.890625  L 4.375 12.296875  C 4.375 12.425  4.475 12.53125  4.596875 12.53125  L 10.4 12.53125  C 10.521875 12.53125  10.621875 12.425  10.621875 12.296875  L 10.621875 10.890625  Z M 23.621875 10.890625  C 23.625 10.7625  23.525 10.65625  23.403125 10.65625  L 17.596875 10.65625  C 17.475 10.65625  17.375 10.7625  17.375 10.890625  L 17.375 12.296875  C 17.375 12.425  17.475 12.53125  17.596875 12.53125  L 23.4 12.53125  C 23.521875 12.53125  23.621875 12.425  23.621875 12.296875  L 23.621875 10.890625  Z " fill-rule="nonzero" fill="#ffffff" stroke="none" transform="matrix(1 0 0 1 757 2155 )" />
  </g>
</svg>