<?xml version="1.0" encoding="utf-8"?>
<svg version="1.1" xmlns:xlink="http://www.w3.org/1999/xlink" width="22px" height="26px" xmlns="http://www.w3.org/2000/svg">
  <g transform="matrix(1 0 0 1 -760 -2290 )">
    <path d="M 22 12.5  C 22 11.946875  21.553125 11.5  21 11.5  L 18.875 11.5  L 18.875 4.5  C 18.875 2.290625  17.084375 0.5  14.875 0.5  L 7.125 0.5  C 4.915625 0.5  3.125 2.290625  3.125 4.5  L 3.125 11.5  L 1 11.5  C 0.446875 11.5  0 11.946875  0 12.5  L 0 24.5  C 0 25.053125  0.446875 25.5  1 25  L 21 25  C 21.553125 25.5  22 25.053125  22 24.5  L 22 12.5  Z M 5.375 12  L 5.375 4.5  C 5.375 3.534375  6.159375 2.75  7.125 2.75  L 14.875 2.75  C 15.840625 2.75  16.625 3.534375  16.625 4.5  L 16.625 12  L 5.375 12  Z M 19.75 13.75  L 19.75 23  L 2.25 23  L 2.25 13.75  L 19.75 13.75  Z M 9.5 17.6875  C 9.5 18.190625  9.746875 18.634375  10.125 18.90625  L 10.125 20.5625  C 10.125 20.7  10.2375 20.8125  10.375 20.8125  L 11.625 20.8125  C 11.7625 20.8125  11.875 20.7  11.875 20.5625  L 11.875 18.90625  C 12.253125 18.634375  12.5 18.190625  12.5 17.6875  C 12.5 16.859375  11.828125 16.1875  11 16.1875  C 10.171875 16.1875  9.5 16.859375  9.5 17.6875  Z " fill-rule="nonzero" fill="#ffffff" stroke="none" transform="matrix(1 0 0 1 760 2290 )" />
  </g>
</svg>