<?xml version="1.0" encoding="utf-8"?>
<svg version="1.1" xmlns:xlink="http://www.w3.org/1999/xlink" width="28px" height="18px" xmlns="http://www.w3.org/2000/svg">
  <g transform="matrix(1 0 0 1 -664 -1612 )">
    <path d="M 28 9  C 28 4.30625  24.19375 0.5  19.5 0.5  C 15.1875 0.5  11.625 3.7125  11.075 7.875  L 5.78125 7.875  C 5.3375 6.775  4.259375 6  3 6  C 1.34375 6  0 7.34375  0 9  C 0 10.65625  1.34375 12  3 12  C 4.259375 12  5.3375 11.225  5.78125 10.125  L 11.071875 10.125  C 11.625 14.2875  15.1875 17.5  19.5 17.5  C 24.19375 17.5  28 13.69375  28 9  Z M 23.5 8.1875  L 23.5 9.8125  C 23.5 9.95  23.3875 10.0625  23.25 10.0625  L 20.5625 10.0625  L 20.5625 12.75  C 20.5625 12.8875  20.45 13  20.3125 13  L 18.6875 13  C 18.55 13  18.4375 12.8875  18.4375 12.75  L 18.4375 10.0625  L 15.75 10.0625  C 15.6125 10.0625  15.5 9.95  15.5 9.8125  L 15.5 8.1875  C 15.5 8.05  15.6125 7.9375  15.75 7.9375  L 18.4375 7.9375  L 18.4375 5.25  C 18.4375 5.1125  18.55 5  18.6875 5  L 20.3125 5  C 20.45 5  20.5625 5.1125  20.5625 5.25  L 20.5625 7.9375  L 23.25 7.9375  C 23.3875 7.9375  23.5 8.05  23.5 8.1875  Z " fill-rule="nonzero" fill="#000000" stroke="none" transform="matrix(1 0 0 1 664 1612 )" />
  </g>
</svg>