<?xml version="1.0" encoding="utf-8"?>
<svg version="1.1" xmlns:xlink="http://www.w3.org/1999/xlink" width="28px" height="20px" xmlns="http://www.w3.org/2000/svg">
  <g transform="matrix(1 0 0 1 -664 -1679 )">
    <path d="M 28 13.125  C 28 10.228125  26.028125 7.790625  23.35625 7.084375  C 21.925 3.309375  18.278125 0.625  14.00625 0.625  C 9.734375 0.625  6.0875 3.30625  4.65625 7.08125  C 1.978125 7.784375  0 10.221875  0 13.125  C 0 16.578125  2.796875 19.375  6.246875 19  L 21.753125 19  C 25.203125 19.375  28 16.578125  28 13.125  Z M 25.625 13.125  C 25.625 14.159375  25.221875 15.134375  24.490625 15.865625  C 23.759375 16.596875  22.7875 17  21.753125 17  L 6.246875 17  C 5.2125 17  4.240625 16.596875  3.509375 15.865625  C 2.778125 15.134375  2.375 14.159375  2.375 13.125  C 2.375 12.25  2.659375 11.428125  3.19375 10.740625  C 3.715625 10.075  4.45 9.590625  5.259375 9.375  L 6.44375 9.065625  L 6.878125 7.921875  C 7.146875 7.209375  7.521875 6.54375  7.99375 5.940625  C 8.459375 5.340625  9.0125 4.81875  9.63125 4.38125  C 10.915625 3.478125  12.428125 3  14.00625 3  C 15.584375 3  17.096875 3.478125  18.38125 4.38125  C 19.003125 4.81875  19.553125 5.34375  20.01875 5.940625  C 20.490625 6.54375  20.865625 7.2125  21.134375 7.921875  L 21.565625 9.0625  L 22.746875 9.375  C 24.44375 9.828125  25.625 11.36875  25.625 13.125  Z " fill-rule="nonzero" fill="#000000" stroke="none" transform="matrix(1 0 0 1 664 1679 )" />
  </g>
</svg>