<?xml version="1.0" encoding="utf-8"?>
<svg version="1.1" xmlns:xlink="http://www.w3.org/1999/xlink" width="22px" height="28px" xmlns="http://www.w3.org/2000/svg">
  <g transform="matrix(1 0 0 1 -667 -1743 )">
    <path d="M 22 1  C 22 0.446875  21.553125 0  21 0  L 1 0  C 0.446875 0  0 0.446875  0 1  L 0 27  C 0 27.553125  0.446875 28  1 28  L 21 28  C 21.553125 28  22 27.553125  22 27  L 22 1  Z M 19.75 2.25  L 19.75 25.75  L 2.25 25.75  L 2.25 19.46875  L 5.309375 19.46875  C 5.671875 20.49375  6.309375 21.415625  7.15625 22.115625  C 8.234375 23.00625  9.6 23.5  11 23.5  C 12.4 23.5  13.765625 23.009375  14.84375 22.115625  C 15.690625 21.415625  16.328125 20.49375  16.690625 19.46875  L 19.75 19.46875  L 19.75 17.5  L 15.1125 17.5  L 14.95 18.271875  C 14.575 20.140625  12.9125 21.5  11 21.5  C 9.0875 21.5  7.425 20.140625  7.046875 18.271875  L 6.884375 17.5  L 2.25 17.5  L 2.25 2.25  L 19.75 2.25  Z M 4.75 8.40625  C 4.75 8.54375  4.8625 8.65625  5 9  L 17 9  C 17.1375 8.65625  17.25 8.54375  17.25 8.40625  L 17.25 6.90625  C 17.25 6.76875  17.1375 6.65625  17 7  L 5 7  C 4.8625 6.65625  4.75 6.76875  4.75 6.90625  L 4.75 8.40625  Z M 4.75 13.40625  C 4.75 13.54375  4.8625 13.65625  5 14  L 17 14  C 17.1375 13.65625  17.25 13.54375  17.25 13.40625  L 17.25 11.90625  C 17.25 11.76875  17.1375 11.65625  17 12  L 5 12  C 4.8625 11.65625  4.75 11.76875  4.75 11.90625  L 4.75 13.40625  Z " fill-rule="nonzero" fill="#000000" stroke="none" transform="matrix(1 0 0 1 667 1743 )" />
  </g>
</svg>