<?xml version="1.0" encoding="utf-8"?>
<svg version="1.1" xmlns:xlink="http://www.w3.org/1999/xlink" width="27px" height="23px" xmlns="http://www.w3.org/2000/svg">
  <g transform="matrix(1 0 0 1 -665 -2636 )">
    <path d="M 13.259375 15  L 26.75 15  C 26.8875 15.125  27 15.0125  27 14.875  L 27 13.125  C 27 12.9875  26.8875 12.875  26.75 12.875  L 6.3125 12.875  C 5.86875 11.775  4.790625 11  3.53125 11  C 1.875 11  0.53125 12.34375  0.53125 14  C 0.53125 15.65625  1.875 17  3.53125 17  C 4.790625 17  5.86875 16.225  6.3125 15.125  L 11.009375 15.125  L 11.009375 19.875  C 11.009375 21.6  12.409375 23  14.134375 23  L 26.75 23  C 26.8875 23  27 22.8875  27 22.75  L 27 21  C 27 20.8625  26.8875 20.75  26.75 20.75  L 14.134375 20.75  C 13.65 20.75  13.259375 20.359375  13.259375 19.875  L 13.259375 15  Z M 11 6.5  C 11 6.6375  11.1125 6.75  11.25 6.75  L 19.5 6.75  L 19.5 9.81875  C 19.5 10.071875  19.796875 10.21875  19.99375 10.059375  L 25.384375 5.803125  C 25.540625 5.68125  25.540625 5.446875  25.384375 5.325  L 19.99375 1.065625  C 19.79375 0.90625  19.5 1.05  19.5 1.30625  L 19.5 4.375  L 11.25 4.375  C 11.1125 4.375  11 4.4875  11 4.625  L 11 6.5  Z " fill-rule="nonzero" fill="#000000" stroke="none" transform="matrix(1 0 0 1 665 2636 )" />
  </g>
</svg>