<?xml version="1.0" encoding="utf-8"?>
<svg version="1.1" xmlns:xlink="http://www.w3.org/1999/xlink" width="28px" height="22px" xmlns="http://www.w3.org/2000/svg">
  <g transform="matrix(1 0 0 1 -664 -2155 )">
    <path d="M 28 1  C 28 0.446875  27.553125 0  27 0  L 1 0  C 0.446875 0  0 0.446875  0 1  L 0 21  C 0 21.553125  0.446875 22  1 22  L 27 22  C 27.553125 22  28 21.553125  28 21  L 28 1  Z M 25.75 18.8  L 25.75 19.75  L 2.25 19.75  L 2.25 18.503125  L 6.578125 13.36875  L 11.26875 18.93125  L 18.565625 10.28125  L 25.75 18.8  Z M 25.75 2.25  L 25.75 15.69375  L 18.75625 7.4  C 18.65625 7.28125  18.475 7.28125  18.375 7.4  L 11.26875 15.825  L 6.76875 10.490625  C 6.66875 10.371875  6.4875 10.371875  6.3875 10.490625  L 2.25 15.396875  L 2.25 2.25  L 25.75 2.25  Z M 4.75 6.5  C 4.75 8.01875  5.98125 9.25  7.5 9.25  C 9.01875 9.25  10.25 8.01875  10.25 6.5  C 10.25 4.98125  9.01875 3.75  7.5 3.75  C 5.98125 3.75  4.75 4.98125  4.75 6.5  Z M 6.625 6.5  C 6.625 6.015625  7.015625 5.625  7.5 5.625  C 7.984375 5.625  8.375 6.015625  8.375 6.5  C 8.375 6.984375  7.984375 7.375  7.5 7.375  C 7.015625 7.375  6.625 6.984375  6.625 6.5  Z " fill-rule="nonzero" fill="#000000" stroke="none" transform="matrix(1 0 0 1 664 2155 )" />
  </g>
</svg>