<?xml version="1.0" encoding="utf-8"?>
<svg version="1.1" xmlns:xlink="http://www.w3.org/1999/xlink" width="22px" height="28px" xmlns="http://www.w3.org/2000/svg">
  <g transform="matrix(1 0 0 1 -667 -1947 )">
    <path d="M 22 7.728125  C 22 7.4625  21.89375 7.20625  21.70625 7.01875  L 14.98125 0.29375  C 14.79375 0.10625  14.540625 0  14.275 0  L 1 0  C 0.446875 0  0 0.446875  0 1  L 0 27  C 0 27.553125  0.446875 28  1 28  L 21 28  C 21.553125 28  22 27.553125  22 27  L 22 7.728125  Z M 13.8125 2.30625  L 19.69375 8.1875  L 13.8125 8.1875  L 13.8125 2.30625  Z M 19.75 10.3125  L 19.75 25.75  L 2.25 25.75  L 2.25 2.25  L 11.6875 2.25  L 11.6875 9  C 11.6875 9.725  12.275 10.3125  13 10.3125  L 19.75 10.3125  Z M 11 17.5625  C 11 17.425  10.8875 17.3125  10.75 17.3125  L 5 17.3125  C 4.8625 17.3125  4.75 17.425  4.75 17.5625  L 4.75 19.0625  C 4.75 19.2  4.8625 19.3125  5 19.3125  L 10.75 19.3125  C 10.8875 19.3125  11 19.2  11 19.0625  L 11 17.5625  Z M 5 13  C 4.8625 13.0625  4.75 13.175  4.75 13.3125  L 4.75 14.8125  C 4.75 14.95  4.8625 15.0625  5 15  L 17 15  C 17.1375 15.0625  17.25 14.95  17.25 14.8125  L 17.25 13.3125  C 17.25 13.175  17.1375 13.0625  17 13  L 5 13  Z " fill-rule="nonzero" fill="#000000" stroke="none" transform="matrix(1 0 0 1 667 1947 )" />
  </g>
</svg>