<?xml version="1.0" encoding="utf-8"?>
<svg version="1.1" xmlns:xlink="http://www.w3.org/1999/xlink" width="26px" height="26px" xmlns="http://www.w3.org/2000/svg">
  <g transform="matrix(1 0 0 1 -665 -2427 )">
    <path d="M 20.653125 12.4625  L 18.65 9.896875  L 18.65625 9.890625  L 17.575 8.50625  C 17.490625 8.396875  17.334375 8.378125  17.225 8.4625  L 15.65 9.690625  L 13.446875 6.875  C 13.3625 6.765625  13.20625 6.746875  13.096875 6.83125  L 11.9125 7.759375  C 11.803125 7.84375  11.784375 8  11.86875 8.109375  L 14.071875 10.928125  L 14.065625 10.93125  L 15.146875 12.315625  C 15.23125 12.425  15.3875 12.44375  15.496875 12.359375  L 17.071875 11.13125  L 19.075 13.69375  C 19.159375 13.803125  19.315625 13.821875  19.425 13.7375  L 20.609375 12.8125  C 20.71875 12.728125  20.7375 12.571875  20.653125 12.4625  Z M 25.5 10  C 25.5 4.753125  21.246875 0.5  16 0.5  C 10.753125 0.5  6.5 4.753125  6.5 10  C 6.5 12.196875  7.246875 14.21875  8.496875 15.828125  L 0.571875 23.753125  C 0.475 23.85  0.475 24.009375  0.571875 24.10625  L 1.89375 25.428125  C 1.990625 25.525  2.15 25.525  2.246875 25.428125  L 10.171875 17.503125  C 11.78125 18.753125  13.803125 19.5  16 19.5  C 21.246875 19.5  25.5 15.246875  25.5 10  Z M 23.125 10  C 23.125 11.903125  22.384375 13.69375  21.0375 15.0375  C 19.69375 16.384375  17.903125 17.125  16 17.125  C 14.096875 17.125  12.30625 16.384375  10.9625 15.0375  C 9.615625 13.69375  8.875 11.903125  8.875 10  C 8.875 8.096875  9.615625 6.30625  10.9625 4.9625  C 12.30625 3.615625  14.096875 2.875  16 2.875  C 17.903125 2.875  19.69375 3.615625  21.0375 4.9625  C 22.384375 6.30625  23.125 8.096875  23.125 10  Z " fill-rule="nonzero" fill="#000000" stroke="none" transform="matrix(1 0 0 1 665 2427 )" />
  </g>
</svg>