<?xml version="1.0" encoding="utf-8"?>
<svg version="1.1" xmlns:xlink="http://www.w3.org/1999/xlink" width="26px" height="26px" xmlns="http://www.w3.org/2000/svg">
  <g transform="matrix(1 0 0 1 -665 -2358 )">
    <path d="M 25.5625 2.3125  C 25.5625 1.553125  24.946875 0.9375  24.1875 0.9375  L 17.74375 0.9375  C 17.2 0.9375  16.715625 1.309375  16.5875 1.853125  C 16.196875 3.503125  14.71875 4.6875  13 4.6875  C 11.28125 4.6875  9.803125 3.503125  9.4125 1.853125  C 9.284375 1.309375  8.803125 0.9375  8.25625 0.9375  L 1.8125 0.9375  C 1.053125 0.9375  0.4375 1.553125  0.4375 2.3125  L 0.4375 10.1875  C 0.4375 10.946875  1.053125 11.5625  1.8125 11.5625  L 4.15625 11.5625  L 4.15625 23.6875  C 4.15625 24.446875  4.771875 25.0625  5.53125 25  L 20.46875 25  C 21.228125 25.0625  21.84375 24.446875  21.84375 23.6875  L 21.84375 11.5625  L 24.1875 11.5625  C 24.946875 11.5625  25.5625 10.946875  25.5625 10.1875  L 25.5625 2.3125  Z M 23.3125 3.1875  L 23.3125 9.3125  L 19.59375 9.3125  L 19.59375 22.8125  L 6.40625 22.8125  L 6.40625 9.3125  L 2.6875 9.3125  L 2.6875 3.1875  L 7.478125 3.1875  C 8.359375 5.4125  10.525 6.9375  13 6.9375  C 15.475 6.9375  17.640625 5.4125  18.521875 3.1875  L 23.3125 3.1875  Z " fill-rule="nonzero" fill="#ffffff" stroke="none" transform="matrix(1 0 0 1 665 2358 )" />
  </g>
</svg>