<?xml version="1.0" encoding="utf-8"?>
<svg version="1.1" xmlns:xlink="http://www.w3.org/1999/xlink" width="24px" height="28px" xmlns="http://www.w3.org/2000/svg">
  <g transform="matrix(1 0 0 1 -853 -1538 )">
    <path d="M 17.25 6  L 5.25 6  C 5.1125 5.8125  5 5.925  5 6.0625  L 5 7.5625  C 5 7.7  5.1125 7.8125  5.25 8  L 17.25 8  C 17.3875 7.8125  17.5 7.7  17.5 7.5625  L 17.5 6.0625  C 17.5 5.925  17.3875 5.8125  17.25 6  Z M 11.25 10.5625  C 11.25 10.425  11.1375 10.3125  11 10.3125  L 5.25 10.3125  C 5.1125 10.3125  5 10.425  5 10.5625  L 5 12.0625  C 5 12.2  5.1125 12.3125  5.25 12.3125  L 11 12.3125  C 11.1375 12.3125  11.25 12.2  11.25 12.0625  L 11.25 10.5625  Z M 9.75 24.875  C 9.75 24.7375  9.6375 24.625  9.5 24.625  L 2.5 24.625  L 2.5 3  L 20 3  L 20 12.625  C 20 12.7625  20.1125 12.875  20.25 12.875  L 22 12.875  C 22.1375 12.875  22.25 12.7625  22 12.625  L 22 1.375  C 22.25 0.821875  21.803125 0.375  21.25 0.375  L 1.25 0.375  C 0.696875 0.375  0.25 0.821875  0.25 1.375  L 0.25 25.875  C 0.25 26.428125  0.696875 26.875  1.25 26.875  L 9.5 26.875  C 9.6375 26.875  9.75 26.7625  9.75 26.625  L 9.75 24.875  Z M 23.75 22.375  C 23.75 22.1  23.525 21.875  23.25 21.875  L 18.75 21.875  L 18.75 20.73125  C 20.196875 20.3  21.25 18.9625  21.25 17.375  C 21.25 15.440625  19.684375 13.875  17.75 13.875  C 15.815625 13.875  14.25 15.440625  14.25 17.375  C 14.25 18.959375  15.303125 20.3  16.75 20.73125  L 16.75 21.875  L 12.25 21.875  C 11.975 21.875  11.75 22.1  11.75 22.375  L 11.75 27.125  C 11.75 27.4  11.975 27.625  12.25 27.625  L 23.25 27.625  C 23.525 27.625  23.75 27.4  23.75 27.125  L 23.75 22.375  Z M 17.75 18.9375  C 16.8875 18.9375  16.1875 18.2375  16.1875 17.375  C 16.1875 16.5125  16.8875 15.8125  17.75 15.8125  C 18.6125 15.8125  19.3125 16.5125  19.3125 17.375  C 19.3125 18.2375  18.6125 18.9375  17.75 18.9375  Z M 21.8125 23.8125  L 21.8125 25.6875  L 13.6875 25.6875  L 13.6875 23.8125  L 21.8125 23.8125  Z " fill-rule="nonzero" fill="#000000" stroke="none" transform="matrix(1 0 0 1 853 1538 )" />
  </g>
</svg>