<?xml version="1.0" encoding="utf-8"?>
<svg version="1.1" xmlns:xlink="http://www.w3.org/1999/xlink" width="24px" height="22px" xmlns="http://www.w3.org/2000/svg">
  <g transform="matrix(1 0 0 1 -1041 -222 )">
    <path d="M 23.125 19.625  C 23.125 19.4875  23.0125 19.375  22.871875 19  L 1.128125 19  C 0.9875 19.375  0.875 19.4875  0.875 19.625  L 0.875 21.5  C 0.875 21.6375  0.9875 21.75  1.128125 21.75  L 22.871875 21.75  C 23.0125 21.75  23.125 21.6375  23.125 21.5  L 23.125 19.625  Z M 8.303125 11.475  L 11.803125 15.90625  C 11.903125 16.034375  12.096875 16.034375  12.196875 15.90625  L 15.696875 11.478125  C 15.825 11.315625  15.709375 11.075  15.5 11.075  L 13 11.075  L 13 0.5  C 13.184375 0.3625  13.071875 0.25  12.934375 0.25  L 11.059375 0.25  C 10.921875 0.25  10.809375 0.3625  11 0.5  L 11 11.071875  L 8.5 11.071875  C 8.290625 11.071875  8.175 11.3125  8.303125 11.475  Z " fill-rule="nonzero" fill="#ffffff" stroke="none" transform="matrix(1 0 0 1 1041 222 )" />
  </g>
</svg>