<?xml version="1.0" encoding="utf-8"?>
<svg version="1.1" xmlns:xlink="http://www.w3.org/1999/xlink" width="28px" height="29px" xmlns="http://www.w3.org/2000/svg">
  <g transform="matrix(1 0 0 1 -851 -2083 )">
    <path d="M 27.190625 19.646875  C 27.33125 19.2625  27.215625 18.825  26.9 18.553125  L 24.853125 16.803125  C 24.95 16.209375  25 15.603125  25 14.996875  C 25 14.390625  24.95 13.784375  24.853125 13.190625  L 26.9 11.440625  C 27.215625 11.171875  27.33125 10.734375  27.190625 10.340625  L 27.1625 10.259375  C 26.596875 8.68125  25.759375 7.23125  24.671875 5.95  L 24.615625 5.884375  C 24.346875 5.56875  23.9125 5.45  23.51875 5.5875  L 20.978125 6.490625  C 20.040625 5.721875  18.99375 5.115625  17.8625 4.690625  L 17.371875 2.034375  C 17.296875 1.625  16.975 1.30625  16.565625 1.23125  L 16.48125 1.215625  C 14.853125 0.921875000000001  13.140625 0.921875000000001  11.5125 1.215625  L 11.428125 1.23125  C 11.01875 1.30625  10.696875 1.625  10.621875 2.034375  L 10.128125 4.703125  C 9.00625 5.128125  7.965625 5.73125  7.034375 6.496875  L 4.475 5.5875  C 4.084375 5.45  3.646875 5.565625  3.378125 5.884375  L 3.321875 5.95  C 2.23437499999999 7.234375  1.396875 8.684375  0.831249999999995 10.259375  L 0.803124999999995 10.340625  C 0.662499999999995 10.73125  0.778124999999995 11.16875  1.09374999999999 11.440625  L 3.165625 13.209375  C 3.06875 13.796875  3.021875 14.396875  3.021875 14.99375  C 3.021875 15.59375  3.06875 16.19375  3.165625 16.778125  L 1.09375 18.546875  C 0.778125 18.815625  0.6625 19.253125  0.803125 19.646875  L 0.83125 19.728125  C 1.396875 21.303125  2.234375 22.75625  3.321875 24.0375  L 3.378125 24.103125  C 3.646875 24.41875  4.08125 24.5375  4.475 24.4  L 7.034375 23.490625  C 7.965625 24.25625  9.00625 24.8625  10.128125 25.284375  L 10.621875 27.953125  C 10.696875 28.3625  11.01875 28.68125  11.428125 28.75625  L 11.5125 28.771875  C 12.328125 28.91875  13.1625 28.99375  13.996875 28.99375  C 14.83125 28.99375  15.66875 28.91875  16.48125 28.771875  L 16.565625 28.75625  C 16.975 28.68125  17.296875 28.3625  17.371875 27.953125  L 17.8625 25.296875  C 18.99375 24.871875  20.040625 24.26875  20.978125 23.496875  L 23.51875 24.4  C 23.909375 24.5375  24.346875 24.421875  24.615625 24.103125  L 24.671875 24.0375  C 25.759375 22.753125  26.596875 21.303125  27.1625 19.728125  L 27.190625 19.646875  Z M 22.43125 12.3125  L 22.634375 13.559375  C 22.7125 14.03125  22.753125 14.515625  22.753125 15  C 22.753125 15.484375  22.7125 15.96875  22.634375 16.440625  L 22.428125 17.69375  L 24.7625 19.690625  C 24.409375 20.50625  23.9625 21.275  23.43125 21.990625  L 20.53125 20.9625  L 19.55 21.76875  C 18.803125 22.38125  17.971875 22.8625  17.071875 23.2  L 15.88125 23.646875  L 15.321875 26.678125  C 14.44375 26.778125  13.546875 26.778125  12.665625 26.678125  L 12.10625 23.640625  L 10.925 23.1875  C 10.034375 22.85  9.20625 22.36875  8.465625 21.759375  L 7.484375 20.95  L 4.565625 21.9875  C 4.034375 21.271875  3.590625 20.5  3.234375 19.6875  L 5.59375 17.671875  L 5.390625 16.421875  C 5.315625 15.95625  5.275 15.475  5.275 15  C 5.275 14.521875  5.3125 14.04375  5.390625 13.578125  L 5.59375 12.328125  L 3.234375 10.3125  C 3.5875 9.49687499999999  4.034375 8.72812499999999  4.565625 8.01249999999999  L 7.484375 9.04999999999999  L 8.465625 8.24062499999999  C 9.20625 7.63124999999999  10.034375 7.14999999999999  10.925 6.81249999999999  L 12.109375 6.36562499999999  L 12.66875 3.32812499999999  C 13.546875 3.22812499999999  14.44375 3.22812499999999  15.325 3.32812499999999  L 15.884375 6.35937499999999  L 17.075 6.80624999999999  C 17.971875 7.14374999999999  18.80625 7.62499999999999  19.553125 8.23749999999999  L 20.534375 9.04374999999999  L 23.434375 8.01562499999999  C 23.965625 8.73124999999999  24.409375 9.503125  24.765625 10.315625  L 22.43125 12.3125  Z M 19.5 14.6875  C 19.5 11.65  17.0375 9.1875  14 9.1875  C 10.9625 9.1875  8.5 11.65  8.5 14.6875  C 8.5 17.725  10.9625 20.1875  14 20.1875  C 17.0375 20.1875  19.5 17.725  19.5 14.6875  Z M 17.5 14.6875  C 17.5 15.621875  17.134375 16.5  16.475 17.1625  C 15.8125 17.821875  14.934375 18.1875  14 18.1875  C 13.065625 18.1875  12.1875 17.821875  11.525 17.1625  C 10.865625 16.5  10.5 15.621875  10.5 14.6875  C 10.5 13.753125  10.865625 12.875  11.525 12.2125  C 12.1875 11.55  13.065625 11.1875  14 11.1875  C 14.934375 11.1875  15.8125 11.55  16.475 12.2125  C 17.134375 12.875  17.5 13.753125  17.5 14.6875  Z " fill-rule="nonzero" fill="#000000" stroke="none" transform="matrix(1 0 0 1 851 2083 )" />
  </g>
</svg>