<?xml version="1.0" encoding="utf-8"?>
<svg version="1.1" xmlns:xlink="http://www.w3.org/1999/xlink" width="24px" height="26px" xmlns="http://www.w3.org/2000/svg">
  <g transform="matrix(1 0 0 1 -853 -1880 )">
    <path d="M 12 11.75  C 12 12.4403559372885  12.5596440627115 13  13.25 13  C 13.9403559372885 13  14.5 12.4403559372885  14.5 11.75  C 14.5 11.0596440627115  13.9403559372885 10.5  13.25 10.5  C 12.5596440627115 10.5  12 11.0596440627115  12 11.75  Z M 22.325 25.365625  C 23.35625 24.96875  23.86875 23.809375  23.46875 22.778125  L 17.759375 8  L 17.759375 2.5625  L 20 2.5625  L 20 0.4375  L 4 0.4375  L 4 2.5625  L 6.240625 2.5625  L 6.240625 8  L 0.53125 22.778125  C 0.44375 23.009375  0.396875 23.253125  0.396875 23.5  C 0.396875 24.603125  1.29375 25.5  2.396875 25  L 21.603125 25  C 21.85 25.5  22.09375 25.453125  22.325 25.365625  Z M 4.653125 18.00625  L 8.365625 8.396875  L 8.365625 2.625  L 15.634375 2.625  L 15.634375 8.396875  L 18.475 15.75  C 17.828125 15.584375  17.159375 15.5  16.478125 15.5  C 14.565625 15.5  12.753125 16.171875  11.3125 17.375  C 10.253125 18.25625  8.928125 18.746875  7.521875 18.746875  C 6.5 18.746875  5.51875 18.4875  4.653125 18.00625  Z M 21.421875 23  L 2.578125 23  L 3.88125 20.00625  C 4.996875 20.571875  6.2375 20.875  7.525 20.875  C 9.4375 20.875  11.25 20.203125  12.690625 19  C 13.75 18.11875  15.075 17.628125  16.48125 17.628125  C 17.575 17.628125  18.61875 17.925  19.53125 18.475  L 21.421875 23  Z " fill-rule="nonzero" fill="#000000" stroke="none" transform="matrix(1 0 0 1 853 1880 )" />
  </g>
</svg>