<?xml version="1.0" encoding="utf-8"?>
<svg version="1.1" xmlns:xlink="http://www.w3.org/1999/xlink" width="26px" height="22px" xmlns="http://www.w3.org/2000/svg">
  <g transform="matrix(1 0 0 1 -852 -2636 )">
    <path d="M 13.015625 7.90625  C 10.175 7.90625  8.040625 9.409375  6.659375 12.321875  C 6.490625 12.684375  6.490625 13.1  6.659375 13.459375  C 8.040625 16.375  10.175 17.875  13.015625 17.875  C 15.85625 17.875  17.990625 16.371875  19.371875 13.459375  C 19.540625 13.1  19.540625 12.684375  19.375 12.325  L 19.371875 12.321875  L 19.36875 12.31875  C 17.990625 9.40625  15.85625 7.90625  13.015625 7.90625  Z M 8.60625 12.890625  C 9.659375 10.84375  11.075 9.90625  13.015625 9.90625  C 14.95625 9.90625  16.371875 10.84375  17.425 12.890625  C 16.375 14.9375  14.95625 15.875  13.015625 15.875  C 11.075 15.875  9.659375 14.9375  8.60625 12.890625  Z M 11.28125 12.90625  C 11.28125 13.8727483122039  12.0647516877961 14.65625  13.03125 14.65625  C 13.9977483122039 14.65625  14.78125 13.8727483122039  14.78125 12.90625  C 14.78125 11.9397516877961  13.9977483122039 11.15625  13.03125 11.15625  C 12.0647516877961 11.15625  11.28125 11.9397516877961  11.28125 12.90625  Z M 25 5.325  C 25.5 4.771875  25.053125 4.325  24.5 4.325  L 13.28125 4.325  L 9.615625 0.81875  C 9.56875 0.774999999999999  9.50625 0.75  9.44375 0.75  L 1.5 0.75  C 0.946875 0.75  0.5 1.196875  1 1.75  L 1 20.25  C 0.5 20.803125  0.946875 21.25  1.5 21  L 24.5 21  C 25.053125 21.25  25.5 20.803125  25 20.25  L 25 5.325  Z M 23 7  L 23 19  L 3 19  L 3 3  L 8.640625 3  L 12.378125 7  L 23 7  Z " fill-rule="nonzero" fill="#ffffff" stroke="none" transform="matrix(1 0 0 1 852 2636 )" />
  </g>
</svg>