<?xml version="1.0" encoding="utf-8"?>
<svg version="1.1" xmlns:xlink="http://www.w3.org/1999/xlink" width="26px" height="26px" xmlns="http://www.w3.org/2000/svg">
  <g transform="matrix(1 0 0 1 -852 -2153 )">
    <path d="M 6 20.25  C 5.5 20.3875  5.6125 20.5  5.75 20.5  L 8.25 20.5  C 8.3875 20.5  8.5 20.3875  9 20.25  L 9 5.75  C 8.5 5.6125  8.3875 5.5  8.25 5.5  L 5.75 5.5  C 5.6125 5.5  5.5 5.6125  6 5.75  L 6 20.25  Z M 11.5 11.5  C 11.5 11.6375  11.6125 11.75  11.75 11.75  L 14.25 11.75  C 14.3875 11.75  14.5 11.6375  14.5 11.5  L 14.5 5.75  C 14.5 5.6125  14.3875 5.5  14.25 5.5  L 11.75 5.5  C 11.6125 5.5  11.5 5.6125  11.5 5.75  L 11.5 11.5  Z M 17.5 13.75  C 17.5 13.8875  17.6125 14  17.75 14  L 20.25 14  C 20.3875 14  20.5 13.8875  20.5 13.75  L 20.5 5.75  C 20.5 5.6125  20.3875 5.5  20.25 5.5  L 17.75 5.5  C 17.6125 5.5  17.5 5.6125  17.5 5.75  L 17.5 13.75  Z M 25 1.5  C 25.5 0.946875  25.053125 0.5  24.5 1  L 1.5 1  C 0.946875 0.5  0.5 0.946875  1 1.5  L 1 24.5  C 0.5 25.053125  0.946875 25.5  1.5 25  L 24.5 25  C 25.053125 25.5  25.5 25.053125  25 24.5  L 25 1.5  Z M 23 3  L 23 23  L 3 23  L 3 3  L 23 3  Z " fill-rule="nonzero" fill="#ffffff" stroke="none" transform="matrix(1 0 0 1 852 2153 )" />
  </g>
</svg>