<?xml version="1.0" encoding="utf-8"?>
<svg version="1.1" xmlns:xlink="http://www.w3.org/1999/xlink" width="24px" height="29px" xmlns="http://www.w3.org/2000/svg">
  <g transform="matrix(1 0 0 1 -853 -2494 )">
    <path d="M 10.746875 22.696875  C 10.84375 22.796875  11.003125 22.796875  11.1 22.696875  L 22.91875 10.875  C 22.971875 10.821875  22.996875 10.75  22.990625 10.678125  L 22.19375 1.259375  C 22.171875 1.015625  21.98125 0.825  21.7375 0.803125000000001  L 12.31875 0.00937499999999991  C 12.246875 0.00312499999999982  12.171875 0.0281249999999997  12.121875 0.0812499999999998  L 0.303125 11.9  C 0.20625 11.996875  0.20625 12.15625  0.303125 12.253125  L 10.746875 22.696875  Z M 3.309375 12.078125  L 13.05625 2.33125  L 20.075 2.925  L 20.66875 9.94375  L 10.921875 19.6875  L 3.309375 12.078125  Z M 14.4967291758394 7.09001447713266  C 14.4967291758394 7.48791032492425  14.6548207827404 7.86950339316701  14.936214125 8.15081975  C 15.2175274763389 8.43219044633303  15.5991046788201 8.59026767911734  15.9969823866606 8.59026767911734  C 16.8254095114068 8.59026767911734  17.4969823866606 7.91869480386353  17.4969823866606 7.09026767911734  C 17.4969823866606 6.69237183132575  17.3388907797596 6.31077876308298  17.0574974375 6.02946240625  C 16.7761840861611 5.74809170991697  16.3946068836799 5.59001447713266  15.9967291758394 5.59001447713266  C 15.1683020510932 5.59001447713266  14.4967291758394 6.26158735238647  14.4967291758394 7.09001447713266  Z M 23.803125 15.221875  C 23.9 15.125  23.9 14.965625  23.803125 14.86875  L 22.565625 13.634375  C 22.46875 13.5375  22.309375 13.5375  22.2125 13.634375  L 10.9 24.925  L 3.475 17.51875  C 3.378125 17.421875  3.21875 17.421875  3.121875 17.51875  L 1.884375 18.753125  C 1.7875 18.85  1.7875 19.009375  1.884375 19.10625  L 9.484375 26.69375  L 10.721875 27.928125  C 10.81875 28.025  10.978125 28.025  11.075 27.928125  L 23.803125 15.221875  Z " fill-rule="nonzero" fill="#000000" stroke="none" transform="matrix(1 0 0 1 853 2494 )" />
  </g>
</svg>