<?xml version="1.0" encoding="utf-8"?>
<svg version="1.1" xmlns:xlink="http://www.w3.org/1999/xlink" width="22px" height="28px" xmlns="http://www.w3.org/2000/svg">
  <g transform="matrix(1 0 0 1 -854 -1947 )">
    <path d="M 22 7.728125  C 22 7.4625  21.89375 7.20625  21.70625 7.01875  L 14.98125 0.29375  C 14.79375 0.10625  14.540625 0  14.275 0  L 1 0  C 0.446875 0  0 0.446875  0 1  L 0 27  C 0 27.553125  0.446875 28  1 28  L 21 28  C 21.553125 28  22 27.553125  22 27  L 22 7.728125  Z M 13.8125 2.30625  L 19.69375 8.1875  L 13.8125 8.1875  L 13.8125 2.30625  Z M 19.75 10.3125  L 19.75 25.75  L 2.25 25.75  L 2.25 2.25  L 11.6875 2.25  L 11.6875 9  C 11.6875 9.725  12.275 10.3125  13 10.3125  L 19.75 10.3125  Z M 11.865625 13.034375  C 11.825 12.865625  11.675 12.75  11.503125 12.75  L 10.496875 12.75  C 10.325 12.75  10.175 12.865625  10.134375 13.034375  L 8.58125 19.25  L 7.140625 13.040625  C 7.1 12.871875  6.95 12.75  6.775 12.75  L 5.66875 12.75  C 5.634375 12.75  5.603125 12.753125  5.571875 12.7625  C 5.371875 12.815625  5.253125 13.021875  5.30625 13.221875  L 7.625 21.846875  C 7.66875 22.009375  7.81875 22.125  7.9875 22.125  L 8.9875 22.125  C 9.15625 22.125  9.30625 22.0125  9.35 21.846875  L 11 15.690625  L 12.65 21.846875  C 12.69375 22.009375  12.84375 22.125  13.0125 22.125  L 14.00625 22.125  C 14.175 22.125  14.325 22.0125  14.36875 21.846875  L 16.69375 13.221875  C 16.703125 13.190625  16.70625 13.15625  16.70625 13.125  C 16.70625 12.91875  16.5375 12.75  16.33125 12.75  L 15.21875 12.75  C 15.04375 12.75  14.89375 12.871875  14.853125 13.040625  L 13.421875 19.2625  L 11.865625 13.034375  Z " fill-rule="nonzero" fill="#ffffff" stroke="none" transform="matrix(1 0 0 1 854 1947 )" />
  </g>
</svg>