<?xml version="1.0" encoding="utf-8"?>
<svg version="1.1" xmlns:xlink="http://www.w3.org/1999/xlink" width="28px" height="26px" xmlns="http://www.w3.org/2000/svg">
  <g transform="matrix(1 0 0 1 -851 -2427 )">
    <path d="M 23.875 10.875  C 23.875 10.7375  23.7625 10.625  23.625 10.625  L 22.375 10.625  C 22.2375 10.625  22.125 10.7375  22.125 10.875  L 22.125 12.125  C 22.125 12.2625  22.2375 12.375  22.375 12.375  L 23.625 12.375  C 23.7625 12.375  23.875 12.2625  23.875 12.125  L 23.875 10.875  Z M 27 9.875  C 27.125 8.49375  26.00625 7.375  24.625 7.375  L 20.875 7.375  L 20.875 0.75  C 20.875 0.6125  20.7625 0.5  20.625 1  L 7.375 1  C 7.2375 0.5  7.125 0.6125  7.125 0.75  L 7.125 7.375  L 3.375 7.375  C 1.99375 7.375  0.875 8.49375  1 9.875  L 1 20.125  C 0.875 20.678125  1.321875 21.125  1.875 21.125  L 7.125 21.125  L 7.125 25.25  C 7.125 25.3875  7.2375 25.5  7.375 25  L 20.625 25  C 20.7625 25.5  20.875 25.3875  20.875 25.25  L 20.875 21.125  L 26.125 21.125  C 26.678125 21.125  27.125 20.678125  27 20.125  L 27 9.875  Z M 9.25 7.375  L 9.25 2.625  L 18.75 2.625  L 18.75 7.375  L 9.25 7.375  Z M 18.75 14.75  L 18.75 23.375  L 9.25 23.375  L 9.25 14.75  L 18.75 14.75  Z M 25 9.875  L 25 19  L 20.875 19  L 20.875 13  L 7.125 13  L 7.125 19  L 3 19  L 3 9.875  C 3 9.66875  3.16875 9.5  3.375 10  L 24.625 10  C 24.83125 9.5  25 9.66875  25 9.875  Z " fill-rule="nonzero" fill="#000000" stroke="none" transform="matrix(1 0 0 1 851 2427 )" />
  </g>
</svg>