<?xml version="1.0" encoding="utf-8"?>
<svg version="1.1" xmlns:xlink="http://www.w3.org/1999/xlink" width="26px" height="26px" xmlns="http://www.w3.org/2000/svg">
  <g transform="matrix(1 0 0 1 -852 -2771 )">
    <path d="M 24.859375 14.8375  C 24.853125 14.44375  24.796875 14.053125  24.684375 13.678125  C 25.209375 12.984375  25.5 12.134375  25.5 11.25  C 25.5 9.846875  24.715625 8.51875  23.453125 7.778125  C 23.1281065877395 7.58748466444469  22.758053109029 7.4871494646777  22.38125 7.4875  L 14.8875 7.4875  L 15.075 3.646875  C 15.11875 2.71875  14.790625 1.8375  14.153125 1.165625  C 13.5125 0.493750000000002  12.65 0.121875000000002  11.71875 0.121875000000002  C 10.09375 0.121875000000002  8.65625 1.215625  8.225 2.78125  L 5.540625 12.5  L 1.5 12.5  C 0.946875 12.5  0.5 12.946875  1 13.5  L 1 24.875  C 0.5 25.428125  0.946875 25.875  1.5 25.875  L 20.290625 25.875  C 20.578125 25.875  20.859375 25.81875  21.11875 25.70625  C 22.60625 25.071875  23.565625 23.61875  23.565625 22.00625  C 23.565625 21.6125  23.509375 21.225  23.396875 20.85  C 23.921875 20.15625  24.2125 19.30625  24.2125 18.421875  C 24.2125 18.028125  24.15625 17.640625  24.04375 17.265625  C 24.56875 16.571875  24.859375 15.721875  24.859375 14.8375  Z M 5.28125 23.625  L 2.75 23.625  L 2.75 14.75  L 5.28125 14.75  L 5.28125 23.625  Z M 23.25 11.25  C 23.25 11.765625  23.025 12.253125  22.6375 12.59375  L 21.953125 13.1875  L 22.3875 13.98125  C 22.53125 14.24375  22.603125 14.53125  22.603125 14.834375  C 22.603125 15.35  22.378125 15.840625  21.990625 16.178125  L 21.30625 16.771875  L 21.740625 17.565625  C 21.884375 17.828125  21.95625 18.115625  21.95625 18.41875  C 21.95625 18.934375  21.73125 19.425  21.34375 19.7625  L 20.659375 20.35625  L 21.09375 21.15  C 21.2375 21.4125  21.309375 21.7  21.309375 22.003125  C 21.309375 22.703125  20.896875 23.334375  20.259375 23.621875  L 7.28125 23.621875  L 7.28125 14.65  L 10.390625 3.384375  C 10.553125 2.79375  11.09375 2.378125  11.709375 2.375  C 11.946875 2.375  12.18125 2.44375  12.36875 2.584375  C 12.678125 2.815625  12.84375 3.165625  12.825 3.5375  L 12.525 9.7375  L 22.35 9.7375  C 22.90625 10.078125  23.25 10.653125  23.25 11.25  Z " fill-rule="nonzero" fill="#000000" stroke="none" transform="matrix(1 0 0 1 852 2771 )" />
  </g>
</svg>