<?xml version="1.0" encoding="utf-8"?>
<svg version="1.1" xmlns:xlink="http://www.w3.org/1999/xlink" width="27px" height="23px" xmlns="http://www.w3.org/2000/svg">
  <g transform="matrix(1 0 0 1 -852 -2566 )">
    <path d="M 26.4807692307692 0.261363636363636  C 26.4807692307692 0.117613636363636  26.3639423076923 0  26.2211538461538 0  L 0.778846153846154 0  C 0.636057692307692 0  0.519230769230769 0.117613636363636  0.519230769230769 0.261363636363636  L 0.519230769230769 2.35227272727273  C 0.519230769230769 2.49602272727273  0.636057692307692 2.61363636363636  0.778846153846154 3  L 26.2211538461538 3  C 26.3639423076923 2.61363636363636  26.4807692307692 2.49602272727273  26.4807692307692 2.35227272727273  L 26.4807692307692 0.261363636363636  Z M 26.4807692307692 20.6477272727273  C 26.4807692307692 20.5039772727273  26.3639423076923 20.3863636363636  26.2211538461538 20  L 0.778846153846154 20  C 0.636057692307692 20.3863636363636  0.519230769230769 20.5039772727273  0.519230769230769 20.6477272727273  L 0.519230769230769 22.7386363636364  C 0.519230769230769 22.8823863636364  0.636057692307692 23  0.778846153846154 23  L 26.2211538461538 23  C 26.3639423076923 23  26.4807692307692 22.8823863636364  26.4807692307692 22.7386363636364  L 26.4807692307692 20.6477272727273  Z M 26.4807692307692 10.4545454545455  C 26.4807692307692 10.3107954545455  26.3639423076923 10.1931818181818  26.2211538461538 10.1931818181818  L 0.778846153846154 10.1931818181818  C 0.636057692307692 10.1931818181818  0.519230769230769 10.3107954545455  0.519230769230769 10.4545454545455  L 0.519230769230769 12.5454545454545  C 0.519230769230769 12.6892045454545  0.636057692307692 12.8068181818182  0.778846153846154 12.8068181818182  L 26.2211538461538 12.8068181818182  C 26.3639423076923 12.8068181818182  26.4807692307692 12.6892045454545  26.4807692307692 12.5454545454545  L 26.4807692307692 10.4545454545455  Z " fill-rule="nonzero" fill="#000000" stroke="none" transform="matrix(1 0 0 1 852 2566 )" />
  </g>
</svg>