<?xml version="1.0" encoding="utf-8"?>
<svg version="1.1" xmlns:xlink="http://www.w3.org/1999/xlink" width="3px" height="16px" xmlns="http://www.w3.org/2000/svg">
  <g transform="matrix(1 0 0 1 -770 -1749 )">
    <path d="M 1.625 13.5  C 1.275 13.5  0.940625000000001 13.44375  0.625 13.34375  L 0.625 15.75  C 0.625 15.8875  0.737500000000001 16  0.875 16  L 2.375 16  C 2.5125 16  2.625 15.8875  2.625 15.75  L 2.625 13.34375  C 2.309375 13.446875  1.975 13.5  1.625 13.5  Z M 1.625 7  C 1.975 7  2.309375 7.05625  2.625 7.15625  L 2.625 0.25  C 2.625 0.112500000000001  2.5125 0  2.375 0  L 0.875 0  C 0.737500000000001 0  0.625 0.112500000000001  0.625 0.25  L 0.625 7.15625  C 0.940625000000001 7.053125  1.275 7  1.625 7  Z " fill-rule="nonzero" fill="#000000" stroke="none" transform="matrix(1 0 0 1 770 1749 )" />
  </g>
</svg>