<?xml version="1.0" encoding="utf-8"?>
<svg version="1.1" xmlns:xlink="http://www.w3.org/1999/xlink" width="22px" height="26px" xmlns="http://www.w3.org/2000/svg">
  <g transform="matrix(1 0 0 1 -297 -2634 )">
    <path d="M 14.8625 13  C 16.8625 11.725  18.1875 9.484375  18.1875 6.9375  L 18.1875 2.75  L 20.875 2.75  C 21.0125 2.75  21.125 2.6375  21.125 2.5  L 21.125 0.75  C 21.125 0.6125  21.0125 0.5  20.875 1  L 1.125 1  C 0.9875 0.5  0.875 0.6125  0.875 0.75  L 0.875 2.5  C 0.875 2.6375  0.9875 2.75  1.125 2.75  L 3.8125 2.75  L 3.8125 6.9375  C 3.8125 9.484375  5.1375 11.725  7.1375 13  C 5.1375 14.275  3.8125 16.515625  3.8125 19.0625  L 3.8125 23.25  L 1.125 23.25  C 0.9875 23.25  0.875 23.3625  0.875 23.5  L 0.875 25.25  C 0.875 25.3875  0.9875 25.5  1.125 25  L 20.875 25  C 21.0125 25.5  21.125 25.3875  21.125 25.25  L 21.125 23.5  C 21.125 23.3625  21.0125 23.25  20.875 23.25  L 18.1875 23.25  L 18.1875 19.0625  C 18.1875 16.515625  16.8625 14.275  14.8625 13  Z M 14.490625 15.571875  C 15.425 16.503125  15.9375 17.74375  15.9375 19.0625  L 15.9375 23.25  L 6.0625 23.25  L 6.0625 19.0625  C 6.0625 17.74375  6.575 16.503125  7.509375 15.571875  C 8.440625 14.6375  9.68125 14.125  11 14.125  C 12.31875 14.125  13.559375 14.6375  14.490625 15.571875  Z M 15.9375 2.75  L 15.9375 6.9375  C 15.9375 8.25625  15.425 9.496875  14.490625 10.428125  C 13.559375 11.3625  12.31875 11.875  11 11.875  C 9.68125 11.875  8.440625 11.3625  7.509375 10.428125  C 6.575 9.496875  6.0625 8.25625  6.0625 6.9375  L 6.0625 2.75  L 15.9375 2.75  Z " fill-rule="nonzero" fill="#ffffff" stroke="none" transform="matrix(1 0 0 1 297 2634 )" />
  </g>
</svg>