<?xml version="1.0" encoding="utf-8"?>
<svg version="1.1" xmlns:xlink="http://www.w3.org/1999/xlink" width="26px" height="26px" xmlns="http://www.w3.org/2000/svg">
  <g transform="matrix(1 0 0 1 -387 -2905 )">
    <path d="M 25 1.5  C 25.5 0.946875  25.053125 0.5  24.5 1  L 1.5 1  C 0.946875 0.5  0.5 0.946875  1 1.5  L 1 24.5  C 0.5 25.053125  0.946875 25.5  1.5 25  L 24.5 25  C 25.053125 25.5  25.5 25.053125  25 24.5  L 25 1.5  Z M 18.5625 9.5  C 18.765625 9.5  18.884375 9.73125  18.765625 9.896875  L 13.203125 17.584375  C 13.103125 17.721875  12.9 17.721875  12.8 17.584375  L 7.2375 9.896875  C 7.11875 9.73125  7.2375 9.5  7.440625 9.5  L 8.90625 9.5  C 9.225 9.5  9.528125 9.653125  9.715625 9.9125  L 13 14.45625  L 16.2875 9.9125  C 16.475 9.653125  16.775 9.5  17.096875 9.5  L 18.5625 9.5  Z " fill-rule="nonzero" fill="#000000" stroke="none" transform="matrix(1 0 0 1 387 2905 )" />
  </g>
</svg>