<?xml version="1.0" encoding="utf-8"?>
<svg version="1.1" xmlns:xlink="http://www.w3.org/1999/xlink" width="26px" height="26px" xmlns="http://www.w3.org/2000/svg">
  <g transform="matrix(1 0 0 1 -479 -2905 )">
    <path d="M 25 1.5  C 25.5 0.946875  25.053125 0.5  24.5 1  L 1.5 1  C 0.946875 0.5  0.5 0.946875  1 1.5  L 1 24.5  C 0.5 25.053125  0.946875 25.5  1.5 25  L 24.5 25  C 25.053125 25.5  25.5 25.053125  25 24.5  L 25 1.5  Z M 18.7625 16.103125  C 18.884375 16.26875  18.765625 16.5  18.5625 16.5  L 17.096875 16.5  C 16.778125 16.5  16.475 16.346875  16.2875 16.0875  L 13 11.54375  L 9.7125 16.0875  C 9.525 16.346875  9.225 16.5  8.903125 16.5  L 7.4375 16.5  C 7.234375 16.5  7.115625 16.26875  7.234375 16.103125  L 12.796875 8.415625  C 12.896875 8.278125  13.1 8.278125  13.2 8.415625  L 18.7625 16.103125  Z " fill-rule="nonzero" fill="#ffffff" stroke="none" transform="matrix(1 0 0 1 479 2905 )" />
  </g>
</svg>