<?xml version="1.0" encoding="utf-8"?>
<svg version="1.1" xmlns:xlink="http://www.w3.org/1999/xlink" width="28px" height="28px" xmlns="http://www.w3.org/2000/svg">
  <g transform="matrix(1 0 0 1 -109 -2973 )">
    <path d="M 28 14  C 28 6.26875  21.73125 0  14 0  C 6.26875 0  0 6.26875  0 14  C 0 21.73125  6.26875 28  14 28  C 21.73125 28  28 21.73125  28 14  Z M 19.41875 19.06875  C 19.41875 19.20625  19.30625 19.31875  19.16875 19.31875  L 17.10625 19.309375  L 14 15.60625  L 10.896875 19.30625  L 8.83125 19.315625  C 8.69375 19.315625  8.58125 19.20625  8.58125 19.065625  C 8.58125 19.00625  8.603125 18.95  8.640625 18.903125  L 12.70625 14.059375  L 8.640625 9.21875  C 8.603125 9.171875  8.58125 9.115625  8.58125 9.05625  C 8.58125 8.91875  8.69375 8.80625  8.83125 8.80625  L 10.896875 8.815625  L 14 12.51875  L 17.103125 8.81875  L 19.165625 8.809375  C 19.303125 8.809375  19.415625 8.91875  19.415625 9.059375  C 19.415625 9.11875  19.39375 9.175  19.35625 9.221875  L 15.296875 14.0625  L 19.359375 18.90625  C 19.396875 18.953125  19.41875 19.009375  19.41875 19.06875  Z " fill-rule="nonzero" fill="#000000" stroke="none" transform="matrix(1 0 0 1 109 2973 )" />
  </g>
</svg>