<?xml version="1.0" encoding="utf-8"?>
<svg version="1.1" xmlns:xlink="http://www.w3.org/1999/xlink" width="28px" height="28px" xmlns="http://www.w3.org/2000/svg">
  <g transform="matrix(1 0 0 1 -478 -2973 )">
    <path d="M 28 14  C 28 6.26875  21.73125 0  14 0  C 6.26875 0  0 6.26875  0 14  C 0 21.73125  6.26875 28  14 28  C 21.73125 28  28 21.73125  28 14  Z M 19.5625 10.65625  C 19.765625 10.65625  19.884375 10.8875  19.765625 11.053125  L 14.203125 18.740625  C 14.103125 18.878125  13.9 18.878125  13.8 18.740625  L 8.2375 11.053125  C 8.11875 10.8875  8.2375 10.65625  8.440625 10.65625  L 9.90625 10.65625  C 10.225 10.65625  10.528125 10.809375  10.715625 11.06875  L 14 15.6125  L 17.2875 11.06875  C 17.475 10.809375  17.775 10.65625  18.096875 10.65625  L 19.5625 10.65625  Z " fill-rule="nonzero" fill="#000000" stroke="none" transform="matrix(1 0 0 1 478 2973 )" />
  </g>
</svg>