<?xml version="1.0" encoding="utf-8"?>
<svg version="1.1" xmlns:xlink="http://www.w3.org/1999/xlink" width="28px" height="28px" xmlns="http://www.w3.org/2000/svg">
  <g transform="matrix(1 0 0 1 -664 -2973 )">
    <path d="M 28 14  C 28 6.26875  21.73125 0  14 0  C 6.26875 0  0 6.26875  0 14  C 0 21.73125  6.26875 28  14 28  C 21.73125 28  28 21.73125  28 14  Z M 17.25 8.440625  L 17.25 9.903125  C 17.25 10.221875  17.096875 10.525  16.8375 10.7125  L 12.29375 14  L 16.8375 17.2875  C 17.096875 17.475  17.25 17.775  17.25 18.096875  L 17.25 19.5625  C 17.25 19.765625  17.01875 19.884375  16.853125 19.765625  L 9.165625 14.203125  C 9.028125 14.103125  9.028125 13.9  9.165625 13.8  L 16.853125 8.2375  C 17.01875 8.11875  17.25 8.234375  17.25 8.440625  Z " fill-rule="nonzero" fill="#000000" stroke="none" transform="matrix(1 0 0 1 664 2973 )" />
  </g>
</svg>