<?xml version="1.0" encoding="utf-8"?>
<svg version="1.1" xmlns:xlink="http://www.w3.org/1999/xlink" width="28px" height="28px" xmlns="http://www.w3.org/2000/svg">
  <g transform="matrix(1 0 0 1 -945 -2973 )">
    <path d="M 28 14  C 28 6.26875  21.73125 0  14 0  C 6.26875 0  0 6.26875  0 14  C 0 21.73125  6.26875 28  14 28  C 21.73125 28  28 21.73125  28 14  Z M 20 13.25  L 20 14.75  C 20 14.8875  19.8875 15  19.75 15  L 15 15  L 15 19.75  C 15 19.8875  14.8875 20  14.75 20  L 13.25 20  C 13.1125 20  13 19.8875  13 19.75  L 13 15  L 8.25 15  C 8.1125 15  8 14.8875  8 14.75  L 8 13.25  C 8 13.1125  8.1125 13  8.25 13  L 13 13  L 13 8.25  C 13 8.1125  13.1125 8  13.25 8  L 14.75 8  C 14.8875 8  15 8.1125  15 8.25  L 15 13  L 19.75 13  C 19.8875 13  20 13.1125  20 13.25  Z " fill-rule="nonzero" fill="#000000" stroke="none" transform="matrix(1 0 0 1 945 2973 )" />
  </g>
</svg>