<?xml version="1.0" encoding="utf-8"?>
<svg version="1.1" xmlns:xlink="http://www.w3.org/1999/xlink" width="22px" height="22px" xmlns="http://www.w3.org/2000/svg">
  <g transform="matrix(1 0 0 1 -574 -222 )">
    <path d="M 11.821875 21.596875  L 3.528125 11  L 11.821875 0.403125  C 11.95 0.240625000000001  11.834375 0  11.625 0  L 9.209375 0  C 9.05625 0  8.909375 0.0718750000000004  8.815625 0.190625  L 0.8375 10.384375  C 0.553125000000001 10.746875  0.553125000000001 11.25625  0.8375 11.61875  L 8.815625 21.809375  C 8.909375 21.93125  9.05625 22  9.209375 22  L 11.625 22  C 11.834375 22  11.95 21.759375  11.821875 21.596875  Z M 21.321875 21.596875  L 13.028125 11  L 21.321875 0.403125  C 21.45 0.240625000000001  21.334375 0  21.125 0  L 18.709375 0  C 18.55625 0  18.409375 0.0718750000000004  18.315625 0.190625  L 10.3375 10.384375  C 10.053125 10.746875  10.053125 11.25625  10.3375 11.61875  L 18.315625 21.809375  C 18.409375 21.93125  18.55625 22  18.709375 22  L 21.125 22  C 21.334375 22  21.45 21.759375  21.321875 21.596875  Z " fill-rule="nonzero" fill="#000000" stroke="none" transform="matrix(1 0 0 1 574 222 )" />
  </g>
</svg>