<?xml version="1.0" encoding="utf-8"?>
<svg version="1.1" xmlns:xlink="http://www.w3.org/1999/xlink" width="28px" height="28px" xmlns="http://www.w3.org/2000/svg">
  <g transform="matrix(1 0 0 1 -571 -2973 )">
    <path d="M 28 14  C 28 6.26875  21.73125 0  14 0  C 6.26875 0  0 6.26875  0 14  C 0 21.73125  6.26875 28  14 28  C 21.73125 28  28 21.73125  28 14  Z M 18.834375 13.796875  C 18.971875 13.896875  18.971875 14.103125  18.834375 14.203125  L 11.146875 19.765625  C 10.98125 19.884375  10.75 19.765625  10.75 19.5625  L 10.75 18.096875  C 10.75 17.778125  10.903125 17.475  11.1625 17.2875  L 15.70625 14  L 11.1625 10.7125  C 10.903125 10.525  10.75 10.225  10.75 9.903125  L 10.75 8.4375  C 10.75 8.234375  10.98125 8.115625  11.146875 8.234375  L 18.834375 13.796875  Z " fill-rule="nonzero" fill="#000000" stroke="none" transform="matrix(1 0 0 1 571 2973 )" />
  </g>
</svg>