<?xml version="1.0" encoding="utf-8"?>
<svg version="1.1" xmlns:xlink="http://www.w3.org/1999/xlink" width="28px" height="28px" xmlns="http://www.w3.org/2000/svg">
  <g transform="matrix(1 0 0 1 -757 -2973 )">
    <path d="M 28 14  C 28 6.26875  21.73125 0  14 0  C 6.26875 0  0 6.26875  0 14  C 0 21.73125  6.26875 28  14 28  C 21.73125 28  28 21.73125  28 14  Z M 19.459375 17.95625  C 19.571875 18.034375  19.596875 18.190625  19.515625 18.303125  L 18.621875 19.521875  C 18.540625 19.634375  18.384375 19.65625  18.271875 19.575  L 13.103125 15.80625  C 13.0375 15.759375  13 15.684375  13 15.603125  L 13 7  C 13 6.8625  13.1125 6.75  13.25 6.75  L 14.753125 6.75  C 14.890625 6.75  15.003125 6.8625  15.003125 7  L 15.003125 14.734375  L 19.459375 17.95625  Z " fill-rule="nonzero" fill="#ffffff" stroke="none" transform="matrix(1 0 0 1 757 2973 )" />
  </g>
</svg>