<?xml version="1.0" encoding="utf-8"?>
<svg version="1.1" xmlns:xlink="http://www.w3.org/1999/xlink" width="28px" height="28px" xmlns="http://www.w3.org/2000/svg">
  <g transform="matrix(1 0 0 1 -294 -2973 )">
    <path d="M 28 14  C 28 6.26875  21.73125 0  14 0  C 6.26875 0  0 6.26875  0 14  C 0 21.73125  6.26875 28  14 28  C 21.73125 28  28 21.73125  28 14  Z M 13 15.75  L 13 7.25  C 13 7.1125  13.1125 7  13.25 7  L 14.75 7  C 14.8875 7  15 7.1125  15 7.25  L 15 15.75  C 15 15.8875  14.8875 16  14.75 16  L 13.25 16  C 13.1125 16  13 15.8875  13 15.75  Z M 15.5 19.5  C 15.5 20.328125  14.828125 21  14 21  C 13.171875 21  12.5 20.328125  12.5 19.5  C 12.5 18.671875  13.171875 18  14 18  C 14.828125 18  15.5 18.671875  15.5 19.5  Z " fill-rule="nonzero" fill="#ffffff" stroke="none" transform="matrix(1 0 0 1 294 2973 )" />
  </g>
</svg>