<?xml version="1.0" encoding="utf-8"?>
<svg version="1.1" xmlns:xlink="http://www.w3.org/1999/xlink" width="25px" height="24px" xmlns="http://www.w3.org/2000/svg">
  <g transform="matrix(1 0 0 1 -480 -287 )">
    <path d="M 0 13  C 0 13.1375  0.1125 13.25  0.25 13.25  L 2.2375 13.25  C 2.375 13.25  2.4875 13.1375  2.4875 13  L 2.4875 5  L 19.00625 5  L 19.00625 7.290625  C 19.00625 7.35  19.025 7.40625  19.0625 7.453125  C 19.153125 7.565625  19.315625 7.5875  19.428125 7.496875  L 23.90625 3.98125  C 24.040625 3.825  24.01875 3.659375  23.90625 3.56875  L 19.428125 0.0562500000000004  C 19.38125 0.0187500000000007  19.325 0  19.265625 0  C 19.121875 0  19.003125 0.11875  19.003125 0.2625  L 19.003125 3  L 2.240625 3  C 1.00625 2.53125  0 3.5375  0 4.775  L 0 13  Z M 24.00625 11  C 24 10.8625  23.8875 10.75  23.75 10.75  L 21.7625 10.75  C 21.625 10.75  21.5125 10.8625  21.5125 11  L 21.5125 19  L 4.99375 19  L 4.99375 16.709375  C 4.99375 16.65  4.975 16.59375  4.9375 16.546875  C 4.846875 16.434375  4.684375 16.4125  4.571875 16.503125  L 0.0937500000000004 20.01875  C -0.0406249999999995 20.175  -0.0187499999999994 20.340625  0.0937500000000004 20.43125  L 4.571875 23.94375  C 4.61875 23.98125  4.675 24  4.734375 24  C 4.878125 24  4.996875 23.88125  4.996875 23.7375  L 4.996875 21  L 21.765625 21  C 23 21.46875  24.00625 20.4625  24.00625 19.225  L 24.00625 11  Z " fill-rule="nonzero" fill="#ffffff" stroke="none" transform="matrix(1 0 0 1 480 287 )" />
  </g>
</svg>