<?xml version="1.0" encoding="utf-8"?>
<svg version="1.1" xmlns:xlink="http://www.w3.org/1999/xlink" width="24px" height="24px" xmlns="http://www.w3.org/2000/svg">
  <g transform="matrix(1 0 0 1 -17 -287 )">
    <path d="M 23.55625 2.20625  C 23.65 2.1125  23.65 1.953125  23.553125 1.85625  L 22.14375 0.446875  C 22.046875 0.350000000000001  21.8875 0.350000000000001  21.790625 0.446875  L 16.86875 5.371875  L 15.159375 3.6625  C 15.0125 3.515625  14.7625 3.603125  14.7375 3.809375  L 14.003125 9.71875  C 13.984375 9.88125  14.11875 10.015625  14.28125 9.996875  L 20.19375 9.2625  C 20.4 9.2375  20.484375 8.9875  20.340625 8.840625  L 18.63125 7.13125  L 23.55625 2.20625  Z M 9.996875 14.28125  C 10.01875 14.11875  9.88125 13.98125  9.71875 14.003125  L 3.80625 14.7375  C 3.6 14.7625  3.515625 15.015625  3.659375 15.159375  L 5.36875 16.86875  L 0.446875 21.790625  C 0.350000000000001 21.8875  0.350000000000001 22.046875  0.446875 22.14375  L 1.85625 23.553125  C 1.953125 23.65  2.1125 23.65  2.209375 23.553125  L 7.134375 18.628125  L 8.84375 20.3375  C 8.990625 20.484375  9.240625 20.396875  9.265625 20.190625  L 9.996875 14.28125  Z " fill-rule="nonzero" fill="#000000" stroke="none" transform="matrix(1 0 0 1 17 287 )" />
  </g>
</svg>