<?xml version="1.0" encoding="utf-8"?>
<svg version="1.1" xmlns:xlink="http://www.w3.org/1999/xlink" width="24px" height="24px" xmlns="http://www.w3.org/2000/svg">
  <g transform="matrix(1 0 0 1 -759 -287 )">
    <path d="M 23.125 10.953125  C 23.265625 10.790625  23.15 10.540625  22.9375 10.540625  L 20.40625 10.540625  C 20.2625 10.540625  20.125 10.603125  20.028125 10.7125  L 13 18.596875  L 13 1  C 13.1875 0.8625  13.075 0.75  12.9375 0.75  L 11.0625 0.75  C 10.925 0.75  10.8125 0.8625  11 1  L 11 18.596875  L 3.971875 10.7125  C 3.878125 10.603125  3.740625 10.540625  3.59375 10.540625  L 1.0625 10.540625  C 0.85 10.540625  0.734375 10.79375  0.875 10.953125  L 11.246875 22.90625  C 11.64375 23.365625  12.35625 23.365625  12.75625 22.90625  L 23.125 10.953125  Z " fill-rule="nonzero" fill="#ffffff" stroke="none" transform="matrix(1 0 0 1 759 287 )" />
  </g>
</svg>