<?xml version="1.0" encoding="utf-8"?>
<svg version="1.1" xmlns:xlink="http://www.w3.org/1999/xlink" width="28px" height="28px" xmlns="http://www.w3.org/2000/svg">
  <g transform="matrix(1 0 0 1 -664 -351 )">
    <path d="M 27.71875 14.1375  C 27.79375 6.659375  21.790625 0.58125  14.303125 0.5625  C 9.5375 0.55  5.34375 3.015625  2.946875 6.740625  C 2.840625 6.90625  2.959375 7.125  3.15625 7.125  L 5.353125 7.125  C 5.503125 7.125  5.64375 7.059375  5.7375 6.94375  C 5.95625 6.678125  6.190625 6.421875  6.4375 6.178125  C 7.45625 5.1625  8.640625 4.3625  9.959375 3.80625  C 11.321875 3.23125  12.771875 2.9375  14.26875 2.9375  C 15.765625 2.9375  17.215625 3.228125  18.578125 3.80625  C 19.896875 4.3625  21.08125 5.1625  22.1 6.178125  C 23.11875 7.19375  23.915625 8.378125  24.475 9.69375  C 25.053125 11.05625  25.34375 12.503125  25.34375 14  C 25.34375 15.496875  25.05 16.94375  24.475 18.30625  C 23.91875 19.621875  23.11875 20.80625  22.1 21.821875  C 21.08125 22.8375  19.896875 23.6375  18.578125 24.19375  C 17.215625 24.76875  15.765625 25.0625  14.26875 25.0625  C 12.771875 25.0625  11.321875 24.76875  9.959375 24.19375  C 8.640625 23.6375  7.45625 22.8375  6.4375 21.821875  C 6.190625 21.575  5.959375 21.31875  5.7375 21.05625  C 5.64375 20.940625  5.5 20.875  5.353125 20.875  L 3.15625 20.875  C 2.959375 20.875  2.8375 21.09375  2.946875 21.259375  C 5.340625 24.975  9.515625 27.4375  14.26875 27.4375  C 21.65 27.4375  27.64375 21.496875  27.71875 14.1375  Z M 10.75078125 17.696875  C 10.58828125 17.825  10.34453125 17.709375  10.34453125 17.5  L 10.34453125 15.125  L 0.532031249999999 15.125  C 0.394531249999999 15.125  0.282031249999999 15.0125  0.282031249999999 14.875  L 0.282031249999999 13.125  C 0.282031249999999 12.9875  0.394531249999999 12.875  0.532031249999999 12.875  L 10.34453125 12.875  L 10.34453125 10.5  C 10.34453125 10.290625  10.58828125 10.171875  10.75078125 10.303125  L 15.18515625 13.803125  C 15.31328125 13.903125  15.31328125 14.096875  15.18515625 14.196875  L 10.75078125 17.696875  Z " fill-rule="nonzero" fill="#ffffff" stroke="none" transform="matrix(1 0 0 1 664 351 )" />
  </g>
</svg>