<?xml version="1.0" encoding="utf-8"?>
<svg version="1.1" xmlns:xlink="http://www.w3.org/1999/xlink" width="16px" height="22px" xmlns="http://www.w3.org/2000/svg">
  <g transform="matrix(1 0 0 1 -21 -156 )">
    <path d="M 2.86221875 10.47028125  C 2.51815625 10.74059375  2.51815625 11.25940625  2.86221875 11.5296875  L 14.83753125 20.9366875  C 15.2828125 21.2864375  15.9375 20.9711875  16 20.407  L 16 1.5929375  C 15.9375 1.028875  15.2828125 0.713562500000002  14.83753125 1.0633125  L 2.86221875 10.47028125  Z M 2.5625 21.75  C 2.5625 21.8880711874577  2.4505711874577 22  2.3125 22  L 0.3125 22  C 0.174428812542301 22  0.0625 21.8880711874577  0 21.75  L 0 0.25  C 0.0625 0.111928812542302  0.174428812542301 0  0.3125 0  L 2.3125 0  C 2.4505711874577 0  2.5625 0.111928812542302  2.5625 0.25  L 2.5625 21.75  Z " fill-rule="nonzero" fill="#000000" stroke="none" transform="matrix(1 0 0 1 21 156 )" />
  </g>
</svg>