<?xml version="1.0" encoding="utf-8"?>
<svg version="1.1" xmlns:xlink="http://www.w3.org/1999/xlink" width="18px" height="24px" xmlns="http://www.w3.org/2000/svg">
  <g transform="matrix(1 0 0 1 -856 -221 )">
    <path d="M 3.4375 1.375  C 3.4375 1.2375  3.325 1.125  3.1875 1.125  L 1.1875 1.125  C 1.05 1.125  0.9375 1.2375  1 1.375  L 1 22.875  C 0.9375 23.0125  1.05 23.125  1.1875 23.125  L 3.1875 23.125  C 3.325 23.125  3.4375 23.0125  3.4375 22.875  L 3.4375 1.375  Z M 16.70625 4.153125  C 16.93125 3.9625  17.0625 3.68125  17.0625 3.3875  L 17.0625 1.125  C 17.0625 0.9125  16.815625 0.796875  16.653125 0.934375  L 3.46875 12  L 16.653125 23.065625  C 16.815625 23.203125  17.0625 23.0875  17.0625 22.875  L 17.0625 20.6125  C 17.0625 20.31875  16.93125 20.0375  16.70625 19.846875  L 7.35625 12  L 16.70625 4.153125  Z " fill-rule="nonzero" fill="#000000" stroke="none" transform="matrix(1 0 0 1 856 221 )" />
  </g>
</svg>