<?xml version="1.0" encoding="utf-8"?>
<svg version="1.1" xmlns:xlink="http://www.w3.org/1999/xlink" width="24px" height="22px" xmlns="http://www.w3.org/2000/svg">
  <g transform="matrix(1 0 0 1 -17 -1081 )">
    <path d="M 24 20  C 24 19.8625  23.8875 19.75  23.75 19.75  L 2.25 19.75  L 2.25 0.25  C 2.25 0.1125  2.1375 0  2 0  L 0.25 0  C 0.1125 0  0 0.1125  0 0.25  L 0 21.75  C 0 21.8875  0.1125 22  0.25 22  L 23.75 22  C 23.8875 22  24 21.8875  24 21.75  L 24 20  Z M 4.25 17.5  C 4.25 17.6375  4.3625 17.75  4.5 17.75  L 21.25 17.75  C 21.3875 17.75  21.5 17.6375  21.5 17.5  L 21.5 3.875  C 21.5 3.65  21.228125 3.540625  21.071875 3.696875  L 14.5 10.26875  L 10.58125 6.39375  C 10.484375 6.296875  10.325 6.296875  10.228125 6.39375  L 4.321875 12.31875  C 4.275 12.365625  4.25 12.428125  4.25 12.49375  L 4.25 17.5  Z " fill-rule="nonzero" fill="#000000" stroke="none" transform="matrix(1 0 0 1 17 1081 )" />
  </g>
</svg>