<?xml version="1.0" encoding="utf-8"?>
<svg version="1.1" xmlns:xlink="http://www.w3.org/1999/xlink" width="24px" height="22px" xmlns="http://www.w3.org/2000/svg">
  <g transform="matrix(1 0 0 1 -204 -1081 )">
    <path d="M 24 20  C 24 19.8625  23.8875 19.75  23.75 19.75  L 2.25 19.75  L 2.25 0.25  C 2.25 0.1125  2.1375 0  2 0  L 0.25 0  C 0.1125 0  0 0.1125  0 0.25  L 0 21.75  C 0 21.8875  0.1125 22  0.25 22  L 23.75 22  C 23.8875 22  24 21.8875  24 21.75  L 24 20  Z M 4.75 17  C 4.75 17.1375  4.8625 17.25  5 17.25  L 6.75 17.25  C 6.8875 17.25  7 17.1375  7 17  L 7 12.5  C 7 12.3625  6.8875 12.25  6.75 12.25  L 5 12.25  C 4.8625 12.25  4.75 12.3625  4.75 12.5  L 4.75 17  Z M 9.5 17  C 9.5 17.1375  9.6125 17.25  9.75 17.25  L 11.5 17.25  C 11.6375 17.25  11.75 17.1375  12 17  L 12 7  C 11.75 6.8625  11.6375 6.75  11.5 6.75  L 9.75 6.75  C 9.6125 6.75  9.5 6.8625  9.5 7  L 9.5 17  Z M 14.25 17  C 14.25 17.1375  14.3625 17.25  14.5 17.25  L 16.25 17.25  C 16.3875 17.25  16.5 17.1375  16.5 17  L 16.5 9.4375  C 16.5 9.3  16.3875 9.1875  16.25 9.1875  L 14.5 9.1875  C 14.3625 9.1875  14.25 9.3  14.25 9.4375  L 14.25 17  Z M 19 17  C 19 17.1375  19.1125 17.25  19.25 17.25  L 21 17.25  C 21.1375 17.25  21.25 17.1375  21 17  L 21 4.5  C 21.25 4.3625  21.1375 4.25  21 4.25  L 19.25 4.25  C 19.1125 4.25  19 4.3625  19 4.5  L 19 17  Z " fill-rule="nonzero" fill="#000000" stroke="none" transform="matrix(1 0 0 1 204 1081 )" />
  </g>
</svg>