<?xml version="1.0" encoding="utf-8"?>
<svg version="1.1" xmlns:xlink="http://www.w3.org/1999/xlink" width="24px" height="22px" xmlns="http://www.w3.org/2000/svg">
  <g transform="matrix(1 0 0 1 -388 -1081 )">
    <path d="M 24 20  C 24 19.8625  23.8875 19.75  23.75 19.75  L 2.25 19.75  L 2.25 0.25  C 2.25 0.1125  2.1375 0  2 0  L 0.25 0  C 0.1125 0  0 0.1125  0 0.25  L 0 21.75  C 0 21.8875  0.1125 22  0.25 22  L 23.75 22  C 23.8875 22  24 21.8875  24 21.75  L 24 20  Z M 4.321875 13.6875  L 5.55625 14.928125  C 5.653125 15.025  5.809375 15.025  5.909375 14.928125  L 10.23125 10.628125  L 14.21875 14.640625  C 14.315625 14.7375  14.475 14.7375  14.571875 14.640625  L 23.178125 6.0375  C 23.275 5.940625  23.275 5.78125  23.178125 5.684375  L 21.940625 4.446875  C 21.84375 4.35  21.684375 4.35  21.5875 4.446875  L 14.4 11.63125  L 10.41875 7.625  C 10.321875 7.528125  10.1625 7.528125  10.065625 7.625  L 4.321875 13.334375  C 4.225 13.43125  4.225 13.590625  4.321875 13.6875  Z " fill-rule="nonzero" fill="#000000" stroke="none" transform="matrix(1 0 0 1 388 1081 )" />
  </g>
</svg>