<?xml version="1.0" encoding="utf-8"?>
<svg version="1.1" xmlns:xlink="http://www.w3.org/1999/xlink" width="28px" height="28px" xmlns="http://www.w3.org/2000/svg">
  <g transform="matrix(1 0 0 1 -109 -1078 )">
    <path d="M 25.25 14.4375  C 25.25 14.3  25.1375 14.1875  25 14  L 14 14  L 14 3  C 13.8125 2.8625  13.7 2.75  13.5625 2.75  L 12.75 2.75  C 11.0625 2.75  9.425 3.08125  7.884375 3.73125  C 6.396875 4.359375  5.059375 5.2625  3.9125 6.409375  C 2.765625 7.55625  1.8625 8.89375  1.234375 10.38125  C 0.58125 11.925  0.25 13.5625  0.25 15.25  C 0.25 16.9375  0.58125 18.575  1.23125 20.115625  C 1.859375 21.603125  2.7625 22.940625  3.909375 24.0875  C 5.05625 25.234375  6.39375 26.1375  7.88125 26.765625  C 9.425 27.41875  11.0625 27.75  12.75 27.75  C 14.4375 27.75  16.075 27.41875  17.615625 26.76875  C 19.103125 26.140625  20.440625 25.2375  21.5875 24.090625  C 22.734375 22.94375  23.6375 21.60625  24.265625 20.11875  C 24.91875 18.575  25.25 16.9375  25.25 15.25  L 25.25 14.4375  Z M 23.071875 16  C 22.83125 18.696875  21.78125 20.90625  20.053125 22.61875  C 18.096875 24.559375  15.45625 25.6375  12.7 25.625  C 9.946875 25.6125  7.359375 24.534375  5.4125 22.5875  C 3.453125 20.628125  2.375 18.021875  2.375 15.25  C 2.375 12.478125  3.453125 9.871875  5.4125 7.9125  C 7.11875 6.20625  9.315625 5.165625  12 4.928125  L 12 16  L 23.071875 16  Z M 27.5 13  C 27.646875 12.71875  27.7625 12.59375  27.75 12.45  L 27.66875 11.56875  C 27.403125 8.690625  26.125 5.975  24.06875 3.925  C 22.0125 1.871875  19.29375 0.596875  16.40625 0.33125  L 15.521875 0.25  C 15.375 0.2375  15.25 0.35  15 0.496875  L 15 12.5  C 15.25 12.6375  15.3625 12.75  15.5 13  L 27.5 13  Z M 25.38125 10.609375  L 17.36875 10.63125  L 17.36875 2.6125  C 19.325 3.021875  21.140625 3.99375  22.56875 5.41875  C 23.996875 6.84375  24.975 8.65625  25.38125 10.609375  Z " fill-rule="nonzero" fill="#ffffff" stroke="none" transform="matrix(1 0 0 1 109 1078 )" />
  </g>
</svg>