<?xml version="1.0" encoding="utf-8"?>
<svg version="1.1" xmlns:xlink="http://www.w3.org/1999/xlink" width="28px" height="18px" xmlns="http://www.w3.org/2000/svg">
  <g transform="matrix(1 0 0 1 -945 -1083 )">
    <path d="M 28 0.25  C 28 0.1125  27.8875 0  27.75 0  L 26.125 0  C 25.9875 0  25.875 0.1125  25.875 0.25  L 25.875 8  L 23 8  L 23 2.5  C 23 2.3625  22.8875 2.25  22.75 2.25  L 5.25 2.25  C 5.1125 2.25  5 2.3625  5 2.5  L 5 8  L 2.125 8  L 2.125 0.25  C 2.125 0.1125  2.0125 0  1.875 0  L 0.25 0  C 0.1125 0  0 0.1125  0 0.25  L 0 17.75  C 0 17.8875  0.1125 18  0.25 18  L 1.875 18  C 2.0125 18  2.125 17.8875  2.125 17.75  L 2.125 10.125  L 5 10.125  L 5 15.5  C 5 15.6375  5.1125 15.75  5.25 15.75  L 22.75 15.75  C 22.8875 15.75  23 15.6375  23 15.5  L 23 10.125  L 25.875 10.125  L 25.875 17.75  C 25.875 17.8875  25.9875 18  26.125 18  L 27.75 18  C 27.8875 18  28 17.8875  28 17.75  L 28 0.25  Z M 7.25 13.5  L 7.25 4.5  L 10 4.5  L 10 13.5  L 7.25 13.5  Z M 20.75 4.5  L 20.75 13.5  L 12 13.5  L 12 4.5  L 20.75 4.5  Z " fill-rule="nonzero" fill="#000000" stroke="none" transform="matrix(1 0 0 1 945 1083 )" />
  </g>
</svg>