<?xml version="1.0" encoding="utf-8"?>
<svg version="1.1" xmlns:xlink="http://www.w3.org/1999/xlink" width="29px" height="23px" xmlns="http://www.w3.org/2000/svg">
  <g transform="matrix(1 0 0 1 -1038 -1081 )">
    <path d="M 29 1.125  C 28.9375 0.571875  28.490625 0.125  27.9375 0.125  L 1.9375 0.125  C 1.384375 0.125  0.9375 0.571875  1 1.125  L 1 21.125  C 0.9375 21.678125  1.384375 22.125  1.9375 22  L 27.9375 22  C 28.490625 22.125  28.9375 21.678125  29 21.125  L 29 1.125  Z M 26.6875 2.375  L 26.6875 19.875  L 3.1875 19.875  L 3.1875 2.375  L 26.6875 2.375  Z M 4.95 16.15  L 6.096875 17.303125  C 6.19375 17.4  6.353125 17.4  6.45 17.303125  L 11.840625 11.9125  L 15.415625 15.490625  C 15.5125 15.5875  15.671875 15.5875  15.76875 15.490625  L 25.05 6.203125  C 25.146875 6.10625  25.146875 5.946875  25.05 5.85  L 23.9 4.7  C 23.803125 4.603125  23.64375 4.603125  23.546875 4.7  L 15.59375 12.65625  L 12.01875 9.078125  C 11.921875 8.98125  11.7625 8.98125  11.665625 9.078125  L 4.95 15.796875  C 4.853125 15.89375  4.853125 16.053125  4.95 16.15  Z " fill-rule="nonzero" fill="#000000" stroke="none" transform="matrix(1 0 0 1 1038 1081 )" />
  </g>
</svg>