<?xml version="1.0" encoding="utf-8"?>
<svg version="1.1" xmlns:xlink="http://www.w3.org/1999/xlink" width="26px" height="20px" xmlns="http://www.w3.org/2000/svg">
  <g transform="matrix(1 0 0 1 -852 -1082 )">
    <path d="M 25.5 17.59375  C 25.5 17.45625  25.3875 17.34375  25.25 17  L 0.75 17  C 0.6125 17.34375  0.5 17.45625  0.5 17.59375  L 0.5 19.34375  C 0.5 19.48125  0.6125 19.59375  0.75 19.59375  L 25.25 19.59375  C 25.3875 19.59375  25.5 19.48125  25.5 19.34375  L 25.5 17.59375  Z M 2.178125 13.078125  C 2.08125 13.175  2.078125 13.334375  2.178125 13.43125  L 3.41875 14.665625  C 3.515625 14.7625  3.675 14.7625  3.771875 14.665625  L 11.10625 7.35625  L 14.15625 10.396875  C 14.546875 10.784375  15.178125 10.784375  15.56875 10.396875  L 23.825 2.171875  C 23.921875 2.075  23.921875 1.915625  23.825 1.81875  L 22.584375 0.581249999999998  C 22.4875 0.484374999999998  22.328125 0.484374999999998  22.23125 0.581249999999998  L 14.865625 7.925  L 11.8125 4.884375  C 11.421875 4.496875  10.790625 4.496875  10.4 4.884375  L 2.178125 13.078125  Z " fill-rule="nonzero" fill="#ffffff" stroke="none" transform="matrix(1 0 0 1 852 1082 )" />
  </g>
</svg>