<?xml version="1.0" encoding="utf-8"?>
<svg version="1.1" xmlns:xlink="http://www.w3.org/1999/xlink" width="4px" height="24px" xmlns="http://www.w3.org/2000/svg">
  <g transform="matrix(1 0 0 1 -27 -681 )">
    <path d="M 0 21.125  C 0 22.2295694996616  0.895430500338414 23.125  2 23.125  C 3.10456949966159 23.125  4 22.2295694996616  4 21.125  C 4 20.0204305003384  3.10456949966159 19.125  2 19.125  C 0.895430500338414 19.125  0 20.0204305003384  0 21.125  Z M 0.75 15.625  C 0.75 15.7625  0.862500000000001 15.875  1 15.875  L 3 15.875  C 3.1375 15.875  3.25 15.7625  3.25 15.625  L 3.25 1.125  C 3.25 0.9875  3.1375 0.875  3 0.875  L 1 0.875  C 0.862500000000001 0.875  0.75 0.9875  0.75 1.125  L 0.75 15.625  Z " fill-rule="nonzero" fill="#ffffff" stroke="none" transform="matrix(1 0 0 1 27 681 )" />
  </g>
</svg>