<?xml version="1.0" encoding="utf-8"?>
<svg version="1.1" xmlns:xlink="http://www.w3.org/1999/xlink" width="26px" height="26px" xmlns="http://www.w3.org/2000/svg">
  <g transform="matrix(1 0 0 1 -387 -680 )">
    <path d="M 7.871875 17.559375  C 7.734375 17.721875  7.85 17.96875  8.0625 17.96875  L 9.903125 17.96875  C 10.05 17.96875  10.190625 17.903125  10.2875 17.790625  L 13 14.55625  L 15.7125 17.790625  C 15.80625 17.903125  15.946875 17.96875  16.096875 17.96875  L 17.9375 17.96875  C 18.15 17.96875  18.265625 17.721875  18.128125 17.559375  L 14.30625 13  L 18.13125 8.440625  C 18.26875 8.278125  18.153125 8.03125  17.940625 8.03125  L 16.1 8.03125  C 15.953125 8.03125  15.8125 8.096875  15.715625 8.209375  L 13 11.44375  L 10.2875 8.209375  C 10.19375 8.096875  10.053125 8.03125  9.903125 8.03125  L 8.0625 8.03125  C 7.85 8.03125  7.734375 8.278125  7.871875 8.440625  L 11.69375 13  L 7.871875 17.559375  Z M 25 1.5  C 25.5 0.946875  25.053125 0.5  24.5 1  L 1.5 1  C 0.946875 0.5  0.5 0.946875  1 1.5  L 1 24.5  C 0.5 25.053125  0.946875 25.5  1.5 25  L 24.5 25  C 25.053125 25.5  25.5 25.053125  25 24.5  L 25 1.5  Z M 23 3  L 23 23  L 3 23  L 3 3  L 23 3  Z " fill-rule="nonzero" fill="#000000" stroke="none" transform="matrix(1 0 0 1 387 680 )" />
  </g>
</svg>