<?xml version="1.0" encoding="utf-8"?>
<svg version="1.1" xmlns:xlink="http://www.w3.org/1999/xlink" width="28px" height="28px" xmlns="http://www.w3.org/2000/svg">
  <g transform="matrix(1 0 0 1 -945 -679 )">
    <path d="M 12.5 19.5  C 12.5 20.3284271247462  13.1715728752538 21  14 21  C 14.8284271247462 21  15.5 20.3284271247462  15.5 19.5  C 15.5 18.6715728752538  14.8284271247462 18  14 18  C 13.1715728752538 18  12.5 18.6715728752538  12.5 19.5  Z M 13.25 16  L 14.75 16  C 14.8875 16  15 15.8875  15 15.75  L 15 7.25  C 15 7.1125  14.8875 7  14.75 7  L 13.25 7  C 13.1125 7  13 7.1125  13 7.25  L 13 15.75  C 13 15.8875  13.1125 16  13.25 16  Z M 27.453125 10.521875  C 27.571875 10.35625  27.453125 10.125  27.25 10.125  L 25.396875 10.125  C 25.315625 10.125  25.240625 10.1625  25.19375 10.228125  L 21.865625 14.815625  L 20.30625 12.665625  C 20.259375 12.6  20.184375 12.5625  20.103125 12.5625  L 18.25 12.5625  C 18.046875 12.5625  17.928125 12.79375  18.046875 12.959375  L 21.459375 17.66875  C 21.659375 17.94375  22.071875 17.94375  22.271875 17.66875  L 27.453125 10.521875  Z M 26.096875 20.05  C 26.18125 19.884375  26.059375 19.6875  25.875 19.6875  L 23.86875 19.6875  C 23.696875 19.6875  23.5375 19.778125  23.44375 19.921875  C 23.003125 20.621875  22.484375 21.271875  21.8875 21.865625  C 20.8625 22.8875  19.671875 23.690625  18.346875 24.25  C 16.975 24.828125  15.51875 25.121875  14.0125 25.121875  C 12.509375 25.121875  11.05 24.828125  9.678125 24.25  C 8.353125 23.690625  7.1625 22.8875  6.1375 21.865625  C 5.1125 20.84375  4.309375 19.653125  3.75 18.328125  C 3.16875 16.959375  2.875 15.5  2.875 14  C 2.875 12.5  3.16875 11.040625  3.75 9.671875  C 4.309375 8.346875  5.1125 7.15625  6.1375 6.134375  C 7.1625 5.1125  8.353125 4.309375  9.678125 3.75  C 11.05 3.171875  12.50625 2.878125  14.0125 2.878125  C 15.515625 2.878125  16.975 3.171875  18.346875 3.75  C 19.671875 4.309375  20.8625 5.1125  21.8875 6.134375  C 22.48125 6.728125  23 7.378125  23.44375 8.078125  C 23.534375 8.225  23.696875 8.3125  23.86875 8.3125  L 25.875 8.3125  C 26.0625 8.3125  26.18125 8.115625  26.1 7.95  C 23.9 3.578125  19.396875 0.5625  14.178125 0.5  C 6.715625 0.4125  0.515625 6.515625  0.5 13.975  C 0.484375 21.440625  6.540625 27.5  14.0125 27.5  C 19.3 27.5  23.875 24.46875  26.096875 20.05  Z " fill-rule="nonzero" fill="#000000" stroke="none" transform="matrix(1 0 0 1 945 679 )" />
  </g>
</svg>