<?xml version="1.0" encoding="utf-8"?>
<svg version="1.1" xmlns:xlink="http://www.w3.org/1999/xlink" width="28px" height="28px" xmlns="http://www.w3.org/2000/svg">
  <g transform="matrix(1 0 0 1 -1039 -679 )">
    <path d="M 28 14  C 28 6.26875  21.73125 0  14 0  C 6.26875 0  0 6.26875  0 14  C 0 21.73125  6.26875 28  14 28  C 21.73125 28  28 21.73125  28 14  Z M 21.3375 23.015625  C 19.3375 24.646875  16.78125 25.625  14 25.625  C 7.58125 25.625  2.375 20.41875  2.375 14  C 2.375 11.21875  3.353125 8.6625  4.984375 6.6625  L 21.3375 23.015625  Z M 25.625 14  C 25.625 16.78125  24.646875 19.3375  23.015625 21.3375  L 6.6625 4.984375  C 8.6625 3.353125  11.21875 2.375  14 2.375  C 20.41875 2.375  25.625 7.58125  25.625 14  Z " fill-rule="nonzero" fill="#000000" stroke="none" transform="matrix(1 0 0 1 1039 679 )" />
  </g>
</svg>